# .PCD v0.7 - Point Cloud Data file format
VERSION 0.7
FIELDS x y z normal_x normal_y normal_z rgb
SIZE 4 4 4 4 4 4 4
TYPE F F F F F F F
COUNT 1 1 1 1 1 1 1
WIDTH 276
HEIGHT 1
VIEWPOINT 0 0 0 1 0 0 0
POINTS 276
DATA ascii
-12.831877 15.558852 99.119934 -0.495390 0.623447 0.604899 1.6119787838914282e-38
-13.388205 14.865642 98.559495 -0.510600 0.611053 0.604899 1.6119787838914282e-38
-12.815650 14.682600 98.890962 -0.525499 0.598287 0.604899 1.6119787838914282e-38
-13.912192 14.305960 98.732039 -0.540080 0.585159 0.604899 1.6119787838914282e-38
-13.847940 14.121897 99.410132 -0.554333 0.571675 0.604899 1.6119787838914282e-38
-13.920998 13.336868 99.274332 -0.568249 0.557844 0.604899 1.6119787838914282e-38
-14.201908 13.537930 99.264794 -0.581821 0.543674 0.604899 1.6119787838914282e-38
-14.433809 13.011245 98.603144 -0.595039 0.529175 0.604899 1.6119787838914282e-38
-14.944786 12.543840 99.048366 -0.607896 0.514354 0.604899 1.6119787838914282e-38
-15.736132 12.704443 98.741244 -0.620384 0.499221 0.604899 1.6119787838914282e-38
-15.789137 11.945883 98.544192 -0.632495 0.483785 0.604899 1.6119787838914282e-38
-15.693572 12.022877 98.926040 -0.644222 0.468055 0.604899 1.6119787838914282e-38
-16.527144 11.168980 98.817266 -0.655558 0.452041 0.604899 1.6119787838914282e-38
-16.578058 10.740683 98.696912 -0.666496 0.435752 0.604899 1.6119787838914282e-38
-16.493713 10.358407 99.548567 -0.677030 0.419199 0.604899 1.6119787838914282e-38
-17.053537 9.883305 98.884432 -0.687152 0.402392 0.604899 1.6119787838914282e-38
-17.436293 9.548941 99.036269 -0.696858 0.385340 0.604899 1.6119787838914282e-38
-12.018515 14.660950 100.565676 -0.518389 0.652391 0.552864 1.6119787838914282e-38
-12.204042 15.011308 100.317858 -0.534305 0.639421 0.552864 1.6119787838914282e-38
-13.001345 14.526207 100.489532 -0.549896 0.626063 0.552864 1.6119787838914282e-38
-13.361755 14.088158 100.610109 -0.565154 0.612325 0.552864 1.6119787838914282e-38
-13.839849 13.227066 100.462122 -0.580069 0.598215 0.552864 1.6119787838914282e-38
-13.580159 13.667228 100.463343 -0.594631 0.583742 0.552864 1.6119787838914282e-38
-13.596979 13.239649 99.935498 -0.608832 0.568915 0.552864 1.6119787838914282e-38
-14.252435 13.128905 100.076176 -0.622664 0.553742 0.552864 1.6119787838914282e-38
-14.136543 12.133700 99.951452 -0.636118 0.538233 0.552864 1.6119787838914282e-38
-15.057546 11.999549 100.572616 -0.649186 0.522398 0.552864 1.6119787838914282e-38
-14.902235 11.543383 99.836992 -0.661859 0.506245 0.552864 1.6119787838914282e-38
-15.327162 11.147682 99.917633 -0.674131 0.489785 0.552864 1.6119787838914282e-38
-15.466416 10.506540 100.063946 -0.685993 0.473027 0.552864 1.6119787838914282e-38
-15.624287 10.806180 100.635392 -0.697439 0.455982 0.552864 1.6119787838914282e-38
-16.148739 10.098318 100.372827 -0.708462 0.438661 0.552864 1.6119787838914282e-38
-16.157710 9.573156 100.571749 -0.719054 0.421073 0.552864 1.6119787838914282e-38
-16.760168 8.788000 100.289428 -0.729210 0.403230 0.552864 1.6119787838914282e-38
-11.215455 14.415220 101.900529 -0.547345 0.688832 0.475315 1.6119787838914282e-38
-10.927150 14.367520 101.261719 -0.564150 0.675138 0.475315 1.6119787838914282e-38
-12.048586 13.771180 101.454892 -0.580612 0.661034 0.475315 1.6119787838914282e-38
-12.246151 13.754643 101.511760 -0.596722 0.646528 0.475315 1.6119787838914282e-38
-12.343724 12.733078 101.616620 -0.612470 0.631630 0.475315 1.6119787838914282e-38
-13.438537 13.091463 101.415430 -0.627845 0.616349 0.475315 1.6119787838914282e-38
-13.661175 12.348056 101.612979 -0.642840 0.600693 0.475315 1.6119787838914282e-38
-13.920904 11.836779 101.351517 -0.657445 0.584673 0.475315 1.6119787838914282e-38
-13.592557 11.158506 101.607795 -0.671650 0.568298 0.475315 1.6119787838914282e-38
-14.203856 11.738548 101.590618 -0.685447 0.551577 0.475315 1.6119787838914282e-38
-13.996109 11.188056 101.106699 -0.698829 0.534522 0.475315 1.6119787838914282e-38
-14.542797 10.853495 101.260521 -0.711786 0.517143 0.475315 1.6119787838914282e-38
-15.094732 9.616104 101.687488 -0.724311 0.499449 0.475315 1.6119787838914282e-38
-15.226253 9.792396 101.162422 -0.736396 0.481452 0.475315 1.6119787838914282e-38
-15.575354 9.715854 101.517263 -0.748034 0.463163 0.475315 1.6119787838914282e-38
-15.758570 8.832513 101.359057 -0.759218 0.444593 0.475315 1.6119787838914282e-38
-16.131919 8.742861 101.645706 -0.769942 0.425753 0.475315 1.6119787838914282e-38
-10.836377 14.126285 103.077231 -0.578621 0.728194 0.367330 1.6119787838914282e-38
-10.914332 13.356402 102.509959 -0.596386 0.713717 0.367330 1.6119787838914282e-38
-11.855015 13.260448 102.960285 -0.613790 0.698807 0.367330 1.6119787838914282e-38
-12.098140 12.869376 102.874412 -0.630820 0.683472 0.367330 1.6119787838914282e-38
-12.339779 12.569350 103.014715 -0.647468 0.667723 0.367330 1.6119787838914282e-38
-12.543690 12.104899 102.709317 -0.663722 0.651568 0.367330 1.6119787838914282e-38
-12.720545 12.759378 103.136137 -0.679574 0.635018 0.367330 1.6119787838914282e-38
-12.184785 11.368166 103.097780 -0.695012 0.618083 0.367330 1.6119787838914282e-38
-12.960586 11.369569 102.562688 -0.710029 0.600772 0.367330 1.6119787838914282e-38
-13.481094 10.928421 102.337234 -0.724615 0.583096 0.367330 1.6119787838914282e-38
-14.394943 10.236217 102.750343 -0.738761 0.565066 0.367330 1.6119787838914282e-38
-14.027413 10.045434 102.825507 -0.752459 0.546693 0.367330 1.6119787838914282e-38
-14.336188 10.088144 102.884385 -0.765700 0.527989 0.367330 1.6119787838914282e-38
-14.656094 10.024225 102.867541 -0.778476 0.508964 0.367330 1.6119787838914282e-38
-15.329779 9.810770 102.392178 -0.790779 0.489630 0.367330 1.6119787838914282e-38
-15.181841 9.653171 102.827326 -0.802602 0.469998 0.367330 1.6119787838914282e-38
-15.638103 8.611945 102.837118 -0.813938 0.450081 0.367330 1.6119787838914282e-38
-10.937396 12.698055 103.297394 -0.605815 0.762417 0.227393 1.6119787838914282e-38
-10.601573 13.144807 103.576195 -0.624416 0.747260 0.227393 1.6119787838914282e-38
-11.348264 13.701560 103.918783 -0.642637 0.731649 0.227393 1.6119787838914282e-38
-11.089667 12.356555 104.355614 -0.660468 0.715594 0.227393 1.6119787838914282e-38
-12.140216 12.115536 103.635656 -0.677897 0.699105 0.227393 1.6119787838914282e-38
-12.369626 12.340490 103.773016 -0.694916 0.682191 0.227393 1.6119787838914282e-38
-12.244647 11.526493 103.892907 -0.711512 0.664863 0.227393 1.6119787838914282e-38
-13.010242 11.972132 104.072784 -0.727677 0.647131 0.227393 1.6119787838914282e-38
-13.043421 11.024808 103.742659 -0.743400 0.629007 0.227393 1.6119787838914282e-38
-13.700361 11.178236 103.433172 -0.758671 0.610500 0.227393 1.6119787838914282e-38
-13.768646 10.713031 103.414925 -0.773482 0.591623 0.227393 1.6119787838914282e-38
-13.859740 9.847366 103.925518 -0.787823 0.572387 0.227393 1.6119787838914282e-38
-14.208612 9.086226 104.108921 -0.801686 0.552803 0.227393 1.6119787838914282e-38
-14.690620 9.246300 103.932733 -0.815063 0.532884 0.227393 1.6119787838914282e-38
-14.509057 9.187631 104.154786 -0.827944 0.512641 0.227393 1.6119787838914282e-38
-15.580673 8.835256 103.920817 -0.840323 0.492087 0.227393 1.6119787838914282e-38
-15.216005 8.400935 104.193691 -0.852192 0.471234 0.227393 1.6119787838914282e-38
-10.535825 13.616444 105.124623 -0.620900 0.781401 0.062422 1.6119787838914282e-38
-10.515146 12.827551 104.689181 -0.639963 0.765866 0.062422 1.6119787838914282e-38
-11.341577 12.756752 105.285906 -0.658638 0.749867 0.062422 1.6119787838914282e-38
-11.404141 12.289779 104.855080 -0.676912 0.733412 0.062422 1.6119787838914282e-38
-11.356046 12.173191 105.011922 -0.694776 0.716512 0.062422 1.6119787838914282e-38
-12.045641 11.628054 104.940174 -0.712219 0.699177 0.062422 1.6119787838914282e-38
-12.193721 11.311896 104.755872 -0.729228 0.681417 0.062422 1.6119787838914282e-38
-12.820393 11.384154 105.567050 -0.745795 0.663244 0.062422 1.6119787838914282e-38
-12.886255 11.144612 104.847839 -0.761910 0.644668 0.062422 1.6119787838914282e-38
-13.199177 10.330659 105.429264 -0.777561 0.625701 0.062422 1.6119787838914282e-38
-13.479926 10.321087 105.306337 -0.792741 0.606354 0.062422 1.6119787838914282e-38
-13.911752 9.855034 104.869362 -0.807439 0.586639 0.062422 1.6119787838914282e-38
-13.472444 9.590023 105.059838 -0.821647 0.566568 0.062422 1.6119787838914282e-38
-14.032355 9.313858 104.458136 -0.835357 0.546152 0.062422 1.6119787838914282e-38
-13.858709 8.812783 104.902725 -0.848559 0.525406 0.062422 1.6119787838914282e-38
-14.730618 8.442732 105.005556 -0.861246 0.504340 0.062422 1.6119787838914282e-38
-14.854303 7.675213 105.375079 -0.873410 0.482968 0.062422 1.6119787838914282e-38
-10.918275 14.136964 106.892185 -0.620371 0.780735 -0.074785 1.6119787838914282e-38
-10.573008 13.202701 106.229139 -0.639418 0.765214 -0.074785 1.6119787838914282e-38
-11.570820 12.732071 106.175662 -0.658077 0.749228 -0.074785 1.6119787838914282e-38
-11.336027 12.559853 106.648641 -0.676336 0.732787 -0.074785 1.6119787838914282e-38
-11.782278 11.718677 106.340036 -0.694185 0.715902 -0.074785 1.6119787838914282e-38
-12.036343 12.012549 106.225363 -0.711612 0.698581 -0.074785 1.6119787838914282e-38
-12.589855 11.427533 105.890758 -0.728607 0.680837 -0.074785 1.6119787838914282e-38
-12.734257 11.550706 106.249031 -0.745160 0.662679 -0.074785 1.6119787838914282e-38
-13.373081 11.298311 106.800579 -0.761261 0.644119 -0.074785 1.6119787838914282e-38
-13.399700 10.395002 106.348299 -0.776899 0.625168 -0.074785 1.6119787838914282e-38
-13.442311 10.211398 105.920760 -0.792066 0.605838 -0.074785 1.6119787838914282e-38
-13.489168 10.082500 106.856406 -0.806751 0.586139 -0.074785 1.6119787838914282e-38
-14.007104 10.109057 106.323825 -0.820948 0.566085 -0.074785 1.6119787838914282e-38
-14.435011 9.168951 106.939031 -0.834645 0.545687 -0.074785 1.6119787838914282e-38
-14.535275 9.439492 106.253333 -0.847836 0.524958 -0.074785 1.6119787838914282e-38
-15.110859 8.815251 106.199332 -0.860513 0.503910 -0.074785 1.6119787838914282e-38
-14.811936 8.301200 106.447619 -0.872666 0.482556 -0.074785 1.6119787838914282e-38
-10.667105 13.173393 107.559963 -0.611525 0.769603 -0.183708 1.6119787838914282e-38
-11.102790 13.538754 107.891116 -0.630300 0.754303 -0.183708 1.6119787838914282e-38
-11.129061 12.702177 107.725671 -0.648693 0.738545 -0.183708 1.6119787838914282e-38
-12.003240 12.832733 107.996735 -0.666692 0.722339 -0.183708 1.6119787838914282e-38
-12.591509 12.320654 107.606333 -0.684286 0.705694 -0.183708 1.6119787838914282e-38
-11.992321 11.871879 107.452297 -0.701465 0.688620 -0.183708 1.6119787838914282e-38
-12.508311 11.926389 107.696463 -0.718218 0.671129 -0.183708 1.6119787838914282e-38
-12.577066 11.637909 107.479738 -0.734535 0.653230 -0.183708 1.6119787838914282e-38
-13.111698 11.276329 107.397547 -0.750406 0.634935 -0.183708 1.6119787838914282e-38
-13.591981 10.347362 107.989577 -0.765821 0.616254 -0.183708 1.6119787838914282e-38
-12.998876 10.249028 107.808556 -0.780772 0.597199 -0.183708 1.6119787838914282e-38
-13.527428 9.762646 107.740688 -0.795248 0.577782 -0.183708 1.6119787838914282e-38
-13.748167 9.688843 107.613592 -0.809242 0.558013 -0.183708 1.6119787838914282e-38
-13.966596 9.290622 107.466341 -0.822744 0.537906 -0.183708 1.6119787838914282e-38
-14.662972 9.607578 107.879284 -0.835747 0.517473 -0.183708 1.6119787838914282e-38
-14.662941 8.857955 107.306527 -0.848243 0.496725 -0.183708 1.6119787838914282e-38
-14.863591 8.206951 107.586840 -0.860223 0.475676 -0.183708 1.6119787838914282e-38
-10.951050 13.948821 108.986043 -0.598250 0.752896 -0.274309 1.6119787838914282e-38
-11.392470 13.627491 109.005052 -0.616617 0.737928 -0.274309 1.6119787838914282e-38
-11.409816 13.090303 108.951598 -0.634611 0.722512 -0.274309 1.6119787838914282e-38
-11.827284 12.759837 109.009736 -0.652219 0.706657 -0.274309 1.6119787838914282e-38
-12.005994 12.720959 109.051084 -0.669431 0.690374 -0.274309 1.6119787838914282e-38
-13.153512 12.521396 108.576752 -0.686237 0.673671 -0.274309 1.6119787838914282e-38
-12.440588 11.530794 109.340561 -0.702626 0.656560 -0.274309 1.6119787838914282e-38
-13.721993 11.717507 108.756278 -0.718589 0.639049 -0.274309 1.6119787838914282e-38
-13.210198 11.812709 108.936969 -0.734116 0.621151 -0.274309 1.6119787838914282e-38
-13.341577 11.423130 108.680269 -0.749196 0.602876 -0.274309 1.6119787838914282e-38
-13.780805 11.034196 108.971803 -0.763822 0.584235 -0.274309 1.6119787838914282e-38
-14.322883 10.432871 108.900442 -0.777984 0.565239 -0.274309 1.6119787838914282e-38
-14.243087 9.768155 108.938641 -0.791674 0.545900 -0.274309 1.6119787838914282e-38
-14.677923 9.420563 109.258910 -0.804884 0.526229 -0.274309 1.6119787838914282e-38
-15.021492 8.978910 108.510036 -0.817604 0.506239 -0.274309 1.6119787838914282e-38
-15.109079 8.790724 109.082620 -0.829828 0.485942 -0.274309 1.6119787838914282e-38
-11.221222 13.725635 110.176930 -0.584784 0.735950 -0.341182 1.6119787838914282e-38
-11.070277 13.658214 109.951227 -0.602739 0.721319 -0.341182 1.6119787838914282e-38
-11.688742 12.804106 110.354425 -0.620327 0.706250 -0.341182 1.6119787838914282e-38
-11.816290 13.147768 109.971159 -0.637539 0.690752 -0.341182 1.6119787838914282e-38
-12.538296 12.760216 110.085845 -0.654364 0.674835 -0.341182 1.6119787838914282e-38
-13.234609 12.656875 109.992918 -0.670792 0.658509 -0.341182 1.6119787838914282e-38
-13.065186 12.040961 110.217342 -0.686812 0.641782 -0.341182 1.6119787838914282e-38
-12.969524 11.951211 109.612051 -0.702415 0.624666 -0.341182 1.6119787838914282e-38
-13.655886 11.618578 110.086685 -0.717592 0.607171 -0.341182 1.6119787838914282e-38
-14.167531 11.201936 110.355567 -0.732334 0.589307 -0.341182 1.6119787838914282e-38
-14.298603 11.282826 109.908002 -0.746630 0.571085 -0.341182 1.6119787838914282e-38
-14.782633 10.445937 109.493214 -0.760474 0.552517 -0.341182 1.6119787838914282e-38
-14.730557 10.056105 110.309212 -0.773856 0.533613 -0.341182 1.6119787838914282e-38
-15.486504 10.019332 110.149410 -0.786768 0.514385 -0.341182 1.6119787838914282e-38
-14.734786 9.366879 110.205455 -0.799202 0.494845 -0.341182 1.6119787838914282e-38
-15.247435 8.430124 110.436353 -0.811151 0.475004 -0.341182 1.6119787838914282e-38
-11.718392 14.264335 111.335609 -0.574721 0.723286 -0.382823 1.6119787838914282e-38
-12.275958 14.412463 111.304042 -0.592367 0.708906 -0.382823 1.6119787838914282e-38
-12.315775 14.087994 110.940972 -0.609653 0.694097 -0.382823 1.6119787838914282e-38
-12.450209 13.197394 110.963521 -0.626568 0.678866 -0.382823 1.6119787838914282e-38
-12.189842 13.228546 111.624487 -0.643104 0.663223 -0.382823 1.6119787838914282e-38
-13.267660 12.562898 110.405207 -0.659249 0.647177 -0.382823 1.6119787838914282e-38
-13.519942 12.047164 111.368547 -0.674993 0.630738 -0.382823 1.6119787838914282e-38
-14.117639 12.350463 111.957765 -0.690328 0.613917 -0.382823 1.6119787838914282e-38
-13.178692 11.964297 111.336801 -0.705244 0.596722 -0.382823 1.6119787838914282e-38
-14.524942 11.284483 111.064621 -0.719732 0.579166 -0.382823 1.6119787838914282e-38
-14.149326 11.045186 111.988299 -0.733782 0.561258 -0.382823 1.6119787838914282e-38
-15.143312 10.757567 110.959719 -0.747388 0.543009 -0.382823 1.6119787838914282e-38
-14.966567 10.369466 111.330168 -0.760539 0.524430 -0.382823 1.6119787838914282e-38
-15.471598 10.221473 111.541348 -0.773229 0.505533 -0.382823 1.6119787838914282e-38
-15.372367 9.390329 111.436497 -0.785449 0.486330 -0.382823 1.6119787838914282e-38
-11.824499 14.437384 112.893610 -0.570305 0.717728 -0.399523 1.6119787838914282e-38
-12.036216 13.720257 112.647775 -0.587815 0.703459 -0.399523 1.6119787838914282e-38
-12.091543 14.023596 112.269890 -0.604968 0.688763 -0.399523 1.6119787838914282e-38
-13.207325 13.920625 112.359487 -0.621754 0.673649 -0.399523 1.6119787838914282e-38
-13.600095 14.056631 112.638475 -0.638162 0.658126 -0.399523 1.6119787838914282e-38
-13.646526 13.744403 112.659611 -0.654183 0.642204 -0.399523 1.6119787838914282e-38
-13.851882 12.971317 112.418731 -0.669807 0.625892 -0.399523 1.6119787838914282e-38
-14.167103 12.736945 113.081715 -0.685024 0.609199 -0.399523 1.6119787838914282e-38
-14.595162 12.398272 112.134848 -0.699825 0.592137 -0.399523 1.6119787838914282e-38
-14.575103 12.391772 112.584387 -0.714201 0.574715 -0.399523 1.6119787838914282e-38
-15.187589 11.324764 112.722508 -0.728144 0.556945 -0.399523 1.6119787838914282e-38
-15.274698 10.989459 112.773354 -0.741644 0.538836 -0.399523 1.6119787838914282e-38
-15.825190 10.990200 112.482817 -0.754695 0.520400 -0.399523 1.6119787838914282e-38
-15.623831 10.595948 111.994579 -0.767287 0.501649 -0.399523 1.6119787838914282e-38
-16.092799 9.492380 112.058030 -0.779414 0.482592 -0.399523 1.6119787838914282e-38
-11.874822 14.653965 114.373216 -0.572407 0.720374 -0.391678 1.6119787838914282e-38
-12.544946 14.631119 114.158390 -0.589982 0.706052 -0.391678 1.6119787838914282e-38
-12.491329 14.582905 114.212683 -0.607198 0.691302 -0.391678 1.6119787838914282e-38
-12.883351 14.398622 113.322367 -0.624046 0.676133 -0.391678 1.6119787838914282e-38
-13.494243 13.958156 113.739801 -0.640514 0.660552 -0.391678 1.6119787838914282e-38
-13.983076 13.843346 113.440957 -0.656594 0.644571 -0.391678 1.6119787838914282e-38
-13.844984 13.256859 113.561801 -0.672276 0.628199 -0.391678 1.6119787838914282e-38
-14.612908 12.977728 114.247119 -0.687549 0.611445 -0.391678 1.6119787838914282e-38
-14.626662 12.910574 113.795481 -0.702405 0.594320 -0.391678 1.6119787838914282e-38
-15.208230 12.743858 113.773107 -0.716834 0.576834 -0.391678 1.6119787838914282e-38
-15.604541 11.615015 113.902893 -0.730828 0.558998 -0.391678 1.6119787838914282e-38
-16.051726 11.480904 113.863607 -0.744378 0.540823 -0.391678 1.6119787838914282e-38
-15.825887 10.510115 113.214895 -0.757477 0.522319 -0.391678 1.6119787838914282e-38
-16.401591 10.595582 113.479291 -0.770116 0.503498 -0.391678 1.6119787838914282e-38
-12.622365 15.969333 115.203367 -0.580622 0.730711 -0.359081 1.6119787838914282e-38
-12.219282 15.627156 115.082986 -0.598448 0.716184 -0.359081 1.6119787838914282e-38
-13.116861 15.101490 114.778507 -0.615912 0.701223 -0.359081 1.6119787838914282e-38
-13.395743 15.066480 114.862000 -0.633001 0.685835 -0.359081 1.6119787838914282e-38
-13.955822 14.514611 115.501209 -0.649706 0.670032 -0.359081 1.6119787838914282e-38
-14.454482 14.044562 115.042152 -0.666017 0.653821 -0.359081 1.6119787838914282e-38
-14.653919 13.058623 114.828290 -0.681923 0.637214 -0.359081 1.6119787838914282e-38
-15.271010 13.212845 114.915634 -0.697416 0.620220 -0.359081 1.6119787838914282e-38
-15.581515 12.802091 115.611239 -0.712484 0.602849 -0.359081 1.6119787838914282e-38
-15.736388 12.386673 114.983707 -0.727121 0.585112 -0.359081 1.6119787838914282e-38
-16.059341 11.643094 115.594331 -0.741316 0.567020 -0.359081 1.6119787838914282e-38
-16.683815 11.208164 115.276213 -0.755061 0.548584 -0.359081 1.6119787838914282e-38
-17.033236 11.552661 115.309900 -0.768347 0.529814 -0.359081 1.6119787838914282e-38
-16.932866 10.925875 115.036399 -0.781167 0.510723 -0.359081 1.6119787838914282e-38
-12.780629 15.989289 116.368838 -0.593211 0.746555 -0.301258 1.6119787838914282e-38
-13.479473 15.984104 116.388597 -0.611424 0.731713 -0.301258 1.6119787838914282e-38
-13.430955 15.458892 116.104059 -0.629266 0.716427 -0.301258 1.6119787838914282e-38
-13.893613 14.650928 115.627456 -0.646726 0.700706 -0.301258 1.6119787838914282e-38
-14.257740 15.148031 116.118056 -0.663793 0.684560 -0.301258 1.6119787838914282e-38
-15.009987 14.446098 116.145047 -0.680458 0.667998 -0.301258 1.6119787838914282e-38
-14.759096 14.112290 116.136699 -0.696709 0.651030 -0.301258 1.6119787838914282e-38
-15.104157 13.532325 115.698299 -0.712537 0.633667 -0.301258 1.6119787838914282e-38
-15.715010 12.914730 115.836213 -0.727933 0.615920 -0.301258 1.6119787838914282e-38
-16.131420 12.977723 116.292867 -0.742886 0.597799 -0.301258 1.6119787838914282e-38
-16.743911 12.048040 116.293214 -0.757389 0.579314 -0.301258 1.6119787838914282e-38
-16.488210 11.882609 116.514676 -0.771432 0.560478 -0.301258 1.6119787838914282e-38
-16.666740 11.397486 116.086071 -0.785007 0.541302 -0.301258 1.6119787838914282e-38
-12.465794 16.354358 117.365102 -0.607036 0.763953 -0.218821 1.6119787838914282e-38
-13.186148 16.251838 117.632586 -0.625673 0.748766 -0.218821 1.6119787838914282e-38
-13.547160 16.015546 117.329967 -0.643931 0.733123 -0.218821 1.6119787838914282e-38
-14.345680 15.081923 117.778520 -0.661798 0.717036 -0.218821 1.6119787838914282e-38
-14.133420 14.920447 117.271656 -0.679263 0.700513 -0.218821 1.6119787838914282e-38
-14.248840 14.163800 117.388349 -0.696316 0.683565 -0.218821 1.6119787838914282e-38
-15.347224 14.461936 117.472638 -0.712946 0.666202 -0.218821 1.6119787838914282e-38
-14.986224 14.006597 117.246517 -0.729143 0.648435 -0.218821 1.6119787838914282e-38
-15.909324 13.220637 117.940944 -0.744897 0.630274 -0.218821 1.6119787838914282e-38
-15.885309 12.511267 117.683296 -0.760200 0.611730 -0.218821 1.6119787838914282e-38
-16.473059 12.202960 117.277724 -0.775040 0.592815 -0.218821 1.6119787838914282e-38
-16.824099 11.512330 117.592172 -0.789410 0.573540 -0.218821 1.6119787838914282e-38
-17.028716 11.683483 117.536600 -0.803301 0.553917 -0.218821 1.6119787838914282e-38
-13.207348 16.444767 118.708087 -0.617945 0.777682 -0.115560 1.6119787838914282e-38
-13.498909 16.056434 119.213177 -0.636917 0.762222 -0.115560 1.6119787838914282e-38
-13.573464 16.038288 118.871619 -0.655503 0.746298 -0.115560 1.6119787838914282e-38
-13.665483 15.645498 118.335245 -0.673691 0.729922 -0.115560 1.6119787838914282e-38
-14.350132 15.125700 118.949542 -0.691470 0.713102 -0.115560 1.6119787838914282e-38
-15.384138 14.221574 118.734371 -0.708829 0.695850 -0.115560 1.6119787838914282e-38
-15.817568 14.499288 118.807233 -0.725758 0.678175 -0.115560 1.6119787838914282e-38
-15.053872 14.019592 118.971044 -0.742246 0.660088 -0.115560 1.6119787838914282e-38
-15.802398 13.541275 118.798174 -0.758284 0.641601 -0.115560 1.6119787838914282e-38
-16.321209 12.404043 119.099553 -0.773861 0.622724 -0.115560 1.6119787838914282e-38
-16.282924 12.973472 118.789517 -0.788969 0.603469 -0.115560 1.6119787838914282e-38
-16.971302 11.960600 118.387255 -0.803597 0.583847 -0.115560 1.6119787838914282e-38
-13.002705 16.448571 119.742231 -0.622113 0.782928 -0.000286 1.6119787838914282e-38
-13.229024 16.197745 119.793537 -0.641213 0.767363 -0.000286 1.6119787838914282e-38
-13.952897 15.440015 120.157577 -0.659925 0.751332 -0.000286 1.6119787838914282e-38
-13.779496 15.092868 120.313507 -0.678235 0.734845 -0.000286 1.6119787838914282e-38
-14.256075 14.727271 119.379761 -0.696134 0.717912 -0.000286 1.6119787838914282e-38
-14.966942 14.659288 119.933931 -0.713610 0.700543 -0.000286 1.6119787838914282e-38
-15.005718 14.232132 120.725798 -0.730653 0.682749 -0.000286 1.6119787838914282e-38
-16.153043 13.695133 119.738234 -0.747253 0.664540 -0.000286 1.6119787838914282e-38
-16.087555 13.990608 119.664949 -0.763398 0.645928 -0.000286 1.6119787838914282e-38
-16.631747 12.974989 119.973065 -0.779081 0.626924 -0.000286 1.6119787838914282e-38
-16.631608 12.641254 119.613343 -0.794290 0.607539 -0.000286 1.6119787838914282e-38
-17.018536 12.773553 120.274636 -0.809017 0.587785 -0.000286 1.6119787838914282e-38
