# .PCD v0.7 - Point Cloud Data file format
VERSION 0.7
FIELDS x y z normal_x normal_y normal_z rgb
SIZE 4 4 4 4 4 4 4
TYPE F F F F F F F
COUNT 1 1 1 1 1 1 1
WIDTH 216
HEIGHT 1
VIEWPOINT 0 0 0 1 0 0 0
POINTS 216
DATA ascii
-27.606274 20.911459 22.168681 -0.533359 0.407957 -0.741012 1.6580765988230895e-38
-28.507191 20.082614 21.636546 -0.543248 0.394693 -0.741012 1.6580765988230895e-38
-29.200868 20.111368 21.971977 -0.552807 0.381189 -0.741012 1.6580765988230895e-38
-29.040329 19.378338 22.273015 -0.562031 0.367453 -0.741012 1.6580765988230895e-38
-29.751865 18.406022 22.143055 -0.570913 0.353495 -0.741012 1.6580765988230895e-38
-29.744613 18.192697 22.702985 -0.579449 0.339321 -0.741012 1.6580765988230895e-38
-27.837151 22.612850 23.386636 -0.518123 0.416932 -0.746804 1.6580765988230895e-38
-29.082533 21.760387 23.504973 -0.528238 0.404040 -0.746804 1.6580765988230895e-38
-29.334036 20.836229 24.193206 -0.538032 0.390903 -0.746804 1.6580765988230895e-38
-29.934389 20.607280 23.317283 -0.547500 0.377529 -0.746804 1.6580765988230895e-38
-30.434799 19.738395 23.504276 -0.556635 0.363925 -0.746804 1.6580765988230895e-38
-30.838808 19.333331 23.573321 -0.565432 0.350101 -0.746804 1.6580765988230895e-38
-31.084162 18.323451 23.574530 -0.573886 0.336064 -0.746804 1.6580765988230895e-38
-31.809854 17.850725 23.601941 -0.581992 0.321823 -0.746804 1.6580765988230895e-38
-32.207633 16.706161 23.472383 -0.589744 0.307386 -0.746804 1.6580765988230895e-38
-32.554302 15.948192 23.337502 -0.597138 0.292763 -0.746804 1.6580765988230895e-38
-32.717419 15.406397 24.040312 -0.604170 0.277962 -0.746804 1.6580765988230895e-38
-33.491431 14.541577 22.932413 -0.610835 0.262993 -0.746804 1.6580765988230895e-38
-33.404860 13.079636 23.209855 -0.617129 0.247863 -0.746804 1.6580765988230895e-38
-29.103251 23.441334 24.992598 -0.516732 0.415813 -0.748390 1.6580765988230895e-38
-29.542600 22.627827 24.533934 -0.526820 0.402956 -0.748390 1.6580765988230895e-38
-30.631723 21.696220 24.601447 -0.536588 0.389854 -0.748390 1.6580765988230895e-38
-30.613713 21.065262 25.139827 -0.546030 0.376515 -0.748390 1.6580765988230895e-38
-31.651493 21.242793 24.537724 -0.555141 0.362948 -0.748390 1.6580765988230895e-38
-32.062829 19.552663 24.535958 -0.563914 0.349161 -0.748390 1.6580765988230895e-38
-32.096916 19.173179 25.050913 -0.572345 0.335161 -0.748390 1.6580765988230895e-38
-33.352053 18.420813 24.450835 -0.580429 0.320959 -0.748390 1.6580765988230895e-38
-33.797569 17.478476 24.810830 -0.588161 0.306561 -0.748390 1.6580765988230895e-38
-33.799093 16.794029 25.004338 -0.595535 0.291977 -0.748390 1.6580765988230895e-38
-33.772371 15.383508 25.192873 -0.602548 0.277216 -0.748390 1.6580765988230895e-38
-34.026020 14.783036 24.241721 -0.609195 0.262287 -0.748390 1.6580765988230895e-38
-35.362186 13.897602 25.346511 -0.615472 0.247198 -0.748390 1.6580765988230895e-38
-35.277220 12.985733 24.536647 -0.621375 0.231959 -0.748390 1.6580765988230895e-38
-35.992948 12.559996 24.714647 -0.626902 0.216580 -0.748390 1.6580765988230895e-38
-35.258359 11.605355 24.991249 -0.632047 0.201069 -0.748390 1.6580765988230895e-38
-30.432388 24.553878 26.144786 -0.518955 0.417602 -0.745851 1.6580765988230895e-38
-30.915274 24.183557 25.802409 -0.529086 0.404689 -0.745851 1.6580765988230895e-38
-31.359152 23.003876 26.274198 -0.538896 0.391531 -0.745851 1.6580765988230895e-38
-32.214612 22.064013 26.199003 -0.548379 0.378135 -0.745851 1.6580765988230895e-38
-32.579150 21.124223 26.383065 -0.557529 0.364510 -0.745851 1.6580765988230895e-38
-32.983384 20.536250 25.838912 -0.566340 0.350663 -0.745851 1.6580765988230895e-38
-33.590328 19.932376 25.501159 -0.574808 0.336603 -0.745851 1.6580765988230895e-38
-34.062834 19.093735 25.273647 -0.582926 0.322339 -0.745851 1.6580765988230895e-38
-34.571906 18.258617 26.153645 -0.590691 0.307880 -0.745851 1.6580765988230895e-38
-34.824228 17.093272 25.667410 -0.598097 0.293233 -0.745851 1.6580765988230895e-38
-36.017797 16.650079 26.190301 -0.605140 0.278409 -0.745851 1.6580765988230895e-38
-35.518701 15.225831 26.220532 -0.611816 0.263415 -0.745851 1.6580765988230895e-38
-36.689649 14.294110 26.017175 -0.618120 0.248261 -0.745851 1.6580765988230895e-38
-36.387479 14.161411 25.907362 -0.624049 0.232957 -0.745851 1.6580765988230895e-38
-37.171552 12.477021 25.773028 -0.629599 0.217512 -0.745851 1.6580765988230895e-38
-36.548495 12.065943 26.313141 -0.634767 0.201934 -0.745851 1.6580765988230895e-38
-31.412343 25.349725 27.277262 -0.524820 0.422321 -0.739059 1.6580765988230895e-38
-32.285277 24.411616 27.221572 -0.535066 0.409263 -0.739059 1.6580765988230895e-38
-33.296239 24.210154 27.864752 -0.544987 0.395956 -0.739059 1.6580765988230895e-38
-33.229054 23.148001 27.540812 -0.554577 0.382409 -0.739059 1.6580765988230895e-38
-34.232847 22.399939 27.088563 -0.563830 0.368629 -0.739059 1.6580765988230895e-38
-33.682975 21.224644 27.488950 -0.572741 0.354626 -0.739059 1.6580765988230895e-38
-34.937595 21.086876 27.062790 -0.581304 0.340408 -0.739059 1.6580765988230895e-38
-35.027246 19.750216 27.337788 -0.589514 0.325982 -0.739059 1.6580765988230895e-38
-35.779295 18.484577 26.440678 -0.597367 0.311359 -0.739059 1.6580765988230895e-38
-35.975141 17.649155 27.567375 -0.604857 0.296547 -0.739059 1.6580765988230895e-38
-36.619375 17.256205 27.457063 -0.611979 0.281555 -0.739059 1.6580765988230895e-38
-37.869422 16.170660 27.113392 -0.618730 0.266392 -0.739059 1.6580765988230895e-38
-37.163099 15.243912 27.397386 -0.625106 0.251067 -0.739059 1.6580765988230895e-38
-37.954089 13.863980 27.086629 -0.631101 0.235590 -0.739059 1.6580765988230895e-38
-38.749206 13.023287 26.777247 -0.636714 0.219970 -0.739059 1.6580765988230895e-38
-38.954187 12.289949 27.376710 -0.641940 0.204216 -0.739059 1.6580765988230895e-38
-32.683401 26.243226 28.582838 -0.534395 0.430026 -0.727667 1.6580765988230895e-38
-32.637226 25.501795 28.268048 -0.544828 0.416730 -0.727667 1.6580765988230895e-38
-33.582737 24.297210 28.727555 -0.554930 0.403180 -0.727667 1.6580765988230895e-38
-34.360809 23.827055 27.919412 -0.564694 0.389386 -0.727667 1.6580765988230895e-38
-35.629062 22.402228 28.977340 -0.574117 0.375355 -0.727667 1.6580765988230895e-38
-35.850706 22.204238 28.261036 -0.583190 0.361096 -0.727667 1.6580765988230895e-38
-36.109134 21.089672 28.946742 -0.591909 0.346618 -0.727667 1.6580765988230895e-38
-36.370760 20.324329 28.842618 -0.600270 0.331930 -0.727667 1.6580765988230895e-38
-37.222871 19.622785 28.723999 -0.608265 0.317040 -0.727667 1.6580765988230895e-38
-37.230260 18.337521 28.322414 -0.615892 0.301957 -0.727667 1.6580765988230895e-38
-38.199730 17.212455 28.178504 -0.623144 0.286692 -0.727667 1.6580765988230895e-38
-38.247250 16.446096 28.583028 -0.630018 0.271252 -0.727667 1.6580765988230895e-38
-38.606174 15.246631 28.126678 -0.636510 0.255648 -0.727667 1.6580765988230895e-38
-39.192844 14.372533 28.189485 -0.642615 0.239888 -0.727667 1.6580765988230895e-38
-38.963496 13.176708 29.060528 -0.648331 0.223983 -0.727667 1.6580765988230895e-38
-39.709531 12.955952 28.714108 -0.653652 0.207942 -0.727667 1.6580765988230895e-38
-33.174804 26.909259 29.685431 -0.547772 0.440791 -0.711090 1.6580765988230895e-38
-34.527722 26.172525 29.759711 -0.558466 0.427161 -0.711090 1.6580765988230895e-38
-34.889563 25.419753 29.783334 -0.568821 0.413272 -0.711090 1.6580765988230895e-38
-35.752765 24.793197 29.628428 -0.578830 0.399133 -0.711090 1.6580765988230895e-38
-35.525118 23.680926 30.282002 -0.588488 0.384751 -0.711090 1.6580765988230895e-38
-36.244603 22.728174 29.473790 -0.597789 0.370135 -0.711090 1.6580765988230895e-38
-37.354830 21.911387 29.733659 -0.606726 0.355295 -0.711090 1.6580765988230895e-38
-37.845694 21.079650 29.702353 -0.615296 0.340239 -0.711090 1.6580765988230895e-38
-37.919040 19.602701 29.990563 -0.623491 0.324976 -0.711090 1.6580765988230895e-38
-38.499028 19.308144 29.983951 -0.631309 0.309516 -0.711090 1.6580765988230895e-38
-39.129933 17.941288 30.225631 -0.638743 0.293868 -0.711090 1.6580765988230895e-38
-39.622997 17.246535 29.576306 -0.645789 0.278042 -0.711090 1.6580765988230895e-38
-40.501769 15.674575 29.812498 -0.652443 0.262047 -0.711090 1.6580765988230895e-38
-40.115993 15.176572 30.034506 -0.658701 0.245893 -0.711090 1.6580765988230895e-38
-40.567601 13.823130 29.869012 -0.664560 0.229590 -0.711090 1.6580765988230895e-38
-40.968043 12.876392 29.832477 -0.670014 0.213147 -0.711090 1.6580765988230895e-38
-34.513366 27.390870 30.599392 -0.565037 0.454683 -0.688474 1.6580765988230895e-38
-35.116703 26.409833 31.467987 -0.576067 0.440624 -0.688474 1.6580765988230895e-38
-35.491238 26.562573 31.444262 -0.586748 0.426298 -0.688474 1.6580765988230895e-38
-36.541549 24.863658 30.124503 -0.597073 0.411712 -0.688474 1.6580765988230895e-38
-37.165790 24.748836 30.679480 -0.607036 0.396877 -0.688474 1.6580765988230895e-38
-37.692349 23.132750 31.040334 -0.616629 0.381801 -0.688474 1.6580765988230895e-38
-37.806156 21.903194 30.523502 -0.625849 0.366493 -0.688474 1.6580765988230895e-38
-38.285418 21.637135 30.850021 -0.634688 0.350962 -0.688474 1.6580765988230895e-38
-38.735187 20.046962 31.207199 -0.643142 0.335218 -0.688474 1.6580765988230895e-38
-39.759865 19.665271 30.211689 -0.651206 0.319271 -0.688474 1.6580765988230895e-38
-40.285561 18.719355 30.908836 -0.658874 0.303130 -0.688474 1.6580765988230895e-38
-40.274307 17.868636 30.640266 -0.666143 0.286805 -0.688474 1.6580765988230895e-38
-40.822566 16.197449 30.944040 -0.673007 0.270306 -0.688474 1.6580765988230895e-38
-41.266860 15.227801 31.163913 -0.679462 0.253643 -0.688474 1.6580765988230895e-38
-41.984067 14.277919 31.139830 -0.685505 0.236826 -0.688474 1.6580765988230895e-38
-42.426617 13.151045 31.240182 -0.691132 0.219865 -0.688474 1.6580765988230895e-38
-35.057646 28.762066 32.333037 -0.586212 0.471723 -0.658660 1.6580765988230895e-38
-36.431813 27.545758 31.760791 -0.597656 0.457137 -0.658660 1.6580765988230895e-38
-36.764146 26.872837 32.462580 -0.608737 0.442273 -0.658660 1.6580765988230895e-38
-37.224251 26.143368 32.242875 -0.619449 0.427141 -0.658660 1.6580765988230895e-38
-38.059634 25.099498 32.436891 -0.629785 0.411750 -0.658660 1.6580765988230895e-38
-38.747216 24.007589 32.076654 -0.639738 0.396109 -0.658660 1.6580765988230895e-38
-39.769514 23.067915 31.776592 -0.649303 0.380227 -0.658660 1.6580765988230895e-38
-39.621661 21.503356 31.949048 -0.658473 0.364115 -0.658660 1.6580765988230895e-38
-40.379286 21.339195 32.004894 -0.667244 0.347781 -0.658660 1.6580765988230895e-38
-41.076342 20.089976 32.099856 -0.675610 0.331236 -0.658660 1.6580765988230895e-38
-40.996584 18.666972 32.228205 -0.683566 0.314490 -0.658660 1.6580765988230895e-38
-40.947751 17.877100 32.220968 -0.691107 0.297554 -0.658660 1.6580765988230895e-38
-42.616494 16.660440 32.302865 -0.698228 0.280436 -0.658660 1.6580765988230895e-38
-42.621141 16.057844 32.292430 -0.704925 0.263148 -0.658660 1.6580765988230895e-38
-43.295756 15.125650 31.792143 -0.711195 0.245701 -0.658660 1.6580765988230895e-38
-36.604774 28.212683 33.289129 -0.623099 0.476598 -0.620162 1.6580765988230895e-38
-37.798792 26.685968 33.610084 -0.634652 0.461102 -0.620162 1.6580765988230895e-38
-38.300261 25.894842 33.411119 -0.645820 0.445326 -0.620162 1.6580765988230895e-38
-38.678574 25.341673 33.436860 -0.656596 0.429279 -0.620162 1.6580765988230895e-38
-39.455554 24.224888 33.418340 -0.666973 0.412972 -0.620162 1.6580765988230895e-38
-39.836510 23.767536 33.639281 -0.676945 0.396414 -0.620162 1.6580765988230895e-38
-40.825369 22.653982 33.541702 -0.686506 0.379616 -0.620162 1.6580765988230895e-38
-41.376856 21.316163 33.605970 -0.695651 0.362587 -0.620162 1.6580765988230895e-38
-41.266983 19.891268 33.894080 -0.704373 0.345338 -0.620162 1.6580765988230895e-38
-41.821616 19.461412 33.329847 -0.712667 0.327879 -0.620162 1.6580765988230895e-38
-42.518941 18.164635 33.348753 -0.720529 0.310221 -0.620162 1.6580765988230895e-38
-43.517902 16.778331 34.101754 -0.727953 0.292375 -0.620162 1.6580765988230895e-38
-43.469643 16.295375 33.392842 -0.734936 0.274351 -0.620162 1.6580765988230895e-38
-37.707911 28.561970 34.433576 -0.651968 0.498679 -0.571188 1.6580765988230895e-38
-38.273459 27.668195 34.120077 -0.664056 0.482465 -0.571188 1.6580765988230895e-38
-39.410059 27.179943 35.023713 -0.675742 0.465958 -0.571188 1.6580765988230895e-38
-39.143340 25.973423 34.341904 -0.687017 0.449168 -0.571188 1.6580765988230895e-38
-40.380931 24.474035 34.180208 -0.697874 0.432105 -0.571188 1.6580765988230895e-38
-40.774730 24.083944 35.226687 -0.708308 0.414780 -0.571188 1.6580765988230895e-38
-41.453220 22.501157 34.602599 -0.718313 0.397204 -0.571188 1.6580765988230895e-38
-42.064861 21.733496 34.742300 -0.727881 0.379386 -0.571188 1.6580765988230895e-38
-42.870811 20.879157 34.834644 -0.737007 0.361337 -0.571188 1.6580765988230895e-38
-42.581088 19.879477 34.952111 -0.745685 0.343070 -0.571188 1.6580765988230895e-38
-43.614609 18.629488 35.043529 -0.753912 0.324594 -0.571188 1.6580765988230895e-38
-44.340949 17.522878 34.977709 -0.761680 0.305921 -0.571188 1.6580765988230895e-38
-44.414171 16.470474 34.559576 -0.768986 0.287062 -0.571188 1.6580765988230895e-38
-38.703142 28.299688 35.983581 -0.696008 0.505679 -0.509767 1.6580765988230895e-38
-39.406365 27.096678 36.253960 -0.708255 0.488378 -0.509767 1.6580765988230895e-38
-40.333583 26.795860 35.608109 -0.720072 0.470780 -0.509767 1.6580765988230895e-38
-40.496343 25.070236 36.640923 -0.731453 0.452896 -0.509767 1.6580765988230895e-38
-41.825292 24.642358 35.767570 -0.742389 0.434738 -0.509767 1.6580765988230895e-38
-41.911941 23.282407 35.548920 -0.752874 0.416315 -0.509767 1.6580765988230895e-38
-43.526628 23.001881 35.898196 -0.762903 0.397640 -0.509767 1.6580765988230895e-38
-44.105854 21.281921 36.083165 -0.772468 0.378723 -0.509767 1.6580765988230895e-38
-43.946295 19.907301 35.870336 -0.781564 0.359577 -0.509767 1.6580765988230895e-38
-43.853418 19.066248 36.315256 -0.790186 0.340212 -0.509767 1.6580765988230895e-38
-44.330414 17.872521 35.405132 -0.798328 0.320640 -0.509767 1.6580765988230895e-38
-39.154024 28.638739 36.949165 -0.728831 0.529527 -0.434059 1.6580765988230895e-38
-40.669195 27.622518 37.268465 -0.741656 0.511409 -0.434059 1.6580765988230895e-38
-40.619540 26.286372 37.466000 -0.754031 0.492982 -0.434059 1.6580765988230895e-38
-41.785741 25.655290 36.942757 -0.765948 0.474255 -0.434059 1.6580765988230895e-38
-41.988620 24.689766 37.316793 -0.777399 0.455240 -0.434059 1.6580765988230895e-38
-42.155468 23.735837 36.940398 -0.788379 0.435948 -0.434059 1.6580765988230895e-38
-43.139174 23.140623 37.310304 -0.798881 0.416392 -0.434059 1.6580765988230895e-38
-43.536399 21.005914 37.229466 -0.808897 0.396584 -0.434059 1.6580765988230895e-38
-44.416522 20.193813 37.106707 -0.818422 0.376534 -0.434059 1.6580765988230895e-38
-44.792619 19.112012 37.169941 -0.827451 0.356256 -0.434059 1.6580765988230895e-38
-45.339135 18.399824 37.181675 -0.835977 0.335761 -0.434059 1.6580765988230895e-38
-40.294898 28.323471 38.246581 -0.773327 0.533248 -0.342947 1.6580765988230895e-38
-41.627305 26.748713 38.436799 -0.786230 0.514033 -0.342947 1.6580765988230895e-38
-42.433029 26.385761 38.251326 -0.798655 0.494507 -0.342947 1.6580765988230895e-38
-42.416265 24.392110 38.072721 -0.810596 0.474680 -0.342947 1.6580765988230895e-38
-43.739226 24.176602 38.302454 -0.822045 0.454564 -0.342947 1.6580765988230895e-38
-43.571130 22.818486 38.491058 -0.832995 0.434173 -0.342947 1.6580765988230895e-38
-44.392196 21.653774 38.322996 -0.843439 0.413519 -0.342947 1.6580765988230895e-38
-44.690828 20.746665 39.193947 -0.853371 0.392613 -0.342947 1.6580765988230895e-38
-44.802385 18.973077 38.307584 -0.862785 0.371469 -0.342947 1.6580765988230895e-38
-41.165661 28.446054 39.615479 -0.799823 0.551519 -0.236874 1.6580765988230895e-38
-41.815252 27.253216 39.570731 -0.813169 0.531646 -0.236874 1.6580765988230895e-38
-41.835031 26.011715 39.419144 -0.826020 0.511450 -0.236874 1.6580765988230895e-38
-43.101260 25.686116 39.394823 -0.838370 0.490944 -0.236874 1.6580765988230895e-38
-43.108418 23.743279 39.739616 -0.850211 0.470139 -0.236874 1.6580765988230895e-38
-43.998110 23.343738 39.914143 -0.861536 0.449050 -0.236874 1.6580765988230895e-38
-44.604930 21.719690 40.075117 -0.872338 0.427687 -0.236874 1.6580765988230895e-38
-45.346122 20.094297 39.030059 -0.882611 0.406065 -0.236874 1.6580765988230895e-38
-41.795685 27.320299 41.156931 -0.831076 0.543354 -0.118656 1.6580765988230895e-38
-42.595011 26.165612 41.441240 -0.844211 0.522713 -0.118656 1.6580765988230895e-38
-42.620430 24.965907 41.265368 -0.856833 0.501755 -0.118656 1.6580765988230895e-38
-44.030904 24.031341 40.728669 -0.868935 0.480493 -0.118656 1.6580765988230895e-38
-44.299632 23.263634 40.856684 -0.880509 0.458939 -0.118656 1.6580765988230895e-38
-44.647073 21.859293 40.937009 -0.891549 0.437106 -0.118656 1.6580765988230895e-38
-45.335719 20.452141 40.969645 -0.902047 0.415008 -0.118656 1.6580765988230895e-38
-41.570560 27.081312 42.460926 -0.836984 0.547216 0.003484 1.6580765988230895e-38
-42.213177 26.098963 42.339329 -0.850212 0.526429 0.003484 1.6580765988230895e-38
-42.902423 25.521551 42.534648 -0.862924 0.505322 0.003484 1.6580765988230895e-38
-43.758893 24.294975 41.270237 -0.875112 0.483908 0.003484 1.6580765988230895e-38
-44.003842 23.416020 42.468666 -0.886768 0.462201 0.003484 1.6580765988230895e-38
-45.175509 22.299353 42.367480 -0.897887 0.440213 0.003484 1.6580765988230895e-38
-42.342809 25.843890 43.346887 -0.847957 0.525033 0.072865 1.6580765988230895e-38
-43.003372 25.160712 43.703142 -0.860635 0.503982 0.072865 1.6580765988230895e-38
-43.749077 24.803956 43.533904 -0.872791 0.482625 0.072865 1.6580765988230895e-38
-44.213753 23.364375 43.758235 -0.884416 0.460975 0.072865 1.6580765988230895e-38
-44.582250 21.967133 43.100993 -0.895505 0.439046 0.072865 1.6580765988230895e-38
-42.124656 26.644144 44.718607 -0.841764 0.521198 0.140662 1.6580765988230895e-38
-42.928936 25.443594 44.344211 -0.854349 0.500301 0.140662 1.6580765988230895e-38
-43.456612 24.461286 44.745909 -0.866416 0.479100 0.140662 1.6580765988230895e-38
