# .PCD v0.7 - Point Cloud Data file format
VERSION 0.7
FIELDS x y z normal_x normal_y normal_z rgb
SIZE 4 4 4 4 4 4 4
TYPE F F F F F F F
COUNT 1 1 1 1 1 1 1
WIDTH 380
HEIGHT 1
VIEWPOINT 0 0 0 1 0 0 0
POINTS 380
DATA ascii
3.212389 -46.568019 33.331093 0.053115 -0.782673 -0.620162 1.5197831540281055e-38
4.736639 -46.058600 33.353302 0.072382 -0.781127 -0.620162 1.5197831540281055e-38
5.112826 -46.316334 33.404039 0.091605 -0.779107 -0.620162 1.5197831540281055e-38
1.973126 -47.306154 34.628238 0.035383 -0.820056 -0.571188 1.5197831540281055e-38
3.259901 -47.410015 34.510731 0.055576 -0.818935 -0.571188 1.5197831540281055e-38
4.261444 -47.235334 34.545948 0.075736 -0.817317 -0.571188 1.5197831540281055e-38
4.855806 -46.987125 34.480935 0.095849 -0.815203 -0.571188 1.5197831540281055e-38
6.124697 -46.970966 34.524888 0.115905 -0.812595 -0.571188 1.5197831540281055e-38
8.219942 -46.848799 34.839512 0.135890 -0.809492 -0.571188 1.5197831540281055e-38
9.400082 -46.668186 34.624926 0.155792 -0.805899 -0.571188 1.5197831540281055e-38
1.828719 -47.867389 35.581693 0.037085 -0.859513 -0.509767 1.5197831540281055e-38
2.614234 -48.252027 36.126687 0.058250 -0.858338 -0.509767 1.5197831540281055e-38
4.437956 -48.093227 35.892932 0.079380 -0.856643 -0.509767 1.5197831540281055e-38
5.627933 -47.622178 35.392776 0.100461 -0.854427 -0.509767 1.5197831540281055e-38
6.766687 -47.618460 35.466678 0.121481 -0.851693 -0.509767 1.5197831540281055e-38
7.555720 -47.583219 35.878846 0.142428 -0.848441 -0.509767 1.5197831540281055e-38
9.140273 -47.429954 35.697088 0.163288 -0.844674 -0.509767 1.5197831540281055e-38
10.179774 -46.934042 36.249675 0.184049 -0.840395 -0.509767 1.5197831540281055e-38
10.787623 -46.568700 35.842943 0.204699 -0.835605 -0.509767 1.5197831540281055e-38
0.957529 -49.104830 37.082054 0.016647 -0.900731 -0.434059 1.5197831540281055e-38
1.999816 -48.761407 37.603948 0.038834 -0.900047 -0.434059 1.5197831540281055e-38
3.364318 -48.539986 36.925964 0.060997 -0.898817 -0.434059 1.5197831540281055e-38
4.569979 -48.677569 37.122299 0.083123 -0.897042 -0.434059 1.5197831540281055e-38
5.893579 -48.619505 36.993988 0.105199 -0.894721 -0.434059 1.5197831540281055e-38
6.745404 -48.466032 37.165373 0.127210 -0.891858 -0.434059 1.5197831540281055e-38
7.970383 -47.680478 37.917151 0.149145 -0.888453 -0.434059 1.5197831540281055e-38
9.092540 -47.827994 37.424804 0.170989 -0.884509 -0.434059 1.5197831540281055e-38
10.360919 -47.971753 37.634854 0.192729 -0.880028 -0.434059 1.5197831540281055e-38
11.817873 -47.306127 37.548559 0.214352 -0.875012 -0.434059 1.5197831540281055e-38
13.007429 -47.115635 36.820413 0.235845 -0.869465 -0.434059 1.5197831540281055e-38
13.784936 -46.410733 37.318028 0.257195 -0.863391 -0.434059 1.5197831540281055e-38
1.637263 -49.198667 38.336097 0.017358 -0.939194 -0.342947 1.5197831540281055e-38
2.397087 -48.926600 38.338871 0.040492 -0.938482 -0.342947 1.5197831540281055e-38
3.194728 -48.699300 38.269331 0.063602 -0.937199 -0.342947 1.5197831540281055e-38
4.909506 -49.038433 38.898605 0.086673 -0.935348 -0.342947 1.5197831540281055e-38
5.505417 -49.245543 38.606861 0.109691 -0.932928 -0.342947 1.5197831540281055e-38
6.626275 -48.798475 38.815038 0.132643 -0.929943 -0.342947 1.5197831540281055e-38
7.630945 -48.526389 38.714039 0.155514 -0.926392 -0.342947 1.5197831540281055e-38
9.354682 -48.709193 38.271733 0.178291 -0.922280 -0.342947 1.5197831540281055e-38
10.301275 -48.164949 38.267504 0.200959 -0.917607 -0.342947 1.5197831540281055e-38
11.582822 -47.771231 38.824250 0.223506 -0.912377 -0.342947 1.5197831540281055e-38
13.011990 -47.204268 38.824163 0.245916 -0.906594 -0.342947 1.5197831540281055e-38
13.906656 -47.192299 38.223031 0.268178 -0.900260 -0.342947 1.5197831540281055e-38
14.798454 -46.806718 38.034871 0.290277 -0.893379 -0.342947 1.5197831540281055e-38
16.539594 -46.990418 38.401813 0.312199 -0.885957 -0.342947 1.5197831540281055e-38
0.539053 -49.741333 39.347482 0.017953 -0.971374 -0.236874 1.5197831540281055e-38
2.349712 -49.666403 39.519606 0.041880 -0.970637 -0.236874 1.5197831540281055e-38
3.895846 -49.475698 39.477183 0.065781 -0.969311 -0.236874 1.5197831540281055e-38
4.411055 -49.847068 39.567864 0.089642 -0.967396 -0.236874 1.5197831540281055e-38
5.896442 -49.939014 39.178434 0.113449 -0.964894 -0.236874 1.5197831540281055e-38
6.863785 -49.536172 39.600606 0.137187 -0.961806 -0.236874 1.5197831540281055e-38
8.283459 -49.055552 39.752681 0.160842 -0.958134 -0.236874 1.5197831540281055e-38
9.258542 -48.815015 39.286635 0.184399 -0.953880 -0.236874 1.5197831540281055e-38
10.718876 -48.531227 39.228068 0.207845 -0.949048 -0.236874 1.5197831540281055e-38
11.779991 -48.288626 39.671932 0.231164 -0.943639 -0.236874 1.5197831540281055e-38
13.107784 -48.187606 39.816722 0.254342 -0.937657 -0.236874 1.5197831540281055e-38
14.347204 -47.853471 39.244820 0.277367 -0.931106 -0.236874 1.5197831540281055e-38
15.165166 -47.713519 39.650031 0.300222 -0.923990 -0.236874 1.5197831540281055e-38
16.874680 -46.452790 39.260826 0.322896 -0.916313 -0.236874 1.5197831540281055e-38
17.905624 -46.432672 38.868847 0.345374 -0.908079 -0.236874 1.5197831540281055e-38
1.457626 -50.175069 41.094715 0.018348 -0.992766 -0.118656 1.5197831540281055e-38
1.948031 -49.712518 40.810298 0.042802 -0.992012 -0.118656 1.5197831540281055e-38
3.680740 -49.879244 40.628146 0.067230 -0.990657 -0.118656 1.5197831540281055e-38
4.684039 -49.831468 40.245990 0.091617 -0.988700 -0.118656 1.5197831540281055e-38
5.649977 -48.727496 40.278330 0.115948 -0.986142 -0.118656 1.5197831540281055e-38
7.122697 -49.502296 41.375668 0.140209 -0.982986 -0.118656 1.5197831540281055e-38
7.932746 -49.210328 41.030602 0.164384 -0.979234 -0.118656 1.5197831540281055e-38
9.422926 -49.252384 40.818083 0.188460 -0.974886 -0.118656 1.5197831540281055e-38
10.588768 -48.867446 41.103956 0.212422 -0.969947 -0.118656 1.5197831540281055e-38
12.000921 -48.330252 40.923831 0.236254 -0.964419 -0.118656 1.5197831540281055e-38
13.359206 -47.797090 40.738728 0.259943 -0.958306 -0.118656 1.5197831540281055e-38
14.500353 -48.240555 40.148825 0.283475 -0.951611 -0.118656 1.5197831540281055e-38
15.977051 -47.585986 40.900484 0.306834 -0.944338 -0.118656 1.5197831540281055e-38
16.226815 -47.472833 40.610859 0.330007 -0.936491 -0.118656 1.5197831540281055e-38
17.942424 -46.823255 40.724005 0.352979 -0.928077 -0.118656 1.5197831540281055e-38
0.704872 -50.303052 42.346345 0.018479 -0.999823 0.003484 1.5197831540281055e-38
2.512239 -49.945636 41.900858 0.043106 -0.999064 0.003484 1.5197831540281055e-38
2.877472 -49.646522 41.858889 0.067708 -0.997699 0.003484 1.5197831540281055e-38
4.278230 -49.777822 41.961618 0.092268 -0.995728 0.003484 1.5197831540281055e-38
5.383206 -50.072042 42.162819 0.116772 -0.993153 0.003484 1.5197831540281055e-38
6.863585 -49.345826 42.105815 0.141205 -0.989974 0.003484 1.5197831540281055e-38
8.591939 -49.559575 42.131671 0.165553 -0.986195 0.003484 1.5197831540281055e-38
9.681517 -49.278888 42.400017 0.189800 -0.981817 0.003484 1.5197831540281055e-38
10.196748 -49.092193 41.550749 0.213932 -0.976842 0.003484 1.5197831540281055e-38
11.675972 -48.610322 42.311306 0.237934 -0.971275 0.003484 1.5197831540281055e-38
13.043028 -48.434712 41.597089 0.261791 -0.965118 0.003484 1.5197831540281055e-38
13.910295 -47.825896 42.326292 0.285490 -0.958375 0.003484 1.5197831540281055e-38
15.325050 -47.189419 41.776880 0.309015 -0.951051 0.003484 1.5197831540281055e-38
16.500542 -47.249464 42.520680 0.332353 -0.943149 0.003484 1.5197831540281055e-38
17.814601 -47.273417 42.347352 0.355489 -0.934674 0.003484 1.5197831540281055e-38
1.070405 -49.875862 43.562874 0.018430 -0.997172 0.072865 1.5197831540281055e-38
2.229645 -49.610559 43.465228 0.042992 -0.996415 0.072865 1.5197831540281055e-38
3.054803 -49.618069 43.268039 0.067528 -0.995053 0.072865 1.5197831540281055e-38
4.376021 -49.531234 43.575437 0.092023 -0.993087 0.072865 1.5197831540281055e-38
5.688021 -49.715944 42.882833 0.116462 -0.990519 0.072865 1.5197831540281055e-38
6.512184 -49.524695 43.536585 0.140831 -0.987349 0.072865 1.5197831540281055e-38
8.097853 -48.834870 43.237447 0.165114 -0.983579 0.072865 1.5197831540281055e-38
9.420739 -49.131235 43.593447 0.189297 -0.979213 0.072865 1.5197831540281055e-38
10.398823 -48.834719 43.134757 0.213364 -0.974252 0.072865 1.5197831540281055e-38
11.716991 -48.507385 43.264972 0.237303 -0.968699 0.072865 1.5197831540281055e-38
13.392713 -48.213608 43.465471 0.261097 -0.962559 0.072865 1.5197831540281055e-38
14.312850 -47.452425 43.208254 0.284733 -0.955834 0.072865 1.5197831540281055e-38
15.346305 -47.284154 43.204168 0.308196 -0.948528 0.072865 1.5197831540281055e-38
16.751476 -46.411563 43.005283 0.331471 -0.940647 0.072865 1.5197831540281055e-38
18.217163 -46.837268 43.700273 0.354546 -0.932195 0.072865 1.5197831540281055e-38
19.108398 -46.057832 43.253680 0.377405 -0.923177 0.072865 1.5197831540281055e-38
1.636167 -49.873213 44.669500 0.018295 -0.989889 0.140662 1.5197831540281055e-38
2.006184 -49.866139 44.196333 0.042678 -0.989137 0.140662 1.5197831540281055e-38
2.989091 -49.151787 44.524452 0.067035 -0.987786 0.140662 1.5197831540281055e-38
4.611926 -49.849993 44.593074 0.091351 -0.985834 0.140662 1.5197831540281055e-38
5.366403 -49.710649 44.176150 0.115612 -0.983284 0.140662 1.5197831540281055e-38
7.422665 -49.815749 44.182318 0.139802 -0.980138 0.140662 1.5197831540281055e-38
7.633511 -49.398892 44.398226 0.163908 -0.976396 0.140662 1.5197831540281055e-38
9.749103 -48.980370 44.412906 0.187914 -0.972061 0.140662 1.5197831540281055e-38
10.747981 -48.798828 45.259055 0.211806 -0.967136 0.140662 1.5197831540281055e-38
11.676478 -48.264484 44.784019 0.235570 -0.961624 0.140662 1.5197831540281055e-38
12.856438 -48.032251 44.385829 0.259190 -0.955529 0.140662 1.5197831540281055e-38
14.305214 -47.715660 44.493998 0.282653 -0.948853 0.140662 1.5197831540281055e-38
15.048359 -46.821917 44.712002 0.305945 -0.941601 0.140662 1.5197831540281055e-38
16.081112 -47.113460 44.065264 0.329050 -0.933777 0.140662 1.5197831540281055e-38
17.938950 -46.571681 44.537306 0.351956 -0.925387 0.140662 1.5197831540281055e-38
18.599486 -46.209344 44.772238 0.374649 -0.916435 0.140662 1.5197831540281055e-38
1.099601 -49.363742 45.220607 0.018084 -0.978486 0.205519 1.5197831540281055e-38
1.808209 -49.934293 46.154248 0.042186 -0.977743 0.205519 1.5197831540281055e-38
3.123526 -49.674472 45.775193 0.066263 -0.976407 0.205519 1.5197831540281055e-38
4.203540 -49.275685 45.134079 0.090299 -0.974478 0.205519 1.5197831540281055e-38
5.438847 -49.202455 45.400705 0.114280 -0.971958 0.205519 1.5197831540281055e-38
7.393762 -49.090560 46.112817 0.138192 -0.968847 0.205519 1.5197831540281055e-38
8.319086 -48.920556 45.474227 0.162020 -0.965148 0.205519 1.5197831540281055e-38
9.693151 -48.567436 46.398590 0.185749 -0.960864 0.205519 1.5197831540281055e-38
10.859909 -48.572304 45.860022 0.209366 -0.955996 0.205519 1.5197831540281055e-38
11.928570 -47.828050 46.169757 0.232856 -0.950547 0.205519 1.5197831540281055e-38
12.936710 -48.236201 45.217044 0.256204 -0.944522 0.205519 1.5197831540281055e-38
13.818929 -47.714621 46.224496 0.279397 -0.937923 0.205519 1.5197831540281055e-38
15.783540 -46.885725 46.142316 0.302420 -0.930754 0.205519 1.5197831540281055e-38
16.273059 -47.236413 45.471237 0.325260 -0.923021 0.205519 1.5197831540281055e-38
17.022412 -46.695649 45.621412 0.347902 -0.914727 0.205519 1.5197831540281055e-38
18.819744 -45.872324 45.566305 0.370333 -0.905878 0.205519 1.5197831540281055e-38
0.599087 -48.999672 46.642312 0.017811 -0.963714 0.266341 1.5197831540281055e-38
2.172555 -48.710644 47.340740 0.041549 -0.962983 0.266341 1.5197831540281055e-38
3.490843 -49.112370 46.971978 0.065262 -0.961667 0.266341 1.5197831540281055e-38
4.278465 -49.166271 47.182772 0.088936 -0.959767 0.266341 1.5197831540281055e-38
5.873859 -48.726531 47.376211 0.112555 -0.957285 0.266341 1.5197831540281055e-38
6.913987 -48.748893 46.440588 0.136106 -0.954221 0.266341 1.5197831540281055e-38
8.838736 -48.744274 47.205817 0.159574 -0.950578 0.266341 1.5197831540281055e-38
9.232917 -48.535597 46.939209 0.182945 -0.946358 0.266341 1.5197831540281055e-38
10.173457 -48.903104 47.358216 0.206206 -0.941563 0.266341 1.5197831540281055e-38
11.894018 -48.159327 47.145882 0.229341 -0.936197 0.266341 1.5197831540281055e-38
13.153680 -47.788937 47.133864 0.252337 -0.930263 0.266341 1.5197831540281055e-38
14.376899 -47.680110 47.170333 0.275179 -0.923763 0.266341 1.5197831540281055e-38
15.343986 -46.323359 47.177420 0.297855 -0.916703 0.266341 1.5197831540281055e-38
16.261970 -46.586474 47.617327 0.320350 -0.909087 0.266341 1.5197831540281055e-38
17.419395 -45.904269 46.938795 0.342650 -0.900918 0.266341 1.5197831540281055e-38
18.980205 -45.295132 47.003509 0.364742 -0.892203 0.266341 1.5197831540281055e-38
19.652449 -45.290031 46.492131 0.386613 -0.882945 0.266341 1.5197831540281055e-38
1.454096 -48.688398 48.194982 0.040806 -0.945741 0.322349 1.5197831540281055e-38
3.431989 -48.986419 47.962633 0.064094 -0.944449 0.322349 1.5197831540281055e-38
4.383291 -48.652347 48.420394 0.087343 -0.942583 0.322349 1.5197831540281055e-38
5.803514 -48.864989 48.798727 0.110539 -0.940145 0.322349 1.5197831540281055e-38
7.007456 -48.615184 48.374689 0.133669 -0.937136 0.322349 1.5197831540281055e-38
8.175465 -48.296189 48.159586 0.156717 -0.933558 0.322349 1.5197831540281055e-38
9.580271 -47.511060 47.636622 0.179670 -0.929414 0.322349 1.5197831540281055e-38
10.834474 -47.780102 48.318430 0.202514 -0.924705 0.322349 1.5197831540281055e-38
12.044956 -48.310179 48.491860 0.225234 -0.919435 0.322349 1.5197831540281055e-38
13.191297 -47.419132 47.829237 0.247819 -0.913607 0.322349 1.5197831540281055e-38
14.457836 -47.409613 48.373018 0.270252 -0.907224 0.322349 1.5197831540281055e-38
15.423620 -46.405401 48.416812 0.292522 -0.900290 0.322349 1.5197831540281055e-38
16.178835 -45.999006 48.034882 0.314614 -0.892810 0.322349 1.5197831540281055e-38
17.216441 -45.712589 47.785470 0.336515 -0.884787 0.322349 1.5197831540281055e-38
18.684462 -46.025147 48.356267 0.358212 -0.876228 0.322349 1.5197831540281055e-38
19.758399 -45.049464 47.877233 0.379691 -0.867137 0.322349 1.5197831540281055e-38
2.428669 -48.680059 49.422296 0.039994 -0.926934 0.373087 1.5197831540281055e-38
3.652045 -48.492260 49.082300 0.062819 -0.925667 0.373087 1.5197831540281055e-38
4.348004 -47.834728 48.803315 0.085606 -0.923838 0.373087 1.5197831540281055e-38
5.689402 -48.317643 49.434246 0.108341 -0.921449 0.373087 1.5197831540281055e-38
6.738141 -47.685272 49.500678 0.131011 -0.918500 0.373087 1.5197831540281055e-38
8.325730 -47.405029 49.493505 0.153600 -0.914993 0.373087 1.5197831540281055e-38
9.089715 -47.464951 49.655592 0.176097 -0.910931 0.373087 1.5197831540281055e-38
10.020989 -47.266240 49.408468 0.198486 -0.906316 0.373087 1.5197831540281055e-38
11.403989 -47.274558 49.296820 0.220755 -0.901151 0.373087 1.5197831540281055e-38
13.062903 -46.878113 49.827664 0.242890 -0.895438 0.373087 1.5197831540281055e-38
13.873935 -46.781977 49.541767 0.264878 -0.889182 0.373087 1.5197831540281055e-38
14.618268 -45.905072 49.422204 0.286705 -0.882387 0.373087 1.5197831540281055e-38
16.362124 -45.274225 48.963933 0.308358 -0.875055 0.373087 1.5197831540281055e-38
17.088374 -45.656453 50.132014 0.329823 -0.867192 0.373087 1.5197831540281055e-38
18.205314 -45.249977 50.156638 0.351088 -0.858803 0.373087 1.5197831540281055e-38
19.219144 -44.876599 49.137016 0.372140 -0.849893 0.373087 1.5197831540281055e-38
2.424186 -47.789053 51.020764 0.039152 -0.907426 0.418385 1.5197831540281055e-38
3.097386 -48.147366 50.057673 0.061497 -0.906186 0.418385 1.5197831540281055e-38
4.446874 -47.782965 50.877436 0.083805 -0.904395 0.418385 1.5197831540281055e-38
5.600249 -47.454922 50.964975 0.106061 -0.902056 0.418385 1.5197831540281055e-38
6.329245 -47.184090 50.599675 0.128253 -0.899169 0.418385 1.5197831540281055e-38
8.089436 -46.956961 51.030378 0.150368 -0.895736 0.418385 1.5197831540281055e-38
9.134955 -47.000262 50.989223 0.172391 -0.891760 0.418385 1.5197831540281055e-38
9.802381 -47.100888 50.637872 0.194309 -0.887242 0.418385 1.5197831540281055e-38
11.003196 -46.630118 50.623745 0.216109 -0.882185 0.418385 1.5197831540281055e-38
12.572544 -46.270596 51.042454 0.237779 -0.876593 0.418385 1.5197831540281055e-38
13.854074 -45.951689 50.621671 0.259303 -0.870469 0.418385 1.5197831540281055e-38
14.795359 -45.588302 51.477276 0.280671 -0.863816 0.418385 1.5197831540281055e-38
15.490832 -45.478519 50.399772 0.301868 -0.856639 0.418385 1.5197831540281055e-38
17.117665 -44.725587 50.549728 0.322882 -0.848942 0.418385 1.5197831540281055e-38
18.404169 -44.250249 51.003080 0.343699 -0.840729 0.418385 1.5197831540281055e-38
19.583811 -44.540185 50.927334 0.364308 -0.832006 0.418385 1.5197831540281055e-38
19.911527 -43.339122 50.699781 0.384696 -0.822778 0.418385 1.5197831540281055e-38
1.789390 -47.491282 51.854678 0.038313 -0.887976 0.458292 1.5197831540281055e-38
3.108957 -47.059220 51.798442 0.060179 -0.886762 0.458292 1.5197831540281055e-38
4.846841 -46.640371 52.029623 0.082008 -0.885010 0.458292 1.5197831540281055e-38
5.422375 -47.156943 52.053790 0.103788 -0.882721 0.458292 1.5197831540281055e-38
6.829488 -46.906853 51.840824 0.125504 -0.879896 0.458292 1.5197831540281055e-38
7.939947 -46.646992 51.787126 0.147145 -0.876537 0.458292 1.5197831540281055e-38
9.015431 -46.642107 51.733265 0.168696 -0.872646 0.458292 1.5197831540281055e-38
10.121969 -46.397542 51.738863 0.190144 -0.868224 0.458292 1.5197831540281055e-38
11.572973 -46.079355 52.511771 0.211477 -0.863276 0.458292 1.5197831540281055e-38
12.576212 -45.916553 52.306691 0.232682 -0.857804 0.458292 1.5197831540281055e-38
13.294674 -44.759261 52.026621 0.253745 -0.851811 0.458292 1.5197831540281055e-38
14.785669 -44.995369 52.038528 0.274655 -0.845301 0.458292 1.5197831540281055e-38
15.658527 -44.908466 52.060665 0.295398 -0.838277 0.458292 1.5197831540281055e-38
17.129513 -44.586889 52.420905 0.315961 -0.830745 0.458292 1.5197831540281055e-38
18.087015 -43.932890 51.822330 0.336332 -0.822708 0.458292 1.5197831540281055e-38
19.539652 -43.065729 52.300778 0.356500 -0.814172 0.458292 1.5197831540281055e-38
19.967291 -42.699905 52.063576 0.376451 -0.805142 0.458292 1.5197831540281055e-38
2.073232 -46.419433 53.767903 0.037504 -0.869212 0.493015 1.5197831540281055e-38
2.779980 -46.589593 53.162435 0.058907 -0.868024 0.493015 1.5197831540281055e-38
4.304672 -45.681159 53.143877 0.080275 -0.866309 0.493015 1.5197831540281055e-38
4.691363 -46.391179 53.160363 0.101595 -0.864069 0.493015 1.5197831540281055e-38
6.515068 -46.398965 52.799486 0.122852 -0.861303 0.493015 1.5197831540281055e-38
8.371069 -45.911569 53.138204 0.144035 -0.858015 0.493015 1.5197831540281055e-38
9.492661 -46.063408 53.376599 0.165131 -0.854206 0.493015 1.5197831540281055e-38
9.605432 -45.345531 52.855528 0.186126 -0.849878 0.493015 1.5197831540281055e-38
11.241007 -44.725070 53.223911 0.207009 -0.845035 0.493015 1.5197831540281055e-38
11.555073 -45.013082 53.340012 0.227765 -0.839678 0.493015 1.5197831540281055e-38
13.588707 -44.267176 53.653247 0.248384 -0.833812 0.493015 1.5197831540281055e-38
14.376609 -44.565382 52.860323 0.268851 -0.827439 0.493015 1.5197831540281055e-38
15.342633 -43.855953 52.791282 0.289156 -0.820564 0.493015 1.5197831540281055e-38
16.305875 -43.434872 53.001930 0.309284 -0.813191 0.493015 1.5197831540281055e-38
17.764175 -43.426033 53.282216 0.329225 -0.805324 0.493015 1.5197831540281055e-38
18.480146 -43.304296 53.482663 0.348967 -0.796968 0.493015 1.5197831540281055e-38
19.550110 -42.334312 52.988534 0.368496 -0.788129 0.493015 1.5197831540281055e-38
2.155000 -45.850308 54.357975 0.036745 -0.851630 0.522853 1.5197831540281055e-38
2.846284 -45.756070 54.402193 0.057716 -0.850467 0.522853 1.5197831540281055e-38
3.806113 -45.394570 54.159974 0.078652 -0.848787 0.522853 1.5197831540281055e-38
4.939156 -45.784961 54.165174 0.099540 -0.846591 0.522853 1.5197831540281055e-38
6.406773 -45.833035 54.567381 0.120367 -0.843882 0.522853 1.5197831540281055e-38
8.016618 -45.254986 53.999704 0.141122 -0.840660 0.522853 1.5197831540281055e-38
8.441779 -45.019313 53.842904 0.161791 -0.836928 0.522853 1.5197831540281055e-38
9.454061 -45.351529 54.467618 0.182361 -0.832688 0.522853 1.5197831540281055e-38
11.574736 -44.979922 54.677889 0.202821 -0.827942 0.522853 1.5197831540281055e-38
11.852473 -44.714948 54.902228 0.223158 -0.822694 0.522853 1.5197831540281055e-38
13.757845 -43.885702 54.541743 0.243360 -0.816946 0.522853 1.5197831540281055e-38
14.208869 -43.717382 54.535013 0.263413 -0.810702 0.522853 1.5197831540281055e-38
15.464705 -42.811039 54.276170 0.283307 -0.803966 0.522853 1.5197831540281055e-38
16.362502 -42.947416 54.740208 0.303028 -0.796742 0.522853 1.5197831540281055e-38
18.096816 -42.188094 54.672463 0.322566 -0.789035 0.522853 1.5197831540281055e-38
18.691110 -41.684414 55.157324 0.341908 -0.780848 0.522853 1.5197831540281055e-38
2.045885 -45.404671 56.122429 0.036054 -0.835605 0.548147 1.5197831540281055e-38
2.996793 -44.943087 55.473242 0.056630 -0.834463 0.548147 1.5197831540281055e-38
4.257990 -44.319486 55.373303 0.077172 -0.832814 0.548147 1.5197831540281055e-38
4.935871 -45.085693 55.570157 0.097667 -0.830660 0.548147 1.5197831540281055e-38
6.216936 -44.995070 55.655204 0.118102 -0.828002 0.548147 1.5197831540281055e-38
7.940636 -44.557231 55.641171 0.138466 -0.824841 0.548147 1.5197831540281055e-38
8.669577 -44.120376 56.082071 0.158746 -0.821179 0.548147 1.5197831540281055e-38
9.727907 -44.090960 55.372643 0.178930 -0.817018 0.548147 1.5197831540281055e-38
10.961221 -44.092237 55.407453 0.199005 -0.812362 0.548147 1.5197831540281055e-38
11.873991 -43.098531 55.888040 0.218959 -0.807212 0.548147 1.5197831540281055e-38
12.874436 -43.551125 56.126737 0.238780 -0.801573 0.548147 1.5197831540281055e-38
13.930544 -43.013109 55.836653 0.258456 -0.795447 0.548147 1.5197831540281055e-38
14.866457 -42.795286 55.472975 0.277976 -0.788837 0.548147 1.5197831540281055e-38
15.847191 -42.525090 55.298426 0.297326 -0.781749 0.548147 1.5197831540281055e-38
17.371236 -41.578111 55.423264 0.316496 -0.774187 0.548147 1.5197831540281055e-38
18.370285 -41.252489 55.572965 0.335474 -0.766154 0.548147 1.5197831540281055e-38
2.311960 -44.193680 57.148797 0.035441 -0.821406 0.569242 1.5197831540281055e-38
2.862084 -44.099793 57.274914 0.055667 -0.820283 0.569242 1.5197831540281055e-38
3.993510 -43.756232 56.416845 0.075860 -0.818663 0.569242 1.5197831540281055e-38
4.989238 -43.834075 57.478060 0.096007 -0.816545 0.569242 1.5197831540281055e-38
6.259846 -44.167217 57.471240 0.116095 -0.813932 0.569242 1.5197831540281055e-38
7.296348 -43.490174 56.806889 0.136113 -0.810825 0.569242 1.5197831540281055e-38
8.451047 -43.664285 57.584510 0.156049 -0.807225 0.569242 1.5197831540281055e-38
9.834804 -42.744850 56.670678 0.175889 -0.803135 0.569242 1.5197831540281055e-38
9.993243 -43.116537 57.662158 0.195623 -0.798558 0.569242 1.5197831540281055e-38
11.501104 -42.440356 56.599763 0.215238 -0.793496 0.569242 1.5197831540281055e-38
12.398840 -42.481114 57.540125 0.234723 -0.787952 0.569242 1.5197831540281055e-38
14.019809 -42.748642 57.107236 0.254064 -0.781930 0.569242 1.5197831540281055e-38
14.379005 -41.987085 57.060334 0.273252 -0.775433 0.569242 1.5197831540281055e-38
16.168104 -41.002401 57.006686 0.292274 -0.768466 0.569242 1.5197831540281055e-38
16.867646 -40.602743 56.434553 0.311118 -0.761031 0.569242 1.5197831540281055e-38
18.317377 -40.801933 56.985401 0.329774 -0.753135 0.569242 1.5197831540281055e-38
2.532605 -43.555748 57.953830 0.034915 -0.809223 0.586464 1.5197831540281055e-38
3.010952 -43.075932 58.341609 0.054842 -0.808117 0.586464 1.5197831540281055e-38
3.899072 -43.479754 58.539169 0.074735 -0.806520 0.586464 1.5197831540281055e-38
4.838394 -43.702009 57.708311 0.094583 -0.804434 0.586464 1.5197831540281055e-38
5.958927 -42.541380 57.787821 0.114374 -0.801860 0.586464 1.5197831540281055e-38
7.645626 -42.432966 58.211899 0.134095 -0.798798 0.586464 1.5197831540281055e-38
7.477239 -42.990110 57.954269 0.153734 -0.795252 0.586464 1.5197831540281055e-38
9.809091 -42.589640 57.912450 0.173281 -0.791223 0.586464 1.5197831540281055e-38
10.388644 -42.599992 58.136943 0.192722 -0.786714 0.586464 1.5197831540281055e-38
11.128587 -41.103448 57.869043 0.212046 -0.781727 0.586464 1.5197831540281055e-38
12.976234 -41.959020 58.223163 0.231241 -0.776265 0.586464 1.5197831540281055e-38
13.568920 -41.256371 58.168450 0.250296 -0.770332 0.586464 1.5197831540281055e-38
14.690689 -40.830548 58.092459 0.269199 -0.763932 0.586464 1.5197831540281055e-38
15.234587 -40.637475 58.090904 0.287939 -0.757068 0.586464 1.5197831540281055e-38
16.372880 -40.172246 57.721533 0.306504 -0.749744 0.586464 1.5197831540281055e-38
2.340051 -42.768776 59.739178 0.034482 -0.799183 0.600099 1.5197831540281055e-38
3.315368 -42.571932 59.252529 0.054161 -0.798090 0.600099 1.5197831540281055e-38
3.889736 -42.143935 59.082026 0.073808 -0.796514 0.600099 1.5197831540281055e-38
4.931444 -42.314937 59.036050 0.093410 -0.794454 0.600099 1.5197831540281055e-38
5.689419 -42.047314 59.414601 0.112954 -0.791911 0.600099 1.5197831540281055e-38
6.808791 -41.901344 59.187357 0.132431 -0.788888 0.600099 1.5197831540281055e-38
8.460903 -41.769887 59.710704 0.151827 -0.785385 0.600099 1.5197831540281055e-38
8.586862 -41.430699 59.560267 0.171131 -0.781406 0.600099 1.5197831540281055e-38
10.073676 -41.452510 59.335278 0.190331 -0.776953 0.600099 1.5197831540281055e-38
11.352011 -41.392271 59.591590 0.209415 -0.772028 0.600099 1.5197831540281055e-38
12.232256 -40.820698 59.316025 0.228372 -0.766634 0.600099 1.5197831540281055e-38
13.155410 -39.933488 59.485844 0.247191 -0.760775 0.600099 1.5197831540281055e-38
13.846176 -40.225732 59.038070 0.265859 -0.754454 0.600099 1.5197831540281055e-38
14.545600 -40.083511 59.417466 0.284366 -0.747675 0.600099 1.5197831540281055e-38
16.469102 -39.051742 59.034865 0.302701 -0.740442 0.600099 1.5197831540281055e-38
3.013163 -41.942932 60.554581 0.053632 -0.790286 0.610387 1.5197831540281055e-38
3.511730 -41.825579 60.980212 0.073086 -0.788725 0.610387 1.5197831540281055e-38
4.486028 -41.506580 60.363074 0.092496 -0.786685 0.610387 1.5197831540281055e-38
6.211903 -40.848679 60.999645 0.111850 -0.784167 0.610387 1.5197831540281055e-38
6.646211 -40.591935 60.380061 0.131136 -0.781173 0.610387 1.5197831540281055e-38
7.663712 -41.024430 60.419863 0.150342 -0.777705 0.610387 1.5197831540281055e-38
8.866060 -40.859638 60.687980 0.169457 -0.773765 0.610387 1.5197831540281055e-38
9.108255 -40.308152 60.291653 0.188469 -0.769355 0.610387 1.5197831540281055e-38
10.682027 -40.314227 60.901508 0.207367 -0.764478 0.610387 1.5197831540281055e-38
12.019396 -39.890007 60.403986 0.226139 -0.759137 0.610387 1.5197831540281055e-38
13.080841 -38.997440 60.610158 0.244773 -0.753335 0.610387 1.5197831540281055e-38
13.336645 -39.418229 60.786322 0.263259 -0.747076 0.610387 1.5197831540281055e-38
14.645102 -39.112673 60.347902 0.281586 -0.740363 0.610387 1.5197831540281055e-38
15.758223 -38.939328 60.608160 0.299741 -0.733201 0.610387 1.5197831540281055e-38
2.132945 -40.575387 61.872004 0.053256 -0.784754 0.617516 1.5197831540281055e-38
3.447333 -40.331266 62.091584 0.072574 -0.783203 0.617516 1.5197831540281055e-38
4.877437 -39.795974 61.725662 0.091849 -0.781177 0.617516 1.5197831540281055e-38
5.883611 -40.057876 61.784985 0.111067 -0.778677 0.617516 1.5197831540281055e-38
7.062760 -39.960743 61.495357 0.130218 -0.775705 0.617516 1.5197831540281055e-38
7.932539 -40.019239 61.758845 0.149290 -0.772261 0.617516 1.5197831540281055e-38
8.612695 -39.446847 62.179366 0.168271 -0.768348 0.617516 1.5197831540281055e-38
9.614123 -39.506413 61.241527 0.187150 -0.763969 0.617516 1.5197831540281055e-38
10.417823 -39.475371 61.949028 0.205915 -0.759127 0.617516 1.5197831540281055e-38
11.560998 -39.190181 61.901481 0.224556 -0.753823 0.617516 1.5197831540281055e-38
12.528132 -39.382219 62.188046 0.243060 -0.748062 0.617516 1.5197831540281055e-38
13.799387 -38.370584 61.961449 0.261417 -0.741846 0.617516 1.5197831540281055e-38
14.338037 -38.436407 62.504787 0.279614 -0.735180 0.617516 1.5197831540281055e-38
2.464328 -39.671224 62.999013 0.053037 -0.781522 0.621619 1.5197831540281055e-38
3.886116 -39.740150 63.373443 0.072276 -0.779978 0.621619 1.5197831540281055e-38
4.713295 -39.745293 62.996941 0.091470 -0.777961 0.621619 1.5197831540281055e-38
5.744464 -39.221499 63.206475 0.110610 -0.775471 0.621619 1.5197831540281055e-38
6.384751 -38.917155 62.973245 0.129682 -0.772510 0.621619 1.5197831540281055e-38
8.285754 -39.305911 63.902169 0.148675 -0.769081 0.621619 1.5197831540281055e-38
8.192921 -38.331577 63.341016 0.167578 -0.765185 0.621619 1.5197831540281055e-38
9.156611 -38.312469 62.944041 0.186379 -0.760824 0.621619 1.5197831540281055e-38
10.457425 -38.203947 62.987991 0.205068 -0.756001 0.621619 1.5197831540281055e-38
11.184433 -37.878823 62.821637 0.223631 -0.750719 0.621619 1.5197831540281055e-38
11.986656 -37.404311 63.221299 0.242059 -0.744981 0.621619 1.5197831540281055e-38
12.779372 -37.678624 62.451830 0.260340 -0.738791 0.621619 1.5197831540281055e-38
3.350480 -39.053041 64.411430 0.052975 -0.780606 0.622774 1.5197831540281055e-38
3.668616 -38.177925 64.439931 0.072191 -0.779064 0.622774 1.5197831540281055e-38
5.080128 -38.310314 64.734253 0.091363 -0.777049 0.622774 1.5197831540281055e-38
5.769130 -37.796774 64.337348 0.110480 -0.774562 0.622774 1.5197831540281055e-38
6.517463 -38.224061 64.377823 0.129530 -0.771605 0.622774 1.5197831540281055e-38
7.399664 -38.567328 64.286954 0.148501 -0.768179 0.622774 1.5197831540281055e-38
8.534749 -38.156925 64.033994 0.167382 -0.764288 0.622774 1.5197831540281055e-38
9.542081 -37.133773 64.143666 0.186161 -0.759932 0.622774 1.5197831540281055e-38
10.169600 -37.322182 64.682990 0.204827 -0.755115 0.622774 1.5197831540281055e-38
10.873276 -37.151771 64.732127 0.223369 -0.749839 0.622774 1.5197831540281055e-38
11.641458 -36.904490 64.369766 0.241775 -0.744108 0.622774 1.5197831540281055e-38
2.556096 -37.201586 65.927577 0.053070 -0.782009 0.621004 1.5197831540281055e-38
3.527627 -37.960038 65.198249 0.072321 -0.780464 0.621004 1.5197831540281055e-38
4.418302 -37.280824 65.201818 0.091527 -0.778445 0.621004 1.5197831540281055e-38
5.516480 -37.811872 64.768062 0.110678 -0.775954 0.621004 1.5197831540281055e-38
5.972807 -36.731892 66.023696 0.129762 -0.772992 0.621004 1.5197831540281055e-38
6.670099 -37.434459 65.795291 0.148768 -0.769560 0.621004 1.5197831540281055e-38
7.925270 -36.381653 65.790409 0.167682 -0.765661 0.621004 1.5197831540281055e-38
9.236400 -36.828446 65.700154 0.186495 -0.761298 0.621004 1.5197831540281055e-38
3.183127 -36.261311 66.714614 0.072664 -0.784173 0.616273 1.5197831540281055e-38
4.441388 -36.556385 66.859306 0.091962 -0.782145 0.616273 1.5197831540281055e-38
5.191273 -36.514949 66.975568 0.111204 -0.779642 0.616273 1.5197831540281055e-38
6.533434 -36.067126 66.835312 0.130379 -0.776665 0.616273 1.5197831540281055e-38
6.710621 -35.740425 66.650808 0.149475 -0.773217 0.616273 1.5197831540281055e-38
4.217038 -35.767267 69.543408 0.092666 -0.788130 0.608494 1.5197831540281055e-38
