# .PCD v0.7 - Point Cloud Data file format
VERSION 0.7
FIELDS x y z normal_x normal_y normal_z rgb
SIZE 4 4 4 4 4 4 4
TYPE F F F F F F F
COUNT 1 1 1 1 1 1 1
WIDTH 230
HEIGHT 1
VIEWPOINT 0 0 0 1 0 0 0
POINTS 230
DATA ascii
56.747565 4.082768 102.641252 0.997269 0.073853 0.000000 1.75027152803718e-38
56.196464 5.502469 102.079047 0.995147 0.098400 0.000000 1.75027152803718e-38
56.536487 4.064581 104.332047 0.997269 0.073853 0.000000 1.75027152803718e-38
56.462348 6.023532 103.473081 0.995147 0.098400 0.000000 1.75027152803718e-38
56.899878 7.362809 103.630609 0.992421 0.122888 0.000000 1.75027152803718e-38
56.132434 8.001043 103.769453 0.989092 0.147302 0.000000 1.75027152803718e-38
55.532385 9.222022 103.541356 0.985162 0.171626 0.000000 1.75027152803718e-38
56.055224 10.574793 104.329356 0.980635 0.195845 0.000000 1.75027152803718e-38
55.727330 12.898071 104.020942 0.975512 0.219946 0.000000 1.75027152803718e-38
56.915520 2.185576 104.912555 0.998786 0.049260 0.000000 1.75027152803718e-38
56.659154 4.505412 104.600311 0.997269 0.073853 0.000000 1.75027152803718e-38
56.968924 5.800892 104.618977 0.995147 0.098400 0.000000 1.75027152803718e-38
56.670497 6.718324 105.326002 0.992421 0.122888 0.000000 1.75027152803718e-38
56.508697 8.625403 104.983198 0.989092 0.147302 0.000000 1.75027152803718e-38
56.300419 10.234467 105.067256 0.985162 0.171626 0.000000 1.75027152803718e-38
55.788712 11.364690 104.300646 0.980635 0.195845 0.000000 1.75027152803718e-38
55.251835 12.826040 105.200768 0.975512 0.219946 0.000000 1.75027152803718e-38
55.156232 13.606127 105.162618 0.969797 0.243914 0.000000 1.75027152803718e-38
57.204298 2.608346 106.329469 0.998786 0.049260 0.000000 1.75027152803718e-38
56.455377 4.265854 106.412891 0.997269 0.073853 0.000000 1.75027152803718e-38
56.369969 5.621461 106.312198 0.995147 0.098400 0.000000 1.75027152803718e-38
56.963982 6.795657 106.535450 0.992421 0.122888 0.000000 1.75027152803718e-38
55.965824 8.424475 106.499027 0.989092 0.147302 0.000000 1.75027152803718e-38
56.305092 9.752012 106.911283 0.985162 0.171626 0.000000 1.75027152803718e-38
55.816494 11.313401 106.297304 0.980635 0.195845 0.000000 1.75027152803718e-38
55.381144 12.187040 106.117430 0.975512 0.219946 0.000000 1.75027152803718e-38
55.487892 14.308287 106.572134 0.969797 0.243914 0.000000 1.75027152803718e-38
54.846593 15.080072 106.441027 0.963493 0.267733 0.000000 1.75027152803718e-38
57.800006 1.206000 107.268558 0.999696 0.024637 0.000000 1.75027152803718e-38
56.809655 2.623602 107.751838 0.998786 0.049260 0.000000 1.75027152803718e-38
56.575947 4.321356 107.639139 0.997269 0.073853 0.000000 1.75027152803718e-38
57.107245 5.805423 107.877341 0.995147 0.098400 0.000000 1.75027152803718e-38
56.824549 7.368499 107.181691 0.992421 0.122888 0.000000 1.75027152803718e-38
56.050413 8.406236 107.654161 0.989092 0.147302 0.000000 1.75027152803718e-38
55.955474 9.969618 107.237556 0.985162 0.171626 0.000000 1.75027152803718e-38
55.923710 11.179356 107.800490 0.980635 0.195845 0.000000 1.75027152803718e-38
55.560339 12.925825 108.132924 0.975512 0.219946 0.000000 1.75027152803718e-38
55.846567 14.472279 107.948698 0.969797 0.243914 0.000000 1.75027152803718e-38
55.209715 15.065487 107.459630 0.963493 0.267733 0.000000 1.75027152803718e-38
54.916380 16.107013 108.025937 0.956604 0.291390 0.000000 1.75027152803718e-38
56.971577 1.441776 108.799743 0.999696 0.024637 0.000000 1.75027152803718e-38
57.129098 3.255517 109.320119 0.998786 0.049260 0.000000 1.75027152803718e-38
56.840140 4.456201 109.062002 0.997269 0.073853 0.000000 1.75027152803718e-38
56.741332 6.050492 108.422396 0.995147 0.098400 0.000000 1.75027152803718e-38
57.072881 6.992127 108.544576 0.992421 0.122888 0.000000 1.75027152803718e-38
56.504634 8.986638 109.619233 0.989092 0.147302 0.000000 1.75027152803718e-38
56.101553 9.802490 108.810189 0.985162 0.171626 0.000000 1.75027152803718e-38
56.070537 11.686642 108.748713 0.980635 0.195845 0.000000 1.75027152803718e-38
55.548737 12.443959 108.809784 0.975512 0.219946 0.000000 1.75027152803718e-38
55.687518 13.985588 109.065586 0.969797 0.243914 0.000000 1.75027152803718e-38
55.413621 15.225555 108.844999 0.963493 0.267733 0.000000 1.75027152803718e-38
54.849424 16.477847 108.879283 0.956604 0.291390 0.000000 1.75027152803718e-38
54.592547 18.042035 109.248587 0.949135 0.314870 0.000000 1.75027152803718e-38
57.189036 -0.364054 109.998879 1.000000 0.000000 0.000000 1.75027152803718e-38
57.569503 0.959846 110.592361 0.999696 0.024637 0.000000 1.75027152803718e-38
57.208615 3.034542 109.786893 0.998786 0.049260 0.000000 1.75027152803718e-38
57.048605 4.028230 110.191692 0.997269 0.073853 0.000000 1.75027152803718e-38
56.644258 5.447223 110.723333 0.995147 0.098400 0.000000 1.75027152803718e-38
57.009803 7.149252 110.212193 0.992421 0.122888 0.000000 1.75027152803718e-38
57.062747 8.395009 110.384032 0.989092 0.147302 0.000000 1.75027152803718e-38
55.692179 9.789539 110.010386 0.985162 0.171626 0.000000 1.75027152803718e-38
55.983705 11.433897 110.062735 0.980635 0.195845 0.000000 1.75027152803718e-38
55.799490 12.356612 109.985011 0.975512 0.219946 0.000000 1.75027152803718e-38
54.918472 13.869325 109.678555 0.969797 0.243914 0.000000 1.75027152803718e-38
55.623048 15.547725 110.376989 0.963493 0.267733 0.000000 1.75027152803718e-38
54.369023 16.933388 109.902929 0.956604 0.291390 0.000000 1.75027152803718e-38
54.420689 17.970170 109.689502 0.949135 0.314870 0.000000 1.75027152803718e-38
57.604052 -0.395007 111.074572 1.000000 0.000000 0.000000 1.75027152803718e-38
57.000011 1.598195 111.004321 0.999696 0.024637 0.000000 1.75027152803718e-38
57.391330 2.620883 111.305094 0.998786 0.049260 0.000000 1.75027152803718e-38
56.990569 4.930458 110.841037 0.997269 0.073853 0.000000 1.75027152803718e-38
57.176834 5.636255 111.106289 0.995147 0.098400 0.000000 1.75027152803718e-38
56.992151 6.754361 111.018095 0.992421 0.122888 0.000000 1.75027152803718e-38
56.338971 8.466294 111.160340 0.989092 0.147302 0.000000 1.75027152803718e-38
56.197703 9.938437 111.663695 0.985162 0.171626 0.000000 1.75027152803718e-38
55.772649 11.322803 111.497336 0.980635 0.195845 0.000000 1.75027152803718e-38
56.286833 12.517870 111.803636 0.975512 0.219946 0.000000 1.75027152803718e-38
55.752323 13.414505 111.430296 0.969797 0.243914 0.000000 1.75027152803718e-38
55.210695 15.638481 111.694145 0.963493 0.267733 0.000000 1.75027152803718e-38
54.529678 16.970867 111.301451 0.956604 0.291390 0.000000 1.75027152803718e-38
54.180353 18.479243 111.197398 0.949135 0.314870 0.000000 1.75027152803718e-38
53.941669 19.356793 111.494625 0.941089 0.338158 0.000000 1.75027152803718e-38
56.936950 -1.628622 111.397474 0.999696 -0.024637 0.000000 1.75027152803718e-38
57.315074 0.688875 112.059844 1.000000 0.000000 0.000000 1.75027152803718e-38
57.226502 1.649030 112.444409 0.999696 0.024637 0.000000 1.75027152803718e-38
57.288204 3.600918 112.597073 0.998786 0.049260 0.000000 1.75027152803718e-38
57.622402 4.430995 112.798566 0.997269 0.073853 0.000000 1.75027152803718e-38
57.020945 5.155437 112.903617 0.995147 0.098400 0.000000 1.75027152803718e-38
57.091120 7.209426 112.532323 0.992421 0.122888 0.000000 1.75027152803718e-38
56.538702 8.845835 112.675335 0.989092 0.147302 0.000000 1.75027152803718e-38
55.959128 9.828202 112.486128 0.985162 0.171626 0.000000 1.75027152803718e-38
55.460154 11.009053 113.356148 0.980635 0.195845 0.000000 1.75027152803718e-38
55.246231 12.269612 111.847385 0.975512 0.219946 0.000000 1.75027152803718e-38
55.151544 13.439099 112.221977 0.969797 0.243914 0.000000 1.75027152803718e-38
55.779637 15.628640 112.499600 0.963493 0.267733 0.000000 1.75027152803718e-38
55.371866 16.570957 112.290709 0.956604 0.291390 0.000000 1.75027152803718e-38
54.311370 17.585491 112.011487 0.949135 0.314870 0.000000 1.75027152803718e-38
54.177719 19.495862 112.191142 0.941089 0.338158 0.000000 1.75027152803718e-38
53.625719 20.872591 112.396003 0.932472 0.361242 0.000000 1.75027152803718e-38
57.567422 -1.523001 112.515554 0.999696 -0.024637 0.000000 1.75027152803718e-38
57.776420 0.240496 114.193646 1.000000 0.000000 0.000000 1.75027152803718e-38
57.409600 1.597054 114.013670 0.999696 0.024637 0.000000 1.75027152803718e-38
57.765017 2.143785 113.851278 0.998786 0.049260 0.000000 1.75027152803718e-38
57.531111 4.592301 113.678623 0.997269 0.073853 0.000000 1.75027152803718e-38
57.240254 5.868999 114.190776 0.995147 0.098400 0.000000 1.75027152803718e-38
57.073535 7.131199 113.733212 0.992421 0.122888 0.000000 1.75027152803718e-38
57.112121 8.828482 114.127505 0.989092 0.147302 0.000000 1.75027152803718e-38
56.772724 9.925157 113.638203 0.985162 0.171626 0.000000 1.75027152803718e-38
56.068175 11.550846 114.154209 0.980635 0.195845 0.000000 1.75027152803718e-38
56.069875 12.698734 113.878419 0.975512 0.219946 0.000000 1.75027152803718e-38
56.027729 14.228062 113.685242 0.969797 0.243914 0.000000 1.75027152803718e-38
55.459012 14.893476 113.629183 0.963493 0.267733 0.000000 1.75027152803718e-38
54.386158 16.469295 113.585268 0.956604 0.291390 0.000000 1.75027152803718e-38
53.857221 18.425821 113.661808 0.949135 0.314870 0.000000 1.75027152803718e-38
53.923384 19.152622 113.984094 0.941089 0.338158 0.000000 1.75027152803718e-38
53.939888 20.892756 113.918836 0.932472 0.361242 0.000000 1.75027152803718e-38
52.406192 22.017978 114.008605 0.923289 0.384106 0.000000 1.75027152803718e-38
56.846999 -2.562443 113.982462 0.998786 -0.049260 0.000000 1.75027152803718e-38
57.553222 -1.375178 113.838819 0.999696 -0.024637 0.000000 1.75027152803718e-38
57.469572 0.091475 115.090609 1.000000 0.000000 0.000000 1.75027152803718e-38
57.140254 0.737642 115.677954 0.999696 0.024637 0.000000 1.75027152803718e-38
57.172897 2.776658 115.385592 0.998786 0.049260 0.000000 1.75027152803718e-38
57.381369 3.812756 114.702111 0.997269 0.073853 0.000000 1.75027152803718e-38
57.422489 5.830912 114.896649 0.995147 0.098400 0.000000 1.75027152803718e-38
56.989410 7.069898 115.125812 0.992421 0.122888 0.000000 1.75027152803718e-38
56.936851 8.343939 115.261812 0.989092 0.147302 0.000000 1.75027152803718e-38
56.763092 10.119242 115.282758 0.985162 0.171626 0.000000 1.75027152803718e-38
56.548461 11.112389 115.014334 0.980635 0.195845 0.000000 1.75027152803718e-38
55.775210 12.693418 114.811117 0.975512 0.219946 0.000000 1.75027152803718e-38
55.843345 14.369554 115.051339 0.969797 0.243914 0.000000 1.75027152803718e-38
55.177885 15.526030 115.361231 0.963493 0.267733 0.000000 1.75027152803718e-38
54.720303 16.771261 115.145627 0.956604 0.291390 0.000000 1.75027152803718e-38
54.432202 18.239078 114.560266 0.949135 0.314870 0.000000 1.75027152803718e-38
54.156644 19.960912 115.219670 0.941089 0.338158 0.000000 1.75027152803718e-38
53.570037 20.383851 114.948624 0.932472 0.361242 0.000000 1.75027152803718e-38
53.123774 22.089939 114.681303 0.923289 0.384106 0.000000 1.75027152803718e-38
56.991421 -2.773844 114.919877 0.998786 -0.049260 0.000000 1.75027152803718e-38
57.404326 -1.389314 114.537098 0.999696 -0.024637 0.000000 1.75027152803718e-38
57.379465 0.038118 116.566273 1.000000 0.000000 0.000000 1.75027152803718e-38
57.212092 1.178679 116.031653 0.999696 0.024637 0.000000 1.75027152803718e-38
57.299420 2.492402 116.686724 0.998786 0.049260 0.000000 1.75027152803718e-38
57.540472 5.058425 116.129235 0.997269 0.073853 0.000000 1.75027152803718e-38
57.443890 5.290484 116.729523 0.995147 0.098400 0.000000 1.75027152803718e-38
56.964704 7.036454 116.671291 0.992421 0.122888 0.000000 1.75027152803718e-38
57.202152 8.170648 116.256856 0.989092 0.147302 0.000000 1.75027152803718e-38
57.039458 9.752030 116.380441 0.985162 0.171626 0.000000 1.75027152803718e-38
56.513226 11.676871 116.488995 0.980635 0.195845 0.000000 1.75027152803718e-38
55.984386 12.050113 116.499723 0.975512 0.219946 0.000000 1.75027152803718e-38
55.780725 14.549171 116.461384 0.969797 0.243914 0.000000 1.75027152803718e-38
55.196780 15.011283 116.236912 0.963493 0.267733 0.000000 1.75027152803718e-38
55.079750 16.776015 115.910023 0.956604 0.291390 0.000000 1.75027152803718e-38
53.705637 17.806769 115.556882 0.949135 0.314870 0.000000 1.75027152803718e-38
53.784868 19.504585 116.722490 0.941089 0.338158 0.000000 1.75027152803718e-38
52.849880 20.451037 116.407255 0.932472 0.361242 0.000000 1.75027152803718e-38
52.921297 22.121281 116.401826 0.923289 0.384106 0.000000 1.75027152803718e-38
52.373004 23.734376 117.017353 0.913545 0.406737 0.000000 1.75027152803718e-38
56.762147 -4.003942 115.526690 0.997269 -0.073853 0.000000 1.75027152803718e-38
57.846736 -3.138997 116.196801 0.998786 -0.049260 0.000000 1.75027152803718e-38
57.157084 -1.238136 116.233224 0.999696 -0.024637 0.000000 1.75027152803718e-38
57.898905 -0.197707 117.171526 1.000000 0.000000 0.000000 1.75027152803718e-38
57.325568 1.907644 117.838682 0.999696 0.024637 0.000000 1.75027152803718e-38
57.761504 2.666342 117.129863 0.998786 0.049260 0.000000 1.75027152803718e-38
57.753771 3.832099 117.527602 0.997269 0.073853 0.000000 1.75027152803718e-38
57.005752 5.679088 117.013011 0.995147 0.098400 0.000000 1.75027152803718e-38
57.303779 7.475295 117.839186 0.992421 0.122888 0.000000 1.75027152803718e-38
56.523386 8.597805 117.474387 0.989092 0.147302 0.000000 1.75027152803718e-38
56.631136 10.363589 117.395224 0.985162 0.171626 0.000000 1.75027152803718e-38
56.574871 10.734511 117.547363 0.980635 0.195845 0.000000 1.75027152803718e-38
56.355879 12.598388 117.710216 0.975512 0.219946 0.000000 1.75027152803718e-38
55.504900 13.881332 117.485372 0.969797 0.243914 0.000000 1.75027152803718e-38
55.222955 15.659952 117.853713 0.963493 0.267733 0.000000 1.75027152803718e-38
55.184008 15.990851 117.430346 0.956604 0.291390 0.000000 1.75027152803718e-38
54.812960 18.050972 117.458967 0.949135 0.314870 0.000000 1.75027152803718e-38
54.378386 19.734737 117.705332 0.941089 0.338158 0.000000 1.75027152803718e-38
53.155957 20.430020 117.643757 0.932472 0.361242 0.000000 1.75027152803718e-38
52.450539 22.571976 117.566616 0.923289 0.384106 0.000000 1.75027152803718e-38
52.303279 23.221495 117.887881 0.913545 0.406737 0.000000 1.75027152803718e-38
51.544614 24.090787 117.227797 0.903247 0.429121 0.000000 1.75027152803718e-38
56.936937 -3.952910 117.596353 0.997269 -0.073853 0.000000 1.75027152803718e-38
57.550958 -3.434404 117.526000 0.998786 -0.049260 0.000000 1.75027152803718e-38
57.425140 -1.624162 117.847715 0.999696 -0.024637 0.000000 1.75027152803718e-38
57.005349 0.908103 118.427574 1.000000 0.000000 0.000000 1.75027152803718e-38
57.619658 1.480862 119.113374 0.999696 0.024637 0.000000 1.75027152803718e-38
57.927627 2.701706 118.815636 0.998786 0.049260 0.000000 1.75027152803718e-38
57.210908 3.956168 118.773121 0.997269 0.073853 0.000000 1.75027152803718e-38
57.208889 5.660972 118.649396 0.995147 0.098400 0.000000 1.75027152803718e-38
57.162362 7.300134 118.401102 0.992421 0.122888 0.000000 1.75027152803718e-38
57.053945 8.937718 118.380172 0.989092 0.147302 0.000000 1.75027152803718e-38
56.689373 10.004136 118.997889 0.985162 0.171626 0.000000 1.75027152803718e-38
56.651596 11.621659 118.803670 0.980635 0.195845 0.000000 1.75027152803718e-38
55.788907 12.538660 119.195892 0.975512 0.219946 0.000000 1.75027152803718e-38
55.495608 14.179742 119.016431 0.969797 0.243914 0.000000 1.75027152803718e-38
55.580698 15.672420 118.753364 0.963493 0.267733 0.000000 1.75027152803718e-38
54.970566 17.298547 119.354621 0.956604 0.291390 0.000000 1.75027152803718e-38
55.005452 18.268525 118.590084 0.949135 0.314870 0.000000 1.75027152803718e-38
54.149910 19.403985 119.093114 0.941089 0.338158 0.000000 1.75027152803718e-38
53.730607 20.945107 118.752898 0.932472 0.361242 0.000000 1.75027152803718e-38
52.337130 22.478285 118.743555 0.923289 0.384106 0.000000 1.75027152803718e-38
52.815706 23.284295 119.249550 0.913545 0.406737 0.000000 1.75027152803718e-38
51.772699 24.651429 118.767675 0.903247 0.429121 0.000000 1.75027152803718e-38
50.857027 26.067891 119.011112 0.892401 0.451244 0.000000 1.75027152803718e-38
57.025117 -5.262369 118.914452 0.995147 -0.098400 0.000000 1.75027152803718e-38
57.320528 -4.022778 118.531057 0.997269 -0.073853 0.000000 1.75027152803718e-38
57.085639 -3.209117 118.214456 0.998786 -0.049260 0.000000 1.75027152803718e-38
57.160302 -1.247180 118.982007 0.999696 -0.024637 0.000000 1.75027152803718e-38
57.239565 -0.602653 119.878562 1.000000 0.000000 0.000000 1.75027152803718e-38
57.632449 1.666738 120.073012 0.999696 0.024637 0.000000 1.75027152803718e-38
57.128253 3.050876 120.118372 0.998786 0.049260 0.000000 1.75027152803718e-38
57.564858 3.979275 120.154022 0.997269 0.073853 0.000000 1.75027152803718e-38
57.481470 5.252754 119.815309 0.995147 0.098400 0.000000 1.75027152803718e-38
56.607847 6.822380 119.968921 0.992421 0.122888 0.000000 1.75027152803718e-38
56.438501 8.803513 120.338004 0.989092 0.147302 0.000000 1.75027152803718e-38
56.607713 9.671440 119.986837 0.985162 0.171626 0.000000 1.75027152803718e-38
56.824229 11.448536 119.460214 0.980635 0.195845 0.000000 1.75027152803718e-38
55.415807 12.375127 119.987070 0.975512 0.219946 0.000000 1.75027152803718e-38
55.252599 13.963222 119.497091 0.969797 0.243914 0.000000 1.75027152803718e-38
55.403256 15.459909 120.511258 0.963493 0.267733 0.000000 1.75027152803718e-38
54.965115 16.648357 120.400081 0.956604 0.291390 0.000000 1.75027152803718e-38
54.771211 18.117795 119.908734 0.949135 0.314870 0.000000 1.75027152803718e-38
54.622897 19.224458 119.556811 0.941089 0.338158 0.000000 1.75027152803718e-38
53.559647 20.676502 120.361647 0.932472 0.361242 0.000000 1.75027152803718e-38
53.135826 22.360634 119.231878 0.923289 0.384106 0.000000 1.75027152803718e-38
52.428598 23.830085 119.676331 0.913545 0.406737 0.000000 1.75027152803718e-38
51.852954 24.926156 119.848584 0.903247 0.429121 0.000000 1.75027152803718e-38
51.547766 25.765295 119.988788 0.892401 0.451244 0.000000 1.75027152803718e-38
50.859507 26.875369 119.755770 0.881012 0.473094 0.000000 1.75027152803718e-38
57.015318 -5.735315 119.793196 0.995147 -0.098400 0.000000 1.75027152803718e-38
57.763477 -3.864846 119.662782 0.997269 -0.073853 0.000000 1.75027152803718e-38
57.544480 -2.517830 119.522929 0.998786 -0.049260 0.000000 1.75027152803718e-38
57.898991 -1.436195 119.863962 0.999696 -0.024637 0.000000 1.75027152803718e-38
