# .PCD v0.7 - Point Cloud Data file format
VERSION 0.7
FIELDS x y z normal_x normal_y normal_z rgb
SIZE 4 4 4 4 4 4 4
TYPE F F F F F F F
COUNT 1 1 1 1 1 1 1
WIDTH 267
HEIGHT 1
VIEWPOINT 0 0 0 1 0 0 0
POINTS 267
DATA ascii
7.872540 26.077709 83.586979 0.283194 0.950667 0.126626 1.5658809689597668e-38
7.176669 26.925626 84.338950 0.259686 0.957355 0.126626 1.5658809689597668e-38
7.887476 25.903259 85.832087 0.308490 0.949435 0.058377 1.5658809689597668e-38
7.857042 26.553033 85.485671 0.285005 0.956747 0.058377 1.5658809689597668e-38
7.174779 26.305369 85.195861 0.261346 0.963478 0.058377 1.5658809689597668e-38
7.137973 26.579772 85.877326 0.237529 0.969625 0.058377 1.5658809689597668e-38
8.482987 26.555812 86.392322 0.308898 0.950689 0.027806 1.5658809689597668e-38
8.011402 26.430913 86.121315 0.285381 0.958011 0.027806 1.5658809689597668e-38
7.224764 26.512194 86.450219 0.261692 0.964751 0.027806 1.5658809689597668e-38
7.074862 27.093056 86.369150 0.237843 0.970905 0.027806 1.5658809689597668e-38
6.073165 27.083802 86.641702 0.213850 0.976471 0.027806 1.5658809689597668e-38
9.248259 25.807403 88.390236 0.325909 0.924864 0.195984 1.5658809689597668e-38
8.535497 25.631400 87.910962 0.303024 0.932613 0.195984 1.5658809689597668e-38
7.524523 26.435959 88.059000 0.279955 0.939795 0.195984 1.5658809689597668e-38
6.978867 26.090520 87.874881 0.256716 0.946408 0.195984 1.5658809689597668e-38
6.237750 26.318763 87.683233 0.233321 0.952445 0.195984 1.5658809689597668e-38
6.039632 26.277416 87.608706 0.209784 0.957904 0.195984 1.5658809689597668e-38
5.911807 27.444813 88.197991 0.186120 0.962782 0.195984 1.5658809689597668e-38
9.718913 25.496727 88.720041 0.334077 0.878376 0.341830 1.5658809689597668e-38
8.953263 25.588581 89.049681 0.312334 0.886340 0.341830 1.5658809689597668e-38
9.096065 25.626917 88.537410 0.290402 0.893766 0.341830 1.5658809689597668e-38
7.726554 26.130649 88.810305 0.268294 0.900650 0.341830 1.5658809689597668e-38
7.058999 26.042293 89.054287 0.246023 0.906987 0.341830 1.5658809689597668e-38
6.246234 26.559612 89.722392 0.223602 0.912773 0.341830 1.5658809689597668e-38
5.525648 25.988801 88.940912 0.201046 0.918005 0.341830 1.5658809689597668e-38
5.547897 26.437811 89.182038 0.178368 0.922679 0.341830 1.5658809689597668e-38
4.197271 27.168596 88.983547 0.155581 0.926794 0.341830 1.5658809689597668e-38
10.100669 24.253817 90.122285 0.336724 0.823666 0.456281 1.5658809689597668e-38
9.314278 24.834715 90.691049 0.316328 0.831712 0.456281 1.5658809689597668e-38
8.830068 24.786576 90.280289 0.295741 0.839253 0.456281 1.5658809689597668e-38
8.333432 25.267995 90.234655 0.274974 0.846284 0.456281 1.5658809689597668e-38
7.218620 25.683875 90.230727 0.254041 0.852802 0.456281 1.5658809689597668e-38
7.001195 25.336198 90.098602 0.232953 0.858802 0.456281 1.5658809689597668e-38
6.445473 25.322197 89.960228 0.211723 0.864281 0.456281 1.5658809689597668e-38
6.113729 26.097296 90.434313 0.190365 0.869235 0.456281 1.5658809689597668e-38
4.700782 26.047264 90.287176 0.168892 0.873661 0.456281 1.5658809689597668e-38
4.248215 26.070040 89.880007 0.147316 0.877557 0.456281 1.5658809689597668e-38
3.115802 26.286029 90.357756 0.125650 0.880920 0.456281 1.5658809689597668e-38
10.831474 23.650333 91.740017 0.337705 0.771248 0.539567 1.5658809689597668e-38
10.166425 23.127886 91.756780 0.318600 0.779334 0.539567 1.5658809689597668e-38
9.556530 23.834053 91.859979 0.299303 0.786947 0.539567 1.5658809689597668e-38
8.555266 23.774876 91.783577 0.279824 0.794082 0.539567 1.5658809689597668e-38
7.953103 24.463646 91.740225 0.260175 0.800735 0.539567 1.5658809689597668e-38
7.065525 24.906077 91.272714 0.240368 0.806902 0.539567 1.5658809689597668e-38
7.193999 25.189851 92.007729 0.220415 0.812579 0.539567 1.5658809689597668e-38
6.265166 24.879541 91.330131 0.200328 0.817763 0.539567 1.5658809689597668e-38
5.273759 25.098212 91.340497 0.180119 0.822450 0.539567 1.5658809689597668e-38
4.984087 25.036443 91.359737 0.159802 0.826639 0.539567 1.5658809689597668e-38
4.148093 25.157929 91.443732 0.139387 0.830325 0.539567 1.5658809689597668e-38
3.810651 25.222914 91.185264 0.118888 0.833507 0.539567 1.5658809689597668e-38
10.341760 22.696526 92.677625 0.340014 0.727212 0.596283 1.5658809689597668e-38
9.457145 22.683802 92.947152 0.321994 0.735368 0.596283 1.5658809689597668e-38
9.452417 22.529657 93.093195 0.303779 0.743078 0.596283 1.5658809689597668e-38
8.773249 23.363336 93.096921 0.285379 0.750337 0.596283 1.5658809689597668e-38
8.234264 22.899812 93.310162 0.266806 0.757140 0.596283 1.5658809689597668e-38
7.028285 23.569426 93.172207 0.248071 0.763483 0.596283 1.5658809689597668e-38
6.895921 23.660045 92.718488 0.229185 0.769364 0.596283 1.5658809689597668e-38
6.461111 23.761214 92.592746 0.210160 0.774777 0.596283 1.5658809689597668e-38
6.243975 24.013166 92.934249 0.191008 0.779719 0.596283 1.5658809689597668e-38
5.050360 24.726413 93.064796 0.171740 0.784188 0.596283 1.5658809689597668e-38
4.696746 24.627277 93.240069 0.152367 0.788182 0.596283 1.5658809689597668e-38
3.819635 24.227065 92.895687 0.132902 0.791696 0.596283 1.5658809689597668e-38
3.126397 24.172231 92.302539 0.113357 0.794730 0.596283 1.5658809689597668e-38
9.621754 21.096158 94.488830 0.328422 0.702419 0.631464 1.5658809689597668e-38
8.752791 21.547588 94.037216 0.311016 0.710297 0.631464 1.5658809689597668e-38
8.653053 22.205359 93.676019 0.293422 0.717744 0.631464 1.5658809689597668e-38
8.890641 22.573607 94.103145 0.275649 0.724755 0.631464 1.5658809689597668e-38
7.843688 22.250942 93.980207 0.257710 0.731327 0.631464 1.5658809689597668e-38
7.022370 23.325098 94.116400 0.239613 0.737454 0.631464 1.5658809689597668e-38
6.568148 23.394980 94.006770 0.221372 0.743134 0.631464 1.5658809689597668e-38
6.681917 23.497062 94.151562 0.202995 0.748362 0.631464 1.5658809689597668e-38
5.310774 23.059645 95.097349 0.184496 0.753136 0.631464 1.5658809689597668e-38
4.952092 23.289764 93.879053 0.165885 0.757453 0.631464 1.5658809689597668e-38
4.258305 23.697142 93.618947 0.147173 0.761310 0.631464 1.5658809689597668e-38
3.710937 23.683290 93.945437 0.128371 0.764705 0.631464 1.5658809689597668e-38
3.426687 23.671789 93.668954 0.109492 0.767636 0.631464 1.5658809689597668e-38
3.232668 24.100030 93.733938 0.090546 0.770100 0.631464 1.5658809689597668e-38
10.262310 20.603850 95.285420 0.339173 0.681151 0.648841 1.5658809689597668e-38
9.167220 20.855333 95.333380 0.322288 0.689301 0.648841 1.5658809689597668e-38
9.065625 20.199540 95.444355 0.305208 0.697032 0.648841 1.5658809689597668e-38
8.402233 20.846175 94.891171 0.287942 0.704340 0.648841 1.5658809689597668e-38
7.548078 21.529654 95.964538 0.270502 0.711221 0.648841 1.5658809689597668e-38
7.432324 21.831395 95.229648 0.252897 0.717669 0.648841 1.5658809689597668e-38
7.154905 21.745956 95.492426 0.235139 0.723682 0.648841 1.5658809689597668e-38
6.171331 21.963441 95.598177 0.217237 0.729256 0.648841 1.5658809689597668e-38
6.201757 22.185794 95.286986 0.199205 0.734386 0.648841 1.5658809689597668e-38
5.337138 22.122979 94.791740 0.181051 0.739071 0.648841 1.5658809689597668e-38
5.047040 22.765661 95.345944 0.162787 0.743308 0.648841 1.5658809689597668e-38
4.348787 22.649777 94.622194 0.144424 0.747093 0.648841 1.5658809689597668e-38
3.636722 22.548098 94.745701 0.125974 0.750424 0.648841 1.5658809689597668e-38
3.279800 22.101524 95.465069 0.107447 0.753300 0.648841 1.5658809689597668e-38
2.740224 22.672235 95.486163 0.088855 0.755719 0.648841 1.5658809689597668e-38
9.839935 19.049379 96.946341 0.355235 0.671422 0.650385 1.5658809689597668e-38
9.213043 19.628133 96.062183 0.338585 0.679971 0.650385 1.5658809689597668e-38
9.367263 20.320752 96.191026 0.321730 0.688106 0.650385 1.5658809689597668e-38
8.123196 20.099760 96.306572 0.304679 0.695824 0.650385 1.5658809689597668e-38
8.203738 20.311805 96.663727 0.287443 0.703119 0.650385 1.5658809689597668e-38
7.930552 20.391501 96.625563 0.270033 0.709987 0.650385 1.5658809689597668e-38
7.197375 20.486009 96.489961 0.252458 0.716425 0.650385 1.5658809689597668e-38
6.917589 20.563060 96.559292 0.234731 0.722427 0.650385 1.5658809689597668e-38
6.093256 20.696246 96.810270 0.216861 0.727991 0.650385 1.5658809689597668e-38
5.825065 21.178302 96.211237 0.198859 0.733113 0.650385 1.5658809689597668e-38
5.119045 21.378799 96.606508 0.180737 0.737790 0.650385 1.5658809689597668e-38
5.438552 21.386052 96.295354 0.162505 0.742019 0.650385 1.5658809689597668e-38
4.011933 21.171694 96.300936 0.144174 0.745797 0.650385 1.5658809689597668e-38
3.643193 21.385074 96.895670 0.125756 0.749123 0.650385 1.5658809689597668e-38
3.346180 21.865912 96.419280 0.107261 0.751994 0.650385 1.5658809689597668e-38
2.822754 21.983001 96.973601 0.088701 0.754408 0.650385 1.5658809689597668e-38
10.293296 18.623886 97.588616 0.377471 0.672807 0.636275 1.5658809689597668e-38
8.908271 18.042030 97.735835 0.360780 0.681903 0.636275 1.5658809689597668e-38
9.758078 18.486861 98.196371 0.343870 0.690585 0.636275 1.5658809689597668e-38
8.104816 18.674816 98.043327 0.326752 0.698847 0.636275 1.5658809689597668e-38
8.618865 18.450772 97.479946 0.309435 0.706686 0.636275 1.5658809689597668e-38
7.822632 19.037400 98.082745 0.291930 0.714095 0.636275 1.5658809689597668e-38
7.391684 18.991235 97.870166 0.274248 0.721070 0.636275 1.5658809689597668e-38
7.061111 19.255891 97.464660 0.256399 0.727608 0.636275 1.5658809689597668e-38
6.208497 20.174862 97.705475 0.238395 0.733704 0.636275 1.5658809689597668e-38
5.270291 19.556084 97.946720 0.220246 0.739355 0.636275 1.5658809689597668e-38
5.318124 19.689020 97.618426 0.201963 0.744557 0.636275 1.5658809689597668e-38
5.239170 20.838029 97.714569 0.183558 0.749307 0.636275 1.5658809689597668e-38
4.592842 20.270835 97.797643 0.165041 0.753602 0.636275 1.5658809689597668e-38
3.666951 20.837773 97.594440 0.146424 0.757439 0.636275 1.5658809689597668e-38
3.110710 20.264514 97.931450 0.127719 0.760817 0.636275 1.5658809689597668e-38
2.724883 21.028805 97.923826 0.108935 0.763733 0.636275 1.5658809689597668e-38
2.685228 20.514241 97.545525 0.090086 0.766185 0.636275 1.5658809689597668e-38
9.820578 16.965083 98.700045 0.406617 0.684660 0.604899 1.5658809689597668e-38
9.717540 17.231299 99.420516 0.389625 0.694471 0.604899 1.5658809689597668e-38
9.029388 17.448611 98.856987 0.372397 0.703859 0.604899 1.5658809689597668e-38
9.232024 17.575306 98.701722 0.354942 0.712820 0.604899 1.5658809689597668e-38
8.152893 17.697305 98.794702 0.337273 0.721349 0.604899 1.5658809689597668e-38
7.684531 18.140854 98.579487 0.319398 0.729439 0.604899 1.5658809689597668e-38
7.664999 18.338712 99.455604 0.301330 0.737087 0.604899 1.5658809689597668e-38
7.178293 18.615147 99.571940 0.283078 0.744287 0.604899 1.5658809689597668e-38
6.710501 18.608736 98.708308 0.264655 0.751036 0.604899 1.5658809689597668e-38
6.553981 18.527104 98.627208 0.246071 0.757328 0.604899 1.5658809689597668e-38
5.311820 18.748897 98.982100 0.227338 0.763161 0.604899 1.5658809689597668e-38
5.104512 19.265747 98.642062 0.208466 0.768530 0.604899 1.5658809689597668e-38
4.449256 19.276096 98.679819 0.189468 0.773433 0.604899 1.5658809689597668e-38
3.826932 18.881304 98.954516 0.170355 0.777866 0.604899 1.5658809689597668e-38
3.737154 19.403954 99.334158 0.151139 0.781827 0.604899 1.5658809689597668e-38
3.368401 19.525526 99.373477 0.131831 0.785314 0.604899 1.5658809689597668e-38
3.088192 19.381276 99.219437 0.112443 0.788323 0.604899 1.5658809689597668e-38
2.843825 20.196177 99.262092 0.092986 0.790854 0.604899 1.5658809689597668e-38
1.943182 19.801242 99.406231 0.073473 0.792905 0.604899 1.5658809689597668e-38
9.702540 16.218230 100.776462 0.443017 0.705746 0.552864 1.5658809689597668e-38
9.734619 16.013133 99.872252 0.425494 0.716447 0.552864 1.5658809689597668e-38
9.142562 16.876400 100.360453 0.407714 0.726712 0.552864 1.5658809689597668e-38
8.474787 16.828147 100.636600 0.389686 0.736537 0.552864 1.5658809689597668e-38
8.785536 17.331474 100.446267 0.371421 0.745914 0.552864 1.5658809689597668e-38
7.626895 16.892682 100.728050 0.352931 0.754838 0.552864 1.5658809689597668e-38
7.484938 16.758118 100.388097 0.334226 0.763305 0.552864 1.5658809689597668e-38
7.476390 17.484621 100.371114 0.315319 0.771307 0.552864 1.5658809689597668e-38
6.475770 17.540484 99.663518 0.296220 0.778842 0.552864 1.5658809689597668e-38
5.964536 18.271090 99.211749 0.276942 0.785904 0.552864 1.5658809689597668e-38
5.728953 17.829421 100.384530 0.257495 0.792488 0.552864 1.5658809689597668e-38
4.760163 17.899061 100.029655 0.237892 0.798592 0.552864 1.5658809689597668e-38
5.073473 18.252744 99.709377 0.218145 0.804210 0.552864 1.5658809689597668e-38
4.398992 18.138871 100.345237 0.198265 0.809341 0.552864 1.5658809689597668e-38
3.972770 19.001981 100.007005 0.178264 0.813980 0.552864 1.5658809689597668e-38
3.419789 18.411875 100.148283 0.158156 0.818125 0.552864 1.5658809689597668e-38
3.384042 18.521651 100.087547 0.137951 0.821773 0.552864 1.5658809689597668e-38
2.778071 18.441896 100.395399 0.117663 0.824922 0.552864 1.5658809689597668e-38
2.095414 18.515082 99.654441 0.097303 0.827571 0.552864 1.5658809689597668e-38
1.414664 18.772654 100.178470 0.076885 0.829717 0.552864 1.5658809689597668e-38
9.560985 15.072861 101.473542 0.467762 0.745167 0.475315 1.5658809689597668e-38
9.301538 15.378110 101.566090 0.449261 0.756465 0.475315 1.5658809689597668e-38
9.280922 15.901988 101.610206 0.430488 0.767304 0.475315 1.5658809689597668e-38
8.830727 16.086632 101.748972 0.411452 0.777678 0.475315 1.5658809689597668e-38
7.445184 16.088956 101.150571 0.392168 0.787579 0.475315 1.5658809689597668e-38
8.155952 16.685374 101.118294 0.372645 0.797002 0.475315 1.5658809689597668e-38
7.032136 16.268884 101.579040 0.352895 0.805941 0.475315 1.5658809689597668e-38
6.970719 16.727885 101.217769 0.332932 0.814391 0.475315 1.5658809689597668e-38
6.486718 17.791946 101.365587 0.312766 0.822346 0.475315 1.5658809689597668e-38
6.418789 17.082919 101.771193 0.292411 0.829802 0.475315 1.5658809689597668e-38
5.832230 17.306048 101.671874 0.271878 0.836754 0.475315 1.5658809689597668e-38
5.583220 17.469096 101.425716 0.251180 0.843199 0.475315 1.5658809689597668e-38
4.992585 18.060526 101.062850 0.230329 0.849131 0.475315 1.5658809689597668e-38
3.979348 18.107500 101.317546 0.209339 0.854548 0.475315 1.5658809689597668e-38
4.296822 17.582123 101.339386 0.188222 0.859446 0.475315 1.5658809689597668e-38
3.796989 18.094746 101.139684 0.166990 0.863823 0.475315 1.5658809689597668e-38
3.223483 17.753697 101.610686 0.145657 0.867675 0.475315 1.5658809689597668e-38
2.620456 17.971550 101.294976 0.124235 0.871000 0.475315 1.5658809689597668e-38
1.657128 17.891484 101.688564 0.102738 0.873797 0.475315 1.5658809689597668e-38
1.850136 17.877822 101.812313 0.081179 0.876063 0.475315 1.5658809689597668e-38
8.723388 15.570738 102.725221 0.455087 0.811150 0.367330 1.5658809689597668e-38
7.716033 15.712959 103.227866 0.434964 0.822116 0.367330 1.5658809689597668e-38
7.150698 16.025699 103.230041 0.414577 0.832583 0.367330 1.5658809689597668e-38
7.732332 15.908064 102.949475 0.393938 0.842544 0.367330 1.5658809689597668e-38
7.028490 16.273581 102.705410 0.373061 0.851994 0.367330 1.5658809689597668e-38
6.688789 16.051324 102.541416 0.351957 0.860927 0.367330 1.5658809689597668e-38
6.739698 16.252972 102.093680 0.330639 0.869337 0.367330 1.5658809689597668e-38
6.899992 16.457000 102.599856 0.309120 0.877219 0.367330 1.5658809689597668e-38
5.314293 16.731726 102.452673 0.287414 0.884569 0.367330 1.5658809689597668e-38
5.467988 16.795897 102.366748 0.265533 0.891381 0.367330 1.5658809689597668e-38
3.743725 17.302826 102.548204 0.243491 0.897653 0.367330 1.5658809689597668e-38
4.297454 16.803949 102.708552 0.221301 0.903379 0.367330 1.5658809689597668e-38
3.754418 17.456830 102.730076 0.198977 0.908557 0.367330 1.5658809689597668e-38
3.001300 17.988780 102.810782 0.176532 0.913184 0.367330 1.5658809689597668e-38
2.628256 17.401789 102.797737 0.153980 0.917256 0.367330 1.5658809689597668e-38
2.628728 17.520514 102.754017 0.131335 0.920771 0.367330 1.5658809689597668e-38
2.329077 17.685789 102.904350 0.108609 0.923727 0.367330 1.5658809689597668e-38
1.089826 16.992436 102.442455 0.085818 0.926123 0.367330 1.5658809689597668e-38
8.466619 15.372952 104.248014 0.455406 0.860754 0.227393 1.5658809689597668e-38
7.550441 15.263717 103.499378 0.434061 0.871713 0.227393 1.5658809689597668e-38
6.942785 15.608009 103.937182 0.412453 0.882142 0.227393 1.5658809689597668e-38
7.018631 15.546949 103.968587 0.390594 0.892036 0.227393 1.5658809689597668e-38
6.911774 16.048972 103.929551 0.368498 0.901389 0.227393 1.5658809689597668e-38
6.199450 16.447526 103.969749 0.346178 0.910194 0.227393 1.5658809689597668e-38
5.559937 16.067263 103.754288 0.323648 0.918447 0.227393 1.5658809689597668e-38
5.143620 16.592881 104.427697 0.300922 0.926142 0.227393 1.5658809689597668e-38
4.787219 16.211290 103.536432 0.278013 0.933275 0.227393 1.5658809689597668e-38
5.020161 16.887843 103.713222 0.254935 0.939841 0.227393 1.5658809689597668e-38
4.134022 17.124682 103.898419 0.231702 0.945837 0.227393 1.5658809689597668e-38
3.937945 16.752697 103.828892 0.208329 0.951258 0.227393 1.5658809689597668e-38
2.469494 16.763704 103.756688 0.184829 0.956102 0.227393 1.5658809689597668e-38
3.003268 17.035295 103.976858 0.161217 0.960365 0.227393 1.5658809689597668e-38
2.714174 16.324140 103.902674 0.137507 0.964046 0.227393 1.5658809689597668e-38
1.657285 16.704563 103.830352 0.113714 0.967141 0.227393 1.5658809689597668e-38
7.109273 15.123096 105.035800 0.422723 0.904107 0.062422 1.5658809689597668e-38
6.909093 15.526695 105.397413 0.400319 0.914247 0.062422 1.5658809689597668e-38
6.517017 15.805684 104.894282 0.377673 0.923833 0.062422 1.5658809689597668e-38
5.680349 15.564690 105.480996 0.354798 0.932857 0.062422 1.5658809689597668e-38
5.136519 16.103734 105.211771 0.331707 0.941315 0.062422 1.5658809689597668e-38
5.052318 16.170441 105.206009 0.308414 0.949202 0.062422 1.5658809689597668e-38
4.510791 16.069003 105.114412 0.284935 0.956512 0.062422 1.5658809689597668e-38
4.423138 15.993981 105.155628 0.261282 0.963242 0.062422 1.5658809689597668e-38
4.060562 16.800050 105.123075 0.237471 0.969387 0.062422 1.5658809689597668e-38
3.493755 16.825149 105.463655 0.213516 0.974943 0.062422 1.5658809689597668e-38
2.788655 16.521917 104.494497 0.189431 0.979908 0.062422 1.5658809689597668e-38
2.502177 17.198225 104.805825 0.165231 0.984278 0.062422 1.5658809689597668e-38
2.515214 16.939376 104.952279 0.140931 0.988050 0.062422 1.5658809689597668e-38
6.631230 15.856681 106.707586 0.399978 0.913468 -0.074785 1.5658809689597668e-38
6.847986 15.742235 106.242319 0.377351 0.923046 -0.074785 1.5658809689597668e-38
6.265065 15.588342 106.891634 0.354495 0.932062 -0.074785 1.5658809689597668e-38
5.509047 15.978690 106.617140 0.331424 0.940513 -0.074785 1.5658809689597668e-38
5.044596 15.851476 106.737582 0.308152 0.948393 -0.074785 1.5658809689597668e-38
4.548933 16.398954 106.398208 0.284692 0.955697 -0.074785 1.5658809689597668e-38
3.888455 16.121813 106.498145 0.261060 0.962421 -0.074785 1.5658809689597668e-38
4.421877 16.312041 106.125962 0.237269 0.968561 -0.074785 1.5658809689597668e-38
3.832638 16.876047 106.671959 0.213334 0.974113 -0.074785 1.5658809689597668e-38
3.298504 16.561062 106.626861 0.189270 0.979073 -0.074785 1.5658809689597668e-38
2.794172 16.996066 106.236117 0.165090 0.983439 -0.074785 1.5658809689597668e-38
6.662386 15.896766 107.653058 0.371971 0.909884 -0.183708 1.5658809689597668e-38
6.069347 16.252847 107.764136 0.349441 0.918772 -0.183708 1.5658809689597668e-38
6.170517 16.024352 107.435043 0.326698 0.927103 -0.183708 1.5658809689597668e-38
5.285042 16.290603 107.887725 0.303758 0.934870 -0.183708 1.5658809689597668e-38
4.591916 16.858220 107.543528 0.280633 0.942070 -0.183708 1.5658809689597668e-38
4.855332 17.352508 107.936813 0.257337 0.948699 -0.183708 1.5658809689597668e-38
4.278218 17.033686 107.540580 0.233886 0.954751 -0.183708 1.5658809689597668e-38
3.756996 16.593033 107.446266 0.210292 0.960223 -0.183708 1.5658809689597668e-38
3.355721 16.908937 107.758287 0.186571 0.965113 -0.183708 1.5658809689597668e-38
2.886591 16.870786 107.905984 0.162736 0.969416 -0.183708 1.5658809689597668e-38
5.490060 16.460583 109.113239 0.319606 0.906977 -0.274309 1.5658809689597668e-38
5.070106 16.625746 109.065902 0.297164 0.914576 -0.274309 1.5658809689597668e-38
4.248225 17.315100 108.727383 0.274541 0.921619 -0.274309 1.5658809689597668e-38
4.297368 16.901177 108.663503 0.251751 0.928103 -0.274309 1.5658809689597668e-38
4.139475 16.759669 109.204043 0.228808 0.934024 -0.274309 1.5658809689597668e-38
4.546105 17.298624 108.925850 0.205727 0.939378 -0.274309 1.5658809689597668e-38
3.153351 17.487087 108.635515 0.182521 0.944161 -0.274309 1.5658809689597668e-38
5.561208 16.789887 110.301378 0.290475 0.893991 -0.341182 1.5658809689597668e-38
4.771610 17.210294 109.879950 0.268361 0.900876 -0.341182 1.5658809689597668e-38
4.611101 16.611532 110.077870 0.246085 0.907214 -0.341182 1.5658809689597668e-38
4.292681 17.216402 110.077798 0.223658 0.913002 -0.341182 1.5658809689597668e-38
3.502076 17.709663 110.110564 0.201097 0.918235 -0.341182 1.5658809689597668e-38
5.046614 17.330282 111.015959 0.263743 0.885374 -0.382823 1.5658809689597668e-38
4.532357 18.020508 111.650933 0.241850 0.891603 -0.382823 1.5658809689597668e-38
3.960928 18.055683 110.973913 0.219810 0.897291 -0.382823 1.5658809689597668e-38
