# .PCD v0.7 - Point Cloud Data file format
VERSION 0.7
FIELDS x y z normal_x normal_y normal_z rgb
SIZE 4 4 4 4 4 4 4
TYPE F F F F F F F
COUNT 1 1 1 1 1 1 1
WIDTH 171
HEIGHT 1
VIEWPOINT 0 0 0 1 0 0 0
POINTS 171
DATA ascii
-42.606982 9.118892 20.721761 -0.978148 0.207912 0.000000 1.5658809689597668e-38
-42.411102 10.035627 22.067002 -0.972728 0.231948 0.000000 1.5658809689597668e-38
-42.619874 9.269910 22.115860 -0.978148 0.207912 0.000000 1.5658809689597668e-38
-43.171969 7.982089 22.102440 -0.982973 0.183750 0.000000 1.5658809689597668e-38
-42.721478 7.070221 22.272421 -0.987202 0.159476 0.000000 1.5658809689597668e-38
-42.598744 11.296187 23.223482 -0.966718 0.255843 0.000000 1.5658809689597668e-38
-42.567864 10.942287 23.543304 -0.972728 0.231948 0.000000 1.5658809689597668e-38
-43.054936 9.052638 23.064446 -0.978148 0.207912 0.000000 1.5658809689597668e-38
-42.694015 8.156017 23.190485 -0.982973 0.183750 0.000000 1.5658809689597668e-38
-43.619139 7.001708 23.784753 -0.987202 0.159476 0.000000 1.5658809689597668e-38
-43.818784 6.261870 23.477665 -0.990831 0.135105 0.000000 1.5658809689597668e-38
-43.885410 4.714665 24.029721 -0.993859 0.110653 0.000000 1.5658809689597668e-38
-42.336398 11.979687 24.480194 -0.960122 0.279583 0.000000 1.5658809689597668e-38
-42.964924 11.535107 24.626793 -0.966718 0.255843 0.000000 1.5658809689597668e-38
-42.532950 10.250919 24.654423 -0.972728 0.231948 0.000000 1.5658809689597668e-38
-43.408135 9.242592 24.676678 -0.978148 0.207912 0.000000 1.5658809689597668e-38
-42.999014 7.873880 24.927100 -0.982973 0.183750 0.000000 1.5658809689597668e-38
-42.963560 7.101760 24.977855 -0.987202 0.159476 0.000000 1.5658809689597668e-38
-43.444011 6.516650 24.853736 -0.990831 0.135105 0.000000 1.5658809689597668e-38
-43.538876 4.859957 24.509951 -0.993859 0.110653 0.000000 1.5658809689597668e-38
-44.218041 4.171578 24.439760 -0.996284 0.086133 0.000000 1.5658809689597668e-38
-43.711930 2.834666 25.017604 -0.998103 0.061561 0.000000 1.5658809689597668e-38
-42.479173 12.348349 26.189161 -0.960122 0.279583 0.000000 1.5658809689597668e-38
-42.850588 11.212891 25.776970 -0.966718 0.255843 0.000000 1.5658809689597668e-38
-43.098545 10.259556 25.732868 -0.972728 0.231948 0.000000 1.5658809689597668e-38
-43.117869 9.268597 25.925607 -0.978148 0.207912 0.000000 1.5658809689597668e-38
-43.665038 8.147495 25.827910 -0.982973 0.183750 0.000000 1.5658809689597668e-38
-43.589600 7.373302 25.603499 -0.987202 0.159476 0.000000 1.5658809689597668e-38
-43.111839 5.945687 26.102933 -0.990831 0.135105 0.000000 1.5658809689597668e-38
-44.123448 5.230066 25.941694 -0.993859 0.110653 0.000000 1.5658809689597668e-38
-44.122947 3.631739 25.898834 -0.996284 0.086133 0.000000 1.5658809689597668e-38
-43.959580 2.770918 25.967424 -0.998103 0.061561 0.000000 1.5658809689597668e-38
-44.352120 1.401354 25.841119 -0.999317 0.036951 0.000000 1.5658809689597668e-38
-44.027424 0.742823 26.218495 -0.999924 0.012320 0.000000 1.5658809689597668e-38
-42.566598 12.242764 26.932272 -0.960122 0.279583 0.000000 1.5658809689597668e-38
-42.944617 11.093476 27.197646 -0.966718 0.255843 0.000000 1.5658809689597668e-38
-43.572304 10.491394 27.046386 -0.972728 0.231948 0.000000 1.5658809689597668e-38
-43.243177 9.481780 27.314856 -0.978148 0.207912 0.000000 1.5658809689597668e-38
-43.330204 7.524642 27.068638 -0.982973 0.183750 0.000000 1.5658809689597668e-38
-43.426457 7.221478 27.771034 -0.987202 0.159476 0.000000 1.5658809689597668e-38
-43.406938 6.078371 27.140901 -0.990831 0.135105 0.000000 1.5658809689597668e-38
-44.339994 4.761899 27.094021 -0.993859 0.110653 0.000000 1.5658809689597668e-38
-44.337903 3.542311 27.336968 -0.996284 0.086133 0.000000 1.5658809689597668e-38
-43.731593 3.008643 27.119769 -0.998103 0.061561 0.000000 1.5658809689597668e-38
-43.990174 1.741858 27.204284 -0.999317 0.036951 0.000000 1.5658809689597668e-38
-44.352227 0.486083 27.411815 -0.999924 0.012320 0.000000 1.5658809689597668e-38
-44.279389 -0.764591 26.983439 -0.999924 -0.012320 0.000000 1.5658809689597668e-38
-42.527270 12.936173 28.128883 -0.960122 0.279583 0.000000 1.5658809689597668e-38
-43.052737 11.125671 27.944784 -0.966718 0.255843 0.000000 1.5658809689597668e-38
-43.471553 10.880280 28.401568 -0.972728 0.231948 0.000000 1.5658809689597668e-38
-42.919213 9.874991 29.352147 -0.978148 0.207912 0.000000 1.5658809689597668e-38
-43.157289 8.881794 28.551159 -0.982973 0.183750 0.000000 1.5658809689597668e-38
-43.848559 7.182956 28.453627 -0.987202 0.159476 0.000000 1.5658809689597668e-38
-44.033619 6.236001 28.313863 -0.990831 0.135105 0.000000 1.5658809689597668e-38
-44.626504 5.031625 28.245767 -0.993859 0.110653 0.000000 1.5658809689597668e-38
-44.497857 3.788919 28.341965 -0.996284 0.086133 0.000000 1.5658809689597668e-38
-44.069013 2.688601 28.801743 -0.998103 0.061561 0.000000 1.5658809689597668e-38
-44.394216 1.617281 28.501074 -0.999317 0.036951 0.000000 1.5658809689597668e-38
-44.870515 0.649480 28.708365 -0.999924 0.012320 0.000000 1.5658809689597668e-38
-44.185771 -0.953710 27.997914 -0.999924 -0.012320 0.000000 1.5658809689597668e-38
-44.617066 -1.228441 28.519901 -0.999317 -0.036951 0.000000 1.5658809689597668e-38
-44.634435 -3.174505 28.248411 -0.998103 -0.061561 0.000000 1.5658809689597668e-38
-42.743709 11.838653 29.747165 -0.966718 0.255843 0.000000 1.5658809689597668e-38
-43.418963 9.927461 30.206531 -0.972728 0.231948 0.000000 1.5658809689597668e-38
-43.367235 9.509660 29.008302 -0.978148 0.207912 0.000000 1.5658809689597668e-38
-43.881338 8.167000 29.895566 -0.982973 0.183750 0.000000 1.5658809689597668e-38
-44.217754 7.051708 29.876546 -0.987202 0.159476 0.000000 1.5658809689597668e-38
-44.476586 5.860768 29.748720 -0.990831 0.135105 0.000000 1.5658809689597668e-38
-43.978174 5.183618 30.013343 -0.993859 0.110653 0.000000 1.5658809689597668e-38
-44.468989 4.294698 29.168367 -0.996284 0.086133 0.000000 1.5658809689597668e-38
-43.962568 3.394464 29.827707 -0.998103 0.061561 0.000000 1.5658809689597668e-38
-44.373758 1.638630 29.627851 -0.999317 0.036951 0.000000 1.5658809689597668e-38
-44.833806 0.535418 29.857502 -0.999924 0.012320 0.000000 1.5658809689597668e-38
-44.524579 0.045860 29.720804 -0.999924 -0.012320 0.000000 1.5658809689597668e-38
-45.070086 -1.156737 29.324435 -0.999317 -0.036951 0.000000 1.5658809689597668e-38
-44.737057 -2.667414 29.815874 -0.998103 -0.061561 0.000000 1.5658809689597668e-38
-44.921615 -4.070116 29.246487 -0.996284 -0.086133 0.000000 1.5658809689597668e-38
-44.193206 -4.586064 29.324170 -0.993859 -0.110653 0.000000 1.5658809689597668e-38
-43.333536 10.139558 30.554682 -0.972728 0.231948 0.000000 1.5658809689597668e-38
-43.655672 9.561810 30.691704 -0.978148 0.207912 0.000000 1.5658809689597668e-38
-43.790013 8.853421 31.331834 -0.982973 0.183750 0.000000 1.5658809689597668e-38
-43.896050 7.243071 30.794720 -0.987202 0.159476 0.000000 1.5658809689597668e-38
-44.432829 6.188595 30.550581 -0.990831 0.135105 0.000000 1.5658809689597668e-38
-44.782609 4.531911 30.998391 -0.993859 0.110653 0.000000 1.5658809689597668e-38
-44.635563 3.665275 31.173985 -0.996284 0.086133 0.000000 1.5658809689597668e-38
-45.055430 2.552645 31.161993 -0.998103 0.061561 0.000000 1.5658809689597668e-38
-44.517813 1.417710 30.997448 -0.999317 0.036951 0.000000 1.5658809689597668e-38
-45.057312 0.493052 30.970986 -0.999924 0.012320 0.000000 1.5658809689597668e-38
-44.655560 -0.456987 31.009784 -0.999924 -0.012320 0.000000 1.5658809689597668e-38
-45.120007 -1.539945 31.093155 -0.999317 -0.036951 0.000000 1.5658809689597668e-38
-44.535369 -2.975451 31.202511 -0.998103 -0.061561 0.000000 1.5658809689597668e-38
-45.055649 -3.990333 30.845179 -0.996284 -0.086133 0.000000 1.5658809689597668e-38
-44.930517 -5.047449 30.994279 -0.993859 -0.110653 0.000000 1.5658809689597668e-38
-43.871578 9.404429 32.022573 -0.978148 0.207912 0.000000 1.5658809689597668e-38
-44.677025 8.186378 32.198650 -0.982973 0.183750 0.000000 1.5658809689597668e-38
-44.462494 7.356625 31.728696 -0.987202 0.159476 0.000000 1.5658809689597668e-38
-44.647583 6.678928 32.463628 -0.990831 0.135105 0.000000 1.5658809689597668e-38
-44.544405 5.097199 32.055319 -0.993859 0.110653 0.000000 1.5658809689597668e-38
-45.364600 4.013606 31.430420 -0.996284 0.086133 0.000000 1.5658809689597668e-38
-45.017942 2.769490 32.030791 -0.998103 0.061561 0.000000 1.5658809689597668e-38
-44.323485 2.210329 32.474792 -0.999317 0.036951 0.000000 1.5658809689597668e-38
-45.279818 1.130879 32.350639 -0.999924 0.012320 0.000000 1.5658809689597668e-38
-45.284814 -0.544639 32.452521 -0.999924 -0.012320 0.000000 1.5658809689597668e-38
-45.154563 -1.620866 32.259891 -0.999317 -0.036951 0.000000 1.5658809689597668e-38
-45.250531 -2.851616 31.857310 -0.998103 -0.061561 0.000000 1.5658809689597668e-38
-44.577779 -4.148884 32.252490 -0.996284 -0.086133 0.000000 1.5658809689597668e-38
-44.463433 7.924468 33.982546 -0.982973 0.183750 0.000000 1.5658809689597668e-38
-45.094303 7.180618 32.835279 -0.987202 0.159476 0.000000 1.5658809689597668e-38
-44.693910 5.912998 33.647844 -0.990831 0.135105 0.000000 1.5658809689597668e-38
-44.917152 5.405515 33.273148 -0.993859 0.110653 0.000000 1.5658809689597668e-38
-45.502862 3.963554 33.326295 -0.996284 0.086133 0.000000 1.5658809689597668e-38
-45.649507 2.465289 33.180922 -0.998103 0.061561 0.000000 1.5658809689597668e-38
-44.691962 1.882051 33.297741 -0.999317 0.036951 0.000000 1.5658809689597668e-38
-45.044748 -0.055119 33.232590 -0.999924 0.012320 0.000000 1.5658809689597668e-38
-45.065710 -0.507106 33.240255 -0.999924 -0.012320 0.000000 1.5658809689597668e-38
-45.170069 -1.568385 33.399255 -0.999317 -0.036951 0.000000 1.5658809689597668e-38
-44.845428 -2.686292 33.555434 -0.998103 -0.061561 0.000000 1.5658809689597668e-38
-44.507432 -3.644047 33.924349 -0.996284 -0.086133 0.000000 1.5658809689597668e-38
-44.541684 7.318057 34.757086 -0.987202 0.159476 0.000000 1.5658809689597668e-38
-44.779044 6.102916 34.333082 -0.990831 0.135105 0.000000 1.5658809689597668e-38
-44.558073 5.299489 35.123023 -0.993859 0.110653 0.000000 1.5658809689597668e-38
-44.899284 3.770454 33.934782 -0.996284 0.086133 0.000000 1.5658809689597668e-38
-45.660948 2.984485 34.608651 -0.998103 0.061561 0.000000 1.5658809689597668e-38
-45.473251 0.928130 34.635237 -0.999317 0.036951 0.000000 1.5658809689597668e-38
-45.699376 0.341730 34.894206 -0.999924 0.012320 0.000000 1.5658809689597668e-38
-45.683585 -0.839152 34.694849 -0.999924 -0.012320 0.000000 1.5658809689597668e-38
-45.085587 -1.797607 35.079340 -0.999317 -0.036951 0.000000 1.5658809689597668e-38
-45.675820 -3.229745 34.177389 -0.998103 -0.061561 0.000000 1.5658809689597668e-38
-45.705300 -3.807601 34.345838 -0.996284 -0.086133 0.000000 1.5658809689597668e-38
-45.118843 6.278328 36.237500 -0.990831 0.135105 0.000000 1.5658809689597668e-38
-45.219837 4.900321 35.572977 -0.993859 0.110653 0.000000 1.5658809689597668e-38
-45.314275 3.890038 35.850993 -0.996284 0.086133 0.000000 1.5658809689597668e-38
-45.406788 2.961269 35.957209 -0.998103 0.061561 0.000000 1.5658809689597668e-38
-45.592015 1.443539 35.692453 -0.999317 0.036951 0.000000 1.5658809689597668e-38
-45.314046 0.434355 35.472476 -0.999924 0.012320 0.000000 1.5658809689597668e-38
-45.220651 -0.844145 35.886863 -0.999924 -0.012320 0.000000 1.5658809689597668e-38
-45.393510 -1.682988 35.132847 -0.999317 -0.036951 0.000000 1.5658809689597668e-38
-45.368401 -2.407514 36.112248 -0.998103 -0.061561 0.000000 1.5658809689597668e-38
-46.039819 -3.287075 35.478533 -0.996284 -0.086133 0.000000 1.5658809689597668e-38
-45.364813 5.607299 37.208639 -0.993859 0.110653 0.000000 1.5658809689597668e-38
-46.193055 3.971431 36.942107 -0.996284 0.086133 0.000000 1.5658809689597668e-38
-45.268367 3.107050 36.636495 -0.998103 0.061561 0.000000 1.5658809689597668e-38
-45.333968 1.973092 37.016063 -0.999317 0.036951 0.000000 1.5658809689597668e-38
-45.790381 0.981528 36.521948 -0.999924 0.012320 0.000000 1.5658809689597668e-38
-45.633229 -0.235852 37.086788 -0.999924 -0.012320 0.000000 1.5658809689597668e-38
-45.544691 -1.660336 36.878190 -0.999317 -0.036951 0.000000 1.5658809689597668e-38
-45.926220 -2.604084 36.922690 -0.998103 -0.061561 0.000000 1.5658809689597668e-38
-46.057598 -3.905613 36.959478 -0.996284 -0.086133 0.000000 1.5658809689597668e-38
-46.245950 4.000112 38.337041 -0.996284 0.086133 0.000000 1.5658809689597668e-38
-45.649166 2.979285 38.533576 -0.998103 0.061561 0.000000 1.5658809689597668e-38
-46.404302 1.510877 38.635185 -0.999317 0.036951 0.000000 1.5658809689597668e-38
-46.131183 0.078103 38.592912 -0.999924 0.012320 0.000000 1.5658809689597668e-38
-46.142789 -0.247582 38.344991 -0.999924 -0.012320 0.000000 1.5658809689597668e-38
-46.024868 -1.289818 37.959719 -0.999317 -0.036951 0.000000 1.5658809689597668e-38
-45.455636 -3.021952 38.399226 -0.998103 -0.061561 0.000000 1.5658809689597668e-38
-45.750701 -4.087934 38.121882 -0.996284 -0.086133 0.000000 1.5658809689597668e-38
-46.031700 2.079547 40.104650 -0.999317 0.036951 0.000000 1.5658809689597668e-38
-46.912385 1.302840 39.712725 -0.999924 0.012320 0.000000 1.5658809689597668e-38
-45.903915 -1.090906 39.516557 -0.999924 -0.012320 0.000000 1.5658809689597668e-38
-45.901706 -2.058848 38.721135 -0.999317 -0.036951 0.000000 1.5658809689597668e-38
-45.991859 -2.857824 40.020030 -0.998103 -0.061561 0.000000 1.5658809689597668e-38
-46.056453 -4.003643 39.796932 -0.996284 -0.086133 0.000000 1.5658809689597668e-38
-46.409026 0.439082 40.917057 -0.999924 0.012320 0.000000 1.5658809689597668e-38
-46.653386 -0.908954 41.044367 -0.999924 -0.012320 0.000000 1.5658809689597668e-38
-46.026771 -1.540204 40.630110 -0.999317 -0.036951 0.000000 1.5658809689597668e-38
-46.525138 -3.060625 41.091861 -0.998103 -0.061561 0.000000 1.5658809689597668e-38
-46.595959 -0.867426 41.980671 -0.999924 -0.012320 0.000000 1.5658809689597668e-38
-45.926609 -1.992274 42.193169 -0.999317 -0.036951 0.000000 1.5658809689597668e-38
-46.653849 -3.533272 42.229547 -0.998103 -0.061561 0.000000 1.5658809689597668e-38
-46.351378 -1.512507 43.527862 -0.999317 -0.036951 0.000000 1.5658809689597668e-38
-46.288913 -2.365581 43.031449 -0.998103 -0.061561 0.000000 1.5658809689597668e-38
