# .PCD v0.7 - Point Cloud Data file format
VERSION 0.7
FIELDS x y z normal_x normal_y normal_z rgb
SIZE 4 4 4 4 4 4 4
TYPE F F F F F F F
COUNT 1 1 1 1 1 1 1
WIDTH 294
HEIGHT 1
VIEWPOINT 0 0 0 1 0 0 0
POINTS 294
DATA ascii
43.296588 0.120046 18.640885 1.000000 0.000000 0.000000 1.7041734328458258e-38
43.391396 1.898411 18.830039 0.999696 0.024637 0.000000 1.7041734328458258e-38
42.990618 2.247361 18.319180 0.998786 0.049260 0.000000 1.7041734328458258e-38
43.398272 -1.040635 18.717580 0.999696 -0.024637 0.000000 1.7041734328458258e-38
43.305738 0.409166 19.793291 1.000000 0.000000 0.000000 1.7041734328458258e-38
43.214689 1.002459 20.163393 0.999696 0.024637 0.000000 1.7041734328458258e-38
43.304329 2.426919 19.606211 0.998786 0.049260 0.000000 1.7041734328458258e-38
43.136214 3.409331 19.531623 0.997269 0.073853 0.000000 1.7041734328458258e-38
43.520389 4.384391 19.531736 0.995147 0.098400 0.000000 1.7041734328458258e-38
43.133638 5.179123 19.898507 0.992421 0.122888 0.000000 1.7041734328458258e-38
43.576654 6.294153 19.953947 0.989092 0.147302 0.000000 1.7041734328458258e-38
43.595754 -1.904328 19.831331 0.998786 -0.049260 0.000000 1.7041734328458258e-38
43.734474 -1.240351 20.059428 0.999696 -0.024637 0.000000 1.7041734328458258e-38
43.913117 0.203249 21.071179 1.000000 0.000000 0.000000 1.7041734328458258e-38
43.809134 0.806198 21.090437 0.999696 0.024637 0.000000 1.7041734328458258e-38
43.645586 1.749291 21.173303 0.998786 0.049260 0.000000 1.7041734328458258e-38
43.114641 3.092213 21.042856 0.997269 0.073853 0.000000 1.7041734328458258e-38
43.177518 4.315842 21.050895 0.995147 0.098400 0.000000 1.7041734328458258e-38
43.031790 5.529351 20.801681 0.992421 0.122888 0.000000 1.7041734328458258e-38
43.819069 6.390744 20.679540 0.989092 0.147302 0.000000 1.7041734328458258e-38
42.666020 7.828591 20.908182 0.985162 0.171626 0.000000 1.7041734328458258e-38
42.354759 8.796616 20.906256 0.980635 0.195845 0.000000 1.7041734328458258e-38
42.736516 9.872173 21.113267 0.975512 0.219946 0.000000 1.7041734328458258e-38
43.692629 -3.300977 21.480382 0.997269 -0.073853 0.000000 1.7041734328458258e-38
43.789116 -1.985388 21.179039 0.998786 -0.049260 0.000000 1.7041734328458258e-38
43.942321 -0.767893 20.997096 0.999696 -0.024637 0.000000 1.7041734328458258e-38
44.035883 0.052216 22.843119 1.000000 0.000000 0.000000 1.7041734328458258e-38
44.054831 0.889929 22.967254 0.999696 0.024637 0.000000 1.7041734328458258e-38
43.055078 2.345777 22.059167 0.998786 0.049260 0.000000 1.7041734328458258e-38
44.184001 3.306062 22.029903 0.997269 0.073853 0.000000 1.7041734328458258e-38
43.446573 4.089730 22.176308 0.995147 0.098400 0.000000 1.7041734328458258e-38
43.308678 5.149638 22.349060 0.992421 0.122888 0.000000 1.7041734328458258e-38
43.379037 6.143906 21.770561 0.989092 0.147302 0.000000 1.7041734328458258e-38
43.183091 7.666276 22.487106 0.985162 0.171626 0.000000 1.7041734328458258e-38
43.057130 9.037859 22.567162 0.980635 0.195845 0.000000 1.7041734328458258e-38
43.471661 10.550382 21.740610 0.975512 0.219946 0.000000 1.7041734328458258e-38
41.758603 10.666273 22.419311 0.969797 0.243914 0.000000 1.7041734328458258e-38
42.119258 11.921392 22.186969 0.963493 0.267733 0.000000 1.7041734328458258e-38
43.965871 -3.093883 22.521783 0.997269 -0.073853 0.000000 1.7041734328458258e-38
43.862504 -1.886386 22.743363 0.998786 -0.049260 0.000000 1.7041734328458258e-38
44.124826 -0.380171 22.633244 0.999696 -0.024637 0.000000 1.7041734328458258e-38
43.674938 0.254194 23.718285 1.000000 0.000000 0.000000 1.7041734328458258e-38
44.438543 0.790840 23.672540 0.999696 0.024637 0.000000 1.7041734328458258e-38
43.618186 2.315082 23.440731 0.998786 0.049260 0.000000 1.7041734328458258e-38
43.899796 2.817235 23.743123 0.997269 0.073853 0.000000 1.7041734328458258e-38
43.724658 4.363046 24.090223 0.995147 0.098400 0.000000 1.7041734328458258e-38
43.428472 5.494498 23.535236 0.992421 0.122888 0.000000 1.7041734328458258e-38
43.456570 7.129517 23.524297 0.989092 0.147302 0.000000 1.7041734328458258e-38
43.054570 8.091480 23.412848 0.985162 0.171626 0.000000 1.7041734328458258e-38
42.544555 8.370618 23.131178 0.980635 0.195845 0.000000 1.7041734328458258e-38
42.261352 9.541412 23.484090 0.975512 0.219946 0.000000 1.7041734328458258e-38
42.904748 10.890723 23.680305 0.969797 0.243914 0.000000 1.7041734328458258e-38
42.006043 12.012472 23.922524 0.963493 0.267733 0.000000 1.7041734328458258e-38
42.090129 12.911706 23.125747 0.956604 0.291390 0.000000 1.7041734328458258e-38
43.639486 -3.273702 23.567938 0.997269 -0.073853 0.000000 1.7041734328458258e-38
43.665292 -2.009539 23.216476 0.998786 -0.049260 0.000000 1.7041734328458258e-38
43.771906 -1.745396 23.856826 0.999696 -0.024637 0.000000 1.7041734328458258e-38
43.966353 0.201031 24.885240 1.000000 0.000000 0.000000 1.7041734328458258e-38
44.170761 1.082188 24.858736 0.999696 0.024637 0.000000 1.7041734328458258e-38
43.677354 1.817029 24.711936 0.998786 0.049260 0.000000 1.7041734328458258e-38
43.695037 3.678567 24.854811 0.997269 0.073853 0.000000 1.7041734328458258e-38
43.590606 4.250037 24.782170 0.995147 0.098400 0.000000 1.7041734328458258e-38
43.665135 5.490965 24.762864 0.992421 0.122888 0.000000 1.7041734328458258e-38
43.121803 5.838828 24.630185 0.989092 0.147302 0.000000 1.7041734328458258e-38
43.534180 7.446111 25.113237 0.985162 0.171626 0.000000 1.7041734328458258e-38
43.152671 9.028115 25.087839 0.980635 0.195845 0.000000 1.7041734328458258e-38
43.256622 9.320805 24.747410 0.975512 0.219946 0.000000 1.7041734328458258e-38
43.056497 10.818585 24.908576 0.969797 0.243914 0.000000 1.7041734328458258e-38
41.995811 12.361024 24.504856 0.963493 0.267733 0.000000 1.7041734328458258e-38
41.510614 12.721400 24.008023 0.956604 0.291390 0.000000 1.7041734328458258e-38
41.454603 14.627854 24.628256 0.949135 0.314870 0.000000 1.7041734328458258e-38
43.276931 -3.610521 24.629658 0.997269 -0.073853 0.000000 1.7041734328458258e-38
43.751849 -2.648632 24.999602 0.998786 -0.049260 0.000000 1.7041734328458258e-38
44.083744 -1.042441 24.534071 0.999696 -0.024637 0.000000 1.7041734328458258e-38
44.192676 0.154335 25.899913 1.000000 0.000000 0.000000 1.7041734328458258e-38
44.288823 0.849390 26.008627 0.999696 0.024637 0.000000 1.7041734328458258e-38
44.457987 2.545361 26.377658 0.998786 0.049260 0.000000 1.7041734328458258e-38
44.133911 3.271466 25.844745 0.997269 0.073853 0.000000 1.7041734328458258e-38
43.412258 3.942758 25.928965 0.995147 0.098400 0.000000 1.7041734328458258e-38
43.801594 5.851502 26.373821 0.992421 0.122888 0.000000 1.7041734328458258e-38
43.481101 6.751646 25.836261 0.989092 0.147302 0.000000 1.7041734328458258e-38
43.718276 7.822316 26.352009 0.985162 0.171626 0.000000 1.7041734328458258e-38
43.165725 8.954562 25.417537 0.980635 0.195845 0.000000 1.7041734328458258e-38
43.476115 9.707275 25.978263 0.975512 0.219946 0.000000 1.7041734328458258e-38
42.223593 10.656791 26.386025 0.969797 0.243914 0.000000 1.7041734328458258e-38
42.428382 12.039500 25.989748 0.963493 0.267733 0.000000 1.7041734328458258e-38
42.570926 12.927803 25.699838 0.956604 0.291390 0.000000 1.7041734328458258e-38
41.939142 14.387795 26.128675 0.949135 0.314870 0.000000 1.7041734328458258e-38
41.531904 15.612788 26.327146 0.941089 0.338158 0.000000 1.7041734328458258e-38
43.984008 -2.934616 25.560744 0.997269 -0.073853 0.000000 1.7041734328458258e-38
44.078941 -2.022835 25.953238 0.998786 -0.049260 0.000000 1.7041734328458258e-38
43.800549 -1.804249 26.436361 0.999696 -0.024637 0.000000 1.7041734328458258e-38
44.399065 0.350040 27.495096 1.000000 0.000000 0.000000 1.7041734328458258e-38
44.490253 0.995645 27.363425 0.999696 0.024637 0.000000 1.7041734328458258e-38
44.700604 2.208333 27.787005 0.998786 0.049260 0.000000 1.7041734328458258e-38
43.753784 2.791415 27.512917 0.997269 0.073853 0.000000 1.7041734328458258e-38
43.863920 4.974559 27.617697 0.995147 0.098400 0.000000 1.7041734328458258e-38
44.464967 5.712312 26.940020 0.992421 0.122888 0.000000 1.7041734328458258e-38
43.343341 6.977685 26.766624 0.989092 0.147302 0.000000 1.7041734328458258e-38
44.142441 7.808133 27.193619 0.985162 0.171626 0.000000 1.7041734328458258e-38
43.598911 8.820370 27.155772 0.980635 0.195845 0.000000 1.7041734328458258e-38
43.666937 10.166466 27.263193 0.975512 0.219946 0.000000 1.7041734328458258e-38
42.805915 11.203177 26.609727 0.969797 0.243914 0.000000 1.7041734328458258e-38
42.839668 12.089045 26.967989 0.963493 0.267733 0.000000 1.7041734328458258e-38
42.693295 12.907834 27.052785 0.956604 0.291390 0.000000 1.7041734328458258e-38
42.359045 13.630780 27.477253 0.949135 0.314870 0.000000 1.7041734328458258e-38
41.118752 15.074460 27.229648 0.941089 0.338158 0.000000 1.7041734328458258e-38
41.169600 16.128799 27.192624 0.932472 0.361242 0.000000 1.7041734328458258e-38
44.531581 -2.527696 27.135556 0.997269 -0.073853 0.000000 1.7041734328458258e-38
44.509322 -2.185003 27.368313 0.998786 -0.049260 0.000000 1.7041734328458258e-38
44.323847 -1.739369 27.156439 0.999696 -0.024637 0.000000 1.7041734328458258e-38
44.786269 -0.229562 28.729892 1.000000 0.000000 0.000000 1.7041734328458258e-38
44.527981 1.038584 28.725353 0.999696 0.024637 0.000000 1.7041734328458258e-38
44.636705 2.317562 28.758378 0.998786 0.049260 0.000000 1.7041734328458258e-38
44.425847 2.792033 28.340172 0.997269 0.073853 0.000000 1.7041734328458258e-38
43.729185 4.574684 28.722468 0.995147 0.098400 0.000000 1.7041734328458258e-38
44.431728 5.613586 28.743986 0.992421 0.122888 0.000000 1.7041734328458258e-38
43.528146 6.520652 28.029133 0.989092 0.147302 0.000000 1.7041734328458258e-38
43.718824 8.119884 28.781579 0.985162 0.171626 0.000000 1.7041734328458258e-38
43.823598 8.657974 28.155530 0.980635 0.195845 0.000000 1.7041734328458258e-38
43.453126 10.117825 28.576570 0.975512 0.219946 0.000000 1.7041734328458258e-38
42.667069 10.882227 27.879610 0.969797 0.243914 0.000000 1.7041734328458258e-38
43.103599 11.702576 28.086672 0.963493 0.267733 0.000000 1.7041734328458258e-38
42.801268 13.130695 28.523328 0.956604 0.291390 0.000000 1.7041734328458258e-38
42.881111 14.197915 28.260121 0.949135 0.314870 0.000000 1.7041734328458258e-38
42.021436 14.957622 28.833636 0.941089 0.338158 0.000000 1.7041734328458258e-38
41.566628 16.184319 28.020898 0.932472 0.361242 0.000000 1.7041734328458258e-38
44.394546 -2.062602 28.784103 0.998786 -0.049260 0.000000 1.7041734328458258e-38
44.576070 -1.339297 27.799262 0.999696 -0.024637 0.000000 1.7041734328458258e-38
44.423252 -0.403347 29.471610 1.000000 0.000000 0.000000 1.7041734328458258e-38
44.713062 1.125476 30.248175 0.999696 0.024637 0.000000 1.7041734328458258e-38
44.744647 2.772400 29.905263 0.998786 0.049260 0.000000 1.7041734328458258e-38
44.857703 3.190135 29.368369 0.997269 0.073853 0.000000 1.7041734328458258e-38
44.302536 4.390399 29.502274 0.995147 0.098400 0.000000 1.7041734328458258e-38
44.015136 5.612497 29.389102 0.992421 0.122888 0.000000 1.7041734328458258e-38
43.706783 6.240974 29.620415 0.989092 0.147302 0.000000 1.7041734328458258e-38
43.694093 7.595335 29.870855 0.985162 0.171626 0.000000 1.7041734328458258e-38
43.961532 8.547023 29.299539 0.980635 0.195845 0.000000 1.7041734328458258e-38
43.387759 10.018163 29.957481 0.975512 0.219946 0.000000 1.7041734328458258e-38
43.411115 11.252138 30.209482 0.969797 0.243914 0.000000 1.7041734328458258e-38
42.878790 12.401301 29.612557 0.963493 0.267733 0.000000 1.7041734328458258e-38
43.022104 13.224270 29.097604 0.956604 0.291390 0.000000 1.7041734328458258e-38
42.092740 13.693779 29.156108 0.949135 0.314870 0.000000 1.7041734328458258e-38
42.287131 15.720729 29.613420 0.941089 0.338158 0.000000 1.7041734328458258e-38
41.894800 16.576249 29.753221 0.932472 0.361242 0.000000 1.7041734328458258e-38
41.220896 17.078126 29.851989 0.923289 0.384106 0.000000 1.7041734328458258e-38
44.875281 -2.419880 29.602010 0.998786 -0.049260 0.000000 1.7041734328458258e-38
45.289574 -1.192131 29.558549 0.999696 -0.024637 0.000000 1.7041734328458258e-38
45.002758 -0.535579 31.303078 1.000000 0.000000 0.000000 1.7041734328458258e-38
45.111647 1.261760 29.914706 0.999696 0.024637 0.000000 1.7041734328458258e-38
44.694828 1.826319 31.265067 0.998786 0.049260 0.000000 1.7041734328458258e-38
45.020425 3.426996 30.566902 0.997269 0.073853 0.000000 1.7041734328458258e-38
45.057810 4.332318 31.469446 0.995147 0.098400 0.000000 1.7041734328458258e-38
44.566921 5.660765 30.789744 0.992421 0.122888 0.000000 1.7041734328458258e-38
44.760167 6.785634 31.360703 0.989092 0.147302 0.000000 1.7041734328458258e-38
44.215200 7.679365 31.106374 0.985162 0.171626 0.000000 1.7041734328458258e-38
44.391747 9.084199 30.969302 0.980635 0.195845 0.000000 1.7041734328458258e-38
43.172179 10.102667 30.496224 0.975512 0.219946 0.000000 1.7041734328458258e-38
43.483658 10.899208 30.502505 0.969797 0.243914 0.000000 1.7041734328458258e-38
43.302327 12.647982 30.834053 0.963493 0.267733 0.000000 1.7041734328458258e-38
43.111539 13.768856 31.186619 0.956604 0.291390 0.000000 1.7041734328458258e-38
42.353487 14.185786 31.072069 0.949135 0.314870 0.000000 1.7041734328458258e-38
42.616419 15.522860 30.096870 0.941089 0.338158 0.000000 1.7041734328458258e-38
41.543138 16.172398 30.623249 0.932472 0.361242 0.000000 1.7041734328458258e-38
40.278319 17.000650 30.926752 0.923289 0.384106 0.000000 1.7041734328458258e-38
40.793982 17.933730 30.940274 0.913545 0.406737 0.000000 1.7041734328458258e-38
44.894391 -2.047629 30.919620 0.998786 -0.049260 0.000000 1.7041734328458258e-38
44.577035 -0.657990 30.718497 0.999696 -0.024637 0.000000 1.7041734328458258e-38
45.131347 -0.033631 32.333846 1.000000 0.000000 0.000000 1.7041734328458258e-38
44.810328 1.424627 32.578432 0.999696 0.024637 0.000000 1.7041734328458258e-38
45.248396 2.264263 32.034411 0.998786 0.049260 0.000000 1.7041734328458258e-38
45.729367 3.026293 32.429317 0.997269 0.073853 0.000000 1.7041734328458258e-38
44.887055 4.409806 32.220497 0.995147 0.098400 0.000000 1.7041734328458258e-38
44.511451 5.658782 32.259996 0.992421 0.122888 0.000000 1.7041734328458258e-38
45.317993 6.950653 32.319713 0.989092 0.147302 0.000000 1.7041734328458258e-38
44.510520 8.275984 31.873820 0.985162 0.171626 0.000000 1.7041734328458258e-38
44.079272 8.242008 32.332581 0.980635 0.195845 0.000000 1.7041734328458258e-38
44.157988 9.600146 32.595472 0.975512 0.219946 0.000000 1.7041734328458258e-38
43.430664 10.874752 32.200818 0.969797 0.243914 0.000000 1.7041734328458258e-38
43.840880 11.792035 32.252323 0.963493 0.267733 0.000000 1.7041734328458258e-38
43.285041 13.284722 32.346569 0.956604 0.291390 0.000000 1.7041734328458258e-38
42.944872 14.004489 32.671282 0.949135 0.314870 0.000000 1.7041734328458258e-38
42.320975 15.145874 32.569236 0.941089 0.338158 0.000000 1.7041734328458258e-38
41.777336 16.353994 31.948098 0.932472 0.361242 0.000000 1.7041734328458258e-38
42.308984 17.979520 32.131876 0.923289 0.384106 0.000000 1.7041734328458258e-38
41.270651 18.307001 32.060369 0.913545 0.406737 0.000000 1.7041734328458258e-38
40.687104 19.300665 31.708748 0.903247 0.429121 0.000000 1.7041734328458258e-38
45.182237 -2.753999 31.760206 0.998786 -0.049260 0.000000 1.7041734328458258e-38
44.787451 -1.062521 32.414586 0.999696 -0.024637 0.000000 1.7041734328458258e-38
45.678835 -0.085906 33.651206 1.000000 0.000000 0.000000 1.7041734328458258e-38
45.388770 1.275853 33.394778 0.999696 0.024637 0.000000 1.7041734328458258e-38
45.014718 1.906409 33.062584 0.998786 0.049260 0.000000 1.7041734328458258e-38
45.170158 3.321027 33.277410 0.997269 0.073853 0.000000 1.7041734328458258e-38
45.169573 4.386507 33.128108 0.995147 0.098400 0.000000 1.7041734328458258e-38
44.766976 5.799442 33.095008 0.992421 0.122888 0.000000 1.7041734328458258e-38
44.759277 6.639853 33.173819 0.989092 0.147302 0.000000 1.7041734328458258e-38
44.430922 7.284163 33.434954 0.985162 0.171626 0.000000 1.7041734328458258e-38
43.904915 9.171878 33.374470 0.980635 0.195845 0.000000 1.7041734328458258e-38
43.911294 10.287420 33.092507 0.975512 0.219946 0.000000 1.7041734328458258e-38
43.600274 10.473550 33.794914 0.969797 0.243914 0.000000 1.7041734328458258e-38
44.101574 11.596626 33.157330 0.963493 0.267733 0.000000 1.7041734328458258e-38
43.249361 13.013031 33.392667 0.956604 0.291390 0.000000 1.7041734328458258e-38
42.855596 14.351045 33.113772 0.949135 0.314870 0.000000 1.7041734328458258e-38
42.585093 14.946344 33.278504 0.941089 0.338158 0.000000 1.7041734328458258e-38
41.616871 16.202944 33.230241 0.932472 0.361242 0.000000 1.7041734328458258e-38
42.005990 17.339745 33.438813 0.923289 0.384106 0.000000 1.7041734328458258e-38
41.275871 17.741468 32.802978 0.913545 0.406737 0.000000 1.7041734328458258e-38
40.721630 19.475287 33.331602 0.903247 0.429121 0.000000 1.7041734328458258e-38
45.227125 -1.816714 33.549186 0.998786 -0.049260 0.000000 1.7041734328458258e-38
45.253781 -0.921794 33.354658 0.999696 -0.024637 0.000000 1.7041734328458258e-38
45.433507 -0.146687 34.174009 1.000000 0.000000 0.000000 1.7041734328458258e-38
45.467363 1.222009 34.552861 0.999696 0.024637 0.000000 1.7041734328458258e-38
45.633943 2.018851 34.107760 0.998786 0.049260 0.000000 1.7041734328458258e-38
45.045232 2.889019 34.740586 0.997269 0.073853 0.000000 1.7041734328458258e-38
44.932439 4.760643 34.928315 0.995147 0.098400 0.000000 1.7041734328458258e-38
44.756850 5.334028 34.799507 0.992421 0.122888 0.000000 1.7041734328458258e-38
45.177234 6.080512 34.723677 0.989092 0.147302 0.000000 1.7041734328458258e-38
44.045697 7.623524 34.967272 0.985162 0.171626 0.000000 1.7041734328458258e-38
45.402457 8.815485 34.265040 0.980635 0.195845 0.000000 1.7041734328458258e-38
44.113014 10.000610 34.438103 0.975512 0.219946 0.000000 1.7041734328458258e-38
43.730276 10.940332 34.757848 0.969797 0.243914 0.000000 1.7041734328458258e-38
43.670845 11.884784 34.438157 0.963493 0.267733 0.000000 1.7041734328458258e-38
43.284912 12.922940 34.427032 0.956604 0.291390 0.000000 1.7041734328458258e-38
43.263208 14.219146 34.113129 0.949135 0.314870 0.000000 1.7041734328458258e-38
43.012502 15.470059 34.224235 0.941089 0.338158 0.000000 1.7041734328458258e-38
42.204378 16.154898 34.842247 0.932472 0.361242 0.000000 1.7041734328458258e-38
41.785782 17.408229 34.582417 0.923289 0.384106 0.000000 1.7041734328458258e-38
41.011087 18.878631 34.837874 0.913545 0.406737 0.000000 1.7041734328458258e-38
40.763595 19.530317 34.931411 0.903247 0.429121 0.000000 1.7041734328458258e-38
45.469036 -1.438741 34.716304 0.999696 -0.024637 0.000000 1.7041734328458258e-38
45.116465 -0.028225 36.204972 1.000000 0.000000 0.000000 1.7041734328458258e-38
45.722415 0.752592 35.306773 0.999696 0.024637 0.000000 1.7041734328458258e-38
45.665741 2.719233 35.587105 0.998786 0.049260 0.000000 1.7041734328458258e-38
46.076754 3.363658 35.288681 0.997269 0.073853 0.000000 1.7041734328458258e-38
44.882553 4.715280 35.915159 0.995147 0.098400 0.000000 1.7041734328458258e-38
45.671236 5.240826 35.911837 0.992421 0.122888 0.000000 1.7041734328458258e-38
45.076893 6.669926 35.761506 0.989092 0.147302 0.000000 1.7041734328458258e-38
44.786986 7.873716 35.967063 0.985162 0.171626 0.000000 1.7041734328458258e-38
44.765242 9.286862 35.515905 0.980635 0.195845 0.000000 1.7041734328458258e-38
43.912509 10.328481 35.593231 0.975512 0.219946 0.000000 1.7041734328458258e-38
44.081726 10.932002 35.686235 0.969797 0.243914 0.000000 1.7041734328458258e-38
43.470813 12.030265 36.071088 0.963493 0.267733 0.000000 1.7041734328458258e-38
43.593180 13.430560 35.727464 0.956604 0.291390 0.000000 1.7041734328458258e-38
43.524815 14.196723 35.243721 0.949135 0.314870 0.000000 1.7041734328458258e-38
42.982290 15.640758 35.708517 0.941089 0.338158 0.000000 1.7041734328458258e-38
42.854370 16.207291 36.077507 0.932472 0.361242 0.000000 1.7041734328458258e-38
42.599547 17.515480 35.808344 0.923289 0.384106 0.000000 1.7041734328458258e-38
41.600376 19.024284 35.997123 0.913545 0.406737 0.000000 1.7041734328458258e-38
45.675927 -1.577359 36.063605 0.999696 -0.024637 0.000000 1.7041734328458258e-38
45.505170 0.024154 37.087183 1.000000 0.000000 0.000000 1.7041734328458258e-38
46.104626 1.200303 36.933672 0.999696 0.024637 0.000000 1.7041734328458258e-38
45.822635 2.897367 37.335439 0.998786 0.049260 0.000000 1.7041734328458258e-38
45.627581 3.130170 36.928455 0.997269 0.073853 0.000000 1.7041734328458258e-38
45.752193 4.238072 37.114209 0.995147 0.098400 0.000000 1.7041734328458258e-38
45.854692 5.669754 36.789663 0.992421 0.122888 0.000000 1.7041734328458258e-38
45.924396 7.270781 37.263755 0.989092 0.147302 0.000000 1.7041734328458258e-38
45.473920 7.775269 37.330738 0.985162 0.171626 0.000000 1.7041734328458258e-38
44.756908 8.557286 37.890979 0.980635 0.195845 0.000000 1.7041734328458258e-38
44.227536 10.156283 37.199165 0.975512 0.219946 0.000000 1.7041734328458258e-38
44.542720 11.137104 37.089627 0.969797 0.243914 0.000000 1.7041734328458258e-38
44.140915 12.398186 37.112857 0.963493 0.267733 0.000000 1.7041734328458258e-38
43.763584 12.940670 37.717507 0.956604 0.291390 0.000000 1.7041734328458258e-38
43.602922 14.474355 36.926062 0.949135 0.314870 0.000000 1.7041734328458258e-38
42.772874 15.735609 37.065443 0.941089 0.338158 0.000000 1.7041734328458258e-38
45.446019 -0.653309 38.699143 1.000000 0.000000 0.000000 1.7041734328458258e-38
46.319866 1.209638 38.468180 0.999696 0.024637 0.000000 1.7041734328458258e-38
46.185201 2.526955 38.259260 0.998786 0.049260 0.000000 1.7041734328458258e-38
46.134309 3.291288 38.423581 0.997269 0.073853 0.000000 1.7041734328458258e-38
45.809994 4.265934 38.127619 0.995147 0.098400 0.000000 1.7041734328458258e-38
46.294879 5.381990 38.461503 0.992421 0.122888 0.000000 1.7041734328458258e-38
45.645546 6.755651 38.551962 0.989092 0.147302 0.000000 1.7041734328458258e-38
45.389656 7.629089 38.511561 0.985162 0.171626 0.000000 1.7041734328458258e-38
44.919407 9.525824 38.479253 0.980635 0.195845 0.000000 1.7041734328458258e-38
44.637262 10.214302 38.073059 0.975512 0.219946 0.000000 1.7041734328458258e-38
44.661904 11.145760 38.102454 0.969797 0.243914 0.000000 1.7041734328458258e-38
44.042933 13.038996 38.377933 0.963493 0.267733 0.000000 1.7041734328458258e-38
46.189925 1.161895 39.177382 0.999696 0.024637 0.000000 1.7041734328458258e-38
46.258111 2.592773 39.709828 0.998786 0.049260 0.000000 1.7041734328458258e-38
45.985233 4.217229 39.310256 0.997269 0.073853 0.000000 1.7041734328458258e-38
46.188018 4.617117 40.191323 0.995147 0.098400 0.000000 1.7041734328458258e-38
45.946102 5.855340 39.739344 0.992421 0.122888 0.000000 1.7041734328458258e-38
45.358851 6.541743 39.504929 0.989092 0.147302 0.000000 1.7041734328458258e-38
45.782104 7.995620 39.525608 0.985162 0.171626 0.000000 1.7041734328458258e-38
45.697471 8.449434 39.198883 0.980635 0.195845 0.000000 1.7041734328458258e-38
44.300259 10.519638 39.558611 0.975512 0.219946 0.000000 1.7041734328458258e-38
46.468361 1.548888 40.651971 0.999696 0.024637 0.000000 1.7041734328458258e-38
46.357626 2.156535 40.635854 0.998786 0.049260 0.000000 1.7041734328458258e-38
46.321292 3.227109 40.582222 0.997269 0.073853 0.000000 1.7041734328458258e-38
45.680178 4.584274 41.144845 0.995147 0.098400 0.000000 1.7041734328458258e-38
46.251677 6.148522 40.622388 0.992421 0.122888 0.000000 1.7041734328458258e-38
46.140296 6.502699 41.037520 0.989092 0.147302 0.000000 1.7041734328458258e-38
46.327614 2.301211 42.283941 0.998786 0.049260 0.000000 1.7041734328458258e-38
46.032878 3.521488 42.128192 0.997269 0.073853 0.000000 1.7041734328458258e-38
46.244242 4.409957 41.840959 0.995147 0.098400 0.000000 1.7041734328458258e-38
