# .PCD v0.7 - Point Cloud Data file format
VERSION 0.7
FIELDS x y z normal_x normal_y normal_z rgb
SIZE 4 4 4 4 4 4 4
TYPE F F F F F F F
COUNT 1 1 1 1 1 1 1
WIDTH 325
HEIGHT 1
VIEWPOINT 0 0 0 1 0 0 0
POINTS 325
DATA ascii
-55.808296 -5.157389 99.043954 -0.996284 -0.086133 0.000000 1.5843200949324314e-38
-56.306101 -6.371773 98.981561 -0.993859 -0.110653 0.000000 1.5843200949324314e-38
-56.161739 -8.057450 99.264177 -0.990831 -0.135105 0.000000 1.5843200949324314e-38
-56.174098 -8.486074 98.724374 -0.987202 -0.159476 0.000000 1.5843200949324314e-38
-56.510059 -3.392776 100.259659 -0.998103 -0.061561 0.000000 1.5843200949324314e-38
-56.359034 -4.144519 100.704083 -0.996284 -0.086133 0.000000 1.5843200949324314e-38
-56.528525 -6.664394 100.603994 -0.993859 -0.110653 0.000000 1.5843200949324314e-38
-55.677550 -7.191659 100.072937 -0.990831 -0.135105 0.000000 1.5843200949324314e-38
-55.840153 -9.546312 100.249364 -0.987202 -0.159476 0.000000 1.5843200949324314e-38
-55.744676 -10.618859 100.483308 -0.982973 -0.183750 0.000000 1.5843200949324314e-38
-56.399134 -3.666368 100.505750 -0.998103 -0.061561 0.000000 1.5843200949324314e-38
-56.085569 -4.644742 101.789568 -0.996284 -0.086133 0.000000 1.5843200949324314e-38
-55.922101 -6.262088 101.318375 -0.993859 -0.110653 0.000000 1.5843200949324314e-38
-56.650437 -7.610635 101.308496 -0.990831 -0.135105 0.000000 1.5843200949324314e-38
-56.142280 -9.439097 101.134204 -0.987202 -0.159476 0.000000 1.5843200949324314e-38
-56.071719 -10.108262 101.777992 -0.982973 -0.183750 0.000000 1.5843200949324314e-38
-55.617349 -11.407110 101.474117 -0.978148 -0.207912 0.000000 1.5843200949324314e-38
-54.647282 -12.956762 101.632949 -0.972728 -0.231948 0.000000 1.5843200949324314e-38
-57.100087 -2.027467 102.716700 -0.999317 -0.036951 0.000000 1.5843200949324314e-38
-56.137749 -3.517160 102.796264 -0.998103 -0.061561 0.000000 1.5843200949324314e-38
-56.543840 -4.641688 103.208430 -0.996284 -0.086133 0.000000 1.5843200949324314e-38
-56.110359 -5.687362 102.842699 -0.993859 -0.110653 0.000000 1.5843200949324314e-38
-56.697697 -7.913368 102.926669 -0.990831 -0.135105 0.000000 1.5843200949324314e-38
-56.088327 -9.048443 102.437372 -0.987202 -0.159476 0.000000 1.5843200949324314e-38
-55.342667 -9.966914 102.611714 -0.982973 -0.183750 0.000000 1.5843200949324314e-38
-55.567954 -11.414727 102.994239 -0.978148 -0.207912 0.000000 1.5843200949324314e-38
-55.683967 -12.957359 102.829152 -0.972728 -0.231948 0.000000 1.5843200949324314e-38
-54.797668 -14.780346 102.423667 -0.966718 -0.255843 0.000000 1.5843200949324314e-38
-55.408909 -16.061040 102.089203 -0.960122 -0.279583 0.000000 1.5843200949324314e-38
-56.700560 -2.441564 103.808088 -0.999317 -0.036951 0.000000 1.5843200949324314e-38
-56.319527 -3.968736 103.880237 -0.998103 -0.061561 0.000000 1.5843200949324314e-38
-56.373263 -4.704610 104.009214 -0.996284 -0.086133 0.000000 1.5843200949324314e-38
-56.699095 -5.896800 103.550331 -0.993859 -0.110653 0.000000 1.5843200949324314e-38
-56.115911 -7.634146 103.681518 -0.990831 -0.135105 0.000000 1.5843200949324314e-38
-56.234213 -8.522060 103.568887 -0.987202 -0.159476 0.000000 1.5843200949324314e-38
-56.405065 -10.636625 104.041412 -0.982973 -0.183750 0.000000 1.5843200949324314e-38
-55.175643 -11.811150 103.428964 -0.978148 -0.207912 0.000000 1.5843200949324314e-38
-55.266052 -12.928278 104.013684 -0.972728 -0.231948 0.000000 1.5843200949324314e-38
-54.804964 -15.104977 103.514888 -0.966718 -0.255843 0.000000 1.5843200949324314e-38
-54.618283 -15.552821 103.680696 -0.960122 -0.279583 0.000000 1.5843200949324314e-38
-54.108561 -17.182839 103.604713 -0.952942 -0.303153 0.000000 1.5843200949324314e-38
-56.923990 -1.978754 105.086863 -0.999317 -0.036951 0.000000 1.5843200949324314e-38
-57.065856 -3.277665 104.832121 -0.998103 -0.061561 0.000000 1.5843200949324314e-38
-56.413598 -5.007578 105.417365 -0.996284 -0.086133 0.000000 1.5843200949324314e-38
-56.159642 -6.318436 105.416268 -0.993859 -0.110653 0.000000 1.5843200949324314e-38
-56.229484 -7.638141 105.335453 -0.990831 -0.135105 0.000000 1.5843200949324314e-38
-56.295885 -8.588089 105.179923 -0.987202 -0.159476 0.000000 1.5843200949324314e-38
-56.190240 -10.593018 105.420891 -0.982973 -0.183750 0.000000 1.5843200949324314e-38
-55.972489 -11.271030 105.546322 -0.978148 -0.207912 0.000000 1.5843200949324314e-38
-55.757139 -12.975253 104.864307 -0.972728 -0.231948 0.000000 1.5843200949324314e-38
-55.295646 -14.708539 104.931937 -0.966718 -0.255843 0.000000 1.5843200949324314e-38
-54.452326 -15.843537 105.281435 -0.960122 -0.279583 0.000000 1.5843200949324314e-38
-54.260243 -17.420075 104.998447 -0.952942 -0.303153 0.000000 1.5843200949324314e-38
-53.487699 -18.697978 105.573340 -0.945184 -0.326539 0.000000 1.5843200949324314e-38
-53.535600 -19.899863 105.247456 -0.936852 -0.349727 0.000000 1.5843200949324314e-38
-57.212493 -1.946092 106.353508 -0.999317 -0.036951 0.000000 1.5843200949324314e-38
-57.010335 -3.505896 106.514981 -0.998103 -0.061561 0.000000 1.5843200949324314e-38
-56.814222 -4.829467 106.367637 -0.996284 -0.086133 0.000000 1.5843200949324314e-38
-56.959942 -6.062757 106.699777 -0.993859 -0.110653 0.000000 1.5843200949324314e-38
-56.211787 -7.502617 106.158988 -0.990831 -0.135105 0.000000 1.5843200949324314e-38
-56.585231 -8.819971 106.030500 -0.987202 -0.159476 0.000000 1.5843200949324314e-38
-56.263642 -9.835222 106.544112 -0.982973 -0.183750 0.000000 1.5843200949324314e-38
-55.734997 -12.412586 106.190408 -0.978148 -0.207912 0.000000 1.5843200949324314e-38
-55.222958 -13.672745 106.512556 -0.972728 -0.231948 0.000000 1.5843200949324314e-38
-55.545672 -14.777634 105.919722 -0.966718 -0.255843 0.000000 1.5843200949324314e-38
-54.726293 -16.454522 106.366617 -0.960122 -0.279583 0.000000 1.5843200949324314e-38
-54.153748 -17.228551 106.531198 -0.952942 -0.303153 0.000000 1.5843200949324314e-38
-53.835186 -18.649465 106.371218 -0.945184 -0.326539 0.000000 1.5843200949324314e-38
-53.339860 -20.272114 106.272962 -0.936852 -0.349727 0.000000 1.5843200949324314e-38
-52.309960 -21.109422 106.766498 -0.927951 -0.372702 0.000000 1.5843200949324314e-38
-52.278330 -22.771780 106.300365 -0.918487 -0.395451 0.000000 1.5843200949324314e-38
-56.684791 -1.785187 107.431863 -0.999317 -0.036951 0.000000 1.5843200949324314e-38
-56.856351 -3.162806 107.555744 -0.998103 -0.061561 0.000000 1.5843200949324314e-38
-56.771974 -5.081171 107.356864 -0.996284 -0.086133 0.000000 1.5843200949324314e-38
-56.620939 -6.028052 107.872483 -0.993859 -0.110653 0.000000 1.5843200949324314e-38
-56.972786 -7.306755 107.818928 -0.990831 -0.135105 0.000000 1.5843200949324314e-38
-56.024834 -9.369889 107.898525 -0.987202 -0.159476 0.000000 1.5843200949324314e-38
-55.928065 -10.855380 107.779691 -0.982973 -0.183750 0.000000 1.5843200949324314e-38
-56.152472 -11.850094 108.343574 -0.978148 -0.207912 0.000000 1.5843200949324314e-38
-55.446278 -13.261204 107.203088 -0.972728 -0.231948 0.000000 1.5843200949324314e-38
-55.102788 -14.637042 107.045500 -0.966718 -0.255843 0.000000 1.5843200949324314e-38
-55.140128 -15.680075 108.036123 -0.960122 -0.279583 0.000000 1.5843200949324314e-38
-54.380541 -16.989769 107.659028 -0.952942 -0.303153 0.000000 1.5843200949324314e-38
-54.186204 -17.968165 107.225452 -0.945184 -0.326539 0.000000 1.5843200949324314e-38
-53.356465 -20.147898 107.586606 -0.936852 -0.349727 0.000000 1.5843200949324314e-38
-52.498427 -21.251320 107.552019 -0.927951 -0.372702 0.000000 1.5843200949324314e-38
-52.598451 -22.395391 107.365063 -0.918487 -0.395451 0.000000 1.5843200949324314e-38
-51.833935 -23.889893 107.414284 -0.908465 -0.417960 0.000000 1.5843200949324314e-38
-56.958229 -0.898864 108.395012 -0.999924 -0.012320 0.000000 1.5843200949324314e-38
-56.936608 -2.212695 109.639448 -0.999317 -0.036951 0.000000 1.5843200949324314e-38
-56.793118 -3.838287 109.068026 -0.998103 -0.061561 0.000000 1.5843200949324314e-38
-56.992301 -4.767691 108.648950 -0.996284 -0.086133 0.000000 1.5843200949324314e-38
-56.738843 -6.009748 109.112702 -0.993859 -0.110653 0.000000 1.5843200949324314e-38
-56.330985 -6.791098 108.725935 -0.990831 -0.135105 0.000000 1.5843200949324314e-38
-55.910157 -9.030712 108.749836 -0.987202 -0.159476 0.000000 1.5843200949324314e-38
-56.212164 -10.236615 108.755503 -0.982973 -0.183750 0.000000 1.5843200949324314e-38
-56.522009 -11.637222 108.934224 -0.978148 -0.207912 0.000000 1.5843200949324314e-38
-55.779843 -13.641894 108.988021 -0.972728 -0.231948 0.000000 1.5843200949324314e-38
-54.893179 -14.899009 108.950578 -0.966718 -0.255843 0.000000 1.5843200949324314e-38
-54.239206 -15.702910 108.867407 -0.960122 -0.279583 0.000000 1.5843200949324314e-38
-54.521433 -17.475685 108.890730 -0.952942 -0.303153 0.000000 1.5843200949324314e-38
-54.170399 -18.749888 108.834410 -0.945184 -0.326539 0.000000 1.5843200949324314e-38
-54.050647 -20.036973 109.685923 -0.936852 -0.349727 0.000000 1.5843200949324314e-38
-53.468665 -20.839679 109.195296 -0.927951 -0.372702 0.000000 1.5843200949324314e-38
-52.313198 -22.755988 109.160700 -0.918487 -0.395451 0.000000 1.5843200949324314e-38
-51.377783 -23.551896 108.966627 -0.908465 -0.417960 0.000000 1.5843200949324314e-38
-51.312247 -25.337597 108.925818 -0.897892 -0.440216 0.000000 1.5843200949324314e-38
-50.516769 -26.388380 108.872866 -0.886774 -0.462204 0.000000 1.5843200949324314e-38
-56.817506 -0.757544 110.343440 -0.999924 -0.012320 0.000000 1.5843200949324314e-38
-57.798677 -2.401280 110.132135 -0.999317 -0.036951 0.000000 1.5843200949324314e-38
-57.695484 -3.425874 110.010672 -0.998103 -0.061561 0.000000 1.5843200949324314e-38
-56.948017 -5.000849 110.053834 -0.996284 -0.086133 0.000000 1.5843200949324314e-38
-57.679654 -6.662395 110.255345 -0.993859 -0.110653 0.000000 1.5843200949324314e-38
-57.149582 -8.029137 109.972017 -0.990831 -0.135105 0.000000 1.5843200949324314e-38
-56.620408 -8.915100 110.171952 -0.987202 -0.159476 0.000000 1.5843200949324314e-38
-56.473251 -11.033857 111.020216 -0.982973 -0.183750 0.000000 1.5843200949324314e-38
-55.987275 -11.628763 109.387984 -0.978148 -0.207912 0.000000 1.5843200949324314e-38
-55.799825 -13.401781 109.963757 -0.972728 -0.231948 0.000000 1.5843200949324314e-38
-55.110820 -14.726375 109.974252 -0.966718 -0.255843 0.000000 1.5843200949324314e-38
-54.970654 -15.998419 109.739897 -0.960122 -0.279583 0.000000 1.5843200949324314e-38
-54.258597 -17.528861 110.072133 -0.952942 -0.303153 0.000000 1.5843200949324314e-38
-53.662401 -17.822417 110.243526 -0.945184 -0.326539 0.000000 1.5843200949324314e-38
-54.156925 -20.107740 110.617770 -0.936852 -0.349727 0.000000 1.5843200949324314e-38
-53.194029 -21.087182 110.348649 -0.927951 -0.372702 0.000000 1.5843200949324314e-38
-52.794219 -22.071631 110.231787 -0.918487 -0.395451 0.000000 1.5843200949324314e-38
-52.017285 -23.977182 109.751472 -0.908465 -0.417960 0.000000 1.5843200949324314e-38
-51.640849 -25.509082 110.785288 -0.897892 -0.440216 0.000000 1.5843200949324314e-38
-50.456386 -26.763866 110.656082 -0.886774 -0.462204 0.000000 1.5843200949324314e-38
-49.690652 -27.896567 110.262428 -0.875117 -0.483911 0.000000 1.5843200949324314e-38
-49.606882 -28.622159 110.250755 -0.862929 -0.505325 0.000000 1.5843200949324314e-38
-57.335722 -0.585791 111.282245 -0.999924 -0.012320 0.000000 1.5843200949324314e-38
-57.297236 -2.461813 111.262154 -0.999317 -0.036951 0.000000 1.5843200949324314e-38
-57.560250 -3.529382 111.218095 -0.998103 -0.061561 0.000000 1.5843200949324314e-38
-56.944599 -5.384791 111.061717 -0.996284 -0.086133 0.000000 1.5843200949324314e-38
-57.232229 -6.345705 111.266697 -0.993859 -0.110653 0.000000 1.5843200949324314e-38
-56.453666 -7.730075 111.340237 -0.990831 -0.135105 0.000000 1.5843200949324314e-38
-56.891188 -9.225897 110.939871 -0.987202 -0.159476 0.000000 1.5843200949324314e-38
-56.184191 -10.281094 110.887915 -0.982973 -0.183750 0.000000 1.5843200949324314e-38
-56.042420 -11.946368 111.701484 -0.978148 -0.207912 0.000000 1.5843200949324314e-38
-56.045075 -13.520418 111.419407 -0.972728 -0.231948 0.000000 1.5843200949324314e-38
-55.547131 -14.792461 111.204067 -0.966718 -0.255843 0.000000 1.5843200949324314e-38
-54.865953 -15.681506 111.315468 -0.960122 -0.279583 0.000000 1.5843200949324314e-38
-54.692475 -17.173774 111.402206 -0.952942 -0.303153 0.000000 1.5843200949324314e-38
-54.119024 -18.373210 111.020197 -0.945184 -0.326539 0.000000 1.5843200949324314e-38
-53.768159 -20.336416 111.179300 -0.936852 -0.349727 0.000000 1.5843200949324314e-38
-53.561563 -21.472284 111.451245 -0.927951 -0.372702 0.000000 1.5843200949324314e-38
-53.426061 -22.760479 111.313262 -0.918487 -0.395451 0.000000 1.5843200949324314e-38
-52.145080 -24.455204 111.626878 -0.908465 -0.417960 0.000000 1.5843200949324314e-38
-51.173726 -24.884865 111.172673 -0.897892 -0.440216 0.000000 1.5843200949324314e-38
-50.767559 -26.706900 111.018488 -0.886774 -0.462204 0.000000 1.5843200949324314e-38
-50.488726 -27.671841 111.590992 -0.875117 -0.483911 0.000000 1.5843200949324314e-38
-49.066897 -28.974079 111.135551 -0.862929 -0.505325 0.000000 1.5843200949324314e-38
-48.753312 -29.877436 111.826934 -0.850217 -0.526432 0.000000 1.5843200949324314e-38
-57.723815 -1.249767 112.774445 -0.999924 -0.012320 0.000000 1.5843200949324314e-38
-57.222335 -2.309121 112.230605 -0.999317 -0.036951 0.000000 1.5843200949324314e-38
-57.148524 -3.671492 112.814620 -0.998103 -0.061561 0.000000 1.5843200949324314e-38
-57.318456 -5.068044 112.909988 -0.996284 -0.086133 0.000000 1.5843200949324314e-38
-57.314908 -6.783591 112.296875 -0.993859 -0.110653 0.000000 1.5843200949324314e-38
-56.760368 -7.176087 112.622987 -0.990831 -0.135105 0.000000 1.5843200949324314e-38
-56.886291 -9.396030 112.700449 -0.987202 -0.159476 0.000000 1.5843200949324314e-38
-56.902154 -11.104150 112.636204 -0.982973 -0.183750 0.000000 1.5843200949324314e-38
-55.839994 -11.652608 112.681196 -0.978148 -0.207912 0.000000 1.5843200949324314e-38
-55.435472 -13.360898 112.463722 -0.972728 -0.231948 0.000000 1.5843200949324314e-38
-55.465291 -14.586240 113.744572 -0.966718 -0.255843 0.000000 1.5843200949324314e-38
-55.130517 -15.982785 113.098532 -0.960122 -0.279583 0.000000 1.5843200949324314e-38
-54.493336 -17.892384 113.093034 -0.952942 -0.303153 0.000000 1.5843200949324314e-38
-54.117407 -19.581268 112.455232 -0.945184 -0.326539 0.000000 1.5843200949324314e-38
-53.952849 -20.202274 112.566756 -0.936852 -0.349727 0.000000 1.5843200949324314e-38
-53.009415 -20.997595 112.968414 -0.927951 -0.372702 0.000000 1.5843200949324314e-38
-52.202508 -22.742650 111.950483 -0.918487 -0.395451 0.000000 1.5843200949324314e-38
-52.859375 -23.741492 112.559310 -0.908465 -0.417960 0.000000 1.5843200949324314e-38
-51.052847 -25.111166 112.051030 -0.897892 -0.440216 0.000000 1.5843200949324314e-38
-51.045625 -26.383062 112.243280 -0.886774 -0.462204 0.000000 1.5843200949324314e-38
-49.744148 -27.888756 112.480761 -0.875117 -0.483911 0.000000 1.5843200949324314e-38
-49.977902 -28.373524 112.518676 -0.862929 -0.505325 0.000000 1.5843200949324314e-38
-48.680293 -30.427383 112.458915 -0.850217 -0.526432 0.000000 1.5843200949324314e-38
-47.916456 -31.257771 112.750164 -0.836989 -0.547220 0.000000 1.5843200949324314e-38
-46.917504 -32.353196 112.740952 -0.823253 -0.567675 0.000000 1.5843200949324314e-38
-57.006714 -0.501316 114.415685 -0.999924 -0.012320 0.000000 1.5843200949324314e-38
-57.053214 -1.821171 113.446541 -0.999317 -0.036951 0.000000 1.5843200949324314e-38
-57.066110 -3.278393 113.801170 -0.998103 -0.061561 0.000000 1.5843200949324314e-38
-57.802871 -5.642960 113.730568 -0.996284 -0.086133 0.000000 1.5843200949324314e-38
-57.210767 -6.799093 113.930573 -0.993859 -0.110653 0.000000 1.5843200949324314e-38
-57.215617 -8.255032 114.433434 -0.990831 -0.135105 0.000000 1.5843200949324314e-38
-56.515837 -9.281972 113.390665 -0.987202 -0.159476 0.000000 1.5843200949324314e-38
-56.690193 -10.734325 113.651342 -0.982973 -0.183750 0.000000 1.5843200949324314e-38
-56.244304 -12.288823 113.552388 -0.978148 -0.207912 0.000000 1.5843200949324314e-38
-56.349747 -13.908206 113.353766 -0.972728 -0.231948 0.000000 1.5843200949324314e-38
-55.674384 -14.778245 113.954028 -0.966718 -0.255843 0.000000 1.5843200949324314e-38
-54.988213 -15.861432 113.722943 -0.960122 -0.279583 0.000000 1.5843200949324314e-38
-54.504046 -18.044525 113.995561 -0.952942 -0.303153 0.000000 1.5843200949324314e-38
-54.267265 -18.455425 113.010441 -0.945184 -0.326539 0.000000 1.5843200949324314e-38
-53.503426 -20.562832 114.150187 -0.936852 -0.349727 0.000000 1.5843200949324314e-38
-53.519055 -21.269161 113.788578 -0.927951 -0.372702 0.000000 1.5843200949324314e-38
-52.418422 -22.654282 114.285532 -0.918487 -0.395451 0.000000 1.5843200949324314e-38
-52.363624 -24.302183 113.618364 -0.908465 -0.417960 0.000000 1.5843200949324314e-38
-51.350687 -25.066777 113.428302 -0.897892 -0.440216 0.000000 1.5843200949324314e-38
-51.156887 -26.444847 114.188049 -0.886774 -0.462204 0.000000 1.5843200949324314e-38
-50.444051 -28.205383 114.115382 -0.875117 -0.483911 0.000000 1.5843200949324314e-38
-50.058208 -28.844630 113.163860 -0.862929 -0.505325 0.000000 1.5843200949324314e-38
-48.840172 -30.324161 113.579695 -0.850217 -0.526432 0.000000 1.5843200949324314e-38
-47.612889 -31.436428 113.763964 -0.836989 -0.547220 0.000000 1.5843200949324314e-38
-47.333308 -32.815993 114.362729 -0.823253 -0.567675 0.000000 1.5843200949324314e-38
-57.653289 -0.770125 115.327572 -0.999924 -0.012320 0.000000 1.5843200949324314e-38
-56.533669 -2.078418 115.213693 -0.999317 -0.036951 0.000000 1.5843200949324314e-38
-58.051874 -3.667788 115.511059 -0.998103 -0.061561 0.000000 1.5843200949324314e-38
-57.195614 -4.978706 115.921815 -0.996284 -0.086133 0.000000 1.5843200949324314e-38
-56.727508 -6.124089 115.032452 -0.993859 -0.110653 0.000000 1.5843200949324314e-38
-56.828924 -7.118686 115.721249 -0.990831 -0.135105 0.000000 1.5843200949324314e-38
-56.863280 -9.646998 115.066368 -0.987202 -0.159476 0.000000 1.5843200949324314e-38
-56.230066 -10.012177 115.020045 -0.982973 -0.183750 0.000000 1.5843200949324314e-38
-56.286615 -11.608250 114.774659 -0.978148 -0.207912 0.000000 1.5843200949324314e-38
-55.941978 -13.320764 115.030048 -0.972728 -0.231948 0.000000 1.5843200949324314e-38
-55.141786 -14.534224 114.889443 -0.966718 -0.255843 0.000000 1.5843200949324314e-38
-55.217237 -15.219094 114.618451 -0.960122 -0.279583 0.000000 1.5843200949324314e-38
-55.297824 -17.784605 115.142771 -0.952942 -0.303153 0.000000 1.5843200949324314e-38
-53.947585 -18.789973 114.882352 -0.945184 -0.326539 0.000000 1.5843200949324314e-38
-54.030461 -20.607196 115.531361 -0.936852 -0.349727 0.000000 1.5843200949324314e-38
-53.359620 -21.340178 115.307416 -0.927951 -0.372702 0.000000 1.5843200949324314e-38
-52.339228 -22.781351 114.777901 -0.918487 -0.395451 0.000000 1.5843200949324314e-38
-52.186138 -24.045957 114.884208 -0.908465 -0.417960 0.000000 1.5843200949324314e-38
-51.951038 -25.168012 115.449135 -0.897892 -0.440216 0.000000 1.5843200949324314e-38
-50.408229 -26.774597 115.579151 -0.886774 -0.462204 0.000000 1.5843200949324314e-38
-50.594406 -27.749727 115.365213 -0.875117 -0.483911 0.000000 1.5843200949324314e-38
-49.398426 -28.600848 114.744110 -0.862929 -0.505325 0.000000 1.5843200949324314e-38
-48.888830 -30.297688 115.393304 -0.850217 -0.526432 0.000000 1.5843200949324314e-38
-48.143700 -31.360612 114.974057 -0.836989 -0.547220 0.000000 1.5843200949324314e-38
-47.176719 -32.830975 114.715697 -0.823253 -0.567675 0.000000 1.5843200949324314e-38
-57.823309 -0.445176 116.094851 -0.999924 -0.012320 0.000000 1.5843200949324314e-38
-57.005087 -1.933507 115.981807 -0.999317 -0.036951 0.000000 1.5843200949324314e-38
-57.024088 -3.378888 116.408185 -0.998103 -0.061561 0.000000 1.5843200949324314e-38
-57.242072 -5.106695 116.473847 -0.996284 -0.086133 0.000000 1.5843200949324314e-38
-56.451268 -5.786153 116.233342 -0.993859 -0.110653 0.000000 1.5843200949324314e-38
-57.568919 -7.928048 116.332485 -0.990831 -0.135105 0.000000 1.5843200949324314e-38
-56.643615 -8.894681 116.506506 -0.987202 -0.159476 0.000000 1.5843200949324314e-38
-56.263902 -10.749126 116.131750 -0.982973 -0.183750 0.000000 1.5843200949324314e-38
-56.533324 -11.869583 116.548211 -0.978148 -0.207912 0.000000 1.5843200949324314e-38
-55.576758 -14.081264 116.429812 -0.972728 -0.231948 0.000000 1.5843200949324314e-38
-55.864723 -14.524848 115.974060 -0.966718 -0.255843 0.000000 1.5843200949324314e-38
-54.952677 -16.260332 116.100797 -0.960122 -0.279583 0.000000 1.5843200949324314e-38
-54.519401 -17.586036 116.576299 -0.952942 -0.303153 0.000000 1.5843200949324314e-38
-54.092059 -18.797806 116.152610 -0.945184 -0.326539 0.000000 1.5843200949324314e-38
-53.452973 -19.847908 116.781406 -0.936852 -0.349727 0.000000 1.5843200949324314e-38
-53.847194 -21.503909 116.152051 -0.927951 -0.372702 0.000000 1.5843200949324314e-38
-52.626856 -23.009181 116.046217 -0.918487 -0.395451 0.000000 1.5843200949324314e-38
-52.192326 -24.580634 115.685178 -0.908465 -0.417960 0.000000 1.5843200949324314e-38
-51.631577 -24.500598 116.322717 -0.897892 -0.440216 0.000000 1.5843200949324314e-38
-51.071079 -26.430957 116.462173 -0.886774 -0.462204 0.000000 1.5843200949324314e-38
-50.326730 -28.010639 115.818141 -0.875117 -0.483911 0.000000 1.5843200949324314e-38
-49.317710 -29.179535 116.430930 -0.862929 -0.505325 0.000000 1.5843200949324314e-38
-48.540415 -30.343296 115.849034 -0.850217 -0.526432 0.000000 1.5843200949324314e-38
-48.165212 -31.492418 116.437194 -0.836989 -0.547220 0.000000 1.5843200949324314e-38
-47.479495 -32.808100 116.172993 -0.823253 -0.567675 0.000000 1.5843200949324314e-38
-57.284017 -1.324685 117.436058 -0.999924 -0.012320 0.000000 1.5843200949324314e-38
-57.158892 -2.248481 117.494550 -0.999317 -0.036951 0.000000 1.5843200949324314e-38
-57.296264 -4.239984 117.610379 -0.998103 -0.061561 0.000000 1.5843200949324314e-38
-57.561889 -4.674523 117.488471 -0.996284 -0.086133 0.000000 1.5843200949324314e-38
-57.058287 -6.727228 117.754570 -0.993859 -0.110653 0.000000 1.5843200949324314e-38
-56.978106 -8.232031 117.358413 -0.990831 -0.135105 0.000000 1.5843200949324314e-38
-56.562433 -9.142484 117.723026 -0.987202 -0.159476 0.000000 1.5843200949324314e-38
-56.630428 -10.215557 117.932447 -0.982973 -0.183750 0.000000 1.5843200949324314e-38
-56.770524 -11.791215 117.963511 -0.978148 -0.207912 0.000000 1.5843200949324314e-38
-55.789340 -13.362087 117.111917 -0.972728 -0.231948 0.000000 1.5843200949324314e-38
-55.680508 -14.876044 117.773727 -0.966718 -0.255843 0.000000 1.5843200949324314e-38
-54.909276 -16.137706 117.224672 -0.960122 -0.279583 0.000000 1.5843200949324314e-38
-55.433827 -17.266145 117.660638 -0.952942 -0.303153 0.000000 1.5843200949324314e-38
-54.975910 -18.630947 117.771260 -0.945184 -0.326539 0.000000 1.5843200949324314e-38
-54.696076 -20.422414 118.255985 -0.936852 -0.349727 0.000000 1.5843200949324314e-38
-53.335769 -20.750640 117.583705 -0.927951 -0.372702 0.000000 1.5843200949324314e-38
-52.476118 -22.831550 117.318319 -0.918487 -0.395451 0.000000 1.5843200949324314e-38
-52.708433 -23.870198 117.265138 -0.908465 -0.417960 0.000000 1.5843200949324314e-38
-51.907780 -25.778370 117.531678 -0.897892 -0.440216 0.000000 1.5843200949324314e-38
-50.750666 -26.644086 117.425056 -0.886774 -0.462204 0.000000 1.5843200949324314e-38
-49.849134 -28.303802 118.066699 -0.875117 -0.483911 0.000000 1.5843200949324314e-38
-50.011498 -29.085462 117.635318 -0.862929 -0.505325 0.000000 1.5843200949324314e-38
-48.581132 -30.742130 117.574754 -0.850217 -0.526432 0.000000 1.5843200949324314e-38
-48.298787 -31.158745 117.336995 -0.836989 -0.547220 0.000000 1.5843200949324314e-38
-57.580533 -0.591536 118.685589 -0.999924 -0.012320 0.000000 1.5843200949324314e-38
-57.819692 -2.624711 119.115666 -0.999317 -0.036951 0.000000 1.5843200949324314e-38
-57.147107 -3.418785 119.062359 -0.998103 -0.061561 0.000000 1.5843200949324314e-38
-57.522652 -4.685108 118.867431 -0.996284 -0.086133 0.000000 1.5843200949324314e-38
-57.272255 -7.053387 118.333917 -0.993859 -0.110653 0.000000 1.5843200949324314e-38
-56.452996 -7.262415 118.337481 -0.990831 -0.135105 0.000000 1.5843200949324314e-38
-57.359265 -8.778336 118.738589 -0.987202 -0.159476 0.000000 1.5843200949324314e-38
-56.733214 -10.935036 118.390289 -0.982973 -0.183750 0.000000 1.5843200949324314e-38
-55.848271 -11.879313 118.225192 -0.978148 -0.207912 0.000000 1.5843200949324314e-38
-56.138672 -12.861296 118.853338 -0.972728 -0.231948 0.000000 1.5843200949324314e-38
-56.001598 -14.904868 118.730029 -0.966718 -0.255843 0.000000 1.5843200949324314e-38
-54.918379 -16.104454 119.176068 -0.960122 -0.279583 0.000000 1.5843200949324314e-38
-54.711660 -18.117553 118.923341 -0.952942 -0.303153 0.000000 1.5843200949324314e-38
-54.399077 -18.926366 118.881190 -0.945184 -0.326539 0.000000 1.5843200949324314e-38
-53.939910 -20.047531 118.605873 -0.936852 -0.349727 0.000000 1.5843200949324314e-38
-53.522440 -21.096740 118.797139 -0.927951 -0.372702 0.000000 1.5843200949324314e-38
-52.686527 -22.910211 119.082124 -0.918487 -0.395451 0.000000 1.5843200949324314e-38
-52.171416 -24.132424 119.142873 -0.908465 -0.417960 0.000000 1.5843200949324314e-38
-51.726724 -25.256478 118.402126 -0.897892 -0.440216 0.000000 1.5843200949324314e-38
-51.173685 -26.341925 118.747735 -0.886774 -0.462204 0.000000 1.5843200949324314e-38
-50.288135 -27.849961 118.748212 -0.875117 -0.483911 0.000000 1.5843200949324314e-38
-49.777108 -29.195420 118.674688 -0.862929 -0.505325 0.000000 1.5843200949324314e-38
-48.971147 -30.129092 118.891599 -0.850217 -0.526432 0.000000 1.5843200949324314e-38
-47.728282 -31.255193 118.497080 -0.836989 -0.547220 0.000000 1.5843200949324314e-38
-57.287508 -0.864098 120.350346 -0.999924 -0.012320 0.000000 1.5843200949324314e-38
-57.394472 -2.486541 120.030977 -0.999317 -0.036951 0.000000 1.5843200949324314e-38
-57.270767 -3.472123 120.098660 -0.998103 -0.061561 0.000000 1.5843200949324314e-38
-57.353780 -5.120383 119.506833 -0.996284 -0.086133 0.000000 1.5843200949324314e-38
-56.972005 -6.210223 120.573014 -0.993859 -0.110653 0.000000 1.5843200949324314e-38
-56.985230 -7.685297 120.045294 -0.990831 -0.135105 0.000000 1.5843200949324314e-38
-56.504190 -9.324170 120.045185 -0.987202 -0.159476 0.000000 1.5843200949324314e-38
-56.512785 -10.342529 120.666527 -0.982973 -0.183750 0.000000 1.5843200949324314e-38
-56.144195 -12.388340 119.648363 -0.978148 -0.207912 0.000000 1.5843200949324314e-38
-55.615327 -13.836157 120.094947 -0.972728 -0.231948 0.000000 1.5843200949324314e-38
-55.805501 -13.901562 119.636325 -0.966718 -0.255843 0.000000 1.5843200949324314e-38
-55.405577 -15.841597 119.930460 -0.960122 -0.279583 0.000000 1.5843200949324314e-38
-55.009924 -17.720930 119.802929 -0.952942 -0.303153 0.000000 1.5843200949324314e-38
-54.619942 -18.779782 120.577532 -0.945184 -0.326539 0.000000 1.5843200949324314e-38
-53.250233 -19.495706 119.960944 -0.936852 -0.349727 0.000000 1.5843200949324314e-38
-53.142433 -21.392273 119.753828 -0.927951 -0.372702 0.000000 1.5843200949324314e-38
-53.354262 -23.267070 120.046531 -0.918487 -0.395451 0.000000 1.5843200949324314e-38
-52.645833 -24.271358 120.110700 -0.908465 -0.417960 0.000000 1.5843200949324314e-38
-52.328467 -24.872048 120.015858 -0.897892 -0.440216 0.000000 1.5843200949324314e-38
-51.102414 -26.768237 120.141872 -0.886774 -0.462204 0.000000 1.5843200949324314e-38
-50.608648 -27.428693 120.260274 -0.875117 -0.483911 0.000000 1.5843200949324314e-38
-49.835760 -29.115044 120.363897 -0.862929 -0.505325 0.000000 1.5843200949324314e-38
-48.765757 -30.337710 119.776675 -0.850217 -0.526432 0.000000 1.5843200949324314e-38
-48.160580 -31.589185 120.092713 -0.836989 -0.547220 0.000000 1.5843200949324314e-38
