# .PCD v0.7 - Point Cloud Data file format
VERSION 0.7
FIELDS x y z normal_x normal_y normal_z rgb
SIZE 4 4 4 4 4 4 4
TYPE F F F F F F F
COUNT 1 1 1 1 1 1 1
WIDTH 293
HEIGHT 1
VIEWPOINT 0 0 0 1 0 0 0
POINTS 293
DATA ascii
13.929950 46.551601 51.861348 0.285492 0.958381 0.000000 1.7041734328458258e-38
14.862911 46.063785 52.756720 0.309017 0.951057 0.000000 1.7041734328458258e-38
13.913055 46.383267 53.373290 0.285492 0.958381 0.000000 1.7041734328458258e-38
12.727636 46.879832 52.935313 0.261793 0.965124 0.000000 1.7041734328458258e-38
12.009772 47.493989 52.991474 0.237935 0.971281 0.000000 1.7041734328458258e-38
16.398195 46.103338 54.659931 0.332355 0.943154 0.000000 1.7041734328458258e-38
15.067625 46.213468 54.577488 0.309017 0.951057 0.000000 1.7041734328458258e-38
14.148219 46.831437 54.525947 0.285492 0.958381 0.000000 1.7041734328458258e-38
13.092761 47.189434 54.298888 0.261793 0.965124 0.000000 1.7041734328458258e-38
11.424803 47.429983 54.893457 0.237935 0.971281 0.000000 1.7041734328458258e-38
10.404127 47.886254 54.335646 0.213933 0.976848 0.000000 1.7041734328458258e-38
9.160251 47.757922 54.463072 0.189801 0.981823 0.000000 1.7041734328458258e-38
17.003781 46.005688 55.397847 0.355491 0.934680 0.000000 1.7041734328458258e-38
15.842207 46.231781 55.754037 0.332355 0.943154 0.000000 1.7041734328458258e-38
15.313215 46.737332 55.651845 0.309017 0.951057 0.000000 1.7041734328458258e-38
13.870859 47.296186 55.617059 0.285492 0.958381 0.000000 1.7041734328458258e-38
12.844650 47.748791 55.907673 0.261793 0.965124 0.000000 1.7041734328458258e-38
11.639447 47.641945 55.569652 0.237935 0.971281 0.000000 1.7041734328458258e-38
9.908783 48.342772 55.464661 0.213933 0.976848 0.000000 1.7041734328458258e-38
9.585421 48.270672 56.087603 0.189801 0.981823 0.000000 1.7041734328458258e-38
8.296091 48.747027 55.492480 0.165554 0.986201 0.000000 1.7041734328458258e-38
6.554892 48.703415 55.094948 0.141206 0.989980 0.000000 1.7041734328458258e-38
17.926341 45.883622 56.897925 0.355491 0.934680 0.000000 1.7041734328458258e-38
16.254458 46.011027 56.721055 0.332355 0.943154 0.000000 1.7041734328458258e-38
14.938167 47.076270 56.417782 0.309017 0.951057 0.000000 1.7041734328458258e-38
13.807535 47.181864 57.138265 0.285492 0.958381 0.000000 1.7041734328458258e-38
13.764171 47.761684 56.597583 0.261793 0.965124 0.000000 1.7041734328458258e-38
11.548698 48.172287 56.503415 0.237935 0.971281 0.000000 1.7041734328458258e-38
10.895897 48.331879 56.869695 0.213933 0.976848 0.000000 1.7041734328458258e-38
8.869455 48.771667 56.678729 0.189801 0.981823 0.000000 1.7041734328458258e-38
8.223376 48.664657 56.432076 0.165554 0.986201 0.000000 1.7041734328458258e-38
6.905446 48.535400 56.711611 0.141206 0.989980 0.000000 1.7041734328458258e-38
5.897634 49.266218 56.901742 0.116773 0.993159 0.000000 1.7041734328458258e-38
17.757083 46.476272 58.046644 0.355491 0.934680 0.000000 1.7041734328458258e-38
15.877109 47.462397 57.828072 0.332355 0.943154 0.000000 1.7041734328458258e-38
15.420125 46.987493 58.458731 0.309017 0.951057 0.000000 1.7041734328458258e-38
14.056753 47.344410 58.322877 0.285492 0.958381 0.000000 1.7041734328458258e-38
12.612706 47.780706 58.351403 0.261793 0.965124 0.000000 1.7041734328458258e-38
12.262153 47.921571 57.960862 0.237935 0.971281 0.000000 1.7041734328458258e-38
10.724377 47.887405 58.551617 0.213933 0.976848 0.000000 1.7041734328458258e-38
9.121077 48.602309 58.222583 0.189801 0.981823 0.000000 1.7041734328458258e-38
8.232767 48.661762 58.660768 0.165554 0.986201 0.000000 1.7041734328458258e-38
6.236338 48.801841 57.953297 0.141206 0.989980 0.000000 1.7041734328458258e-38
5.511193 49.662074 57.646827 0.116773 0.993159 0.000000 1.7041734328458258e-38
5.047051 49.340606 57.736047 0.092268 0.995734 0.000000 1.7041734328458258e-38
2.730469 49.457339 57.933739 0.067708 0.997705 0.000000 1.7041734328458258e-38
17.879530 47.176698 59.383320 0.355491 0.934680 0.000000 1.7041734328458258e-38
16.456381 46.889288 59.070315 0.332355 0.943154 0.000000 1.7041734328458258e-38
15.655751 47.106896 59.621242 0.309017 0.951057 0.000000 1.7041734328458258e-38
14.172858 47.273700 59.827925 0.285492 0.958381 0.000000 1.7041734328458258e-38
12.045103 48.114464 59.451631 0.261793 0.965124 0.000000 1.7041734328458258e-38
11.176049 48.578468 59.180507 0.237935 0.971281 0.000000 1.7041734328458258e-38
10.596117 49.126683 59.424259 0.213933 0.976848 0.000000 1.7041734328458258e-38
9.361835 48.920750 59.914274 0.189801 0.981823 0.000000 1.7041734328458258e-38
8.378972 48.925136 59.234948 0.165554 0.986201 0.000000 1.7041734328458258e-38
6.686137 49.243266 59.863811 0.141206 0.989980 0.000000 1.7041734328458258e-38
5.774553 49.136212 59.510722 0.116773 0.993159 0.000000 1.7041734328458258e-38
4.484439 49.834202 59.308724 0.092268 0.995734 0.000000 1.7041734328458258e-38
3.810758 49.490896 59.031895 0.067708 0.997705 0.000000 1.7041734328458258e-38
2.431372 49.231122 59.329863 0.043107 0.999070 0.000000 1.7041734328458258e-38
1.161885 49.211716 59.400836 0.018479 0.999829 0.000000 1.7041734328458258e-38
18.371839 47.615443 60.093233 0.355491 0.934680 0.000000 1.7041734328458258e-38
16.672461 47.683654 60.894117 0.332355 0.943154 0.000000 1.7041734328458258e-38
15.991242 47.779913 60.008719 0.309017 0.951057 0.000000 1.7041734328458258e-38
14.700641 48.226097 61.058460 0.285492 0.958381 0.000000 1.7041734328458258e-38
12.661240 48.008620 60.623494 0.261793 0.965124 0.000000 1.7041734328458258e-38
12.325585 49.165488 60.400833 0.237935 0.971281 0.000000 1.7041734328458258e-38
10.600704 49.822640 60.452723 0.213933 0.976848 0.000000 1.7041734328458258e-38
9.715710 49.074815 60.760985 0.189801 0.981823 0.000000 1.7041734328458258e-38
8.037900 49.178459 60.507322 0.165554 0.986201 0.000000 1.7041734328458258e-38
6.913892 49.528007 60.776312 0.141206 0.989980 0.000000 1.7041734328458258e-38
6.419930 49.601399 60.322017 0.116773 0.993159 0.000000 1.7041734328458258e-38
4.627477 49.652235 60.128017 0.092268 0.995734 0.000000 1.7041734328458258e-38
3.712903 50.030580 60.672105 0.067708 0.997705 0.000000 1.7041734328458258e-38
1.582413 49.899431 60.193794 0.043107 0.999070 0.000000 1.7041734328458258e-38
0.920049 50.153187 60.658636 0.018479 0.999829 0.000000 1.7041734328458258e-38
-0.508829 49.864606 60.560592 -0.006160 0.999981 0.000000 1.7041734328458258e-38
18.236011 46.823995 61.729728 0.355491 0.934680 0.000000 1.7041734328458258e-38
17.107221 47.817244 61.672780 0.332355 0.943154 0.000000 1.7041734328458258e-38
15.427196 47.372396 61.239017 0.309017 0.951057 0.000000 1.7041734328458258e-38
14.607670 48.530332 61.962833 0.285492 0.958381 0.000000 1.7041734328458258e-38
13.241160 48.395869 62.296110 0.261793 0.965124 0.000000 1.7041734328458258e-38
11.448213 48.777260 61.903881 0.237935 0.971281 0.000000 1.7041734328458258e-38
10.774448 49.197586 61.699895 0.213933 0.976848 0.000000 1.7041734328458258e-38
9.721456 49.084107 61.812468 0.189801 0.981823 0.000000 1.7041734328458258e-38
8.467562 49.569469 61.857106 0.165554 0.986201 0.000000 1.7041734328458258e-38
7.176391 49.331332 61.355480 0.141206 0.989980 0.000000 1.7041734328458258e-38
5.921344 49.837144 61.691264 0.116773 0.993159 0.000000 1.7041734328458258e-38
4.817726 49.852720 61.131698 0.092268 0.995734 0.000000 1.7041734328458258e-38
3.907169 50.611593 62.214821 0.067708 0.997705 0.000000 1.7041734328458258e-38
1.834803 50.294177 61.475145 0.043107 0.999070 0.000000 1.7041734328458258e-38
0.912688 50.251214 61.532253 0.018479 0.999829 0.000000 1.7041734328458258e-38
-0.159255 50.285638 62.372480 -0.006160 0.999981 0.000000 1.7041734328458258e-38
-1.525235 49.575961 61.312032 -0.030795 0.999526 0.000000 1.7041734328458258e-38
-2.162064 50.179126 61.927673 -0.055411 0.998464 0.000000 1.7041734328458258e-38
18.499559 47.231353 63.684648 0.355491 0.934680 0.000000 1.7041734328458258e-38
16.490248 48.099365 63.221991 0.332355 0.943154 0.000000 1.7041734328458258e-38
15.700867 48.544689 62.901824 0.309017 0.951057 0.000000 1.7041734328458258e-38
14.831030 48.437924 62.900152 0.285492 0.958381 0.000000 1.7041734328458258e-38
12.850450 49.317258 63.435162 0.261793 0.965124 0.000000 1.7041734328458258e-38
11.897673 49.316859 63.130763 0.237935 0.971281 0.000000 1.7041734328458258e-38
10.720553 49.724403 62.905159 0.213933 0.976848 0.000000 1.7041734328458258e-38
8.947696 49.764656 63.112813 0.189801 0.981823 0.000000 1.7041734328458258e-38
8.200138 49.640544 62.624964 0.165554 0.986201 0.000000 1.7041734328458258e-38
7.037147 49.836966 63.382102 0.141206 0.989980 0.000000 1.7041734328458258e-38
6.064421 50.115026 63.249599 0.116773 0.993159 0.000000 1.7041734328458258e-38
4.637146 50.309890 63.076341 0.092268 0.995734 0.000000 1.7041734328458258e-38
3.957865 50.683676 63.003239 0.067708 0.997705 0.000000 1.7041734328458258e-38
2.449634 50.816906 63.170699 0.043107 0.999070 0.000000 1.7041734328458258e-38
0.836584 50.479579 62.770240 0.018479 0.999829 0.000000 1.7041734328458258e-38
-0.257586 50.422683 62.961768 -0.006160 0.999981 0.000000 1.7041734328458258e-38
-1.371228 51.088756 63.205044 -0.030795 0.999526 0.000000 1.7041734328458258e-38
-2.835730 50.523222 63.434173 -0.055411 0.998464 0.000000 1.7041734328458258e-38
-3.931927 50.502546 63.172155 -0.079994 0.996795 0.000000 1.7041734328458258e-38
-5.718416 50.446518 62.830218 -0.104528 0.994522 0.000000 1.7041734328458258e-38
17.918020 47.502831 64.248393 0.355491 0.934680 0.000000 1.7041734328458258e-38
16.907566 48.041570 64.181426 0.332355 0.943154 0.000000 1.7041734328458258e-38
15.677120 48.415604 64.482203 0.309017 0.951057 0.000000 1.7041734328458258e-38
14.493952 48.465991 64.355833 0.285492 0.958381 0.000000 1.7041734328458258e-38
13.512839 48.675031 63.933457 0.261793 0.965124 0.000000 1.7041734328458258e-38
11.899950 49.330342 63.670823 0.237935 0.971281 0.000000 1.7041734328458258e-38
11.050372 49.616369 63.624567 0.213933 0.976848 0.000000 1.7041734328458258e-38
9.317123 49.833886 63.798136 0.189801 0.981823 0.000000 1.7041734328458258e-38
8.709280 50.202734 64.533354 0.165554 0.986201 0.000000 1.7041734328458258e-38
6.871394 50.462276 64.131704 0.141206 0.989980 0.000000 1.7041734328458258e-38
5.879959 50.606332 64.308877 0.116773 0.993159 0.000000 1.7041734328458258e-38
4.934220 50.673167 64.190959 0.092268 0.995734 0.000000 1.7041734328458258e-38
3.695705 51.047762 64.356176 0.067708 0.997705 0.000000 1.7041734328458258e-38
2.592729 50.730457 64.291516 0.043107 0.999070 0.000000 1.7041734328458258e-38
0.940936 50.800732 64.236734 0.018479 0.999829 0.000000 1.7041734328458258e-38
-0.527681 50.549152 64.363125 -0.006160 0.999981 0.000000 1.7041734328458258e-38
-1.206376 51.068498 64.446322 -0.030795 0.999526 0.000000 1.7041734328458258e-38
-2.442832 50.776005 64.033253 -0.055411 0.998464 0.000000 1.7041734328458258e-38
-4.172410 50.667203 64.176170 -0.079994 0.996795 0.000000 1.7041734328458258e-38
-5.132080 50.850463 63.810260 -0.104528 0.994522 0.000000 1.7041734328458258e-38
-6.603036 49.552563 64.302425 -0.128999 0.991645 0.000000 1.7041734328458258e-38
-7.830539 50.779450 64.772774 -0.153392 0.988165 0.000000 1.7041734328458258e-38
19.253463 47.150151 65.565791 0.378411 0.925638 0.000000 1.7041734328458258e-38
18.044898 48.110183 66.132647 0.355491 0.934680 0.000000 1.7041734328458258e-38
16.981526 48.347156 65.858573 0.332355 0.943154 0.000000 1.7041734328458258e-38
15.820000 48.325357 65.444178 0.309017 0.951057 0.000000 1.7041734328458258e-38
14.709148 49.081087 65.029354 0.285492 0.958381 0.000000 1.7041734328458258e-38
13.243805 49.086329 65.831698 0.261793 0.965124 0.000000 1.7041734328458258e-38
11.946450 49.483641 65.418183 0.237935 0.971281 0.000000 1.7041734328458258e-38
11.167073 50.197066 65.715082 0.213933 0.976848 0.000000 1.7041734328458258e-38
10.028712 50.531168 65.023918 0.189801 0.981823 0.000000 1.7041734328458258e-38
8.635591 50.273282 65.189986 0.165554 0.986201 0.000000 1.7041734328458258e-38
7.118191 50.796569 66.003584 0.141206 0.989980 0.000000 1.7041734328458258e-38
5.562296 50.925221 66.156699 0.116773 0.993159 0.000000 1.7041734328458258e-38
5.263144 49.835285 66.220674 0.092268 0.995734 0.000000 1.7041734328458258e-38
3.747461 50.279759 65.337312 0.067708 0.997705 0.000000 1.7041734328458258e-38
2.579608 51.149812 65.394824 0.043107 0.999070 0.000000 1.7041734328458258e-38
0.964012 51.244266 65.393230 0.018479 0.999829 0.000000 1.7041734328458258e-38
-0.352842 51.357320 65.356765 -0.006160 0.999981 0.000000 1.7041734328458258e-38
-1.980392 50.873790 65.300337 -0.030795 0.999526 0.000000 1.7041734328458258e-38
-3.012389 50.492483 65.637697 -0.055411 0.998464 0.000000 1.7041734328458258e-38
-3.826563 50.681972 65.371420 -0.079994 0.996795 0.000000 1.7041734328458258e-38
-5.396493 50.535951 65.862145 -0.104528 0.994522 0.000000 1.7041734328458258e-38
-6.857067 50.504579 65.338030 -0.128999 0.991645 0.000000 1.7041734328458258e-38
19.549324 47.553240 66.756313 0.378411 0.925638 0.000000 1.7041734328458258e-38
18.607321 47.512156 66.604093 0.355491 0.934680 0.000000 1.7041734328458258e-38
17.182802 48.869475 66.700373 0.332355 0.943154 0.000000 1.7041734328458258e-38
15.783234 48.429740 66.641668 0.309017 0.951057 0.000000 1.7041734328458258e-38
14.866448 49.666473 66.716138 0.285492 0.958381 0.000000 1.7041734328458258e-38
13.197856 49.559714 66.319720 0.261793 0.965124 0.000000 1.7041734328458258e-38
12.583634 49.485599 66.898261 0.237935 0.971281 0.000000 1.7041734328458258e-38
11.070655 50.328903 66.880801 0.213933 0.976848 0.000000 1.7041734328458258e-38
9.743101 50.524484 67.054531 0.189801 0.981823 0.000000 1.7041734328458258e-38
9.036641 50.289876 66.252409 0.165554 0.986201 0.000000 1.7041734328458258e-38
6.783893 50.270645 66.444219 0.141206 0.989980 0.000000 1.7041734328458258e-38
5.595834 50.852864 67.060660 0.116773 0.993159 0.000000 1.7041734328458258e-38
4.923982 50.923303 66.643366 0.092268 0.995734 0.000000 1.7041734328458258e-38
4.078612 51.389577 66.855936 0.067708 0.997705 0.000000 1.7041734328458258e-38
2.249063 51.194447 67.405065 0.043107 0.999070 0.000000 1.7041734328458258e-38
0.891548 51.364957 66.309479 0.018479 0.999829 0.000000 1.7041734328458258e-38
-0.507093 51.162743 66.950012 -0.006160 0.999981 0.000000 1.7041734328458258e-38
-1.813243 51.319082 66.622217 -0.030795 0.999526 0.000000 1.7041734328458258e-38
-3.174404 50.907683 66.752105 -0.055411 0.998464 0.000000 1.7041734328458258e-38
-4.075101 51.106322 66.554265 -0.079994 0.996795 0.000000 1.7041734328458258e-38
19.069256 48.039501 68.222897 0.378411 0.925638 0.000000 1.7041734328458258e-38
18.730563 48.673643 67.913928 0.355491 0.934680 0.000000 1.7041734328458258e-38
16.925281 48.097247 67.711841 0.332355 0.943154 0.000000 1.7041734328458258e-38
15.837687 48.425091 67.718038 0.309017 0.951057 0.000000 1.7041734328458258e-38
14.697167 49.689121 67.826113 0.285492 0.958381 0.000000 1.7041734328458258e-38
13.538333 50.327929 67.499424 0.261793 0.965124 0.000000 1.7041734328458258e-38
12.595427 50.200530 68.421196 0.237935 0.971281 0.000000 1.7041734328458258e-38
11.322010 50.174427 68.041778 0.213933 0.976848 0.000000 1.7041734328458258e-38
9.349359 50.473015 68.050012 0.189801 0.981823 0.000000 1.7041734328458258e-38
8.628235 51.092498 68.516115 0.165554 0.986201 0.000000 1.7041734328458258e-38
7.150950 51.393994 68.121428 0.141206 0.989980 0.000000 1.7041734328458258e-38
5.629423 51.169347 68.076001 0.116773 0.993159 0.000000 1.7041734328458258e-38
4.507017 51.035110 67.718990 0.092268 0.995734 0.000000 1.7041734328458258e-38
3.328451 51.189530 68.410359 0.067708 0.997705 0.000000 1.7041734328458258e-38
1.487552 51.552705 68.199731 0.043107 0.999070 0.000000 1.7041734328458258e-38
0.664059 51.488878 67.938606 0.018479 0.999829 0.000000 1.7041734328458258e-38
-0.340865 51.765159 68.213251 -0.006160 0.999981 0.000000 1.7041734328458258e-38
-1.768010 51.091464 68.090758 -0.030795 0.999526 0.000000 1.7041734328458258e-38
-3.054420 51.329702 68.108271 -0.055411 0.998464 0.000000 1.7041734328458258e-38
19.976185 48.007742 68.792909 0.378411 0.925638 0.000000 1.7041734328458258e-38
18.016910 48.781519 69.224329 0.355491 0.934680 0.000000 1.7041734328458258e-38
17.100344 49.197675 69.232895 0.332355 0.943154 0.000000 1.7041734328458258e-38
15.649758 48.930180 69.466604 0.309017 0.951057 0.000000 1.7041734328458258e-38
15.398427 49.899790 69.163784 0.285492 0.958381 0.000000 1.7041734328458258e-38
13.493885 50.011770 68.672360 0.261793 0.965124 0.000000 1.7041734328458258e-38
12.333021 50.491409 69.810232 0.237935 0.971281 0.000000 1.7041734328458258e-38
11.409796 51.183566 69.782525 0.213933 0.976848 0.000000 1.7041734328458258e-38
10.250852 50.870135 69.381807 0.189801 0.981823 0.000000 1.7041734328458258e-38
8.075291 51.128186 69.448199 0.165554 0.986201 0.000000 1.7041734328458258e-38
7.230026 50.822382 69.753191 0.141206 0.989980 0.000000 1.7041734328458258e-38
6.171107 51.965712 69.501003 0.116773 0.993159 0.000000 1.7041734328458258e-38
5.190397 51.931877 69.074524 0.092268 0.995734 0.000000 1.7041734328458258e-38
3.354850 51.556543 68.988443 0.067708 0.997705 0.000000 1.7041734328458258e-38
2.762624 51.768465 69.416203 0.043107 0.999070 0.000000 1.7041734328458258e-38
0.557971 52.040667 69.155515 0.018479 0.999829 0.000000 1.7041734328458258e-38
0.059182 51.597331 69.677917 -0.006160 0.999981 0.000000 1.7041734328458258e-38
19.705024 48.428530 70.532106 0.378411 0.925638 0.000000 1.7041734328458258e-38
17.946155 48.655012 70.534645 0.355491 0.934680 0.000000 1.7041734328458258e-38
17.565493 48.977584 70.222074 0.332355 0.943154 0.000000 1.7041734328458258e-38
15.788443 49.924553 70.602240 0.309017 0.951057 0.000000 1.7041734328458258e-38
15.274079 50.333812 70.292401 0.285492 0.958381 0.000000 1.7041734328458258e-38
13.377378 50.185521 70.699785 0.261793 0.965124 0.000000 1.7041734328458258e-38
11.961374 50.680697 70.636738 0.237935 0.971281 0.000000 1.7041734328458258e-38
10.795183 50.506840 70.648813 0.213933 0.976848 0.000000 1.7041734328458258e-38
10.498911 51.004336 70.614389 0.189801 0.981823 0.000000 1.7041734328458258e-38
8.433711 51.391576 70.327849 0.165554 0.986201 0.000000 1.7041734328458258e-38
7.270507 52.252042 70.547586 0.141206 0.989980 0.000000 1.7041734328458258e-38
5.607451 51.875565 70.854263 0.116773 0.993159 0.000000 1.7041734328458258e-38
5.004178 51.763706 70.240256 0.092268 0.995734 0.000000 1.7041734328458258e-38
3.255605 51.862385 70.405418 0.067708 0.997705 0.000000 1.7041734328458258e-38
2.075743 52.354950 70.791814 0.043107 0.999070 0.000000 1.7041734328458258e-38
1.341717 51.793329 70.239225 0.018479 0.999829 0.000000 1.7041734328458258e-38
19.587848 48.476694 71.679909 0.378411 0.925638 0.000000 1.7041734328458258e-38
18.657943 48.549806 71.750617 0.355491 0.934680 0.000000 1.7041734328458258e-38
17.791173 49.399680 71.871050 0.332355 0.943154 0.000000 1.7041734328458258e-38
16.273616 49.559453 72.242099 0.309017 0.951057 0.000000 1.7041734328458258e-38
15.030145 50.149065 71.958669 0.285492 0.958381 0.000000 1.7041734328458258e-38
13.966481 50.074682 71.769486 0.261793 0.965124 0.000000 1.7041734328458258e-38
13.107754 51.266790 71.720657 0.237935 0.971281 0.000000 1.7041734328458258e-38
11.400976 50.963223 71.858677 0.213933 0.976848 0.000000 1.7041734328458258e-38
9.783670 51.178631 71.575021 0.189801 0.981823 0.000000 1.7041734328458258e-38
9.158425 51.405935 72.095109 0.165554 0.986201 0.000000 1.7041734328458258e-38
7.251541 51.583786 71.869399 0.141206 0.989980 0.000000 1.7041734328458258e-38
5.714250 52.113170 71.711738 0.116773 0.993159 0.000000 1.7041734328458258e-38
4.657766 51.818750 72.343978 0.092268 0.995734 0.000000 1.7041734328458258e-38
3.528897 52.128479 72.014463 0.067708 0.997705 0.000000 1.7041734328458258e-38
20.104546 48.174427 73.090922 0.378411 0.925638 0.000000 1.7041734328458258e-38
18.387346 48.817868 72.761048 0.355491 0.934680 0.000000 1.7041734328458258e-38
17.590425 48.839867 73.040301 0.332355 0.943154 0.000000 1.7041734328458258e-38
16.237536 49.640981 73.044354 0.309017 0.951057 0.000000 1.7041734328458258e-38
14.624802 50.303459 72.614394 0.285492 0.958381 0.000000 1.7041734328458258e-38
14.359656 50.929022 73.063631 0.261793 0.965124 0.000000 1.7041734328458258e-38
12.205435 50.911191 72.919433 0.237935 0.971281 0.000000 1.7041734328458258e-38
11.304409 51.405707 73.057153 0.213933 0.976848 0.000000 1.7041734328458258e-38
10.067561 51.496343 73.092430 0.189801 0.981823 0.000000 1.7041734328458258e-38
8.500470 51.458110 73.544055 0.165554 0.986201 0.000000 1.7041734328458258e-38
7.538357 52.517414 72.907268 0.141206 0.989980 0.000000 1.7041734328458258e-38
6.853974 52.166343 73.333479 0.116773 0.993159 0.000000 1.7041734328458258e-38
4.854096 52.327157 72.955131 0.092268 0.995734 0.000000 1.7041734328458258e-38
20.002246 48.743271 74.670168 0.378411 0.925638 0.000000 1.7041734328458258e-38
19.137730 49.537483 74.590009 0.355491 0.934680 0.000000 1.7041734328458258e-38
17.415265 49.809844 74.151068 0.332355 0.943154 0.000000 1.7041734328458258e-38
15.995098 50.173332 74.201831 0.309017 0.951057 0.000000 1.7041734328458258e-38
14.993071 50.516986 74.245044 0.285492 0.958381 0.000000 1.7041734328458258e-38
14.070516 50.714962 73.842914 0.261793 0.965124 0.000000 1.7041734328458258e-38
12.749553 51.471930 74.334190 0.237935 0.971281 0.000000 1.7041734328458258e-38
10.938901 51.469069 74.312318 0.213933 0.976848 0.000000 1.7041734328458258e-38
9.687573 51.541468 74.182832 0.189801 0.981823 0.000000 1.7041734328458258e-38
9.084421 52.069211 74.055045 0.165554 0.986201 0.000000 1.7041734328458258e-38
7.385200 52.001068 74.103202 0.141206 0.989980 0.000000 1.7041734328458258e-38
19.578720 48.786180 75.016885 0.378411 0.925638 0.000000 1.7041734328458258e-38
19.055279 49.737448 75.466034 0.355491 0.934680 0.000000 1.7041734328458258e-38
17.520604 50.166343 75.673971 0.332355 0.943154 0.000000 1.7041734328458258e-38
16.067703 50.107758 75.675881 0.309017 0.951057 0.000000 1.7041734328458258e-38
15.199107 50.932655 75.195740 0.285492 0.958381 0.000000 1.7041734328458258e-38
13.637499 51.246413 75.259330 0.261793 0.965124 0.000000 1.7041734328458258e-38
12.143655 51.233239 75.402376 0.237935 0.971281 0.000000 1.7041734328458258e-38
11.839032 51.476559 75.445412 0.213933 0.976848 0.000000 1.7041734328458258e-38
10.663618 51.663477 75.662064 0.189801 0.981823 0.000000 1.7041734328458258e-38
8.553458 52.343850 76.164310 0.165554 0.986201 0.000000 1.7041734328458258e-38
18.977755 49.672722 76.514856 0.355491 0.934680 0.000000 1.7041734328458258e-38
17.599215 50.445375 76.494540 0.332355 0.943154 0.000000 1.7041734328458258e-38
15.784408 50.712997 77.149783 0.309017 0.951057 0.000000 1.7041734328458258e-38
14.865864 51.370866 76.857231 0.285492 0.958381 0.000000 1.7041734328458258e-38
13.574122 51.110079 76.476770 0.261793 0.965124 0.000000 1.7041734328458258e-38
12.703092 51.594214 77.032701 0.237935 0.971281 0.000000 1.7041734328458258e-38
11.630864 51.481056 76.275343 0.213933 0.976848 0.000000 1.7041734328458258e-38
17.752065 50.377657 77.885678 0.332355 0.943154 0.000000 1.7041734328458258e-38
16.755518 51.407828 78.025946 0.309017 0.951057 0.000000 1.7041734328458258e-38
15.628174 51.040893 77.733674 0.285492 0.958381 0.000000 1.7041734328458258e-38
13.741738 51.256431 77.850084 0.261793 0.965124 0.000000 1.7041734328458258e-38
12.970169 52.161560 77.785249 0.237935 0.971281 0.000000 1.7041734328458258e-38
16.381224 50.994766 79.006304 0.309017 0.951057 0.000000 1.7041734328458258e-38
15.388513 51.195207 78.946671 0.285492 0.958381 0.000000 1.7041734328458258e-38
