# .PCD v0.7 - Point Cloud Data file format
VERSION 0.7
FIELDS x y z normal_x normal_y normal_z rgb
SIZE 4 4 4 4 4 4 4
TYPE F F F F F F F
COUNT 1 1 1 1 1 1 1
WIDTH 237
HEIGHT 1
VIEWPOINT 0 0 0 1 0 0 0
POINTS 237
DATA ascii
-50.807660 10.481053 71.308420 -0.978148 0.207912 0.000000 1.6580765988230895e-38
-51.431837 9.572148 71.020672 -0.982973 0.183750 0.000000 1.6580765988230895e-38
-50.822724 13.213538 71.225476 -0.966718 0.255843 0.000000 1.6580765988230895e-38
-50.995089 11.964106 71.734108 -0.972728 0.231948 0.000000 1.6580765988230895e-38
-50.944875 11.381458 71.881052 -0.978148 0.207912 0.000000 1.6580765988230895e-38
-51.676590 9.804787 72.172759 -0.982973 0.183750 0.000000 1.6580765988230895e-38
-51.938480 8.016632 71.326259 -0.987202 0.159476 0.000000 1.6580765988230895e-38
-50.288202 17.237377 72.383684 -0.945184 0.326539 0.000000 1.6580765988230895e-38
-49.937221 15.636530 73.387196 -0.952942 0.303153 0.000000 1.6580765988230895e-38
-50.367031 14.693203 73.125597 -0.960122 0.279583 0.000000 1.6580765988230895e-38
-50.999357 13.782916 73.211942 -0.966718 0.255843 0.000000 1.6580765988230895e-38
-51.220858 11.874282 72.877626 -0.972728 0.231948 0.000000 1.6580765988230895e-38
-51.386656 10.590287 72.852632 -0.978148 0.207912 0.000000 1.6580765988230895e-38
-51.785169 9.586479 72.931413 -0.982973 0.183750 0.000000 1.6580765988230895e-38
-51.683289 8.382114 73.110311 -0.987202 0.159476 0.000000 1.6580765988230895e-38
-48.696850 19.222153 74.663003 -0.927951 0.372702 0.000000 1.6580765988230895e-38
-49.358984 18.267365 74.229953 -0.936852 0.349727 0.000000 1.6580765988230895e-38
-49.430544 16.578816 74.534696 -0.945184 0.326539 0.000000 1.6580765988230895e-38
-49.889588 15.888754 74.205329 -0.952942 0.303153 0.000000 1.6580765988230895e-38
-50.585595 14.962250 74.007885 -0.960122 0.279583 0.000000 1.6580765988230895e-38
-50.978726 13.460442 74.430458 -0.966718 0.255843 0.000000 1.6580765988230895e-38
-50.488642 12.010271 74.250455 -0.972728 0.231948 0.000000 1.6580765988230895e-38
-51.805267 10.816385 73.904017 -0.978148 0.207912 0.000000 1.6580765988230895e-38
-52.290615 10.043837 74.333627 -0.982973 0.183750 0.000000 1.6580765988230895e-38
-52.026586 8.146859 74.204315 -0.987202 0.159476 0.000000 1.6580765988230895e-38
-47.946451 23.306283 75.182597 -0.897892 0.440216 0.000000 1.6580765988230895e-38
-48.467831 21.549297 75.309420 -0.908465 0.417960 0.000000 1.6580765988230895e-38
-48.314004 20.345736 75.626733 -0.918487 0.395451 0.000000 1.6580765988230895e-38
-49.333436 19.417068 75.567080 -0.927951 0.372702 0.000000 1.6580765988230895e-38
-49.216946 18.968839 75.549027 -0.936852 0.349727 0.000000 1.6580765988230895e-38
-50.072414 17.409019 76.207006 -0.945184 0.326539 0.000000 1.6580765988230895e-38
-50.549960 16.393649 75.286206 -0.952942 0.303153 0.000000 1.6580765988230895e-38
-51.091536 15.335706 75.464715 -0.960122 0.279583 0.000000 1.6580765988230895e-38
-51.124302 13.712000 75.196123 -0.966718 0.255843 0.000000 1.6580765988230895e-38
-51.641401 12.089957 75.563571 -0.972728 0.231948 0.000000 1.6580765988230895e-38
-51.686904 10.829616 76.072247 -0.978148 0.207912 0.000000 1.6580765988230895e-38
-52.060638 9.761119 75.866965 -0.982973 0.183750 0.000000 1.6580765988230895e-38
-52.538832 8.288630 75.549569 -0.987202 0.159476 0.000000 1.6580765988230895e-38
-47.479496 25.719757 76.470545 -0.875117 0.483911 0.000000 1.6580765988230895e-38
-46.753310 24.466913 76.793862 -0.886774 0.462204 0.000000 1.6580765988230895e-38
-47.802177 22.945016 76.710186 -0.897892 0.440216 0.000000 1.6580765988230895e-38
-48.706181 21.812817 76.371757 -0.908465 0.417960 0.000000 1.6580765988230895e-38
-49.196833 20.965277 76.583433 -0.918487 0.395451 0.000000 1.6580765988230895e-38
-49.259254 19.346453 76.625523 -0.927951 0.372702 0.000000 1.6580765988230895e-38
-49.962200 18.657391 76.775839 -0.936852 0.349727 0.000000 1.6580765988230895e-38
-50.213976 17.066860 76.708438 -0.945184 0.326539 0.000000 1.6580765988230895e-38
-50.827367 16.514631 76.734126 -0.952942 0.303153 0.000000 1.6580765988230895e-38
-51.031376 14.482746 76.523910 -0.960122 0.279583 0.000000 1.6580765988230895e-38
-51.328339 13.581013 76.674175 -0.966718 0.255843 0.000000 1.6580765988230895e-38
-52.251667 12.089768 76.618554 -0.972728 0.231948 0.000000 1.6580765988230895e-38
-51.653228 10.488537 76.387806 -0.978148 0.207912 0.000000 1.6580765988230895e-38
-52.839796 9.868641 77.056878 -0.982973 0.183750 0.000000 1.6580765988230895e-38
-52.387043 8.653411 76.391420 -0.987202 0.159476 0.000000 1.6580765988230895e-38
-46.169840 26.044667 78.370407 -0.862929 0.505325 0.000000 1.6580765988230895e-38
-46.588790 25.894432 77.940612 -0.875117 0.483911 0.000000 1.6580765988230895e-38
-47.257670 24.681153 77.851410 -0.886774 0.462204 0.000000 1.6580765988230895e-38
-48.138070 23.528010 77.673762 -0.897892 0.440216 0.000000 1.6580765988230895e-38
-48.849430 22.397558 78.232143 -0.908465 0.417960 0.000000 1.6580765988230895e-38
-49.280647 20.928089 77.429388 -0.918487 0.395451 0.000000 1.6580765988230895e-38
-49.941968 19.516578 78.230424 -0.927951 0.372702 0.000000 1.6580765988230895e-38
-50.543274 18.811087 77.858583 -0.936852 0.349727 0.000000 1.6580765988230895e-38
-50.285652 17.785097 77.929162 -0.945184 0.326539 0.000000 1.6580765988230895e-38
-50.541363 16.651521 78.342048 -0.952942 0.303153 0.000000 1.6580765988230895e-38
-51.466490 14.337230 77.900691 -0.960122 0.279583 0.000000 1.6580765988230895e-38
-51.563545 13.074475 77.956470 -0.966718 0.255843 0.000000 1.6580765988230895e-38
-52.709775 12.848377 78.081370 -0.972728 0.231948 0.000000 1.6580765988230895e-38
-52.472703 11.139268 78.013199 -0.978148 0.207912 0.000000 1.6580765988230895e-38
-52.340092 9.831959 78.221640 -0.982973 0.183750 0.000000 1.6580765988230895e-38
-53.091112 8.476316 78.474142 -0.987202 0.159476 0.000000 1.6580765988230895e-38
-53.010068 7.286240 77.639570 -0.990831 0.135105 0.000000 1.6580765988230895e-38
-47.562488 25.559336 79.045096 -0.875117 0.483911 0.000000 1.6580765988230895e-38
-47.557021 24.827282 79.557564 -0.886774 0.462204 0.000000 1.6580765988230895e-38
-48.330022 23.211834 79.058994 -0.897892 0.440216 0.000000 1.6580765988230895e-38
-48.883636 22.572355 79.632758 -0.908465 0.417960 0.000000 1.6580765988230895e-38
-48.808570 21.526535 79.004392 -0.918487 0.395451 0.000000 1.6580765988230895e-38
-49.794955 20.107525 78.944070 -0.927951 0.372702 0.000000 1.6580765988230895e-38
-50.426832 18.860793 78.765928 -0.936852 0.349727 0.000000 1.6580765988230895e-38
-50.342479 17.384922 79.337424 -0.945184 0.326539 0.000000 1.6580765988230895e-38
-51.024123 16.627937 78.536803 -0.952942 0.303153 0.000000 1.6580765988230895e-38
-51.092928 15.359546 79.259626 -0.960122 0.279583 0.000000 1.6580765988230895e-38
-51.668313 13.894362 78.904930 -0.966718 0.255843 0.000000 1.6580765988230895e-38
-52.130645 12.701462 78.638972 -0.972728 0.231948 0.000000 1.6580765988230895e-38
-52.296102 11.172035 79.363463 -0.978148 0.207912 0.000000 1.6580765988230895e-38
-53.077676 9.627512 78.756417 -0.982973 0.183750 0.000000 1.6580765988230895e-38
-53.344865 8.798593 78.998593 -0.987202 0.159476 0.000000 1.6580765988230895e-38
-53.316080 7.570029 79.072211 -0.990831 0.135105 0.000000 1.6580765988230895e-38
-46.618450 26.307384 80.326846 -0.875117 0.483911 0.000000 1.6580765988230895e-38
-47.851114 24.942333 80.008815 -0.886774 0.462204 0.000000 1.6580765988230895e-38
-48.464764 23.876129 80.636263 -0.897892 0.440216 0.000000 1.6580765988230895e-38
-49.003938 22.974659 80.725867 -0.908465 0.417960 0.000000 1.6580765988230895e-38
-49.663508 20.900401 80.590742 -0.918487 0.395451 0.000000 1.6580765988230895e-38
-50.077257 19.866772 80.479238 -0.927951 0.372702 0.000000 1.6580765988230895e-38
-50.205459 19.059824 80.428926 -0.936852 0.349727 0.000000 1.6580765988230895e-38
-51.557873 17.860607 80.170548 -0.945184 0.326539 0.000000 1.6580765988230895e-38
-51.194731 16.278999 81.085588 -0.952942 0.303153 0.000000 1.6580765988230895e-38
-51.056283 14.909266 80.008980 -0.960122 0.279583 0.000000 1.6580765988230895e-38
-52.408616 13.850903 80.250447 -0.966718 0.255843 0.000000 1.6580765988230895e-38
-52.685477 12.326297 80.547728 -0.972728 0.231948 0.000000 1.6580765988230895e-38
-52.667286 11.045070 80.305306 -0.978148 0.207912 0.000000 1.6580765988230895e-38
-52.952094 9.956169 80.496756 -0.982973 0.183750 0.000000 1.6580765988230895e-38
-53.625624 8.632981 80.303755 -0.987202 0.159476 0.000000 1.6580765988230895e-38
-53.630579 7.159538 80.759212 -0.990831 0.135105 0.000000 1.6580765988230895e-38
-48.214177 24.877754 82.047369 -0.886774 0.462204 0.000000 1.6580765988230895e-38
-49.156184 22.988027 82.170088 -0.897892 0.440216 0.000000 1.6580765988230895e-38
-49.540679 22.459506 81.199256 -0.908465 0.417960 0.000000 1.6580765988230895e-38
-49.713776 21.324166 82.132685 -0.918487 0.395451 0.000000 1.6580765988230895e-38
-49.918119 19.750997 81.077093 -0.927951 0.372702 0.000000 1.6580765988230895e-38
-50.465298 18.738756 81.432554 -0.936852 0.349727 0.000000 1.6580765988230895e-38
-50.709918 17.114942 81.539591 -0.945184 0.326539 0.000000 1.6580765988230895e-38
-51.295270 16.024308 82.038916 -0.952942 0.303153 0.000000 1.6580765988230895e-38
-52.175895 15.083856 81.441492 -0.960122 0.279583 0.000000 1.6580765988230895e-38
-53.050833 13.696216 81.887166 -0.966718 0.255843 0.000000 1.6580765988230895e-38
-52.863856 12.342950 81.494547 -0.972728 0.231948 0.000000 1.6580765988230895e-38
-52.685465 11.124900 81.656435 -0.978148 0.207912 0.000000 1.6580765988230895e-38
-53.096120 9.770388 82.156371 -0.982973 0.183750 0.000000 1.6580765988230895e-38
-53.643045 8.826873 82.032226 -0.987202 0.159476 0.000000 1.6580765988230895e-38
-53.573033 7.317571 81.808594 -0.990831 0.135105 0.000000 1.6580765988230895e-38
-48.054496 23.902485 83.130778 -0.897892 0.440216 0.000000 1.6580765988230895e-38
-49.586883 22.592086 82.673990 -0.908465 0.417960 0.000000 1.6580765988230895e-38
-49.531455 21.666473 83.253680 -0.918487 0.395451 0.000000 1.6580765988230895e-38
-50.648072 20.376110 82.892653 -0.927951 0.372702 0.000000 1.6580765988230895e-38
-51.538579 19.104515 83.274201 -0.936852 0.349727 0.000000 1.6580765988230895e-38
-50.785791 17.697485 83.135464 -0.945184 0.326539 0.000000 1.6580765988230895e-38
-51.514125 16.211831 82.617599 -0.952942 0.303153 0.000000 1.6580765988230895e-38
-52.081450 15.090946 82.913062 -0.960122 0.279583 0.000000 1.6580765988230895e-38
-52.550148 13.938011 82.566680 -0.966718 0.255843 0.000000 1.6580765988230895e-38
-52.293682 12.032473 82.862287 -0.972728 0.231948 0.000000 1.6580765988230895e-38
-53.105706 11.234347 82.633410 -0.978148 0.207912 0.000000 1.6580765988230895e-38
-53.759633 10.036782 82.825132 -0.982973 0.183750 0.000000 1.6580765988230895e-38
-53.420291 8.153328 83.401571 -0.987202 0.159476 0.000000 1.6580765988230895e-38
-53.756415 6.414215 82.943232 -0.990831 0.135105 0.000000 1.6580765988230895e-38
-49.505510 23.077667 84.017325 -0.908465 0.417960 0.000000 1.6580765988230895e-38
-49.904297 21.207145 83.711377 -0.918487 0.395451 0.000000 1.6580765988230895e-38
-50.245654 20.286501 83.739481 -0.927951 0.372702 0.000000 1.6580765988230895e-38
-50.746635 18.214235 83.880747 -0.936852 0.349727 0.000000 1.6580765988230895e-38
-51.942701 18.132608 83.993644 -0.945184 0.326539 0.000000 1.6580765988230895e-38
-51.843073 16.591262 84.366287 -0.952942 0.303153 0.000000 1.6580765988230895e-38
-52.048921 15.457499 84.044061 -0.960122 0.279583 0.000000 1.6580765988230895e-38
-52.360632 13.728393 84.003113 -0.966718 0.255843 0.000000 1.6580765988230895e-38
-53.404705 13.127367 83.825618 -0.972728 0.231948 0.000000 1.6580765988230895e-38
-52.815389 11.477412 84.183493 -0.978148 0.207912 0.000000 1.6580765988230895e-38
-53.391178 9.681546 84.605379 -0.982973 0.183750 0.000000 1.6580765988230895e-38
-53.839947 8.983822 83.960732 -0.987202 0.159476 0.000000 1.6580765988230895e-38
-54.358401 7.948536 83.942670 -0.990831 0.135105 0.000000 1.6580765988230895e-38
-53.955231 5.114275 84.102433 -0.993859 0.110653 0.000000 1.6580765988230895e-38
-49.232068 22.372447 85.276842 -0.908465 0.417960 0.000000 1.6580765988230895e-38
-50.233884 21.475561 85.773580 -0.918487 0.395451 0.000000 1.6580765988230895e-38
-50.319593 20.266883 85.055690 -0.927951 0.372702 0.000000 1.6580765988230895e-38
-50.790565 19.335137 85.355783 -0.936852 0.349727 0.000000 1.6580765988230895e-38
-51.431089 18.030362 85.098460 -0.945184 0.326539 0.000000 1.6580765988230895e-38
-52.229521 16.560410 84.780820 -0.952942 0.303153 0.000000 1.6580765988230895e-38
-52.546292 15.033577 85.412245 -0.960122 0.279583 0.000000 1.6580765988230895e-38
-53.141662 14.103391 85.427584 -0.966718 0.255843 0.000000 1.6580765988230895e-38
-53.162637 12.810136 85.538530 -0.972728 0.231948 0.000000 1.6580765988230895e-38
-53.499470 11.367114 85.157225 -0.978148 0.207912 0.000000 1.6580765988230895e-38
-53.898774 10.510876 85.300144 -0.982973 0.183750 0.000000 1.6580765988230895e-38
-53.926174 8.687679 85.472280 -0.987202 0.159476 0.000000 1.6580765988230895e-38
-54.284091 7.245345 85.641925 -0.990831 0.135105 0.000000 1.6580765988230895e-38
-54.732484 6.100113 85.114547 -0.993859 0.110653 0.000000 1.6580765988230895e-38
-50.132921 21.731723 86.962582 -0.918487 0.395451 0.000000 1.6580765988230895e-38
-51.240968 20.372552 85.971880 -0.927951 0.372702 0.000000 1.6580765988230895e-38
-51.652685 18.681002 86.046590 -0.936852 0.349727 0.000000 1.6580765988230895e-38
-51.954677 18.007236 86.398363 -0.945184 0.326539 0.000000 1.6580765988230895e-38
-52.394815 16.395551 86.640057 -0.952942 0.303153 0.000000 1.6580765988230895e-38
-52.806163 15.022112 86.877635 -0.960122 0.279583 0.000000 1.6580765988230895e-38
-53.248078 13.641338 86.819912 -0.966718 0.255843 0.000000 1.6580765988230895e-38
-53.820921 13.081986 86.290137 -0.972728 0.231948 0.000000 1.6580765988230895e-38
-53.588769 11.097381 86.601823 -0.978148 0.207912 0.000000 1.6580765988230895e-38
-54.033608 9.776658 86.116852 -0.982973 0.183750 0.000000 1.6580765988230895e-38
-54.271317 8.883473 86.800248 -0.987202 0.159476 0.000000 1.6580765988230895e-38
-54.523597 7.190327 86.545640 -0.990831 0.135105 0.000000 1.6580765988230895e-38
-54.473564 6.063957 86.467773 -0.993859 0.110653 0.000000 1.6580765988230895e-38
-50.960501 20.720191 88.064500 -0.927951 0.372702 0.000000 1.6580765988230895e-38
-51.559206 18.624102 87.381078 -0.936852 0.349727 0.000000 1.6580765988230895e-38
-51.836983 17.806180 88.034617 -0.945184 0.326539 0.000000 1.6580765988230895e-38
-52.771608 17.080164 87.553765 -0.952942 0.303153 0.000000 1.6580765988230895e-38
-52.358323 14.910016 88.016055 -0.960122 0.279583 0.000000 1.6580765988230895e-38
-53.443505 14.067251 88.157954 -0.966718 0.255843 0.000000 1.6580765988230895e-38
-53.224042 12.508883 87.651281 -0.972728 0.231948 0.000000 1.6580765988230895e-38
-54.264437 10.896376 87.584894 -0.978148 0.207912 0.000000 1.6580765988230895e-38
-54.314399 9.653299 87.773462 -0.982973 0.183750 0.000000 1.6580765988230895e-38
-54.300260 8.766285 87.595358 -0.987202 0.159476 0.000000 1.6580765988230895e-38
-54.663855 7.334984 88.080166 -0.990831 0.135105 0.000000 1.6580765988230895e-38
-54.859685 5.581663 87.738702 -0.993859 0.110653 0.000000 1.6580765988230895e-38
-51.549321 19.333633 88.940434 -0.936852 0.349727 0.000000 1.6580765988230895e-38
-51.882558 17.936716 89.107485 -0.945184 0.326539 0.000000 1.6580765988230895e-38
-52.465576 16.862184 88.767862 -0.952942 0.303153 0.000000 1.6580765988230895e-38
-52.912363 15.119152 89.125741 -0.960122 0.279583 0.000000 1.6580765988230895e-38
-53.102751 14.655554 89.245472 -0.966718 0.255843 0.000000 1.6580765988230895e-38
-53.409080 12.470904 89.233617 -0.972728 0.231948 0.000000 1.6580765988230895e-38
-54.301899 11.831830 88.752297 -0.978148 0.207912 0.000000 1.6580765988230895e-38
-54.526646 10.364419 89.576096 -0.982973 0.183750 0.000000 1.6580765988230895e-38
-54.149461 8.692552 88.775360 -0.987202 0.159476 0.000000 1.6580765988230895e-38
-54.795415 7.491869 89.048946 -0.990831 0.135105 0.000000 1.6580765988230895e-38
-55.142781 6.490882 89.464542 -0.993859 0.110653 0.000000 1.6580765988230895e-38
-52.236247 19.334162 90.272510 -0.936852 0.349727 0.000000 1.6580765988230895e-38
-52.698079 17.980153 90.163899 -0.945184 0.326539 0.000000 1.6580765988230895e-38
-52.917794 16.649916 90.391573 -0.952942 0.303153 0.000000 1.6580765988230895e-38
-53.112089 15.850363 90.368624 -0.960122 0.279583 0.000000 1.6580765988230895e-38
-53.262618 13.762832 90.354822 -0.966718 0.255843 0.000000 1.6580765988230895e-38
-53.948408 13.054557 90.385510 -0.972728 0.231948 0.000000 1.6580765988230895e-38
-53.664093 11.227539 90.095887 -0.978148 0.207912 0.000000 1.6580765988230895e-38
-54.301328 10.130883 90.026213 -0.982973 0.183750 0.000000 1.6580765988230895e-38
-54.525759 8.677777 90.444440 -0.987202 0.159476 0.000000 1.6580765988230895e-38
-55.348580 7.389525 90.356354 -0.990831 0.135105 0.000000 1.6580765988230895e-38
-54.955401 6.333900 90.235938 -0.993859 0.110653 0.000000 1.6580765988230895e-38
-55.006089 4.746281 90.529266 -0.996284 0.086133 0.000000 1.6580765988230895e-38
-53.117503 18.357261 91.404728 -0.945184 0.326539 0.000000 1.6580765988230895e-38
-52.954909 16.503080 91.560238 -0.952942 0.303153 0.000000 1.6580765988230895e-38
-53.417220 15.453152 91.721329 -0.960122 0.279583 0.000000 1.6580765988230895e-38
-53.475408 14.628746 91.368707 -0.966718 0.255843 0.000000 1.6580765988230895e-38
-53.794941 13.066299 91.572722 -0.972728 0.231948 0.000000 1.6580765988230895e-38
-53.794861 11.350443 91.591672 -0.978148 0.207912 0.000000 1.6580765988230895e-38
-54.476890 9.841235 91.925875 -0.982973 0.183750 0.000000 1.6580765988230895e-38
-54.835106 8.984255 92.020312 -0.987202 0.159476 0.000000 1.6580765988230895e-38
-54.940104 7.512286 91.566315 -0.990831 0.135105 0.000000 1.6580765988230895e-38
-55.474175 6.028556 91.500961 -0.993859 0.110653 0.000000 1.6580765988230895e-38
-55.277831 5.195142 91.825132 -0.996284 0.086133 0.000000 1.6580765988230895e-38
-53.110845 17.129291 92.398539 -0.952942 0.303153 0.000000 1.6580765988230895e-38
-53.454040 15.650541 92.948806 -0.960122 0.279583 0.000000 1.6580765988230895e-38
-54.334934 14.422290 92.657905 -0.966718 0.255843 0.000000 1.6580765988230895e-38
-54.352448 12.445304 93.453280 -0.972728 0.231948 0.000000 1.6580765988230895e-38
-54.497151 11.649255 92.467958 -0.978148 0.207912 0.000000 1.6580765988230895e-38
-55.186183 10.474706 92.378513 -0.982973 0.183750 0.000000 1.6580765988230895e-38
-54.571729 9.419029 92.550869 -0.987202 0.159476 0.000000 1.6580765988230895e-38
-55.303238 6.759083 92.260599 -0.990831 0.135105 0.000000 1.6580765988230895e-38
-55.143885 6.536981 92.548972 -0.993859 0.110653 0.000000 1.6580765988230895e-38
-55.657583 4.321126 92.444448 -0.996284 0.086133 0.000000 1.6580765988230895e-38
-53.448799 15.640850 94.271288 -0.960122 0.279583 0.000000 1.6580765988230895e-38
-53.979391 14.669277 93.699913 -0.966718 0.255843 0.000000 1.6580765988230895e-38
-53.997171 12.841075 94.224455 -0.972728 0.231948 0.000000 1.6580765988230895e-38
-55.082617 11.688856 93.975282 -0.978148 0.207912 0.000000 1.6580765988230895e-38
-54.894113 9.728684 94.030484 -0.982973 0.183750 0.000000 1.6580765988230895e-38
-55.077699 8.369233 93.675410 -0.987202 0.159476 0.000000 1.6580765988230895e-38
-55.271933 7.665152 94.005434 -0.990831 0.135105 0.000000 1.6580765988230895e-38
-55.474812 6.185935 93.857164 -0.993859 0.110653 0.000000 1.6580765988230895e-38
-55.677125 4.388427 93.845221 -0.996284 0.086133 0.000000 1.6580765988230895e-38
