# .PCD v0.7 - Point Cloud Data file format
VERSION 0.7
FIELDS x y z normal_x normal_y normal_z rgb
SIZE 4 4 4 4 4 4 4
TYPE F F F F F F F
COUNT 1 1 1 1 1 1 1
WIDTH 139
HEIGHT 1
VIEWPOINT 0 0 0 1 0 0 0
POINTS 139
DATA ascii
-20.174559 51.959323 94.260438 -0.366979 0.930229 0.000000 1.75027152803718e-38
-22.368776 51.597573 94.137521 -0.389786 0.920906 0.000000 1.75027152803718e-38
-16.604300 53.053161 95.228275 -0.297277 0.954791 0.000000 1.75027152803718e-38
-18.017767 53.060656 94.666720 -0.320710 0.947177 0.000000 1.75027152803718e-38
-19.527413 52.416576 95.407794 -0.343949 0.938988 0.000000 1.75027152803718e-38
-21.122895 52.489516 95.630322 -0.366979 0.930229 0.000000 1.75027152803718e-38
-12.533513 54.796341 96.748790 -0.225951 0.974139 0.000000 1.75027152803718e-38
-14.325039 54.107230 96.890751 -0.249883 0.968276 0.000000 1.75027152803718e-38
-15.228471 53.845024 95.965762 -0.273663 0.961826 0.000000 1.75027152803718e-38
-17.057707 53.299692 96.326478 -0.297277 0.954791 0.000000 1.75027152803718e-38
-17.907966 52.749850 96.336500 -0.320710 0.947177 0.000000 1.75027152803718e-38
-19.682909 52.573586 97.210242 -0.343949 0.938988 0.000000 1.75027152803718e-38
-20.239624 52.380466 96.338170 -0.366979 0.930229 0.000000 1.75027152803718e-38
-7.054893 55.390865 97.786192 -0.128999 0.991645 0.000000 1.75027152803718e-38
-8.678941 55.168201 98.299541 -0.153392 0.988165 0.000000 1.75027152803718e-38
-10.263610 55.085329 97.535652 -0.177691 0.984086 0.000000 1.75027152803718e-38
-12.011882 55.004632 97.535732 -0.201882 0.979410 0.000000 1.75027152803718e-38
-12.414599 54.900998 97.351618 -0.225951 0.974139 0.000000 1.75027152803718e-38
-14.254728 55.123099 97.458395 -0.249883 0.968276 0.000000 1.75027152803718e-38
-15.149550 53.909444 97.431045 -0.273663 0.961826 0.000000 1.75027152803718e-38
-16.887716 54.158835 97.291753 -0.297277 0.954791 0.000000 1.75027152803718e-38
-17.846573 53.655176 97.566364 -0.320710 0.947177 0.000000 1.75027152803718e-38
-19.051876 53.081040 97.489986 -0.343949 0.938988 0.000000 1.75027152803718e-38
-2.580190 55.990009 98.872844 -0.055411 0.998464 0.000000 1.75027152803718e-38
-4.619483 56.435768 99.347267 -0.079994 0.996795 0.000000 1.75027152803718e-38
-6.099060 56.832123 98.986016 -0.104528 0.994522 0.000000 1.75027152803718e-38
-7.444770 56.348758 99.011092 -0.128999 0.991645 0.000000 1.75027152803718e-38
-8.762871 55.561551 99.599734 -0.153392 0.988165 0.000000 1.75027152803718e-38
-10.318449 55.831978 98.725582 -0.177691 0.984086 0.000000 1.75027152803718e-38
-11.571297 55.205927 99.108700 -0.201882 0.979410 0.000000 1.75027152803718e-38
-13.235181 54.769930 99.277799 -0.225951 0.974139 0.000000 1.75027152803718e-38
-13.783941 54.515562 98.616483 -0.249883 0.968276 0.000000 1.75027152803718e-38
-15.367642 54.488972 99.023538 -0.273663 0.961826 0.000000 1.75027152803718e-38
-16.342311 53.761307 98.573680 -0.297277 0.954791 0.000000 1.75027152803718e-38
-18.263810 53.413332 98.758039 -0.320710 0.947177 0.000000 1.75027152803718e-38
-19.551718 53.239595 98.725371 -0.343949 0.938988 0.000000 1.75027152803718e-38
1.003797 56.632283 100.626258 0.018479 0.999829 0.000000 1.75027152803718e-38
-0.374956 56.792861 100.312727 -0.006160 0.999981 0.000000 1.75027152803718e-38
-1.965878 56.435468 99.971012 -0.030795 0.999526 0.000000 1.75027152803718e-38
-2.957995 56.717802 99.786147 -0.055411 0.998464 0.000000 1.75027152803718e-38
-4.794582 56.216983 99.951645 -0.079994 0.996795 0.000000 1.75027152803718e-38
-5.987761 56.304639 100.582015 -0.104528 0.994522 0.000000 1.75027152803718e-38
-7.452112 55.867463 100.307753 -0.128999 0.991645 0.000000 1.75027152803718e-38
-8.694581 55.368656 99.937158 -0.153392 0.988165 0.000000 1.75027152803718e-38
-10.157784 55.838446 100.528220 -0.177691 0.984086 0.000000 1.75027152803718e-38
-11.738896 55.109341 100.453635 -0.201882 0.979410 0.000000 1.75027152803718e-38
-12.919804 55.149331 100.137182 -0.225951 0.974139 0.000000 1.75027152803718e-38
-14.124536 54.586201 100.529145 -0.249883 0.968276 0.000000 1.75027152803718e-38
-15.943664 54.226814 100.501223 -0.273663 0.961826 0.000000 1.75027152803718e-38
-16.876877 53.913258 100.479667 -0.297277 0.954791 0.000000 1.75027152803718e-38
-18.000649 53.768807 100.550183 -0.320710 0.947177 0.000000 1.75027152803718e-38
3.982080 56.726809 101.171997 0.067708 0.997705 0.000000 1.75027152803718e-38
3.023370 56.765180 101.946586 0.043107 0.999070 0.000000 1.75027152803718e-38
0.900185 56.116859 101.203199 0.018479 0.999829 0.000000 1.75027152803718e-38
0.007097 56.335871 101.934727 -0.006160 0.999981 0.000000 1.75027152803718e-38
-1.917351 56.765747 101.557728 -0.030795 0.999526 0.000000 1.75027152803718e-38
-3.187092 56.498003 101.191658 -0.055411 0.998464 0.000000 1.75027152803718e-38
-3.898568 56.649803 100.999656 -0.079994 0.996795 0.000000 1.75027152803718e-38
-6.283078 56.524834 101.483516 -0.104528 0.994522 0.000000 1.75027152803718e-38
-7.806820 56.964080 100.650019 -0.128999 0.991645 0.000000 1.75027152803718e-38
-8.782567 56.010702 101.281722 -0.153392 0.988165 0.000000 1.75027152803718e-38
-9.764050 55.927832 101.528840 -0.177691 0.984086 0.000000 1.75027152803718e-38
-11.411598 55.670304 101.423430 -0.201882 0.979410 0.000000 1.75027152803718e-38
-13.206514 55.500889 102.011341 -0.225951 0.974139 0.000000 1.75027152803718e-38
-14.083055 54.910192 101.475704 -0.249883 0.968276 0.000000 1.75027152803718e-38
-15.850386 54.350479 101.725470 -0.273663 0.961826 0.000000 1.75027152803718e-38
-16.715747 54.630503 101.711208 -0.297277 0.954791 0.000000 1.75027152803718e-38
-18.240723 53.887189 101.428637 -0.320710 0.947177 0.000000 1.75027152803718e-38
3.767365 56.383942 102.375671 0.067708 0.997705 0.000000 1.75027152803718e-38
2.517619 56.427555 101.959348 0.043107 0.999070 0.000000 1.75027152803718e-38
0.641064 56.549524 102.602933 0.018479 0.999829 0.000000 1.75027152803718e-38
-0.079921 56.871424 102.078854 -0.006160 0.999981 0.000000 1.75027152803718e-38
-1.311604 56.655430 102.701161 -0.030795 0.999526 0.000000 1.75027152803718e-38
-3.107797 56.399155 102.849439 -0.055411 0.998464 0.000000 1.75027152803718e-38
-5.123535 56.962330 102.736671 -0.079994 0.996795 0.000000 1.75027152803718e-38
-5.822198 56.589284 102.547978 -0.104528 0.994522 0.000000 1.75027152803718e-38
-6.938345 56.050476 102.380237 -0.128999 0.991645 0.000000 1.75027152803718e-38
-8.659067 55.657288 102.510524 -0.153392 0.988165 0.000000 1.75027152803718e-38
-10.004334 56.059678 102.669187 -0.177691 0.984086 0.000000 1.75027152803718e-38
-11.726520 55.472643 102.479994 -0.201882 0.979410 0.000000 1.75027152803718e-38
-12.850254 55.088631 102.387220 -0.225951 0.974139 0.000000 1.75027152803718e-38
-14.509439 54.390552 103.004794 -0.249883 0.968276 0.000000 1.75027152803718e-38
-15.313486 54.207489 102.875641 -0.273663 0.961826 0.000000 1.75027152803718e-38
-16.855410 53.789309 102.365262 -0.297277 0.954791 0.000000 1.75027152803718e-38
2.934563 56.700081 103.945381 0.043107 0.999070 0.000000 1.75027152803718e-38
0.781548 57.143468 104.612331 0.018479 0.999829 0.000000 1.75027152803718e-38
-0.510712 57.196776 104.138511 -0.006160 0.999981 0.000000 1.75027152803718e-38
-1.800885 56.609203 104.661043 -0.030795 0.999526 0.000000 1.75027152803718e-38
-2.920021 57.045235 103.854055 -0.055411 0.998464 0.000000 1.75027152803718e-38
-4.528972 56.297781 104.145790 -0.079994 0.996795 0.000000 1.75027152803718e-38
-6.054279 56.225630 103.661046 -0.104528 0.994522 0.000000 1.75027152803718e-38
-6.609776 56.280788 104.027987 -0.128999 0.991645 0.000000 1.75027152803718e-38
-9.078037 56.115530 103.506370 -0.153392 0.988165 0.000000 1.75027152803718e-38
-9.989290 55.667220 104.156968 -0.177691 0.984086 0.000000 1.75027152803718e-38
-12.012916 55.484914 104.270545 -0.201882 0.979410 0.000000 1.75027152803718e-38
-12.384274 55.376691 103.801026 -0.225951 0.974139 0.000000 1.75027152803718e-38
-14.169648 55.657239 103.836992 -0.249883 0.968276 0.000000 1.75027152803718e-38
-15.555333 54.359099 103.714223 -0.273663 0.961826 0.000000 1.75027152803718e-38
-16.766517 54.543035 104.008244 -0.297277 0.954791 0.000000 1.75027152803718e-38
-0.224253 57.125909 105.914123 -0.006160 0.999981 0.000000 1.75027152803718e-38
-1.732723 57.073936 105.057616 -0.030795 0.999526 0.000000 1.75027152803718e-38
-2.764164 56.543619 105.104741 -0.055411 0.998464 0.000000 1.75027152803718e-38
-4.509414 56.874910 105.405645 -0.079994 0.996795 0.000000 1.75027152803718e-38
-6.042818 56.866668 104.700401 -0.104528 0.994522 0.000000 1.75027152803718e-38
-7.299594 55.868714 105.056904 -0.128999 0.991645 0.000000 1.75027152803718e-38
-8.013978 56.316702 104.981583 -0.153392 0.988165 0.000000 1.75027152803718e-38
-9.993383 55.990341 104.787203 -0.177691 0.984086 0.000000 1.75027152803718e-38
-12.078692 55.734517 105.066282 -0.201882 0.979410 0.000000 1.75027152803718e-38
-12.971954 55.691264 105.542273 -0.225951 0.974139 0.000000 1.75027152803718e-38
-14.035073 55.009596 105.170905 -0.249883 0.968276 0.000000 1.75027152803718e-38
-15.272656 55.010418 105.307433 -0.273663 0.961826 0.000000 1.75027152803718e-38
-3.319142 55.928897 106.250585 -0.055411 0.998464 0.000000 1.75027152803718e-38
-4.479913 56.523099 106.431314 -0.079994 0.996795 0.000000 1.75027152803718e-38
-6.151571 56.356130 106.349060 -0.104528 0.994522 0.000000 1.75027152803718e-38
-8.007651 56.702984 106.421258 -0.128999 0.991645 0.000000 1.75027152803718e-38
-8.566308 56.692718 106.315943 -0.153392 0.988165 0.000000 1.75027152803718e-38
-10.939920 56.044489 106.048241 -0.177691 0.984086 0.000000 1.75027152803718e-38
-11.083355 55.743565 106.644155 -0.201882 0.979410 0.000000 1.75027152803718e-38
-12.447484 55.329883 106.414404 -0.225951 0.974139 0.000000 1.75027152803718e-38
-14.238819 55.881744 106.771588 -0.249883 0.968276 0.000000 1.75027152803718e-38
-15.926010 54.668803 106.252581 -0.273663 0.961826 0.000000 1.75027152803718e-38
-4.621182 57.302341 108.020847 -0.079994 0.996795 0.000000 1.75027152803718e-38
-6.010295 56.619504 107.366172 -0.104528 0.994522 0.000000 1.75027152803718e-38
-7.154170 56.602791 107.410206 -0.128999 0.991645 0.000000 1.75027152803718e-38
-8.491083 56.708818 107.344324 -0.153392 0.988165 0.000000 1.75027152803718e-38
-10.039481 56.377849 108.139337 -0.177691 0.984086 0.000000 1.75027152803718e-38
-11.579026 55.934217 107.827179 -0.201882 0.979410 0.000000 1.75027152803718e-38
-12.523412 55.753308 107.696503 -0.225951 0.974139 0.000000 1.75027152803718e-38
-14.439228 55.201224 107.584171 -0.249883 0.968276 0.000000 1.75027152803718e-38
-7.537227 56.354784 108.792687 -0.128999 0.991645 0.000000 1.75027152803718e-38
-8.761056 56.401181 108.392472 -0.153392 0.988165 0.000000 1.75027152803718e-38
-10.043005 56.101477 108.918278 -0.177691 0.984086 0.000000 1.75027152803718e-38
-11.837287 56.379973 109.079736 -0.201882 0.979410 0.000000 1.75027152803718e-38
-13.028616 55.796049 109.356701 -0.225951 0.974139 0.000000 1.75027152803718e-38
-13.936696 55.822314 109.047508 -0.249883 0.968276 0.000000 1.75027152803718e-38
-10.734353 56.315636 109.591312 -0.177691 0.984086 0.000000 1.75027152803718e-38
-11.712575 56.520127 109.862668 -0.201882 0.979410 0.000000 1.75027152803718e-38
-13.249439 56.026550 110.037668 -0.225951 0.974139 0.000000 1.75027152803718e-38
-12.848951 55.577678 111.190418 -0.225951 0.974139 0.000000 1.75027152803718e-38
