# .PCD v0.7 - Point Cloud Data file format
VERSION 0.7
FIELDS x y z normal_x normal_y normal_z rgb
SIZE 4 4 4 4 4 4 4
TYPE F F F F F F F
COUNT 1 1 1 1 1 1 1
WIDTH 341
HEIGHT 1
VIEWPOINT 0 0 0 1 0 0 0
POINTS 341
DATA ascii
29.135204 -0.140076 79.071552 0.931835 0.000000 0.362882 1.7962614429870884e-38
29.442612 0.963592 79.339434 0.931552 0.022958 0.362882 1.7962614429870884e-38
29.602915 1.123182 79.148033 0.930704 0.045902 0.362882 1.7962614429870884e-38
28.916186 2.073684 78.623148 0.929291 0.068818 0.362882 1.7962614429870884e-38
29.098933 2.622165 78.944518 0.927313 0.091693 0.362882 1.7962614429870884e-38
28.611160 3.487099 79.138806 0.924772 0.114512 0.362882 1.7962614429870884e-38
28.911655 4.613302 79.097455 0.921670 0.137261 0.362882 1.7962614429870884e-38
28.329390 4.928017 78.907159 0.918009 0.159927 0.362882 1.7962614429870884e-38
28.211609 0.108792 80.355162 0.950405 0.000000 0.311014 1.7962614429870884e-38
28.708294 0.617952 80.271772 0.950117 0.023416 0.311014 1.7962614429870884e-38
28.296775 1.138447 80.255604 0.949252 0.046817 0.311014 1.7962614429870884e-38
28.546384 1.879495 80.059743 0.947810 0.070190 0.311014 1.7962614429870884e-38
28.593159 2.762431 80.642774 0.945793 0.093520 0.311014 1.7962614429870884e-38
28.212566 3.330129 79.889403 0.943202 0.116794 0.311014 1.7962614429870884e-38
27.844818 3.935516 80.496655 0.940038 0.139996 0.311014 1.7962614429870884e-38
28.039134 4.582758 79.578147 0.936304 0.163114 0.311014 1.7962614429870884e-38
28.081605 5.843759 80.701776 0.932001 0.186133 0.311014 1.7962614429870884e-38
27.507410 6.575336 80.582175 0.927132 0.209038 0.311014 1.7962614429870884e-38
28.341781 -0.501346 81.005732 0.950117 -0.023416 0.311014 1.7962614429870884e-38
28.132676 -0.068448 81.791042 0.967218 0.000000 0.253947 1.7962614429870884e-38
28.175041 0.769616 81.595226 0.966925 0.023830 0.253947 1.7962614429870884e-38
28.018281 1.084332 81.833472 0.966044 0.047645 0.253947 1.7962614429870884e-38
27.740829 1.832299 81.290127 0.964577 0.071432 0.253947 1.7962614429870884e-38
27.895211 2.775736 81.319574 0.962524 0.095175 0.253947 1.7962614429870884e-38
27.836467 3.505314 81.178688 0.959887 0.118860 0.253947 1.7962614429870884e-38
27.594889 4.684928 81.436896 0.956667 0.142473 0.253947 1.7962614429870884e-38
27.924719 4.675506 81.709517 0.952867 0.165999 0.253947 1.7962614429870884e-38
27.345645 4.938523 81.517188 0.948488 0.189425 0.253947 1.7962614429870884e-38
27.573283 6.390480 81.692394 0.943533 0.212736 0.253947 1.7962614429870884e-38
27.046754 7.137264 81.432893 0.938005 0.235918 0.253947 1.7962614429870884e-38
26.904434 7.237145 81.522573 0.931908 0.258956 0.253947 1.7962614429870884e-38
28.441781 -1.356684 81.615950 0.966044 -0.047645 0.253947 1.7962614429870884e-38
28.082616 -0.548967 81.961687 0.966925 -0.023830 0.253947 1.7962614429870884e-38
27.758484 0.122851 83.005956 0.981355 0.000000 0.192202 1.7962614429870884e-38
27.177846 0.473648 83.017247 0.981057 0.024178 0.192202 1.7962614429870884e-38
28.182190 1.779406 82.519197 0.980164 0.048342 0.192202 1.7962614429870884e-38
28.069621 2.366432 83.010418 0.978675 0.072476 0.192202 1.7962614429870884e-38
27.104749 2.578899 82.919092 0.976593 0.096566 0.192202 1.7962614429870884e-38
27.564004 2.771348 82.808213 0.973917 0.120597 0.192202 1.7962614429870884e-38
27.262886 4.278988 83.030577 0.970650 0.144555 0.192202 1.7962614429870884e-38
27.589593 4.668249 82.892683 0.966794 0.168426 0.192202 1.7962614429870884e-38
27.281425 5.727571 82.726600 0.962351 0.192194 0.192202 1.7962614429870884e-38
26.936791 6.413051 83.132857 0.957324 0.215846 0.192202 1.7962614429870884e-38
27.144590 7.265787 83.513121 0.951715 0.239366 0.192202 1.7962614429870884e-38
27.198471 7.231047 83.135927 0.945529 0.262741 0.192202 1.7962614429870884e-38
26.670523 7.945301 82.664260 0.938769 0.285957 0.192202 1.7962614429870884e-38
27.731019 -1.353892 82.943007 0.980164 -0.048342 0.192202 1.7962614429870884e-38
27.931208 -0.927812 83.116470 0.981057 -0.024178 0.192202 1.7962614429870884e-38
27.722105 -0.343825 83.984015 0.991950 0.000000 0.126626 1.7962614429870884e-38
27.213266 0.745270 84.270907 0.991649 0.024439 0.126626 1.7962614429870884e-38
27.675687 1.526769 84.163754 0.990746 0.048863 0.126626 1.7962614429870884e-38
27.798743 2.003326 84.334253 0.989242 0.073258 0.126626 1.7962614429870884e-38
27.125675 2.301159 84.149696 0.987136 0.097608 0.126626 1.7962614429870884e-38
27.641403 3.314291 84.315145 0.984432 0.121899 0.126626 1.7962614429870884e-38
27.436998 3.457592 84.820724 0.981130 0.146116 0.126626 1.7962614429870884e-38
26.857802 4.461276 84.468582 0.977232 0.170244 0.126626 1.7962614429870884e-38
27.116164 5.183924 83.982830 0.972741 0.194269 0.126626 1.7962614429870884e-38
26.704483 5.840461 84.360502 0.967660 0.218176 0.126626 1.7962614429870884e-38
26.661185 6.422610 83.895708 0.961991 0.241950 0.126626 1.7962614429870884e-38
26.589746 7.176915 84.031315 0.955737 0.265578 0.126626 1.7962614429870884e-38
26.550342 7.911400 83.865795 0.948904 0.289044 0.126626 1.7962614429870884e-38
26.030366 9.122401 84.776194 0.941495 0.312335 0.126626 1.7962614429870884e-38
26.030814 9.566059 83.841741 0.933514 0.335436 0.126626 1.7962614429870884e-38
27.754009 -2.372791 84.253975 0.989242 -0.073258 0.126626 1.7962614429870884e-38
27.662839 -1.317759 83.935592 0.990746 -0.048863 0.126626 1.7962614429870884e-38
27.597908 -0.878010 84.407157 0.991649 -0.024439 0.126626 1.7962614429870884e-38
27.385493 -0.074518 85.584239 0.998295 0.000000 0.058377 1.7962614429870884e-38
27.335583 0.140909 85.042539 0.997992 0.024595 0.058377 1.7962614429870884e-38
27.813706 1.380926 85.448470 0.997083 0.049176 0.058377 1.7962614429870884e-38
27.543934 2.569666 84.738276 0.995568 0.073727 0.058377 1.7962614429870884e-38
27.358449 2.718018 85.354742 0.993450 0.098232 0.058377 1.7962614429870884e-38
27.561583 3.630626 85.295975 0.990728 0.122679 0.058377 1.7962614429870884e-38
26.723233 4.807810 85.358954 0.987405 0.147050 0.058377 1.7962614429870884e-38
27.148152 5.103610 85.242840 0.983482 0.171333 0.058377 1.7962614429870884e-38
27.384779 5.299736 85.909556 0.978962 0.195511 0.058377 1.7962614429870884e-38
26.992829 5.852574 86.014937 0.973848 0.219571 0.058377 1.7962614429870884e-38
26.879614 6.532380 84.938684 0.968143 0.243498 0.058377 1.7962614429870884e-38
26.734623 7.786018 85.476942 0.961850 0.267276 0.058377 1.7962614429870884e-38
26.434719 8.489660 85.540325 0.954973 0.290893 0.058377 1.7962614429870884e-38
25.932693 8.484003 85.527497 0.947516 0.314333 0.058377 1.7962614429870884e-38
26.059200 9.636018 85.471411 0.939484 0.337582 0.058377 1.7962614429870884e-38
25.875291 10.049561 85.650099 0.930882 0.360626 0.058377 1.7962614429870884e-38
25.642270 10.497080 85.304314 0.921715 0.383451 0.058377 1.7962614429870884e-38
27.785431 -1.910521 85.076251 0.995568 -0.073727 0.058377 1.7962614429870884e-38
27.116433 -1.385912 85.569872 0.997083 -0.049176 0.058377 1.7962614429870884e-38
27.684788 -0.165211 85.267612 0.997992 -0.024595 0.058377 1.7962614429870884e-38
27.389239 0.002331 86.251079 0.999613 0.000000 0.027806 1.7962614429870884e-38
27.939465 0.602448 86.673910 0.999310 0.024628 0.027806 1.7962614429870884e-38
27.708159 1.128723 86.681153 0.998400 0.049241 0.027806 1.7962614429870884e-38
27.419855 2.323357 86.600463 0.996884 0.073824 0.027806 1.7962614429870884e-38
26.506733 2.425402 86.148014 0.994762 0.098362 0.027806 1.7962614429870884e-38
27.866991 3.803463 85.952823 0.992037 0.122841 0.027806 1.7962614429870884e-38
26.894133 3.634911 86.662870 0.988709 0.147245 0.027806 1.7962614429870884e-38
26.802480 4.639588 86.184780 0.984781 0.171559 0.027806 1.7962614429870884e-38
27.093851 4.881430 87.348864 0.980256 0.195770 0.027806 1.7962614429870884e-38
27.275196 6.792422 86.779855 0.975135 0.219861 0.027806 1.7962614429870884e-38
27.133843 6.974792 86.296594 0.969422 0.243819 0.027806 1.7962614429870884e-38
26.381731 7.489135 86.943604 0.963121 0.267629 0.027806 1.7962614429870884e-38
26.302010 8.178795 86.498141 0.956235 0.291277 0.027806 1.7962614429870884e-38
25.974878 8.216585 86.730748 0.948768 0.314748 0.027806 1.7962614429870884e-38
25.729713 8.912955 86.420062 0.940725 0.338028 0.027806 1.7962614429870884e-38
25.726006 10.133581 86.542601 0.932112 0.361102 0.027806 1.7962614429870884e-38
25.708363 11.008926 86.511913 0.922932 0.383957 0.027806 1.7962614429870884e-38
25.412106 10.983920 86.207831 0.913192 0.406579 0.027806 1.7962614429870884e-38
27.279576 -3.156118 86.346932 0.994762 -0.098362 0.027806 1.7962614429870884e-38
27.416572 -1.666175 86.599124 0.996884 -0.073824 0.027806 1.7962614429870884e-38
27.424205 -1.425434 86.595482 0.998400 -0.049241 0.027806 1.7962614429870884e-38
28.062034 -0.702774 86.518863 0.999310 -0.024628 0.027806 1.7962614429870884e-38
27.367412 -0.202903 87.366664 0.980607 0.000000 0.195984 1.7962614429870884e-38
26.825628 0.455946 88.189420 0.980309 0.024160 0.195984 1.7962614429870884e-38
27.672850 1.012756 87.787604 0.979417 0.048305 0.195984 1.7962614429870884e-38
27.320687 1.802826 88.227657 0.977929 0.072420 0.195984 1.7962614429870884e-38
27.451781 2.800089 87.855606 0.975848 0.096492 0.195984 1.7962614429870884e-38
26.679682 3.768814 88.009206 0.973175 0.120505 0.195984 1.7962614429870884e-38
27.180301 3.808190 87.639687 0.969910 0.144445 0.195984 1.7962614429870884e-38
27.098398 5.025652 88.352504 0.966057 0.168297 0.195984 1.7962614429870884e-38
26.605569 5.309873 87.206752 0.961617 0.192047 0.195984 1.7962614429870884e-38
25.947703 6.174154 87.579061 0.956594 0.215681 0.195984 1.7962614429870884e-38
25.937731 6.323599 87.937899 0.950990 0.239184 0.195984 1.7962614429870884e-38
26.472426 6.832910 88.205977 0.944808 0.262541 0.195984 1.7962614429870884e-38
25.960097 8.053711 87.846340 0.938053 0.285739 0.195984 1.7962614429870884e-38
25.961004 8.332470 87.827756 0.930728 0.308763 0.195984 1.7962614429870884e-38
25.825185 9.190840 87.865329 0.922839 0.331600 0.195984 1.7962614429870884e-38
25.839193 9.740726 88.031059 0.914389 0.354236 0.195984 1.7962614429870884e-38
25.194311 10.934934 87.413258 0.905384 0.376657 0.195984 1.7962614429870884e-38
25.382029 10.967167 88.468587 0.895829 0.398849 0.195984 1.7962614429870884e-38
24.839753 11.994069 87.786776 0.885731 0.420799 0.195984 1.7962614429870884e-38
24.616666 12.548295 87.792327 0.875094 0.442493 0.195984 1.7962614429870884e-38
27.162238 -2.711397 87.707580 0.975848 -0.096492 0.195984 1.7962614429870884e-38
27.707925 -2.007089 87.412702 0.977929 -0.072420 0.195984 1.7962614429870884e-38
27.440959 -1.381979 87.949389 0.979417 -0.048305 0.195984 1.7962614429870884e-38
27.248152 -0.836299 88.103296 0.980309 -0.024160 0.195984 1.7962614429870884e-38
27.563859 -0.557666 89.096777 0.939762 0.000000 0.341830 1.7962614429870884e-38
26.835875 0.391798 88.425209 0.939476 0.023153 0.341830 1.7962614429870884e-38
27.081569 1.185284 88.909263 0.938621 0.046293 0.341830 1.7962614429870884e-38
27.293180 1.862647 88.927618 0.937195 0.069404 0.341830 1.7962614429870884e-38
26.474261 2.385047 89.512090 0.935201 0.092473 0.341830 1.7962614429870884e-38
26.984901 3.705020 88.819991 0.932639 0.115486 0.341830 1.7962614429870884e-38
26.819878 4.292393 89.245960 0.929510 0.138428 0.341830 1.7962614429870884e-38
27.079505 4.755548 89.071615 0.925818 0.161287 0.341830 1.7962614429870884e-38
25.776820 5.414066 89.251457 0.921563 0.184048 0.341830 1.7962614429870884e-38
26.689057 5.701527 89.062091 0.916749 0.206697 0.341830 1.7962614429870884e-38
25.713449 6.103203 89.226054 0.911378 0.229221 0.341830 1.7962614429870884e-38
26.400169 7.620910 89.203705 0.905454 0.251605 0.341830 1.7962614429870884e-38
26.447961 7.751554 89.341639 0.898980 0.273837 0.341830 1.7962614429870884e-38
25.237092 7.560361 88.927756 0.891961 0.295902 0.341830 1.7962614429870884e-38
25.378975 9.202710 89.016317 0.884400 0.317788 0.341830 1.7962614429870884e-38
25.290866 10.277827 89.293527 0.876302 0.339481 0.341830 1.7962614429870884e-38
24.704765 9.619434 88.749573 0.867672 0.360968 0.341830 1.7962614429870884e-38
25.074218 10.833303 89.275761 0.858515 0.382236 0.341830 1.7962614429870884e-38
24.585290 11.572178 89.046126 0.848837 0.403271 0.341830 1.7962614429870884e-38
23.900982 12.854512 88.785373 0.838644 0.424062 0.341830 1.7962614429870884e-38
24.129004 13.025655 89.256704 0.827942 0.444595 0.341830 1.7962614429870884e-38
23.434755 12.914798 88.727749 0.816736 0.464859 0.341830 1.7962614429870884e-38
26.455509 -1.604352 89.348185 0.937195 -0.069404 0.341830 1.7962614429870884e-38
27.602508 -1.420013 88.707069 0.938621 -0.046293 0.341830 1.7962614429870884e-38
26.835753 -0.820666 89.187828 0.939476 -0.023153 0.341830 1.7962614429870884e-38
25.912620 -0.001604 90.004946 0.889836 0.000000 0.456281 1.7962614429870884e-38
26.300163 1.066855 90.610086 0.889566 0.021923 0.456281 1.7962614429870884e-38
26.648891 1.494456 90.229943 0.888756 0.043833 0.456281 1.7962614429870884e-38
26.375274 1.482519 89.939119 0.887406 0.065717 0.456281 1.7962614429870884e-38
26.371679 2.267934 90.516205 0.885517 0.087560 0.456281 1.7962614429870884e-38
26.246608 3.162613 90.127222 0.883091 0.109350 0.456281 1.7962614429870884e-38
26.308659 4.101256 90.045204 0.880129 0.131074 0.456281 1.7962614429870884e-38
25.912134 4.485107 90.405572 0.876633 0.152719 0.456281 1.7962614429870884e-38
26.042127 5.151813 90.521738 0.872604 0.174270 0.456281 1.7962614429870884e-38
25.773352 5.401240 90.710438 0.868045 0.195716 0.456281 1.7962614429870884e-38
25.956838 6.041341 90.362833 0.862960 0.217043 0.456281 1.7962614429870884e-38
25.886211 6.993504 90.540769 0.857351 0.238238 0.456281 1.7962614429870884e-38
25.646915 7.791239 90.952192 0.851221 0.259289 0.456281 1.7962614429870884e-38
25.311049 8.362725 90.259163 0.844574 0.280182 0.456281 1.7962614429870884e-38
24.889012 8.779037 89.975232 0.837415 0.300905 0.456281 1.7962614429870884e-38
24.405414 9.516459 90.550271 0.829747 0.321446 0.456281 1.7962614429870884e-38
24.530114 10.214950 90.945385 0.821576 0.341791 0.456281 1.7962614429870884e-38
24.679176 10.489340 90.520604 0.812905 0.361929 0.456281 1.7962614429870884e-38
23.545624 11.435759 89.897352 0.803742 0.381847 0.456281 1.7962614429870884e-38
23.432691 12.128026 90.172941 0.794090 0.401533 0.456281 1.7962614429870884e-38
22.989756 12.312781 90.026149 0.783956 0.420976 0.456281 1.7962614429870884e-38
23.121635 13.450448 90.250175 0.773346 0.440162 0.456281 1.7962614429870884e-38
22.977284 13.480283 90.278934 0.762267 0.459082 0.456281 1.7962614429870884e-38
26.751894 -2.482030 90.126284 0.887406 -0.065717 0.456281 1.7962614429870884e-38
26.372693 -1.503513 89.789692 0.888756 -0.043833 0.456281 1.7962614429870884e-38
26.719213 -0.984051 90.106984 0.889566 -0.021923 0.456281 1.7962614429870884e-38
25.972511 0.367313 91.376733 0.841943 0.000000 0.539567 1.7962614429870884e-38
25.427220 0.390334 91.880798 0.841687 0.020743 0.539567 1.7962614429870884e-38
26.066190 1.369201 91.620499 0.840921 0.041474 0.539567 1.7962614429870884e-38
25.280136 2.040937 91.782108 0.839644 0.062180 0.539567 1.7962614429870884e-38
25.670741 2.593982 91.236869 0.837857 0.082847 0.539567 1.7962614429870884e-38
25.901448 2.756126 91.541414 0.835561 0.103465 0.539567 1.7962614429870884e-38
25.602467 4.134738 91.862489 0.832759 0.124020 0.539567 1.7962614429870884e-38
25.705800 4.328047 92.243570 0.829450 0.144499 0.539567 1.7962614429870884e-38
25.573822 4.936399 91.459878 0.825638 0.164891 0.539567 1.7962614429870884e-38
25.343711 5.522524 91.163161 0.821325 0.185182 0.539567 1.7962614429870884e-38
24.993214 5.598108 91.653895 0.816514 0.205361 0.539567 1.7962614429870884e-38
24.997537 6.813264 91.891382 0.811206 0.225416 0.539567 1.7962614429870884e-38
24.884402 7.196458 91.559664 0.805406 0.245334 0.539567 1.7962614429870884e-38
24.280667 8.009721 91.890282 0.799117 0.265102 0.539567 1.7962614429870884e-38
24.416960 8.490977 91.613647 0.792343 0.284710 0.539567 1.7962614429870884e-38
23.780771 9.155123 92.008146 0.785088 0.304145 0.539567 1.7962614429870884e-38
24.535122 10.422913 91.629609 0.777357 0.323395 0.539567 1.7962614429870884e-38
23.575379 10.777682 91.576847 0.769153 0.342449 0.539567 1.7962614429870884e-38
22.827295 11.593847 91.190065 0.760483 0.361295 0.539567 1.7962614429870884e-38
23.338145 11.845695 92.104334 0.751350 0.379922 0.539567 1.7962614429870884e-38
22.941345 12.003939 91.871992 0.741762 0.398318 0.539567 1.7962614429870884e-38
22.266606 12.442193 90.996941 0.731723 0.416472 0.539567 1.7962614429870884e-38
25.873001 -1.192124 91.734383 0.840921 -0.041474 0.539567 1.7962614429870884e-38
25.243551 -0.551773 91.866926 0.841687 -0.020743 0.539567 1.7962614429870884e-38
24.956560 0.015889 92.592707 0.802774 0.000000 0.596283 1.7962614429870884e-38
24.708885 0.456171 92.850410 0.802530 0.019778 0.596283 1.7962614429870884e-38
24.711522 0.678925 93.022828 0.801799 0.039545 0.596283 1.7962614429870884e-38
24.975963 1.944567 92.502451 0.800582 0.059287 0.596283 1.7962614429870884e-38
24.618801 2.604610 92.791435 0.798878 0.078993 0.596283 1.7962614429870884e-38
24.489247 3.448245 92.529372 0.796689 0.098652 0.596283 1.7962614429870884e-38
23.720266 3.692130 92.822476 0.794017 0.118250 0.596283 1.7962614429870884e-38
24.535383 4.391835 92.616411 0.790863 0.137777 0.596283 1.7962614429870884e-38
24.713148 4.464203 92.777081 0.787228 0.157220 0.596283 1.7962614429870884e-38
24.090080 5.775888 92.545154 0.783116 0.176567 0.596283 1.7962614429870884e-38
24.156873 6.095885 92.842251 0.778528 0.195808 0.596283 1.7962614429870884e-38
23.759738 6.772846 92.792089 0.773467 0.214929 0.596283 1.7962614429870884e-38
23.910284 7.724217 92.818316 0.767937 0.233920 0.596283 1.7962614429870884e-38
23.322846 8.424550 93.077236 0.761941 0.252769 0.596283 1.7962614429870884e-38
23.617343 8.361039 93.005414 0.755482 0.271465 0.596283 1.7962614429870884e-38
22.589465 9.454190 93.052404 0.748564 0.289995 0.596283 1.7962614429870884e-38
22.925018 9.820621 92.969156 0.741192 0.308350 0.596283 1.7962614429870884e-38
22.432833 10.176238 92.896012 0.733371 0.326518 0.596283 1.7962614429870884e-38
22.439195 10.613865 93.053881 0.725103 0.344487 0.596283 1.7962614429870884e-38
22.262205 11.793577 92.587545 0.716396 0.362247 0.596283 1.7962614429870884e-38
22.048818 11.497865 92.986751 0.707254 0.379787 0.596283 1.7962614429870884e-38
24.745648 -0.405927 92.906442 0.802530 -0.019778 0.596283 1.7962614429870884e-38
23.964041 -0.262885 93.963500 0.775405 0.000000 0.631464 1.7962614429870884e-38
23.794247 0.587704 94.072880 0.775170 0.019104 0.631464 1.7962614429870884e-38
23.786498 1.185483 93.991278 0.774464 0.038196 0.631464 1.7962614429870884e-38
23.652960 1.790464 93.637488 0.773287 0.057266 0.631464 1.7962614429870884e-38
23.859097 2.020581 94.012961 0.771642 0.076300 0.631464 1.7962614429870884e-38
23.879095 2.661813 94.330471 0.769528 0.095288 0.631464 1.7962614429870884e-38
24.196316 3.328557 93.977195 0.766947 0.114218 0.631464 1.7962614429870884e-38
23.929423 3.565986 94.030635 0.763900 0.133079 0.631464 1.7962614429870884e-38
23.366928 4.954915 93.947079 0.760389 0.151860 0.631464 1.7962614429870884e-38
23.470593 5.014338 94.306096 0.756417 0.170547 0.631464 1.7962614429870884e-38
22.861815 6.095851 94.043477 0.751985 0.189132 0.631464 1.7962614429870884e-38
22.341172 6.423293 94.202706 0.747097 0.207602 0.631464 1.7962614429870884e-38
22.513912 6.716169 94.047267 0.741756 0.225945 0.631464 1.7962614429870884e-38
22.550579 7.630799 93.957844 0.735964 0.244151 0.631464 1.7962614429870884e-38
22.115675 8.787522 93.918666 0.729725 0.262210 0.631464 1.7962614429870884e-38
22.342739 9.172902 94.279487 0.723044 0.280109 0.631464 1.7962614429870884e-38
22.250044 9.505447 94.186053 0.715923 0.297838 0.631464 1.7962614429870884e-38
22.018140 9.899597 93.969995 0.708368 0.315386 0.631464 1.7962614429870884e-38
21.928812 10.467230 93.330727 0.700382 0.332742 0.631464 1.7962614429870884e-38
23.701266 -0.542067 94.277455 0.775170 -0.019104 0.631464 1.7962614429870884e-38
22.993052 0.266641 94.868285 0.760924 0.000000 0.648841 1.7962614429870884e-38
23.238655 0.474620 94.829738 0.760693 0.018747 0.648841 1.7962614429870884e-38
22.121905 1.034850 95.021871 0.760001 0.037483 0.648841 1.7962614429870884e-38
22.592354 1.790502 95.773813 0.758846 0.056196 0.648841 1.7962614429870884e-38
22.504499 2.279605 95.087398 0.757231 0.074875 0.648841 1.7962614429870884e-38
22.416512 2.507649 95.750417 0.755157 0.093509 0.648841 1.7962614429870884e-38
22.640395 3.314130 95.052144 0.752624 0.112085 0.648841 1.7962614429870884e-38
22.566657 3.736429 95.836743 0.749634 0.130594 0.648841 1.7962614429870884e-38
22.518413 4.523970 95.292774 0.746189 0.149024 0.648841 1.7962614429870884e-38
22.717971 5.027085 95.114792 0.742291 0.167363 0.648841 1.7962614429870884e-38
22.243152 5.819627 95.612621 0.737942 0.185600 0.648841 1.7962614429870884e-38
22.115068 6.196168 95.555554 0.733145 0.203725 0.648841 1.7962614429870884e-38
21.072663 6.695227 95.082403 0.727904 0.221726 0.648841 1.7962614429870884e-38
21.739376 7.312836 95.631233 0.722220 0.239592 0.648841 1.7962614429870884e-38
21.122476 7.523332 94.990896 0.716098 0.257313 0.648841 1.7962614429870884e-38
21.158562 7.856336 95.898964 0.709541 0.274878 0.648841 1.7962614429870884e-38
21.391674 8.558052 95.262382 0.702553 0.292275 0.648841 1.7962614429870884e-38
20.777035 9.355438 95.027412 0.695139 0.309496 0.648841 1.7962614429870884e-38
21.840022 1.121214 95.795917 0.759374 0.018715 0.650385 1.7962614429870884e-38
21.796012 0.741636 96.216419 0.758683 0.037418 0.650385 1.7962614429870884e-38
21.569102 1.888633 96.372845 0.757531 0.056099 0.650385 1.7962614429870884e-38
21.376986 2.345540 96.140131 0.755919 0.074745 0.650385 1.7962614429870884e-38
22.161557 2.294772 96.408652 0.753848 0.093347 0.650385 1.7962614429870884e-38
22.164620 3.117531 96.621936 0.751319 0.111891 0.650385 1.7962614429870884e-38
21.468680 3.745399 96.249299 0.748334 0.130368 0.650385 1.7962614429870884e-38
21.538682 4.672602 95.912218 0.744895 0.148765 0.650385 1.7962614429870884e-38
21.013614 4.634625 96.228654 0.741004 0.167072 0.650385 1.7962614429870884e-38
21.358987 5.141713 96.519133 0.736663 0.185278 0.650385 1.7962614429870884e-38
21.475933 5.304926 96.589945 0.731874 0.203371 0.650385 1.7962614429870884e-38
20.841433 6.323758 96.223327 0.726641 0.221341 0.650385 1.7962614429870884e-38
20.601051 6.869769 96.439620 0.720968 0.239177 0.650385 1.7962614429870884e-38
20.748763 7.052237 96.075792 0.714856 0.256867 0.650385 1.7962614429870884e-38
19.749699 7.926635 96.721781 0.708311 0.274401 0.650385 1.7962614429870884e-38
19.799128 8.004488 97.061413 0.701335 0.291769 0.650385 1.7962614429870884e-38
20.541340 0.406908 98.171368 0.771228 0.019007 0.636275 1.7962614429870884e-38
20.487200 1.223618 97.638604 0.770526 0.038002 0.636275 1.7962614429870884e-38
20.902127 1.596867 97.331972 0.769356 0.056974 0.636275 1.7962614429870884e-38
20.730881 2.694678 97.824202 0.767719 0.075912 0.636275 1.7962614429870884e-38
20.902633 2.643037 97.968427 0.765615 0.094804 0.636275 1.7962614429870884e-38
20.339924 3.024799 97.995981 0.763047 0.113638 0.636275 1.7962614429870884e-38
20.368623 3.888379 97.430896 0.760016 0.132403 0.636275 1.7962614429870884e-38
20.397225 3.992406 98.523441 0.756523 0.151087 0.636275 1.7962614429870884e-38
20.156185 4.696998 97.134539 0.752571 0.169680 0.636275 1.7962614429870884e-38
19.804002 5.160750 97.652791 0.748162 0.188170 0.636275 1.7962614429870884e-38
19.949950 5.466542 97.676451 0.743299 0.206546 0.636275 1.7962614429870884e-38
19.366734 6.029639 97.666167 0.737984 0.224796 0.636275 1.7962614429870884e-38
20.044896 6.794174 96.883339 0.732222 0.242910 0.636275 1.7962614429870884e-38
19.337354 7.568246 98.003734 0.726015 0.260876 0.636275 1.7962614429870884e-38
19.525924 7.356517 97.953988 0.719367 0.278684 0.636275 1.7962614429870884e-38
19.437347 1.120821 98.613176 0.795335 0.039226 0.604899 1.7962614429870884e-38
19.449263 1.177791 99.231550 0.794128 0.058809 0.604899 1.7962614429870884e-38
19.699687 2.451099 98.840386 0.792438 0.078356 0.604899 1.7962614429870884e-38
19.585291 2.533392 98.781672 0.790267 0.097856 0.604899 1.7962614429870884e-38
19.103113 2.810604 98.744478 0.787616 0.117297 0.604899 1.7962614429870884e-38
19.466829 3.218503 99.104287 0.784487 0.136666 0.604899 1.7962614429870884e-38
19.309644 3.392681 98.782284 0.780882 0.155952 0.604899 1.7962614429870884e-38
18.953123 4.931125 98.982888 0.776802 0.175144 0.604899 1.7962614429870884e-38
19.400801 4.800395 99.519236 0.772251 0.194229 0.604899 1.7962614429870884e-38
18.697565 5.063269 99.302935 0.767232 0.213196 0.604899 1.7962614429870884e-38
18.784157 5.544646 98.800637 0.761746 0.232034 0.604899 1.7962614429870884e-38
19.371118 6.847354 99.091991 0.755798 0.250731 0.604899 1.7962614429870884e-38
18.691287 6.930105 99.086820 0.749391 0.269276 0.604899 1.7962614429870884e-38
18.187025 0.909108 100.069743 0.832260 0.041047 0.552864 1.7962614429870884e-38
18.561487 0.937951 100.535887 0.830996 0.061539 0.552864 1.7962614429870884e-38
18.882857 1.303613 99.923735 0.829227 0.081994 0.552864 1.7962614429870884e-38
18.607316 1.853085 100.232488 0.826956 0.102399 0.552864 1.7962614429870884e-38
18.785517 2.858518 100.812408 0.824182 0.122742 0.552864 1.7962614429870884e-38
18.352427 3.104462 100.048066 0.820908 0.143011 0.552864 1.7962614429870884e-38
18.805418 3.928031 99.866973 0.817135 0.163192 0.552864 1.7962614429870884e-38
18.885680 3.887956 100.462354 0.812866 0.183275 0.552864 1.7962614429870884e-38
18.582101 4.733106 100.107371 0.808104 0.203246 0.552864 1.7962614429870884e-38
18.131508 5.208637 100.364087 0.802851 0.223094 0.552864 1.7962614429870884e-38
18.307354 5.724713 100.308915 0.797111 0.242807 0.552864 1.7962614429870884e-38
18.377205 5.775798 100.218924 0.790887 0.262372 0.552864 1.7962614429870884e-38
18.134512 1.673602 101.700404 0.877413 0.064977 0.475315 1.7962614429870884e-38
18.034007 1.967596 101.761588 0.875546 0.086574 0.475315 1.7962614429870884e-38
17.536854 2.119619 101.083096 0.873147 0.108119 0.475315 1.7962614429870884e-38
17.752035 2.871233 101.083215 0.870218 0.129598 0.475315 1.7962614429870884e-38
18.591455 3.315837 101.267916 0.866761 0.150999 0.475315 1.7962614429870884e-38
17.776919 3.171688 101.000936 0.862778 0.172308 0.475315 1.7962614429870884e-38
17.607670 4.388589 101.021238 0.858271 0.193512 0.475315 1.7962614429870884e-38
17.989373 4.375766 101.514896 0.853243 0.214599 0.475315 1.7962614429870884e-38
17.526848 5.096564 101.772600 0.847696 0.235556 0.475315 1.7962614429870884e-38
17.315414 5.446981 101.833526 0.841636 0.256369 0.475315 1.7962614429870884e-38
17.463006 2.346131 102.660314 0.923041 0.114297 0.367330 1.7962614429870884e-38
17.672261 2.991318 102.675590 0.919945 0.137004 0.367330 1.7962614429870884e-38
17.027841 3.345950 102.947178 0.916290 0.159627 0.367330 1.7962614429870884e-38
17.381846 3.287143 102.793794 0.912079 0.182154 0.367330 1.7962614429870884e-38
17.063632 3.648254 102.788160 0.907314 0.204570 0.367330 1.7962614429870884e-38
16.764598 4.516657 102.764881 0.901999 0.226862 0.367330 1.7962614429870884e-38
16.912235 4.696344 102.358462 0.896136 0.249016 0.367330 1.7962614429870884e-38
17.173008 3.764464 104.328028 0.944391 0.237524 0.227393 1.7962614429870884e-38
