# .PCD v0.7 - Point Cloud Data file format
VERSION 0.7
FIELDS x y z normal_x normal_y normal_z rgb
SIZE 4 4 4 4 4 4 4
TYPE F F F F F F F
COUNT 1 1 1 1 1 1 1
WIDTH 261
HEIGHT 1
VIEWPOINT 0 0 0 1 0 0 0
POINTS 261
DATA ascii
30.964704 22.337636 65.559703 0.639741 0.452864 0.621004 1.5197831540281055e-38
29.464109 22.416613 65.548965 0.628390 0.468488 0.621004 1.5197831540281055e-38
29.956523 21.306749 66.771504 0.642782 0.455016 0.616273 1.5197831540281055e-38
30.198642 21.826450 66.437341 0.631376 0.470714 0.616273 1.5197831540281055e-38
28.441721 22.844672 66.326633 0.619587 0.486127 0.616273 1.5197831540281055e-38
27.935070 22.945346 66.941266 0.607422 0.501244 0.616273 1.5197831540281055e-38
29.324117 20.539400 68.098794 0.647700 0.458497 0.608494 1.5197831540281055e-38
28.323072 21.351976 68.136915 0.636207 0.474316 0.608494 1.5197831540281055e-38
27.819231 22.489879 67.577970 0.624328 0.489847 0.608494 1.5197831540281055e-38
27.719618 22.012589 67.964742 0.612070 0.505080 0.608494 1.5197831540281055e-38
27.133593 23.626974 68.009625 0.599441 0.520006 0.608494 1.5197831540281055e-38
26.332181 24.241269 68.326436 0.586447 0.534617 0.608494 1.5197831540281055e-38
28.107202 19.897821 69.386752 0.654471 0.463290 0.597520 1.5197831540281055e-38
27.467632 20.596872 68.720054 0.642858 0.479274 0.597520 1.5197831540281055e-38
27.794578 21.509503 69.371474 0.630855 0.494967 0.597520 1.5197831540281055e-38
26.509548 22.493875 69.729269 0.618468 0.510359 0.597520 1.5197831540281055e-38
26.302867 22.656213 69.444024 0.605707 0.525442 0.597520 1.5197831540281055e-38
25.933518 23.701669 69.477518 0.592577 0.540205 0.597520 1.5197831540281055e-38
25.416956 23.859167 69.551923 0.579088 0.554641 0.597520 1.5197831540281055e-38
24.391042 23.925758 69.139455 0.565247 0.568740 0.597520 1.5197831540281055e-38
27.982887 19.494262 70.754183 0.663047 0.469361 0.583154 1.5197831540281055e-38
27.777593 20.712985 70.443286 0.651282 0.485555 0.583154 1.5197831540281055e-38
26.330520 20.987658 71.219556 0.639122 0.501453 0.583154 1.5197831540281055e-38
26.539518 21.567304 70.984138 0.626573 0.517047 0.583154 1.5197831540281055e-38
25.949373 21.636732 70.833954 0.613644 0.532328 0.583154 1.5197831540281055e-38
25.079505 22.570535 70.542839 0.600343 0.547285 0.583154 1.5197831540281055e-38
24.598070 23.202362 70.479495 0.586677 0.561909 0.583154 1.5197831540281055e-38
23.789605 24.275030 70.425047 0.572655 0.576193 0.583154 1.5197831540281055e-38
22.779417 24.483467 70.231560 0.558285 0.590127 0.583154 1.5197831540281055e-38
22.287601 25.538146 70.756533 0.543576 0.603702 0.583154 1.5197831540281055e-38
27.372472 18.613439 71.663568 0.673356 0.476659 0.565144 1.5197831540281055e-38
26.952233 20.012950 71.692874 0.661408 0.493104 0.565144 1.5197831540281055e-38
25.979577 20.471724 71.640683 0.649059 0.509250 0.565144 1.5197831540281055e-38
25.632518 21.163626 71.418143 0.636315 0.525086 0.565144 1.5197831540281055e-38
24.795918 21.501344 71.675921 0.623185 0.540604 0.565144 1.5197831540281055e-38
24.483147 22.299672 71.536651 0.609677 0.555794 0.565144 1.5197831540281055e-38
24.248786 22.841502 72.191663 0.595798 0.570646 0.565144 1.5197831540281055e-38
23.708802 23.102813 71.605476 0.581558 0.585152 0.565144 1.5197831540281055e-38
22.567478 24.080937 71.970500 0.566965 0.599302 0.565144 1.5197831540281055e-38
22.138870 24.373481 72.248058 0.552028 0.613089 0.565144 1.5197831540281055e-38
21.351985 25.298211 71.741429 0.536755 0.626503 0.565144 1.5197831540281055e-38
20.839641 25.799476 72.215478 0.521157 0.639537 0.565144 1.5197831540281055e-38
25.743714 18.909167 73.094069 0.685284 0.485103 0.543195 1.5197831540281055e-38
25.628313 19.420973 72.837258 0.673125 0.501839 0.543195 1.5197831540281055e-38
25.177369 19.986101 73.418878 0.660556 0.518271 0.543195 1.5197831540281055e-38
24.916447 20.258976 72.884147 0.647587 0.534388 0.543195 1.5197831540281055e-38
24.574797 21.218612 73.277532 0.634224 0.550181 0.543195 1.5197831540281055e-38
23.910953 21.921358 73.593589 0.620477 0.565639 0.543195 1.5197831540281055e-38
22.845608 22.991864 73.270638 0.606353 0.580755 0.543195 1.5197831540281055e-38
23.483069 22.540839 73.104426 0.591860 0.595517 0.543195 1.5197831540281055e-38
22.173885 23.653106 73.130617 0.577009 0.609918 0.543195 1.5197831540281055e-38
21.650455 24.159751 72.957648 0.561807 0.623949 0.543195 1.5197831540281055e-38
20.792368 24.585554 72.834347 0.546263 0.637601 0.543195 1.5197831540281055e-38
20.300724 24.525908 73.006468 0.530389 0.650866 0.543195 1.5197831540281055e-38
19.438709 25.441858 72.663882 0.514192 0.663736 0.543195 1.5197831540281055e-38
19.078451 26.199721 72.810939 0.497683 0.676203 0.543195 1.5197831540281055e-38
25.153941 18.448287 73.662692 0.698665 0.494574 0.516976 1.5197831540281055e-38
25.610286 18.709239 74.012387 0.686267 0.511638 0.516976 1.5197831540281055e-38
24.827033 19.107032 74.381580 0.673454 0.528390 0.516976 1.5197831540281055e-38
24.198115 18.855942 73.983590 0.660231 0.544822 0.516976 1.5197831540281055e-38
23.792555 20.909914 74.326253 0.646608 0.560923 0.516976 1.5197831540281055e-38
23.535889 20.900310 74.445098 0.632592 0.576683 0.516976 1.5197831540281055e-38
22.915475 21.244880 74.556659 0.618192 0.592094 0.516976 1.5197831540281055e-38
22.248000 22.202210 74.137198 0.603416 0.607145 0.516976 1.5197831540281055e-38
21.282573 23.014844 74.317419 0.588275 0.621827 0.516976 1.5197831540281055e-38
21.199936 23.374390 74.288540 0.572776 0.636132 0.516976 1.5197831540281055e-38
20.354605 24.184647 74.408715 0.556929 0.650051 0.516976 1.5197831540281055e-38
19.901135 24.317668 73.696419 0.540745 0.663575 0.516976 1.5197831540281055e-38
18.647745 24.729190 74.607411 0.524232 0.676696 0.516976 1.5197831540281055e-38
18.413849 25.106580 73.935099 0.507401 0.689406 0.516976 1.5197831540281055e-38
17.609056 25.483243 74.310393 0.490261 0.701698 0.516976 1.5197831540281055e-38
17.208560 26.031838 74.038923 0.472824 0.713564 0.516976 1.5197831540281055e-38
25.509030 17.845305 76.048457 0.713259 0.504906 0.486139 1.5197831540281055e-38
24.365708 18.158982 75.394238 0.700603 0.522325 0.486139 1.5197831540281055e-38
23.791888 19.230257 75.441166 0.687522 0.539428 0.486139 1.5197831540281055e-38
23.337573 19.295036 75.202928 0.674023 0.556203 0.486139 1.5197831540281055e-38
23.469857 20.256544 75.424148 0.660115 0.572640 0.486139 1.5197831540281055e-38
22.580439 20.613075 75.998252 0.645806 0.588730 0.486139 1.5197831540281055e-38
22.103353 21.494705 75.365124 0.631105 0.604462 0.486139 1.5197831540281055e-38
22.148306 21.411535 75.706027 0.616021 0.619828 0.486139 1.5197831540281055e-38
20.872631 22.967914 75.673122 0.600563 0.634817 0.486139 1.5197831540281055e-38
20.033395 22.537575 75.669463 0.584741 0.649420 0.486139 1.5197831540281055e-38
20.173481 23.491191 75.510893 0.568563 0.663630 0.486139 1.5197831540281055e-38
19.299950 24.127362 75.204671 0.552040 0.677436 0.486139 1.5197831540281055e-38
18.819365 24.085929 75.253942 0.535183 0.690831 0.486139 1.5197831540281055e-38
18.061928 24.507291 75.628832 0.518000 0.703807 0.486139 1.5197831540281055e-38
17.142041 25.298062 75.273638 0.500502 0.716356 0.486139 1.5197831540281055e-38
16.968556 25.544309 75.314151 0.482701 0.728469 0.486139 1.5197831540281055e-38
16.687649 25.893166 75.674968 0.464607 0.740141 0.486139 1.5197831540281055e-38
15.892990 26.316937 75.086551 0.446231 0.751363 0.486139 1.5197831540281055e-38
24.292425 17.113689 76.534297 0.728743 0.515867 0.450350 1.5197831540281055e-38
23.823542 18.115377 76.775249 0.715812 0.533664 0.450350 1.5197831540281055e-38
24.113189 18.430491 76.761086 0.702447 0.551138 0.450350 1.5197831540281055e-38
23.397377 19.430518 76.330559 0.688655 0.568277 0.450350 1.5197831540281055e-38
22.818290 19.733183 76.791870 0.674445 0.585072 0.450350 1.5197831540281055e-38
22.222747 20.756262 76.433779 0.659826 0.601511 0.450350 1.5197831540281055e-38
21.414393 20.537035 76.613971 0.644806 0.617584 0.450350 1.5197831540281055e-38
21.268754 21.174793 77.002925 0.629394 0.633283 0.450350 1.5197831540281055e-38
20.648215 21.798094 76.301958 0.613601 0.648598 0.450350 1.5197831540281055e-38
20.651563 22.314891 77.192162 0.597435 0.663518 0.450350 1.5197831540281055e-38
19.362321 23.066877 76.532244 0.580906 0.678036 0.450350 1.5197831540281055e-38
19.526609 23.628633 76.955892 0.564024 0.692142 0.450350 1.5197831540281055e-38
18.183855 24.324970 77.312424 0.546801 0.705828 0.450350 1.5197831540281055e-38
17.696578 24.247621 76.979074 0.529245 0.719086 0.450350 1.5197831540281055e-38
16.617206 24.974342 77.008133 0.511368 0.731907 0.450350 1.5197831540281055e-38
16.427859 24.389393 76.800986 0.493180 0.744284 0.450350 1.5197831540281055e-38
15.634569 24.971926 76.812244 0.474693 0.756208 0.450350 1.5197831540281055e-38
15.738222 25.768558 77.056573 0.455918 0.767674 0.450350 1.5197831540281055e-38
24.264524 16.891765 78.590070 0.744689 0.527155 0.409324 1.5197831540281055e-38
23.687616 18.216586 77.648584 0.731475 0.545342 0.409324 1.5197831540281055e-38
23.161585 18.504568 77.980749 0.717818 0.563198 0.409324 1.5197831540281055e-38
22.875389 18.455242 77.816496 0.703724 0.580712 0.409324 1.5197831540281055e-38
21.988658 19.276991 77.881624 0.689203 0.597874 0.409324 1.5197831540281055e-38
21.610220 20.034708 77.618592 0.674264 0.614673 0.409324 1.5197831540281055e-38
20.628636 20.203839 78.583865 0.658915 0.631098 0.409324 1.5197831540281055e-38
20.917910 20.639376 78.071655 0.643166 0.647141 0.409324 1.5197831540281055e-38
20.203637 21.514789 78.202364 0.627027 0.662790 0.409324 1.5197831540281055e-38
19.768586 21.926928 78.384095 0.610508 0.678037 0.409324 1.5197831540281055e-38
19.327116 22.428187 77.950809 0.593617 0.692873 0.409324 1.5197831540281055e-38
18.438496 22.461466 78.139264 0.576366 0.707288 0.409324 1.5197831540281055e-38
18.422994 23.415006 78.107924 0.558766 0.721273 0.409324 1.5197831540281055e-38
17.194689 23.545189 77.553599 0.540826 0.734821 0.409324 1.5197831540281055e-38
16.796162 24.441997 77.728916 0.522557 0.747922 0.409324 1.5197831540281055e-38
16.248576 24.766101 78.300581 0.503972 0.760570 0.409324 1.5197831540281055e-38
15.166944 24.805781 77.716661 0.485080 0.772755 0.409324 1.5197831540281055e-38
23.525094 16.853914 78.989566 0.760561 0.538390 0.362882 1.5197831540281055e-38
22.456338 17.070441 79.279359 0.747066 0.556965 0.362882 1.5197831540281055e-38
23.171756 17.984589 79.617085 0.733117 0.575202 0.362882 1.5197831540281055e-38
22.171952 18.245991 79.278181 0.718723 0.593089 0.362882 1.5197831540281055e-38
21.746924 19.299494 78.753581 0.703892 0.610617 0.362882 1.5197831540281055e-38
21.644406 19.857955 79.284784 0.688635 0.627773 0.362882 1.5197831540281055e-38
21.172602 19.821758 78.925833 0.672959 0.644549 0.362882 1.5197831540281055e-38
20.504945 20.308665 79.265411 0.656874 0.660933 0.362882 1.5197831540281055e-38
19.977880 21.001466 79.259947 0.640391 0.676916 0.362882 1.5197831540281055e-38
19.553851 21.475274 79.032198 0.623519 0.692489 0.362882 1.5197831540281055e-38
19.074528 22.057803 79.310580 0.606269 0.707640 0.362882 1.5197831540281055e-38
18.455360 22.477581 79.071998 0.588651 0.722362 0.362882 1.5197831540281055e-38
17.537294 22.850059 79.319783 0.570675 0.736646 0.362882 1.5197831540281055e-38
17.311868 23.349454 79.280915 0.552352 0.750482 0.362882 1.5197831540281055e-38
16.242539 23.582499 79.376529 0.533695 0.763863 0.362882 1.5197831540281055e-38
15.734420 24.165345 79.190728 0.514713 0.776780 0.362882 1.5197831540281055e-38
23.374411 16.261726 80.323664 0.775718 0.549119 0.311014 1.5197831540281055e-38
23.284237 17.068515 80.596607 0.761954 0.568064 0.311014 1.5197831540281055e-38
22.261365 17.635073 80.181127 0.747727 0.586665 0.311014 1.5197831540281055e-38
21.733323 18.012384 80.204019 0.733046 0.604909 0.311014 1.5197831540281055e-38
21.835761 18.845810 79.724681 0.717920 0.622785 0.311014 1.5197831540281055e-38
21.575038 19.389046 80.755752 0.702358 0.640284 0.311014 1.5197831540281055e-38
20.527150 19.261474 80.015156 0.686370 0.657394 0.311014 1.5197831540281055e-38
20.598765 19.722522 79.978684 0.669965 0.674105 0.311014 1.5197831540281055e-38
19.452704 20.284022 80.572313 0.653153 0.690406 0.311014 1.5197831540281055e-38
19.249866 21.299741 80.228125 0.635945 0.706289 0.311014 1.5197831540281055e-38
18.625754 22.174032 79.982173 0.618351 0.721743 0.311014 1.5197831540281055e-38
18.335375 22.331544 80.380792 0.600382 0.736758 0.311014 1.5197831540281055e-38
17.500596 22.632943 80.119413 0.582047 0.751326 0.311014 1.5197831540281055e-38
16.400721 23.220985 80.038898 0.563360 0.765438 0.311014 1.5197831540281055e-38
15.991930 23.203528 80.497719 0.544331 0.779086 0.311014 1.5197831540281055e-38
23.233666 15.770572 81.731699 0.802969 0.539214 0.253947 1.5197831540281055e-38
22.611180 16.035619 81.558614 0.789441 0.558833 0.253947 1.5197831540281055e-38
22.648179 17.229782 81.684206 0.775433 0.578114 0.253947 1.5197831540281055e-38
22.104483 17.456764 81.602365 0.760954 0.597043 0.253947 1.5197831540281055e-38
21.689470 18.358520 81.582565 0.746013 0.615609 0.253947 1.5197831540281055e-38
21.327175 18.239367 82.027737 0.730620 0.633802 0.253947 1.5197831540281055e-38
20.514585 18.929204 81.944234 0.714783 0.651611 0.253947 1.5197831540281055e-38
20.055000 19.717545 81.034760 0.698512 0.669023 0.253947 1.5197831540281055e-38
19.501673 19.923523 82.372377 0.681817 0.686030 0.253947 1.5197831540281055e-38
19.375314 20.484296 81.993802 0.664708 0.702620 0.253947 1.5197831540281055e-38
18.496451 19.994349 82.169640 0.647195 0.718783 0.253947 1.5197831540281055e-38
18.483011 21.228152 81.666692 0.629290 0.734510 0.253947 1.5197831540281055e-38
18.085401 21.767376 81.692950 0.611002 0.749791 0.253947 1.5197831540281055e-38
17.837719 21.864272 81.804648 0.592344 0.764617 0.253947 1.5197831540281055e-38
16.307412 23.123985 81.737416 0.573326 0.778979 0.253947 1.5197831540281055e-38
23.086100 15.933066 83.196984 0.814706 0.547095 0.192202 1.5197831540281055e-38
22.508411 16.972477 82.861151 0.800979 0.567001 0.192202 1.5197831540281055e-38
22.711774 16.558297 83.074015 0.786767 0.586563 0.192202 1.5197831540281055e-38
22.192540 16.737345 83.410674 0.772076 0.605769 0.192202 1.5197831540281055e-38
21.243048 17.618429 82.705047 0.756917 0.624607 0.192202 1.5197831540281055e-38
20.864098 18.090894 82.528403 0.741299 0.643066 0.192202 1.5197831540281055e-38
20.806695 18.794195 82.845110 0.725230 0.661135 0.192202 1.5197831540281055e-38
20.414714 19.790851 82.418584 0.708722 0.678802 0.192202 1.5197831540281055e-38
20.116311 19.743582 82.481317 0.691782 0.696057 0.192202 1.5197831540281055e-38
19.260494 20.193077 83.144760 0.674423 0.712889 0.192202 1.5197831540281055e-38
18.676121 20.800532 82.756033 0.656655 0.729289 0.192202 1.5197831540281055e-38
17.808483 21.368796 82.729110 0.638488 0.745246 0.192202 1.5197831540281055e-38
17.711239 22.031961 82.838660 0.619933 0.760751 0.192202 1.5197831540281055e-38
17.263379 22.003860 82.777202 0.601002 0.775793 0.192202 1.5197831540281055e-38
16.037128 22.414688 82.837329 0.581706 0.790365 0.192202 1.5197831540281055e-38
23.207194 15.527598 83.583765 0.823501 0.553002 0.126626 1.5197831540281055e-38
22.743559 16.282973 84.770630 0.809627 0.573123 0.126626 1.5197831540281055e-38
22.079440 16.571699 83.477911 0.795261 0.592896 0.126626 1.5197831540281055e-38
22.040545 17.348290 84.244865 0.780412 0.612309 0.126626 1.5197831540281055e-38
21.679286 17.361181 84.058270 0.765089 0.631351 0.126626 1.5197831540281055e-38
20.829287 18.445480 84.460207 0.749302 0.650009 0.126626 1.5197831540281055e-38
20.525659 18.704314 84.288989 0.733060 0.668273 0.126626 1.5197831540281055e-38
19.864330 19.530929 83.988131 0.716373 0.686131 0.126626 1.5197831540281055e-38
19.616957 19.429627 84.407760 0.699251 0.703572 0.126626 1.5197831540281055e-38
18.969194 20.702664 84.085775 0.681705 0.720586 0.126626 1.5197831540281055e-38
18.779730 20.355539 84.031540 0.663744 0.737163 0.126626 1.5197831540281055e-38
17.974121 21.099621 83.899760 0.645381 0.753292 0.126626 1.5197831540281055e-38
17.292793 21.457766 84.243321 0.626626 0.768964 0.126626 1.5197831540281055e-38
16.919836 21.800919 83.725499 0.607491 0.784169 0.126626 1.5197831540281055e-38
22.839329 14.877675 85.496706 0.828768 0.556539 0.058377 1.5197831540281055e-38
22.147733 16.019289 85.571178 0.814805 0.576788 0.058377 1.5197831540281055e-38
22.193582 16.190024 85.455447 0.800347 0.596688 0.058377 1.5197831540281055e-38
21.595307 16.816955 85.979901 0.785403 0.616226 0.058377 1.5197831540281055e-38
20.964683 17.670808 85.818555 0.769983 0.635389 0.058377 1.5197831540281055e-38
20.910824 17.855686 85.195450 0.754095 0.654166 0.058377 1.5197831540281055e-38
19.926120 18.575150 85.399900 0.737749 0.672547 0.058377 1.5197831540281055e-38
19.806872 19.469876 85.349625 0.720955 0.690519 0.058377 1.5197831540281055e-38
18.941872 19.981739 85.016288 0.703723 0.708072 0.058377 1.5197831540281055e-38
19.084167 20.202613 85.349335 0.686065 0.725195 0.058377 1.5197831540281055e-38
18.713969 20.494767 85.265638 0.667989 0.741877 0.058377 1.5197831540281055e-38
17.299077 20.399939 86.199766 0.649509 0.758110 0.058377 1.5197831540281055e-38
17.624762 21.731529 86.128620 0.630634 0.773882 0.058377 1.5197831540281055e-38
22.547416 15.530626 86.687264 0.829863 0.557274 0.027806 1.5197831540281055e-38
22.216281 16.333895 86.660499 0.815881 0.577550 0.027806 1.5197831540281055e-38
21.617709 16.718778 86.396141 0.801404 0.597476 0.027806 1.5197831540281055e-38
21.510381 16.917375 86.856903 0.786441 0.617040 0.027806 1.5197831540281055e-38
21.191250 17.686795 86.125861 0.771000 0.636228 0.027806 1.5197831540281055e-38
20.439945 18.028093 86.380388 0.755091 0.655030 0.027806 1.5197831540281055e-38
20.259405 18.748542 86.356989 0.738723 0.673435 0.027806 1.5197831540281055e-38
19.637536 19.052719 85.960042 0.721907 0.691431 0.027806 1.5197831540281055e-38
19.685785 19.542324 86.625855 0.704653 0.709007 0.027806 1.5197831540281055e-38
18.735321 20.181642 86.549512 0.686971 0.726153 0.027806 1.5197831540281055e-38
18.767090 19.921163 86.616917 0.668872 0.742857 0.027806 1.5197831540281055e-38
17.902927 20.974926 87.019035 0.650367 0.759111 0.027806 1.5197831540281055e-38
23.475029 15.274450 87.899981 0.814084 0.546678 0.195984 1.5197831540281055e-38
22.817710 16.263958 88.047305 0.800368 0.566569 0.195984 1.5197831540281055e-38
21.661140 16.384643 87.990283 0.786167 0.586116 0.195984 1.5197831540281055e-38
22.107761 17.771148 87.655347 0.771488 0.605307 0.195984 1.5197831540281055e-38
21.355374 17.166850 87.797591 0.756340 0.624131 0.195984 1.5197831540281055e-38
20.403949 18.426671 87.906401 0.740734 0.642576 0.195984 1.5197831540281055e-38
20.304311 18.444350 87.947941 0.724677 0.660631 0.195984 1.5197831540281055e-38
19.879225 18.716497 87.328707 0.708181 0.678284 0.195984 1.5197831540281055e-38
18.885670 18.919841 87.893525 0.691255 0.695526 0.195984 1.5197831540281055e-38
18.555057 20.166298 87.907250 0.673909 0.712346 0.195984 1.5197831540281055e-38
17.754066 20.206275 87.198197 0.656154 0.728733 0.195984 1.5197831540281055e-38
21.793062 14.393548 88.607853 0.780175 0.523907 0.341830 1.5197831540281055e-38
22.319972 15.000624 89.069210 0.767031 0.542970 0.341830 1.5197831540281055e-38
21.378074 16.188315 89.029667 0.753420 0.561703 0.341830 1.5197831540281055e-38
21.322025 16.550539 89.284380 0.739353 0.580094 0.341830 1.5197831540281055e-38
21.268808 17.568117 88.963444 0.724836 0.598134 0.341830 1.5197831540281055e-38
20.140440 17.755356 89.664783 0.709880 0.615811 0.341830 1.5197831540281055e-38
19.941807 18.445526 89.307300 0.694492 0.633113 0.341830 1.5197831540281055e-38
19.735064 19.061944 88.677121 0.678683 0.650032 0.341830 1.5197831540281055e-38
18.748334 19.169201 89.441273 0.662462 0.666555 0.341830 1.5197831540281055e-38
18.928014 19.604347 89.371617 0.645839 0.682674 0.341830 1.5197831540281055e-38
21.618215 15.360940 90.536273 0.726281 0.514124 0.456281 1.5197831540281055e-38
21.041284 15.766416 90.665882 0.713394 0.531862 0.456281 1.5197831540281055e-38
20.456224 15.591915 90.113241 0.700074 0.549276 0.456281 1.5197831540281055e-38
20.593196 16.867303 90.022420 0.686329 0.566358 0.456281 1.5197831540281055e-38
20.010426 17.230176 89.839608 0.672167 0.583095 0.456281 1.5197831540281055e-38
19.453615 18.050799 90.225910 0.657597 0.599479 0.456281 1.5197831540281055e-38
18.656665 18.821530 90.011313 0.642627 0.615498 0.456281 1.5197831540281055e-38
18.765660 19.019601 90.435797 0.627268 0.631144 0.456281 1.5197831540281055e-38
19.973242 15.851531 90.974269 0.662394 0.519713 0.539567 1.5197831540281055e-38
20.061830 15.977124 91.629025 0.649389 0.535875 0.539567 1.5197831540281055e-38
19.818590 16.747385 91.266751 0.635989 0.551712 0.539567 1.5197831540281055e-38
19.421997 17.558213 91.207456 0.622203 0.567213 0.539567 1.5197831540281055e-38
18.635371 17.552393 91.864562 0.608040 0.582371 0.539567 1.5197831540281055e-38
18.543569 16.223381 93.527378 0.606402 0.526045 0.596283 1.5197831540281055e-38
18.630453 16.258162 92.713444 0.593257 0.540825 0.596283 1.5197831540281055e-38
