# .PCD v0.7 - Point Cloud Data file format
VERSION 0.7
FIELDS x y z normal_x normal_y normal_z rgb
SIZE 4 4 4 4 4 4 4
TYPE F F F F F F F
COUNT 1 1 1 1 1 1 1
WIDTH 289
HEIGHT 1
VIEWPOINT 0 0 0 1 0 0 0
POINTS 289
DATA ascii
-2.385500 -50.082879 38.199445 -0.052051 -0.937912 -0.342947 1.5843200949324314e-38
-1.174588 -49.398017 38.672381 -0.028927 -0.938909 -0.342947 1.5843200949324314e-38
0.355449 -49.302665 38.701196 -0.005786 -0.939337 -0.342947 1.5843200949324314e-38
-7.527543 -49.020897 39.341993 -0.149026 -0.960043 -0.236874 1.5843200949324314e-38
-6.545975 -48.923136 40.176506 -0.125328 -0.963423 -0.236874 1.5843200949324314e-38
-4.876143 -48.866699 39.380229 -0.101554 -0.966218 -0.236874 1.5843200949324314e-38
-4.450119 -49.561247 39.829086 -0.077718 -0.968427 -0.236874 1.5843200949324314e-38
-3.310638 -49.906319 39.343010 -0.053834 -0.970048 -0.236874 1.5843200949324314e-38
-1.423692 -49.612888 39.355081 -0.029919 -0.971080 -0.236874 1.5843200949324314e-38
-0.252235 -50.047247 39.459701 -0.005985 -0.971522 -0.236874 1.5843200949324314e-38
-12.342762 -48.327543 41.105336 -0.248118 -0.961436 -0.118656 1.5843200949324314e-38
-10.804566 -48.600385 40.579127 -0.224355 -0.967257 -0.118656 1.5843200949324314e-38
-10.421300 -48.392172 41.295854 -0.200456 -0.972491 -0.118656 1.5843200949324314e-38
-8.605847 -49.117191 41.069292 -0.176436 -0.977134 -0.118656 1.5843200949324314e-38
-7.267462 -49.524205 40.833681 -0.152308 -0.981184 -0.118656 1.5843200949324314e-38
-6.772764 -49.551253 41.288024 -0.128088 -0.984639 -0.118656 1.5843200949324314e-38
-4.895512 -49.615690 40.016772 -0.103790 -0.987496 -0.118656 1.5843200949324314e-38
-4.190828 -49.738982 40.759968 -0.079429 -0.989753 -0.118656 1.5843200949324314e-38
-2.756847 -49.780223 40.664638 -0.055020 -0.991410 -0.118656 1.5843200949324314e-38
-1.539848 -49.950865 40.613781 -0.030578 -0.992464 -0.118656 1.5843200949324314e-38
0.246337 -50.071702 40.148480 -0.006116 -0.992917 -0.118656 1.5843200949324314e-38
-15.369979 -47.020507 42.703327 -0.320708 -0.947172 0.003484 1.5843200949324314e-38
-14.882170 -48.237901 41.850015 -0.297275 -0.954786 0.003484 1.5843200949324314e-38
-13.864361 -48.377086 41.403084 -0.273661 -0.961820 0.003484 1.5843200949324314e-38
-12.186729 -48.971703 42.340519 -0.249881 -0.968270 0.003484 1.5843200949324314e-38
-10.641875 -48.940325 42.178127 -0.225950 -0.974133 0.003484 1.5843200949324314e-38
-10.213688 -48.722260 41.703532 -0.201881 -0.979404 0.003484 1.5843200949324314e-38
-8.924067 -48.867857 42.047195 -0.177690 -0.984080 0.003484 1.5843200949324314e-38
-8.158155 -49.035671 41.673063 -0.153391 -0.988159 0.003484 1.5843200949324314e-38
-6.426327 -49.407335 42.097811 -0.128998 -0.991639 0.003484 1.5843200949324314e-38
-4.465181 -49.505844 42.001151 -0.104528 -0.994516 0.003484 1.5843200949324314e-38
-3.818905 -49.776675 42.075166 -0.079994 -0.996789 0.003484 1.5843200949324314e-38
-2.697432 -50.053299 42.125726 -0.055411 -0.998458 0.003484 1.5843200949324314e-38
-1.691397 -50.545037 42.403916 -0.030795 -0.999520 0.003484 1.5843200949324314e-38
-0.477631 -49.956528 41.833729 -0.006160 -0.999975 0.003484 1.5843200949324314e-38
-18.352767 -46.730492 43.318808 -0.366003 -0.927757 0.072865 1.5843200949324314e-38
-16.778584 -46.635437 43.290127 -0.343035 -0.936492 0.072865 1.5843200949324314e-38
-15.406054 -46.504277 43.154926 -0.319858 -0.944660 0.072865 1.5843200949324314e-38
-14.923492 -47.486229 43.025076 -0.296487 -0.952253 0.072865 1.5843200949324314e-38
-13.415415 -48.015170 43.410461 -0.272936 -0.959269 0.072865 1.5843200949324314e-38
-12.654915 -48.604135 42.703329 -0.249219 -0.965702 0.072865 1.5843200949324314e-38
-10.841401 -48.378240 43.500977 -0.225351 -0.971549 0.072865 1.5843200949324314e-38
-9.980036 -49.615250 43.073639 -0.201346 -0.976806 0.072865 1.5843200949324314e-38
-8.952935 -49.481992 42.790912 -0.177219 -0.981470 0.072865 1.5843200949324314e-38
-7.955508 -49.346609 43.313789 -0.152984 -0.985539 0.072865 1.5843200949324314e-38
-6.171579 -48.916194 43.504698 -0.128656 -0.989009 0.072865 1.5843200949324314e-38
-5.274125 -49.138773 42.824388 -0.104251 -0.991878 0.072865 1.5843200949324314e-38
-4.619567 -50.058451 43.542625 -0.079782 -0.994146 0.072865 1.5843200949324314e-38
-2.717375 -50.214266 43.080841 -0.055264 -0.995810 0.072865 1.5843200949324314e-38
-1.910736 -50.301277 43.764286 -0.030713 -0.996869 0.072865 1.5843200949324314e-38
-0.350735 -49.420694 43.031965 -0.006144 -0.997323 0.072865 1.5843200949324314e-38
-18.967385 -46.425765 44.532542 -0.363330 -0.920981 0.140662 1.5843200949324314e-38
-17.478163 -47.158893 44.531257 -0.340529 -0.929653 0.140662 1.5843200949324314e-38
-16.167165 -47.251647 44.425915 -0.317522 -0.937760 0.140662 1.5843200949324314e-38
-14.735523 -47.736675 44.389459 -0.294321 -0.945298 0.140662 1.5843200949324314e-38
-14.198254 -47.932636 44.562690 -0.270942 -0.952263 0.140662 1.5843200949324314e-38
-12.502320 -47.665341 44.584916 -0.247399 -0.958649 0.140662 1.5843200949324314e-38
-11.303691 -48.381217 45.169942 -0.223705 -0.964453 0.140662 1.5843200949324314e-38
-9.981835 -49.460611 44.665700 -0.199875 -0.969672 0.140662 1.5843200949324314e-38
-9.116221 -49.603293 45.045351 -0.175924 -0.974302 0.140662 1.5843200949324314e-38
-7.197440 -49.501323 44.266493 -0.151867 -0.978341 0.140662 1.5843200949324314e-38
-6.378608 -49.668656 44.495560 -0.127717 -0.981785 0.140662 1.5843200949324314e-38
-5.421496 -49.666564 44.114776 -0.103489 -0.984634 0.140662 1.5843200949324314e-38
-3.737193 -49.298567 44.506021 -0.079199 -0.986885 0.140662 1.5843200949324314e-38
-2.771437 -49.554069 44.536653 -0.054861 -0.988537 0.140662 1.5843200949324314e-38
-1.015321 -50.190639 44.794365 -0.030489 -0.989588 0.140662 1.5843200949324314e-38
-0.341145 -50.154777 45.210209 -0.006099 -0.990039 0.140662 1.5843200949324314e-38
-19.424610 -45.543998 46.155934 -0.381465 -0.901247 0.205519 1.5843200949324314e-38
-18.461264 -46.214185 45.585449 -0.359145 -0.910372 0.205519 1.5843200949324314e-38
-16.922068 -47.144604 46.204184 -0.336607 -0.918944 0.205519 1.5843200949324314e-38
-15.747550 -46.804378 45.064202 -0.313864 -0.926958 0.205519 1.5843200949324314e-38
-15.057402 -46.911884 45.719974 -0.290931 -0.934409 0.205519 1.5843200949324314e-38
-14.091298 -47.641450 45.976943 -0.267821 -0.941294 0.205519 1.5843200949324314e-38
-12.235108 -48.073007 46.113865 -0.244549 -0.947606 0.205519 1.5843200949324314e-38
-11.418113 -48.156651 45.813701 -0.221128 -0.953344 0.205519 1.5843200949324314e-38
-10.053584 -48.693834 45.670118 -0.197573 -0.958502 0.205519 1.5843200949324314e-38
-8.804052 -48.899915 45.993117 -0.173898 -0.963079 0.205519 1.5843200949324314e-38
-7.769243 -48.543943 45.598995 -0.150117 -0.967071 0.205519 1.5843200949324314e-38
-6.122523 -48.898040 45.822955 -0.126245 -0.970476 0.205519 1.5843200949324314e-38
-5.161734 -49.548408 45.618074 -0.102297 -0.973292 0.205519 1.5843200949324314e-38
-3.901895 -49.456024 46.128121 -0.078287 -0.975517 0.205519 1.5843200949324314e-38
-2.884866 -49.643452 45.273777 -0.054229 -0.977149 0.205519 1.5843200949324314e-38
-1.334421 -49.411949 46.066320 -0.030138 -0.978189 0.205519 1.5843200949324314e-38
0.004489 -49.363815 46.022531 -0.006028 -0.978634 0.205519 1.5843200949324314e-38
-18.563710 -45.239085 46.576426 -0.375706 -0.887641 0.266341 1.5843200949324314e-38
-17.775902 -45.351429 46.478646 -0.353723 -0.896628 0.266341 1.5843200949324314e-38
-16.765090 -46.034434 46.946461 -0.331525 -0.905071 0.266341 1.5843200949324314e-38
-16.537738 -46.785037 46.835989 -0.309126 -0.912964 0.266341 1.5843200949324314e-38
-14.196943 -47.098199 46.886616 -0.286539 -0.920303 0.266341 1.5843200949324314e-38
-13.667656 -47.320692 47.027370 -0.263778 -0.927083 0.266341 1.5843200949324314e-38
-12.556322 -47.657217 46.843133 -0.240857 -0.933301 0.266341 1.5843200949324314e-38
-11.917173 -47.825044 47.182265 -0.217790 -0.938952 0.266341 1.5843200949324314e-38
-9.892968 -48.418061 46.988691 -0.194590 -0.944032 0.266341 1.5843200949324314e-38
-8.514456 -48.705422 47.268203 -0.171273 -0.948540 0.266341 1.5843200949324314e-38
-8.004729 -48.666532 47.018037 -0.147851 -0.952472 0.266341 1.5843200949324314e-38
-6.058911 -49.164187 46.767366 -0.124340 -0.955825 0.266341 1.5843200949324314e-38
-5.571646 -49.200376 47.086935 -0.100753 -0.958599 0.266341 1.5843200949324314e-38
-4.483104 -49.275310 47.193546 -0.077105 -0.960790 0.266341 1.5843200949324314e-38
-2.762673 -49.202122 46.558480 -0.053410 -0.962398 0.266341 1.5843200949324314e-38
-1.548223 -49.268441 46.961190 -0.029683 -0.963422 0.266341 1.5843200949324314e-38
-0.257847 -49.392231 46.873498 -0.005937 -0.963861 0.266341 1.5843200949324314e-38
-20.191667 -44.656157 48.475175 -0.390345 -0.862393 0.322349 1.5843200949324314e-38
-18.932210 -45.129487 49.162700 -0.368979 -0.871748 0.322349 1.5843200949324314e-38
-17.646703 -44.772102 48.122936 -0.347390 -0.880575 0.322349 1.5843200949324314e-38
-16.750600 -46.305504 48.148279 -0.325589 -0.888866 0.322349 1.5843200949324314e-38
-15.863893 -45.435966 48.039679 -0.303591 -0.896618 0.322349 1.5843200949324314e-38
-14.612586 -47.143184 48.407540 -0.281408 -0.903825 0.322349 1.5843200949324314e-38
-13.657286 -46.775628 47.710925 -0.259055 -0.910484 0.322349 1.5843200949324314e-38
-12.260420 -47.920477 48.100269 -0.236544 -0.916590 0.322349 1.5843200949324314e-38
-11.139391 -47.833235 48.097358 -0.213890 -0.922140 0.322349 1.5843200949324314e-38
-9.584460 -47.259047 48.349215 -0.191106 -0.927130 0.322349 1.5843200949324314e-38
-8.950412 -48.120931 48.141142 -0.168206 -0.931557 0.322349 1.5843200949324314e-38
-7.236892 -48.253342 47.774084 -0.145204 -0.935418 0.322349 1.5843200949324314e-38
-5.981084 -48.219847 48.695931 -0.122113 -0.938712 0.322349 1.5843200949324314e-38
-5.268321 -48.560356 47.891990 -0.098949 -0.941435 0.322349 1.5843200949324314e-38
-3.928583 -48.642765 48.056606 -0.075724 -0.943587 0.322349 1.5843200949324314e-38
-2.607951 -48.793071 48.112472 -0.052454 -0.945167 0.322349 1.5843200949324314e-38
-1.087211 -48.965761 48.287277 -0.029151 -0.946172 0.322349 1.5843200949324314e-38
-0.741407 -48.761944 48.104355 -0.005831 -0.946603 0.322349 1.5843200949324314e-38
1.191126 -49.303620 48.376632 0.017493 -0.946459 0.322349 1.5843200949324314e-38
-19.911830 -44.088502 49.624456 -0.382583 -0.845243 0.373087 1.5843200949324314e-38
-19.444433 -44.804332 49.621032 -0.361642 -0.854413 0.373087 1.5843200949324314e-38
-17.784645 -44.416325 49.323979 -0.340482 -0.863063 0.373087 1.5843200949324314e-38
-16.384454 -45.260604 49.527382 -0.319115 -0.871190 0.373087 1.5843200949324314e-38
-15.443965 -45.986295 48.892586 -0.297554 -0.878788 0.373087 1.5843200949324314e-38
-14.300974 -46.139672 49.660230 -0.275812 -0.885852 0.373087 1.5843200949324314e-38
-13.242497 -46.317956 49.224739 -0.253903 -0.892378 0.373087 1.5843200949324314e-38
-11.668555 -47.218030 49.452184 -0.231840 -0.898363 0.373087 1.5843200949324314e-38
-10.745104 -47.360235 49.709238 -0.209637 -0.903802 0.373087 1.5843200949324314e-38
-9.885848 -47.425745 49.430198 -0.187306 -0.908693 0.373087 1.5843200949324314e-38
-8.783765 -47.012484 49.232612 -0.164861 -0.913032 0.373087 1.5843200949324314e-38
-8.119035 -48.126568 49.523925 -0.142316 -0.916816 0.373087 1.5843200949324314e-38
-6.364225 -47.748504 49.779191 -0.119685 -0.920044 0.373087 1.5843200949324314e-38
-5.160859 -48.698171 49.099591 -0.096981 -0.922714 0.373087 1.5843200949324314e-38
-3.886099 -48.773023 49.374200 -0.074218 -0.924823 0.373087 1.5843200949324314e-38
-2.258792 -48.281664 49.498236 -0.051411 -0.926371 0.373087 1.5843200949324314e-38
-1.804528 -48.381461 49.406979 -0.028572 -0.927356 0.373087 1.5843200949324314e-38
-0.226914 -48.239917 49.753973 -0.005715 -0.927779 0.373087 1.5843200949324314e-38
0.934136 -48.297115 49.330942 0.017145 -0.927638 0.373087 1.5843200949324314e-38
-19.997852 -43.469596 50.992971 -0.374531 -0.827454 0.418385 1.5843200949324314e-38
-18.653977 -43.817970 50.305719 -0.354031 -0.836431 0.418385 1.5843200949324314e-38
-17.564677 -44.176815 51.014706 -0.333316 -0.844899 0.418385 1.5843200949324314e-38
-16.052849 -45.177991 50.996806 -0.312398 -0.852855 0.418385 1.5843200949324314e-38
-15.498057 -45.214889 51.114913 -0.291291 -0.860293 0.418385 1.5843200949324314e-38
-14.485201 -46.315063 51.275919 -0.270008 -0.867208 0.418385 1.5843200949324314e-38
-12.968849 -46.127577 50.673047 -0.248560 -0.873597 0.418385 1.5843200949324314e-38
-12.604489 -46.341969 50.562480 -0.226961 -0.879456 0.418385 1.5843200949324314e-38
-10.812963 -46.676464 49.708322 -0.205225 -0.884781 0.418385 1.5843200949324314e-38
-9.528216 -46.881481 50.818630 -0.183364 -0.889568 0.418385 1.5843200949324314e-38
-8.570858 -47.147619 50.773492 -0.161391 -0.893816 0.418385 1.5843200949324314e-38
-7.269010 -47.215113 50.806478 -0.139321 -0.897521 0.418385 1.5843200949324314e-38
-5.627363 -47.742335 50.609163 -0.117166 -0.900681 0.418385 1.5843200949324314e-38
-4.501635 -47.708801 51.001141 -0.094940 -0.903294 0.418385 1.5843200949324314e-38
-3.793070 -47.839718 51.017524 -0.072656 -0.905359 0.418385 1.5843200949324314e-38
-2.500066 -48.311529 50.773697 -0.050329 -0.906874 0.418385 1.5843200949324314e-38
-1.774370 -47.520882 51.247726 -0.027970 -0.907839 0.418385 1.5843200949324314e-38
0.266976 -47.816795 50.583179 -0.005595 -0.908253 0.418385 1.5843200949324314e-38
0.982128 -48.198692 51.425299 0.016784 -0.908115 0.418385 1.5843200949324314e-38
-20.287295 -42.592669 51.799841 -0.386341 -0.800443 0.458292 1.5843200949324314e-38
-19.819087 -43.466785 51.735938 -0.366503 -0.809718 0.458292 1.5843200949324314e-38
-18.614468 -43.462763 51.911745 -0.346442 -0.818502 0.458292 1.5843200949324314e-38
-17.560960 -44.321892 51.747974 -0.326171 -0.826789 0.458292 1.5843200949324314e-38
-16.445112 -44.658019 52.160697 -0.305702 -0.834574 0.458292 1.5843200949324314e-38
-14.765818 -45.173909 52.294539 -0.285048 -0.841853 0.458292 1.5843200949324314e-38
-13.859376 -45.127428 52.416762 -0.264220 -0.848620 0.458292 1.5843200949324314e-38
-13.001003 -45.393689 51.995880 -0.243232 -0.854872 0.458292 1.5843200949324314e-38
-11.809831 -45.681795 51.972689 -0.222096 -0.860605 0.458292 1.5843200949324314e-38
-10.552337 -46.297862 51.767189 -0.200826 -0.865816 0.458292 1.5843200949324314e-38
-9.755524 -46.455790 52.262748 -0.179433 -0.870501 0.458292 1.5843200949324314e-38
-8.547122 -46.371911 52.038397 -0.157932 -0.874658 0.458292 1.5843200949324314e-38
-7.391026 -46.367922 52.179596 -0.136335 -0.878283 0.458292 1.5843200949324314e-38
-6.103798 -46.949658 51.986881 -0.114655 -0.881375 0.458292 1.5843200949324314e-38
-5.405221 -47.308955 52.097518 -0.092905 -0.883933 0.458292 1.5843200949324314e-38
-4.260261 -47.393335 51.841000 -0.071099 -0.885953 0.458292 1.5843200949324314e-38
-1.751013 -47.045870 52.287965 -0.049250 -0.887436 0.458292 1.5843200949324314e-38
-1.698788 -47.189635 51.430711 -0.027371 -0.888380 0.458292 1.5843200949324314e-38
-0.390677 -47.168187 51.533490 -0.005475 -0.888785 0.458292 1.5843200949324314e-38
0.992376 -47.169793 51.778012 0.016424 -0.888650 0.458292 1.5843200949324314e-38
-20.799590 -41.764337 53.056549 -0.378177 -0.783529 0.493015 1.5843200949324314e-38
-19.315819 -42.803597 52.870226 -0.358759 -0.792609 0.493015 1.5843200949324314e-38
-17.993124 -42.966636 52.877816 -0.339122 -0.801207 0.493015 1.5843200949324314e-38
-16.882692 -43.043470 53.163227 -0.319279 -0.809319 0.493015 1.5843200949324314e-38
-15.744533 -44.105103 53.369039 -0.299243 -0.816939 0.493015 1.5843200949324314e-38
-14.912865 -44.424053 53.811794 -0.279025 -0.824064 0.493015 1.5843200949324314e-38
-13.798371 -44.719028 53.201764 -0.258637 -0.830688 0.493015 1.5843200949324314e-38
-13.027507 -45.217002 53.061050 -0.238092 -0.836808 0.493015 1.5843200949324314e-38
-11.771756 -45.412107 53.571210 -0.217403 -0.842420 0.493015 1.5843200949324314e-38
-10.770542 -45.724017 52.840160 -0.196582 -0.847521 0.493015 1.5843200949324314e-38
-9.802571 -45.382017 53.273326 -0.175642 -0.852107 0.493015 1.5843200949324314e-38
-8.082328 -45.602897 53.095886 -0.154595 -0.856176 0.493015 1.5843200949324314e-38
-6.714172 -46.286780 52.867158 -0.133454 -0.859724 0.493015 1.5843200949324314e-38
-5.905832 -46.217657 53.238764 -0.112232 -0.862751 0.493015 1.5843200949324314e-38
-4.571740 -46.363382 53.289792 -0.090942 -0.865255 0.493015 1.5843200949324314e-38
-3.323915 -46.421298 53.344154 -0.069597 -0.867233 0.493015 1.5843200949324314e-38
-3.010304 -45.463384 52.718624 -0.048209 -0.868684 0.493015 1.5843200949324314e-38
-1.598413 -46.799548 53.828281 -0.026792 -0.869608 0.493015 1.5843200949324314e-38
-0.467546 -46.517354 53.027047 -0.005359 -0.870004 0.493015 1.5843200949324314e-38
0.550027 -46.471731 52.980186 0.016077 -0.869872 0.493015 1.5843200949324314e-38
-18.394952 -42.091182 54.314833 -0.351502 -0.776576 0.522853 1.5843200949324314e-38
-17.446651 -41.822692 54.678518 -0.332262 -0.785001 0.522853 1.5843200949324314e-38
-17.176372 -42.691791 54.433364 -0.312821 -0.792949 0.522853 1.5843200949324314e-38
-16.051020 -42.909682 54.199982 -0.293190 -0.800415 0.522853 1.5843200949324314e-38
-15.114323 -43.981036 54.946678 -0.273381 -0.807396 0.522853 1.5843200949324314e-38
-13.804221 -43.991263 54.123789 -0.253406 -0.813886 0.522853 1.5843200949324314e-38
-12.156340 -44.581506 54.071750 -0.233277 -0.819882 0.522853 1.5843200949324314e-38
-11.571278 -44.470106 54.630580 -0.213006 -0.825381 0.522853 1.5843200949324314e-38
-10.578455 -44.269547 54.232353 -0.192606 -0.830378 0.522853 1.5843200949324314e-38
-9.573098 -45.306033 54.200822 -0.172089 -0.834871 0.522853 1.5843200949324314e-38
-8.510205 -44.964379 54.132737 -0.151468 -0.838858 0.522853 1.5843200949324314e-38
-7.083657 -45.685831 54.080651 -0.130755 -0.842335 0.522853 1.5843200949324314e-38
-5.591736 -45.055901 54.813690 -0.109962 -0.845301 0.522853 1.5843200949324314e-38
-5.241391 -46.068632 55.026503 -0.089102 -0.847753 0.522853 1.5843200949324314e-38
-3.749669 -46.185691 54.757661 -0.068189 -0.849691 0.522853 1.5843200949324314e-38
-2.524302 -45.679012 53.761623 -0.047234 -0.851113 0.522853 1.5843200949324314e-38
-1.512004 -45.613993 54.240881 -0.026250 -0.852019 0.522853 1.5843200949324314e-38
0.087633 -46.314568 54.399216 -0.005251 -0.852407 0.522853 1.5843200949324314e-38
1.342035 -46.257830 54.514433 0.015752 -0.852277 0.522853 1.5843200949324314e-38
-15.611614 -43.137895 55.426305 -0.287673 -0.785353 0.548147 1.5843200949324314e-38
-15.019656 -42.941268 55.302883 -0.268236 -0.792202 0.548147 1.5843200949324314e-38
-13.138369 -42.861063 55.772999 -0.248637 -0.798570 0.548147 1.5843200949324314e-38
-11.983942 -43.581726 55.692168 -0.228887 -0.804454 0.548147 1.5843200949324314e-38
-10.620174 -43.527668 55.844942 -0.208998 -0.809849 0.548147 1.5843200949324314e-38
-10.428601 -44.092832 55.369216 -0.188982 -0.814752 0.548147 1.5843200949324314e-38
-8.607712 -44.673237 55.944345 -0.168851 -0.819161 0.548147 1.5843200949324314e-38
-7.845766 -44.897861 56.012825 -0.148618 -0.823072 0.548147 1.5843200949324314e-38
-7.000960 -44.997230 55.779448 -0.128294 -0.826484 0.548147 1.5843200949324314e-38
-6.069140 -44.819480 55.518378 -0.107893 -0.829394 0.548147 1.5843200949324314e-38
-4.981641 -45.244383 55.909153 -0.087426 -0.831800 0.548147 1.5843200949324314e-38
-3.513087 -44.912274 55.560835 -0.066906 -0.833702 0.548147 1.5843200949324314e-38
-2.485614 -45.286587 55.444113 -0.046345 -0.835097 0.548147 1.5843200949324314e-38
-0.876867 -44.848347 55.501667 -0.025756 -0.835985 0.548147 1.5843200949324314e-38
-0.726879 -45.644586 55.479850 -0.005152 -0.836366 0.548147 1.5843200949324314e-38
0.866359 -45.091899 55.714599 0.015455 -0.836239 0.548147 1.5843200949324314e-38
-12.857361 -42.098479 56.695463 -0.244412 -0.785001 0.569242 1.5843200949324314e-38
-12.277739 -42.309617 57.140819 -0.224997 -0.790784 0.569242 1.5843200949324314e-38
-11.520818 -43.197204 57.115830 -0.205446 -0.796087 0.569242 1.5843200949324314e-38
-10.362164 -42.913762 57.487953 -0.185770 -0.800907 0.569242 1.5843200949324314e-38
-8.831591 -43.665658 56.960168 -0.165982 -0.805241 0.569242 1.5843200949324314e-38
-7.561491 -43.566264 57.052367 -0.146092 -0.809086 0.569242 1.5843200949324314e-38
-7.035216 -43.993748 57.179034 -0.126114 -0.812440 0.569242 1.5843200949324314e-38
-5.928404 -44.706641 56.815317 -0.106059 -0.815300 0.569242 1.5843200949324314e-38
-4.536449 -43.740689 57.400949 -0.085940 -0.817666 0.569242 1.5843200949324314e-38
-3.518410 -43.961372 56.943404 -0.065769 -0.819535 0.569242 1.5843200949324314e-38
-2.348559 -44.288921 57.023149 -0.045558 -0.820907 0.569242 1.5843200949324314e-38
-1.583227 -43.685891 56.189848 -0.025319 -0.821780 0.569242 1.5843200949324314e-38
-0.101625 -44.204222 57.018601 -0.005065 -0.822154 0.569242 1.5843200949324314e-38
0.463787 -44.796807 57.088949 0.015193 -0.822029 0.569242 1.5843200949324314e-38
-10.718666 -41.996583 58.682349 -0.202399 -0.784280 0.586464 1.5843200949324314e-38
-9.568049 -42.080028 58.253740 -0.183015 -0.789028 0.586464 1.5843200949324314e-38
-8.605871 -42.596340 58.174216 -0.163520 -0.793298 0.586464 1.5843200949324314e-38
-7.139627 -42.754211 57.744770 -0.143925 -0.797086 0.586464 1.5843200949324314e-38
-6.451873 -42.647765 58.190687 -0.124243 -0.800390 0.586464 1.5843200949324314e-38
-6.165196 -42.675429 58.213302 -0.104486 -0.803208 0.586464 1.5843200949324314e-38
-4.632146 -42.829933 57.536938 -0.084665 -0.805538 0.586464 1.5843200949324314e-38
-3.440131 -43.447311 58.591974 -0.064793 -0.807380 0.586464 1.5843200949324314e-38
-2.333336 -43.616913 58.485800 -0.044882 -0.808731 0.586464 1.5843200949324314e-38
-2.074961 -43.251267 57.765342 -0.024943 -0.809591 0.586464 1.5843200949324314e-38
-0.406222 -43.495613 58.417364 -0.004989 -0.809960 0.586464 1.5843200949324314e-38
1.463456 -43.950684 58.278221 0.014967 -0.809837 0.586464 1.5843200949324314e-38
-8.514755 -41.758790 59.579170 -0.161491 -0.783455 0.600099 1.5843200949324314e-38
-7.535611 -41.828553 59.349647 -0.142140 -0.787196 0.600099 1.5843200949324314e-38
-6.052258 -42.061133 59.640728 -0.122702 -0.790459 0.600099 1.5843200949324314e-38
-5.295428 -41.889906 59.077018 -0.103190 -0.793242 0.600099 1.5843200949324314e-38
-4.231536 -42.177802 59.024606 -0.083615 -0.795544 0.600099 1.5843200949324314e-38
-3.464414 -41.687227 59.263901 -0.063989 -0.797363 0.600099 1.5843200949324314e-38
-2.465934 -42.311219 59.219182 -0.044325 -0.798697 0.600099 1.5843200949324314e-38
-1.267016 -42.626257 59.502159 -0.024634 -0.799547 0.600099 1.5843200949324314e-38
-0.280436 -41.925343 59.395245 -0.004928 -0.799911 0.600099 1.5843200949324314e-38
0.718787 -42.195657 58.964118 0.014782 -0.799789 0.600099 1.5843200949324314e-38
-5.532737 -41.448463 60.529109 -0.102181 -0.785485 0.610387 1.5843200949324314e-38
-3.932394 -41.088938 60.474651 -0.082797 -0.787764 0.610387 1.5843200949324314e-38
-3.469563 -41.171642 60.269370 -0.063364 -0.789565 0.610387 1.5843200949324314e-38
-2.296766 -41.688316 60.567050 -0.043892 -0.790887 0.610387 1.5843200949324314e-38
-1.037432 -41.751515 60.910801 -0.024393 -0.791728 0.610387 1.5843200949324314e-38
0.403804 -41.388465 60.593331 -0.004879 -0.792089 0.610387 1.5843200949324314e-38
1.115317 -41.896012 61.074879 0.014637 -0.791968 0.610387 1.5843200949324314e-38
1.566038 -40.881387 60.403421 0.034145 -0.791367 0.610387 1.5843200949324314e-38
-3.932813 -40.341609 62.157362 -0.062920 -0.784038 0.617516 1.5843200949324314e-38
-2.254698 -40.695401 61.446947 -0.043584 -0.785350 0.617516 1.5843200949324314e-38
-1.680757 -40.542009 61.785244 -0.024222 -0.786186 0.617516 1.5843200949324314e-38
-0.324773 -40.148120 61.478896 -0.004845 -0.786544 0.617516 1.5843200949324314e-38
0.646673 -40.092401 61.762042 0.014535 -0.786424 0.617516 1.5843200949324314e-38
1.770338 -40.622350 62.067405 0.033906 -0.785827 0.617516 1.5843200949324314e-38
-1.322314 -39.388692 63.111296 -0.024122 -0.782948 0.621619 1.5843200949324314e-38
-0.421658 -39.557512 63.390582 -0.004825 -0.783305 0.621619 1.5843200949324314e-38
1.049102 -40.021078 62.710420 0.014475 -0.783186 0.621619 1.5843200949324314e-38
2.008057 -39.679875 62.432782 0.033766 -0.782592 0.621619 1.5843200949324314e-38
0.680012 -38.691312 64.264716 0.014458 -0.782268 0.622774 1.5843200949324314e-38
1.631961 -39.019406 64.028968 0.033727 -0.781674 0.622774 1.5843200949324314e-38
