# .PCD v0.7 - Point Cloud Data file format
VERSION 0.7
FIELDS x y z normal_x normal_y normal_z rgb
SIZE 4 4 4 4 4 4 4
TYPE F F F F F F F
COUNT 1 1 1 1 1 1 1
WIDTH 204
HEIGHT 1
VIEWPOINT 0 0 0 1 0 0 0
POINTS 204
DATA ascii
33.845496 -22.020046 61.645597 0.663594 -0.422277 0.617516 1.6119787838914282e-38
34.555780 -21.002880 61.521245 0.673796 -0.405800 0.617516 1.6119787838914282e-38
35.769944 -20.132611 61.967880 0.683589 -0.389076 0.617516 1.6119787838914282e-38
36.034300 -18.603698 62.128635 0.692968 -0.372116 0.617516 1.6119787838914282e-38
36.163868 -18.645745 61.957098 0.701925 -0.354930 0.617516 1.6119787838914282e-38
36.997361 -17.382965 61.875235 0.710457 -0.337528 0.617516 1.6119787838914282e-38
37.160905 -17.077522 61.899611 0.718557 -0.319922 0.617516 1.6119787838914282e-38
37.712208 -15.611305 62.192723 0.726221 -0.302122 0.617516 1.6119787838914282e-38
38.212495 -14.820315 61.988207 0.733444 -0.284138 0.617516 1.6119787838914282e-38
38.228173 -14.340345 61.799514 0.740222 -0.265981 0.617516 1.6119787838914282e-38
38.232791 -12.745891 62.060495 0.746550 -0.247663 0.617516 1.6119787838914282e-38
38.780093 -12.102639 61.925860 0.752425 -0.229195 0.617516 1.6119787838914282e-38
39.858225 -11.523674 61.925512 0.757844 -0.210588 0.617516 1.6119787838914282e-38
39.217960 -10.032568 61.824263 0.762802 -0.191852 0.617516 1.6119787838914282e-38
39.509952 -8.750946 61.783133 0.767297 -0.173001 0.617516 1.6119787838914282e-38
39.172630 -7.568907 62.194454 0.771327 -0.154044 0.617516 1.6119787838914282e-38
39.823015 -6.954370 62.220947 0.774888 -0.134994 0.617516 1.6119787838914282e-38
40.474554 -5.574353 61.968013 0.777978 -0.115861 0.617516 1.6119787838914282e-38
40.530643 -4.567564 61.752684 0.780597 -0.096659 0.617516 1.6119787838914282e-38
40.542683 -4.639773 61.381718 0.782741 -0.077398 0.617516 1.6119787838914282e-38
40.646671 -2.803173 61.739485 0.784411 -0.058089 0.617516 1.6119787838914282e-38
40.376346 -2.106997 61.913231 0.785604 -0.038746 0.617516 1.6119787838914282e-38
39.901124 -0.860781 61.865393 0.786320 -0.019379 0.617516 1.6119787838914282e-38
33.788640 -20.081735 62.915913 0.671021 -0.404129 0.621619 1.6119787838914282e-38
33.655283 -19.978297 62.381207 0.680775 -0.387474 0.621619 1.6119787838914282e-38
34.799766 -18.802398 62.614982 0.690114 -0.370584 0.621619 1.6119787838914282e-38
35.110008 -18.310915 63.054683 0.699035 -0.353468 0.621619 1.6119787838914282e-38
35.540053 -16.703264 63.143689 0.707531 -0.336139 0.621619 1.6119787838914282e-38
36.685659 -16.255588 63.736093 0.715598 -0.318605 0.621619 1.6119787838914282e-38
36.591124 -15.380825 63.815404 0.723231 -0.300878 0.621619 1.6119787838914282e-38
36.405748 -14.481976 62.593269 0.730424 -0.282968 0.621619 1.6119787838914282e-38
36.744314 -14.021507 63.277811 0.737174 -0.264886 0.621619 1.6119787838914282e-38
37.215935 -12.554858 63.360358 0.743476 -0.246644 0.621619 1.6119787838914282e-38
38.049673 -11.423733 63.456930 0.749327 -0.228251 0.621619 1.6119787838914282e-38
38.666502 -10.985902 63.237744 0.754723 -0.209721 0.621619 1.6119787838914282e-38
38.351830 -9.710414 62.639341 0.759661 -0.191062 0.621619 1.6119787838914282e-38
38.500400 -8.843398 63.521860 0.764138 -0.172288 0.621619 1.6119787838914282e-38
38.516412 -8.477082 63.090953 0.768151 -0.153410 0.621619 1.6119787838914282e-38
38.665399 -6.843477 63.291010 0.771697 -0.134438 0.621619 1.6119787838914282e-38
39.168207 -5.967007 63.045815 0.774775 -0.115384 0.621619 1.6119787838914282e-38
39.584297 -5.216519 63.311328 0.777383 -0.096261 0.621619 1.6119787838914282e-38
39.136794 -3.719027 62.629856 0.779518 -0.077079 0.621619 1.6119787838914282e-38
39.684985 -2.957371 63.121750 0.781181 -0.057850 0.621619 1.6119787838914282e-38
39.870027 -2.198522 63.085268 0.782369 -0.038586 0.621619 1.6119787838914282e-38
39.709416 -1.066097 63.307820 0.783082 -0.019299 0.621619 1.6119787838914282e-38
34.574375 -18.446598 63.802432 0.689305 -0.370149 0.622774 1.6119787838914282e-38
34.054868 -17.295536 64.102249 0.698216 -0.353054 0.622774 1.6119787838914282e-38
34.294479 -17.005587 64.379972 0.706702 -0.335745 0.622774 1.6119787838914282e-38
35.539273 -15.852704 64.524591 0.714759 -0.318231 0.622774 1.6119787838914282e-38
35.956466 -15.079495 64.293531 0.722383 -0.300525 0.622774 1.6119787838914282e-38
35.856739 -13.799099 64.146227 0.729568 -0.282636 0.622774 1.6119787838914282e-38
36.005949 -13.052892 64.663000 0.736310 -0.264576 0.622774 1.6119787838914282e-38
36.834012 -11.866589 64.605603 0.742605 -0.246354 0.622774 1.6119787838914282e-38
36.982155 -11.440470 64.068978 0.748449 -0.227984 0.622774 1.6119787838914282e-38
36.759754 -9.990106 64.230715 0.753838 -0.209475 0.622774 1.6119787838914282e-38
36.967925 -9.056139 64.358177 0.758771 -0.190838 0.622774 1.6119787838914282e-38
37.990554 -8.578642 64.091915 0.763242 -0.172086 0.622774 1.6119787838914282e-38
38.031926 -7.410171 64.245927 0.767250 -0.153230 0.622774 1.6119787838914282e-38
38.467231 -6.349109 64.499326 0.770792 -0.134280 0.622774 1.6119787838914282e-38
37.892038 -6.067968 64.689602 0.773867 -0.115249 0.622774 1.6119787838914282e-38
37.697177 -4.776509 64.373890 0.776471 -0.096148 0.622774 1.6119787838914282e-38
38.312133 -3.813433 64.455986 0.778604 -0.076989 0.622774 1.6119787838914282e-38
38.364899 -2.589726 64.504640 0.780265 -0.057782 0.622774 1.6119787838914282e-38
38.545697 -2.151659 64.302699 0.781452 -0.038541 0.622774 1.6119787838914282e-38
39.268072 -1.179382 64.789131 0.782164 -0.019276 0.622774 1.6119787838914282e-38
33.247812 -17.309795 65.881800 0.699470 -0.353689 0.621004 1.6119787838914282e-38
34.065962 -16.125202 65.725248 0.707972 -0.336348 0.621004 1.6119787838914282e-38
34.358209 -15.336993 65.703806 0.716044 -0.318803 0.621004 1.6119787838914282e-38
35.017031 -14.317351 66.005127 0.723681 -0.301065 0.621004 1.6119787838914282e-38
35.127594 -14.009791 65.893491 0.730879 -0.283144 0.621004 1.6119787838914282e-38
35.371227 -12.966845 65.780715 0.737633 -0.265051 0.621004 1.6119787838914282e-38
35.859013 -12.242728 65.768199 0.743939 -0.246797 0.621004 1.6119787838914282e-38
36.591404 -10.877684 65.490155 0.749794 -0.228394 0.621004 1.6119787838914282e-38
35.787786 -9.468407 65.411922 0.755193 -0.209851 0.621004 1.6119787838914282e-38
36.103589 -9.153401 65.869485 0.760134 -0.191181 0.621004 1.6119787838914282e-38
37.112008 -8.485624 65.537453 0.764614 -0.172396 0.621004 1.6119787838914282e-38
36.934301 -7.083266 65.744861 0.768629 -0.153505 0.621004 1.6119787838914282e-38
37.185884 -6.189583 65.158390 0.772178 -0.134522 0.621004 1.6119787838914282e-38
37.378954 -5.481424 65.552008 0.775258 -0.115456 0.621004 1.6119787838914282e-38
37.303167 -4.588163 65.395954 0.777867 -0.096321 0.621004 1.6119787838914282e-38
38.298943 -3.298411 65.894883 0.780004 -0.077127 0.621004 1.6119787838914282e-38
37.401784 -3.068705 65.503425 0.781667 -0.057886 0.621004 1.6119787838914282e-38
37.652064 -2.289821 65.711003 0.782856 -0.038610 0.621004 1.6119787838914282e-38
37.976752 -1.598637 65.296900 0.783570 -0.019311 0.621004 1.6119787838914282e-38
32.725078 -15.836556 66.604738 0.711336 -0.337946 0.616273 1.6119787838914282e-38
34.147857 -15.129482 67.150137 0.719447 -0.320318 0.616273 1.6119787838914282e-38
34.224576 -13.750596 66.625961 0.727120 -0.302496 0.616273 1.6119787838914282e-38
34.752753 -12.649868 66.914259 0.734352 -0.284490 0.616273 1.6119787838914282e-38
34.387813 -12.664814 66.945651 0.741138 -0.266311 0.616273 1.6119787838914282e-38
34.842090 -11.497372 66.399763 0.747475 -0.247970 0.616273 1.6119787838914282e-38
35.106550 -10.347585 67.048679 0.753357 -0.229479 0.616273 1.6119787838914282e-38
35.225168 -9.855514 66.363623 0.758782 -0.210848 0.616273 1.6119787838914282e-38
35.381107 -9.050909 66.994146 0.763747 -0.192090 0.616273 1.6119787838914282e-38
35.578456 -8.380363 67.031427 0.768247 -0.173215 0.616273 1.6119787838914282e-38
35.851529 -7.437018 67.047847 0.772282 -0.154235 0.616273 1.6119787838914282e-38
36.282052 -6.358981 66.698739 0.775847 -0.135161 0.616273 1.6119787838914282e-38
36.402440 -5.242692 66.866797 0.778942 -0.116005 0.616273 1.6119787838914282e-38
36.446906 -4.690611 66.640113 0.781563 -0.096779 0.616273 1.6119787838914282e-38
36.459196 -3.898518 66.480709 0.783710 -0.077493 0.616273 1.6119787838914282e-38
36.561686 -2.412727 66.182250 0.785382 -0.058161 0.616273 1.6119787838914282e-38
36.526825 -1.725532 67.125815 0.786576 -0.038794 0.616273 1.6119787838914282e-38
37.217630 -0.981269 67.395881 0.787293 -0.019403 0.616273 1.6119787838914282e-38
32.922656 -14.318145 68.003035 0.732684 -0.304810 0.608494 1.6119787838914282e-38
33.521972 -13.036362 67.656832 0.739972 -0.286666 0.608494 1.6119787838914282e-38
33.480828 -12.266902 67.965146 0.746810 -0.268348 0.608494 1.6119787838914282e-38
33.757157 -10.750865 68.131943 0.753194 -0.249868 0.608494 1.6119787838914282e-38
33.657256 -10.389860 68.029251 0.759122 -0.231235 0.608494 1.6119787838914282e-38
34.783796 -9.612860 67.985815 0.764588 -0.212462 0.608494 1.6119787838914282e-38
35.209586 -9.035643 68.280542 0.769591 -0.193560 0.608494 1.6119787838914282e-38
34.874051 -8.008905 67.846803 0.774126 -0.174540 0.608494 1.6119787838914282e-38
35.445426 -6.857935 68.221572 0.778191 -0.155415 0.608494 1.6119787838914282e-38
35.466618 -6.029586 67.722940 0.781784 -0.136195 0.608494 1.6119787838914282e-38
34.868567 -4.801173 68.103642 0.784902 -0.116893 0.608494 1.6119787838914282e-38
35.482802 -3.849405 67.721929 0.787544 -0.097519 0.608494 1.6119787838914282e-38
34.799392 -4.059293 67.881969 0.789708 -0.078086 0.608494 1.6119787838914282e-38
35.667418 -2.221246 68.294202 0.791392 -0.058606 0.608494 1.6119787838914282e-38
34.917931 -0.919842 67.918077 0.792595 -0.039091 0.608494 1.6119787838914282e-38
36.087333 -0.716489 68.042841 0.793318 -0.019551 0.608494 1.6119787838914282e-38
32.773553 -12.264654 68.818687 0.747707 -0.289663 0.597520 1.6119787838914282e-38
32.600449 -11.577949 69.252500 0.754616 -0.271154 0.597520 1.6119787838914282e-38
33.133973 -10.994701 69.147597 0.761068 -0.252479 0.597520 1.6119787838914282e-38
33.211536 -10.475164 69.061312 0.767057 -0.233652 0.597520 1.6119787838914282e-38
33.503703 -9.330128 69.448619 0.772581 -0.214683 0.597520 1.6119787838914282e-38
33.657568 -7.984004 69.647328 0.777635 -0.195583 0.597520 1.6119787838914282e-38
33.791258 -7.593471 69.642203 0.782218 -0.176365 0.597520 1.6119787838914282e-38
33.927999 -7.038570 69.668156 0.786326 -0.157039 0.597520 1.6119787838914282e-38
34.485153 -5.649403 69.372980 0.789956 -0.137619 0.597520 1.6119787838914282e-38
34.337991 -5.527782 69.319407 0.793107 -0.118114 0.597520 1.6119787838914282e-38
34.899911 -3.902635 69.599577 0.795776 -0.098538 0.597520 1.6119787838914282e-38
34.861313 -2.760419 68.812834 0.797962 -0.078903 0.597520 1.6119787838914282e-38
34.768271 -2.850655 69.744083 0.799664 -0.059219 0.597520 1.6119787838914282e-38
34.585975 -1.411400 69.143549 0.800880 -0.039499 0.597520 1.6119787838914282e-38
34.909522 -0.889791 69.274215 0.801611 -0.019756 0.597520 1.6119787838914282e-38
31.967447 -10.639802 71.193192 0.771041 -0.255788 0.583154 1.6119787838914282e-38
32.059637 -9.868369 70.664521 0.777109 -0.236714 0.583154 1.6119787838914282e-38
32.979040 -9.072694 70.868139 0.782705 -0.217496 0.583154 1.6119787838914282e-38
32.740235 -8.102806 70.639651 0.787826 -0.198146 0.583154 1.6119787838914282e-38
33.031269 -7.356594 70.253094 0.792469 -0.178676 0.583154 1.6119787838914282e-38
33.142610 -7.022966 70.382996 0.796630 -0.159097 0.583154 1.6119787838914282e-38
33.727089 -5.690006 70.607843 0.800308 -0.139422 0.583154 1.6119787838914282e-38
33.039130 -4.895813 70.496631 0.803500 -0.119662 0.583154 1.6119787838914282e-38
33.792830 -3.749530 70.392788 0.806205 -0.099830 0.583154 1.6119787838914282e-38
33.629318 -3.059195 70.334438 0.808419 -0.079937 0.583154 1.6119787838914282e-38
33.822137 -3.101725 70.423047 0.810143 -0.059995 0.583154 1.6119787838914282e-38
34.238828 -1.568713 70.785289 0.811376 -0.040017 0.583154 1.6119787838914282e-38
34.165071 -0.430148 70.411314 0.812115 -0.020015 0.583154 1.6119787838914282e-38
31.363695 -9.369968 72.222199 0.789191 -0.240394 0.565144 1.6119787838914282e-38
32.087335 -9.532832 71.823724 0.794874 -0.220878 0.565144 1.6119787838914282e-38
31.980288 -8.664790 71.365453 0.800075 -0.201227 0.565144 1.6119787838914282e-38
32.451269 -7.206960 71.776768 0.804790 -0.181454 0.565144 1.6119787838914282e-38
32.185678 -6.142161 71.383637 0.809016 -0.161571 0.565144 1.6119787838914282e-38
32.263825 -5.762432 71.294857 0.812751 -0.141590 0.565144 1.6119787838914282e-38
32.395453 -4.545453 71.499291 0.815993 -0.121523 0.565144 1.6119787838914282e-38
33.004135 -3.867304 71.702047 0.818739 -0.101382 0.565144 1.6119787838914282e-38
32.434218 -3.230168 71.119334 0.820989 -0.081179 0.565144 1.6119787838914282e-38
32.771305 -2.365645 72.013440 0.822739 -0.060928 0.565144 1.6119787838914282e-38
32.934537 -1.808961 71.546171 0.823991 -0.040639 0.565144 1.6119787838914282e-38
32.869635 -0.626292 71.857605 0.824742 -0.020326 0.565144 1.6119787838914282e-38
31.096869 -8.299958 72.468812 0.808955 -0.224790 0.543195 1.6119787838914282e-38
31.281965 -7.690551 73.123645 0.814248 -0.204792 0.543195 1.6119787838914282e-38
31.340932 -7.260450 73.217266 0.819046 -0.184668 0.543195 1.6119787838914282e-38
31.672820 -6.873674 72.923372 0.823347 -0.164433 0.543195 1.6119787838914282e-38
31.734643 -5.853728 72.916658 0.827149 -0.144098 0.543195 1.6119787838914282e-38
31.991967 -4.990683 73.059587 0.830448 -0.123675 0.543195 1.6119787838914282e-38
31.654822 -4.327480 73.174368 0.833243 -0.103178 0.543195 1.6119787838914282e-38
32.391660 -3.523184 73.275598 0.835532 -0.082618 0.543195 1.6119787838914282e-38
32.103881 -3.041769 72.559207 0.837314 -0.062007 0.543195 1.6119787838914282e-38
32.339102 -2.073143 72.804123 0.838587 -0.041359 0.543195 1.6119787838914282e-38
32.161528 -0.658814 73.045095 0.839352 -0.020686 0.543195 1.6119787838914282e-38
30.394961 -6.790429 74.083356 0.835038 -0.188274 0.516976 1.6119787838914282e-38
31.267546 -5.993565 74.143750 0.839423 -0.167644 0.516976 1.6119787838914282e-38
30.682308 -5.425941 74.382813 0.843299 -0.146912 0.516976 1.6119787838914282e-38
31.064934 -4.670540 73.920663 0.846662 -0.126090 0.516976 1.6119787838914282e-38
31.856243 -3.921663 73.814449 0.849512 -0.105192 0.516976 1.6119787838914282e-38
30.946452 -3.195111 74.810237 0.851846 -0.084231 0.516976 1.6119787838914282e-38
31.284530 -2.432995 74.480212 0.853662 -0.063218 0.516976 1.6119787838914282e-38
31.658617 -1.350093 74.286767 0.854961 -0.042167 0.516976 1.6119787838914282e-38
31.080618 -0.999450 73.749526 0.855740 -0.021090 0.516976 1.6119787838914282e-38
30.232060 -6.256695 75.149665 0.856958 -0.171146 0.486139 1.6119787838914282e-38
30.122701 -5.145906 75.420289 0.860915 -0.149980 0.486139 1.6119787838914282e-38
31.159348 -4.563472 75.689111 0.864349 -0.128724 0.486139 1.6119787838914282e-38
30.035981 -3.597011 75.325213 0.867258 -0.107390 0.486139 1.6119787838914282e-38
30.551550 -2.515174 75.352238 0.869640 -0.085990 0.486139 1.6119787838914282e-38
30.227072 -2.613149 75.515785 0.871495 -0.064538 0.486139 1.6119787838914282e-38
30.701647 -1.489315 75.078260 0.872820 -0.043047 0.486139 1.6119787838914282e-38
31.301907 -0.317098 75.503015 0.873616 -0.021530 0.486139 1.6119787838914282e-38
29.123033 -5.307235 76.459835 0.879604 -0.153236 0.450350 1.6119787838914282e-38
29.367896 -4.127209 76.471527 0.883112 -0.131519 0.450350 1.6119787838914282e-38
29.408096 -3.428356 77.076403 0.886085 -0.109721 0.450350 1.6119787838914282e-38
29.972281 -3.238869 76.617732 0.888519 -0.087857 0.450350 1.6119787838914282e-38
29.768240 -2.233850 76.915804 0.890414 -0.065939 0.450350 1.6119787838914282e-38
30.002758 -1.481162 76.547106 0.891768 -0.043982 0.450350 1.6119787838914282e-38
30.237142 -0.629791 76.149574 0.892581 -0.021998 0.450350 1.6119787838914282e-38
29.123792 -3.855712 77.827857 0.905474 -0.112122 0.409324 1.6119787838914282e-38
29.525142 -2.809547 77.727754 0.907961 -0.089779 0.409324 1.6119787838914282e-38
29.716176 -1.856348 77.937810 0.909898 -0.067382 0.409324 1.6119787838914282e-38
29.343747 -0.922285 78.420220 0.911282 -0.044944 0.409324 1.6119787838914282e-38
28.993497 -0.367455 78.455281 0.912112 -0.022479 0.409324 1.6119787838914282e-38
28.609694 -2.137761 79.284164 0.927313 -0.091693 0.362882 1.6119787838914282e-38
29.345776 -2.145028 79.146047 0.929291 -0.068818 0.362882 1.6119787838914282e-38
28.025521 -1.121983 79.290835 0.930704 -0.045902 0.362882 1.6119787838914282e-38
28.895887 -0.535392 79.186745 0.931552 -0.022958 0.362882 1.6119787838914282e-38
28.601536 -1.720376 79.765037 0.947810 -0.070190 0.311014 1.6119787838914282e-38
28.040523 -1.391459 80.748160 0.949252 -0.046817 0.311014 1.6119787838914282e-38
