# .PCD v0.7 - Point Cloud Data file format
VERSION 0.7
FIELDS x y z normal_x normal_y normal_z rgb
SIZE 4 4 4 4 4 4 4
TYPE F F F F F F F
COUNT 1 1 1 1 1 1 1
WIDTH 309
HEIGHT 1
VIEWPOINT 0 0 0 1 0 0 0
POINTS 309
DATA ascii
-2.977511 42.390977 0.193182 -0.079994 0.996795 0.000000 1.6119787838914282e-38
-5.057511 42.252565 -0.252969 -0.104528 0.994522 0.000000 1.6119787838914282e-38
-5.848111 41.881454 -0.100237 -0.128999 0.991645 0.000000 1.6119787838914282e-38
-6.244375 41.599115 0.009189 -0.153392 0.988165 0.000000 1.6119787838914282e-38
-7.697117 41.725367 0.300827 -0.177691 0.984086 0.000000 1.6119787838914282e-38
-8.418568 42.026135 -0.046352 -0.201882 0.979410 0.000000 1.6119787838914282e-38
-9.811712 41.333733 0.072749 -0.225951 0.974139 0.000000 1.6119787838914282e-38
-10.567055 40.826415 0.027147 -0.249883 0.968276 0.000000 1.6119787838914282e-38
-11.562209 41.632832 0.563053 -0.273663 0.961826 0.000000 1.6119787838914282e-38
-12.890239 40.492416 -0.439033 -0.297277 0.954791 0.000000 1.6119787838914282e-38
-13.807397 40.349719 0.361756 -0.320710 0.947177 0.000000 1.6119787838914282e-38
-14.836554 39.710761 -0.644187 -0.343949 0.938988 0.000000 1.6119787838914282e-38
-15.645398 39.216021 -0.158832 -0.366979 0.930229 0.000000 1.6119787838914282e-38
-16.828958 39.110206 -0.527319 -0.389786 0.920906 0.000000 1.6119787838914282e-38
-17.965257 39.357237 -0.386227 -0.412356 0.911023 0.000000 1.6119787838914282e-38
-18.802784 38.826009 0.871520 -0.434676 0.900587 0.000000 1.6119787838914282e-38
-19.762607 37.697696 0.102467 -0.456733 0.889604 0.000000 1.6119787838914282e-38
-19.818132 37.022396 -0.073583 -0.478512 0.878081 0.000000 1.6119787838914282e-38
-21.016799 36.936509 -0.112847 -0.500000 0.866025 0.000000 1.6119787838914282e-38
-22.190504 35.858893 -0.071452 -0.521185 0.853444 0.000000 1.6119787838914282e-38
-23.117184 35.784274 -0.166598 -0.542053 0.840344 0.000000 1.6119787838914282e-38
-23.768730 35.440017 0.046629 -0.562593 0.826734 0.000000 1.6119787838914282e-38
-24.663074 34.552397 0.000025 -0.582791 0.812622 0.000000 1.6119787838914282e-38
-25.828439 34.010680 -0.029186 -0.602635 0.798017 0.000000 1.6119787838914282e-38
-25.811844 33.746430 0.115754 -0.622113 0.782928 0.000000 1.6119787838914282e-38
-27.480483 32.279191 0.357343 -0.641213 0.767363 0.000000 1.6119787838914282e-38
-27.967968 32.075648 -0.523376 -0.659925 0.751332 0.000000 1.6119787838914282e-38
-3.476820 42.145064 1.514421 -0.079994 0.996795 0.000000 1.6119787838914282e-38
-4.432487 42.186254 1.205259 -0.104528 0.994522 0.000000 1.6119787838914282e-38
-5.416037 42.333844 0.937200 -0.128999 0.991645 0.000000 1.6119787838914282e-38
-6.832225 42.332323 1.113412 -0.153392 0.988165 0.000000 1.6119787838914282e-38
-7.977618 41.960684 1.376124 -0.177691 0.984086 0.000000 1.6119787838914282e-38
-9.040011 41.697612 1.457788 -0.201882 0.979410 0.000000 1.6119787838914282e-38
-9.491502 41.594317 0.815833 -0.225951 0.974139 0.000000 1.6119787838914282e-38
-10.521698 41.064754 1.092276 -0.249883 0.968276 0.000000 1.6119787838914282e-38
-11.370587 41.325155 1.775424 -0.273663 0.961826 0.000000 1.6119787838914282e-38
-12.240993 40.549466 1.342929 -0.297277 0.954791 0.000000 1.6119787838914282e-38
-13.401400 40.295117 1.276343 -0.320710 0.947177 0.000000 1.6119787838914282e-38
-14.372056 39.892914 1.018327 -0.343949 0.938988 0.000000 1.6119787838914282e-38
-15.722384 39.728578 1.238011 -0.366979 0.930229 0.000000 1.6119787838914282e-38
-16.465370 39.343130 1.124661 -0.389786 0.920906 0.000000 1.6119787838914282e-38
-17.299891 38.835699 0.866669 -0.412356 0.911023 0.000000 1.6119787838914282e-38
-18.042766 38.128254 0.740585 -0.434676 0.900587 0.000000 1.6119787838914282e-38
-19.726447 37.505356 1.252765 -0.456733 0.889604 0.000000 1.6119787838914282e-38
-20.420779 37.220857 1.423024 -0.478512 0.878081 0.000000 1.6119787838914282e-38
-21.150004 36.904300 1.360062 -0.500000 0.866025 0.000000 1.6119787838914282e-38
-21.967567 35.642332 1.127782 -0.521185 0.853444 0.000000 1.6119787838914282e-38
-23.693463 35.728746 1.235724 -0.542053 0.840344 0.000000 1.6119787838914282e-38
-23.598745 35.495744 1.297946 -0.562593 0.826734 0.000000 1.6119787838914282e-38
-24.921001 34.685195 1.078738 -0.582791 0.812622 0.000000 1.6119787838914282e-38
-25.614760 34.214712 1.069782 -0.602635 0.798017 0.000000 1.6119787838914282e-38
-26.200538 33.480723 0.950676 -0.622113 0.782928 0.000000 1.6119787838914282e-38
-26.961920 32.825502 1.267691 -0.641213 0.767363 0.000000 1.6119787838914282e-38
-28.278085 31.676799 1.075815 -0.659925 0.751332 0.000000 1.6119787838914282e-38
-3.410264 42.315167 2.041633 -0.079994 0.996795 0.000000 1.6119787838914282e-38
-4.599057 42.557210 2.063727 -0.104528 0.994522 0.000000 1.6119787838914282e-38
-5.541362 41.914571 2.507632 -0.128999 0.991645 0.000000 1.6119787838914282e-38
-6.638148 42.455793 2.626202 -0.153392 0.988165 0.000000 1.6119787838914282e-38
-7.948202 42.040516 2.241831 -0.177691 0.984086 0.000000 1.6119787838914282e-38
-8.756277 41.734466 2.326703 -0.201882 0.979410 0.000000 1.6119787838914282e-38
-9.338627 41.183860 2.288543 -0.225951 0.974139 0.000000 1.6119787838914282e-38
-10.820869 40.997270 2.803984 -0.249883 0.968276 0.000000 1.6119787838914282e-38
-11.446343 41.405701 3.154520 -0.273663 0.961826 0.000000 1.6119787838914282e-38
-12.948157 40.614775 2.121367 -0.297277 0.954791 0.000000 1.6119787838914282e-38
-13.868511 40.080911 2.157080 -0.320710 0.947177 0.000000 1.6119787838914282e-38
-14.938805 39.878489 2.109211 -0.343949 0.938988 0.000000 1.6119787838914282e-38
-15.349733 39.274051 3.317097 -0.366979 0.930229 0.000000 1.6119787838914282e-38
-16.707446 39.174575 2.085624 -0.389786 0.920906 0.000000 1.6119787838914282e-38
-17.019802 39.068642 2.563302 -0.412356 0.911023 0.000000 1.6119787838914282e-38
-18.884626 38.352300 2.137797 -0.434676 0.900587 0.000000 1.6119787838914282e-38
-18.979614 38.064921 2.502859 -0.456733 0.889604 0.000000 1.6119787838914282e-38
-21.075181 37.037239 2.680555 -0.478512 0.878081 0.000000 1.6119787838914282e-38
-20.893999 37.152452 1.996623 -0.500000 0.866025 0.000000 1.6119787838914282e-38
-22.068089 36.589440 1.976726 -0.521185 0.853444 0.000000 1.6119787838914282e-38
-23.048165 35.809993 2.383997 -0.542053 0.840344 0.000000 1.6119787838914282e-38
-24.474689 35.051497 2.376035 -0.562593 0.826734 0.000000 1.6119787838914282e-38
-24.822189 34.380191 2.341323 -0.582791 0.812622 0.000000 1.6119787838914282e-38
-25.633363 34.061020 2.382899 -0.602635 0.798017 0.000000 1.6119787838914282e-38
-26.572474 33.314444 1.897952 -0.622113 0.782928 0.000000 1.6119787838914282e-38
-27.118541 32.624815 2.486135 -0.641213 0.767363 0.000000 1.6119787838914282e-38
-27.768952 31.357578 1.882077 -0.659925 0.751332 0.000000 1.6119787838914282e-38
-3.439211 41.741299 3.546918 -0.079994 0.996795 0.000000 1.6119787838914282e-38
-4.076595 42.468284 3.786014 -0.104528 0.994522 0.000000 1.6119787838914282e-38
-5.184429 42.325314 4.076658 -0.128999 0.991645 0.000000 1.6119787838914282e-38
-6.248744 42.488498 3.818979 -0.153392 0.988165 0.000000 1.6119787838914282e-38
-7.286574 41.766343 3.530902 -0.177691 0.984086 0.000000 1.6119787838914282e-38
-8.075114 41.724423 3.952804 -0.201882 0.979410 0.000000 1.6119787838914282e-38
-9.573801 41.259395 3.714635 -0.225951 0.974139 0.000000 1.6119787838914282e-38
-10.198068 41.352556 3.197898 -0.249883 0.968276 0.000000 1.6119787838914282e-38
-11.704931 41.446302 3.647201 -0.273663 0.961826 0.000000 1.6119787838914282e-38
-13.184926 41.180321 3.916058 -0.297277 0.954791 0.000000 1.6119787838914282e-38
-13.662534 40.177118 4.036046 -0.320710 0.947177 0.000000 1.6119787838914282e-38
-14.792591 40.284698 3.873999 -0.343949 0.938988 0.000000 1.6119787838914282e-38
-15.536176 39.611306 3.658850 -0.366979 0.930229 0.000000 1.6119787838914282e-38
-16.265996 38.911458 3.224763 -0.389786 0.920906 0.000000 1.6119787838914282e-38
-17.355398 38.940061 3.855413 -0.412356 0.911023 0.000000 1.6119787838914282e-38
-18.366806 38.210630 3.947585 -0.434676 0.900587 0.000000 1.6119787838914282e-38
-19.440961 37.693506 3.617773 -0.456733 0.889604 0.000000 1.6119787838914282e-38
-19.747477 36.829022 3.861277 -0.478512 0.878081 0.000000 1.6119787838914282e-38
-21.771420 36.804245 3.581252 -0.500000 0.866025 0.000000 1.6119787838914282e-38
-22.794303 36.418263 3.597329 -0.521185 0.853444 0.000000 1.6119787838914282e-38
-23.686204 35.996220 4.141842 -0.542053 0.840344 0.000000 1.6119787838914282e-38
-23.483056 35.273135 3.725158 -0.562593 0.826734 0.000000 1.6119787838914282e-38
-24.390769 35.069912 4.051411 -0.582791 0.812622 0.000000 1.6119787838914282e-38
-25.915751 34.004365 3.843195 -0.602635 0.798017 0.000000 1.6119787838914282e-38
-27.004687 33.442927 4.393238 -0.622113 0.782928 0.000000 1.6119787838914282e-38
-27.082268 33.082083 3.766215 -0.641213 0.767363 0.000000 1.6119787838914282e-38
-28.092103 32.072565 3.466592 -0.659925 0.751332 0.000000 1.6119787838914282e-38
-4.596168 42.448228 4.123623 -0.104528 0.994522 0.000000 1.6119787838914282e-38
-5.502253 42.113311 4.702904 -0.128999 0.991645 0.000000 1.6119787838914282e-38
-6.204351 41.961265 4.895210 -0.153392 0.988165 0.000000 1.6119787838914282e-38
-7.676192 41.310474 4.608858 -0.177691 0.984086 0.000000 1.6119787838914282e-38
-8.304362 41.053485 4.718559 -0.201882 0.979410 0.000000 1.6119787838914282e-38
-9.737047 41.985201 5.179035 -0.225951 0.974139 0.000000 1.6119787838914282e-38
-10.802883 41.603941 4.726299 -0.249883 0.968276 0.000000 1.6119787838914282e-38
-11.345147 40.530377 5.270431 -0.273663 0.961826 0.000000 1.6119787838914282e-38
-12.774790 40.330088 4.883311 -0.297277 0.954791 0.000000 1.6119787838914282e-38
-13.567138 40.166143 5.114640 -0.320710 0.947177 0.000000 1.6119787838914282e-38
-14.814344 40.152132 5.081120 -0.343949 0.938988 0.000000 1.6119787838914282e-38
-15.637940 39.460795 4.993916 -0.366979 0.930229 0.000000 1.6119787838914282e-38
-16.425321 39.814902 5.230280 -0.389786 0.920906 0.000000 1.6119787838914282e-38
-17.258263 39.702273 5.103241 -0.412356 0.911023 0.000000 1.6119787838914282e-38
-18.355674 38.542741 4.645764 -0.434676 0.900587 0.000000 1.6119787838914282e-38
-19.573013 37.712231 5.142738 -0.456733 0.889604 0.000000 1.6119787838914282e-38
-20.419068 37.415107 5.274690 -0.478512 0.878081 0.000000 1.6119787838914282e-38
-21.022479 36.811992 4.747455 -0.500000 0.866025 0.000000 1.6119787838914282e-38
-21.842531 36.557167 4.466577 -0.521185 0.853444 0.000000 1.6119787838914282e-38
-23.165281 35.817093 5.182103 -0.542053 0.840344 0.000000 1.6119787838914282e-38
-23.672520 35.273334 5.124028 -0.562593 0.826734 0.000000 1.6119787838914282e-38
-24.785987 34.385368 4.870074 -0.582791 0.812622 0.000000 1.6119787838914282e-38
-25.644150 33.955483 4.382782 -0.602635 0.798017 0.000000 1.6119787838914282e-38
-26.598139 33.340492 4.864043 -0.622113 0.782928 0.000000 1.6119787838914282e-38
-27.365913 32.807540 4.624766 -0.641213 0.767363 0.000000 1.6119787838914282e-38
-28.576681 31.874375 5.177688 -0.659925 0.751332 0.000000 1.6119787838914282e-38
-4.393798 41.997477 6.047074 -0.104528 0.994522 0.000000 1.6119787838914282e-38
-5.318947 42.420690 5.968195 -0.128999 0.991645 0.000000 1.6119787838914282e-38
-6.485698 42.753650 6.180288 -0.153392 0.988165 0.000000 1.6119787838914282e-38
-7.777258 41.868104 6.213220 -0.177691 0.984086 0.000000 1.6119787838914282e-38
-8.645163 41.711613 5.752533 -0.201882 0.979410 0.000000 1.6119787838914282e-38
-9.913890 41.451677 6.135987 -0.225951 0.974139 0.000000 1.6119787838914282e-38
-10.814404 41.193639 6.203871 -0.249883 0.968276 0.000000 1.6119787838914282e-38
-11.390706 40.942205 6.305298 -0.273663 0.961826 0.000000 1.6119787838914282e-38
-12.825916 40.843949 6.298286 -0.297277 0.954791 0.000000 1.6119787838914282e-38
-13.401910 40.562017 6.362188 -0.320710 0.947177 0.000000 1.6119787838914282e-38
-14.681104 40.072625 6.504620 -0.343949 0.938988 0.000000 1.6119787838914282e-38
-15.828231 39.437502 6.239996 -0.366979 0.930229 0.000000 1.6119787838914282e-38
-16.479563 38.981616 6.163138 -0.389786 0.920906 0.000000 1.6119787838914282e-38
-17.593805 38.143272 6.119689 -0.412356 0.911023 0.000000 1.6119787838914282e-38
-18.563596 38.315217 6.610341 -0.434676 0.900587 0.000000 1.6119787838914282e-38
-19.820693 37.648076 5.401908 -0.456733 0.889604 0.000000 1.6119787838914282e-38
-20.527970 37.285921 6.032574 -0.478512 0.878081 0.000000 1.6119787838914282e-38
-20.966759 37.149243 6.208924 -0.500000 0.866025 0.000000 1.6119787838914282e-38
-22.312683 36.662962 6.179640 -0.521185 0.853444 0.000000 1.6119787838914282e-38
-23.335937 35.282207 6.053173 -0.542053 0.840344 0.000000 1.6119787838914282e-38
-23.739003 35.900287 6.204050 -0.562593 0.826734 0.000000 1.6119787838914282e-38
-25.055393 34.260700 6.351153 -0.582791 0.812622 0.000000 1.6119787838914282e-38
-26.200490 34.159141 6.430880 -0.602635 0.798017 0.000000 1.6119787838914282e-38
-26.369955 33.285349 6.355049 -0.622113 0.782928 0.000000 1.6119787838914282e-38
-27.263203 32.454774 6.740691 -0.641213 0.767363 0.000000 1.6119787838914282e-38
-28.217051 32.238055 5.459983 -0.659925 0.751332 0.000000 1.6119787838914282e-38
-4.114836 42.143356 7.527744 -0.104528 0.994522 0.000000 1.6119787838914282e-38
-5.246825 42.150645 7.294855 -0.128999 0.991645 0.000000 1.6119787838914282e-38
-6.533220 42.299329 7.418380 -0.153392 0.988165 0.000000 1.6119787838914282e-38
-7.284751 41.824006 7.024162 -0.177691 0.984086 0.000000 1.6119787838914282e-38
-8.015408 41.581782 7.252148 -0.201882 0.979410 0.000000 1.6119787838914282e-38
-9.654567 41.558558 7.306675 -0.225951 0.974139 0.000000 1.6119787838914282e-38
-10.660532 41.276488 7.475126 -0.249883 0.968276 0.000000 1.6119787838914282e-38
-12.376555 41.577628 7.378494 -0.273663 0.961826 0.000000 1.6119787838914282e-38
-12.502044 40.299983 7.281380 -0.297277 0.954791 0.000000 1.6119787838914282e-38
-13.877152 40.829662 7.246936 -0.320710 0.947177 0.000000 1.6119787838914282e-38
-14.438958 39.844430 7.286895 -0.343949 0.938988 0.000000 1.6119787838914282e-38
-15.722068 40.051214 6.855725 -0.366979 0.930229 0.000000 1.6119787838914282e-38
-17.015622 38.684291 7.096430 -0.389786 0.920906 0.000000 1.6119787838914282e-38
-17.826833 38.362722 7.202436 -0.412356 0.911023 0.000000 1.6119787838914282e-38
-19.139523 38.096668 7.782807 -0.434676 0.900587 0.000000 1.6119787838914282e-38
-19.354535 37.989991 7.121847 -0.456733 0.889604 0.000000 1.6119787838914282e-38
-20.865116 37.100659 7.409717 -0.478512 0.878081 0.000000 1.6119787838914282e-38
-21.060129 37.199041 7.611864 -0.500000 0.866025 0.000000 1.6119787838914282e-38
-22.445197 36.399202 7.326278 -0.521185 0.853444 0.000000 1.6119787838914282e-38
-23.174143 36.444387 6.894080 -0.542053 0.840344 0.000000 1.6119787838914282e-38
-24.060013 35.616432 6.982913 -0.562593 0.826734 0.000000 1.6119787838914282e-38
-25.043994 34.492452 7.355693 -0.582791 0.812622 0.000000 1.6119787838914282e-38
-26.175829 34.206969 7.622567 -0.602635 0.798017 0.000000 1.6119787838914282e-38
-26.375102 33.123832 7.448634 -0.622113 0.782928 0.000000 1.6119787838914282e-38
-27.611914 32.621459 8.068721 -0.641213 0.767363 0.000000 1.6119787838914282e-38
-28.111241 31.681408 7.476781 -0.659925 0.751332 0.000000 1.6119787838914282e-38
-29.326273 30.974941 7.110343 -0.678235 0.734845 0.000000 1.6119787838914282e-38
-4.865506 42.945486 9.406570 -0.104528 0.994522 0.000000 1.6119787838914282e-38
-5.372998 41.938019 8.427835 -0.128999 0.991645 0.000000 1.6119787838914282e-38
-6.395849 42.589017 8.295927 -0.153392 0.988165 0.000000 1.6119787838914282e-38
-7.623269 42.071316 8.919167 -0.177691 0.984086 0.000000 1.6119787838914282e-38
-8.721828 41.343740 8.846153 -0.201882 0.979410 0.000000 1.6119787838914282e-38
-9.308856 41.563071 8.781366 -0.225951 0.974139 0.000000 1.6119787838914282e-38
-10.810332 41.083832 8.967722 -0.249883 0.968276 0.000000 1.6119787838914282e-38
-11.566950 41.209295 9.110428 -0.273663 0.961826 0.000000 1.6119787838914282e-38
-13.007773 40.596268 8.707174 -0.297277 0.954791 0.000000 1.6119787838914282e-38
-13.861030 40.671762 8.603574 -0.320710 0.947177 0.000000 1.6119787838914282e-38
-14.981600 40.106948 8.710895 -0.343949 0.938988 0.000000 1.6119787838914282e-38
-15.386625 39.831218 8.798138 -0.366979 0.930229 0.000000 1.6119787838914282e-38
-16.544620 39.258759 8.444928 -0.389786 0.920906 0.000000 1.6119787838914282e-38
-17.517632 38.793370 9.166741 -0.412356 0.911023 0.000000 1.6119787838914282e-38
-18.154517 38.637628 8.773334 -0.434676 0.900587 0.000000 1.6119787838914282e-38
-19.525181 37.600567 8.594942 -0.456733 0.889604 0.000000 1.6119787838914282e-38
-20.398158 37.555812 8.800655 -0.478512 0.878081 0.000000 1.6119787838914282e-38
-21.069561 36.764642 8.454871 -0.500000 0.866025 0.000000 1.6119787838914282e-38
-21.815127 36.666450 8.542563 -0.521185 0.853444 0.000000 1.6119787838914282e-38
-23.173462 35.845089 8.669266 -0.542053 0.840344 0.000000 1.6119787838914282e-38
-23.876360 36.055368 8.716721 -0.562593 0.826734 0.000000 1.6119787838914282e-38
-24.681671 34.186467 8.514324 -0.582791 0.812622 0.000000 1.6119787838914282e-38
-25.358986 34.189583 7.343059 -0.602635 0.798017 0.000000 1.6119787838914282e-38
-26.356984 34.000133 8.061022 -0.622113 0.782928 0.000000 1.6119787838914282e-38
-26.918812 31.928600 8.941193 -0.641213 0.767363 0.000000 1.6119787838914282e-38
-28.176041 31.370810 8.793635 -0.659925 0.751332 0.000000 1.6119787838914282e-38
-28.609908 31.481109 8.835242 -0.678235 0.734845 0.000000 1.6119787838914282e-38
-4.384682 43.285507 9.860428 -0.104528 0.994522 0.000000 1.6119787838914282e-38
-5.645383 42.697751 9.968782 -0.128999 0.991645 0.000000 1.6119787838914282e-38
-6.125745 42.293820 9.822380 -0.153392 0.988165 0.000000 1.6119787838914282e-38
-8.131467 41.584109 9.346198 -0.177691 0.984086 0.000000 1.6119787838914282e-38
-8.516741 41.461429 10.273580 -0.201882 0.979410 0.000000 1.6119787838914282e-38
-9.650421 41.571504 9.643751 -0.225951 0.974139 0.000000 1.6119787838914282e-38
-10.495906 41.152784 9.601294 -0.249883 0.968276 0.000000 1.6119787838914282e-38
-11.342682 41.224763 9.826428 -0.273663 0.961826 0.000000 1.6119787838914282e-38
-12.516258 40.820337 10.011811 -0.297277 0.954791 0.000000 1.6119787838914282e-38
-13.955527 41.113277 9.723021 -0.320710 0.947177 0.000000 1.6119787838914282e-38
-14.237130 40.085414 10.139036 -0.343949 0.938988 0.000000 1.6119787838914282e-38
-15.468202 40.111678 9.644720 -0.366979 0.930229 0.000000 1.6119787838914282e-38
-16.340789 39.922959 9.819299 -0.389786 0.920906 0.000000 1.6119787838914282e-38
-17.617962 38.789497 9.792976 -0.412356 0.911023 0.000000 1.6119787838914282e-38
-18.069140 38.199121 9.614272 -0.434676 0.900587 0.000000 1.6119787838914282e-38
-19.042207 38.218242 10.533018 -0.456733 0.889604 0.000000 1.6119787838914282e-38
-20.591666 37.576159 9.698704 -0.478512 0.878081 0.000000 1.6119787838914282e-38
-21.332181 36.490655 10.102394 -0.500000 0.866025 0.000000 1.6119787838914282e-38
-22.183791 36.467749 9.779798 -0.521185 0.853444 0.000000 1.6119787838914282e-38
-23.441393 36.143312 9.545580 -0.542053 0.840344 0.000000 1.6119787838914282e-38
-23.897465 35.965505 10.342564 -0.562593 0.826734 0.000000 1.6119787838914282e-38
-25.366037 34.578864 10.023342 -0.582791 0.812622 0.000000 1.6119787838914282e-38
-25.783922 33.695689 10.012502 -0.602635 0.798017 0.000000 1.6119787838914282e-38
-26.598542 34.044722 9.820939 -0.622113 0.782928 0.000000 1.6119787838914282e-38
-27.061689 32.424892 9.588504 -0.641213 0.767363 0.000000 1.6119787838914282e-38
-27.995502 32.444816 9.609689 -0.659925 0.751332 0.000000 1.6119787838914282e-38
-28.987561 31.000401 9.842541 -0.678235 0.734845 0.000000 1.6119787838914282e-38
-9.042707 42.105710 11.443478 -0.201882 0.979410 0.000000 1.6119787838914282e-38
-9.730327 41.667845 11.259555 -0.225951 0.974139 0.000000 1.6119787838914282e-38
-10.595637 41.632771 11.302405 -0.249883 0.968276 0.000000 1.6119787838914282e-38
-12.011848 41.478963 11.484056 -0.273663 0.961826 0.000000 1.6119787838914282e-38
-12.672491 40.432452 11.099597 -0.297277 0.954791 0.000000 1.6119787838914282e-38
-13.673326 40.211316 11.025979 -0.320710 0.947177 0.000000 1.6119787838914282e-38
-15.149455 40.386261 11.183807 -0.343949 0.938988 0.000000 1.6119787838914282e-38
-16.206435 39.934482 11.117068 -0.366979 0.930229 0.000000 1.6119787838914282e-38
-16.534292 39.312372 10.893577 -0.389786 0.920906 0.000000 1.6119787838914282e-38
-17.886854 38.845232 11.139668 -0.412356 0.911023 0.000000 1.6119787838914282e-38
-18.566879 38.502638 11.007025 -0.434676 0.900587 0.000000 1.6119787838914282e-38
-19.661055 38.841932 10.902803 -0.456733 0.889604 0.000000 1.6119787838914282e-38
-20.655520 38.584408 11.260325 -0.478512 0.878081 0.000000 1.6119787838914282e-38
-21.822179 37.332870 10.861009 -0.500000 0.866025 0.000000 1.6119787838914282e-38
-22.042526 36.478077 11.002082 -0.521185 0.853444 0.000000 1.6119787838914282e-38
-22.726008 36.150403 11.425917 -0.542053 0.840344 0.000000 1.6119787838914282e-38
-23.957704 35.264423 11.317427 -0.562593 0.826734 0.000000 1.6119787838914282e-38
-24.590213 34.833962 11.674513 -0.582791 0.812622 0.000000 1.6119787838914282e-38
-25.547481 34.231796 11.209467 -0.602635 0.798017 0.000000 1.6119787838914282e-38
-26.595441 33.146747 11.106999 -0.622113 0.782928 0.000000 1.6119787838914282e-38
-27.388071 32.730859 11.235324 -0.641213 0.767363 0.000000 1.6119787838914282e-38
-28.249181 32.401412 11.332954 -0.659925 0.751332 0.000000 1.6119787838914282e-38
-28.989420 31.053230 11.671237 -0.678235 0.734845 0.000000 1.6119787838914282e-38
-12.994008 41.178649 12.197162 -0.297277 0.954791 0.000000 1.6119787838914282e-38
-13.499736 40.642665 12.827420 -0.320710 0.947177 0.000000 1.6119787838914282e-38
-15.098166 39.830293 12.186269 -0.343949 0.938988 0.000000 1.6119787838914282e-38
-16.155078 39.482651 12.557599 -0.366979 0.930229 0.000000 1.6119787838914282e-38
-16.719143 39.353670 12.255045 -0.389786 0.920906 0.000000 1.6119787838914282e-38
-17.865105 39.568809 12.150482 -0.412356 0.911023 0.000000 1.6119787838914282e-38
-19.039882 38.864917 12.306407 -0.434676 0.900587 0.000000 1.6119787838914282e-38
-18.977599 37.997193 12.624929 -0.456733 0.889604 0.000000 1.6119787838914282e-38
-20.198669 37.504444 12.148258 -0.478512 0.878081 0.000000 1.6119787838914282e-38
-21.222556 37.316238 11.947951 -0.500000 0.866025 0.000000 1.6119787838914282e-38
-22.692114 35.843217 12.549750 -0.521185 0.853444 0.000000 1.6119787838914282e-38
-23.327179 35.993654 11.863701 -0.542053 0.840344 0.000000 1.6119787838914282e-38
-24.458995 35.315184 12.169436 -0.562593 0.826734 0.000000 1.6119787838914282e-38
-24.960498 35.028358 13.052018 -0.582791 0.812622 0.000000 1.6119787838914282e-38
-25.852963 34.561525 12.122142 -0.602635 0.798017 0.000000 1.6119787838914282e-38
-27.184860 33.474021 11.891818 -0.622113 0.782928 0.000000 1.6119787838914282e-38
-27.497193 32.677996 11.784853 -0.641213 0.767363 0.000000 1.6119787838914282e-38
-27.783310 32.063305 11.879848 -0.659925 0.751332 0.000000 1.6119787838914282e-38
-28.820006 31.298866 12.698184 -0.678235 0.734845 0.000000 1.6119787838914282e-38
-16.707700 39.233356 13.139556 -0.389786 0.920906 0.000000 1.6119787838914282e-38
-17.528682 39.352858 13.497806 -0.412356 0.911023 0.000000 1.6119787838914282e-38
-18.590361 38.755502 13.788973 -0.434676 0.900587 0.000000 1.6119787838914282e-38
-19.444810 37.445393 13.536098 -0.456733 0.889604 0.000000 1.6119787838914282e-38
-20.406725 37.608848 13.619108 -0.478512 0.878081 0.000000 1.6119787838914282e-38
-21.260265 37.238212 14.060623 -0.500000 0.866025 0.000000 1.6119787838914282e-38
-22.057714 36.637721 13.548834 -0.521185 0.853444 0.000000 1.6119787838914282e-38
-24.147645 36.012432 13.202267 -0.542053 0.840344 0.000000 1.6119787838914282e-38
-24.108776 35.571414 13.817004 -0.562593 0.826734 0.000000 1.6119787838914282e-38
-24.624064 34.911274 14.292372 -0.582791 0.812622 0.000000 1.6119787838914282e-38
-25.826047 33.898493 13.439626 -0.602635 0.798017 0.000000 1.6119787838914282e-38
-26.844603 33.820781 13.324072 -0.622113 0.782928 0.000000 1.6119787838914282e-38
-27.642938 32.925991 13.473811 -0.641213 0.767363 0.000000 1.6119787838914282e-38
-28.114159 32.477841 13.958218 -0.659925 0.751332 0.000000 1.6119787838914282e-38
-29.243715 31.937744 13.199048 -0.678235 0.734845 0.000000 1.6119787838914282e-38
-20.728670 37.515910 15.054027 -0.478512 0.878081 0.000000 1.6119787838914282e-38
-21.764566 37.022338 14.727470 -0.500000 0.866025 0.000000 1.6119787838914282e-38
-22.144026 36.813190 14.815454 -0.521185 0.853444 0.000000 1.6119787838914282e-38
-23.770374 35.841849 14.461838 -0.542053 0.840344 0.000000 1.6119787838914282e-38
-23.832818 35.757798 14.586875 -0.562593 0.826734 0.000000 1.6119787838914282e-38
-25.263890 34.743397 14.579602 -0.582791 0.812622 0.000000 1.6119787838914282e-38
-25.810960 34.275835 15.469711 -0.602635 0.798017 0.000000 1.6119787838914282e-38
-26.412660 34.105191 15.046768 -0.622113 0.782928 0.000000 1.6119787838914282e-38
-27.737020 33.221468 14.740711 -0.641213 0.767363 0.000000 1.6119787838914282e-38
-25.200251 35.177571 16.174132 -0.582791 0.812622 0.000000 1.6119787838914282e-38
-26.151083 34.444520 15.531311 -0.602635 0.798017 0.000000 1.6119787838914282e-38
