# .PCD v0.7 - Point Cloud Data file format
VERSION 0.7
FIELDS x y z normal_x normal_y normal_z rgb
SIZE 4 4 4 4 4 4 4
TYPE F F F F F F F
COUNT 1 1 1 1 1 1 1
WIDTH 135
HEIGHT 1
VIEWPOINT 0 0 0 1 0 0 0
POINTS 135
DATA ascii
20.516976 36.948136 -0.413006 0.489293 0.872120 0.000000 1.75027152803718e-38
20.065993 37.499496 -0.441242 0.467658 0.883910 0.000000 1.75027152803718e-38
18.639206 38.138494 0.251438 0.445738 0.895163 0.000000 1.75027152803718e-38
18.599831 39.373779 0.124323 0.423549 0.905873 0.000000 1.75027152803718e-38
16.749954 38.291814 0.080313 0.401102 0.916034 0.000000 1.75027152803718e-38
15.838587 39.214993 -0.183629 0.378411 0.925638 0.000000 1.75027152803718e-38
15.066123 40.043684 0.047115 0.355491 0.934680 0.000000 1.75027152803718e-38
14.077489 39.773367 -0.502405 0.332355 0.943154 0.000000 1.75027152803718e-38
12.987330 40.403767 0.530379 0.309017 0.951057 0.000000 1.75027152803718e-38
12.172475 41.026024 -0.149789 0.285492 0.958381 0.000000 1.75027152803718e-38
10.770713 40.728239 -0.217568 0.261793 0.965124 0.000000 1.75027152803718e-38
10.750787 41.033028 0.251547 0.237935 0.971281 0.000000 1.75027152803718e-38
8.821278 41.795525 0.115485 0.213933 0.976848 0.000000 1.75027152803718e-38
8.019555 41.715230 -0.196436 0.189801 0.981823 0.000000 1.75027152803718e-38
7.169861 41.777037 -0.367682 0.165554 0.986201 0.000000 1.75027152803718e-38
20.703350 37.383311 1.034308 0.489293 0.872120 0.000000 1.75027152803718e-38
19.618592 37.713302 0.776421 0.467658 0.883910 0.000000 1.75027152803718e-38
19.062541 38.078727 1.192881 0.445738 0.895163 0.000000 1.75027152803718e-38
18.478961 38.316521 1.855203 0.423549 0.905873 0.000000 1.75027152803718e-38
16.980763 38.551926 1.258089 0.401102 0.916034 0.000000 1.75027152803718e-38
15.761084 39.117715 1.356223 0.378411 0.925638 0.000000 1.75027152803718e-38
15.276433 39.540916 1.533335 0.355491 0.934680 0.000000 1.75027152803718e-38
14.473639 40.518664 1.395937 0.332355 0.943154 0.000000 1.75027152803718e-38
13.543466 39.859403 1.141741 0.309017 0.951057 0.000000 1.75027152803718e-38
11.874414 40.770739 1.065679 0.285492 0.958381 0.000000 1.75027152803718e-38
11.077379 41.586222 1.186197 0.261793 0.965124 0.000000 1.75027152803718e-38
10.237319 41.213583 1.259827 0.237935 0.971281 0.000000 1.75027152803718e-38
9.094802 41.654393 1.586706 0.213933 0.976848 0.000000 1.75027152803718e-38
8.561511 41.824207 1.413977 0.189801 0.981823 0.000000 1.75027152803718e-38
20.841231 37.794882 2.144186 0.489293 0.872120 0.000000 1.75027152803718e-38
19.852005 38.119552 2.831644 0.467658 0.883910 0.000000 1.75027152803718e-38
18.742027 38.125710 2.474827 0.445738 0.895163 0.000000 1.75027152803718e-38
18.092060 38.304265 2.447431 0.423549 0.905873 0.000000 1.75027152803718e-38
16.573708 38.986373 2.609233 0.401102 0.916034 0.000000 1.75027152803718e-38
16.020196 38.869644 2.770786 0.378411 0.925638 0.000000 1.75027152803718e-38
15.223309 39.520787 2.390047 0.355491 0.934680 0.000000 1.75027152803718e-38
13.680106 39.791275 2.312883 0.332355 0.943154 0.000000 1.75027152803718e-38
13.506609 40.243010 2.666291 0.309017 0.951057 0.000000 1.75027152803718e-38
11.976388 40.820660 2.431808 0.285492 0.958381 0.000000 1.75027152803718e-38
11.392231 40.872510 2.002468 0.261793 0.965124 0.000000 1.75027152803718e-38
9.701404 41.135158 2.099509 0.237935 0.971281 0.000000 1.75027152803718e-38
9.218585 41.391688 3.186609 0.213933 0.976848 0.000000 1.75027152803718e-38
20.842538 37.436067 4.343406 0.489293 0.872120 0.000000 1.75027152803718e-38
19.718936 37.592379 4.257957 0.467658 0.883910 0.000000 1.75027152803718e-38
18.502988 38.384380 3.405846 0.445738 0.895163 0.000000 1.75027152803718e-38
18.046536 38.458879 3.423937 0.423549 0.905873 0.000000 1.75027152803718e-38
16.766073 39.046756 4.010002 0.401102 0.916034 0.000000 1.75027152803718e-38
16.056935 39.393378 3.882692 0.378411 0.925638 0.000000 1.75027152803718e-38
14.829450 39.978862 3.957143 0.355491 0.934680 0.000000 1.75027152803718e-38
14.917924 40.004596 3.573916 0.332355 0.943154 0.000000 1.75027152803718e-38
13.374843 40.699276 3.550814 0.309017 0.951057 0.000000 1.75027152803718e-38
12.022543 40.927443 3.463065 0.285492 0.958381 0.000000 1.75027152803718e-38
11.012297 41.078792 4.010122 0.261793 0.965124 0.000000 1.75027152803718e-38
9.939283 40.761087 3.136361 0.237935 0.971281 0.000000 1.75027152803718e-38
20.417085 36.693276 4.701903 0.489293 0.872120 0.000000 1.75027152803718e-38
19.930716 37.267537 4.913713 0.467658 0.883910 0.000000 1.75027152803718e-38
19.289460 37.710166 4.886520 0.445738 0.895163 0.000000 1.75027152803718e-38
18.334859 38.431073 4.776353 0.423549 0.905873 0.000000 1.75027152803718e-38
17.421073 38.897139 5.279802 0.401102 0.916034 0.000000 1.75027152803718e-38
16.234942 39.294923 5.092361 0.378411 0.925638 0.000000 1.75027152803718e-38
15.226838 40.088899 4.783950 0.355491 0.934680 0.000000 1.75027152803718e-38
14.158329 40.124885 5.159698 0.332355 0.943154 0.000000 1.75027152803718e-38
12.845090 40.784768 5.088352 0.309017 0.951057 0.000000 1.75027152803718e-38
11.756258 41.153914 5.618682 0.285492 0.958381 0.000000 1.75027152803718e-38
11.443200 41.506526 4.974065 0.261793 0.965124 0.000000 1.75027152803718e-38
9.628748 40.787252 5.024978 0.237935 0.971281 0.000000 1.75027152803718e-38
20.850749 36.549812 5.957607 0.489293 0.872120 0.000000 1.75027152803718e-38
20.216308 37.464212 5.936904 0.467658 0.883910 0.000000 1.75027152803718e-38
19.380476 38.534354 6.340664 0.445738 0.895163 0.000000 1.75027152803718e-38
17.905837 38.516668 5.944322 0.423549 0.905873 0.000000 1.75027152803718e-38
16.787741 38.707989 6.000151 0.401102 0.916034 0.000000 1.75027152803718e-38
15.809185 38.961317 6.251388 0.378411 0.925638 0.000000 1.75027152803718e-38
15.213622 40.325843 5.985065 0.355491 0.934680 0.000000 1.75027152803718e-38
14.246521 40.270424 6.109416 0.332355 0.943154 0.000000 1.75027152803718e-38
13.386845 40.745793 6.283790 0.309017 0.951057 0.000000 1.75027152803718e-38
12.084714 40.717983 5.775241 0.285492 0.958381 0.000000 1.75027152803718e-38
10.910109 40.925874 5.848375 0.261793 0.965124 0.000000 1.75027152803718e-38
20.910457 36.364507 7.150738 0.489293 0.872120 0.000000 1.75027152803718e-38
19.926210 37.583955 7.496811 0.467658 0.883910 0.000000 1.75027152803718e-38
19.345647 38.074344 7.105384 0.445738 0.895163 0.000000 1.75027152803718e-38
18.158057 38.529510 7.375861 0.423549 0.905873 0.000000 1.75027152803718e-38
17.015904 39.733290 6.750469 0.401102 0.916034 0.000000 1.75027152803718e-38
16.019387 39.469160 7.188338 0.378411 0.925638 0.000000 1.75027152803718e-38
15.428491 40.099810 7.408354 0.355491 0.934680 0.000000 1.75027152803718e-38
14.090793 40.183616 7.391244 0.332355 0.943154 0.000000 1.75027152803718e-38
13.153332 40.497757 7.498415 0.309017 0.951057 0.000000 1.75027152803718e-38
12.399657 40.497412 7.107481 0.285492 0.958381 0.000000 1.75027152803718e-38
21.131101 37.471219 9.232431 0.489293 0.872120 0.000000 1.75027152803718e-38
19.754037 37.440041 8.443157 0.467658 0.883910 0.000000 1.75027152803718e-38
18.953076 37.509875 8.597565 0.445738 0.895163 0.000000 1.75027152803718e-38
17.918728 38.908605 8.765520 0.423549 0.905873 0.000000 1.75027152803718e-38
16.943586 39.284222 8.876773 0.401102 0.916034 0.000000 1.75027152803718e-38
15.924531 39.369343 7.992185 0.378411 0.925638 0.000000 1.75027152803718e-38
14.849389 39.680534 8.682044 0.355491 0.934680 0.000000 1.75027152803718e-38
13.905250 40.111039 8.292195 0.332355 0.943154 0.000000 1.75027152803718e-38
13.243863 40.730144 8.780503 0.309017 0.951057 0.000000 1.75027152803718e-38
20.989782 37.203121 10.112412 0.489293 0.872120 0.000000 1.75027152803718e-38
20.294713 37.616009 9.962739 0.467658 0.883910 0.000000 1.75027152803718e-38
19.333436 37.920452 9.900611 0.445738 0.895163 0.000000 1.75027152803718e-38
17.772528 38.431326 9.727977 0.423549 0.905873 0.000000 1.75027152803718e-38
17.290364 39.064144 9.702382 0.401102 0.916034 0.000000 1.75027152803718e-38
16.192669 39.227239 10.025548 0.378411 0.925638 0.000000 1.75027152803718e-38
15.536771 39.934120 9.836113 0.355491 0.934680 0.000000 1.75027152803718e-38
14.320314 39.711635 10.057952 0.332355 0.943154 0.000000 1.75027152803718e-38
20.995311 37.142518 11.577372 0.489293 0.872120 0.000000 1.75027152803718e-38
20.169862 37.603671 11.162374 0.467658 0.883910 0.000000 1.75027152803718e-38
19.122103 38.692059 10.953906 0.445738 0.895163 0.000000 1.75027152803718e-38
18.365011 38.798768 11.581491 0.423549 0.905873 0.000000 1.75027152803718e-38
17.560979 39.280327 11.055336 0.401102 0.916034 0.000000 1.75027152803718e-38
16.354169 39.578310 11.638113 0.378411 0.925638 0.000000 1.75027152803718e-38
15.244368 39.897902 10.996136 0.355491 0.934680 0.000000 1.75027152803718e-38
21.089746 37.485431 12.314211 0.489293 0.872120 0.000000 1.75027152803718e-38
20.002374 37.840347 12.036354 0.467658 0.883910 0.000000 1.75027152803718e-38
19.762753 38.327495 12.550213 0.445738 0.895163 0.000000 1.75027152803718e-38
18.065571 38.746420 12.234501 0.423549 0.905873 0.000000 1.75027152803718e-38
16.738263 39.240432 12.249032 0.401102 0.916034 0.000000 1.75027152803718e-38
16.581481 39.341525 12.197990 0.378411 0.925638 0.000000 1.75027152803718e-38
21.471531 37.244544 13.463171 0.489293 0.872120 0.000000 1.75027152803718e-38
20.750104 38.011318 14.155256 0.467658 0.883910 0.000000 1.75027152803718e-38
19.215858 38.539871 13.516600 0.445738 0.895163 0.000000 1.75027152803718e-38
18.483048 39.333575 13.297747 0.423549 0.905873 0.000000 1.75027152803718e-38
17.129979 39.637357 13.569383 0.401102 0.916034 0.000000 1.75027152803718e-38
16.112667 40.078392 13.939283 0.378411 0.925638 0.000000 1.75027152803718e-38
20.677146 37.575321 14.604547 0.489293 0.872120 0.000000 1.75027152803718e-38
19.830929 37.988359 15.065569 0.467658 0.883910 0.000000 1.75027152803718e-38
19.248884 38.385799 14.673957 0.445738 0.895163 0.000000 1.75027152803718e-38
18.428464 38.287292 15.084570 0.423549 0.905873 0.000000 1.75027152803718e-38
16.708963 39.019181 14.691081 0.401102 0.916034 0.000000 1.75027152803718e-38
20.778739 36.883049 16.601436 0.489293 0.872120 0.000000 1.75027152803718e-38
20.639985 38.262979 16.123009 0.467658 0.883910 0.000000 1.75027152803718e-38
18.770367 38.564992 16.620192 0.445738 0.895163 0.000000 1.75027152803718e-38
18.317666 38.923584 15.555053 0.423549 0.905873 0.000000 1.75027152803718e-38
20.953474 37.588460 17.249202 0.489293 0.872120 0.000000 1.75027152803718e-38
20.675655 37.989353 17.103659 0.467658 0.883910 0.000000 1.75027152803718e-38
18.943113 38.278238 17.411689 0.445738 0.895163 0.000000 1.75027152803718e-38
