# .PCD v0.7 - Point Cloud Data file format
VERSION 0.7
FIELDS x y z normal_x normal_y normal_z rgb
SIZE 4 4 4 4 4 4 4
TYPE F F F F F F F
COUNT 1 1 1 1 1 1 1
WIDTH 311
HEIGHT 1
VIEWPOINT 0 0 0 1 0 0 0
POINTS 311
DATA ascii
1.875917 15.891460 0.473727 0.141206 0.989977 -0.002570 1.7041734328458258e-38
1.916361 15.854947 0.085748 0.116772 0.993155 -0.002570 1.7041734328458258e-38
1.868094 15.997562 -0.123278 0.092268 0.995731 -0.002570 1.7041734328458258e-38
1.415215 16.091910 0.460727 0.067708 0.997702 -0.002570 1.7041734328458258e-38
0.744675 15.617787 -0.410448 0.043106 0.999067 -0.002570 1.7041734328458258e-38
0.790941 16.514368 -0.053856 0.018479 0.999826 -0.002570 1.7041734328458258e-38
-0.213515 16.438130 -0.332114 -0.006160 0.999978 -0.002570 1.7041734328458258e-38
-0.761139 16.185410 -0.118382 -0.030795 0.999522 -0.002570 1.7041734328458258e-38
-0.888120 15.926385 0.101272 -0.055411 0.998460 -0.002570 1.7041734328458258e-38
2.409529 16.383851 1.519200 0.116530 0.694166 -0.710320 1.7041734328458258e-38
2.609437 16.536586 1.503032 0.099392 0.696827 -0.710320 1.7041734328458258e-38
2.090308 16.886084 1.323921 0.082194 0.699064 -0.710320 1.7041734328458258e-38
1.428620 16.669601 0.357935 0.064946 0.700877 -0.710320 1.7041734328458258e-38
1.241515 15.507122 0.720074 0.047658 0.702264 -0.710320 1.7041734328458258e-38
0.852816 16.767623 0.888385 0.030342 0.703225 -0.710320 1.7041734328458258e-38
0.093855 17.048152 1.091904 0.013007 0.703759 -0.710320 1.7041734328458258e-38
0.570376 16.638939 1.359524 -0.004336 0.703866 -0.710320 1.7041734328458258e-38
-0.027362 16.671247 0.936410 -0.021676 0.703545 -0.710320 1.7041734328458258e-38
-0.954956 16.603582 0.827691 -0.039003 0.702798 -0.710320 1.7041734328458258e-38
2.966732 18.104412 2.135841 0.094930 0.491065 -0.865935 1.7041734328458258e-38
2.894425 18.166208 1.776615 0.082803 0.493255 -0.865935 1.7041734328458258e-38
2.666046 18.764111 2.338195 0.070625 0.495145 -0.865935 1.7041734328458258e-38
2.223918 18.559127 2.425041 0.058405 0.496735 -0.865935 1.7041734328458258e-38
1.521362 17.616260 2.666524 0.046149 0.498023 -0.865935 1.7041734328458258e-38
1.210345 18.031398 2.512206 0.033865 0.499009 -0.865935 1.7041734328458258e-38
0.617081 18.201766 2.656114 0.021560 0.499692 -0.865935 1.7041734328458258e-38
-0.061921 18.688433 2.054921 0.009242 0.500071 -0.865935 1.7041734328458258e-38
-0.312014 18.953911 2.812433 -0.003081 0.500147 -0.865935 1.7041734328458258e-38
-0.536651 18.086501 2.315445 -0.015402 0.499919 -0.865935 1.7041734328458258e-38
-0.996335 18.360398 2.446966 -0.027714 0.499388 -0.865935 1.7041734328458258e-38
4.054555 19.844911 3.664957 0.097180 0.443738 -0.890872 1.7041734328458258e-38
3.575736 20.131094 3.479114 0.086218 0.445998 -0.890872 1.7041734328458258e-38
3.297881 20.829381 3.909924 0.075204 0.447987 -0.890872 1.7041734328458258e-38
2.930423 20.372627 3.581370 0.064144 0.449704 -0.890872 1.7041734328458258e-38
2.517683 20.752038 3.439055 0.053045 0.451147 -0.890872 1.7041734328458258e-38
1.922609 20.020663 3.774854 0.041913 0.452317 -0.890872 1.7041734328458258e-38
1.631455 20.586964 4.256298 0.030757 0.453213 -0.890872 1.7041734328458258e-38
0.628733 20.764504 3.700593 0.019581 0.453833 -0.890872 1.7041734328458258e-38
0.352766 20.680696 3.743472 0.008394 0.454178 -0.890872 1.7041734328458258e-38
0.126763 21.131458 3.710665 -0.002798 0.454247 -0.890872 1.7041734328458258e-38
-0.393434 20.498174 3.941127 -0.013989 0.454040 -0.890872 1.7041734328458258e-38
-1.376642 21.013896 4.374532 -0.025171 0.453557 -0.890872 1.7041734328458258e-38
4.742341 22.190736 4.929630 0.111707 0.510069 -0.852849 1.7041734328458258e-38
4.549634 22.143677 4.813790 0.099106 0.512667 -0.852849 1.7041734328458258e-38
4.260293 22.357605 5.209382 0.086445 0.514953 -0.852849 1.7041734328458258e-38
3.101975 22.930849 5.277652 0.073732 0.516926 -0.852849 1.7041734328458258e-38
2.907870 23.112955 4.602976 0.060974 0.518586 -0.852849 1.7041734328458258e-38
2.456043 22.643629 5.026316 0.048179 0.519931 -0.852849 1.7041734328458258e-38
1.634591 23.090302 5.049541 0.035354 0.520960 -0.852849 1.7041734328458258e-38
0.738201 22.571204 5.210158 0.022508 0.521673 -0.852849 1.7041734328458258e-38
0.480720 23.338427 4.935034 0.009649 0.522069 -0.852849 1.7041734328458258e-38
-0.563213 23.286943 4.837342 -0.003216 0.522148 -0.852849 1.7041734328458258e-38
-0.605610 22.792396 5.441744 -0.016080 0.521910 -0.852849 1.7041734328458258e-38
-1.537297 22.860979 4.980688 -0.028934 0.521356 -0.852849 1.7041734328458258e-38
-2.167326 23.022997 5.432027 -0.041770 0.520485 -0.852849 1.7041734328458258e-38
5.977171 24.219796 5.913148 0.182099 0.743350 -0.643639 1.7041734328458258e-38
5.340583 23.687342 6.094090 0.163729 0.747611 -0.643639 1.7041734328458258e-38
4.455617 24.300343 5.981931 0.145260 0.751418 -0.643639 1.7041734328458258e-38
4.370549 24.153614 5.990686 0.126703 0.754769 -0.643639 1.7041734328458258e-38
3.092925 24.396140 6.454133 0.108069 0.757661 -0.643639 1.7041734328458258e-38
2.950673 25.069911 6.614503 0.089370 0.760094 -0.643639 1.7041734328458258e-38
2.174436 24.366124 6.326476 0.070616 0.762065 -0.643639 1.7041734328458258e-38
1.411931 24.859839 6.294047 0.051819 0.763573 -0.643639 1.7041734328458258e-38
1.135907 24.749579 6.702416 0.032991 0.764618 -0.643639 1.7041734328458258e-38
0.505245 24.528221 6.638183 0.014142 0.765199 -0.643639 1.7041734328458258e-38
0.138938 24.469568 6.187123 -0.004714 0.765315 -0.643639 1.7041734328458258e-38
-0.697907 24.663220 5.778587 -0.023568 0.764967 -0.643639 1.7041734328458258e-38
-1.824002 24.262367 5.896145 -0.042408 0.764154 -0.643639 1.7041734328458258e-38
-2.158312 24.678014 6.134888 -0.061222 0.762877 -0.643639 1.7041734328458258e-38
6.020927 24.390459 7.497777 0.261726 0.964876 -0.022677 1.7041734328458258e-38
6.100561 23.855629 7.958165 0.237874 0.971031 -0.022677 1.7041734328458258e-38
5.166212 24.474137 7.678996 0.213878 0.976597 -0.022677 1.7041734328458258e-38
4.449413 24.384146 7.476432 0.189752 0.981570 -0.022677 1.7041734328458258e-38
4.996507 24.747847 7.904589 0.165511 0.985947 -0.022677 1.7041734328458258e-38
3.892212 24.862409 7.125922 0.141170 0.989726 -0.022677 1.7041734328458258e-38
3.237539 24.382042 7.902943 0.116743 0.992903 -0.022677 1.7041734328458258e-38
2.366944 24.100802 7.320529 0.092245 0.995478 -0.022677 1.7041734328458258e-38
1.889055 24.874042 7.637182 0.067691 0.997449 -0.022677 1.7041734328458258e-38
0.822765 24.587491 7.401247 0.043095 0.998814 -0.022677 1.7041734328458258e-38
0.471489 24.893741 7.790868 0.018474 0.999572 -0.022677 1.7041734328458258e-38
-0.409076 25.096001 7.443071 -0.006158 0.999724 -0.022677 1.7041734328458258e-38
-1.236969 24.594958 7.426254 -0.030787 0.999269 -0.022677 1.7041734328458258e-38
-0.791067 25.137893 6.904990 -0.055397 0.998207 -0.022677 1.7041734328458258e-38
-2.933205 25.142317 7.393816 -0.079974 0.996539 -0.022677 1.7041734328458258e-38
7.171941 23.601084 8.473808 0.282404 0.948016 -0.146677 1.7041734328458258e-38
6.451004 24.111720 8.682288 0.258961 0.954686 -0.146677 1.7041734328458258e-38
6.401831 24.630929 8.363538 0.235362 0.960776 -0.146677 1.7041734328458258e-38
5.575035 24.719176 8.417974 0.211619 0.966283 -0.146677 1.7041734328458258e-38
5.020259 24.603868 8.236808 0.187748 0.971204 -0.146677 1.7041734328458258e-38
4.293352 24.826998 8.591491 0.163763 0.975534 -0.146677 1.7041734328458258e-38
3.534223 24.641080 8.842833 0.139679 0.979273 -0.146677 1.7041734328458258e-38
2.918939 24.986546 8.766936 0.115510 0.982417 -0.146677 1.7041734328458258e-38
1.970334 24.732994 7.996810 0.091270 0.984965 -0.146677 1.7041734328458258e-38
1.869461 24.687104 8.699565 0.066976 0.986914 -0.146677 1.7041734328458258e-38
1.193632 25.265754 8.298589 0.042640 0.988265 -0.146677 1.7041734328458258e-38
0.444427 25.605184 9.174088 0.018279 0.989016 -0.146677 1.7041734328458258e-38
0.141531 25.209158 8.358262 -0.006093 0.989166 -0.146677 1.7041734328458258e-38
-0.557628 25.049072 8.827952 -0.030462 0.988715 -0.146677 1.7041734328458258e-38
-1.581146 25.017930 8.709038 -0.054812 0.987665 -0.146677 1.7041734328458258e-38
-1.934643 25.176039 8.486035 -0.079129 0.986014 -0.146677 1.7041734328458258e-38
8.769908 24.090211 9.861170 0.298181 0.917707 -0.262492 1.7041734328458258e-38
7.465616 24.806432 10.189398 0.275481 0.924775 -0.262492 1.7041734328458258e-38
5.994648 24.652909 10.668486 0.252613 0.931281 -0.262492 1.7041734328458258e-38
6.222826 24.293702 9.981456 0.229592 0.937222 -0.262492 1.7041734328458258e-38
5.042986 25.151158 9.610142 0.206431 0.942594 -0.262492 1.7041734328458258e-38
4.837269 24.650173 9.732973 0.183146 0.947394 -0.262492 1.7041734328458258e-38
4.645723 25.049613 9.729146 0.159749 0.951619 -0.262492 1.7041734328458258e-38
3.238640 24.552945 9.521523 0.136255 0.955266 -0.262492 1.7041734328458258e-38
2.995953 25.489159 9.728802 0.112678 0.958333 -0.262492 1.7041734328458258e-38
2.811886 25.045176 9.825504 0.089033 0.960818 -0.262492 1.7041734328458258e-38
1.393787 25.607656 10.526160 0.065334 0.962720 -0.262492 1.7041734328458258e-38
0.565009 25.241215 10.276341 0.041595 0.964037 -0.262492 1.7041734328458258e-38
0.034701 25.534317 10.263349 0.017831 0.964769 -0.262492 1.7041734328458258e-38
-0.132801 25.533241 10.425178 -0.005944 0.964916 -0.262492 1.7041734328458258e-38
-0.196701 25.338022 9.737194 -0.029715 0.964477 -0.262492 1.7041734328458258e-38
-1.681708 25.622757 9.485375 -0.053468 0.963452 -0.262492 1.7041734328458258e-38
-2.105118 25.318153 9.746006 -0.077189 0.961842 -0.262492 1.7041734328458258e-38
8.204214 24.481541 10.888017 0.309389 0.877981 -0.365277 1.7041734328458258e-38
8.295919 24.130408 11.172193 0.287664 0.885337 -0.365277 1.7041734328458258e-38
7.705056 24.061446 11.739500 0.265764 0.892156 -0.365277 1.7041734328458258e-38
6.621449 24.923280 11.305455 0.243703 0.898433 -0.365277 1.7041734328458258e-38
6.351821 25.121843 11.433236 0.221494 0.904164 -0.365277 1.7041734328458258e-38
5.670928 25.711467 11.290719 0.199150 0.909347 -0.365277 1.7041734328458258e-38
5.482473 25.581763 10.592296 0.176686 0.913978 -0.365277 1.7041734328458258e-38
5.051319 25.252006 11.582684 0.154114 0.918053 -0.365277 1.7041734328458258e-38
3.648340 25.840071 10.927477 0.131449 0.921572 -0.365277 1.7041734328458258e-38
3.198130 25.527727 11.607722 0.108704 0.924530 -0.365277 1.7041734328458258e-38
2.510284 25.950864 10.484798 0.085893 0.926928 -0.365277 1.7041734328458258e-38
1.719844 25.844059 11.201105 0.063029 0.928763 -0.365277 1.7041734328458258e-38
1.399636 25.646320 11.148657 0.040128 0.930034 -0.365277 1.7041734328458258e-38
0.830755 25.092046 11.310826 0.017202 0.930740 -0.365277 1.7041734328458258e-38
-0.258969 25.505870 11.234984 -0.005734 0.930881 -0.365277 1.7041734328458258e-38
-0.425663 26.079571 11.093487 -0.028667 0.930457 -0.365277 1.7041734328458258e-38
-1.165789 26.000867 11.107809 -0.051582 0.929469 -0.365277 1.7041734328458258e-38
-2.270180 25.506868 11.385377 -0.074467 0.927916 -0.365277 1.7041734328458258e-38
9.093205 25.049881 12.110311 0.316958 0.833365 -0.452813 1.7041734328458258e-38
8.922082 25.131371 12.327297 0.296329 0.840921 -0.452813 1.7041734328458258e-38
7.725690 24.639198 12.629063 0.275521 0.847967 -0.452813 1.7041734328458258e-38
7.140954 25.358966 12.405439 0.254546 0.854498 -0.452813 1.7041734328458258e-38
7.008107 25.560424 12.091033 0.233416 0.860510 -0.452813 1.7041734328458258e-38
5.973958 25.795585 12.182331 0.212144 0.865999 -0.452813 1.7041734328458258e-38
4.809416 25.922362 12.060256 0.190744 0.870963 -0.452813 1.7041734328458258e-38
5.139026 26.276591 12.376163 0.169228 0.875398 -0.452813 1.7041734328458258e-38
4.659004 26.020194 12.847363 0.147609 0.879302 -0.452813 1.7041734328458258e-38
3.400384 26.071132 12.573083 0.125900 0.882672 -0.452813 1.7041734328458258e-38
3.018377 26.502975 12.241522 0.104115 0.885506 -0.452813 1.7041734328458258e-38
3.050929 26.861801 12.455756 0.082267 0.887802 -0.452813 1.7041734328458258e-38
1.949039 26.634554 12.014975 0.060369 0.889559 -0.452813 1.7041734328458258e-38
0.741718 26.689937 12.453331 0.038434 0.890777 -0.452813 1.7041734328458258e-38
0.418736 26.336333 11.655322 0.016476 0.891453 -0.452813 1.7041734328458258e-38
-0.219406 26.111079 12.646556 -0.005492 0.891588 -0.452813 1.7041734328458258e-38
-0.512555 26.498005 12.489772 -0.027457 0.891182 -0.452813 1.7041734328458258e-38
-1.908603 26.474221 12.559953 -0.049405 0.890235 -0.452813 1.7041734328458258e-38
-1.733290 26.888553 11.863366 -0.071323 0.888748 -0.452813 1.7041734328458258e-38
9.475451 25.331855 13.245705 0.302537 0.795451 -0.525098 1.7041734328458258e-38
8.716240 25.534499 13.617669 0.282848 0.802664 -0.525098 1.7041734328458258e-38
8.063907 25.496082 13.288734 0.262986 0.809389 -0.525098 1.7041734328458258e-38
7.854501 25.318598 13.304774 0.242965 0.815622 -0.525098 1.7041734328458258e-38
6.518429 26.216883 13.067427 0.222797 0.821361 -0.525098 1.7041734328458258e-38
6.441862 26.749481 14.110278 0.202493 0.826600 -0.525098 1.7041734328458258e-38
5.241697 26.497653 13.311556 0.182066 0.831338 -0.525098 1.7041734328458258e-38
4.773144 26.508563 13.976735 0.161529 0.835572 -0.525098 1.7041734328458258e-38
4.655483 26.446421 13.819758 0.140893 0.839298 -0.525098 1.7041734328458258e-38
3.144256 26.537254 13.361080 0.120172 0.842514 -0.525098 1.7041734328458258e-38
3.180331 26.788216 13.565806 0.099378 0.845219 -0.525098 1.7041734328458258e-38
2.441968 26.925413 13.770287 0.078524 0.847411 -0.525098 1.7041734328458258e-38
1.875218 26.886669 13.728772 0.057622 0.849089 -0.525098 1.7041734328458258e-38
1.413180 26.842076 13.590427 0.036685 0.850250 -0.525098 1.7041734328458258e-38
0.848131 26.698568 14.149658 0.015726 0.850896 -0.525098 1.7041734328458258e-38
-0.568275 26.929890 13.323190 -0.005242 0.851025 -0.525098 1.7041734328458258e-38
-0.176136 26.870186 13.457995 -0.026208 0.850638 -0.525098 1.7041734328458258e-38
-1.609219 27.021159 13.509715 -0.047157 0.849734 -0.525098 1.7041734328458258e-38
-2.202432 25.888614 13.625395 -0.068078 0.848314 -0.525098 1.7041734328458258e-38
11.193923 26.292358 15.057307 0.307317 0.751734 -0.583482 1.7041734328458258e-38
10.011270 25.482370 14.892388 0.288703 0.759078 -0.583482 1.7041734328458258e-38
9.094949 26.032165 14.891802 0.269914 0.765960 -0.583482 1.7041734328458258e-38
8.468170 26.758115 14.264574 0.250961 0.772378 -0.583482 1.7041734328458258e-38
7.976566 26.437669 14.722470 0.231855 0.778326 -0.583482 1.7041734328458258e-38
7.385182 26.554068 14.894630 0.212609 0.783802 -0.583482 1.7041734328458258e-38
6.565396 26.862623 14.704189 0.193233 0.788802 -0.583482 1.7041734328458258e-38
5.914010 26.985558 14.847489 0.173741 0.793324 -0.583482 1.7041734328458258e-38
5.204583 27.171111 15.322313 0.154142 0.797364 -0.583482 1.7041734328458258e-38
4.737058 27.361662 14.889119 0.134451 0.800919 -0.583482 1.7041734328458258e-38
3.626090 27.450744 14.749338 0.114677 0.803989 -0.583482 1.7041734328458258e-38
2.879359 27.786536 14.693677 0.094834 0.806570 -0.583482 1.7041734328458258e-38
2.464043 27.571470 15.733088 0.074934 0.808662 -0.583482 1.7041734328458258e-38
1.687624 27.176397 14.365381 0.054987 0.810262 -0.583482 1.7041734328458258e-38
1.428779 28.235975 14.640822 0.035008 0.811371 -0.583482 1.7041734328458258e-38
0.898524 28.078656 14.788517 0.015007 0.811987 -0.583482 1.7041734328458258e-38
-0.249756 27.914669 15.108598 -0.005003 0.812111 -0.583482 1.7041734328458258e-38
-0.738791 27.644680 14.793099 -0.025009 0.811741 -0.583482 1.7041734328458258e-38
-0.949437 27.893495 15.106158 -0.045001 0.810878 -0.583482 1.7041734328458258e-38
-2.066749 27.853658 14.877970 -0.064965 0.809523 -0.583482 1.7041734328458258e-38
11.969009 26.368034 15.555454 0.311534 0.711480 -0.629875 1.7041734328458258e-38
10.623971 26.282471 16.042951 0.293911 0.718939 -0.629875 1.7041734328458258e-38
10.303167 26.775252 16.315588 0.276108 0.725962 -0.629875 1.7041734328458258e-38
9.598104 27.489049 15.975316 0.258139 0.732545 -0.629875 1.7041734328458258e-38
9.815747 27.228651 15.811475 0.240012 0.738682 -0.629875 1.7041734328458258e-38
7.916540 27.545725 15.566613 0.221740 0.744371 -0.629875 1.7041734328458258e-38
7.630087 27.231665 16.130976 0.203334 0.749608 -0.629875 1.7041734328458258e-38
6.449052 27.866237 16.263836 0.184803 0.754391 -0.629875 1.7041734328458258e-38
6.854187 27.817607 16.037379 0.166161 0.758715 -0.629875 1.7041734328458258e-38
5.250655 28.023344 15.867982 0.147418 0.762578 -0.629875 1.7041734328458258e-38
5.016489 28.264015 16.757268 0.128585 0.765979 -0.629875 1.7041734328458258e-38
4.192655 28.216307 15.972463 0.109674 0.768914 -0.629875 1.7041734328458258e-38
3.123429 28.850896 15.590840 0.090697 0.771383 -0.629875 1.7041734328458258e-38
2.255778 28.507606 16.287358 0.071665 0.773383 -0.629875 1.7041734328458258e-38
2.320447 29.156013 16.241415 0.052589 0.774914 -0.629875 1.7041734328458258e-38
1.216945 29.019570 15.739124 0.033481 0.775974 -0.629875 1.7041734328458258e-38
-0.021058 28.934032 15.780771 0.014352 0.776564 -0.629875 1.7041734328458258e-38
-0.197048 28.843301 16.156910 -0.004784 0.776682 -0.629875 1.7041734328458258e-38
-0.605805 29.043919 16.140974 -0.023918 0.776328 -0.629875 1.7041734328458258e-38
-1.728896 28.796028 15.903611 -0.043038 0.775503 -0.629875 1.7041734328458258e-38
-2.363400 29.501092 16.137131 -0.062131 0.774207 -0.629875 1.7041734328458258e-38
12.709421 27.437184 17.632010 0.315861 0.675554 -0.666227 1.7041734328458258e-38
12.697344 27.333610 17.241429 0.299121 0.683131 -0.666227 1.7041734328458258e-38
10.910529 27.851554 17.355148 0.282200 0.690293 -0.666227 1.7041734328458258e-38
10.811504 27.570870 17.425069 0.265107 0.697036 -0.666227 1.7041734328458258e-38
9.986766 28.207399 17.114608 0.247853 0.703356 -0.666227 1.7041734328458258e-38
9.585060 29.016763 16.986484 0.230449 0.709249 -0.666227 1.7041734328458258e-38
8.741850 27.757055 17.520171 0.212905 0.714712 -0.666227 1.7041734328458258e-38
7.256948 28.664284 16.925680 0.195232 0.719740 -0.666227 1.7041734328458258e-38
7.040843 29.257279 16.762394 0.177440 0.724332 -0.666227 1.7041734328458258e-38
6.280901 29.017888 17.793902 0.159540 0.728484 -0.666227 1.7041734328458258e-38
5.797612 28.967281 17.178199 0.141544 0.732193 -0.666227 1.7041734328458258e-38
5.410814 29.665503 17.044118 0.123462 0.735458 -0.666227 1.7041734328458258e-38
4.136758 29.493528 17.158193 0.105304 0.738277 -0.666227 1.7041734328458258e-38
2.974153 29.455693 17.736347 0.087083 0.740647 -0.666227 1.7041734328458258e-38
2.641093 29.704916 17.361745 0.068809 0.742568 -0.666227 1.7041734328458258e-38
2.687426 29.797416 17.647771 0.050493 0.744038 -0.666227 1.7041734328458258e-38
1.107849 29.757706 17.323353 0.032147 0.745056 -0.666227 1.7041734328458258e-38
0.319601 29.797070 17.586003 0.013781 0.745622 -0.666227 1.7041734328458258e-38
-0.424066 29.862744 17.532208 -0.004594 0.745735 -0.666227 1.7041734328458258e-38
-1.166981 30.177745 17.341453 -0.022965 0.745395 -0.666227 1.7041734328458258e-38
-1.704305 29.214958 17.207504 -0.041323 0.744603 -0.666227 1.7041734328458258e-38
11.755979 28.731915 18.529192 0.272349 0.666199 -0.694266 1.7041734328458258e-38
10.629374 29.360860 18.876631 0.255853 0.672706 -0.694266 1.7041734328458258e-38
9.994315 29.160547 18.489175 0.239202 0.678806 -0.694266 1.7041734328458258e-38
9.236823 28.935799 18.355523 0.222405 0.684493 -0.694266 1.7041734328458258e-38
8.747247 29.290635 18.609794 0.205474 0.689765 -0.694266 1.7041734328458258e-38
8.468038 30.184761 18.518695 0.188417 0.694618 -0.694266 1.7041734328458258e-38
6.827141 30.337787 18.600619 0.171246 0.699049 -0.694266 1.7041734328458258e-38
6.762175 30.876570 18.309258 0.153972 0.703056 -0.694266 1.7041734328458258e-38
5.024001 30.133973 18.702515 0.136603 0.706636 -0.694266 1.7041734328458258e-38
5.142526 30.221102 18.130786 0.119152 0.709787 -0.694266 1.7041734328458258e-38
4.272951 30.329180 18.712891 0.101629 0.712507 -0.694266 1.7041734328458258e-38
3.498132 30.613449 18.329218 0.084043 0.714795 -0.694266 1.7041734328458258e-38
2.940526 30.894243 18.617288 0.066407 0.716648 -0.694266 1.7041734328458258e-38
2.153919 30.920930 18.246762 0.048731 0.718067 -0.694266 1.7041734328458258e-38
1.117782 30.866529 19.176260 0.031025 0.719050 -0.694266 1.7041734328458258e-38
0.168449 30.882771 18.586181 0.013300 0.719596 -0.694266 1.7041734328458258e-38
-0.282043 31.335362 18.464152 -0.004433 0.719705 -0.694266 1.7041734328458258e-38
-1.025433 31.243439 19.099915 -0.022164 0.719377 -0.694266 1.7041734328458258e-38
-1.296269 30.925114 18.541847 -0.039881 0.718613 -0.694266 1.7041734328458258e-38
10.165405 30.626452 19.562264 0.232221 0.658995 -0.715402 1.7041734328458258e-38
9.882161 30.135928 19.524051 0.215914 0.664516 -0.715402 1.7041734328458258e-38
8.755023 30.772761 19.675449 0.199477 0.669634 -0.715402 1.7041734328458258e-38
8.468512 31.492393 19.996886 0.182918 0.674345 -0.715402 1.7041734328458258e-38
7.185582 31.501412 19.827341 0.166248 0.678647 -0.715402 1.7041734328458258e-38
6.868935 31.491715 19.855180 0.149478 0.682537 -0.715402 1.7041734328458258e-38
5.912580 31.604214 20.148996 0.132617 0.686012 -0.715402 1.7041734328458258e-38
5.127122 31.491128 19.775302 0.115675 0.689072 -0.715402 1.7041734328458258e-38
4.214030 31.405129 19.690474 0.098663 0.691712 -0.715402 1.7041734328458258e-38
4.199928 32.012872 19.847388 0.081591 0.693933 -0.715402 1.7041734328458258e-38
2.336154 32.238938 19.821824 0.064469 0.695733 -0.715402 1.7041734328458258e-38
1.983774 32.225071 19.844851 0.047308 0.697110 -0.715402 1.7041734328458258e-38
1.072126 32.314636 20.152955 0.030119 0.698064 -0.715402 1.7041734328458258e-38
0.527471 31.979268 19.740540 0.012911 0.698594 -0.715402 1.7041734328458258e-38
0.057756 31.876545 19.967382 -0.004304 0.698700 -0.715402 1.7041734328458258e-38
-1.196393 32.302378 19.624515 -0.021517 0.698382 -0.715402 1.7041734328458258e-38
-1.956851 32.652439 19.371088 -0.038717 0.697640 -0.715402 1.7041734328458258e-38
9.747670 32.080102 21.092690 0.194898 0.654264 -0.730721 1.7041734328458258e-38
8.806374 32.135533 20.952720 0.178720 0.658867 -0.730721 1.7041734328458258e-38
8.024259 32.547716 21.502749 0.162433 0.663071 -0.730721 1.7041734328458258e-38
7.478692 32.852264 20.801984 0.146047 0.666871 -0.730721 1.7041734328458258e-38
6.119067 33.524259 20.727962 0.129573 0.670267 -0.730721 1.7041734328458258e-38
5.587136 33.187252 20.937531 0.113020 0.673256 -0.730721 1.7041734328458258e-38
4.435650 32.970269 20.866976 0.096398 0.675836 -0.730721 1.7041734328458258e-38
3.703921 33.710665 21.028190 0.079718 0.678006 -0.730721 1.7041734328458258e-38
2.937708 33.430824 21.231315 0.062989 0.679764 -0.730721 1.7041734328458258e-38
2.167664 33.735442 20.649584 0.046223 0.681110 -0.730721 1.7041734328458258e-38
1.797263 33.507956 21.016524 0.029428 0.682042 -0.730721 1.7041734328458258e-38
0.411912 33.167738 20.530926 0.012615 0.682560 -0.730721 1.7041734328458258e-38
-0.435449 33.717485 20.742544 -0.004205 0.682663 -0.730721 1.7041734328458258e-38
-1.497457 33.253192 20.915478 -0.021023 0.682353 -0.730721 1.7041734328458258e-38
8.598109 34.085924 22.229578 0.159771 0.652207 -0.741012 1.7041734328458258e-38
7.929268 34.347884 22.684605 0.143654 0.655945 -0.741012 1.7041734328458258e-38
7.057149 34.216053 22.384405 0.127450 0.659285 -0.741012 1.7041734328458258e-38
6.008198 34.061736 21.929949 0.111168 0.662225 -0.741012 1.7041734328458258e-38
4.536593 34.505906 22.168046 0.094819 0.664763 -0.741012 1.7041734328458258e-38
3.643254 34.694033 22.239356 0.078412 0.666897 -0.741012 1.7041734328458258e-38
3.573722 35.342974 22.404976 0.061957 0.668627 -0.741012 1.7041734328458258e-38
2.153201 35.001861 22.270832 0.045465 0.669950 -0.741012 1.7041734328458258e-38
1.431859 34.596996 22.128775 0.028946 0.670867 -0.741012 1.7041734328458258e-38
0.591353 35.123177 22.421349 0.012408 0.671377 -0.741012 1.7041734328458258e-38
0.332765 35.089545 22.395330 -0.004136 0.671479 -0.741012 1.7041734328458258e-38
6.877382 35.533409 23.033655 0.126226 0.652956 -0.746804 1.7041734328458258e-38
6.209151 35.828710 23.228499 0.110101 0.655867 -0.746804 1.7041734328458258e-38
5.023306 35.949505 23.337564 0.093908 0.658381 -0.746804 1.7041734328458258e-38
4.235745 35.493446 23.909981 0.077659 0.660495 -0.746804 1.7041734328458258e-38
3.351027 35.782024 22.767242 0.061363 0.662208 -0.746804 1.7041734328458258e-38
2.764275 36.350739 23.568360 0.045029 0.663518 -0.746804 1.7041734328458258e-38
1.822419 36.491096 23.563486 0.028668 0.664426 -0.746804 1.7041734328458258e-38
0.593902 36.135202 23.631437 0.012289 0.664931 -0.746804 1.7041734328458258e-38
4.826204 36.914728 24.238451 0.093656 0.656613 -0.748390 1.7041734328458258e-38
4.420233 37.518055 24.452681 0.077451 0.658721 -0.748390 1.7041734328458258e-38
3.519252 37.940582 25.329577 0.061198 0.660430 -0.748390 1.7041734328458258e-38
2.781043 37.521661 24.963699 0.044908 0.661737 -0.748390 1.7041734328458258e-38
2.028958 37.023363 25.186889 0.028591 0.662643 -0.748390 1.7041734328458258e-38
3.449538 38.780657 25.615811 0.061461 0.663271 -0.745851 1.7041734328458258e-38
2.289524 39.255129 26.660439 0.045101 0.664584 -0.745851 1.7041734328458258e-38
