# .PCD v0.7 - Point Cloud Data file format
VERSION 0.7
FIELDS x y z normal_x normal_y normal_z rgb
SIZE 4 4 4 4 4 4 4
TYPE F F F F F F F
COUNT 1 1 1 1 1 1 1
WIDTH 230
HEIGHT 1
VIEWPOINT 0 0 0 1 0 0 0
POINTS 230
DATA ascii
36.607034 -32.084545 46.811472 0.728097 -0.631614 0.266341 1.6580765988230895e-38
37.955683 -31.545845 46.736395 0.743438 -0.613484 0.266341 1.6580765988230895e-38
38.504907 -30.126130 46.938564 0.758327 -0.594981 0.266341 1.6580765988230895e-38
39.715287 -29.236508 47.105279 0.772755 -0.576118 0.266341 1.6580765988230895e-38
34.205616 -35.785733 48.672380 0.650553 -0.687657 0.322349 1.6580765988230895e-38
34.605364 -34.916849 47.892077 0.667297 -0.671421 0.322349 1.6580765988230895e-38
35.121695 -33.711650 47.974534 0.683637 -0.654776 0.322349 1.6580765988230895e-38
36.617626 -33.018626 48.457557 0.699561 -0.637734 0.322349 1.6580765988230895e-38
37.138201 -31.569017 48.116032 0.715061 -0.620305 0.322349 1.6580765988230895e-38
37.762664 -31.555866 48.278367 0.730127 -0.602500 0.322349 1.6580765988230895e-38
38.828487 -30.130563 48.941224 0.744749 -0.584328 0.322349 1.6580765988230895e-38
39.374677 -29.401153 48.384152 0.758920 -0.565802 0.322349 1.6580765988230895e-38
39.488216 -28.503598 47.882320 0.772629 -0.546933 0.322349 1.6580765988230895e-38
29.352408 -38.207262 49.288626 0.568201 -0.733453 0.373087 1.6580765988230895e-38
29.902352 -37.266735 49.799816 0.586099 -0.719231 0.373087 1.6580765988230895e-38
31.371755 -36.717649 49.615989 0.603641 -0.704573 0.373087 1.6580765988230895e-38
32.566524 -35.494350 49.609576 0.620817 -0.689487 0.373087 1.6580765988230895e-38
33.195482 -35.073845 49.355552 0.637616 -0.673982 0.373087 1.6580765988230895e-38
33.840297 -34.005117 49.644784 0.654027 -0.658069 0.373087 1.6580765988230895e-38
34.437923 -33.724091 49.711828 0.670042 -0.641755 0.373087 1.6580765988230895e-38
35.342461 -32.872474 50.282989 0.685650 -0.625052 0.373087 1.6580765988230895e-38
36.505741 -31.429570 49.934676 0.700841 -0.607970 0.373087 1.6580765988230895e-38
37.103752 -30.762974 50.102182 0.715607 -0.590518 0.373087 1.6580765988230895e-38
38.262704 -29.203009 49.293469 0.729939 -0.572708 0.373087 1.6580765988230895e-38
39.389374 -28.959283 49.386292 0.743827 -0.554551 0.373087 1.6580765988230895e-38
39.744071 -28.031760 49.459165 0.757264 -0.536056 0.373087 1.6580765988230895e-38
26.156274 -40.610935 51.044049 0.482890 -0.769267 0.418385 1.6580765988230895e-38
26.561980 -40.310123 50.163709 0.501696 -0.757136 0.418385 1.6580765988230895e-38
27.264380 -38.590966 50.798933 0.520198 -0.744546 0.418385 1.6580765988230895e-38
28.724195 -39.023320 50.624083 0.538384 -0.731503 0.418385 1.6580765988230895e-38
29.583866 -38.213583 50.702459 0.556243 -0.718017 0.418385 1.6580765988230895e-38
30.010794 -36.903688 50.841204 0.573764 -0.704094 0.418385 1.6580765988230895e-38
31.385870 -36.133126 50.653347 0.590937 -0.689745 0.418385 1.6580765988230895e-38
32.369026 -35.792139 50.909366 0.607751 -0.674976 0.418385 1.6580765988230895e-38
32.344503 -35.038205 51.416390 0.624196 -0.659798 0.418385 1.6580765988230895e-38
33.966824 -33.808873 50.474481 0.640263 -0.644219 0.418385 1.6580765988230895e-38
34.282492 -33.228927 50.701511 0.655940 -0.628249 0.418385 1.6580765988230895e-38
35.991311 -31.981154 50.754328 0.671220 -0.611897 0.418385 1.6580765988230895e-38
36.221400 -31.177009 50.326011 0.686091 -0.595175 0.418385 1.6580765988230895e-38
36.388017 -30.279985 50.743253 0.700547 -0.578090 0.418385 1.6580765988230895e-38
37.311083 -30.211497 50.989810 0.714577 -0.560655 0.418385 1.6580765988230895e-38
38.265657 -28.525027 50.642521 0.728173 -0.542880 0.418385 1.6580765988230895e-38
39.105931 -27.867462 50.698696 0.741327 -0.524775 0.418385 1.6580765988230895e-38
21.040254 -42.326972 52.291778 0.396173 -0.795623 0.458292 1.6580765988230895e-38
22.609760 -41.902671 51.564846 0.415655 -0.785620 0.458292 1.6580765988230895e-38
23.646759 -40.772454 52.078879 0.434884 -0.775141 0.458292 1.6580765988230895e-38
24.701212 -40.588042 51.686045 0.453850 -0.764192 0.458292 1.6580765988230895e-38
24.764856 -40.475157 51.960130 0.472540 -0.752778 0.458292 1.6580765988230895e-38
25.998421 -39.620301 51.926691 0.490943 -0.740907 0.458292 1.6580765988230895e-38
27.359616 -38.954792 51.744145 0.509048 -0.728587 0.458292 1.6580765988230895e-38
27.905398 -37.834907 51.937758 0.526844 -0.715824 0.458292 1.6580765988230895e-38
29.064122 -36.942636 52.811745 0.544320 -0.702627 0.458292 1.6580765988230895e-38
30.085120 -36.520784 51.603405 0.561466 -0.689003 0.458292 1.6580765988230895e-38
30.898265 -35.916970 52.226437 0.578271 -0.674960 0.458292 1.6580765988230895e-38
31.546171 -35.105914 52.140333 0.594724 -0.660508 0.458292 1.6580765988230895e-38
33.090080 -33.906210 52.338585 0.610817 -0.645655 0.458292 1.6580765988230895e-38
33.575702 -33.693082 52.176724 0.626539 -0.630410 0.458292 1.6580765988230895e-38
33.942684 -32.793516 52.492274 0.641881 -0.614783 0.458292 1.6580765988230895e-38
35.131810 -31.811642 52.065476 0.656832 -0.598782 0.458292 1.6580765988230895e-38
35.717087 -31.655233 51.579447 0.671385 -0.582417 0.458292 1.6580765988230895e-38
36.683527 -30.394567 51.926487 0.685531 -0.565699 0.458292 1.6580765988230895e-38
36.861084 -29.425629 51.957484 0.699260 -0.548638 0.458292 1.6580765988230895e-38
38.214835 -27.946634 51.738372 0.712565 -0.531243 0.458292 1.6580765988230895e-38
38.715016 -27.768288 51.975686 0.725437 -0.513526 0.458292 1.6580765988230895e-38
20.957396 -41.660136 53.358504 0.387802 -0.778811 0.493015 1.6580765988230895e-38
21.651739 -41.250016 53.320986 0.406872 -0.769020 0.493015 1.6580765988230895e-38
23.289469 -40.593116 52.894871 0.425695 -0.758762 0.493015 1.6580765988230895e-38
23.901723 -40.159853 52.596256 0.444260 -0.748044 0.493015 1.6580765988230895e-38
24.248794 -39.531228 53.201216 0.462555 -0.736871 0.493015 1.6580765988230895e-38
25.679845 -38.622966 52.915333 0.480569 -0.725251 0.493015 1.6580765988230895e-38
26.302696 -38.489260 53.012943 0.498291 -0.713191 0.493015 1.6580765988230895e-38
27.635172 -37.810959 52.553358 0.515711 -0.700698 0.493015 1.6580765988230895e-38
27.799103 -36.842024 52.857170 0.532818 -0.687780 0.493015 1.6580765988230895e-38
28.868219 -35.976406 53.659431 0.549602 -0.674444 0.493015 1.6580765988230895e-38
30.323529 -35.346317 53.278951 0.566051 -0.660698 0.493015 1.6580765988230895e-38
30.521535 -34.401707 53.567841 0.582157 -0.646551 0.493015 1.6580765988230895e-38
32.611183 -34.019996 52.855340 0.597910 -0.632012 0.493015 1.6580765988230895e-38
33.292910 -32.938870 53.458275 0.613300 -0.617089 0.493015 1.6580765988230895e-38
33.496455 -32.186819 52.879856 0.628317 -0.601792 0.493015 1.6580765988230895e-38
34.473788 -31.532809 53.898942 0.642953 -0.586129 0.493015 1.6580765988230895e-38
35.403800 -31.215120 53.195410 0.657199 -0.570111 0.493015 1.6580765988230895e-38
36.092121 -29.834222 52.865049 0.671045 -0.553746 0.493015 1.6580765988230895e-38
36.900438 -29.084941 53.368509 0.684484 -0.537045 0.493015 1.6580765988230895e-38
37.086852 -28.043703 53.482721 0.697508 -0.520018 0.493015 1.6580765988230895e-38
38.222994 -26.944187 53.186905 0.710108 -0.502675 0.493015 1.6580765988230895e-38
18.943907 -41.418203 53.658627 0.361042 -0.772187 0.522853 1.6580765988230895e-38
20.753895 -40.940957 54.268942 0.379958 -0.763058 0.522853 1.6580765988230895e-38
20.674021 -40.593817 54.499842 0.398642 -0.753465 0.522853 1.6580765988230895e-38
22.449600 -40.234516 54.163953 0.417084 -0.743415 0.522853 1.6580765988230895e-38
23.432860 -39.722927 54.675780 0.435274 -0.732913 0.522853 1.6580765988230895e-38
24.390411 -39.410070 54.486000 0.453199 -0.721966 0.522853 1.6580765988230895e-38
25.489085 -37.793969 54.711431 0.470848 -0.710582 0.522853 1.6580765988230895e-38
26.030627 -37.215073 54.017180 0.488212 -0.698765 0.522853 1.6580765988230895e-38
27.228124 -36.757204 54.870598 0.505280 -0.686525 0.522853 1.6580765988230895e-38
28.689259 -35.919158 54.392005 0.522041 -0.673868 0.522853 1.6580765988230895e-38
29.182332 -35.530365 54.220159 0.538485 -0.660802 0.522853 1.6580765988230895e-38
29.841973 -34.332841 54.626838 0.554602 -0.647334 0.522853 1.6580765988230895e-38
31.344564 -34.450267 54.318522 0.570382 -0.633474 0.522853 1.6580765988230895e-38
31.682770 -33.135422 54.397954 0.585816 -0.619229 0.522853 1.6580765988230895e-38
32.610622 -32.332603 54.016613 0.600895 -0.604608 0.522853 1.6580765988230895e-38
33.389132 -31.441099 54.521836 0.615608 -0.589620 0.522853 1.6580765988230895e-38
33.383606 -31.019433 54.564372 0.629948 -0.574274 0.522853 1.6580765988230895e-38
34.427776 -29.815413 54.651867 0.643905 -0.558579 0.522853 1.6580765988230895e-38
35.458667 -29.221928 54.490856 0.657472 -0.542545 0.522853 1.6580765988230895e-38
36.126435 -28.731317 54.303958 0.670639 -0.526182 0.522853 1.6580765988230895e-38
36.836794 -27.021392 54.640603 0.683400 -0.509499 0.522853 1.6580765988230895e-38
37.921795 -26.953099 54.326137 0.695745 -0.492508 0.522853 1.6580765988230895e-38
18.749162 -40.784268 56.229717 0.354248 -0.757656 0.548147 1.6580765988230895e-38
20.122824 -40.103704 55.606588 0.372808 -0.748699 0.548147 1.6580765988230895e-38
21.384330 -39.940431 54.948505 0.391140 -0.739286 0.548147 1.6580765988230895e-38
21.867772 -39.323537 55.994890 0.409236 -0.729425 0.548147 1.6580765988230895e-38
23.001348 -38.798222 55.493923 0.427083 -0.719121 0.548147 1.6580765988230895e-38
24.464790 -37.777351 55.467230 0.444670 -0.708381 0.548147 1.6580765988230895e-38
24.476134 -38.166900 55.851126 0.461988 -0.697210 0.548147 1.6580765988230895e-38
25.891034 -37.233621 55.751656 0.479025 -0.685616 0.548147 1.6580765988230895e-38
26.385086 -36.112485 55.555410 0.495772 -0.673606 0.548147 1.6580765988230895e-38
27.317219 -35.790877 55.549660 0.512217 -0.661187 0.548147 1.6580765988230895e-38
28.621867 -34.639122 56.004343 0.528352 -0.648367 0.548147 1.6580765988230895e-38
29.413622 -34.331987 55.499510 0.544165 -0.635153 0.548147 1.6580765988230895e-38
29.670882 -33.547692 55.414800 0.559649 -0.621553 0.548147 1.6580765988230895e-38
31.384010 -32.847880 55.894229 0.574792 -0.607576 0.548147 1.6580765988230895e-38
31.672143 -32.216139 55.851540 0.589587 -0.593230 0.548147 1.6580765988230895e-38
32.679260 -31.123227 55.641969 0.604024 -0.578524 0.548147 1.6580765988230895e-38
33.592071 -30.213899 55.017057 0.618094 -0.563467 0.548147 1.6580765988230895e-38
34.017052 -29.271891 55.364243 0.631789 -0.548068 0.548147 1.6580765988230895e-38
34.304905 -28.768973 55.826324 0.645100 -0.532336 0.548147 1.6580765988230895e-38
35.371680 -27.473041 56.223190 0.658019 -0.516280 0.548147 1.6580765988230895e-38
35.607944 -27.092794 54.985551 0.670539 -0.499912 0.548147 1.6580765988230895e-38
37.037445 -26.281846 55.527361 0.682652 -0.483240 0.548147 1.6580765988230895e-38
18.614716 -40.477836 57.045694 0.348229 -0.744782 0.569242 1.6580765988230895e-38
19.817583 -39.688182 56.861417 0.366473 -0.735976 0.569242 1.6580765988230895e-38
21.175449 -38.500179 57.283087 0.384494 -0.726724 0.569242 1.6580765988230895e-38
21.759353 -39.126883 57.095363 0.402282 -0.717030 0.569242 1.6580765988230895e-38
22.822853 -37.858531 56.564922 0.419826 -0.706902 0.569242 1.6580765988230895e-38
23.808027 -37.052558 56.612430 0.437114 -0.696344 0.569242 1.6580765988230895e-38
24.675678 -37.172892 56.875936 0.454138 -0.685363 0.569242 1.6580765988230895e-38
25.088091 -36.420477 56.804329 0.470886 -0.673966 0.569242 1.6580765988230895e-38
26.383394 -35.412014 57.272070 0.487347 -0.662160 0.569242 1.6580765988230895e-38
26.935193 -34.913358 56.577767 0.503513 -0.649952 0.569242 1.6580765988230895e-38
27.952177 -34.329433 56.630455 0.519374 -0.637349 0.569242 1.6580765988230895e-38
28.990726 -33.689068 56.953527 0.534919 -0.624360 0.569242 1.6580765988230895e-38
30.010459 -33.050308 57.162276 0.550139 -0.610991 0.569242 1.6580765988230895e-38
30.878086 -31.767200 56.850776 0.565025 -0.597252 0.569242 1.6580765988230895e-38
30.937057 -31.634799 56.431212 0.579569 -0.583150 0.569242 1.6580765988230895e-38
32.199335 -30.418457 56.942436 0.593760 -0.568694 0.569242 1.6580765988230895e-38
32.325940 -29.954927 57.321294 0.607591 -0.553892 0.569242 1.6580765988230895e-38
33.647055 -28.794768 57.899634 0.621053 -0.538755 0.569242 1.6580765988230895e-38
34.267637 -28.843995 56.576887 0.634138 -0.523290 0.569242 1.6580765988230895e-38
34.945197 -27.340376 56.855620 0.646838 -0.507508 0.569242 1.6580765988230895e-38
35.470357 -26.714325 57.019361 0.659145 -0.491417 0.569242 1.6580765988230895e-38
36.576588 -25.076215 57.418412 0.671052 -0.475028 0.569242 1.6580765988230895e-38
17.109253 -39.528525 57.469205 0.324882 -0.741965 0.586464 1.6580765988230895e-38
18.751379 -39.504535 58.645171 0.343064 -0.733735 0.586464 1.6580765988230895e-38
19.723711 -38.970000 58.077215 0.361037 -0.725060 0.586464 1.6580765988230895e-38
20.785651 -38.001131 58.436152 0.378791 -0.715945 0.586464 1.6580765988230895e-38
21.590427 -38.197378 58.205919 0.396315 -0.706395 0.586464 1.6580765988230895e-38
21.942655 -37.670118 58.193496 0.413599 -0.696417 0.586464 1.6580765988230895e-38
22.962752 -36.828386 57.994319 0.430631 -0.686015 0.586464 1.6580765988230895e-38
23.609682 -35.689506 58.191078 0.447402 -0.675197 0.586464 1.6580765988230895e-38
24.437926 -35.542011 58.600747 0.463901 -0.663970 0.586464 1.6580765988230895e-38
26.027663 -35.128666 57.995918 0.480119 -0.652339 0.586464 1.6580765988230895e-38
26.306755 -34.550940 57.946064 0.496045 -0.640312 0.586464 1.6580765988230895e-38
26.991085 -33.795832 58.247523 0.511670 -0.627896 0.586464 1.6580765988230895e-38
28.128402 -32.911370 58.630910 0.526985 -0.615099 0.586464 1.6580765988230895e-38
29.607183 -32.290872 58.408385 0.541979 -0.601929 0.586464 1.6580765988230895e-38
29.792732 -31.691183 57.809282 0.556645 -0.588393 0.586464 1.6580765988230895e-38
30.636835 -30.474682 57.762004 0.570972 -0.574500 0.586464 1.6580765988230895e-38
31.274265 -30.137077 58.218394 0.584953 -0.560259 0.586464 1.6580765988230895e-38
32.169725 -29.093546 58.713425 0.598579 -0.545677 0.586464 1.6580765988230895e-38
32.540767 -28.732834 58.218540 0.611841 -0.530764 0.586464 1.6580765988230895e-38
33.928840 -28.077119 58.243742 0.624732 -0.515529 0.586464 1.6580765988230895e-38
34.103394 -26.548547 58.332787 0.637244 -0.499980 0.586464 1.6580765988230895e-38
34.828383 -25.808731 57.946846 0.649369 -0.484128 0.586464 1.6580765988230895e-38
35.682792 -24.673429 58.174378 0.661099 -0.467983 0.586464 1.6580765988230895e-38
16.812232 -39.223794 58.606960 0.320852 -0.732759 0.600099 1.6580765988230895e-38
17.955495 -38.269285 59.305726 0.338808 -0.724632 0.600099 1.6580765988230895e-38
18.568771 -38.308500 59.282789 0.356558 -0.716064 0.600099 1.6580765988230895e-38
20.112007 -37.631391 59.571916 0.374092 -0.707062 0.600099 1.6580765988230895e-38
20.776294 -37.004287 59.099393 0.391398 -0.697631 0.600099 1.6580765988230895e-38
21.502071 -36.928337 59.561940 0.408467 -0.687776 0.600099 1.6580765988230895e-38
22.514417 -37.084962 59.525790 0.425288 -0.677504 0.600099 1.6580765988230895e-38
23.774242 -35.681407 59.525529 0.441851 -0.666820 0.600099 1.6580765988230895e-38
24.285053 -35.483946 59.967334 0.458146 -0.655732 0.600099 1.6580765988230895e-38
25.138045 -34.177725 59.194066 0.474162 -0.644245 0.600099 1.6580765988230895e-38
25.946394 -33.558415 59.068681 0.489891 -0.632367 0.600099 1.6580765988230895e-38
27.363328 -32.703831 59.536492 0.505322 -0.620106 0.600099 1.6580765988230895e-38
27.616386 -32.511995 59.690470 0.520447 -0.607468 0.600099 1.6580765988230895e-38
28.629119 -31.712212 59.056087 0.535255 -0.594461 0.600099 1.6580765988230895e-38
28.742861 -30.873389 59.306766 0.549739 -0.581093 0.600099 1.6580765988230895e-38
30.323304 -29.855126 59.393112 0.563888 -0.567373 0.600099 1.6580765988230895e-38
30.677072 -29.750935 59.699737 0.577696 -0.553308 0.600099 1.6580765988230895e-38
31.399541 -28.458394 59.734485 0.591153 -0.538907 0.600099 1.6580765988230895e-38
31.942957 -28.105636 60.122055 0.604250 -0.524179 0.600099 1.6580765988230895e-38
32.967564 -27.141211 59.753412 0.616981 -0.509132 0.600099 1.6580765988230895e-38
33.353425 -26.143930 59.210973 0.629338 -0.493777 0.600099 1.6580765988230895e-38
34.077184 -25.491809 59.155879 0.641312 -0.478122 0.600099 1.6580765988230895e-38
34.770815 -24.753754 59.554239 0.652897 -0.462176 0.600099 1.6580765988230895e-38
16.700514 -38.214791 60.305698 0.317714 -0.725594 0.610387 1.6580765988230895e-38
17.912626 -38.057405 60.670376 0.335494 -0.717546 0.610387 1.6580765988230895e-38
18.747873 -37.164508 60.987911 0.353071 -0.709062 0.610387 1.6580765988230895e-38
19.100121 -36.981804 60.480187 0.370433 -0.700148 0.610387 1.6580765988230895e-38
21.327339 -36.102065 60.827062 0.387571 -0.690809 0.610387 1.6580765988230895e-38
21.423176 -35.718626 60.933388 0.404473 -0.681051 0.610387 1.6580765988230895e-38
21.540235 -35.125347 60.747022 0.421129 -0.670879 0.610387 1.6580765988230895e-38
23.267658 -34.999936 60.293930 0.437530 -0.660299 0.610387 1.6580765988230895e-38
23.503197 -33.920290 60.779532 0.453666 -0.649319 0.610387 1.6580765988230895e-38
24.356263 -32.905769 60.704468 0.469525 -0.637945 0.610387 1.6580765988230895e-38
25.495849 -32.925081 60.897705 0.485100 -0.626184 0.610387 1.6580765988230895e-38
26.377363 -31.658627 60.254387 0.500381 -0.614042 0.610387 1.6580765988230895e-38
26.582830 -31.790826 60.784562 0.515357 -0.601527 0.610387 1.6580765988230895e-38
27.687637 -30.511561 60.500489 0.530021 -0.588648 0.610387 1.6580765988230895e-38
28.893315 -30.447403 60.973473 0.544363 -0.575411 0.610387 1.6580765988230895e-38
29.714822 -29.654583 60.765425 0.558374 -0.561824 0.610387 1.6580765988230895e-38
30.101935 -28.599207 61.003888 0.572047 -0.547897 0.610387 1.6580765988230895e-38
31.012901 -27.851601 60.817472 0.585372 -0.533637 0.610387 1.6580765988230895e-38
31.020824 -27.252724 60.288105 0.598341 -0.519053 0.610387 1.6580765988230895e-38
32.057760 -26.123482 60.616441 0.610948 -0.504154 0.610387 1.6580765988230895e-38
31.953669 -25.974577 60.792883 0.623184 -0.488948 0.610387 1.6580765988230895e-38
33.165894 -24.611819 60.256394 0.635041 -0.473446 0.610387 1.6580765988230895e-38
34.044193 -23.888739 60.855527 0.646513 -0.457657 0.610387 1.6580765988230895e-38
27.511835 -30.270329 62.187605 0.526310 -0.584527 0.617516 1.6580765988230895e-38
27.859966 -29.918899 61.756911 0.540552 -0.571383 0.617516 1.6580765988230895e-38
28.408501 -28.689589 61.769937 0.554465 -0.557891 0.617516 1.6580765988230895e-38
29.364597 -27.783926 62.301402 0.568042 -0.544061 0.617516 1.6580765988230895e-38
30.097165 -27.031447 61.802527 0.581274 -0.529901 0.617516 1.6580765988230895e-38
30.205308 -26.963280 61.796957 0.594153 -0.515419 0.617516 1.6580765988230895e-38
31.559213 -25.903532 62.211434 0.606671 -0.500624 0.617516 1.6580765988230895e-38
32.497293 -25.332650 62.493128 0.618821 -0.485525 0.617516 1.6580765988230895e-38
32.065244 -23.716796 61.845613 0.630595 -0.470132 0.617516 1.6580765988230895e-38
33.073918 -23.464396 61.615679 0.641987 -0.454453 0.617516 1.6580765988230895e-38
