# .PCD v0.7 - Point Cloud Data file format
VERSION 0.7
FIELDS x y z normal_x normal_y normal_z rgb
SIZE 4 4 4 4 4 4 4
TYPE F F F F F F F
COUNT 1 1 1 1 1 1 1
WIDTH 248
HEIGHT 1
VIEWPOINT 0 0 0 1 0 0 0
POINTS 248
DATA ascii
-27.753246 -15.434176 74.666311 -0.749100 -0.414228 0.516976 1.6119787838914282e-38
-27.127135 -16.334672 74.165564 -0.738667 -0.432558 0.516976 1.6119787838914282e-38
-26.384962 -14.668795 75.351267 -0.764748 -0.422881 0.486139 1.6119787838914282e-38
-26.353733 -15.326954 75.211299 -0.754097 -0.441594 0.486139 1.6119787838914282e-38
-25.727338 -16.114294 75.370219 -0.742989 -0.460039 0.486139 1.6119787838914282e-38
-25.221215 -17.421957 75.111175 -0.731429 -0.478205 0.486139 1.6119787838914282e-38
-25.084120 -17.227275 75.957954 -0.719425 -0.496080 0.486139 1.6119787838914282e-38
-25.516304 -17.789350 75.090313 -0.706985 -0.513655 0.486139 1.6119787838914282e-38
-26.005348 -13.975814 76.782162 -0.781350 -0.432061 0.450350 1.6119787838914282e-38
-26.081701 -15.072907 76.432319 -0.770468 -0.451181 0.450350 1.6119787838914282e-38
-25.565406 -15.078928 76.640102 -0.759118 -0.470026 0.450350 1.6119787838914282e-38
-25.058052 -16.490656 76.578156 -0.747307 -0.488586 0.450350 1.6119787838914282e-38
-24.591849 -17.438083 76.651175 -0.735043 -0.506850 0.450350 1.6119787838914282e-38
-24.715609 -17.197726 76.997193 -0.722332 -0.524805 0.450350 1.6119787838914282e-38
-24.096324 -18.811353 76.848142 -0.709183 -0.542442 0.450350 1.6119787838914282e-38
-23.421996 -18.163925 77.121551 -0.695604 -0.559750 0.450350 1.6119787838914282e-38
-25.427834 -13.784922 78.216314 -0.809083 -0.421710 0.409324 1.6119787838914282e-38
-25.566549 -14.686604 77.780604 -0.798447 -0.441516 0.409324 1.6119787838914282e-38
-25.401156 -14.766687 78.037355 -0.787327 -0.461053 0.409324 1.6119787838914282e-38
-24.518842 -15.233953 78.135224 -0.775729 -0.480311 0.409324 1.6119787838914282e-38
-24.364640 -15.713571 77.751239 -0.763660 -0.499277 0.409324 1.6119787838914282e-38
-24.724362 -16.903945 77.526054 -0.751127 -0.517940 0.409324 1.6119787838914282e-38
-24.126048 -17.284404 77.772110 -0.738138 -0.536289 0.409324 1.6119787838914282e-38
-23.202918 -17.805149 78.047568 -0.724701 -0.554312 0.409324 1.6119787838914282e-38
-23.328808 -18.730527 77.365152 -0.710825 -0.571998 0.409324 1.6119787838914282e-38
-22.316956 -18.450410 77.991785 -0.696516 -0.589338 0.409324 1.6119787838914282e-38
-21.931455 -19.734790 77.873175 -0.681785 -0.606319 0.409324 1.6119787838914282e-38
-25.328647 -13.384957 79.172198 -0.826327 -0.430698 0.362882 1.6119787838914282e-38
-25.712909 -14.170852 79.335101 -0.815465 -0.450926 0.362882 1.6119787838914282e-38
-25.264224 -14.845714 79.022824 -0.804108 -0.470880 0.362882 1.6119787838914282e-38
-25.625948 -15.135523 79.366348 -0.792262 -0.490548 0.362882 1.6119787838914282e-38
-24.111591 -15.552705 79.042049 -0.779936 -0.509918 0.362882 1.6119787838914282e-38
-23.280112 -16.680928 79.107915 -0.767136 -0.528979 0.362882 1.6119787838914282e-38
-23.508472 -16.953566 79.103386 -0.753871 -0.547719 0.362882 1.6119787838914282e-38
-23.016209 -17.784632 79.043710 -0.740147 -0.566126 0.362882 1.6119787838914282e-38
-23.215481 -17.901323 78.868663 -0.725975 -0.584190 0.362882 1.6119787838914282e-38
-22.238578 -19.009930 79.346162 -0.711361 -0.601899 0.362882 1.6119787838914282e-38
-21.787163 -19.963572 79.259484 -0.696316 -0.619242 0.362882 1.6119787838914282e-38
-21.367967 -19.764542 79.424913 -0.680848 -0.636209 0.362882 1.6119787838914282e-38
-20.946868 -20.287726 78.943759 -0.664967 -0.652791 0.362882 1.6119787838914282e-38
-25.132889 -13.897927 80.524353 -0.842795 -0.439281 0.311014 1.6119787838914282e-38
-25.262654 -13.906872 80.436031 -0.831716 -0.459912 0.311014 1.6119787838914282e-38
-25.087075 -13.455360 80.230777 -0.820132 -0.480264 0.311014 1.6119787838914282e-38
-24.044518 -14.552688 80.500329 -0.808051 -0.500324 0.311014 1.6119787838914282e-38
-24.218009 -15.562006 79.861079 -0.795479 -0.520080 0.311014 1.6119787838914282e-38
-23.557582 -15.672611 79.989011 -0.782424 -0.539521 0.311014 1.6119787838914282e-38
-23.299889 -16.192640 80.360100 -0.768894 -0.558634 0.311014 1.6119787838914282e-38
-22.901105 -17.194834 80.271732 -0.754897 -0.577408 0.311014 1.6119787838914282e-38
-23.014402 -18.272097 81.029469 -0.740442 -0.595832 0.311014 1.6119787838914282e-38
-21.654305 -17.966373 80.103612 -0.725538 -0.613894 0.311014 1.6119787838914282e-38
-21.309193 -18.986494 80.248183 -0.710193 -0.631583 0.311014 1.6119787838914282e-38
-20.756618 -19.789104 80.775217 -0.694417 -0.648888 0.311014 1.6119787838914282e-38
-20.193879 -20.013944 80.452354 -0.678219 -0.665800 0.311014 1.6119787838914282e-38
-19.926784 -20.973693 80.115168 -0.661609 -0.682307 0.311014 1.6119787838914282e-38
-24.621396 -12.734455 81.890453 -0.857704 -0.447052 0.253947 1.6119787838914282e-38
-24.813986 -13.945499 81.564801 -0.846429 -0.468048 0.253947 1.6119787838914282e-38
-24.131500 -14.600258 81.824341 -0.834641 -0.488760 0.253947 1.6119787838914282e-38
-23.803903 -14.862853 81.667941 -0.822346 -0.509175 0.253947 1.6119787838914282e-38
-23.524612 -15.260567 81.873410 -0.809551 -0.529281 0.253947 1.6119787838914282e-38
-22.296322 -15.917723 81.456252 -0.796265 -0.549065 0.253947 1.6119787838914282e-38
-23.329157 -16.956536 81.422274 -0.782496 -0.568517 0.253947 1.6119787838914282e-38
-22.136202 -17.208272 81.771503 -0.768252 -0.587623 0.253947 1.6119787838914282e-38
-22.134818 -17.498465 81.911209 -0.753541 -0.606372 0.253947 1.6119787838914282e-38
-21.594729 -18.039185 81.517363 -0.738373 -0.624753 0.253947 1.6119787838914282e-38
-21.389455 -18.527122 81.773309 -0.722756 -0.642755 0.253947 1.6119787838914282e-38
-20.374922 -18.918773 81.574842 -0.706701 -0.660367 0.253947 1.6119787838914282e-38
-20.126092 -19.791440 81.753071 -0.690217 -0.677578 0.253947 1.6119787838914282e-38
-19.623574 -20.156780 81.433291 -0.673313 -0.694378 0.253947 1.6119787838914282e-38
-19.386742 -20.943492 81.774462 -0.656001 -0.710755 0.253947 1.6119787838914282e-38
-18.576253 -21.282705 81.848486 -0.638291 -0.726702 0.253947 1.6119787838914282e-38
-24.926120 -12.630439 82.837188 -0.870240 -0.453586 0.192202 1.6119787838914282e-38
-24.222093 -13.455876 83.349278 -0.858801 -0.474889 0.192202 1.6119787838914282e-38
-23.866109 -13.948925 82.997983 -0.846840 -0.495904 0.192202 1.6119787838914282e-38
-23.049816 -14.672185 82.935770 -0.834365 -0.516617 0.192202 1.6119787838914282e-38
-23.275224 -15.827584 82.914502 -0.821384 -0.537017 0.192202 1.6119787838914282e-38
-22.619287 -15.652944 83.339918 -0.807904 -0.557091 0.192202 1.6119787838914282e-38
-22.292089 -16.216762 83.153251 -0.793933 -0.576826 0.192202 1.6119787838914282e-38
-22.008241 -17.001620 82.848040 -0.779481 -0.596212 0.192202 1.6119787838914282e-38
-22.409064 -16.978700 82.827115 -0.764555 -0.615235 0.192202 1.6119787838914282e-38
-21.570503 -18.096305 83.413743 -0.749165 -0.633885 0.192202 1.6119787838914282e-38
-20.786320 -18.427590 83.512456 -0.733320 -0.652150 0.192202 1.6119787838914282e-38
-20.095020 -19.098169 82.376648 -0.717030 -0.670019 0.192202 1.6119787838914282e-38
-19.679369 -19.710677 83.084573 -0.700305 -0.687482 0.192202 1.6119787838914282e-38
-19.398898 -19.868230 83.155353 -0.683155 -0.704527 0.192202 1.6119787838914282e-38
-19.404803 -20.423758 82.881141 -0.665590 -0.721144 0.192202 1.6119787838914282e-38
-18.289775 -20.770150 82.932198 -0.647620 -0.737324 0.192202 1.6119787838914282e-38
-18.049479 -21.706679 82.410286 -0.629258 -0.753055 0.192202 1.6119787838914282e-38
-17.287351 -21.643262 82.783993 -0.610514 -0.768330 0.192202 1.6119787838914282e-38
-24.991176 -11.600370 83.884835 -0.890664 -0.436672 0.126626 1.6119787838914282e-38
-24.045677 -12.253889 83.976862 -0.879636 -0.458483 0.126626 1.6119787838914282e-38
-24.250229 -13.472238 84.579605 -0.868073 -0.480016 0.126626 1.6119787838914282e-38
-23.802366 -13.810198 84.080655 -0.855983 -0.501258 0.126626 1.6119787838914282e-38
-23.363133 -14.392385 83.944674 -0.843373 -0.522195 0.126626 1.6119787838914282e-38
-22.607327 -15.189326 84.432710 -0.830252 -0.542815 0.126626 1.6119787838914282e-38
-23.137854 -15.488508 84.443172 -0.816626 -0.563105 0.126626 1.6119787838914282e-38
-22.285994 -15.926909 83.911527 -0.802505 -0.583054 0.126626 1.6119787838914282e-38
-21.816866 -17.252000 84.168281 -0.787896 -0.602649 0.126626 1.6119787838914282e-38
-21.776023 -17.352315 84.537484 -0.772809 -0.621877 0.126626 1.6119787838914282e-38
-20.583256 -18.241790 84.497294 -0.757253 -0.640729 0.126626 1.6119787838914282e-38
-20.238511 -18.274218 84.531096 -0.741238 -0.659191 0.126626 1.6119787838914282e-38
-20.323840 -19.029178 83.970834 -0.724772 -0.677253 0.126626 1.6119787838914282e-38
-19.514000 -19.396112 83.908966 -0.707866 -0.694904 0.126626 1.6119787838914282e-38
-19.445413 -19.846744 83.868952 -0.690530 -0.712133 0.126626 1.6119787838914282e-38
-18.549708 -19.956707 84.415866 -0.672776 -0.728930 0.126626 1.6119787838914282e-38
-17.370682 -20.647775 84.632279 -0.654612 -0.745284 0.126626 1.6119787838914282e-38
-17.671588 -21.297731 84.159449 -0.636052 -0.761186 0.126626 1.6119787838914282e-38
-17.148771 -21.681591 83.798957 -0.617105 -0.776625 0.126626 1.6119787838914282e-38
-16.954029 -21.721714 84.373950 -0.597784 -0.791594 0.126626 1.6119787838914282e-38
-24.736093 -12.118624 86.269525 -0.885261 -0.461416 0.058377 1.6119787838914282e-38
-23.491920 -13.784311 84.947743 -0.873625 -0.483086 0.058377 1.6119787838914282e-38
-24.076311 -13.679559 85.993184 -0.861457 -0.504463 0.058377 1.6119787838914282e-38
-23.135377 -14.435898 85.083484 -0.848767 -0.525534 0.058377 1.6119787838914282e-38
-23.128340 -15.038581 85.625626 -0.835562 -0.546286 0.058377 1.6119787838914282e-38
-22.814200 -15.507954 85.443350 -0.821849 -0.566707 0.058377 1.6119787838914282e-38
-22.242458 -16.300598 85.397113 -0.807637 -0.586783 0.058377 1.6119787838914282e-38
-21.895885 -16.960342 85.626180 -0.792935 -0.606503 0.058377 1.6119787838914282e-38
-20.975996 -17.208428 85.347026 -0.777752 -0.625855 0.058377 1.6119787838914282e-38
-20.789029 -17.727070 85.702929 -0.762096 -0.644826 0.058377 1.6119787838914282e-38
-20.540256 -18.119206 85.880868 -0.745978 -0.663407 0.058377 1.6119787838914282e-38
-19.734863 -18.843397 85.685250 -0.729407 -0.681584 0.058377 1.6119787838914282e-38
-19.966314 -19.346514 85.610896 -0.712393 -0.699348 0.058377 1.6119787838914282e-38
-18.705909 -19.989830 85.352630 -0.694947 -0.716688 0.058377 1.6119787838914282e-38
-18.671170 -20.258232 84.995968 -0.677078 -0.733592 0.058377 1.6119787838914282e-38
-18.017765 -21.067148 85.702161 -0.658799 -0.750051 0.058377 1.6119787838914282e-38
-17.247918 -21.317350 84.980097 -0.640120 -0.766054 0.058377 1.6119787838914282e-38
-17.136673 -21.710286 85.297920 -0.621052 -0.781592 0.058377 1.6119787838914282e-38
-16.563302 -22.248808 85.858540 -0.601607 -0.796656 0.058377 1.6119787838914282e-38
-16.236809 -22.091190 85.093867 -0.581797 -0.811237 0.058377 1.6119787838914282e-38
-15.469993 -22.625228 85.401515 -0.561633 -0.825324 0.058377 1.6119787838914282e-38
-24.372096 -13.596022 86.456055 -0.874779 -0.483724 0.027806 1.6119787838914282e-38
-23.510871 -13.623399 86.237250 -0.862595 -0.505130 0.027806 1.6119787838914282e-38
-23.618665 -14.795099 86.512304 -0.849888 -0.526229 0.027806 1.6119787838914282e-38
-22.726299 -14.995604 86.762980 -0.836665 -0.547008 0.027806 1.6119787838914282e-38
-22.413124 -15.785522 86.213654 -0.822935 -0.567455 0.027806 1.6119787838914282e-38
-22.421951 -15.916067 86.778799 -0.808704 -0.587558 0.027806 1.6119787838914282e-38
-21.817053 -16.420984 86.641631 -0.793983 -0.607304 0.027806 1.6119787838914282e-38
-21.522125 -17.709319 86.979331 -0.778779 -0.626681 0.027806 1.6119787838914282e-38
-21.020171 -17.896664 86.567137 -0.763103 -0.645678 0.027806 1.6119787838914282e-38
-20.097763 -17.975231 86.489937 -0.746964 -0.664283 0.027806 1.6119787838914282e-38
-19.950023 -18.405587 86.702166 -0.730371 -0.682485 0.027806 1.6119787838914282e-38
-19.586097 -19.890094 86.971666 -0.713334 -0.700272 0.027806 1.6119787838914282e-38
-19.450262 -20.301816 86.056648 -0.695865 -0.717634 0.027806 1.6119787838914282e-38
-18.906131 -20.060424 86.946128 -0.677973 -0.734561 0.027806 1.6119787838914282e-38
-18.043611 -20.138904 86.476995 -0.659669 -0.751041 0.027806 1.6119787838914282e-38
-17.701222 -21.660389 86.425197 -0.640965 -0.767066 0.027806 1.6119787838914282e-38
-17.718998 -21.930871 86.786975 -0.621872 -0.782625 0.027806 1.6119787838914282e-38
-17.076916 -22.419734 86.070596 -0.602402 -0.797709 0.027806 1.6119787838914282e-38
-15.792226 -21.853207 86.575518 -0.582565 -0.812308 0.027806 1.6119787838914282e-38
-15.186886 -23.082133 86.966906 -0.562375 -0.826415 0.027806 1.6119787838914282e-38
-15.119680 -22.906875 86.589771 -0.541844 -0.840019 0.027806 1.6119787838914282e-38
-23.546993 -13.700799 88.389515 -0.846194 -0.495525 0.195984 1.6119787838914282e-38
-23.370662 -14.350429 87.843791 -0.833729 -0.516223 0.195984 1.6119787838914282e-38
-22.625593 -14.458239 87.658575 -0.820757 -0.536607 0.195984 1.6119787838914282e-38
-22.384916 -15.476407 87.417233 -0.807288 -0.556666 0.195984 1.6119787838914282e-38
-21.840367 -15.610392 88.080964 -0.793328 -0.576386 0.195984 1.6119787838914282e-38
-21.918170 -17.026817 88.027380 -0.778886 -0.595757 0.195984 1.6119787838914282e-38
-21.636305 -17.444026 87.897851 -0.763972 -0.614766 0.195984 1.6119787838914282e-38
-20.662721 -17.770809 87.773055 -0.748594 -0.633402 0.195984 1.6119787838914282e-38
-20.475362 -18.453934 87.721016 -0.732761 -0.651653 0.195984 1.6119787838914282e-38
-20.472942 -18.456597 88.671527 -0.716484 -0.669508 0.195984 1.6119787838914282e-38
-19.503447 -18.806690 87.756558 -0.699771 -0.686957 0.195984 1.6119787838914282e-38
-19.447327 -18.963793 87.581355 -0.682634 -0.703990 0.195984 1.6119787838914282e-38
-18.269632 -20.037552 88.191204 -0.665082 -0.720594 0.195984 1.6119787838914282e-38
-18.072975 -20.902538 87.635642 -0.647127 -0.736761 0.195984 1.6119787838914282e-38
-16.835319 -20.896018 88.488275 -0.628778 -0.752481 0.195984 1.6119787838914282e-38
-17.128746 -21.203569 87.449878 -0.610048 -0.767744 0.195984 1.6119787838914282e-38
-16.476700 -21.163576 87.599907 -0.590948 -0.782541 0.195984 1.6119787838914282e-38
-16.149893 -21.981765 87.869435 -0.571489 -0.796863 0.195984 1.6119787838914282e-38
-14.821411 -22.688366 87.855689 -0.551682 -0.810701 0.195984 1.6119787838914282e-38
-22.395534 -14.135175 88.956581 -0.799001 -0.494721 0.341830 1.6119787838914282e-38
-22.471252 -14.433626 89.405768 -0.786570 -0.514256 0.341830 1.6119787838914282e-38
-22.558696 -15.006598 89.278966 -0.773662 -0.533479 0.341830 1.6119787838914282e-38
-21.952049 -16.121129 89.501191 -0.760283 -0.552378 0.341830 1.6119787838914282e-38
-20.992036 -15.936337 88.679789 -0.746443 -0.570942 0.341830 1.6119787838914282e-38
-21.102827 -16.913690 89.522909 -0.732150 -0.589159 0.341830 1.6119787838914282e-38
-20.374148 -17.511162 89.120763 -0.717412 -0.607018 0.341830 1.6119787838914282e-38
-19.966252 -17.722345 89.576320 -0.702239 -0.624509 0.341830 1.6119787838914282e-38
-19.295148 -18.064276 88.842904 -0.686640 -0.641621 0.341830 1.6119787838914282e-38
-19.482705 -19.216172 89.199112 -0.670623 -0.658344 0.341830 1.6119787838914282e-38
-18.940746 -19.209309 89.294177 -0.654200 -0.674666 0.341830 1.6119787838914282e-38
-18.242564 -19.573194 88.887456 -0.637379 -0.690579 0.341830 1.6119787838914282e-38
-18.256436 -20.493327 89.332535 -0.620172 -0.706073 0.341830 1.6119787838914282e-38
-16.755468 -20.270304 89.022053 -0.602588 -0.721138 0.341830 1.6119787838914282e-38
-16.502544 -21.549542 89.547480 -0.584638 -0.735765 0.341830 1.6119787838914282e-38
-16.105800 -21.302303 88.510652 -0.566333 -0.749946 0.341830 1.6119787838914282e-38
-15.587460 -21.379353 89.174431 -0.547684 -0.763671 0.341830 1.6119787838914282e-38
-22.174406 -14.665807 89.886191 -0.744783 -0.486936 0.456281 1.6119787838914282e-38
-21.571231 -14.871252 90.589355 -0.732560 -0.505137 0.456281 1.6119787838914282e-38
-21.933945 -15.158391 90.271593 -0.719892 -0.523032 0.456281 1.6119787838914282e-38
-20.785363 -16.867420 90.432341 -0.706788 -0.540610 0.456281 1.6119787838914282e-38
-20.638151 -16.655912 90.279794 -0.693254 -0.557859 0.456281 1.6119787838914282e-38
-20.379943 -17.516289 89.929974 -0.679299 -0.574770 0.456281 1.6119787838914282e-38
-19.765816 -17.191697 90.641336 -0.664932 -0.591332 0.456281 1.6119787838914282e-38
-19.265508 -18.213574 90.928197 -0.650161 -0.607534 0.456281 1.6119787838914282e-38
-18.679345 -18.359438 89.909539 -0.634996 -0.623368 0.456281 1.6119787838914282e-38
-18.344497 -19.368799 90.933773 -0.619445 -0.638824 0.456281 1.6119787838914282e-38
-18.199813 -19.627566 90.114497 -0.603518 -0.653891 0.456281 1.6119787838914282e-38
-17.574030 -19.680688 90.310187 -0.587224 -0.668562 0.456281 1.6119787838914282e-38
-16.955143 -20.090285 89.854068 -0.570575 -0.682827 0.456281 1.6119787838914282e-38
-16.237960 -20.677503 90.098444 -0.553578 -0.696677 0.456281 1.6119787838914282e-38
-15.907439 -21.083209 89.522113 -0.536246 -0.710104 0.456281 1.6119787838914282e-38
-21.127580 -14.453701 91.478031 -0.693132 -0.477950 0.539567 1.6119787838914282e-38
-20.663973 -14.948018 91.448487 -0.681146 -0.494882 0.539567 1.6119787838914282e-38
-20.474332 -15.694505 91.178287 -0.668747 -0.511513 0.539567 1.6119787838914282e-38
-20.203992 -15.912625 91.800243 -0.655941 -0.527834 0.539567 1.6119787838914282e-38
-19.552929 -16.934069 91.840016 -0.642738 -0.543835 0.539567 1.6119787838914282e-38
-18.683204 -16.931273 91.545559 -0.629144 -0.559505 0.539567 1.6119787838914282e-38
-19.070614 -17.582275 91.397936 -0.615168 -0.574836 0.539567 1.6119787838914282e-38
-18.432372 -17.649460 91.811331 -0.600819 -0.589817 0.539567 1.6119787838914282e-38
-18.025584 -18.457045 91.544937 -0.586105 -0.604441 0.539567 1.6119787838914282e-38
-17.591875 -19.322406 91.794800 -0.571035 -0.618697 0.539567 1.6119787838914282e-38
-16.635882 -19.526059 91.350457 -0.555619 -0.632579 0.539567 1.6119787838914282e-38
-16.236379 -19.956343 91.130389 -0.539865 -0.646076 0.539567 1.6119787838914282e-38
-16.150158 -19.750497 91.389375 -0.523783 -0.659180 0.539567 1.6119787838914282e-38
-20.012756 -13.826587 92.742466 -0.649458 -0.471859 0.596283 1.6119787838914282e-38
-19.031956 -15.371066 92.645419 -0.637635 -0.487716 0.596283 1.6119787838914282e-38
-19.491969 -15.549960 92.737268 -0.625426 -0.503278 0.596283 1.6119787838914282e-38
-18.769703 -16.899691 92.489549 -0.612836 -0.518534 0.596283 1.6119787838914282e-38
-18.028728 -16.960869 92.676517 -0.599875 -0.533476 0.596283 1.6119787838914282e-38
-18.000206 -17.005394 92.528545 -0.586549 -0.548093 0.596283 1.6119787838914282e-38
-17.626270 -17.183846 92.604415 -0.572868 -0.562378 0.596283 1.6119787838914282e-38
-17.202648 -17.608626 93.107644 -0.558838 -0.576321 0.596283 1.6119787838914282e-38
-16.768395 -17.775438 92.797702 -0.544470 -0.589914 0.596283 1.6119787838914282e-38
-16.718623 -18.764138 93.147124 -0.529770 -0.603150 0.596283 1.6119787838914282e-38
-16.226075 -19.770131 92.921427 -0.514749 -0.616019 0.596283 1.6119787838914282e-38
-18.679051 -14.504575 94.604000 -0.615896 -0.471089 0.631464 1.6119787838914282e-38
-18.261698 -14.160858 94.078888 -0.604103 -0.486120 0.631464 1.6119787838914282e-38
-18.985527 -15.429545 93.906725 -0.591943 -0.500856 0.631464 1.6119787838914282e-38
-17.823037 -15.361402 93.858065 -0.579423 -0.515288 0.631464 1.6119787838914282e-38
-17.727267 -16.525934 94.666860 -0.566552 -0.529407 0.631464 1.6119787838914282e-38
-17.208337 -16.679698 94.574559 -0.553337 -0.543205 0.631464 1.6119787838914282e-38
-16.452981 -17.849363 93.875665 -0.539786 -0.556672 0.631464 1.6119787838914282e-38
-16.419755 -18.100884 93.877732 -0.525907 -0.569802 0.631464 1.6119787838914282e-38
-16.602557 -17.874931 94.022851 -0.511709 -0.582586 0.631464 1.6119787838914282e-38
-17.522736 -14.545850 95.694995 -0.592821 -0.477042 0.648841 1.6119787838914282e-38
-17.361194 -14.355771 95.582200 -0.580888 -0.491502 0.648841 1.6119787838914282e-38
-17.007350 -15.282126 95.966964 -0.568603 -0.505665 0.648841 1.6119787838914282e-38
-17.255737 -15.677472 94.836109 -0.555972 -0.519520 0.648841 1.6119787838914282e-38
-16.296630 -15.925658 95.064853 -0.543003 -0.533060 0.648841 1.6119787838914282e-38
-16.102081 -16.826361 95.393306 -0.529705 -0.546277 0.648841 1.6119787838914282e-38
-15.662031 -16.690985 95.100601 -0.516086 -0.559161 0.648841 1.6119787838914282e-38
-16.393745 -13.959796 95.853838 -0.579881 -0.490650 0.650385 1.6119787838914282e-38
-16.675418 -14.308744 96.223366 -0.567617 -0.504788 0.650385 1.6119787838914282e-38
-15.991258 -14.628148 96.535538 -0.555008 -0.518619 0.650385 1.6119787838914282e-38
-15.455178 -14.873230 96.940939 -0.542062 -0.532136 0.650385 1.6119787838914282e-38
-15.210281 -15.286513 96.206595 -0.528787 -0.545329 0.650385 1.6119787838914282e-38
-15.189450 -14.501542 97.825252 -0.563671 -0.526715 0.636275 1.6119787838914282e-38
-14.616383 -15.234805 97.515260 -0.550523 -0.540443 0.636275 1.6119787838914282e-38
