# .PCD v0.7 - Point Cloud Data file format
VERSION 0.7
FIELDS x y z normal_x normal_y normal_z rgb
SIZE 4 4 4 4 4 4 4
TYPE F F F F F F F
COUNT 1 1 1 1 1 1 1
WIDTH 225
HEIGHT 1
VIEWPOINT 0 0 0 1 0 0 0
POINTS 225
DATA ascii
-26.281172 -36.562488 32.752042 -0.438515 -0.611450 -0.658660 1.7041734328458258e-38
-25.313797 -37.105377 32.662967 -0.423318 -0.622068 -0.658660 1.7041734328458258e-38
-24.163482 -37.877494 31.780286 -0.407863 -0.632309 -0.658660 1.7041734328458258e-38
-23.658238 -38.646406 32.135006 -0.392161 -0.642166 -0.658660 1.7041734328458258e-38
-27.639523 -37.319573 33.139567 -0.472751 -0.626023 -0.620162 1.7041734328458258e-38
-27.148690 -37.475355 32.771270 -0.457184 -0.637481 -0.620162 1.7041734328458258e-38
-26.077036 -38.097279 33.669319 -0.441339 -0.648551 -0.620162 1.7041734328458258e-38
-24.949492 -38.689785 32.577907 -0.425227 -0.659228 -0.620162 1.7041734328458258e-38
-23.709308 -39.517652 33.802457 -0.408856 -0.669504 -0.620162 1.7041734328458258e-38
-23.562339 -40.726958 33.937975 -0.392237 -0.679374 -0.620162 1.7041734328458258e-38
-30.163585 -36.497138 34.606194 -0.526320 -0.629866 -0.571188 1.7041734328458258e-38
-29.339947 -37.310427 34.486087 -0.510642 -0.642642 -0.571188 1.7041734328458258e-38
-28.386144 -37.942961 34.931191 -0.494654 -0.655028 -0.571188 1.7041734328458258e-38
-27.885323 -38.766636 35.210992 -0.478366 -0.667016 -0.571188 1.7041734328458258e-38
-27.092372 -39.145851 35.194620 -0.461787 -0.678599 -0.571188 1.7041734328458258e-38
-25.669541 -39.378101 34.834918 -0.444928 -0.689770 -0.571188 1.7041734328458258e-38
-24.675204 -40.441471 34.003380 -0.427798 -0.700523 -0.571188 1.7041734328458258e-38
-23.765879 -40.928228 34.708674 -0.410409 -0.710850 -0.571188 1.7041734328458258e-38
-31.806486 -37.059586 36.144693 -0.567741 -0.646380 -0.509767 1.7041734328458258e-38
-31.004505 -37.021623 35.977066 -0.551644 -0.660172 -0.509767 1.7041734328458258e-38
-30.374727 -37.666233 36.036638 -0.535212 -0.673563 -0.509767 1.7041734328458258e-38
-28.900453 -38.594693 36.173868 -0.518454 -0.686544 -0.509767 1.7041734328458258e-38
-28.353667 -39.305734 35.835488 -0.501382 -0.699109 -0.509767 1.7041734328458258e-38
-26.993492 -39.894756 36.244865 -0.484006 -0.711250 -0.509767 1.7041734328458258e-38
-26.004820 -40.429850 35.954330 -0.466335 -0.722959 -0.509767 1.7041734328458258e-38
-24.868966 -41.010910 35.333434 -0.448382 -0.734229 -0.509767 1.7041734328458258e-38
-23.742185 -41.652894 36.081745 -0.430156 -0.745053 -0.509767 1.7041734328458258e-38
-23.156409 -42.817157 35.192616 -0.411670 -0.755424 -0.509767 1.7041734328458258e-38
-33.551523 -35.911706 37.668728 -0.611012 -0.662011 -0.434059 1.7041734328458258e-38
-32.105693 -36.396466 36.840419 -0.594516 -0.676863 -0.434059 1.7041734328458258e-38
-31.354338 -37.388671 36.895810 -0.577659 -0.691305 -0.434059 1.7041734328458258e-38
-30.241165 -38.024834 37.276256 -0.560452 -0.705327 -0.434059 1.7041734328458258e-38
-29.455893 -38.618612 37.036117 -0.542904 -0.718921 -0.434059 1.7041734328458258e-38
-28.546759 -39.226203 36.781312 -0.525027 -0.732079 -0.434059 1.7041734328458258e-38
-27.967282 -40.607713 37.229575 -0.506831 -0.744792 -0.434059 1.7041734328458258e-38
-26.068923 -41.209732 37.657853 -0.488328 -0.757053 -0.434059 1.7041734328458258e-38
-25.427391 -41.685545 36.858421 -0.469527 -0.768854 -0.434059 1.7041734328458258e-38
-23.816251 -42.309997 36.713806 -0.450442 -0.780189 -0.434059 1.7041734328458258e-38
-22.615650 -42.735174 37.353051 -0.431084 -0.791050 -0.434059 1.7041734328458258e-38
-21.785598 -43.231286 37.405869 -0.411463 -0.801431 -0.434059 1.7041734328458258e-38
-35.096819 -34.245096 38.318232 -0.670333 -0.658058 -0.342947 1.7041734328458258e-38
-35.010379 -35.068636 38.470595 -0.653917 -0.674374 -0.342947 1.7041734328458258e-38
-33.465713 -36.842336 38.261023 -0.637103 -0.690280 -0.342947 1.7041734328458258e-38
-32.815214 -37.426370 38.309581 -0.619903 -0.705767 -0.342947 1.7041734328458258e-38
-31.790379 -37.993278 38.572403 -0.602327 -0.720826 -0.342947 1.7041734328458258e-38
-30.610733 -38.768686 38.163801 -0.584385 -0.735447 -0.342947 1.7041734328458258e-38
-29.863048 -39.438601 38.525731 -0.566088 -0.749621 -0.342947 1.7041734328458258e-38
-29.060497 -39.647274 38.525947 -0.547447 -0.763341 -0.342947 1.7041734328458258e-38
-28.572794 -40.755304 38.662736 -0.528474 -0.776597 -0.342947 1.7041734328458258e-38
-26.621643 -41.575956 38.332188 -0.509180 -0.789381 -0.342947 1.7041734328458258e-38
-25.655364 -41.867557 37.925987 -0.489577 -0.801686 -0.342947 1.7041734328458258e-38
-24.845364 -42.227482 38.360400 -0.469677 -0.813505 -0.342947 1.7041734328458258e-38
-23.145512 -42.418065 38.202905 -0.449492 -0.824830 -0.342947 1.7041734328458258e-38
-22.888762 -43.961794 38.680213 -0.429034 -0.835654 -0.342947 1.7041734328458258e-38
-21.069927 -43.742292 38.339474 -0.408315 -0.845970 -0.342947 1.7041734328458258e-38
-36.164428 -34.161507 39.201609 -0.709859 -0.663318 -0.236874 1.7041734328458258e-38
-35.803046 -34.991642 39.443539 -0.693301 -0.680606 -0.236874 1.7041734328458258e-38
-34.525727 -35.732118 39.698722 -0.676322 -0.697480 -0.236874 1.7041734328458258e-38
-33.576322 -36.303134 39.015281 -0.658933 -0.713932 -0.236874 1.7041734328458258e-38
-33.139550 -37.178296 39.651053 -0.641143 -0.729949 -0.236874 1.7041734328458258e-38
-31.578267 -38.604774 39.445082 -0.622965 -0.745524 -0.236874 1.7041734328458258e-38
-31.010875 -38.865251 39.598392 -0.604408 -0.760646 -0.236874 1.7041734328458258e-38
-29.813080 -39.699642 39.999330 -0.585484 -0.775306 -0.236874 1.7041734328458258e-38
-28.460097 -40.726559 39.601162 -0.566205 -0.789495 -0.236874 1.7041734328458258e-38
-27.724133 -40.917016 39.465276 -0.546582 -0.803206 -0.236874 1.7041734328458258e-38
-26.866166 -42.244128 39.581886 -0.526627 -0.816428 -0.236874 1.7041734328458258e-38
-26.343455 -42.267816 39.252841 -0.506352 -0.829155 -0.236874 1.7041734328458258e-38
-24.803464 -42.949816 39.610388 -0.485770 -0.841379 -0.236874 1.7041734328458258e-38
-23.973883 -43.707918 39.941950 -0.464893 -0.853091 -0.236874 1.7041734328458258e-38
-22.829163 -44.211115 39.420592 -0.443734 -0.864286 -0.236874 1.7041734328458258e-38
-21.299354 -44.740086 39.358437 -0.422306 -0.874956 -0.236874 1.7041734328458258e-38
-37.389677 -33.162979 41.215697 -0.741973 -0.659845 -0.118656 1.7041734328458258e-38
-36.634594 -33.942085 40.381569 -0.725491 -0.677926 -0.118656 1.7041734328458258e-38
-35.305924 -34.957416 40.740575 -0.708569 -0.695594 -0.118656 1.7041734328458258e-38
-34.118272 -35.524164 40.512790 -0.691216 -0.712840 -0.118656 1.7041734328458258e-38
-33.896902 -35.869702 41.418387 -0.673444 -0.729654 -0.118656 1.7041734328458258e-38
-32.672953 -38.067899 41.224387 -0.655262 -0.746024 -0.118656 1.7041734328458258e-38
-32.206152 -37.917142 40.607942 -0.636683 -0.761942 -0.118656 1.7041734328458258e-38
-30.915265 -39.283435 40.715758 -0.617718 -0.777397 -0.118656 1.7041734328458258e-38
-29.902715 -40.240440 41.536468 -0.598377 -0.792380 -0.118656 1.7041734328458258e-38
-29.406733 -40.898946 41.012282 -0.578673 -0.806882 -0.118656 1.7041734328458258e-38
-27.702512 -41.375710 40.503302 -0.558618 -0.820894 -0.118656 1.7041734328458258e-38
-27.341282 -42.267143 40.917196 -0.538224 -0.834407 -0.118656 1.7041734328458258e-38
-26.043607 -42.484453 40.934203 -0.517503 -0.847415 -0.118656 1.7041734328458258e-38
-24.717562 -43.363382 40.603281 -0.496468 -0.859907 -0.118656 1.7041734328458258e-38
-23.845057 -43.858841 40.900628 -0.475131 -0.871878 -0.118656 1.7041734328458258e-38
-23.018043 -44.225007 40.471230 -0.453506 -0.883319 -0.118656 1.7041734328458258e-38
-21.835384 -44.627322 40.485348 -0.431606 -0.894224 -0.118656 1.7041734328458258e-38
-20.273759 -45.909828 40.349175 -0.409443 -0.904587 -0.118656 1.7041734328458258e-38
-39.187719 -31.409165 42.893130 -0.779076 -0.626920 0.003484 1.7041734328458258e-38
-37.912915 -32.143123 42.329963 -0.763394 -0.645924 0.003484 1.7041734328458258e-38
-37.763249 -33.420985 41.758166 -0.747248 -0.664536 0.003484 1.7041734328458258e-38
-36.406995 -34.248059 42.090472 -0.730649 -0.682745 0.003484 1.7041734328458258e-38
-35.773736 -35.514998 42.327349 -0.713606 -0.700539 0.003484 1.7041734328458258e-38
-35.335281 -36.113813 41.667214 -0.696130 -0.717908 0.003484 1.7041734328458258e-38
-34.175605 -36.681612 42.432363 -0.678231 -0.734841 0.003484 1.7041734328458258e-38
-33.464454 -37.733676 41.537142 -0.659921 -0.751327 0.003484 1.7041734328458258e-38
-32.242220 -38.346484 42.291979 -0.641209 -0.767358 0.003484 1.7041734328458258e-38
-31.741142 -38.981131 41.770064 -0.622109 -0.782923 0.003484 1.7041734328458258e-38
-30.496524 -39.880529 42.250000 -0.602631 -0.798012 0.003484 1.7041734328458258e-38
-29.169604 -40.958970 42.031561 -0.582787 -0.812617 0.003484 1.7041734328458258e-38
-28.347131 -41.155410 42.384463 -0.562589 -0.826729 0.003484 1.7041734328458258e-38
-26.799171 -42.023038 42.398654 -0.542050 -0.840339 0.003484 1.7041734328458258e-38
-26.365482 -42.137238 41.753881 -0.521182 -0.853439 0.003484 1.7041734328458258e-38
-25.608982 -42.891546 41.848815 -0.499997 -0.866020 0.003484 1.7041734328458258e-38
-23.890505 -44.213210 42.770937 -0.478509 -0.878076 0.003484 1.7041734328458258e-38
-22.290037 -44.016139 42.088363 -0.456730 -0.889599 0.003484 1.7041734328458258e-38
-21.439564 -45.045154 42.398516 -0.434674 -0.900581 0.003484 1.7041734328458258e-38
-20.740954 -45.075623 41.923594 -0.412354 -0.911017 0.003484 1.7041734328458258e-38
-19.593439 -46.185135 42.119591 -0.389784 -0.920900 0.003484 1.7041734328458258e-38
-39.519561 -30.566259 43.224944 -0.792179 -0.605924 0.072865 1.7041734328458258e-38
-39.171224 -31.159650 43.315949 -0.777010 -0.625257 0.072865 1.7041734328458258e-38
-38.483397 -32.268595 43.079062 -0.761369 -0.644211 0.072865 1.7041734328458258e-38
-36.888826 -32.927345 43.262285 -0.745266 -0.662774 0.072865 1.7041734328458258e-38
-36.473643 -33.800890 43.246886 -0.728711 -0.680934 0.072865 1.7041734328458258e-38
-35.419105 -34.550671 43.151704 -0.711713 -0.698681 0.072865 1.7041734328458258e-38
-34.279798 -35.454972 43.373537 -0.694284 -0.716004 0.072865 1.7041734328458258e-38
-34.012724 -36.636521 43.225619 -0.676432 -0.732892 0.072865 1.7041734328458258e-38
-33.202722 -37.371236 42.991912 -0.658170 -0.749335 0.072865 1.7041734328458258e-38
-32.131785 -38.429317 42.889391 -0.639509 -0.765323 0.072865 1.7041734328458258e-38
-30.878559 -39.177705 43.688622 -0.620459 -0.780846 0.072865 1.7041734328458258e-38
-30.176512 -39.984947 43.027576 -0.601033 -0.795896 0.072865 1.7041734328458258e-38
-29.100148 -40.579128 43.521499 -0.581241 -0.810462 0.072865 1.7041734328458258e-38
-28.082818 -40.669277 43.435834 -0.561097 -0.824537 0.072865 1.7041734328458258e-38
-27.372980 -42.298744 43.459408 -0.540612 -0.838110 0.072865 1.7041734328458258e-38
-26.339995 -42.453212 43.567661 -0.519799 -0.851175 0.072865 1.7041734328458258e-38
-24.700335 -43.520904 43.575410 -0.498671 -0.863723 0.072865 1.7041734328458258e-38
-23.806080 -44.044729 43.251149 -0.477240 -0.875747 0.072865 1.7041734328458258e-38
-22.673560 -44.639814 43.389527 -0.455519 -0.887239 0.072865 1.7041734328458258e-38
-21.279500 -44.697355 43.323565 -0.433521 -0.898193 0.072865 1.7041734328458258e-38
-20.527993 -45.669292 43.146000 -0.411260 -0.908601 0.072865 1.7041734328458258e-38
-19.931944 -45.926215 43.503719 -0.388750 -0.918458 0.072865 1.7041734328458258e-38
-40.473155 -29.673029 44.367496 -0.800973 -0.581941 0.140662 1.7041734328458258e-38
-39.791997 -30.271447 44.567360 -0.786393 -0.601499 0.140662 1.7041734328458258e-38
-39.134647 -30.902700 44.488212 -0.771335 -0.620691 0.140662 1.7041734328458258e-38
-37.581281 -32.107397 44.556814 -0.755808 -0.639506 0.140662 1.7041734328458258e-38
-37.374935 -32.922514 44.546152 -0.739823 -0.657933 0.140662 1.7041734328458258e-38
-36.143131 -33.532711 44.318027 -0.723389 -0.675961 0.140662 1.7041734328458258e-38
-35.367561 -34.725070 44.673516 -0.706515 -0.693578 0.140662 1.7041734328458258e-38
-34.810906 -35.889801 44.360918 -0.689213 -0.710774 0.140662 1.7041734328458258e-38
-33.970354 -36.861542 44.504733 -0.671492 -0.727539 0.140662 1.7041734328458258e-38
-33.104363 -37.300180 44.553169 -0.653363 -0.743862 0.140662 1.7041734328458258e-38
-31.894099 -38.311563 44.556752 -0.634838 -0.759733 0.140662 1.7041734328458258e-38
-31.067458 -38.771088 44.403366 -0.615928 -0.775143 0.140662 1.7041734328458258e-38
-29.910214 -40.148618 44.749705 -0.596643 -0.790083 0.140662 1.7041734328458258e-38
-29.202032 -40.758007 44.194443 -0.576996 -0.804543 0.140662 1.7041734328458258e-38
-28.393386 -41.331808 44.985671 -0.556999 -0.818515 0.140662 1.7041734328458258e-38
-27.197747 -42.528154 44.645722 -0.536664 -0.831989 0.140662 1.7041734328458258e-38
-26.299374 -42.273580 44.409759 -0.516003 -0.844959 0.140662 1.7041734328458258e-38
-24.991882 -42.785637 44.721401 -0.495029 -0.857415 0.140662 1.7041734328458258e-38
-24.213053 -44.075222 44.001023 -0.473754 -0.869351 0.140662 1.7041734328458258e-38
-21.973161 -44.578313 44.887026 -0.452192 -0.880759 0.140662 1.7041734328458258e-38
-21.814983 -45.190608 44.542551 -0.430355 -0.891633 0.140662 1.7041734328458258e-38
-20.641326 -45.146002 44.780398 -0.408257 -0.901965 0.140662 1.7041734328458258e-38
-19.595924 -46.310909 44.176933 -0.385910 -0.911750 0.140662 1.7041734328458258e-38
-39.700728 -29.868940 45.778129 -0.777334 -0.594570 0.205519 1.7041734328458258e-38
-38.973822 -31.428850 45.743376 -0.762450 -0.613541 0.205519 1.7041734328458258e-38
-38.030722 -31.812580 45.687170 -0.747102 -0.632139 0.205519 1.7041734328458258e-38
-36.973888 -33.216736 45.766297 -0.731301 -0.650354 0.205519 1.7041734328458258e-38
-35.846787 -33.909765 45.607307 -0.715056 -0.668174 0.205519 1.7041734328458258e-38
-35.655233 -34.753574 46.195990 -0.698377 -0.685589 0.205519 1.7041734328458258e-38
-34.938324 -35.624440 45.259034 -0.681274 -0.702587 0.205519 1.7041734328458258e-38
-33.764565 -36.370538 45.299083 -0.663757 -0.719158 0.205519 1.7041734328458258e-38
-32.866650 -37.179988 45.812537 -0.645837 -0.735293 0.205519 1.7041734328458258e-38
-31.703416 -38.354673 45.860228 -0.627525 -0.750982 0.205519 1.7041734328458258e-38
-31.037694 -38.620128 45.080000 -0.608833 -0.766214 0.205519 1.7041734328458258e-38
-29.978428 -39.553140 46.178025 -0.589770 -0.780982 0.205519 1.7041734328458258e-38
-28.881214 -40.250754 45.885843 -0.570350 -0.795275 0.205519 1.7041734328458258e-38
-27.529484 -41.121774 45.352266 -0.550583 -0.809086 0.205519 1.7041734328458258e-38
-27.364991 -41.483017 45.840158 -0.530482 -0.822405 0.205519 1.7041734328458258e-38
-25.928423 -42.507870 45.827446 -0.510059 -0.835225 0.205519 1.7041734328458258e-38
-24.737803 -42.812158 45.440596 -0.489327 -0.847538 0.205519 1.7041734328458258e-38
-24.264154 -43.828152 45.367857 -0.468297 -0.859337 0.205519 1.7041734328458258e-38
-23.075474 -43.654719 45.093095 -0.446983 -0.870614 0.205519 1.7041734328458258e-38
-21.419665 -44.398298 46.069435 -0.425397 -0.881362 0.205519 1.7041734328458258e-38
-20.370297 -44.792062 46.308216 -0.403554 -0.891575 0.205519 1.7041734328458258e-38
-37.264156 -32.479794 46.748893 -0.720261 -0.640536 0.266341 1.7041734328458258e-38
-35.641264 -33.819207 47.048709 -0.704261 -0.658087 0.266341 1.7041734328458258e-38
-35.057872 -35.022135 47.071404 -0.687834 -0.675239 0.266341 1.7041734328458258e-38
-34.214732 -35.051360 46.722458 -0.670989 -0.691980 0.266341 1.7041734328458258e-38
-33.682388 -36.030307 47.434027 -0.653737 -0.708302 0.266341 1.7041734328458258e-38
-32.712313 -37.411545 46.915291 -0.636087 -0.724193 0.266341 1.7041734328458258e-38
-31.916088 -37.711975 46.686359 -0.618052 -0.739645 0.266341 1.7041734328458258e-38
-30.378557 -38.534882 47.311539 -0.599641 -0.754647 0.266341 1.7041734328458258e-38
-30.437138 -39.870036 47.398111 -0.580867 -0.769192 0.266341 1.7041734328458258e-38
-28.947683 -40.502546 46.949500 -0.561740 -0.783270 0.266341 1.7041734328458258e-38
-27.663360 -40.805753 47.150714 -0.542271 -0.796872 0.266341 1.7041734328458258e-38
-26.623713 -41.345277 47.414821 -0.522474 -0.809990 0.266341 1.7041734328458258e-38
-25.698892 -42.088219 47.251153 -0.502359 -0.822616 0.266341 1.7041734328458258e-38
-24.484416 -42.966281 46.982675 -0.481939 -0.834744 0.266341 1.7041734328458258e-38
-23.459357 -43.465830 46.848557 -0.461227 -0.846364 0.266341 1.7041734328458258e-38
-22.934552 -44.722693 46.898086 -0.440235 -0.857471 0.266341 1.7041734328458258e-38
-21.391548 -44.727935 47.423671 -0.418975 -0.868057 0.266341 1.7041734328458258e-38
-20.643353 -44.640048 47.135910 -0.397462 -0.878115 0.266341 1.7041734328458258e-38
-33.276758 -36.178788 47.947806 -0.642032 -0.695620 0.322349 1.7041734328458258e-38
-32.220716 -36.980373 48.245931 -0.624698 -0.711227 0.322349 1.7041734328458258e-38
-31.246855 -37.354532 48.527719 -0.606986 -0.726402 0.322349 1.7041734328458258e-38
-30.383488 -38.614773 48.387141 -0.588905 -0.741136 0.322349 1.7041734328458258e-38
-29.283199 -39.092377 48.161052 -0.570467 -0.755420 0.322349 1.7041734328458258e-38
-27.766764 -40.140288 48.395525 -0.551682 -0.769245 0.322349 1.7041734328458258e-38
-27.207457 -40.545082 48.196868 -0.532562 -0.782604 0.322349 1.7041734328458258e-38
-26.636947 -41.108413 48.517270 -0.513119 -0.795487 0.322349 1.7041734328458258e-38
-25.555112 -40.816123 48.111601 -0.493365 -0.807888 0.322349 1.7041734328458258e-38
-24.046060 -42.201598 48.279965 -0.473310 -0.819798 0.322349 1.7041734328458258e-38
-22.966902 -43.434554 48.374976 -0.452969 -0.831210 0.322349 1.7041734328458258e-38
-22.557648 -43.649005 48.102522 -0.432353 -0.842118 0.322349 1.7041734328458258e-38
-21.552922 -44.551241 48.364058 -0.411474 -0.852514 0.322349 1.7041734328458258e-38
-30.297618 -37.825156 49.285328 -0.577194 -0.726397 0.373087 1.7041734328458258e-38
-29.192954 -38.421479 49.822928 -0.559122 -0.740397 0.373087 1.7041734328458258e-38
-28.033653 -39.243279 49.442046 -0.540711 -0.753948 0.373087 1.7041734328458258e-38
-27.433343 -39.900980 49.169263 -0.521971 -0.767041 0.373087 1.7041734328458258e-38
-26.231606 -41.044908 49.472153 -0.502915 -0.779668 0.373087 1.7041734328458258e-38
-25.572194 -41.477173 49.281750 -0.483553 -0.791822 0.373087 1.7041734328458258e-38
-24.468450 -41.992903 48.757396 -0.463898 -0.803495 0.373087 1.7041734328458258e-38
-23.728919 -42.309795 49.528780 -0.443961 -0.814680 0.373087 1.7041734328458258e-38
-22.349801 -42.817119 49.292783 -0.423755 -0.825371 0.373087 1.7041734328458258e-38
-21.237878 -43.876516 50.056522 -0.403291 -0.835561 0.373087 1.7041734328458258e-38
-25.838553 -40.244582 50.605437 -0.492331 -0.763259 0.418385 1.7041734328458258e-38
-24.949638 -40.965654 51.198390 -0.473377 -0.775157 0.418385 1.7041734328458258e-38
-24.200573 -41.426985 50.874540 -0.454135 -0.786585 0.418385 1.7041734328458258e-38
-22.801104 -42.171374 51.132132 -0.434618 -0.797535 0.418385 1.7041734328458258e-38
-22.515557 -42.962416 50.920720 -0.414837 -0.808001 0.418385 1.7041734328458258e-38
-21.095882 -43.442133 50.581491 -0.394804 -0.817976 0.418385 1.7041734328458258e-38
-22.370710 -40.993263 51.175187 -0.425302 -0.780440 0.458292 1.7041734328458258e-38
-21.809690 -42.017549 51.957610 -0.405945 -0.790682 0.458292 1.7041734328458258e-38
