# .PCD v0.7 - Point Cloud Data file format
VERSION 0.7
FIELDS x y z normal_x normal_y normal_z rgb
SIZE 4 4 4 4 4 4 4
TYPE F F F F F F F
COUNT 1 1 1 1 1 1 1
WIDTH 106
HEIGHT 1
VIEWPOINT 0 0 0 1 0 0 0
POINTS 106
DATA ascii
-24.237180 16.807476 77.356993 -0.751127 0.517940 0.409324 1.75027152803718e-38
-24.866755 16.167542 78.301092 -0.763660 0.499277 0.409324 1.75027152803718e-38
-24.793006 15.370586 78.237872 -0.775729 0.480311 0.409324 1.75027152803718e-38
-23.573923 17.103765 78.611554 -0.753871 0.547719 0.362882 1.75027152803718e-38
-23.342531 16.611072 78.622840 -0.767136 0.528979 0.362882 1.75027152803718e-38
-24.040943 15.968535 79.614847 -0.779936 0.509918 0.362882 1.75027152803718e-38
-24.086551 15.801765 79.091921 -0.792262 0.490548 0.362882 1.75027152803718e-38
-24.809377 14.479093 79.468786 -0.804108 0.470880 0.362882 1.75027152803718e-38
-23.260534 16.809042 80.512352 -0.768894 0.558634 0.311014 1.75027152803718e-38
-23.970448 16.222858 80.453984 -0.782424 0.539521 0.311014 1.75027152803718e-38
-23.626099 15.421347 80.787502 -0.795479 0.520080 0.311014 1.75027152803718e-38
-24.202519 15.513404 80.636354 -0.808051 0.500324 0.311014 1.75027152803718e-38
-24.505531 14.044484 80.016371 -0.820132 0.480264 0.311014 1.75027152803718e-38
-23.160931 15.895473 82.146893 -0.796265 0.549065 0.253947 1.75027152803718e-38
-23.642372 15.205720 81.528900 -0.809551 0.529281 0.253947 1.75027152803718e-38
-23.594873 14.864646 81.787021 -0.822346 0.509175 0.253947 1.75027152803718e-38
-24.203024 13.556711 81.328841 -0.834641 0.488760 0.253947 1.75027152803718e-38
-24.700296 13.706645 81.354193 -0.846429 0.468048 0.253947 1.75027152803718e-38
-23.041367 15.978211 82.992533 -0.807904 0.557091 0.192202 1.75027152803718e-38
-23.713210 15.378455 83.136297 -0.821384 0.537017 0.192202 1.75027152803718e-38
-23.044766 14.635083 83.394729 -0.834365 0.516617 0.192202 1.75027152803718e-38
-24.150420 14.769143 82.708101 -0.846840 0.495904 0.192202 1.75027152803718e-38
-24.175570 13.560910 83.333532 -0.858801 0.474889 0.192202 1.75027152803718e-38
-24.286513 12.557720 82.785726 -0.870240 0.453586 0.192202 1.75027152803718e-38
-23.047628 15.115277 84.051152 -0.830252 0.542815 0.126626 1.75027152803718e-38
-23.949883 14.326434 83.837352 -0.843373 0.522195 0.126626 1.75027152803718e-38
-24.034420 14.324750 84.017900 -0.855983 0.501258 0.126626 1.75027152803718e-38
-24.395009 13.572890 84.221686 -0.868073 0.480016 0.126626 1.75027152803718e-38
-23.905707 13.081243 83.527046 -0.879636 0.458483 0.126626 1.75027152803718e-38
-24.581214 12.375875 84.621559 -0.890664 0.436672 0.126626 1.75027152803718e-38
-22.843401 14.586654 85.410875 -0.835562 0.546286 0.058377 1.75027152803718e-38
-23.391188 14.723295 85.092110 -0.848767 0.525534 0.058377 1.75027152803718e-38
-24.040325 14.072179 85.309583 -0.861457 0.504463 0.058377 1.75027152803718e-38
-24.697452 13.320413 85.903149 -0.873625 0.483086 0.058377 1.75027152803718e-38
-24.248646 12.368979 85.501729 -0.885261 0.461416 0.058377 1.75027152803718e-38
-24.424486 11.601807 85.274590 -0.896361 0.439465 0.058377 1.75027152803718e-38
-23.121384 14.599761 86.362477 -0.836665 0.547008 0.027806 1.75027152803718e-38
-23.139107 14.354635 86.360763 -0.849888 0.526229 0.027806 1.75027152803718e-38
-23.714221 14.041631 86.792981 -0.862595 0.505130 0.027806 1.75027152803718e-38
-23.961940 13.668919 86.612690 -0.874779 0.483724 0.027806 1.75027152803718e-38
-24.454666 12.971369 86.385381 -0.886431 0.462025 0.027806 1.75027152803718e-38
-24.810811 11.626795 87.142104 -0.897545 0.440046 0.027806 1.75027152803718e-38
-24.354675 11.440252 86.826978 -0.908114 0.417799 0.027806 1.75027152803718e-38
-23.384557 14.168242 87.479842 -0.833729 0.516223 0.195984 1.75027152803718e-38
-23.535227 13.502035 88.004817 -0.846194 0.495525 0.195984 1.75027152803718e-38
-23.682892 12.978432 88.254606 -0.858146 0.474527 0.195984 1.75027152803718e-38
-24.138165 12.622153 87.301460 -0.869577 0.453240 0.195984 1.75027152803718e-38
-25.076631 12.514312 88.230943 -0.880479 0.431679 0.195984 1.75027152803718e-38
-24.372027 11.990880 88.247465 -0.890847 0.409855 0.195984 1.75027152803718e-38
-25.054554 10.985879 87.629753 -0.900675 0.387782 0.195984 1.75027152803718e-38
-22.368313 14.189515 89.403357 -0.799001 0.494721 0.341830 1.75027152803718e-38
-23.071828 13.499410 89.212327 -0.810948 0.474885 0.341830 1.75027152803718e-38
-23.891988 12.599963 89.223445 -0.822401 0.454761 0.341830 1.75027152803718e-38
-23.779370 12.126690 89.029345 -0.833356 0.434362 0.341830 1.75027152803718e-38
-24.604412 11.750123 88.941224 -0.843805 0.413698 0.341830 1.75027152803718e-38
-24.311862 11.137459 88.693628 -0.853741 0.392783 0.341830 1.75027152803718e-38
-24.290049 10.828074 89.340973 -0.863159 0.371630 0.341830 1.75027152803718e-38
-24.877899 10.347548 89.203129 -0.872053 0.350251 0.341830 1.75027152803718e-38
-22.634733 14.018221 90.168551 -0.756554 0.468438 0.456281 1.75027152803718e-38
-23.051564 13.061212 90.014130 -0.767865 0.449656 0.456281 1.75027152803718e-38
-23.349333 12.620232 90.341462 -0.778710 0.430602 0.456281 1.75027152803718e-38
-23.698754 12.378384 90.899613 -0.789083 0.411286 0.456281 1.75027152803718e-38
-23.385235 11.330719 90.219533 -0.798976 0.391720 0.456281 1.75027152803718e-38
-24.421087 11.118624 90.385179 -0.808385 0.371916 0.456281 1.75027152803718e-38
-24.252893 10.149650 90.114424 -0.817303 0.351887 0.456281 1.75027152803718e-38
-24.268786 9.981533 90.048853 -0.825724 0.331644 0.456281 1.75027152803718e-38
-21.768706 12.924144 91.571868 -0.726537 0.425455 0.539567 1.75027152803718e-38
-22.756243 12.482901 91.268429 -0.736799 0.407426 0.539567 1.75027152803718e-38
-22.404365 12.165767 92.067499 -0.746613 0.389149 0.539567 1.75027152803718e-38
-23.285179 11.954928 91.619760 -0.755974 0.370637 0.539567 1.75027152803718e-38
-23.429535 11.138259 91.240236 -0.764876 0.351899 0.539567 1.75027152803718e-38
-23.637366 10.134392 91.671660 -0.773314 0.332947 0.539567 1.75027152803718e-38
-24.024184 9.433783 91.432175 -0.781282 0.313794 0.539567 1.75027152803718e-38
-24.207384 9.027675 91.932793 -0.788776 0.294450 0.539567 1.75027152803718e-38
-21.642229 12.288413 92.857989 -0.692737 0.405662 0.596283 1.75027152803718e-38
-21.812301 12.295017 92.069335 -0.702521 0.388472 0.596283 1.75027152803718e-38
-22.121429 11.865756 92.956423 -0.711879 0.371045 0.596283 1.75027152803718e-38
-22.640979 10.563053 92.769662 -0.720804 0.353394 0.596283 1.75027152803718e-38
-22.373658 10.556776 92.818144 -0.729292 0.335528 0.596283 1.75027152803718e-38
-22.666010 9.918936 92.963310 -0.737337 0.317458 0.596283 1.75027152803718e-38
-22.812938 9.142071 92.517761 -0.744935 0.299195 0.596283 1.75027152803718e-38
-23.097005 8.550508 92.199576 -0.752080 0.280751 0.596283 1.75027152803718e-38
-23.094821 8.202869 92.846332 -0.758769 0.262137 0.596283 1.75027152803718e-38
-20.284364 11.949793 94.465175 -0.669119 0.391832 0.631464 1.75027152803718e-38
-20.816936 11.905280 93.613659 -0.678570 0.375227 0.631464 1.75027152803718e-38
-21.313220 11.244741 93.971440 -0.687609 0.358395 0.631464 1.75027152803718e-38
-21.531036 10.497101 94.132656 -0.696230 0.341345 0.631464 1.75027152803718e-38
-21.697755 10.465361 93.723792 -0.704428 0.324089 0.631464 1.75027152803718e-38
-21.942565 9.670675 93.647517 -0.712199 0.306635 0.631464 1.75027152803718e-38
-22.300419 8.967479 94.471486 -0.719538 0.288995 0.631464 1.75027152803718e-38
-22.369306 8.593127 94.267656 -0.726440 0.271180 0.631464 1.75027152803718e-38
-23.436271 7.835174 93.889909 -0.732900 0.253200 0.631464 1.75027152803718e-38
-22.344164 7.461246 94.283041 -0.738916 0.235066 0.631464 1.75027152803718e-38
-20.160301 10.818092 94.445638 -0.665898 0.368220 0.648841 1.75027152803718e-38
-20.466803 10.812765 95.381838 -0.674768 0.351702 0.648841 1.75027152803718e-38
-20.425670 10.502510 95.084076 -0.683228 0.334971 0.648841 1.75027152803718e-38
-21.134812 9.713655 95.364853 -0.691273 0.318036 0.648841 1.75027152803718e-38
-21.400421 8.997489 95.419281 -0.698899 0.300908 0.648841 1.75027152803718e-38
-21.154708 8.749245 95.056078 -0.706101 0.283598 0.648841 1.75027152803718e-38
-21.866378 7.729868 95.517038 -0.712873 0.266115 0.648841 1.75027152803718e-38
-18.905562 10.624497 96.066919 -0.664743 0.367582 0.650385 1.75027152803718e-38
-18.851496 10.105357 96.588394 -0.673598 0.351092 0.650385 1.75027152803718e-38
-19.808339 9.543439 96.848661 -0.682043 0.334390 0.650385 1.75027152803718e-38
-19.592796 9.028758 96.953146 -0.690075 0.317485 0.650385 1.75027152803718e-38
-20.349106 8.126618 95.916097 -0.697687 0.300387 0.650385 1.75027152803718e-38
-17.915567 9.064901 97.924249 -0.684113 0.356573 0.636275 1.75027152803718e-38
