# .PCD v0.7 - Point Cloud Data file format
VERSION 0.7
FIELDS x y z normal_x normal_y normal_z rgb
SIZE 4 4 4 4 4 4 4
TYPE F F F F F F F
COUNT 1 1 1 1 1 1 1
WIDTH 270
HEIGHT 1
VIEWPOINT 0 0 0 1 0 0 0
POINTS 270
DATA ascii
13.244395 -21.389915 92.906944 0.426802 -0.679916 0.596283 1.6580765988230895e-38
13.938257 -20.815980 92.523698 0.443424 -0.669194 0.596283 1.6580765988230895e-38
14.425981 -19.933916 93.359995 0.459777 -0.658066 0.596283 1.6580765988230895e-38
14.870880 -19.960260 92.388939 0.475850 -0.646539 0.596283 1.6580765988230895e-38
12.228590 -20.835414 94.484741 0.395946 -0.666693 0.631464 1.6580765988230895e-38
13.255623 -19.615898 93.490898 0.412251 -0.656736 0.631464 1.6580765988230895e-38
13.311861 -19.810780 93.808952 0.428307 -0.646379 0.631464 1.6580765988230895e-38
13.812113 -20.039810 94.462097 0.444102 -0.635631 0.631464 1.6580765988230895e-38
13.719270 -19.190207 94.257376 0.459627 -0.624496 0.631464 1.6580765988230895e-38
14.469716 -18.498367 93.473119 0.474874 -0.612983 0.631464 1.6580765988230895e-38
15.101827 -19.049471 93.788632 0.489832 -0.601097 0.631464 1.6580765988230895e-38
15.415148 -18.332009 94.401887 0.504493 -0.588846 0.631464 1.6580765988230895e-38
11.065837 -20.485535 95.410190 0.355852 -0.672588 0.648841 1.6580765988230895e-38
11.186349 -19.838394 95.196396 0.372315 -0.663617 0.648841 1.6580765988230895e-38
11.578044 -19.519860 94.843559 0.388552 -0.654243 0.648841 1.6580765988230895e-38
12.585772 -19.351153 95.092888 0.404553 -0.644471 0.648841 1.6580765988230895e-38
12.752038 -19.286229 95.281385 0.420308 -0.634308 0.648841 1.6580765988230895e-38
13.133159 -18.383187 95.341385 0.435808 -0.623760 0.648841 1.6580765988230895e-38
13.230009 -18.257639 95.474036 0.451044 -0.612834 0.648841 1.6580765988230895e-38
13.532212 -18.448631 95.860681 0.466005 -0.601535 0.648841 1.6580765988230895e-38
14.357869 -17.833830 95.247246 0.480684 -0.589872 0.648841 1.6580765988230895e-38
14.697844 -17.911549 94.921059 0.495071 -0.577850 0.648841 1.6580765988230895e-38
15.122079 -17.158552 95.026911 0.509158 -0.565477 0.648841 1.6580765988230895e-38
15.280572 -16.791266 95.592310 0.522935 -0.552761 0.648841 1.6580765988230895e-38
15.931393 -16.287349 95.690886 0.536395 -0.539709 0.648841 1.6580765988230895e-38
9.771404 -19.642946 96.047912 0.355235 -0.671422 0.650385 1.6580765988230895e-38
10.952743 -19.411969 96.384067 0.371669 -0.662466 0.650385 1.6580765988230895e-38
11.120640 -18.698856 96.356535 0.387878 -0.653108 0.650385 1.6580765988230895e-38
11.131012 -18.847222 96.179256 0.403851 -0.643354 0.650385 1.6580765988230895e-38
11.261106 -18.064211 96.646475 0.419579 -0.633209 0.650385 1.6580765988230895e-38
12.178620 -17.499786 96.462925 0.435052 -0.622679 0.650385 1.6580765988230895e-38
13.191405 -17.344973 96.454597 0.450262 -0.611771 0.650385 1.6580765988230895e-38
12.757508 -17.193956 96.652768 0.465197 -0.600492 0.650385 1.6580765988230895e-38
13.591563 -16.870873 96.486243 0.479851 -0.588849 0.650385 1.6580765988230895e-38
13.914005 -16.604264 96.342083 0.494213 -0.576848 0.650385 1.6580765988230895e-38
14.716549 -16.396418 96.281345 0.508275 -0.564497 0.650385 1.6580765988230895e-38
14.507879 -15.192753 96.359074 0.522028 -0.551803 0.650385 1.6580765988230895e-38
15.046112 -15.299279 96.550924 0.535465 -0.538774 0.650385 1.6580765988230895e-38
15.926452 -14.900351 96.823965 0.548576 -0.525418 0.650385 1.6580765988230895e-38
15.809721 -14.659689 96.021133 0.561355 -0.511743 0.650385 1.6580765988230895e-38
9.510782 -18.445944 97.989806 0.360780 -0.681903 0.636275 1.6580765988230895e-38
10.137721 -18.274113 97.913583 0.377471 -0.672807 0.636275 1.6580765988230895e-38
10.030954 -17.984300 98.142954 0.393933 -0.663303 0.636275 1.6580765988230895e-38
11.474240 -17.209910 97.362579 0.410155 -0.653396 0.636275 1.6580765988230895e-38
11.107638 -17.472066 97.735720 0.426129 -0.643093 0.636275 1.6580765988230895e-38
11.682685 -17.540055 98.010309 0.441844 -0.632399 0.636275 1.6580765988230895e-38
12.547059 -16.914672 97.945552 0.457290 -0.621321 0.636275 1.6580765988230895e-38
13.010377 -17.142836 97.924996 0.472459 -0.609866 0.636275 1.6580765988230895e-38
13.109976 -16.864277 98.037411 0.487341 -0.598041 0.636275 1.6580765988230895e-38
13.545000 -16.260832 97.851209 0.501928 -0.585852 0.636275 1.6580765988230895e-38
13.960195 -15.281807 97.151717 0.516209 -0.573308 0.636275 1.6580765988230895e-38
14.192029 -15.390994 97.683070 0.530177 -0.560416 0.636275 1.6580765988230895e-38
14.140321 -15.075450 98.193810 0.543824 -0.547184 0.636275 1.6580765988230895e-38
15.356957 -14.083412 98.173175 0.557140 -0.533619 0.636275 1.6580765988230895e-38
14.797237 -14.017751 97.805139 0.570118 -0.519731 0.636275 1.6580765988230895e-38
15.582164 -14.176382 97.997049 0.582749 -0.505527 0.636275 1.6580765988230895e-38
16.214487 -13.413427 97.985636 0.595027 -0.491016 0.636275 1.6580765988230895e-38
8.773578 -17.573437 99.286570 0.372397 -0.703859 0.604899 1.6580765988230895e-38
9.657130 -17.788524 98.753353 0.389625 -0.694471 0.604899 1.6580765988230895e-38
9.919907 -16.535463 99.221446 0.406617 -0.684660 0.604899 1.6580765988230895e-38
10.809130 -17.122961 98.985200 0.423362 -0.674435 0.604899 1.6580765988230895e-38
11.417774 -16.220560 98.831497 0.439849 -0.663799 0.604899 1.6580765988230895e-38
11.589876 -16.600276 98.726633 0.456070 -0.652761 0.604899 1.6580765988230895e-38
11.185553 -15.964412 99.173801 0.472014 -0.641327 0.604899 1.6580765988230895e-38
11.850645 -15.664338 98.731917 0.487672 -0.629503 0.604899 1.6580765988230895e-38
12.344277 -15.647220 99.356074 0.503033 -0.617297 0.604899 1.6580765988230895e-38
12.688632 -15.095347 98.826116 0.518089 -0.604716 0.604899 1.6580765988230895e-38
13.357051 -13.951484 99.819561 0.532830 -0.591768 0.604899 1.6580765988230895e-38
13.555354 -14.242321 99.272602 0.547248 -0.578461 0.604899 1.6580765988230895e-38
14.348367 -13.836821 99.316189 0.561334 -0.564802 0.604899 1.6580765988230895e-38
14.437400 -13.868141 99.314325 0.575079 -0.550801 0.604899 1.6580765988230895e-38
14.688424 -13.222320 98.578221 0.588474 -0.536465 0.604899 1.6580765988230895e-38
14.740495 -13.073309 99.143059 0.601513 -0.521804 0.604899 1.6580765988230895e-38
15.825170 -12.351789 98.930084 0.614186 -0.506826 0.604899 1.6580765988230895e-38
15.295797 -11.831290 99.080420 0.626487 -0.491540 0.604899 1.6580765988230895e-38
8.403650 -16.798836 100.379525 0.389686 -0.736537 0.552864 1.6580765988230895e-38
9.010018 -17.079028 100.169176 0.407714 -0.726712 0.552864 1.6580765988230895e-38
9.887111 -16.193484 100.327020 0.425494 -0.716447 0.552864 1.6580765988230895e-38
10.343531 -15.545610 99.398160 0.443017 -0.705746 0.552864 1.6580765988230895e-38
10.050744 -15.717499 100.289302 0.460270 -0.694617 0.552864 1.6580765988230895e-38
10.368820 -15.740316 100.722805 0.477244 -0.683066 0.552864 1.6580765988230895e-38
11.105985 -15.170948 100.743435 0.493928 -0.671101 0.552864 1.6580765988230895e-38
11.612384 -14.716968 100.377498 0.510312 -0.658728 0.552864 1.6580765988230895e-38
11.848240 -14.781164 100.560668 0.526387 -0.645955 0.552864 1.6580765988230895e-38
12.304243 -14.667048 100.530881 0.542142 -0.632790 0.552864 1.6580765988230895e-38
11.800379 -13.583341 100.150220 0.557567 -0.619241 0.552864 1.6580765988230895e-38
13.001702 -13.715823 100.605392 0.572655 -0.605316 0.552864 1.6580765988230895e-38
13.386151 -13.423096 99.920486 0.587394 -0.591024 0.552864 1.6580765988230895e-38
13.446305 -12.891083 100.272990 0.601777 -0.576373 0.552864 1.6580765988230895e-38
14.484732 -12.987626 99.860023 0.615795 -0.561371 0.552864 1.6580765988230895e-38
14.378248 -12.420535 99.846629 0.629439 -0.546029 0.552864 1.6580765988230895e-38
14.433650 -11.827690 99.810114 0.642701 -0.530356 0.552864 1.6580765988230895e-38
14.540272 -11.894498 99.993873 0.655572 -0.514360 0.552864 1.6580765988230895e-38
15.402604 -11.472397 100.695605 0.668046 -0.498053 0.552864 1.6580765988230895e-38
8.236644 -16.302096 101.586756 0.411452 -0.777678 0.475315 1.6580765988230895e-38
8.956768 -15.674515 100.811239 0.430488 -0.767304 0.475315 1.6580765988230895e-38
9.718909 -15.550514 101.609068 0.449261 -0.756465 0.475315 1.6580765988230895e-38
9.770392 -15.576053 101.598706 0.467762 -0.745167 0.475315 1.6580765988230895e-38
10.058346 -15.126172 101.591256 0.485979 -0.733416 0.475315 1.6580765988230895e-38
10.374811 -15.301416 101.388848 0.503901 -0.721221 0.475315 1.6580765988230895e-38
11.256846 -14.798349 101.471524 0.521517 -0.708587 0.475315 1.6580765988230895e-38
11.376878 -13.726757 101.366576 0.538817 -0.695523 0.475315 1.6580765988230895e-38
11.108896 -13.882306 101.199618 0.555789 -0.682037 0.475315 1.6580765988230895e-38
11.909159 -13.615213 101.299488 0.572424 -0.668136 0.475315 1.6580765988230895e-38
12.075280 -13.255839 101.771084 0.588712 -0.653830 0.475315 1.6580765988230895e-38
12.499118 -13.147410 101.106118 0.604642 -0.639128 0.475315 1.6580765988230895e-38
12.842652 -13.003860 101.466895 0.620205 -0.624037 0.475315 1.6580765988230895e-38
13.546293 -12.904764 101.795904 0.635391 -0.608567 0.475315 1.6580765988230895e-38
13.484887 -12.247920 101.182679 0.650192 -0.592728 0.475315 1.6580765988230895e-38
13.807804 -11.253888 100.679028 0.664598 -0.576529 0.475315 1.6580765988230895e-38
13.426439 -11.616627 101.541402 0.678600 -0.559980 0.475315 1.6580765988230895e-38
14.575598 -11.079202 100.952504 0.692191 -0.543091 0.475315 1.6580765988230895e-38
14.750540 -10.911034 101.708893 0.705361 -0.525872 0.475315 1.6580765988230895e-38
14.613704 -10.956661 101.307987 0.718103 -0.508334 0.475315 1.6580765988230895e-38
8.408486 -16.247333 102.907652 0.434964 -0.822116 0.367330 1.6580765988230895e-38
8.398079 -15.560096 102.668879 0.455087 -0.811150 0.367330 1.6580765988230895e-38
8.583112 -15.155554 102.351649 0.474933 -0.799692 0.367330 1.6580765988230895e-38
8.963895 -14.961623 103.047468 0.494491 -0.787748 0.367330 1.6580765988230895e-38
9.931531 -14.824326 102.631297 0.513749 -0.775326 0.367330 1.6580765988230895e-38
9.910227 -14.775662 102.366253 0.532696 -0.762433 0.367330 1.6580765988230895e-38
10.504681 -14.383930 102.662221 0.551318 -0.749077 0.367330 1.6580765988230895e-38
10.464894 -13.666157 102.872112 0.569606 -0.735267 0.367330 1.6580765988230895e-38
11.577367 -13.225614 102.403920 0.587548 -0.721010 0.367330 1.6580765988230895e-38
11.184928 -13.250816 102.414515 0.605134 -0.706315 0.367330 1.6580765988230895e-38
11.839076 -13.174112 102.955403 0.622352 -0.691192 0.367330 1.6580765988230895e-38
12.370527 -12.868253 102.131577 0.639192 -0.675649 0.367330 1.6580765988230895e-38
12.701167 -12.657992 102.673369 0.655645 -0.659696 0.367330 1.6580765988230895e-38
12.660623 -12.050185 102.493696 0.671699 -0.643342 0.367330 1.6580765988230895e-38
12.661907 -11.803327 102.928361 0.687345 -0.626598 0.367330 1.6580765988230895e-38
13.248523 -11.562847 102.324456 0.702574 -0.609473 0.367330 1.6580765988230895e-38
13.719617 -11.018242 102.648236 0.717377 -0.591979 0.367330 1.6580765988230895e-38
13.544769 -10.831987 102.730179 0.731744 -0.574125 0.367330 1.6580765988230895e-38
14.088059 -10.837269 102.756511 0.745667 -0.555922 0.367330 1.6580765988230895e-38
14.403869 -10.036115 102.639530 0.759137 -0.537382 0.367330 1.6580765988230895e-38
14.986138 -9.805555 103.098916 0.772146 -0.518516 0.367330 1.6580765988230895e-38
8.064377 -15.242800 104.299172 0.455406 -0.860754 0.227393 1.6580765988230895e-38
8.136958 -14.726260 104.513058 0.476475 -0.849273 0.227393 1.6580765988230895e-38
8.340506 -15.371497 103.973210 0.497254 -0.837276 0.227393 1.6580765988230895e-38
9.337362 -14.554859 103.279785 0.517732 -0.824771 0.227393 1.6580765988230895e-38
8.993358 -14.488445 104.042249 0.537895 -0.811765 0.227393 1.6580765988230895e-38
9.743363 -14.033628 103.973106 0.557731 -0.798266 0.227393 1.6580765988230895e-38
10.473404 -14.198939 103.943973 0.577229 -0.784282 0.227393 1.6580765988230895e-38
10.963827 -13.832330 103.729457 0.596377 -0.769823 0.227393 1.6580765988230895e-38
10.889848 -13.648882 103.568234 0.615162 -0.754896 0.227393 1.6580765988230895e-38
11.084988 -13.133224 104.142966 0.633574 -0.739511 0.227393 1.6580765988230895e-38
11.238485 -12.771229 104.287819 0.651602 -0.723677 0.227393 1.6580765988230895e-38
12.171327 -12.526035 103.974201 0.669233 -0.707403 0.227393 1.6580765988230895e-38
11.851518 -12.111342 104.376629 0.686459 -0.690700 0.227393 1.6580765988230895e-38
12.809737 -11.902287 104.021296 0.703267 -0.673578 0.227393 1.6580765988230895e-38
12.488594 -11.864928 103.808247 0.719649 -0.656047 0.227393 1.6580765988230895e-38
13.072063 -11.052789 103.893747 0.735594 -0.638117 0.227393 1.6580765988230895e-38
13.396586 -11.711426 103.968660 0.751092 -0.619801 0.227393 1.6580765988230895e-38
13.344127 -10.991008 104.053722 0.766135 -0.601107 0.227393 1.6580765988230895e-38
14.221780 -10.283301 104.181464 0.780712 -0.582049 0.227393 1.6580765988230895e-38
13.911387 -9.320515 103.444667 0.794815 -0.562638 0.227393 1.6580765988230895e-38
14.246985 -9.362097 103.908265 0.808436 -0.542885 0.227393 1.6580765988230895e-38
14.922049 -9.854787 103.884168 0.821566 -0.522802 0.227393 1.6580765988230895e-38
7.339220 -15.329878 105.247234 0.466746 -0.882186 0.062422 1.6580765988230895e-38
8.127137 -14.852361 105.092534 0.488339 -0.870419 0.062422 1.6580765988230895e-38
8.354252 -15.248333 105.364664 0.509635 -0.858123 0.062422 1.6580765988230895e-38
8.992265 -14.308219 105.137084 0.530623 -0.845307 0.062422 1.6580765988230895e-38
9.375001 -14.133807 105.096934 0.551288 -0.831977 0.062422 1.6580765988230895e-38
9.642916 -14.248517 105.899391 0.571618 -0.818142 0.062422 1.6580765988230895e-38
10.387229 -13.255394 105.535352 0.591602 -0.803810 0.062422 1.6580765988230895e-38
10.335907 -13.504589 105.155500 0.611226 -0.788991 0.062422 1.6580765988230895e-38
10.638638 -12.925898 104.910602 0.630479 -0.773692 0.062422 1.6580765988230895e-38
10.749521 -13.309383 105.057434 0.649350 -0.757924 0.062422 1.6580765988230895e-38
11.242982 -12.829460 105.179764 0.667826 -0.741696 0.062422 1.6580765988230895e-38
11.342843 -12.136809 104.825529 0.685896 -0.725017 0.062422 1.6580765988230895e-38
11.641751 -12.260771 105.113217 0.703551 -0.707898 0.062422 1.6580765988230895e-38
12.545394 -11.790904 104.673237 0.720778 -0.690350 0.062422 1.6580765988230895e-38
12.719707 -11.321718 104.980530 0.737568 -0.672382 0.062422 1.6580765988230895e-38
12.903286 -10.718580 104.895382 0.753910 -0.654006 0.062422 1.6580765988230895e-38
13.410961 -10.449265 105.207389 0.769794 -0.635233 0.062422 1.6580765988230895e-38
13.016933 -10.110256 105.429437 0.785211 -0.616074 0.062422 1.6580765988230895e-38
13.804829 -10.185072 105.501854 0.800151 -0.596542 0.062422 1.6580765988230895e-38
13.631700 -9.573069 105.058131 0.814605 -0.576647 0.062422 1.6580765988230895e-38
13.621763 -9.786469 105.275817 0.828565 -0.556402 0.062422 1.6580765988230895e-38
14.420755 -9.001235 105.044524 0.842022 -0.535820 0.062422 1.6580765988230895e-38
7.602623 -14.756151 106.352257 0.466348 -0.881434 -0.074785 1.6580765988230895e-38
8.126274 -14.951448 106.603644 0.487923 -0.869677 -0.074785 1.6580765988230895e-38
8.618980 -14.878396 105.764939 0.509201 -0.857392 -0.074785 1.6580765988230895e-38
9.030655 -14.310825 106.244633 0.530171 -0.844586 -0.074785 1.6580765988230895e-38
9.168432 -14.533648 106.278914 0.550818 -0.831268 -0.074785 1.6580765988230895e-38
9.419275 -14.296209 106.248040 0.571131 -0.817445 -0.074785 1.6580765988230895e-38
10.659638 -13.014907 106.745045 0.591098 -0.803126 -0.074785 1.6580765988230895e-38
10.622661 -14.043913 107.194619 0.610705 -0.788319 -0.074785 1.6580765988230895e-38
10.875502 -13.531369 107.197650 0.629942 -0.773033 -0.074785 1.6580765988230895e-38
11.050334 -12.682208 106.297401 0.648796 -0.757278 -0.074785 1.6580765988230895e-38
11.565421 -12.449694 106.649776 0.667257 -0.741064 -0.074785 1.6580765988230895e-38
12.088505 -12.324413 106.454703 0.685312 -0.724399 -0.074785 1.6580765988230895e-38
11.990351 -12.392112 106.120348 0.702952 -0.707295 -0.074785 1.6580765988230895e-38
12.206214 -11.400791 106.532978 0.720164 -0.689761 -0.074785 1.6580765988230895e-38
12.557193 -11.551983 106.041657 0.736939 -0.671809 -0.074785 1.6580765988230895e-38
12.594342 -11.112881 106.394237 0.753267 -0.653449 -0.074785 1.6580765988230895e-38
13.368505 -10.903949 106.561985 0.769138 -0.634692 -0.074785 1.6580765988230895e-38
12.938697 -10.796940 106.470829 0.784542 -0.615550 -0.074785 1.6580765988230895e-38
13.657906 -9.957508 106.744442 0.799469 -0.596034 -0.074785 1.6580765988230895e-38
14.266035 -9.363555 106.938010 0.813911 -0.576156 -0.074785 1.6580765988230895e-38
14.030969 -8.804033 107.258553 0.827859 -0.555928 -0.074785 1.6580765988230895e-38
13.976729 -9.319331 106.499808 0.841305 -0.535363 -0.074785 1.6580765988230895e-38
8.406894 -14.457886 107.922270 0.459698 -0.868866 -0.183708 1.6580765988230895e-38
8.220641 -15.146817 107.005945 0.480966 -0.857277 -0.183708 1.6580765988230895e-38
8.535637 -15.162976 107.805286 0.501941 -0.845167 -0.183708 1.6580765988230895e-38
9.427943 -13.884086 108.555077 0.522611 -0.832544 -0.183708 1.6580765988230895e-38
9.571311 -14.506751 107.511555 0.542964 -0.819415 -0.183708 1.6580765988230895e-38
9.639185 -13.390477 106.797792 0.562988 -0.805789 -0.183708 1.6580765988230895e-38
10.677204 -14.126708 107.511500 0.582669 -0.791674 -0.183708 1.6580765988230895e-38
9.755109 -13.274921 107.866810 0.601997 -0.777078 -0.183708 1.6580765988230895e-38
10.532838 -12.995623 107.903365 0.620960 -0.762011 -0.183708 1.6580765988230895e-38
11.026849 -13.671980 107.563143 0.639545 -0.746481 -0.183708 1.6580765988230895e-38
11.816691 -13.051187 107.953253 0.657743 -0.730497 -0.183708 1.6580765988230895e-38
11.557296 -12.516551 107.407912 0.675541 -0.714070 -0.183708 1.6580765988230895e-38
12.166552 -11.948119 108.118090 0.692928 -0.697210 -0.183708 1.6580765988230895e-38
12.478874 -12.359818 107.818488 0.709895 -0.679926 -0.183708 1.6580765988230895e-38
12.616242 -11.678468 107.660607 0.726432 -0.662230 -0.183708 1.6580765988230895e-38
13.154861 -11.390198 107.803153 0.742527 -0.644132 -0.183708 1.6580765988230895e-38
13.382151 -10.768230 107.892821 0.758171 -0.625642 -0.183708 1.6580765988230895e-38
12.864420 -10.730535 107.583054 0.773355 -0.606773 -0.183708 1.6580765988230895e-38
13.708952 -10.536079 107.433130 0.788070 -0.587535 -0.183708 1.6580765988230895e-38
14.189032 -9.795270 107.638629 0.802306 -0.567941 -0.183708 1.6580765988230895e-38
13.971938 -9.326908 107.865086 0.816055 -0.548001 -0.183708 1.6580765988230895e-38
8.262083 -14.899268 108.397582 0.449719 -0.850004 -0.274309 1.6580765988230895e-38
8.633622 -15.262408 108.902951 0.470524 -0.838666 -0.274309 1.6580765988230895e-38
9.125798 -15.262579 108.717322 0.491044 -0.826819 -0.274309 1.6580765988230895e-38
9.539635 -14.834649 108.600518 0.511266 -0.814470 -0.274309 1.6580765988230895e-38
9.917349 -14.364632 108.935251 0.531177 -0.801627 -0.274309 1.6580765988230895e-38
10.159746 -14.144072 108.859299 0.550766 -0.788297 -0.274309 1.6580765988230895e-38
10.478421 -14.420778 108.823982 0.570020 -0.774488 -0.274309 1.6580765988230895e-38
11.018513 -13.144382 108.922938 0.588929 -0.760209 -0.274309 1.6580765988230895e-38
10.795276 -13.642058 108.450509 0.607480 -0.745468 -0.274309 1.6580765988230895e-38
11.598433 -13.245638 108.599281 0.625662 -0.730275 -0.274309 1.6580765988230895e-38
11.663462 -12.763377 108.901200 0.643464 -0.714639 -0.274309 1.6580765988230895e-38
11.830955 -12.375921 108.989049 0.660875 -0.698569 -0.274309 1.6580765988230895e-38
12.117247 -12.375229 108.251685 0.677886 -0.682074 -0.274309 1.6580765988230895e-38
12.726619 -11.236861 109.213395 0.694485 -0.665166 -0.274309 1.6580765988230895e-38
12.891297 -11.686981 109.048168 0.710662 -0.647854 -0.274309 1.6580765988230895e-38
13.410703 -11.474991 108.230584 0.726407 -0.630148 -0.274309 1.6580765988230895e-38
13.400838 -11.290886 108.854122 0.741712 -0.612060 -0.274309 1.6580765988230895e-38
13.550505 -10.594159 109.492164 0.756567 -0.593600 -0.274309 1.6580765988230895e-38
14.329686 -10.454879 109.337991 0.770962 -0.574780 -0.274309 1.6580765988230895e-38
14.573100 -9.867023 108.711586 0.784889 -0.555611 -0.274309 1.6580765988230895e-38
14.490867 -9.555865 109.530229 0.798339 -0.536105 -0.274309 1.6580765988230895e-38
8.421426 -15.516847 110.646842 0.459934 -0.819790 -0.341182 1.6580765988230895e-38
9.245781 -15.412314 110.043854 0.479992 -0.808210 -0.341182 1.6580765988230895e-38
9.337371 -14.820515 110.226671 0.499759 -0.796139 -0.341182 1.6580765988230895e-38
9.379741 -14.586643 109.841925 0.519222 -0.783584 -0.341182 1.6580765988230895e-38
10.049441 -14.544455 109.923620 0.538370 -0.770554 -0.341182 1.6580765988230895e-38
11.277270 -14.479805 110.293040 0.557191 -0.757056 -0.341182 1.6580765988230895e-38
10.492839 -14.327495 110.063819 0.575673 -0.743098 -0.341182 1.6580765988230895e-38
11.600344 -14.191249 110.462921 0.593807 -0.728690 -0.341182 1.6580765988230895e-38
11.677747 -13.487506 109.879491 0.611580 -0.713839 -0.341182 1.6580765988230895e-38
11.681182 -13.948060 110.192998 0.628981 -0.698554 -0.341182 1.6580765988230895e-38
12.482828 -13.104450 109.628042 0.646001 -0.682846 -0.341182 1.6580765988230895e-38
12.444270 -12.577099 110.158302 0.662628 -0.666723 -0.341182 1.6580765988230895e-38
13.121492 -12.859695 109.981592 0.678853 -0.650195 -0.341182 1.6580765988230895e-38
13.190807 -11.862458 109.922080 0.694666 -0.633272 -0.341182 1.6580765988230895e-38
13.674253 -12.007831 110.168192 0.710058 -0.615965 -0.341182 1.6580765988230895e-38
13.710540 -11.491963 110.827035 0.725018 -0.598284 -0.341182 1.6580765988230895e-38
13.974986 -11.169938 109.675701 0.739538 -0.580240 -0.341182 1.6580765988230895e-38
14.639683 -10.856056 110.093482 0.753609 -0.561843 -0.341182 1.6580765988230895e-38
14.348462 -10.211642 110.382790 0.767223 -0.543106 -0.341182 1.6580765988230895e-38
9.483034 -15.809411 111.113634 0.452019 -0.805683 -0.382823 1.6580765988230895e-38
9.485227 -15.391168 110.890466 0.471732 -0.794302 -0.382823 1.6580765988230895e-38
10.097858 -15.414476 111.907208 0.491159 -0.782439 -0.382823 1.6580765988230895e-38
10.277531 -15.270752 111.545342 0.510287 -0.770100 -0.382823 1.6580765988230895e-38
10.151313 -15.306408 111.361012 0.529105 -0.757294 -0.382823 1.6580765988230895e-38
10.734078 -14.981332 111.951579 0.547602 -0.744029 -0.382823 1.6580765988230895e-38
11.790651 -15.287494 111.352232 0.565767 -0.730311 -0.382823 1.6580765988230895e-38
11.249377 -13.898224 111.406974 0.583588 -0.716150 -0.382823 1.6580765988230895e-38
