# .PCD v0.7 - Point Cloud Data file format
VERSION 0.7
FIELDS x y z normal_x normal_y normal_z rgb
SIZE 4 4 4 4 4 4 4
TYPE F F F F F F F
COUNT 1 1 1 1 1 1 1
WIDTH 195
HEIGHT 1
VIEWPOINT 0 0 0 1 0 0 0
POINTS 195
DATA ascii
50.216999 -0.413326 60.689309 1.000000 0.000000 0.000000 1.75027152803718e-38
49.790042 0.885172 60.705725 0.999696 0.024637 0.000000 1.75027152803718e-38
49.938094 2.580861 60.733078 0.998786 0.049260 0.000000 1.75027152803718e-38
49.556173 3.923781 60.704062 0.997269 0.073853 0.000000 1.75027152803718e-38
49.702213 4.891202 60.849300 0.995147 0.098400 0.000000 1.75027152803718e-38
50.278421 0.120825 62.541610 1.000000 0.000000 0.000000 1.75027152803718e-38
50.465885 0.510593 61.655791 0.999696 0.024637 0.000000 1.75027152803718e-38
49.941949 2.757527 61.827524 0.998786 0.049260 0.000000 1.75027152803718e-38
50.545736 3.902992 62.037842 0.997269 0.073853 0.000000 1.75027152803718e-38
49.752803 5.107321 62.265647 0.995147 0.098400 0.000000 1.75027152803718e-38
49.548353 6.094029 61.961996 0.992421 0.122888 0.000000 1.75027152803718e-38
49.844229 7.849711 62.074222 0.989092 0.147302 0.000000 1.75027152803718e-38
49.738752 8.889073 62.084957 0.985162 0.171626 0.000000 1.75027152803718e-38
50.680832 -0.037119 62.677857 1.000000 0.000000 0.000000 1.75027152803718e-38
50.261783 1.703863 62.899996 0.999696 0.024637 0.000000 1.75027152803718e-38
50.787511 2.168169 63.088285 0.998786 0.049260 0.000000 1.75027152803718e-38
50.336201 3.651176 62.990783 0.997269 0.073853 0.000000 1.75027152803718e-38
50.794182 5.557950 63.164073 0.995147 0.098400 0.000000 1.75027152803718e-38
50.099222 5.820191 62.673363 0.992421 0.122888 0.000000 1.75027152803718e-38
50.489374 7.013860 62.960682 0.989092 0.147302 0.000000 1.75027152803718e-38
49.902307 7.904924 62.717605 0.985162 0.171626 0.000000 1.75027152803718e-38
49.225067 9.711362 63.170388 0.980635 0.195845 0.000000 1.75027152803718e-38
49.675680 10.931671 62.954286 0.975512 0.219946 0.000000 1.75027152803718e-38
49.042255 12.101984 63.218126 0.969797 0.243914 0.000000 1.75027152803718e-38
50.947300 -0.173979 64.708116 1.000000 0.000000 0.000000 1.75027152803718e-38
51.001488 1.000004 64.074118 0.999696 0.024637 0.000000 1.75027152803718e-38
50.720770 2.639030 63.665865 0.998786 0.049260 0.000000 1.75027152803718e-38
50.469343 3.582036 63.898601 0.997269 0.073853 0.000000 1.75027152803718e-38
50.295052 5.044683 64.183223 0.995147 0.098400 0.000000 1.75027152803718e-38
50.339851 5.835075 64.265842 0.992421 0.122888 0.000000 1.75027152803718e-38
49.842461 7.927758 64.852895 0.989092 0.147302 0.000000 1.75027152803718e-38
49.951928 8.390151 64.586278 0.985162 0.171626 0.000000 1.75027152803718e-38
50.041373 10.520843 64.972220 0.980635 0.195845 0.000000 1.75027152803718e-38
48.995135 11.531508 64.263145 0.975512 0.219946 0.000000 1.75027152803718e-38
49.477304 12.635966 64.550671 0.969797 0.243914 0.000000 1.75027152803718e-38
49.292151 13.445702 64.044033 0.963493 0.267733 0.000000 1.75027152803718e-38
48.997834 14.555171 64.888317 0.956604 0.291390 0.000000 1.75027152803718e-38
48.032637 15.896349 64.272774 0.949135 0.314870 0.000000 1.75027152803718e-38
47.390521 16.733339 64.603507 0.941089 0.338158 0.000000 1.75027152803718e-38
50.562660 -0.258236 65.404221 1.000000 0.000000 0.000000 1.75027152803718e-38
51.358433 1.275315 65.960032 0.999696 0.024637 0.000000 1.75027152803718e-38
50.927399 2.500494 65.468406 0.998786 0.049260 0.000000 1.75027152803718e-38
51.557619 3.436995 65.414551 0.997269 0.073853 0.000000 1.75027152803718e-38
50.547885 5.199187 65.224707 0.995147 0.098400 0.000000 1.75027152803718e-38
51.248628 6.302470 65.690724 0.992421 0.122888 0.000000 1.75027152803718e-38
50.670844 7.519510 65.603510 0.989092 0.147302 0.000000 1.75027152803718e-38
50.356584 8.923994 65.320300 0.985162 0.171626 0.000000 1.75027152803718e-38
49.802237 10.251881 65.566435 0.980635 0.195845 0.000000 1.75027152803718e-38
49.236204 11.094330 66.026003 0.975512 0.219946 0.000000 1.75027152803718e-38
49.498050 12.302063 65.118572 0.969797 0.243914 0.000000 1.75027152803718e-38
49.053758 13.329143 65.695772 0.963493 0.267733 0.000000 1.75027152803718e-38
48.886956 14.777834 65.338345 0.956604 0.291390 0.000000 1.75027152803718e-38
48.948491 15.874845 65.356531 0.949135 0.314870 0.000000 1.75027152803718e-38
48.006620 17.245305 65.711624 0.941089 0.338158 0.000000 1.75027152803718e-38
47.918407 18.712225 66.295979 0.932472 0.361242 0.000000 1.75027152803718e-38
46.662253 19.692916 65.410858 0.923289 0.384106 0.000000 1.75027152803718e-38
47.275248 20.832537 64.958109 0.913545 0.406737 0.000000 1.75027152803718e-38
51.697283 0.112190 66.544227 1.000000 0.000000 0.000000 1.75027152803718e-38
51.533960 1.086350 66.733287 0.999696 0.024637 0.000000 1.75027152803718e-38
50.924956 2.533535 67.109581 0.998786 0.049260 0.000000 1.75027152803718e-38
51.045511 3.984409 66.789151 0.997269 0.073853 0.000000 1.75027152803718e-38
51.403531 4.911870 67.270630 0.995147 0.098400 0.000000 1.75027152803718e-38
51.144362 6.380929 66.888276 0.992421 0.122888 0.000000 1.75027152803718e-38
50.629520 7.402037 66.882781 0.989092 0.147302 0.000000 1.75027152803718e-38
50.207706 8.628855 66.522947 0.985162 0.171626 0.000000 1.75027152803718e-38
50.506482 10.228647 67.184470 0.980635 0.195845 0.000000 1.75027152803718e-38
49.971592 11.047281 66.363335 0.975512 0.219946 0.000000 1.75027152803718e-38
49.859926 12.938869 66.781740 0.969797 0.243914 0.000000 1.75027152803718e-38
49.463064 13.740585 66.880327 0.963493 0.267733 0.000000 1.75027152803718e-38
49.400598 15.532481 66.953616 0.956604 0.291390 0.000000 1.75027152803718e-38
48.887365 16.090140 66.771780 0.949135 0.314870 0.000000 1.75027152803718e-38
48.268714 17.247459 66.842382 0.941089 0.338158 0.000000 1.75027152803718e-38
48.050266 18.561216 66.719968 0.932472 0.361242 0.000000 1.75027152803718e-38
47.429244 19.427781 67.045126 0.923289 0.384106 0.000000 1.75027152803718e-38
46.767365 20.530867 66.942647 0.913545 0.406737 0.000000 1.75027152803718e-38
46.516129 21.768323 66.991194 0.903247 0.429121 0.000000 1.75027152803718e-38
45.996139 23.754340 66.733616 0.892401 0.451244 0.000000 1.75027152803718e-38
51.703927 0.244269 67.721624 1.000000 0.000000 0.000000 1.75027152803718e-38
51.687624 1.540654 67.834431 0.999696 0.024637 0.000000 1.75027152803718e-38
50.722971 2.584902 67.976757 0.998786 0.049260 0.000000 1.75027152803718e-38
51.829711 3.646879 67.829734 0.997269 0.073853 0.000000 1.75027152803718e-38
50.965570 4.885207 68.841323 0.995147 0.098400 0.000000 1.75027152803718e-38
50.700408 5.936425 68.024946 0.992421 0.122888 0.000000 1.75027152803718e-38
51.597110 7.818408 68.506936 0.989092 0.147302 0.000000 1.75027152803718e-38
50.686598 8.433234 67.906472 0.985162 0.171626 0.000000 1.75027152803718e-38
50.531234 10.102501 67.977042 0.980635 0.195845 0.000000 1.75027152803718e-38
50.481696 11.128455 67.763090 0.975512 0.219946 0.000000 1.75027152803718e-38
49.648382 12.639469 68.072962 0.969797 0.243914 0.000000 1.75027152803718e-38
50.012125 14.270354 67.679025 0.963493 0.267733 0.000000 1.75027152803718e-38
49.336522 14.964563 67.580218 0.956604 0.291390 0.000000 1.75027152803718e-38
48.785835 16.706946 67.851426 0.949135 0.314870 0.000000 1.75027152803718e-38
48.289695 17.422279 68.314744 0.941089 0.338158 0.000000 1.75027152803718e-38
47.993632 18.666548 67.355857 0.932472 0.361242 0.000000 1.75027152803718e-38
47.783184 19.873619 68.306641 0.923289 0.384106 0.000000 1.75027152803718e-38
46.548746 20.883548 68.330492 0.913545 0.406737 0.000000 1.75027152803718e-38
51.732822 -0.333710 68.891991 1.000000 0.000000 0.000000 1.75027152803718e-38
51.738341 0.859859 69.772725 0.999696 0.024637 0.000000 1.75027152803718e-38
51.770132 3.179673 69.147666 0.998786 0.049260 0.000000 1.75027152803718e-38
51.485314 4.003112 69.200566 0.997269 0.073853 0.000000 1.75027152803718e-38
51.844454 5.528987 69.608096 0.995147 0.098400 0.000000 1.75027152803718e-38
51.820615 6.611373 69.113635 0.992421 0.122888 0.000000 1.75027152803718e-38
51.580803 7.840088 69.093032 0.989092 0.147302 0.000000 1.75027152803718e-38
50.888009 8.863343 69.611794 0.985162 0.171626 0.000000 1.75027152803718e-38
50.835821 10.143872 69.230605 0.980635 0.195845 0.000000 1.75027152803718e-38
50.429356 11.044911 69.516918 0.975512 0.219946 0.000000 1.75027152803718e-38
49.934076 12.655979 69.155695 0.969797 0.243914 0.000000 1.75027152803718e-38
50.142640 13.767022 68.976478 0.963493 0.267733 0.000000 1.75027152803718e-38
49.852668 14.847339 69.324755 0.956604 0.291390 0.000000 1.75027152803718e-38
49.551067 16.092443 69.247296 0.949135 0.314870 0.000000 1.75027152803718e-38
48.622774 17.557365 69.257811 0.941089 0.338158 0.000000 1.75027152803718e-38
48.581853 18.527525 69.660606 0.932472 0.361242 0.000000 1.75027152803718e-38
48.311411 19.975154 69.041307 0.923289 0.384106 0.000000 1.75027152803718e-38
52.138815 0.275852 70.482669 1.000000 0.000000 0.000000 1.75027152803718e-38
52.290338 1.593452 70.390332 0.999696 0.024637 0.000000 1.75027152803718e-38
52.541108 2.786979 70.386039 0.998786 0.049260 0.000000 1.75027152803718e-38
52.080824 4.154719 70.692368 0.997269 0.073853 0.000000 1.75027152803718e-38
51.846739 4.085214 70.225257 0.995147 0.098400 0.000000 1.75027152803718e-38
51.847877 6.098781 70.669623 0.992421 0.122888 0.000000 1.75027152803718e-38
51.736487 7.631608 69.986064 0.989092 0.147302 0.000000 1.75027152803718e-38
51.045561 9.136614 70.892552 0.985162 0.171626 0.000000 1.75027152803718e-38
50.406493 10.215792 70.075214 0.980635 0.195845 0.000000 1.75027152803718e-38
50.791535 11.398621 71.223581 0.975512 0.219946 0.000000 1.75027152803718e-38
50.305358 13.007597 70.818151 0.969797 0.243914 0.000000 1.75027152803718e-38
50.080488 13.968139 70.515607 0.963493 0.267733 0.000000 1.75027152803718e-38
49.557346 14.914469 70.392514 0.956604 0.291390 0.000000 1.75027152803718e-38
49.050251 16.235295 70.456824 0.949135 0.314870 0.000000 1.75027152803718e-38
49.021631 17.730431 70.456563 0.941089 0.338158 0.000000 1.75027152803718e-38
48.293941 18.926223 70.752754 0.932472 0.361242 0.000000 1.75027152803718e-38
52.554060 0.674286 71.744684 1.000000 0.000000 0.000000 1.75027152803718e-38
51.859610 1.109347 71.893078 0.999696 0.024637 0.000000 1.75027152803718e-38
51.709405 2.346259 71.653642 0.998786 0.049260 0.000000 1.75027152803718e-38
52.161589 4.399326 71.958921 0.997269 0.073853 0.000000 1.75027152803718e-38
51.683539 6.303800 71.747621 0.995147 0.098400 0.000000 1.75027152803718e-38
51.371059 6.112026 71.442839 0.992421 0.122888 0.000000 1.75027152803718e-38
51.296785 7.853551 70.952502 0.989092 0.147302 0.000000 1.75027152803718e-38
51.790460 9.215433 71.615634 0.985162 0.171626 0.000000 1.75027152803718e-38
51.533842 9.909289 71.499880 0.980635 0.195845 0.000000 1.75027152803718e-38
51.156217 11.434036 71.565045 0.975512 0.219946 0.000000 1.75027152803718e-38
50.658560 13.145335 72.136576 0.969797 0.243914 0.000000 1.75027152803718e-38
50.490950 13.888143 71.909001 0.963493 0.267733 0.000000 1.75027152803718e-38
49.744295 15.582027 72.037705 0.956604 0.291390 0.000000 1.75027152803718e-38
50.192066 16.218013 71.474688 0.949135 0.314870 0.000000 1.75027152803718e-38
52.495038 0.189011 72.989851 1.000000 0.000000 0.000000 1.75027152803718e-38
52.085254 0.960409 73.170194 0.999696 0.024637 0.000000 1.75027152803718e-38
52.025711 2.471935 72.955444 0.998786 0.049260 0.000000 1.75027152803718e-38
52.048263 3.377057 72.637260 0.997269 0.073853 0.000000 1.75027152803718e-38
51.703930 5.349666 73.108933 0.995147 0.098400 0.000000 1.75027152803718e-38
51.875819 6.041631 73.339579 0.992421 0.122888 0.000000 1.75027152803718e-38
52.061039 7.547270 73.345827 0.989092 0.147302 0.000000 1.75027152803718e-38
51.763917 9.106035 72.677099 0.985162 0.171626 0.000000 1.75027152803718e-38
51.030065 9.811188 73.614601 0.980635 0.195845 0.000000 1.75027152803718e-38
50.967709 11.567097 73.127575 0.975512 0.219946 0.000000 1.75027152803718e-38
50.909686 12.759596 72.936726 0.969797 0.243914 0.000000 1.75027152803718e-38
50.728957 13.744482 72.857530 0.963493 0.267733 0.000000 1.75027152803718e-38
49.532183 14.739527 72.600276 0.956604 0.291390 0.000000 1.75027152803718e-38
53.199854 -0.244741 74.256385 1.000000 0.000000 0.000000 1.75027152803718e-38
52.849067 1.512845 74.542185 0.999696 0.024637 0.000000 1.75027152803718e-38
52.535053 2.792886 73.949048 0.998786 0.049260 0.000000 1.75027152803718e-38
52.561983 4.044565 74.519421 0.997269 0.073853 0.000000 1.75027152803718e-38
52.644455 5.215741 74.202959 0.995147 0.098400 0.000000 1.75027152803718e-38
52.494264 7.136577 74.483181 0.992421 0.122888 0.000000 1.75027152803718e-38
52.268560 7.356422 73.973461 0.989092 0.147302 0.000000 1.75027152803718e-38
51.849679 9.322706 73.945775 0.985162 0.171626 0.000000 1.75027152803718e-38
51.900908 10.362702 74.333283 0.980635 0.195845 0.000000 1.75027152803718e-38
51.373264 11.418626 73.934675 0.975512 0.219946 0.000000 1.75027152803718e-38
51.320179 12.838380 73.903632 0.969797 0.243914 0.000000 1.75027152803718e-38
50.871291 15.144360 74.166362 0.963493 0.267733 0.000000 1.75027152803718e-38
52.886879 -0.127398 75.305383 1.000000 0.000000 0.000000 1.75027152803718e-38
53.021773 1.107496 75.361778 0.999696 0.024637 0.000000 1.75027152803718e-38
52.743882 2.598959 75.573309 0.998786 0.049260 0.000000 1.75027152803718e-38
52.406100 4.046756 75.543193 0.997269 0.073853 0.000000 1.75027152803718e-38
52.822666 5.250664 75.572387 0.995147 0.098400 0.000000 1.75027152803718e-38
52.428003 6.640445 75.807288 0.992421 0.122888 0.000000 1.75027152803718e-38
52.227810 7.662496 75.653069 0.989092 0.147302 0.000000 1.75027152803718e-38
52.002146 8.872506 75.590569 0.985162 0.171626 0.000000 1.75027152803718e-38
51.799460 10.737338 75.324054 0.980635 0.195845 0.000000 1.75027152803718e-38
51.411593 11.645619 75.594547 0.975512 0.219946 0.000000 1.75027152803718e-38
51.450788 13.077898 75.297971 0.969797 0.243914 0.000000 1.75027152803718e-38
52.719412 0.475337 77.042078 1.000000 0.000000 0.000000 1.75027152803718e-38
53.190454 1.669745 76.552734 0.999696 0.024637 0.000000 1.75027152803718e-38
52.823117 2.666645 76.235208 0.998786 0.049260 0.000000 1.75027152803718e-38
52.697498 4.090326 76.773026 0.997269 0.073853 0.000000 1.75027152803718e-38
52.503186 5.109810 76.299610 0.995147 0.098400 0.000000 1.75027152803718e-38
52.626135 6.355314 76.998700 0.992421 0.122888 0.000000 1.75027152803718e-38
52.548650 7.759902 76.583301 0.989092 0.147302 0.000000 1.75027152803718e-38
51.870555 9.096732 76.845880 0.985162 0.171626 0.000000 1.75027152803718e-38
52.215469 10.622014 76.923418 0.980635 0.195845 0.000000 1.75027152803718e-38
52.859657 -0.099494 78.229346 1.000000 0.000000 0.000000 1.75027152803718e-38
53.727889 1.544379 77.892944 0.999696 0.024637 0.000000 1.75027152803718e-38
53.768752 2.413442 77.835838 0.998786 0.049260 0.000000 1.75027152803718e-38
52.822013 3.839688 77.679628 0.997269 0.073853 0.000000 1.75027152803718e-38
53.596338 5.656295 77.957128 0.995147 0.098400 0.000000 1.75027152803718e-38
53.129486 6.380249 77.177149 0.992421 0.122888 0.000000 1.75027152803718e-38
52.582920 8.089431 78.069591 0.989092 0.147302 0.000000 1.75027152803718e-38
52.484232 9.385650 77.796896 0.985162 0.171626 0.000000 1.75027152803718e-38
