# .PCD v0.7 - Point Cloud Data file format
VERSION 0.7
FIELDS x y z normal_x normal_y normal_z rgb
SIZE 4 4 4 4 4 4 4
TYPE F F F F F F F
COUNT 1 1 1 1 1 1 1
WIDTH 282
HEIGHT 1
VIEWPOINT 0 0 0 1 0 0 0
POINTS 282
DATA ascii
-12.976416 49.581344 65.581090 -0.249883 0.968276 0.000000 1.5843200949324314e-38
-13.558290 49.268761 65.519935 -0.273663 0.961826 0.000000 1.5843200949324314e-38
-14.979612 48.768749 65.622160 -0.297277 0.954791 0.000000 1.5843200949324314e-38
-13.097505 49.488396 66.732658 -0.249883 0.968276 0.000000 1.5843200949324314e-38
-13.923867 49.135194 66.844947 -0.273663 0.961826 0.000000 1.5843200949324314e-38
-15.296750 48.316815 66.967616 -0.297277 0.954791 0.000000 1.5843200949324314e-38
-16.597015 48.238444 66.586324 -0.320710 0.947177 0.000000 1.5843200949324314e-38
-17.593641 48.211140 66.997453 -0.343949 0.938988 0.000000 1.5843200949324314e-38
-12.863926 49.682084 67.753647 -0.249883 0.968276 0.000000 1.5843200949324314e-38
-14.605262 49.378781 68.683055 -0.273663 0.961826 0.000000 1.5843200949324314e-38
-15.777761 48.883008 67.799560 -0.297277 0.954791 0.000000 1.5843200949324314e-38
-16.765744 48.924135 67.857694 -0.320710 0.947177 0.000000 1.5843200949324314e-38
-17.796057 48.166204 67.898670 -0.343949 0.938988 0.000000 1.5843200949324314e-38
-18.941992 47.929007 68.635466 -0.366979 0.930229 0.000000 1.5843200949324314e-38
-20.108644 47.425649 67.292148 -0.389786 0.920906 0.000000 1.5843200949324314e-38
-21.192106 46.386413 68.206746 -0.412356 0.911023 0.000000 1.5843200949324314e-38
-12.998101 50.234481 69.514222 -0.249883 0.968276 0.000000 1.5843200949324314e-38
-14.215148 50.002533 68.939707 -0.273663 0.961826 0.000000 1.5843200949324314e-38
-15.897041 49.301791 69.510776 -0.297277 0.954791 0.000000 1.5843200949324314e-38
-16.827366 49.262759 68.970258 -0.320710 0.947177 0.000000 1.5843200949324314e-38
-17.992662 48.715906 69.078124 -0.343949 0.938988 0.000000 1.5843200949324314e-38
-19.160333 47.407017 69.530124 -0.366979 0.930229 0.000000 1.5843200949324314e-38
-20.228023 47.422933 69.828132 -0.389786 0.920906 0.000000 1.5843200949324314e-38
-21.598421 47.039898 68.989815 -0.412356 0.911023 0.000000 1.5843200949324314e-38
-22.186819 47.084074 69.678518 -0.434676 0.900587 0.000000 1.5843200949324314e-38
-23.263241 45.905797 69.780079 -0.456733 0.889604 0.000000 1.5843200949324314e-38
-12.673033 50.111101 69.989737 -0.249883 0.968276 0.000000 1.5843200949324314e-38
-13.859375 49.738142 70.368131 -0.273663 0.961826 0.000000 1.5843200949324314e-38
-15.441072 49.364341 70.792794 -0.297277 0.954791 0.000000 1.5843200949324314e-38
-16.683072 49.025292 70.277287 -0.320710 0.947177 0.000000 1.5843200949324314e-38
-17.509570 48.780131 70.699805 -0.343949 0.938988 0.000000 1.5843200949324314e-38
-19.100104 47.881584 70.739517 -0.366979 0.930229 0.000000 1.5843200949324314e-38
-19.961806 48.475479 69.945291 -0.389786 0.920906 0.000000 1.5843200949324314e-38
-22.406033 47.600183 70.335667 -0.412356 0.911023 0.000000 1.5843200949324314e-38
-23.049009 46.897644 70.380673 -0.434676 0.900587 0.000000 1.5843200949324314e-38
-24.150641 46.269021 70.685415 -0.456733 0.889604 0.000000 1.5843200949324314e-38
-11.566267 50.711412 71.409502 -0.225951 0.974139 0.000000 1.5843200949324314e-38
-13.310804 50.832329 71.085558 -0.249883 0.968276 0.000000 1.5843200949324314e-38
-14.309361 50.196190 72.119731 -0.273663 0.961826 0.000000 1.5843200949324314e-38
-15.574234 49.797701 72.147382 -0.297277 0.954791 0.000000 1.5843200949324314e-38
-16.791538 49.434233 71.605810 -0.320710 0.947177 0.000000 1.5843200949324314e-38
-17.892991 48.982769 71.654216 -0.343949 0.938988 0.000000 1.5843200949324314e-38
-18.747416 48.639033 71.618112 -0.366979 0.930229 0.000000 1.5843200949324314e-38
-20.673175 48.196552 71.584653 -0.389786 0.920906 0.000000 1.5843200949324314e-38
-21.664932 47.364948 71.811647 -0.412356 0.911023 0.000000 1.5843200949324314e-38
-23.112132 47.198346 71.588636 -0.434676 0.900587 0.000000 1.5843200949324314e-38
-23.659052 46.646404 71.783779 -0.456733 0.889604 0.000000 1.5843200949324314e-38
-24.758615 46.365600 72.133126 -0.478512 0.878081 0.000000 1.5843200949324314e-38
-11.651727 51.066565 73.162403 -0.225951 0.974139 0.000000 1.5843200949324314e-38
-13.620568 50.983189 73.214581 -0.249883 0.968276 0.000000 1.5843200949324314e-38
-14.322472 50.845886 73.073279 -0.273663 0.961826 0.000000 1.5843200949324314e-38
-15.563437 50.677812 72.702339 -0.297277 0.954791 0.000000 1.5843200949324314e-38
-16.420174 50.122257 73.243279 -0.320710 0.947177 0.000000 1.5843200949324314e-38
-18.179237 49.401241 72.748403 -0.343949 0.938988 0.000000 1.5843200949324314e-38
-19.435624 48.878000 72.724605 -0.366979 0.930229 0.000000 1.5843200949324314e-38
-20.534398 48.018452 73.185568 -0.389786 0.920906 0.000000 1.5843200949324314e-38
-21.158926 48.489262 72.679635 -0.412356 0.911023 0.000000 1.5843200949324314e-38
-23.078573 47.267290 73.236392 -0.434676 0.900587 0.000000 1.5843200949324314e-38
-24.006813 47.028936 73.183525 -0.456733 0.889604 0.000000 1.5843200949324314e-38
-25.618791 46.151538 72.652169 -0.478512 0.878081 0.000000 1.5843200949324314e-38
-10.688625 51.048002 75.113565 -0.225951 0.974139 0.000000 1.5843200949324314e-38
-12.848239 51.023418 74.294793 -0.249883 0.968276 0.000000 1.5843200949324314e-38
-14.543683 50.820498 74.005701 -0.273663 0.961826 0.000000 1.5843200949324314e-38
-15.462499 50.400065 73.929951 -0.297277 0.954791 0.000000 1.5843200949324314e-38
-16.782678 50.053613 74.011664 -0.320710 0.947177 0.000000 1.5843200949324314e-38
-18.264493 49.665933 74.554026 -0.343949 0.938988 0.000000 1.5843200949324314e-38
-19.393206 49.329525 74.576923 -0.366979 0.930229 0.000000 1.5843200949324314e-38
-20.162152 48.683787 73.956279 -0.389786 0.920906 0.000000 1.5843200949324314e-38
-21.475865 47.980155 74.378756 -0.412356 0.911023 0.000000 1.5843200949324314e-38
-23.108879 47.307244 74.016386 -0.434676 0.900587 0.000000 1.5843200949324314e-38
-24.480679 46.732161 73.916916 -0.456733 0.889604 0.000000 1.5843200949324314e-38
-25.061694 45.981135 74.025975 -0.478512 0.878081 0.000000 1.5843200949324314e-38
-26.363689 46.208630 74.019173 -0.500000 0.866025 0.000000 1.5843200949324314e-38
-11.898847 51.311706 75.401363 -0.225951 0.974139 0.000000 1.5843200949324314e-38
-12.912795 50.570339 75.187054 -0.249883 0.968276 0.000000 1.5843200949324314e-38
-14.560966 51.046768 75.829843 -0.273663 0.961826 0.000000 1.5843200949324314e-38
-16.251203 50.984729 75.620155 -0.297277 0.954791 0.000000 1.5843200949324314e-38
-17.055100 49.716184 75.292187 -0.320710 0.947177 0.000000 1.5843200949324314e-38
-17.905937 49.731181 75.409675 -0.343949 0.938988 0.000000 1.5843200949324314e-38
-19.724464 49.479817 75.419005 -0.366979 0.930229 0.000000 1.5843200949324314e-38
-20.711734 48.737123 75.270343 -0.389786 0.920906 0.000000 1.5843200949324314e-38
-22.080534 47.786498 75.278076 -0.412356 0.911023 0.000000 1.5843200949324314e-38
-23.557933 47.835440 75.263627 -0.434676 0.900587 0.000000 1.5843200949324314e-38
-24.303542 47.097011 75.223260 -0.456733 0.889604 0.000000 1.5843200949324314e-38
-25.691635 46.564522 76.030621 -0.478512 0.878081 0.000000 1.5843200949324314e-38
-26.203993 46.243529 75.074387 -0.500000 0.866025 0.000000 1.5843200949324314e-38
-11.726963 51.928035 76.309583 -0.225951 0.974139 0.000000 1.5843200949324314e-38
-13.372827 51.917618 76.547399 -0.249883 0.968276 0.000000 1.5843200949324314e-38
-14.321574 51.339405 76.928976 -0.273663 0.961826 0.000000 1.5843200949324314e-38
-15.678561 50.998766 76.256565 -0.297277 0.954791 0.000000 1.5843200949324314e-38
-16.599408 49.824894 76.794573 -0.320710 0.947177 0.000000 1.5843200949324314e-38
-18.304278 49.743721 76.408483 -0.343949 0.938988 0.000000 1.5843200949324314e-38
-19.349448 49.706043 76.670109 -0.366979 0.930229 0.000000 1.5843200949324314e-38
-20.813931 49.354271 76.574518 -0.389786 0.920906 0.000000 1.5843200949324314e-38
-21.940011 48.383231 77.442269 -0.412356 0.911023 0.000000 1.5843200949324314e-38
-23.366238 48.138803 76.191226 -0.434676 0.900587 0.000000 1.5843200949324314e-38
-24.574479 47.212598 76.661743 -0.456733 0.889604 0.000000 1.5843200949324314e-38
-25.527539 46.662807 76.494323 -0.478512 0.878081 0.000000 1.5843200949324314e-38
-26.201604 45.751425 76.924368 -0.500000 0.866025 0.000000 1.5843200949324314e-38
-27.511111 45.098163 76.590933 -0.521185 0.853444 0.000000 1.5843200949324314e-38
-11.890982 51.787531 78.288359 -0.225951 0.974139 0.000000 1.5843200949324314e-38
-13.277550 51.414091 77.305147 -0.249883 0.968276 0.000000 1.5843200949324314e-38
-14.570008 51.808179 77.666000 -0.273663 0.961826 0.000000 1.5843200949324314e-38
-16.155073 50.885348 78.268515 -0.297277 0.954791 0.000000 1.5843200949324314e-38
-17.675072 50.378631 77.636416 -0.320710 0.947177 0.000000 1.5843200949324314e-38
-18.196214 50.093626 77.834170 -0.343949 0.938988 0.000000 1.5843200949324314e-38
-19.648527 49.904207 78.274625 -0.366979 0.930229 0.000000 1.5843200949324314e-38
-20.504878 49.343546 78.353316 -0.389786 0.920906 0.000000 1.5843200949324314e-38
-22.296880 48.759541 78.642721 -0.412356 0.911023 0.000000 1.5843200949324314e-38
-23.760179 47.925749 77.627391 -0.434676 0.900587 0.000000 1.5843200949324314e-38
-24.300213 47.930958 78.099396 -0.456733 0.889604 0.000000 1.5843200949324314e-38
-25.614891 47.048064 77.851229 -0.478512 0.878081 0.000000 1.5843200949324314e-38
-26.638749 46.426233 78.463991 -0.500000 0.866025 0.000000 1.5843200949324314e-38
-27.693369 45.634175 78.548765 -0.521185 0.853444 0.000000 1.5843200949324314e-38
-10.812358 52.310143 79.283291 -0.201882 0.979410 0.000000 1.5843200949324314e-38
-12.051760 52.102148 79.292164 -0.225951 0.974139 0.000000 1.5843200949324314e-38
-13.242235 52.114415 78.908817 -0.249883 0.968276 0.000000 1.5843200949324314e-38
-14.541393 51.915680 79.264168 -0.273663 0.961826 0.000000 1.5843200949324314e-38
-15.274220 51.131189 78.659941 -0.297277 0.954791 0.000000 1.5843200949324314e-38
-17.447590 50.576340 79.342832 -0.320710 0.947177 0.000000 1.5843200949324314e-38
-18.189172 50.378959 79.263036 -0.343949 0.938988 0.000000 1.5843200949324314e-38
-19.098805 49.619238 79.153396 -0.366979 0.930229 0.000000 1.5843200949324314e-38
-21.031716 49.016566 78.567781 -0.389786 0.920906 0.000000 1.5843200949324314e-38
-21.717012 48.609657 79.100140 -0.412356 0.911023 0.000000 1.5843200949324314e-38
-23.173345 47.922460 78.924933 -0.434676 0.900587 0.000000 1.5843200949324314e-38
-24.491455 47.559203 78.792489 -0.456733 0.889604 0.000000 1.5843200949324314e-38
-25.470320 46.933694 79.216283 -0.478512 0.878081 0.000000 1.5843200949324314e-38
-26.787367 46.717549 79.281178 -0.500000 0.866025 0.000000 1.5843200949324314e-38
-28.198925 46.100840 79.033274 -0.521185 0.853444 0.000000 1.5843200949324314e-38
-29.303039 44.761310 78.472206 -0.542053 0.840344 0.000000 1.5843200949324314e-38
-10.679859 52.653714 79.953851 -0.201882 0.979410 0.000000 1.5843200949324314e-38
-11.781106 52.997190 80.532428 -0.225951 0.974139 0.000000 1.5843200949324314e-38
-13.554922 52.010193 80.542373 -0.249883 0.968276 0.000000 1.5843200949324314e-38
-14.701515 51.896020 80.547355 -0.273663 0.961826 0.000000 1.5843200949324314e-38
-16.220866 51.139915 80.328255 -0.297277 0.954791 0.000000 1.5843200949324314e-38
-17.120336 50.509170 80.343773 -0.320710 0.947177 0.000000 1.5843200949324314e-38
-18.522094 50.390230 80.833187 -0.343949 0.938988 0.000000 1.5843200949324314e-38
-19.381153 50.189517 80.943492 -0.366979 0.930229 0.000000 1.5843200949324314e-38
-20.714732 49.603278 80.269292 -0.389786 0.920906 0.000000 1.5843200949324314e-38
-22.311551 49.145303 80.300833 -0.412356 0.911023 0.000000 1.5843200949324314e-38
-23.849326 48.355281 80.720652 -0.434676 0.900587 0.000000 1.5843200949324314e-38
-25.353526 48.299316 80.584588 -0.456733 0.889604 0.000000 1.5843200949324314e-38
-25.823771 47.344542 80.700703 -0.478512 0.878081 0.000000 1.5843200949324314e-38
-26.899931 46.893996 80.667618 -0.500000 0.866025 0.000000 1.5843200949324314e-38
-27.997571 45.599047 80.383044 -0.521185 0.853444 0.000000 1.5843200949324314e-38
-29.785656 45.360946 80.286462 -0.542053 0.840344 0.000000 1.5843200949324314e-38
-10.910343 52.481458 82.523959 -0.201882 0.979410 0.000000 1.5843200949324314e-38
-12.740938 52.197753 81.931341 -0.225951 0.974139 0.000000 1.5843200949324314e-38
-13.303274 52.098663 81.415867 -0.249883 0.968276 0.000000 1.5843200949324314e-38
-14.647798 52.077896 81.438314 -0.273663 0.961826 0.000000 1.5843200949324314e-38
-15.762788 51.755975 82.050429 -0.297277 0.954791 0.000000 1.5843200949324314e-38
-17.341927 51.416115 81.581003 -0.320710 0.947177 0.000000 1.5843200949324314e-38
-18.420170 50.837978 81.903914 -0.343949 0.938988 0.000000 1.5843200949324314e-38
-19.670878 49.690753 81.461525 -0.366979 0.930229 0.000000 1.5843200949324314e-38
-21.033971 49.893583 81.896943 -0.389786 0.920906 0.000000 1.5843200949324314e-38
-22.113728 49.008323 81.924920 -0.412356 0.911023 0.000000 1.5843200949324314e-38
-23.726933 49.034886 82.048476 -0.434676 0.900587 0.000000 1.5843200949324314e-38
-24.678879 47.868140 81.440670 -0.456733 0.889604 0.000000 1.5843200949324314e-38
-26.180696 47.163222 81.595348 -0.478512 0.878081 0.000000 1.5843200949324314e-38
-27.181278 46.305697 81.504413 -0.500000 0.866025 0.000000 1.5843200949324314e-38
-28.130137 46.007190 81.381009 -0.521185 0.853444 0.000000 1.5843200949324314e-38
-30.002820 45.744818 81.637600 -0.542053 0.840344 0.000000 1.5843200949324314e-38
-30.298933 44.720132 81.798695 -0.562593 0.826734 0.000000 1.5843200949324314e-38
-11.604751 52.013223 82.753476 -0.225951 0.974139 0.000000 1.5843200949324314e-38
-13.498993 52.412097 82.971125 -0.249883 0.968276 0.000000 1.5843200949324314e-38
-14.891281 52.544920 82.741924 -0.273663 0.961826 0.000000 1.5843200949324314e-38
-16.155920 52.309476 83.177036 -0.297277 0.954791 0.000000 1.5843200949324314e-38
-17.442978 51.506818 83.448394 -0.320710 0.947177 0.000000 1.5843200949324314e-38
-19.067610 50.594793 82.714216 -0.343949 0.938988 0.000000 1.5843200949324314e-38
-19.835984 50.736551 82.657137 -0.366979 0.930229 0.000000 1.5843200949324314e-38
-21.420455 49.546915 82.603919 -0.389786 0.920906 0.000000 1.5843200949324314e-38
-22.558675 48.755428 82.718201 -0.412356 0.911023 0.000000 1.5843200949324314e-38
-23.887216 48.789358 83.396017 -0.434676 0.900587 0.000000 1.5843200949324314e-38
-25.246499 48.547120 83.386905 -0.456733 0.889604 0.000000 1.5843200949324314e-38
-25.660067 47.720784 83.280792 -0.478512 0.878081 0.000000 1.5843200949324314e-38
-26.924969 47.297487 82.922200 -0.500000 0.866025 0.000000 1.5843200949324314e-38
-28.581783 46.631108 83.669486 -0.521185 0.853444 0.000000 1.5843200949324314e-38
-29.497503 45.578362 82.920198 -0.542053 0.840344 0.000000 1.5843200949324314e-38
-30.949932 44.579047 82.977955 -0.562593 0.826734 0.000000 1.5843200949324314e-38
-13.443529 52.987406 84.026281 -0.249883 0.968276 0.000000 1.5843200949324314e-38
-15.013777 52.577707 83.893681 -0.273663 0.961826 0.000000 1.5843200949324314e-38
-16.160849 52.129847 83.886532 -0.297277 0.954791 0.000000 1.5843200949324314e-38
-17.545815 51.583257 84.522930 -0.320710 0.947177 0.000000 1.5843200949324314e-38
-19.083300 51.062517 84.529835 -0.343949 0.938988 0.000000 1.5843200949324314e-38
-19.682524 50.547866 84.102316 -0.366979 0.930229 0.000000 1.5843200949324314e-38
-21.077444 50.267100 84.537154 -0.389786 0.920906 0.000000 1.5843200949324314e-38
-22.104299 49.170470 83.645196 -0.412356 0.911023 0.000000 1.5843200949324314e-38
-23.821678 48.461397 84.517443 -0.434676 0.900587 0.000000 1.5843200949324314e-38
-25.307820 48.329631 83.862359 -0.456733 0.889604 0.000000 1.5843200949324314e-38
-26.520563 48.146448 83.950691 -0.478512 0.878081 0.000000 1.5843200949324314e-38
-26.641895 47.557667 84.122761 -0.500000 0.866025 0.000000 1.5843200949324314e-38
-28.995625 46.349194 84.809481 -0.521185 0.853444 0.000000 1.5843200949324314e-38
-29.374431 45.688071 83.940275 -0.542053 0.840344 0.000000 1.5843200949324314e-38
-30.354650 45.108414 84.208879 -0.562593 0.826734 0.000000 1.5843200949324314e-38
-14.722854 52.445811 85.150877 -0.273663 0.961826 0.000000 1.5843200949324314e-38
-16.390990 52.124939 85.208073 -0.297277 0.954791 0.000000 1.5843200949324314e-38
-17.034859 51.626634 85.330132 -0.320710 0.947177 0.000000 1.5843200949324314e-38
-19.012497 51.070510 84.978913 -0.343949 0.938988 0.000000 1.5843200949324314e-38
-20.353565 51.372368 85.523983 -0.366979 0.930229 0.000000 1.5843200949324314e-38
-21.392437 50.104469 85.731416 -0.389786 0.920906 0.000000 1.5843200949324314e-38
-22.774310 49.250655 85.503384 -0.412356 0.911023 0.000000 1.5843200949324314e-38
-24.020791 48.806545 85.033100 -0.434676 0.900587 0.000000 1.5843200949324314e-38
-24.823016 48.560424 85.065486 -0.456733 0.889604 0.000000 1.5843200949324314e-38
-25.996261 47.714043 84.870132 -0.478512 0.878081 0.000000 1.5843200949324314e-38
-27.703212 47.310391 85.125754 -0.500000 0.866025 0.000000 1.5843200949324314e-38
-28.436433 46.950281 85.171823 -0.521185 0.853444 0.000000 1.5843200949324314e-38
-28.807990 45.983900 85.307937 -0.542053 0.840344 0.000000 1.5843200949324314e-38
-31.130191 45.053080 85.286263 -0.562593 0.826734 0.000000 1.5843200949324314e-38
-31.605099 44.208096 85.490539 -0.582791 0.812622 0.000000 1.5843200949324314e-38
-15.219499 52.129742 86.891743 -0.273663 0.961826 0.000000 1.5843200949324314e-38
-16.228211 52.680912 86.838525 -0.297277 0.954791 0.000000 1.5843200949324314e-38
-17.428652 52.153590 86.643182 -0.320710 0.947177 0.000000 1.5843200949324314e-38
-18.460514 51.313553 86.591897 -0.343949 0.938988 0.000000 1.5843200949324314e-38
-20.198071 51.591507 86.408386 -0.366979 0.930229 0.000000 1.5843200949324314e-38
-20.978058 50.066344 86.628021 -0.389786 0.920906 0.000000 1.5843200949324314e-38
-22.655959 49.627400 86.398601 -0.412356 0.911023 0.000000 1.5843200949324314e-38
-23.673939 49.260724 86.308384 -0.434676 0.900587 0.000000 1.5843200949324314e-38
-24.764440 48.753339 86.697302 -0.456733 0.889604 0.000000 1.5843200949324314e-38
-25.899534 48.591870 85.912116 -0.478512 0.878081 0.000000 1.5843200949324314e-38
-27.437510 46.964263 87.415755 -0.500000 0.866025 0.000000 1.5843200949324314e-38
-28.521211 47.069682 86.409806 -0.521185 0.853444 0.000000 1.5843200949324314e-38
-29.816877 46.389542 86.752470 -0.542053 0.840344 0.000000 1.5843200949324314e-38
-30.332706 45.063448 86.532523 -0.562593 0.826734 0.000000 1.5843200949324314e-38
-31.789139 44.739994 86.723722 -0.582791 0.812622 0.000000 1.5843200949324314e-38
-16.414787 52.789232 88.411075 -0.297277 0.954791 0.000000 1.5843200949324314e-38
-17.716606 52.460264 88.089277 -0.320710 0.947177 0.000000 1.5843200949324314e-38
-19.143485 51.633639 87.822848 -0.343949 0.938988 0.000000 1.5843200949324314e-38
-20.491221 51.206624 87.859055 -0.366979 0.930229 0.000000 1.5843200949324314e-38
-21.323607 50.665565 87.634871 -0.389786 0.920906 0.000000 1.5843200949324314e-38
-21.943425 50.166199 88.225022 -0.412356 0.911023 0.000000 1.5843200949324314e-38
-23.773333 49.979288 87.602244 -0.434676 0.900587 0.000000 1.5843200949324314e-38
-25.144395 48.788786 87.663462 -0.456733 0.889604 0.000000 1.5843200949324314e-38
-26.235185 48.215655 87.406905 -0.478512 0.878081 0.000000 1.5843200949324314e-38
-27.588000 47.510717 88.099273 -0.500000 0.866025 0.000000 1.5843200949324314e-38
-29.096309 46.780730 87.609934 -0.521185 0.853444 0.000000 1.5843200949324314e-38
-29.586392 46.050551 88.148870 -0.542053 0.840344 0.000000 1.5843200949324314e-38
-30.953555 45.612652 88.166762 -0.562593 0.826734 0.000000 1.5843200949324314e-38
-32.410840 44.615497 87.961381 -0.582791 0.812622 0.000000 1.5843200949324314e-38
-17.906579 52.288506 88.998997 -0.320710 0.947177 0.000000 1.5843200949324314e-38
-18.918618 51.827757 88.695373 -0.343949 0.938988 0.000000 1.5843200949324314e-38
-20.067972 51.119527 88.858153 -0.366979 0.930229 0.000000 1.5843200949324314e-38
-21.597568 51.051744 88.884797 -0.389786 0.920906 0.000000 1.5843200949324314e-38
-22.723371 50.384641 89.149214 -0.412356 0.911023 0.000000 1.5843200949324314e-38
-23.921749 49.266934 89.110226 -0.434676 0.900587 0.000000 1.5843200949324314e-38
-25.473693 48.554066 88.933370 -0.456733 0.889604 0.000000 1.5843200949324314e-38
-26.556539 49.334372 89.365025 -0.478512 0.878081 0.000000 1.5843200949324314e-38
-27.351174 47.658839 89.016586 -0.500000 0.866025 0.000000 1.5843200949324314e-38
-27.983826 46.896215 89.148642 -0.521185 0.853444 0.000000 1.5843200949324314e-38
-29.354280 46.147136 89.117102 -0.542053 0.840344 0.000000 1.5843200949324314e-38
-31.045334 45.346711 89.304651 -0.562593 0.826734 0.000000 1.5843200949324314e-38
-32.488860 45.067515 89.201029 -0.582791 0.812622 0.000000 1.5843200949324314e-38
-18.566232 51.638818 90.194092 -0.343949 0.938988 0.000000 1.5843200949324314e-38
-20.886727 51.395555 89.953179 -0.366979 0.930229 0.000000 1.5843200949324314e-38
-21.989171 50.501867 90.167352 -0.389786 0.920906 0.000000 1.5843200949324314e-38
-22.746136 50.564931 90.609859 -0.412356 0.911023 0.000000 1.5843200949324314e-38
-23.774367 49.505332 90.086500 -0.434676 0.900587 0.000000 1.5843200949324314e-38
-25.220512 49.298640 90.723306 -0.456733 0.889604 0.000000 1.5843200949324314e-38
-26.570115 48.828631 90.266418 -0.478512 0.878081 0.000000 1.5843200949324314e-38
-27.565710 48.047601 90.302585 -0.500000 0.866025 0.000000 1.5843200949324314e-38
-29.138335 47.317759 90.502238 -0.521185 0.853444 0.000000 1.5843200949324314e-38
-29.968421 45.680885 90.256298 -0.542053 0.840344 0.000000 1.5843200949324314e-38
-30.933737 45.462544 90.629086 -0.562593 0.826734 0.000000 1.5843200949324314e-38
-32.438983 44.879528 90.371129 -0.582791 0.812622 0.000000 1.5843200949324314e-38
-20.286290 51.344812 91.420222 -0.366979 0.930229 0.000000 1.5843200949324314e-38
-21.749912 50.893776 91.372569 -0.389786 0.920906 0.000000 1.5843200949324314e-38
-22.621163 50.983341 91.452486 -0.412356 0.911023 0.000000 1.5843200949324314e-38
-24.343754 49.970428 91.571680 -0.434676 0.900587 0.000000 1.5843200949324314e-38
-25.147250 49.266206 91.383783 -0.456733 0.889604 0.000000 1.5843200949324314e-38
-25.828418 48.357376 91.816729 -0.478512 0.878081 0.000000 1.5843200949324314e-38
-27.309885 48.000040 91.678369 -0.500000 0.866025 0.000000 1.5843200949324314e-38
-29.435895 47.385198 91.894243 -0.521185 0.853444 0.000000 1.5843200949324314e-38
-30.055185 46.661989 92.066666 -0.542053 0.840344 0.000000 1.5843200949324314e-38
-30.985822 46.107463 91.303220 -0.562593 0.826734 0.000000 1.5843200949324314e-38
-21.742166 50.750844 92.859754 -0.389786 0.920906 0.000000 1.5843200949324314e-38
-22.990662 50.670329 93.379993 -0.412356 0.911023 0.000000 1.5843200949324314e-38
-24.231142 50.687254 92.535366 -0.434676 0.900587 0.000000 1.5843200949324314e-38
-25.881779 49.286060 93.135489 -0.456733 0.889604 0.000000 1.5843200949324314e-38
-26.868869 48.459652 92.885588 -0.478512 0.878081 0.000000 1.5843200949324314e-38
-27.952719 48.388602 92.582023 -0.500000 0.866025 0.000000 1.5843200949324314e-38
-29.294143 48.013594 92.533708 -0.521185 0.853444 0.000000 1.5843200949324314e-38
-30.429650 46.924950 91.947521 -0.542053 0.840344 0.000000 1.5843200949324314e-38
-31.102709 46.565252 93.043080 -0.562593 0.826734 0.000000 1.5843200949324314e-38
