# .PCD v0.7 - Point Cloud Data file format
VERSION 0.7
FIELDS x y z normal_x normal_y normal_z rgb
SIZE 4 4 4 4 4 4 4
TYPE F F F F F F F
COUNT 1 1 1 1 1 1 1
WIDTH 323
HEIGHT 1
VIEWPOINT 0 0 0 1 0 0 0
POINTS 323
DATA ascii
-49.558738 -3.265672 45.034310 -0.988180 -0.060949 0.140662 1.5197831540281055e-38
-49.532331 -4.592545 45.022317 -0.986378 -0.085277 0.140662 1.5197831540281055e-38
-49.670422 -5.458984 44.390048 -0.983978 -0.109553 0.140662 1.5197831540281055e-38
-49.175332 -6.875315 44.409826 -0.980980 -0.133762 0.140662 1.5197831540281055e-38
-49.229756 -8.095567 44.857627 -0.977387 -0.157890 0.140662 1.5197831540281055e-38
-49.348427 -9.165427 44.562922 -0.973200 -0.181923 0.140662 1.5197831540281055e-38
-48.768076 -10.067537 44.084898 -0.968423 -0.205845 0.140662 1.5197831540281055e-38
-48.290323 -11.928968 44.383450 -0.963057 -0.229642 0.140662 1.5197831540281055e-38
-48.565598 -12.845550 44.362619 -0.957107 -0.253299 0.140662 1.5197831540281055e-38
-47.341163 -13.856216 44.668018 -0.950576 -0.276803 0.140662 1.5197831540281055e-38
-47.807210 -14.880849 45.027550 -0.943468 -0.300139 0.140662 1.5197831540281055e-38
-49.658260 -2.001870 45.766893 -0.977985 -0.036163 0.205519 1.5197831540281055e-38
-49.348377 -2.899540 45.588867 -0.976797 -0.060247 0.205519 1.5197831540281055e-38
-49.592614 -4.361256 45.554170 -0.975016 -0.084294 0.205519 1.5197831540281055e-38
-49.667273 -4.946147 45.651118 -0.972643 -0.108291 0.205519 1.5197831540281055e-38
-49.251730 -6.797141 45.749043 -0.969680 -0.132221 0.205519 1.5197831540281055e-38
-48.836205 -8.049786 46.115002 -0.966128 -0.156071 0.205519 1.5197831540281055e-38
-48.577536 -9.171510 45.573325 -0.961990 -0.179827 0.205519 1.5197831540281055e-38
-48.192051 -10.361332 45.400371 -0.957267 -0.203473 0.205519 1.5197831540281055e-38
-47.942404 -11.722836 46.033746 -0.951963 -0.226996 0.205519 1.5197831540281055e-38
-48.704905 -12.800769 46.121186 -0.946082 -0.250381 0.205519 1.5197831540281055e-38
-47.621877 -13.688259 45.502617 -0.939626 -0.273614 0.205519 1.5197831540281055e-38
-47.162984 -15.035683 45.846196 -0.932600 -0.296681 0.205519 1.5197831540281055e-38
-46.270695 -15.805413 46.010794 -0.925007 -0.319568 0.205519 1.5197831540281055e-38
-46.227814 -17.619685 45.631827 -0.916853 -0.342261 0.205519 1.5197831540281055e-38
-46.487485 -18.867431 45.507236 -0.908142 -0.364746 0.205519 1.5197831540281055e-38
-45.567014 -19.982452 45.761445 -0.898880 -0.387010 0.205519 1.5197831540281055e-38
-45.107394 -21.071704 46.230872 -0.889072 -0.409038 0.205519 1.5197831540281055e-38
-44.934095 -21.500137 45.096913 -0.878725 -0.430818 0.205519 1.5197831540281055e-38
-44.027922 -23.285266 45.576859 -0.867844 -0.452337 0.205519 1.5197831540281055e-38
-42.864016 -24.106794 45.441831 -0.856436 -0.473581 0.205519 1.5197831540281055e-38
-42.656230 -25.171581 45.818410 -0.844508 -0.494538 0.205519 1.5197831540281055e-38
-42.446330 -26.371358 45.536892 -0.832068 -0.515194 0.205519 1.5197831540281055e-38
-49.716533 -2.130870 47.294869 -0.963221 -0.035617 0.266341 1.5197831540281055e-38
-49.096742 -3.003679 47.388943 -0.962051 -0.059337 0.266341 1.5197831540281055e-38
-49.507254 -4.030346 46.656562 -0.960297 -0.083022 0.266341 1.5197831540281055e-38
-48.554319 -5.291882 47.299660 -0.957960 -0.106656 0.266341 1.5197831540281055e-38
-49.058899 -6.006117 47.609877 -0.955041 -0.130225 0.266341 1.5197831540281055e-38
-48.540360 -7.509646 46.919743 -0.951543 -0.153715 0.266341 1.5197831540281055e-38
-48.841539 -8.820193 46.734516 -0.947467 -0.177112 0.266341 1.5197831540281055e-38
-47.830030 -9.935778 47.080876 -0.942816 -0.200402 0.266341 1.5197831540281055e-38
-47.902132 -11.138332 47.092678 -0.937592 -0.223569 0.266341 1.5197831540281055e-38
-47.780970 -13.067511 47.297979 -0.931799 -0.246601 0.266341 1.5197831540281055e-38
-47.224477 -12.956844 46.981536 -0.925441 -0.269484 0.266341 1.5197831540281055e-38
-46.889838 -14.847906 47.205536 -0.918521 -0.292202 0.266341 1.5197831540281055e-38
-46.888031 -16.121663 47.258607 -0.911043 -0.314744 0.266341 1.5197831540281055e-38
-46.287026 -17.004610 47.039324 -0.903012 -0.337094 0.266341 1.5197831540281055e-38
-45.627825 -18.029027 46.942103 -0.894432 -0.359240 0.266341 1.5197831540281055e-38
-45.717357 -19.575816 46.762643 -0.885310 -0.381167 0.266341 1.5197831540281055e-38
-45.425448 -20.637629 47.070018 -0.875650 -0.402863 0.266341 1.5197831540281055e-38
-43.960233 -22.044618 47.036867 -0.865459 -0.424315 0.266341 1.5197831540281055e-38
-43.379895 -22.959244 47.171176 -0.854742 -0.445509 0.266341 1.5197831540281055e-38
-42.664327 -24.415765 47.092106 -0.843507 -0.466432 0.266341 1.5197831540281055e-38
-42.193902 -25.017962 47.426337 -0.831759 -0.487072 0.266341 1.5197831540281055e-38
-41.725803 -25.422524 47.185049 -0.819506 -0.507417 0.266341 1.5197831540281055e-38
-48.379789 -0.703913 48.047205 -0.946549 -0.011662 0.322349 1.5197831540281055e-38
-49.013990 -1.813427 48.343984 -0.945974 -0.034979 0.322349 1.5197831540281055e-38
-48.837846 -3.137471 48.833785 -0.944826 -0.058275 0.322349 1.5197831540281055e-38
-48.796962 -4.399536 48.496576 -0.943103 -0.081535 0.322349 1.5197831540281055e-38
-48.364296 -4.989231 48.825782 -0.940808 -0.104746 0.322349 1.5197831540281055e-38
-48.366225 -6.695640 47.676752 -0.937942 -0.127893 0.322349 1.5197831540281055e-38
-48.573916 -7.738769 47.893140 -0.934506 -0.150963 0.322349 1.5197831540281055e-38
-48.561233 -8.969026 48.480450 -0.930503 -0.173941 0.322349 1.5197831540281055e-38
-47.923583 -9.901719 48.432398 -0.925935 -0.196814 0.322349 1.5197831540281055e-38
-47.239764 -10.694529 49.031631 -0.920805 -0.219566 0.322349 1.5197831540281055e-38
-47.071038 -12.653433 48.265973 -0.915116 -0.242186 0.322349 1.5197831540281055e-38
-46.495858 -13.944765 48.681721 -0.908871 -0.264659 0.322349 1.5197831540281055e-38
-46.667594 -14.761675 48.005116 -0.902075 -0.286971 0.322349 1.5197831540281055e-38
-46.634215 -16.057477 48.638326 -0.894731 -0.309108 0.322349 1.5197831540281055e-38
-46.040096 -16.624385 48.075561 -0.886844 -0.331058 0.322349 1.5197831540281055e-38
-45.714563 -18.155979 48.451144 -0.878418 -0.352808 0.322349 1.5197831540281055e-38
-44.874698 -19.299645 48.728311 -0.869459 -0.374342 0.322349 1.5197831540281055e-38
-44.412401 -20.587169 47.907532 -0.859972 -0.395650 0.322349 1.5197831540281055e-38
-43.541557 -21.662454 48.148992 -0.849963 -0.416717 0.322349 1.5197831540281055e-38
-43.064189 -21.994136 48.322822 -0.839439 -0.437532 0.322349 1.5197831540281055e-38
-42.850623 -23.673979 48.110761 -0.828404 -0.458081 0.322349 1.5197831540281055e-38
-42.320058 -24.824962 48.520641 -0.816867 -0.478351 0.322349 1.5197831540281055e-38
-41.617908 -25.344546 48.212540 -0.804833 -0.498332 0.322349 1.5197831540281055e-38
-48.321405 -1.004261 48.512034 -0.927726 -0.011430 0.373087 1.5197831540281055e-38
-48.823742 -1.612151 49.751982 -0.927163 -0.034283 0.373087 1.5197831540281055e-38
-48.865124 -2.785585 49.670758 -0.926037 -0.057116 0.373087 1.5197831540281055e-38
-47.860363 -3.888795 49.890101 -0.924348 -0.079914 0.373087 1.5197831540281055e-38
-48.014876 -5.225638 49.383351 -0.922099 -0.102663 0.373087 1.5197831540281055e-38
-47.768581 -6.946783 49.442933 -0.919289 -0.125350 0.373087 1.5197831540281055e-38
-47.676815 -7.305567 49.341155 -0.915922 -0.147961 0.373087 1.5197831540281055e-38
-47.343886 -8.963465 49.780654 -0.911999 -0.170482 0.373087 1.5197831540281055e-38
-47.640427 -9.857394 49.455935 -0.907522 -0.192900 0.373087 1.5197831540281055e-38
-47.492936 -11.285932 49.881049 -0.902494 -0.215200 0.373087 1.5197831540281055e-38
-47.151936 -12.843172 49.604159 -0.896918 -0.237370 0.373087 1.5197831540281055e-38
-47.029841 -13.079277 49.945984 -0.890797 -0.259396 0.373087 1.5197831540281055e-38
-45.867100 -14.693835 49.983935 -0.884136 -0.281264 0.373087 1.5197831540281055e-38
-45.398997 -15.983544 49.916187 -0.876938 -0.302961 0.373087 1.5197831540281055e-38
-45.672373 -17.006495 48.946497 -0.869208 -0.324475 0.373087 1.5197831540281055e-38
-44.923773 -18.149106 49.348876 -0.860950 -0.345792 0.373087 1.5197831540281055e-38
-44.558626 -19.337020 49.497038 -0.852169 -0.366898 0.373087 1.5197831540281055e-38
-43.638217 -20.572482 49.743294 -0.842871 -0.387782 0.373087 1.5197831540281055e-38
-43.446347 -21.220162 49.475323 -0.833061 -0.408431 0.373087 1.5197831540281055e-38
-43.187356 -22.264463 49.640188 -0.822745 -0.428831 0.373087 1.5197831540281055e-38
-42.647405 -23.851402 49.510128 -0.811930 -0.448971 0.373087 1.5197831540281055e-38
-41.590231 -24.186009 49.845533 -0.800622 -0.468839 0.373087 1.5197831540281055e-38
-41.089226 -25.589322 49.483890 -0.788828 -0.488422 0.373087 1.5197831540281055e-38
-48.141094 0.167884 50.546279 -0.908201 0.011190 0.418385 1.5197831540281055e-38
-47.746769 -0.866988 50.141499 -0.908201 -0.011190 0.418385 1.5197831540281055e-38
-47.848947 -1.941024 50.203523 -0.907650 -0.033562 0.418385 1.5197831540281055e-38
-47.811725 -3.066186 51.224444 -0.906547 -0.055914 0.418385 1.5197831540281055e-38
-47.720199 -3.952092 50.716481 -0.904894 -0.078232 0.418385 1.5197831540281055e-38
-47.809916 -5.449309 51.045937 -0.902692 -0.100503 0.418385 1.5197831540281055e-38
-47.261210 -6.921502 50.347068 -0.899942 -0.122712 0.418385 1.5197831540281055e-38
-47.669529 -7.324841 50.202237 -0.896646 -0.144847 0.418385 1.5197831540281055e-38
-46.872998 -8.686681 50.765693 -0.892805 -0.166894 0.418385 1.5197831540281055e-38
-47.019581 -9.607574 50.755690 -0.888422 -0.188840 0.418385 1.5197831540281055e-38
-47.051224 -11.479478 50.228222 -0.883500 -0.210671 0.418385 1.5197831540281055e-38
-45.969839 -11.833978 51.047532 -0.878041 -0.232374 0.418385 1.5197831540281055e-38
-46.056730 -13.826898 50.405446 -0.872050 -0.253936 0.418385 1.5197831540281055e-38
-45.966367 -14.542287 51.137882 -0.865529 -0.275344 0.418385 1.5197831540281055e-38
-44.882840 -15.795855 50.050682 -0.858482 -0.296585 0.418385 1.5197831540281055e-38
-45.248682 -16.404048 50.791138 -0.850914 -0.317646 0.418385 1.5197831540281055e-38
-44.578711 -17.989337 50.496394 -0.842830 -0.338514 0.418385 1.5197831540281055e-38
-44.379582 -18.330363 51.237194 -0.834234 -0.359176 0.418385 1.5197831540281055e-38
-43.784720 -20.556893 50.772355 -0.825132 -0.379621 0.418385 1.5197831540281055e-38
-43.075678 -20.908878 50.978032 -0.815528 -0.399835 0.418385 1.5197831540281055e-38
-42.849599 -21.767036 50.615701 -0.805430 -0.419806 0.418385 1.5197831540281055e-38
-41.757572 -23.269874 50.998397 -0.794842 -0.439522 0.418385 1.5197831540281055e-38
-42.064524 -23.996188 50.472074 -0.783772 -0.458972 0.418385 1.5197831540281055e-38
-40.724581 -24.855828 50.480704 -0.772227 -0.478142 0.418385 1.5197831540281055e-38
-47.540868 0.487817 52.373596 -0.888734 0.010950 0.458292 1.5197831540281055e-38
-47.177381 -0.849700 51.799649 -0.888734 -0.010950 0.458292 1.5197831540281055e-38
-46.865508 -1.819485 52.126887 -0.888195 -0.032843 0.458292 1.5197831540281055e-38
-46.989398 -3.938741 52.338080 -0.887116 -0.054715 0.458292 1.5197831540281055e-38
-47.400540 -4.184047 52.420559 -0.885499 -0.076555 0.458292 1.5197831540281055e-38
-46.596027 -5.088328 52.177295 -0.883344 -0.098348 0.458292 1.5197831540281055e-38
-46.593435 -5.964242 52.425988 -0.880653 -0.120082 0.458292 1.5197831540281055e-38
-46.682766 -7.767706 51.882217 -0.877427 -0.141742 0.458292 1.5197831540281055e-38
-46.476810 -8.711075 51.655096 -0.873668 -0.163317 0.458292 1.5197831540281055e-38
-46.155586 -10.308862 51.984379 -0.869379 -0.184792 0.458292 1.5197831540281055e-38
-45.985328 -10.941351 52.214127 -0.864563 -0.206155 0.458292 1.5197831540281055e-38
-45.530205 -11.439854 51.803449 -0.859221 -0.227393 0.458292 1.5197831540281055e-38
-45.349823 -13.165472 52.009219 -0.853358 -0.248493 0.458292 1.5197831540281055e-38
-45.473334 -14.700438 51.960703 -0.846976 -0.269443 0.458292 1.5197831540281055e-38
-45.199524 -15.552300 51.764501 -0.840081 -0.290228 0.458292 1.5197831540281055e-38
-44.421873 -16.209603 51.635262 -0.832676 -0.310838 0.458292 1.5197831540281055e-38
-43.650351 -17.807904 51.824737 -0.824765 -0.331258 0.458292 1.5197831540281055e-38
-43.323779 -18.795270 51.691023 -0.816353 -0.351478 0.458292 1.5197831540281055e-38
-43.100291 -20.311164 52.073118 -0.807445 -0.371484 0.458292 1.5197831540281055e-38
-43.419430 -20.564909 52.143341 -0.798048 -0.391264 0.458292 1.5197831540281055e-38
-41.482317 -21.217186 52.239494 -0.788166 -0.410808 0.458292 1.5197831540281055e-38
-41.599365 -22.247238 51.600583 -0.777805 -0.430101 0.458292 1.5197831540281055e-38
-41.405211 -23.356600 52.139230 -0.766973 -0.449134 0.458292 1.5197831540281055e-38
-40.795611 -25.317743 52.124148 -0.755674 -0.467894 0.458292 1.5197831540281055e-38
-46.619179 -0.903155 52.982613 -0.869955 -0.010718 0.493015 1.5197831540281055e-38
-46.576125 -1.386989 52.761954 -0.869427 -0.032149 0.493015 1.5197831540281055e-38
-46.913323 -2.644720 52.807788 -0.868371 -0.053559 0.493015 1.5197831540281055e-38
-46.814939 -3.677210 53.129480 -0.866787 -0.074937 0.493015 1.5197831540281055e-38
-46.453671 -4.751548 52.876983 -0.864678 -0.096270 0.493015 1.5197831540281055e-38
-46.602269 -5.814005 53.265873 -0.862044 -0.117544 0.493015 1.5197831540281055e-38
-45.849847 -7.532999 53.163897 -0.858886 -0.138747 0.493015 1.5197831540281055e-38
-46.067614 -8.476627 53.445288 -0.855207 -0.159866 0.493015 1.5197831540281055e-38
-45.572577 -9.380975 53.394595 -0.851009 -0.180887 0.493015 1.5197831540281055e-38
-45.693088 -10.863967 53.061358 -0.846294 -0.201799 0.493015 1.5197831540281055e-38
-44.872160 -11.796795 53.234091 -0.841065 -0.222589 0.493015 1.5197831540281055e-38
-44.486369 -13.602457 53.014937 -0.835326 -0.243243 0.493015 1.5197831540281055e-38
-44.610996 -14.066795 53.361719 -0.829079 -0.263749 0.493015 1.5197831540281055e-38
-44.093977 -15.627781 53.317908 -0.822330 -0.284095 0.493015 1.5197831540281055e-38
-43.666472 -16.755637 53.107256 -0.815081 -0.304269 0.493015 1.5197831540281055e-38
-43.177456 -16.890885 52.869155 -0.807337 -0.324258 0.493015 1.5197831540281055e-38
-42.611120 -18.771059 52.814694 -0.799103 -0.344051 0.493015 1.5197831540281055e-38
-42.744112 -19.316682 53.234844 -0.790384 -0.363634 0.493015 1.5197831540281055e-38
-41.981791 -20.399068 53.208123 -0.781185 -0.382997 0.493015 1.5197831540281055e-38
-41.335549 -21.653240 52.887612 -0.771511 -0.402127 0.493015 1.5197831540281055e-38
-40.317518 -22.154727 53.672924 -0.761370 -0.421013 0.493015 1.5197831540281055e-38
-40.418125 -23.778404 53.071543 -0.750766 -0.439643 0.493015 1.5197831540281055e-38
-39.341080 -24.558541 53.032919 -0.739707 -0.458007 0.493015 1.5197831540281055e-38
-45.865873 -1.895293 54.748227 -0.851841 -0.031498 0.522853 1.5197831540281055e-38
-45.942260 -2.757530 54.503000 -0.850806 -0.052476 0.522853 1.5197831540281055e-38
-45.772497 -3.923661 54.524124 -0.849255 -0.073422 0.522853 1.5197831540281055e-38
-45.907340 -4.960335 54.692149 -0.847188 -0.094323 0.522853 1.5197831540281055e-38
-45.380176 -6.310341 54.485310 -0.844607 -0.115167 0.522853 1.5197831540281055e-38
-45.441844 -7.358816 54.076683 -0.841513 -0.135941 0.522853 1.5197831540281055e-38
-44.724511 -7.857207 54.221810 -0.837909 -0.156632 0.522853 1.5197831540281055e-38
-44.681090 -9.110030 54.145702 -0.833795 -0.177229 0.522853 1.5197831540281055e-38
-45.315614 -10.196092 54.429892 -0.829176 -0.197717 0.522853 1.5197831540281055e-38
-44.547955 -11.734204 54.322266 -0.824053 -0.218086 0.522853 1.5197831540281055e-38
-43.201345 -12.997760 54.531187 -0.818430 -0.238323 0.522853 1.5197831540281055e-38
-43.371816 -13.534668 54.761786 -0.812309 -0.258414 0.522853 1.5197831540281055e-38
-43.530934 -15.040422 53.780650 -0.805696 -0.278349 0.522853 1.5197831540281055e-38
-43.042972 -16.049744 54.655507 -0.798594 -0.298115 0.522853 1.5197831540281055e-38
-42.073251 -16.901236 54.754183 -0.791007 -0.317700 0.522853 1.5197831540281055e-38
-42.182541 -17.773993 54.436329 -0.782939 -0.337092 0.522853 1.5197831540281055e-38
-41.374918 -18.951562 54.550807 -0.774397 -0.356279 0.522853 1.5197831540281055e-38
-41.693792 -19.886884 54.546430 -0.765384 -0.375250 0.522853 1.5197831540281055e-38
-40.510241 -21.130531 54.578769 -0.755906 -0.393993 0.522853 1.5197831540281055e-38
-39.795537 -22.363589 54.573281 -0.745970 -0.412497 0.522853 1.5197831540281055e-38
-39.859286 -23.031737 54.508376 -0.735580 -0.430751 0.522853 1.5197831540281055e-38
-39.231613 -24.145883 54.262377 -0.724744 -0.448743 0.522853 1.5197831540281055e-38
-45.109817 -3.573217 55.443612 -0.833274 -0.072040 0.548147 1.5197831540281055e-38
-45.131169 -4.931583 55.671667 -0.831246 -0.092548 0.548147 1.5197831540281055e-38
-44.741757 -6.021795 55.367230 -0.828714 -0.113000 0.548147 1.5197831540281055e-38
-44.827141 -6.902083 55.626324 -0.825678 -0.133383 0.548147 1.5197831540281055e-38
-44.187673 -7.926343 55.923826 -0.822141 -0.153685 0.548147 1.5197831540281055e-38
-44.559742 -9.419068 55.982353 -0.818105 -0.173894 0.548147 1.5197831540281055e-38
-43.747380 -10.413801 55.178238 -0.813572 -0.193997 0.548147 1.5197831540281055e-38
-43.817904 -11.526695 55.242333 -0.808546 -0.213982 0.548147 1.5197831540281055e-38
-43.097112 -12.654275 55.076208 -0.803029 -0.233838 0.548147 1.5197831540281055e-38
-43.181132 -13.768729 55.631141 -0.797024 -0.253551 0.548147 1.5197831540281055e-38
-42.235096 -14.564825 55.260466 -0.790535 -0.273111 0.548147 1.5197831540281055e-38
-42.731769 -15.864992 55.707966 -0.783566 -0.292505 0.548147 1.5197831540281055e-38
-41.585465 -16.302980 56.205370 -0.776122 -0.311721 0.548147 1.5197831540281055e-38
-41.588722 -17.568371 55.797792 -0.768206 -0.330748 0.548147 1.5197831540281055e-38
-41.330922 -19.431057 55.713336 -0.759824 -0.349575 0.548147 1.5197831540281055e-38
-40.975012 -20.124627 55.464653 -0.750981 -0.368189 0.548147 1.5197831540281055e-38
-39.959008 -20.477440 55.673926 -0.741682 -0.386579 0.548147 1.5197831540281055e-38
-39.660172 -22.461939 55.807615 -0.731932 -0.404735 0.548147 1.5197831540281055e-38
-38.939832 -22.972817 56.019931 -0.721738 -0.422645 0.548147 1.5197831540281055e-38
-38.731891 -23.966041 55.596595 -0.711106 -0.440298 0.548147 1.5197831540281055e-38
-43.162508 -4.934830 57.280350 -0.817121 -0.090975 0.569242 1.5197831540281055e-38
-44.395424 -6.499170 56.668198 -0.814632 -0.111079 0.569242 1.5197831540281055e-38
-43.487231 -7.064402 56.851296 -0.811648 -0.131116 0.569242 1.5197831540281055e-38
-43.933871 -8.178479 56.714133 -0.808171 -0.151073 0.569242 1.5197831540281055e-38
-43.609595 -9.512889 56.964798 -0.804203 -0.170939 0.569242 1.5197831540281055e-38
-43.308863 -10.277451 56.376512 -0.799748 -0.190700 0.569242 1.5197831540281055e-38
-42.675580 -11.261858 56.837806 -0.794807 -0.210346 0.569242 1.5197831540281055e-38
-42.485824 -12.105518 56.472573 -0.789383 -0.229864 0.569242 1.5197831540281055e-38
-42.196206 -13.821486 56.933499 -0.783480 -0.249243 0.569242 1.5197831540281055e-38
-41.950176 -14.473441 57.161740 -0.777102 -0.268470 0.569242 1.5197831540281055e-38
-41.257852 -15.167196 56.788303 -0.770251 -0.287535 0.569242 1.5197831540281055e-38
-40.898143 -16.359052 56.795854 -0.762933 -0.306424 0.569242 1.5197831540281055e-38
-40.654664 -17.558511 57.325682 -0.755152 -0.325128 0.569242 1.5197831540281055e-38
-40.002789 -18.616791 56.785584 -0.746913 -0.343634 0.569242 1.5197831540281055e-38
-39.490165 -19.099975 57.001877 -0.738220 -0.361932 0.569242 1.5197831540281055e-38
-39.087325 -20.085121 56.854781 -0.729079 -0.380010 0.569242 1.5197831540281055e-38
-38.743453 -21.291706 56.778517 -0.719495 -0.397857 0.569242 1.5197831540281055e-38
-37.718841 -22.517775 56.925602 -0.709474 -0.415463 0.569242 1.5197831540281055e-38
-37.090495 -23.879966 56.972004 -0.699023 -0.432817 0.569242 1.5197831540281055e-38
-42.553833 -6.738656 58.262208 -0.799609 -0.129171 0.586464 1.5197831540281055e-38
-42.421014 -8.385097 57.918607 -0.796184 -0.148833 0.586464 1.5197831540281055e-38
-42.890887 -8.863825 58.268474 -0.792276 -0.168403 0.586464 1.5197831540281055e-38
-41.824391 -9.966649 57.954819 -0.787886 -0.187872 0.586464 1.5197831540281055e-38
-41.938805 -11.672403 58.021862 -0.783018 -0.207226 0.586464 1.5197831540281055e-38
-42.396677 -12.042104 58.060540 -0.777675 -0.226455 0.586464 1.5197831540281055e-38
-41.420458 -13.443648 57.943673 -0.771860 -0.245546 0.586464 1.5197831540281055e-38
-40.836098 -14.610514 58.296036 -0.765576 -0.264488 0.586464 1.5197831540281055e-38
-40.925439 -15.690906 58.512233 -0.758827 -0.283270 0.586464 1.5197831540281055e-38
-39.896810 -16.346139 57.979547 -0.751618 -0.301879 0.586464 1.5197831540281055e-38
-39.959855 -17.415185 57.954176 -0.743952 -0.320306 0.586464 1.5197831540281055e-38
-39.314390 -17.527439 58.037917 -0.735835 -0.338538 0.586464 1.5197831540281055e-38
-38.683342 -19.010163 57.642659 -0.727271 -0.356564 0.586464 1.5197831540281055e-38
-38.514798 -20.115865 58.583691 -0.718265 -0.374374 0.586464 1.5197831540281055e-38
-37.549738 -20.900443 58.508608 -0.708823 -0.391956 0.586464 1.5197831540281055e-38
-37.515938 -21.607552 58.174431 -0.698951 -0.409301 0.586464 1.5197831540281055e-38
-36.590725 -22.500090 58.359265 -0.688655 -0.426397 0.586464 1.5197831540281055e-38
-41.722224 -8.582965 58.674971 -0.782446 -0.166314 0.600099 1.5197831540281055e-38
-40.909858 -9.620383 58.618132 -0.778111 -0.185541 0.600099 1.5197831540281055e-38
-40.982091 -11.472274 59.198118 -0.773303 -0.204655 0.600099 1.5197831540281055e-38
-40.612788 -11.926352 59.758427 -0.768026 -0.223645 0.600099 1.5197831540281055e-38
-40.492109 -12.898785 59.710992 -0.762283 -0.242500 0.600099 1.5197831540281055e-38
-40.282695 -13.889281 59.413444 -0.756077 -0.261207 0.600099 1.5197831540281055e-38
-39.847459 -14.519420 59.181403 -0.749412 -0.279755 0.600099 1.5197831540281055e-38
-39.697914 -16.162717 58.738894 -0.742292 -0.298134 0.600099 1.5197831540281055e-38
-38.601364 -17.081558 59.309865 -0.734722 -0.316332 0.600099 1.5197831540281055e-38
-38.153050 -17.810791 59.535765 -0.726705 -0.334337 0.600099 1.5197831540281055e-38
-38.597137 -18.294834 59.344964 -0.718247 -0.352140 0.600099 1.5197831540281055e-38
-38.003787 -19.954802 59.888436 -0.709353 -0.369729 0.600099 1.5197831540281055e-38
-37.378605 -20.870898 59.251522 -0.700029 -0.387093 0.600099 1.5197831540281055e-38
-36.671008 -21.436711 59.514751 -0.690279 -0.404223 0.600099 1.5197831540281055e-38
-36.073787 -22.185409 59.299619 -0.680111 -0.421107 0.600099 1.5197831540281055e-38
-40.345507 -9.368162 60.594634 -0.770502 -0.183727 0.610387 1.5197831540281055e-38
-40.631395 -10.538443 60.204011 -0.765741 -0.202654 0.610387 1.5197831540281055e-38
-39.367718 -11.731018 60.603035 -0.760516 -0.221458 0.610387 1.5197831540281055e-38
-39.817041 -12.500445 60.754866 -0.754829 -0.240128 0.610387 1.5197831540281055e-38
-39.495334 -13.438444 60.638875 -0.748684 -0.258653 0.610387 1.5197831540281055e-38
-38.974119 -14.763752 61.312873 -0.742084 -0.277020 0.610387 1.5197831540281055e-38
-38.220512 -15.274883 60.956502 -0.735033 -0.295219 0.610387 1.5197831540281055e-38
-38.091950 -16.543887 59.825637 -0.727537 -0.313238 0.610387 1.5197831540281055e-38
-38.131012 -16.725294 60.966617 -0.719599 -0.331068 0.610387 1.5197831540281055e-38
-37.265086 -18.773230 60.808989 -0.711224 -0.348696 0.610387 1.5197831540281055e-38
-36.947000 -19.004639 60.284981 -0.702417 -0.366113 0.610387 1.5197831540281055e-38
-36.525997 -19.850885 61.196900 -0.693183 -0.383308 0.610387 1.5197831540281055e-38
-36.069884 -21.306482 60.925423 -0.683529 -0.400270 0.610387 1.5197831540281055e-38
-35.721890 -22.240433 60.698337 -0.673460 -0.416989 0.610387 1.5197831540281055e-38
-39.314307 -11.637465 61.662151 -0.755192 -0.219908 0.617516 1.5197831540281055e-38
-38.682124 -12.591167 61.934862 -0.749545 -0.238447 0.617516 1.5197831540281055e-38
-38.488966 -13.062571 61.874553 -0.743442 -0.256842 0.617516 1.5197831540281055e-38
-37.517634 -14.165199 61.490153 -0.736889 -0.275080 0.617516 1.5197831540281055e-38
-37.745667 -15.128179 61.583068 -0.729888 -0.293152 0.617516 1.5197831540281055e-38
-36.842393 -16.151293 61.662270 -0.722444 -0.311046 0.617516 1.5197831540281055e-38
-36.836103 -17.244215 62.145574 -0.714561 -0.328750 0.617516 1.5197831540281055e-38
-36.231606 -17.836903 62.033136 -0.706245 -0.346255 0.617516 1.5197831540281055e-38
-36.159624 -19.219791 61.757988 -0.697499 -0.363550 0.617516 1.5197831540281055e-38
-35.686827 -20.261427 61.538314 -0.688331 -0.380625 0.617516 1.5197831540281055e-38
-35.410560 -20.836165 62.255663 -0.678744 -0.397468 0.617516 1.5197831540281055e-38
-34.371668 -21.087638 62.008547 -0.668746 -0.414070 0.617516 1.5197831540281055e-38
-37.369635 -11.991427 63.291644 -0.746458 -0.237465 0.621619 1.5197831540281055e-38
-37.379369 -12.398988 62.624675 -0.740381 -0.255784 0.621619 1.5197831540281055e-38
-37.162005 -14.147847 62.477894 -0.733855 -0.273948 0.621619 1.5197831540281055e-38
-37.082634 -14.418739 63.083731 -0.726882 -0.291945 0.621619 1.5197831540281055e-38
-36.465989 -15.439861 63.127413 -0.719469 -0.309765 0.621619 1.5197831540281055e-38
-35.818893 -16.467106 63.255594 -0.711619 -0.327397 0.621619 1.5197831540281055e-38
-35.718777 -17.131824 62.729144 -0.703337 -0.344830 0.621619 1.5197831540281055e-38
-35.169039 -17.988274 63.046564 -0.694627 -0.362053 0.621619 1.5197831540281055e-38
-34.810541 -18.491098 63.518361 -0.685496 -0.379057 0.621619 1.5197831540281055e-38
-34.155780 -20.317411 62.482258 -0.675949 -0.395831 0.621619 1.5197831540281055e-38
-33.481894 -20.482986 63.211515 -0.665992 -0.412365 0.621619 1.5197831540281055e-38
-35.788997 -13.308921 64.179057 -0.732994 -0.273627 0.622774 1.5197831540281055e-38
-35.640172 -14.014376 64.679768 -0.726030 -0.291603 0.622774 1.5197831540281055e-38
-35.188340 -15.760403 64.449361 -0.718626 -0.309402 0.622774 1.5197831540281055e-38
-34.915402 -15.841149 64.484584 -0.710785 -0.327013 0.622774 1.5197831540281055e-38
-34.234891 -17.561196 64.497402 -0.702512 -0.344425 0.622774 1.5197831540281055e-38
-34.127091 -17.591794 64.792534 -0.693813 -0.361629 0.622774 1.5197831540281055e-38
-34.086782 -18.248970 64.574366 -0.684693 -0.378613 0.622774 1.5197831540281055e-38
-33.405423 -19.801740 64.388791 -0.675157 -0.395367 0.622774 1.5197831540281055e-38
-34.460203 -14.934082 65.204149 -0.719917 -0.309958 0.621004 1.5197831540281055e-38
-34.449578 -16.099724 65.644637 -0.712062 -0.327601 0.621004 1.5197831540281055e-38
-33.844970 -16.395951 65.035951 -0.703775 -0.345044 0.621004 1.5197831540281055e-38
-33.559231 -16.799595 65.759321 -0.695060 -0.362279 0.621004 1.5197831540281055e-38
-33.048836 -18.522023 65.899335 -0.685923 -0.379293 0.621004 1.5197831540281055e-38
-32.041159 -19.376936 65.250790 -0.676370 -0.396078 0.621004 1.5197831540281055e-38
-33.159130 -15.565423 67.027210 -0.715446 -0.329157 0.616273 1.5197831540281055e-38
-33.466876 -16.266962 66.717029 -0.707119 -0.346684 0.616273 1.5197831540281055e-38
-32.337165 -16.426463 66.869432 -0.698363 -0.364001 0.616273 1.5197831540281055e-38
-32.215399 -17.963612 67.054636 -0.689183 -0.381096 0.616273 1.5197831540281055e-38
-31.325679 -16.739056 67.869670 -0.703707 -0.366786 0.608494 1.5197831540281055e-38
-31.023834 -17.499572 67.975521 -0.694457 -0.384012 0.608494 1.5197831540281055e-38
-30.129993 -16.653169 69.211088 -0.701716 -0.388026 0.597520 1.5197831540281055e-38
