# .PCD v0.7 - Point Cloud Data file format
VERSION 0.7
FIELDS x y z normal_x normal_y normal_z rgb
SIZE 4 4 4 4 4 4 4
TYPE F F F F F F F
COUNT 1 1 1 1 1 1 1
WIDTH 236
HEIGHT 1
VIEWPOINT 0 0 0 1 0 0 0
POINTS 236
DATA ascii
25.072191 35.941750 29.702166 0.572735 0.819740 0.000000 1.5843200949324314e-38
25.220267 36.859279 31.485575 0.572735 0.819740 0.000000 1.5843200949324314e-38
24.903625 37.723449 30.782285 0.552365 0.833602 0.000000 1.5843200949324314e-38
23.571374 37.945398 30.349823 0.531659 0.846958 0.000000 1.5843200949324314e-38
26.602188 36.557712 32.384321 0.592758 0.805381 0.000000 1.5843200949324314e-38
25.737932 36.551209 31.844385 0.572735 0.819740 0.000000 1.5843200949324314e-38
25.085446 37.133483 32.129502 0.552365 0.833602 0.000000 1.5843200949324314e-38
24.731994 38.255761 32.387623 0.531659 0.846958 0.000000 1.5843200949324314e-38
22.662971 38.327648 32.403695 0.510631 0.859800 0.000000 1.5843200949324314e-38
21.936233 39.602380 32.207888 0.489293 0.872120 0.000000 1.5843200949324314e-38
27.428936 36.039540 33.228612 0.612420 0.790532 0.000000 1.5843200949324314e-38
26.720246 36.130652 33.713345 0.592758 0.805381 0.000000 1.5843200949324314e-38
25.681741 37.386215 33.722625 0.572735 0.819740 0.000000 1.5843200949324314e-38
24.827281 37.678924 33.259949 0.552365 0.833602 0.000000 1.5843200949324314e-38
24.189109 38.215224 33.276818 0.531659 0.846958 0.000000 1.5843200949324314e-38
23.088991 38.379208 33.379307 0.510631 0.859800 0.000000 1.5843200949324314e-38
22.305756 39.452007 33.687559 0.489293 0.872120 0.000000 1.5843200949324314e-38
21.019995 39.805596 33.066866 0.467658 0.883910 0.000000 1.5843200949324314e-38
20.020942 41.041694 33.484725 0.445738 0.895163 0.000000 1.5843200949324314e-38
18.964259 40.634069 32.922503 0.423549 0.905873 0.000000 1.5843200949324314e-38
27.714682 35.454990 34.456290 0.612420 0.790532 0.000000 1.5843200949324314e-38
27.333905 35.816464 34.394267 0.592758 0.805381 0.000000 1.5843200949324314e-38
26.238610 36.987841 34.405646 0.572735 0.819740 0.000000 1.5843200949324314e-38
25.675098 37.940964 34.919466 0.552365 0.833602 0.000000 1.5843200949324314e-38
24.274197 38.482022 35.018383 0.531659 0.846958 0.000000 1.5843200949324314e-38
23.743173 38.511189 34.628580 0.510631 0.859800 0.000000 1.5843200949324314e-38
22.190315 39.446506 34.933493 0.489293 0.872120 0.000000 1.5843200949324314e-38
21.298567 40.687950 34.969255 0.467658 0.883910 0.000000 1.5843200949324314e-38
20.636254 40.261227 34.397349 0.445738 0.895163 0.000000 1.5843200949324314e-38
19.002798 41.503919 34.349022 0.423549 0.905873 0.000000 1.5843200949324314e-38
17.919920 41.231629 35.465083 0.401102 0.916034 0.000000 1.5843200949324314e-38
17.128975 42.162817 34.296990 0.378411 0.925638 0.000000 1.5843200949324314e-38
28.352023 35.353675 35.691055 0.631711 0.775204 0.000000 1.5843200949324314e-38
28.034032 36.227066 35.995970 0.612420 0.790532 0.000000 1.5843200949324314e-38
27.034917 36.789466 35.523469 0.592758 0.805381 0.000000 1.5843200949324314e-38
26.091450 37.118254 36.185750 0.572735 0.819740 0.000000 1.5843200949324314e-38
25.377338 38.193033 36.390336 0.552365 0.833602 0.000000 1.5843200949324314e-38
24.129783 38.432862 35.770208 0.531659 0.846958 0.000000 1.5843200949324314e-38
22.789805 38.725709 36.062620 0.510631 0.859800 0.000000 1.5843200949324314e-38
21.879506 39.421741 35.845773 0.489293 0.872120 0.000000 1.5843200949324314e-38
21.188415 40.547213 35.894427 0.467658 0.883910 0.000000 1.5843200949324314e-38
20.073640 41.085855 36.094926 0.445738 0.895163 0.000000 1.5843200949324314e-38
18.878650 41.358127 35.661766 0.423549 0.905873 0.000000 1.5843200949324314e-38
18.056561 42.306321 35.913570 0.401102 0.916034 0.000000 1.5843200949324314e-38
17.179680 42.208628 36.138561 0.378411 0.925638 0.000000 1.5843200949324314e-38
15.989941 42.435955 36.073290 0.355491 0.934680 0.000000 1.5843200949324314e-38
14.691150 43.278649 35.394735 0.332355 0.943154 0.000000 1.5843200949324314e-38
29.506096 34.687890 37.496776 0.650618 0.759405 0.000000 1.5843200949324314e-38
29.396836 35.451701 36.899766 0.631711 0.775204 0.000000 1.5843200949324314e-38
28.349904 35.682135 37.187685 0.612420 0.790532 0.000000 1.5843200949324314e-38
27.117532 37.250693 37.531908 0.592758 0.805381 0.000000 1.5843200949324314e-38
25.931513 37.570089 36.942221 0.572735 0.819740 0.000000 1.5843200949324314e-38
25.193925 38.339466 37.012934 0.552365 0.833602 0.000000 1.5843200949324314e-38
24.392403 39.052732 37.567951 0.531659 0.846958 0.000000 1.5843200949324314e-38
23.458358 39.388646 36.781215 0.510631 0.859800 0.000000 1.5843200949324314e-38
22.870834 40.065901 37.154270 0.489293 0.872120 0.000000 1.5843200949324314e-38
21.430354 40.565028 37.344939 0.467658 0.883910 0.000000 1.5843200949324314e-38
20.670253 41.455153 37.186209 0.445738 0.895163 0.000000 1.5843200949324314e-38
19.912212 41.779435 37.095363 0.423549 0.905873 0.000000 1.5843200949324314e-38
17.858334 41.952822 37.580945 0.401102 0.916034 0.000000 1.5843200949324314e-38
17.087417 42.391473 37.162968 0.378411 0.925638 0.000000 1.5843200949324314e-38
16.553568 42.664251 36.852587 0.355491 0.934680 0.000000 1.5843200949324314e-38
15.382987 42.945466 36.562750 0.332355 0.943154 0.000000 1.5843200949324314e-38
14.695919 43.808272 37.678418 0.309017 0.951057 0.000000 1.5843200949324314e-38
13.329246 44.069527 37.224263 0.285492 0.958381 0.000000 1.5843200949324314e-38
11.926535 44.327672 36.947432 0.261793 0.965124 0.000000 1.5843200949324314e-38
30.362418 34.584633 38.404303 0.650618 0.759405 0.000000 1.5843200949324314e-38
28.907051 35.903543 38.424509 0.631711 0.775204 0.000000 1.5843200949324314e-38
29.153096 36.252795 38.811703 0.612420 0.790532 0.000000 1.5843200949324314e-38
27.741293 37.185936 38.361640 0.592758 0.805381 0.000000 1.5843200949324314e-38
26.358860 37.689072 38.690505 0.572735 0.819740 0.000000 1.5843200949324314e-38
25.132139 38.274990 38.265860 0.552365 0.833602 0.000000 1.5843200949324314e-38
23.924175 39.194968 38.669391 0.531659 0.846958 0.000000 1.5843200949324314e-38
23.285033 39.836703 37.875418 0.510631 0.859800 0.000000 1.5843200949324314e-38
22.501498 40.056159 38.376840 0.489293 0.872120 0.000000 1.5843200949324314e-38
21.524432 40.612956 38.234184 0.467658 0.883910 0.000000 1.5843200949324314e-38
20.459362 41.562397 38.176900 0.445738 0.895163 0.000000 1.5843200949324314e-38
20.148440 41.455259 38.422533 0.423549 0.905873 0.000000 1.5843200949324314e-38
18.611242 42.025376 38.765224 0.401102 0.916034 0.000000 1.5843200949324314e-38
17.560292 42.492961 38.761895 0.378411 0.925638 0.000000 1.5843200949324314e-38
16.038368 42.800480 38.519287 0.355491 0.934680 0.000000 1.5843200949324314e-38
15.519820 43.456518 38.312358 0.332355 0.943154 0.000000 1.5843200949324314e-38
14.131036 44.062435 38.422634 0.309017 0.951057 0.000000 1.5843200949324314e-38
12.863261 43.780783 38.804554 0.285492 0.958381 0.000000 1.5843200949324314e-38
11.819800 44.451564 38.755787 0.261793 0.965124 0.000000 1.5843200949324314e-38
11.101250 44.425506 38.045807 0.237935 0.971281 0.000000 1.5843200949324314e-38
10.396133 44.596395 38.184535 0.213933 0.976848 0.000000 1.5843200949324314e-38
29.928571 35.482044 39.745810 0.650618 0.759405 0.000000 1.5843200949324314e-38
29.211439 35.521704 39.255749 0.631711 0.775204 0.000000 1.5843200949324314e-38
28.364622 36.717072 39.650321 0.612420 0.790532 0.000000 1.5843200949324314e-38
27.886472 36.987832 39.641440 0.592758 0.805381 0.000000 1.5843200949324314e-38
25.941013 37.919010 40.028441 0.572735 0.819740 0.000000 1.5843200949324314e-38
25.195816 38.748480 40.019941 0.552365 0.833602 0.000000 1.5843200949324314e-38
24.345173 39.252696 40.061518 0.531659 0.846958 0.000000 1.5843200949324314e-38
23.650141 39.941657 39.055444 0.510631 0.859800 0.000000 1.5843200949324314e-38
22.774736 40.429736 39.189765 0.489293 0.872120 0.000000 1.5843200949324314e-38
21.307175 41.000238 39.496815 0.467658 0.883910 0.000000 1.5843200949324314e-38
20.917823 41.431947 39.604566 0.445738 0.895163 0.000000 1.5843200949324314e-38
19.508377 41.921129 39.828509 0.423549 0.905873 0.000000 1.5843200949324314e-38
18.683064 42.175620 39.959460 0.401102 0.916034 0.000000 1.5843200949324314e-38
17.672368 42.861609 39.615138 0.378411 0.925638 0.000000 1.5843200949324314e-38
16.566617 42.614100 39.660022 0.355491 0.934680 0.000000 1.5843200949324314e-38
15.840232 43.620961 39.612672 0.332355 0.943154 0.000000 1.5843200949324314e-38
14.091670 44.067702 39.529107 0.309017 0.951057 0.000000 1.5843200949324314e-38
13.576820 43.999053 39.451937 0.285492 0.958381 0.000000 1.5843200949324314e-38
11.909357 45.119899 39.530699 0.261793 0.965124 0.000000 1.5843200949324314e-38
10.823448 44.226676 39.314217 0.237935 0.971281 0.000000 1.5843200949324314e-38
10.037816 45.268115 39.392268 0.213933 0.976848 0.000000 1.5843200949324314e-38
8.586336 45.898624 40.396543 0.189801 0.981823 0.000000 1.5843200949324314e-38
29.367715 35.707718 41.157337 0.631711 0.775204 0.000000 1.5843200949324314e-38
28.991947 36.682440 41.367924 0.612420 0.790532 0.000000 1.5843200949324314e-38
27.758557 38.028117 40.966535 0.592758 0.805381 0.000000 1.5843200949324314e-38
26.610797 38.281388 40.694667 0.572735 0.819740 0.000000 1.5843200949324314e-38
25.746957 39.070951 41.070595 0.552365 0.833602 0.000000 1.5843200949324314e-38
24.654983 39.351452 41.052045 0.531659 0.846958 0.000000 1.5843200949324314e-38
23.906079 40.112085 40.926574 0.510631 0.859800 0.000000 1.5843200949324314e-38
22.451476 40.259042 40.963092 0.489293 0.872120 0.000000 1.5843200949324314e-38
21.944591 41.216129 40.622177 0.467658 0.883910 0.000000 1.5843200949324314e-38
20.632945 41.175331 40.407314 0.445738 0.895163 0.000000 1.5843200949324314e-38
19.673327 42.431916 40.854683 0.423549 0.905873 0.000000 1.5843200949324314e-38
19.179984 42.446580 40.834107 0.401102 0.916034 0.000000 1.5843200949324314e-38
17.257605 42.837181 40.467761 0.378411 0.925638 0.000000 1.5843200949324314e-38
16.028012 43.008948 40.850325 0.355491 0.934680 0.000000 1.5843200949324314e-38
15.197295 43.604015 40.947703 0.332355 0.943154 0.000000 1.5843200949324314e-38
13.871000 44.144874 41.079165 0.309017 0.951057 0.000000 1.5843200949324314e-38
13.524638 44.615334 40.809088 0.285492 0.958381 0.000000 1.5843200949324314e-38
11.957738 44.748466 41.320781 0.261793 0.965124 0.000000 1.5843200949324314e-38
11.119997 45.026736 40.993850 0.237935 0.971281 0.000000 1.5843200949324314e-38
9.939509 45.384811 40.750727 0.213933 0.976848 0.000000 1.5843200949324314e-38
28.605563 37.132674 41.806144 0.612420 0.790532 0.000000 1.5843200949324314e-38
28.011435 37.736608 42.052520 0.592758 0.805381 0.000000 1.5843200949324314e-38
26.755039 38.308819 41.804836 0.572735 0.819740 0.000000 1.5843200949324314e-38
25.627961 38.950124 41.934315 0.552365 0.833602 0.000000 1.5843200949324314e-38
24.337641 39.561714 42.312666 0.531659 0.846958 0.000000 1.5843200949324314e-38
24.118985 40.231437 42.307348 0.510631 0.859800 0.000000 1.5843200949324314e-38
23.100188 40.669809 41.426181 0.489293 0.872120 0.000000 1.5843200949324314e-38
22.143536 40.927410 41.722593 0.467658 0.883910 0.000000 1.5843200949324314e-38
20.443014 42.465262 42.194020 0.445738 0.895163 0.000000 1.5843200949324314e-38
19.427374 42.014019 42.061638 0.423549 0.905873 0.000000 1.5843200949324314e-38
18.856418 42.776356 41.783274 0.401102 0.916034 0.000000 1.5843200949324314e-38
17.731330 42.956817 42.375930 0.378411 0.925638 0.000000 1.5843200949324314e-38
16.584858 43.333789 42.268542 0.355491 0.934680 0.000000 1.5843200949324314e-38
15.604667 43.814099 42.280883 0.332355 0.943154 0.000000 1.5843200949324314e-38
14.590749 44.685389 42.274897 0.309017 0.951057 0.000000 1.5843200949324314e-38
13.241407 44.159058 42.117850 0.285492 0.958381 0.000000 1.5843200949324314e-38
12.303632 44.995833 41.158593 0.261793 0.965124 0.000000 1.5843200949324314e-38
11.292832 44.993809 42.267573 0.237935 0.971281 0.000000 1.5843200949324314e-38
10.480749 45.451053 42.193401 0.213933 0.976848 0.000000 1.5843200949324314e-38
27.088885 38.520617 43.759527 0.572735 0.819740 0.000000 1.5843200949324314e-38
26.018074 39.503776 43.372947 0.552365 0.833602 0.000000 1.5843200949324314e-38
25.165140 39.816100 43.201384 0.531659 0.846958 0.000000 1.5843200949324314e-38
23.848305 40.141624 43.378615 0.510631 0.859800 0.000000 1.5843200949324314e-38
22.774033 40.967111 43.419540 0.489293 0.872120 0.000000 1.5843200949324314e-38
21.959262 41.455164 43.129122 0.467658 0.883910 0.000000 1.5843200949324314e-38
20.786771 41.414166 43.263008 0.445738 0.895163 0.000000 1.5843200949324314e-38
19.536598 42.446799 43.084622 0.423549 0.905873 0.000000 1.5843200949324314e-38
18.166076 43.568318 43.229540 0.401102 0.916034 0.000000 1.5843200949324314e-38
18.152931 43.184191 43.808404 0.378411 0.925638 0.000000 1.5843200949324314e-38
16.300082 43.818488 42.971282 0.355491 0.934680 0.000000 1.5843200949324314e-38
16.342487 44.087720 43.547505 0.332355 0.943154 0.000000 1.5843200949324314e-38
14.604662 44.524853 43.454285 0.309017 0.951057 0.000000 1.5843200949324314e-38
13.775681 45.075943 43.347706 0.285492 0.958381 0.000000 1.5843200949324314e-38
12.414051 45.765722 43.173926 0.261793 0.965124 0.000000 1.5843200949324314e-38
10.584971 45.150555 42.992332 0.237935 0.971281 0.000000 1.5843200949324314e-38
26.146497 39.416352 44.691126 0.552365 0.833602 0.000000 1.5843200949324314e-38
25.153671 39.791521 44.412942 0.531659 0.846958 0.000000 1.5843200949324314e-38
23.691272 40.240866 44.632528 0.510631 0.859800 0.000000 1.5843200949324314e-38
23.120619 41.266622 44.114153 0.489293 0.872120 0.000000 1.5843200949324314e-38
21.503620 41.470444 44.230098 0.467658 0.883910 0.000000 1.5843200949324314e-38
21.025973 41.720828 44.890152 0.445738 0.895163 0.000000 1.5843200949324314e-38
19.679616 43.095462 44.693373 0.423549 0.905873 0.000000 1.5843200949324314e-38
18.553626 43.724078 44.615718 0.401102 0.916034 0.000000 1.5843200949324314e-38
17.852536 43.527923 44.676048 0.378411 0.925638 0.000000 1.5843200949324314e-38
16.882024 43.713388 44.472017 0.355491 0.934680 0.000000 1.5843200949324314e-38
15.670652 44.546401 44.715989 0.332355 0.943154 0.000000 1.5843200949324314e-38
14.587355 44.578243 44.355605 0.309017 0.951057 0.000000 1.5843200949324314e-38
13.073771 45.265718 44.351289 0.285492 0.958381 0.000000 1.5843200949324314e-38
12.258763 45.476485 44.537263 0.261793 0.965124 0.000000 1.5843200949324314e-38
11.192200 45.423333 44.616741 0.237935 0.971281 0.000000 1.5843200949324314e-38
24.901979 40.338478 45.487896 0.531659 0.846958 0.000000 1.5843200949324314e-38
24.369808 40.851853 45.469674 0.510631 0.859800 0.000000 1.5843200949324314e-38
23.090044 41.786033 45.528905 0.489293 0.872120 0.000000 1.5843200949324314e-38
22.227068 41.883687 45.760511 0.467658 0.883910 0.000000 1.5843200949324314e-38
20.551031 42.563595 45.776681 0.445738 0.895163 0.000000 1.5843200949324314e-38
20.352594 42.890810 45.792537 0.423549 0.905873 0.000000 1.5843200949324314e-38
19.072118 43.005302 46.240628 0.401102 0.916034 0.000000 1.5843200949324314e-38
17.775136 43.646784 46.160885 0.378411 0.925638 0.000000 1.5843200949324314e-38
16.878508 44.112044 45.897342 0.355491 0.934680 0.000000 1.5843200949324314e-38
15.898444 44.548081 46.049895 0.332355 0.943154 0.000000 1.5843200949324314e-38
14.226287 45.035663 46.013277 0.309017 0.951057 0.000000 1.5843200949324314e-38
13.681929 44.631049 45.735218 0.285492 0.958381 0.000000 1.5843200949324314e-38
12.010924 46.007835 45.655994 0.261793 0.965124 0.000000 1.5843200949324314e-38
11.599777 45.548034 45.890389 0.237935 0.971281 0.000000 1.5843200949324314e-38
24.200979 40.651662 46.563374 0.510631 0.859800 0.000000 1.5843200949324314e-38
23.061234 41.675100 47.388512 0.489293 0.872120 0.000000 1.5843200949324314e-38
21.981020 41.464138 47.288293 0.467658 0.883910 0.000000 1.5843200949324314e-38
21.192629 42.114671 46.077072 0.445738 0.895163 0.000000 1.5843200949324314e-38
19.828835 42.888615 46.664814 0.423549 0.905873 0.000000 1.5843200949324314e-38
19.259236 43.266320 47.014030 0.401102 0.916034 0.000000 1.5843200949324314e-38
18.685950 44.001506 46.975654 0.378411 0.925638 0.000000 1.5843200949324314e-38
16.857352 44.596457 47.173835 0.355491 0.934680 0.000000 1.5843200949324314e-38
15.485240 44.674940 46.810111 0.332355 0.943154 0.000000 1.5843200949324314e-38
14.593007 45.721608 47.195544 0.309017 0.951057 0.000000 1.5843200949324314e-38
13.536452 45.894893 47.066851 0.285492 0.958381 0.000000 1.5843200949324314e-38
11.943315 46.340998 46.963390 0.261793 0.965124 0.000000 1.5843200949324314e-38
22.625527 42.197252 48.191933 0.467658 0.883910 0.000000 1.5843200949324314e-38
21.660964 42.732873 48.022717 0.445738 0.895163 0.000000 1.5843200949324314e-38
20.805378 42.955314 47.727011 0.423549 0.905873 0.000000 1.5843200949324314e-38
19.441857 43.501650 48.377952 0.401102 0.916034 0.000000 1.5843200949324314e-38
18.606202 43.766958 48.235148 0.378411 0.925638 0.000000 1.5843200949324314e-38
17.412111 44.815546 48.193476 0.355491 0.934680 0.000000 1.5843200949324314e-38
16.579651 44.986869 48.366485 0.332355 0.943154 0.000000 1.5843200949324314e-38
15.243762 45.686878 48.643939 0.309017 0.951057 0.000000 1.5843200949324314e-38
13.356259 46.110670 48.298300 0.285492 0.958381 0.000000 1.5843200949324314e-38
12.271279 46.130628 48.304497 0.261793 0.965124 0.000000 1.5843200949324314e-38
20.840726 43.107811 49.742216 0.445738 0.895163 0.000000 1.5843200949324314e-38
19.950421 43.305317 49.311422 0.423549 0.905873 0.000000 1.5843200949324314e-38
19.807625 44.429874 49.208183 0.401102 0.916034 0.000000 1.5843200949324314e-38
17.711302 44.626655 49.647720 0.378411 0.925638 0.000000 1.5843200949324314e-38
17.422991 44.510710 49.701598 0.355491 0.934680 0.000000 1.5843200949324314e-38
15.720632 45.421838 49.473400 0.332355 0.943154 0.000000 1.5843200949324314e-38
15.391034 45.748101 49.390338 0.309017 0.951057 0.000000 1.5843200949324314e-38
13.733920 45.935029 49.138205 0.285492 0.958381 0.000000 1.5843200949324314e-38
20.258722 43.921876 50.506299 0.423549 0.905873 0.000000 1.5843200949324314e-38
19.647439 44.559453 50.807178 0.401102 0.916034 0.000000 1.5843200949324314e-38
18.606662 44.203713 50.554194 0.378411 0.925638 0.000000 1.5843200949324314e-38
17.190084 45.114855 51.150419 0.355491 0.934680 0.000000 1.5843200949324314e-38
15.718539 45.295244 50.696155 0.332355 0.943154 0.000000 1.5843200949324314e-38
14.737817 45.524392 50.578684 0.309017 0.951057 0.000000 1.5843200949324314e-38
13.685912 46.624465 50.415580 0.285492 0.958381 0.000000 1.5843200949324314e-38
17.755897 45.442090 52.112893 0.378411 0.925638 0.000000 1.5843200949324314e-38
16.509901 45.142368 52.119117 0.355491 0.934680 0.000000 1.5843200949324314e-38
16.610826 45.556782 51.164690 0.332355 0.943154 0.000000 1.5843200949324314e-38
15.404247 46.211737 51.288997 0.309017 0.951057 0.000000 1.5843200949324314e-38
17.602847 45.348200 53.000584 0.355491 0.934680 0.000000 1.5843200949324314e-38
16.796466 45.505122 53.266391 0.332355 0.943154 0.000000 1.5843200949324314e-38
