# .PCD v0.7 - Point Cloud Data file format
VERSION 0.7
FIELDS x y z normal_x normal_y normal_z rgb
SIZE 4 4 4 4 4 4 4
TYPE F F F F F F F
COUNT 1 1 1 1 1 1 1
WIDTH 244
HEIGHT 1
VIEWPOINT 0 0 0 1 0 0 0
POINTS 244
DATA ascii
-28.195868 29.179618 61.578990 -0.547550 0.564680 0.617516 1.5197831540281055e-38
-29.257779 28.422885 61.329376 -0.561296 0.551018 0.617516 1.5197831540281055e-38
-29.916970 27.678529 61.974920 -0.574701 0.537022 0.617516 1.5197831540281055e-38
-29.893078 26.842421 61.866504 -0.587758 0.522700 0.617516 1.5197831540281055e-38
-26.458505 29.434877 63.342242 -0.516932 0.588533 0.621619 1.5197831540281055e-38
-26.891410 29.288860 62.940393 -0.531275 0.575619 0.621619 1.5197831540281055e-38
-27.402635 28.364886 62.629306 -0.545295 0.562355 0.621619 1.5197831540281055e-38
-28.003826 27.751972 62.999694 -0.558985 0.548749 0.621619 1.5197831540281055e-38
-28.871730 26.624398 63.222000 -0.572335 0.534811 0.621619 1.5197831540281055e-38
-29.792702 26.289199 63.434572 -0.585338 0.520547 0.621619 1.5197831540281055e-38
-24.663536 30.767465 64.296667 -0.486742 0.612564 0.622774 1.5197831540281055e-38
-24.720270 29.754172 63.905385 -0.501686 0.600386 0.622774 1.5197831540281055e-38
-26.170165 29.606237 63.844577 -0.516326 0.587843 0.622774 1.5197831540281055e-38
-25.736385 28.540897 64.366158 -0.530652 0.574944 0.622774 1.5197831540281055e-38
-27.059955 28.421239 64.105799 -0.544656 0.561695 0.622774 1.5197831540281055e-38
-27.794325 27.259261 64.111788 -0.558330 0.548106 0.622774 1.5197831540281055e-38
-28.556915 26.352525 64.520243 -0.571664 0.534184 0.622774 1.5197831540281055e-38
-28.330827 26.291353 63.776796 -0.584652 0.519937 0.622774 1.5197831540281055e-38
-21.889660 30.717313 65.771441 -0.456796 0.636940 0.621004 1.5197831540281055e-38
-22.757776 29.761265 65.683163 -0.472350 0.625492 0.621004 1.5197831540281055e-38
-22.843479 29.211089 65.528936 -0.487617 0.613665 0.621004 1.5197831540281055e-38
-24.266237 29.625554 65.278793 -0.502588 0.601465 0.621004 1.5197831540281055e-38
-24.903231 28.188413 65.190706 -0.517254 0.588900 0.621004 1.5197831540281055e-38
-25.937333 27.847378 65.779606 -0.531606 0.575977 0.621004 1.5197831540281055e-38
-26.386719 27.461803 64.891766 -0.545635 0.562705 0.621004 1.5197831540281055e-38
-27.254626 26.137514 65.564324 -0.559333 0.549091 0.621004 1.5197831540281055e-38
-27.654255 25.654425 65.712527 -0.572692 0.535144 0.621004 1.5197831540281055e-38
-27.707055 25.269665 65.583856 -0.585702 0.520872 0.621004 1.5197831540281055e-38
-28.776324 24.658361 66.132281 -0.598357 0.506283 0.621004 1.5197831540281055e-38
-20.111752 30.876511 66.567882 -0.426885 0.661798 0.616273 1.5197831540281055e-38
-20.529010 29.795245 66.467530 -0.443060 0.651080 0.616273 1.5197831540281055e-38
-21.619853 29.766073 66.350499 -0.458967 0.639966 0.616273 1.5197831540281055e-38
-22.374977 29.511728 67.073273 -0.474594 0.628464 0.616273 1.5197831540281055e-38
-23.584658 28.548648 67.186575 -0.489934 0.616581 0.616273 1.5197831540281055e-38
-23.409534 28.275818 66.973368 -0.504976 0.604323 0.616273 1.5197831540281055e-38
-24.499516 27.629672 66.945644 -0.519712 0.591698 0.616273 1.5197831540281055e-38
-24.851507 26.842488 66.789698 -0.534132 0.578714 0.616273 1.5197831540281055e-38
-25.882360 26.523572 66.373523 -0.548228 0.565379 0.616273 1.5197831540281055e-38
-26.426376 25.906617 66.891201 -0.561991 0.551700 0.616273 1.5197831540281055e-38
-26.952030 24.535495 66.790284 -0.575413 0.537687 0.616273 1.5197831540281055e-38
-27.604849 24.525305 66.649136 -0.588486 0.523347 0.616273 1.5197831540281055e-38
-28.533365 23.283204 66.676025 -0.601201 0.508689 0.616273 1.5197831540281055e-38
-17.391359 31.097613 67.538991 -0.396779 0.687242 0.608494 1.5197831540281055e-38
-18.325245 30.295975 68.280541 -0.413591 0.677258 0.608494 1.5197831540281055e-38
-19.278820 29.232834 68.222697 -0.430151 0.666862 0.608494 1.5197831540281055e-38
-20.167844 29.401244 67.914578 -0.446450 0.656062 0.608494 1.5197831540281055e-38
-20.586350 28.758484 68.375221 -0.462479 0.644864 0.608494 1.5197831540281055e-38
-21.987933 28.601734 68.272969 -0.478226 0.633274 0.608494 1.5197831540281055e-38
-22.003620 28.029100 67.979198 -0.493683 0.621299 0.608494 1.5197831540281055e-38
-23.075443 27.051018 67.835536 -0.508840 0.608947 0.608494 1.5197831540281055e-38
-23.867410 26.507371 68.582350 -0.523689 0.596226 0.608494 1.5197831540281055e-38
-24.749059 26.593544 67.670287 -0.538219 0.583143 0.608494 1.5197831540281055e-38
-25.179391 25.339334 67.708094 -0.552423 0.569705 0.608494 1.5197831540281055e-38
-25.220318 25.206799 67.971457 -0.566292 0.555922 0.608494 1.5197831540281055e-38
-25.293910 24.389488 68.059200 -0.579816 0.541801 0.608494 1.5197831540281055e-38
-26.904903 23.502492 67.881303 -0.592989 0.527352 0.608494 1.5197831540281055e-38
-27.020578 23.250241 68.428418 -0.605801 0.512582 0.608494 1.5197831540281055e-38
-28.051545 22.576738 68.132890 -0.618246 0.497501 0.608494 1.5197831540281055e-38
-16.708015 30.089171 69.150405 -0.383696 0.704093 0.597520 1.5197831540281055e-38
-17.299216 29.939044 69.322420 -0.400927 0.694426 0.597520 1.5197831540281055e-38
-17.973132 29.817911 69.474890 -0.417914 0.684337 0.597520 1.5197831540281055e-38
-18.914221 29.020750 68.837299 -0.434648 0.673833 0.597520 1.5197831540281055e-38
-19.601256 28.604223 69.242825 -0.451117 0.662920 0.597520 1.5197831540281055e-38
-20.898795 27.818855 69.431344 -0.467313 0.651604 0.597520 1.5197831540281055e-38
-21.458716 27.709204 69.029112 -0.483225 0.639893 0.597520 1.5197831540281055e-38
-21.914094 27.266779 69.286919 -0.498844 0.627794 0.597520 1.5197831540281055e-38
-22.146495 26.369019 69.013013 -0.514159 0.615313 0.597520 1.5197831540281055e-38
-22.624448 26.074455 69.388117 -0.529163 0.602458 0.597520 1.5197831540281055e-38
-23.747652 25.704772 68.531725 -0.543845 0.589238 0.597520 1.5197831540281055e-38
-23.875867 24.842444 68.903674 -0.558198 0.575660 0.597520 1.5197831540281055e-38
-25.148104 24.295621 69.245232 -0.572211 0.561733 0.597520 1.5197831540281055e-38
-25.379990 23.397771 69.539702 -0.585877 0.547465 0.597520 1.5197831540281055e-38
-26.157190 22.949720 69.210470 -0.599187 0.532864 0.597520 1.5197831540281055e-38
-26.362834 22.464253 69.115647 -0.612134 0.517940 0.597520 1.5197831540281055e-38
-27.204456 22.178936 69.594962 -0.624709 0.502701 0.597520 1.5197831540281055e-38
-16.163543 29.811576 70.648492 -0.388725 0.713320 0.583154 1.5197831540281055e-38
-17.451646 29.332881 70.587452 -0.406181 0.703526 0.583154 1.5197831540281055e-38
-17.775537 28.673069 70.291610 -0.423391 0.693305 0.583154 1.5197831540281055e-38
-18.457372 28.752284 70.973631 -0.440343 0.682663 0.583154 1.5197831540281055e-38
-18.668368 27.548528 70.233669 -0.457029 0.671607 0.583154 1.5197831540281055e-38
-19.552639 27.928740 70.225420 -0.473437 0.660143 0.583154 1.5197831540281055e-38
-20.367380 26.704019 70.598411 -0.489557 0.648279 0.583154 1.5197831540281055e-38
-21.275482 26.587090 70.151923 -0.505381 0.636021 0.583154 1.5197831540281055e-38
-22.219897 26.934226 70.536266 -0.520897 0.623376 0.583154 1.5197831540281055e-38
-21.723415 25.914198 70.024782 -0.536098 0.610353 0.583154 1.5197831540281055e-38
-22.875810 24.514423 70.426604 -0.550972 0.596960 0.583154 1.5197831540281055e-38
-24.156379 23.856664 70.259027 -0.565513 0.583204 0.583154 1.5197831540281055e-38
-24.346875 23.751975 70.204607 -0.579710 0.569094 0.583154 1.5197831540281055e-38
-24.715919 23.478039 70.597631 -0.593555 0.554639 0.583154 1.5197831540281055e-38
-25.343437 22.622734 70.084969 -0.607039 0.539847 0.583154 1.5197831540281055e-38
-25.584792 21.530220 70.981023 -0.620156 0.524727 0.583154 1.5197831540281055e-38
-26.170617 21.412453 70.695493 -0.632895 0.509289 0.583154 1.5197831540281055e-38
-16.903333 28.414677 71.607694 -0.412496 0.714464 0.565144 1.5197831540281055e-38
-17.018019 28.024172 71.584132 -0.429974 0.704085 0.565144 1.5197831540281055e-38
-18.118935 27.837952 71.942980 -0.447190 0.693277 0.565144 1.5197831540281055e-38
-18.940378 27.144613 71.184069 -0.464135 0.682049 0.565144 1.5197831540281055e-38
-19.961338 26.978311 71.847205 -0.480798 0.670407 0.565144 1.5197831540281055e-38
-19.847363 26.826740 71.249857 -0.497169 0.658358 0.565144 1.5197831540281055e-38
-21.166289 25.515383 71.116685 -0.513238 0.645909 0.565144 1.5197831540281055e-38
-21.356965 25.513287 71.841546 -0.528996 0.633068 0.565144 1.5197831540281055e-38
-21.482551 24.920321 71.631365 -0.544433 0.619843 0.565144 1.5197831540281055e-38
-22.553213 24.395926 71.293529 -0.559539 0.606241 0.565144 1.5197831540281055e-38
-23.939752 23.822625 71.822865 -0.574305 0.592272 0.565144 1.5197831540281055e-38
-23.092723 23.340966 71.845331 -0.588723 0.577943 0.565144 1.5197831540281055e-38
-24.219914 22.301130 71.668501 -0.602783 0.563263 0.565144 1.5197831540281055e-38
-24.387849 22.082314 72.032847 -0.616478 0.548241 0.565144 1.5197831540281055e-38
-25.175510 21.058778 72.100751 -0.629798 0.532886 0.565144 1.5197831540281055e-38
-25.404330 20.756774 71.919367 -0.642735 0.517207 0.565144 1.5197831540281055e-38
-26.077284 19.920507 71.674551 -0.655283 0.501215 0.565144 1.5197831540281055e-38
-16.233263 27.792815 73.246114 -0.419803 0.727121 0.543195 1.5197831540281055e-38
-16.754760 27.371366 73.652382 -0.437590 0.716557 0.543195 1.5197831540281055e-38
-17.686044 27.175588 73.223559 -0.455112 0.705558 0.543195 1.5197831540281055e-38
-18.029096 26.381295 72.738380 -0.472357 0.694132 0.543195 1.5197831540281055e-38
-18.543792 26.509873 73.007305 -0.489315 0.682283 0.543195 1.5197831540281055e-38
-19.764195 25.729082 73.477414 -0.505976 0.670021 0.543195 1.5197831540281055e-38
-20.297930 25.144873 73.040329 -0.522330 0.657351 0.543195 1.5197831540281055e-38
-20.284611 24.580140 73.168161 -0.538367 0.644283 0.543195 1.5197831540281055e-38
-20.796209 23.778355 72.629576 -0.554077 0.630823 0.543195 1.5197831540281055e-38
-21.831178 23.986158 73.122732 -0.569451 0.616981 0.543195 1.5197831540281055e-38
-22.058419 22.636214 73.126626 -0.584479 0.602764 0.543195 1.5197831540281055e-38
-23.796050 22.985739 73.379528 -0.599152 0.588181 0.543195 1.5197831540281055e-38
-23.589265 21.321861 72.960185 -0.613461 0.573240 0.543195 1.5197831540281055e-38
-23.690236 21.552647 73.577514 -0.627398 0.557952 0.543195 1.5197831540281055e-38
-24.633959 21.438259 72.416027 -0.640954 0.542326 0.543195 1.5197831540281055e-38
-25.277859 19.828549 73.243423 -0.654121 0.526369 0.543195 1.5197831540281055e-38
-25.903320 19.894997 73.228381 -0.666891 0.510094 0.543195 1.5197831540281055e-38
-16.791055 26.422890 73.968612 -0.446134 0.730548 0.516976 1.5197831540281055e-38
-17.229156 27.096217 74.516828 -0.463998 0.719335 0.516976 1.5197831540281055e-38
-17.771989 26.533048 74.043030 -0.481579 0.707684 0.516976 1.5197831540281055e-38
-18.435506 25.392408 74.534858 -0.498869 0.695605 0.516976 1.5197831540281055e-38
-18.956650 25.527062 74.357005 -0.515855 0.683103 0.516976 1.5197831540281055e-38
-19.274998 24.055888 73.717061 -0.532529 0.670186 0.516976 1.5197831540281055e-38
-20.647727 23.983221 73.765150 -0.548879 0.656862 0.516976 1.5197831540281055e-38
-20.363695 23.548186 74.411407 -0.564895 0.643140 0.516976 1.5197831540281055e-38
-21.458817 23.337340 73.637278 -0.580569 0.629027 0.516976 1.5197831540281055e-38
-21.888210 22.708055 74.402305 -0.595891 0.614533 0.516976 1.5197831540281055e-38
-22.517975 21.498783 74.530193 -0.610850 0.599665 0.516976 1.5197831540281055e-38
-23.075868 21.361348 74.892567 -0.625439 0.584433 0.516976 1.5197831540281055e-38
-23.450783 20.725147 74.053159 -0.639648 0.568846 0.516976 1.5197831540281055e-38
-23.793535 20.049739 74.380316 -0.653469 0.552914 0.516976 1.5197831540281055e-38
-24.149444 19.672371 74.523152 -0.666893 0.536647 0.516976 1.5197831540281055e-38
-24.978399 18.883522 73.727431 -0.679912 0.520053 0.516976 1.5197831540281055e-38
-16.059546 26.144159 75.892445 -0.455454 0.745809 0.486139 1.5197831540281055e-38
-16.367791 25.752114 74.777409 -0.473690 0.734361 0.486139 1.5197831540281055e-38
-17.621109 25.573370 75.367696 -0.491639 0.722467 0.486139 1.5197831540281055e-38
-17.926671 25.134296 75.803460 -0.509290 0.710135 0.486139 1.5197831540281055e-38
-18.736533 24.679276 75.947353 -0.526631 0.697372 0.486139 1.5197831540281055e-38
-18.672538 23.879233 75.552380 -0.543653 0.684186 0.486139 1.5197831540281055e-38
-19.462154 23.566629 75.389160 -0.560344 0.670584 0.486139 1.5197831540281055e-38
-20.781013 22.808862 75.255319 -0.576696 0.656575 0.486139 1.5197831540281055e-38
-21.202484 22.595031 75.723885 -0.592697 0.642167 0.486139 1.5197831540281055e-38
-21.499393 21.381170 75.428406 -0.608338 0.627370 0.486139 1.5197831540281055e-38
-21.828007 21.570909 75.247574 -0.623611 0.612191 0.486139 1.5197831540281055e-38
-22.794977 21.228578 75.569436 -0.638504 0.596641 0.486139 1.5197831540281055e-38
-23.147505 19.953236 75.530700 -0.653010 0.580729 0.486139 1.5197831540281055e-38
-23.708127 19.946945 75.511268 -0.667119 0.564464 0.486139 1.5197831540281055e-38
-23.297290 19.225273 76.064145 -0.680824 0.547857 0.486139 1.5197831540281055e-38
-24.362765 18.453386 75.147273 -0.694115 0.530917 0.486139 1.5197831540281055e-38
-25.102618 18.175684 75.502665 -0.706985 0.513655 0.486139 1.5197831540281055e-38
-16.287716 25.752278 76.590279 -0.483973 0.750303 0.450350 1.5197831540281055e-38
-15.817025 25.071082 76.804081 -0.502312 0.738151 0.450350 1.5197831540281055e-38
-17.245731 23.901130 77.052594 -0.520346 0.725552 0.450350 1.5197831540281055e-38
-18.504089 24.238765 76.523272 -0.538064 0.712511 0.450350 1.5197831540281055e-38
-18.932282 24.056225 76.671134 -0.555455 0.699039 0.450350 1.5197831540281055e-38
-19.725727 23.349231 76.334835 -0.572509 0.685141 0.450350 1.5197831540281055e-38
-19.420398 22.570259 76.318883 -0.589215 0.670828 0.450350 1.5197831540281055e-38
-20.132397 22.236100 76.064022 -0.605564 0.656108 0.450350 1.5197831540281055e-38
-20.935625 21.660615 76.773189 -0.621545 0.640989 0.450350 1.5197831540281055e-38
-21.497124 21.272573 76.871713 -0.637148 0.625481 0.450350 1.5197831540281055e-38
-21.944448 20.443513 76.745466 -0.652365 0.609594 0.450350 1.5197831540281055e-38
-22.633660 19.660558 76.363890 -0.667186 0.593336 0.450350 1.5197831540281055e-38
-22.967682 19.150754 76.653391 -0.681602 0.576718 0.450350 1.5197831540281055e-38
-23.009852 18.774937 76.742481 -0.695604 0.559750 0.450350 1.5197831540281055e-38
-23.934485 18.646555 77.198369 -0.709183 0.542442 0.450350 1.5197831540281055e-38
-24.449234 17.879408 77.328375 -0.722332 0.524805 0.450350 1.5197831540281055e-38
-16.554016 24.726350 77.715760 -0.494564 0.766721 0.409324 1.5197831540281055e-38
-16.643777 24.534241 78.232343 -0.513304 0.754303 0.409324 1.5197831540281055e-38
-17.323341 24.138098 77.668851 -0.531732 0.741428 0.409324 1.5197831540281055e-38
-18.135911 23.528393 77.872583 -0.549837 0.728102 0.409324 1.5197831540281055e-38
-17.878372 23.701177 77.755579 -0.567609 0.714335 0.409324 1.5197831540281055e-38
-19.431633 22.193995 77.687435 -0.585036 0.700133 0.409324 1.5197831540281055e-38
-19.377158 22.053571 77.560591 -0.602108 0.685507 0.409324 1.5197831540281055e-38
-19.442881 21.845133 78.465850 -0.618814 0.670465 0.409324 1.5197831540281055e-38
-21.046295 21.529283 77.893436 -0.635145 0.655015 0.409324 1.5197831540281055e-38
-21.138314 20.643144 77.728295 -0.651090 0.639168 0.409324 1.5197831540281055e-38
-21.565695 20.395610 77.349241 -0.666640 0.622933 0.409324 1.5197831540281055e-38
-21.562570 19.693029 77.905079 -0.681785 0.606319 0.409324 1.5197831540281055e-38
-22.206684 19.136200 77.794171 -0.696516 0.589338 0.409324 1.5197831540281055e-38
-23.181177 18.917114 77.494437 -0.710825 0.571998 0.409324 1.5197831540281055e-38
-23.456412 17.473105 78.084481 -0.724701 0.554312 0.409324 1.5197831540281055e-38
-23.860269 16.939491 77.677445 -0.738138 0.536289 0.409324 1.5197831540281055e-38
-16.462971 24.043206 78.766697 -0.524244 0.770380 0.362882 1.5197831540281055e-38
-16.352337 22.843635 78.940299 -0.543065 0.757230 0.362882 1.5197831540281055e-38
-17.885431 23.368613 79.371006 -0.561556 0.743621 0.362882 1.5197831540281055e-38
-18.082644 22.229992 78.815719 -0.579707 0.729560 0.362882 1.5197831540281055e-38
-18.480570 22.003262 79.006645 -0.597505 0.715056 0.362882 1.5197831540281055e-38
-19.119162 21.618428 78.650360 -0.614941 0.700118 0.362882 1.5197831540281055e-38
-20.026180 20.873096 78.956996 -0.632003 0.684754 0.362882 1.5197831540281055e-38
-20.117843 20.789759 79.531236 -0.648682 0.668976 0.362882 1.5197831540281055e-38
-21.072709 20.364387 78.939276 -0.664967 0.652791 0.362882 1.5197831540281055e-38
-20.551139 19.725760 79.006777 -0.680848 0.636209 0.362882 1.5197831540281055e-38
-21.541861 19.289723 79.061274 -0.696316 0.619242 0.362882 1.5197831540281055e-38
-21.913201 19.145117 79.450709 -0.711361 0.601899 0.362882 1.5197831540281055e-38
-22.589867 18.675053 79.319890 -0.725975 0.584190 0.362882 1.5197831540281055e-38
-23.314645 17.597564 79.110232 -0.740147 0.566126 0.362882 1.5197831540281055e-38
-16.215455 23.754134 80.031245 -0.534691 0.785733 0.311014 1.5197831540281055e-38
-16.572767 23.053430 80.358247 -0.553887 0.772321 0.311014 1.5197831540281055e-38
-17.086563 23.286234 80.531919 -0.572747 0.758440 0.311014 1.5197831540281055e-38
-17.319391 22.727873 80.643275 -0.591259 0.744099 0.311014 1.5197831540281055e-38
-18.824306 21.793816 80.085180 -0.609413 0.729306 0.311014 1.5197831540281055e-38
-17.945208 21.107788 79.963198 -0.627196 0.714070 0.311014 1.5197831540281055e-38
-20.157168 20.628254 80.449225 -0.644598 0.698401 0.311014 1.5197831540281055e-38
-19.509903 20.135581 80.763814 -0.661609 0.682307 0.311014 1.5197831540281055e-38
-20.353163 19.816088 80.464223 -0.678219 0.665800 0.311014 1.5197831540281055e-38
-20.394417 19.470007 80.079893 -0.694417 0.648888 0.311014 1.5197831540281055e-38
-21.165440 19.058267 80.355288 -0.710193 0.631583 0.311014 1.5197831540281055e-38
-21.446286 17.718736 80.519493 -0.725538 0.613894 0.311014 1.5197831540281055e-38
-16.321474 22.888302 81.878473 -0.563686 0.785983 0.253947 1.5197831540281055e-38
-16.658490 22.862871 81.399910 -0.582879 0.771857 0.253947 1.5197831540281055e-38
-17.424938 21.541804 81.505062 -0.601719 0.757262 0.253947 1.5197831540281055e-38
-18.096150 21.807856 81.614146 -0.620193 0.742207 0.253947 1.5197831540281055e-38
-18.361552 21.031115 81.476173 -0.638291 0.726702 0.253947 1.5197831540281055e-38
-19.319108 20.878091 81.535967 -0.656001 0.710755 0.253947 1.5197831540281055e-38
-20.309897 20.385277 81.370704 -0.673313 0.694378 0.253947 1.5197831540281055e-38
-20.015590 19.367242 81.653904 -0.690217 0.677578 0.253947 1.5197831540281055e-38
-21.414083 19.195327 81.386934 -0.706701 0.660367 0.253947 1.5197831540281055e-38
-16.256459 22.633167 82.894553 -0.571925 0.797471 0.192202 1.5197831540281055e-38
-16.815731 21.991743 83.017075 -0.591399 0.783139 0.192202 1.5197831540281055e-38
-17.224698 21.537200 83.011019 -0.610514 0.768330 0.192202 1.5197831540281055e-38
-18.042154 21.563785 82.873647 -0.629258 0.753055 0.192202 1.5197831540281055e-38
-18.257893 20.974273 82.869701 -0.647620 0.737324 0.192202 1.5197831540281055e-38
-18.787906 20.715010 82.922747 -0.665590 0.721144 0.192202 1.5197831540281055e-38
-19.353155 19.884698 82.340992 -0.683155 0.704527 0.192202 1.5197831540281055e-38
-19.860949 19.127310 82.716813 -0.700305 0.687482 0.192202 1.5197831540281055e-38
-15.770766 22.790153 84.254883 -0.578099 0.806081 0.126626 1.5197831540281055e-38
-17.136258 21.766977 83.938736 -0.597784 0.791594 0.126626 1.5197831540281055e-38
-17.209865 22.094209 84.739493 -0.617105 0.776625 0.126626 1.5197831540281055e-38
-17.609226 21.379265 83.670347 -0.636052 0.761186 0.126626 1.5197831540281055e-38
-18.370845 20.605083 83.932716 -0.654612 0.745284 0.126626 1.5197831540281055e-38
-18.576304 20.179944 83.555170 -0.672776 0.728930 0.126626 1.5197831540281055e-38
-16.578165 22.262162 85.676911 -0.601607 0.796656 0.058377 1.5197831540281055e-38
-17.026936 21.783804 85.697894 -0.621052 0.781592 0.058377 1.5197831540281055e-38
-17.491658 21.209135 85.483588 -0.640120 0.766054 0.058377 1.5197831540281055e-38
-16.967729 21.660485 86.700422 -0.602402 0.797709 0.027806 1.5197831540281055e-38
