# .PCD v0.7 - Point Cloud Data file format
VERSION 0.7
FIELDS x y z normal_x normal_y normal_z rgb
SIZE 4 4 4 4 4 4 4
TYPE F F F F F F F
COUNT 1 1 1 1 1 1 1
WIDTH 234
HEIGHT 1
VIEWPOINT 0 0 0 1 0 0 0
POINTS 234
DATA ascii
-28.546761 31.367237 -0.333129 -0.678235 0.734845 0.000000 1.7041734328458258e-38
-29.727150 30.590372 0.015740 -0.696134 0.717912 0.000000 1.7041734328458258e-38
-30.416083 29.742033 -0.075593 -0.713610 0.700543 0.000000 1.7041734328458258e-38
-31.006989 29.458274 -0.769998 -0.730653 0.682749 0.000000 1.7041734328458258e-38
-31.829288 28.295911 0.088798 -0.747253 0.664540 0.000000 1.7041734328458258e-38
-32.556001 26.924926 0.098399 -0.763398 0.645928 0.000000 1.7041734328458258e-38
-32.592719 26.184103 0.259148 -0.779081 0.626924 0.000000 1.7041734328458258e-38
-33.855878 25.802008 -0.315870 -0.794290 0.607539 0.000000 1.7041734328458258e-38
-34.483559 25.370887 0.174797 -0.809017 0.587785 0.000000 1.7041734328458258e-38
-34.468557 24.479399 0.131726 -0.823253 0.567675 0.000000 1.7041734328458258e-38
-35.048857 23.388529 0.248396 -0.836989 0.547220 0.000000 1.7041734328458258e-38
-36.223200 22.393331 -0.209227 -0.850217 0.526432 0.000000 1.7041734328458258e-38
-36.377607 21.122829 0.234705 -0.862929 0.505325 0.000000 1.7041734328458258e-38
-37.249667 20.917610 0.225261 -0.875117 0.483911 0.000000 1.7041734328458258e-38
-37.141688 19.862897 -0.471612 -0.886774 0.462204 0.000000 1.7041734328458258e-38
-38.180497 18.357567 -0.155484 -0.897892 0.440216 0.000000 1.7041734328458258e-38
-38.156406 17.954575 -0.209679 -0.908465 0.417960 0.000000 1.7041734328458258e-38
-39.339812 16.816511 -0.364968 -0.918487 0.395451 0.000000 1.7041734328458258e-38
-39.639263 15.933438 0.346594 -0.927951 0.372702 0.000000 1.7041734328458258e-38
-39.633575 14.175990 0.091310 -0.936852 0.349727 0.000000 1.7041734328458258e-38
-40.148703 14.002062 0.484863 -0.945184 0.326539 0.000000 1.7041734328458258e-38
-41.119007 12.706658 0.177272 -0.952942 0.303153 0.000000 1.7041734328458258e-38
-41.279648 12.325045 0.110507 -0.960122 0.279583 0.000000 1.7041734328458258e-38
-40.831557 10.702035 0.244129 -0.966718 0.255843 0.000000 1.7041734328458258e-38
-41.020410 9.927638 0.070320 -0.972728 0.231948 0.000000 1.7041734328458258e-38
-28.664882 30.947114 1.368367 -0.678235 0.734845 0.000000 1.7041734328458258e-38
-29.960957 30.452860 1.270008 -0.696134 0.717912 0.000000 1.7041734328458258e-38
-29.597699 29.362640 1.678718 -0.713610 0.700543 0.000000 1.7041734328458258e-38
-31.010679 29.142863 1.272618 -0.730653 0.682749 0.000000 1.7041734328458258e-38
-31.627754 28.199466 1.673328 -0.747253 0.664540 0.000000 1.7041734328458258e-38
-32.584371 27.794154 1.043803 -0.763398 0.645928 0.000000 1.7041734328458258e-38
-33.132064 26.325139 1.373621 -0.779081 0.626924 0.000000 1.7041734328458258e-38
-33.326907 25.799588 1.178048 -0.794290 0.607539 0.000000 1.7041734328458258e-38
-34.720789 24.914397 0.759275 -0.809017 0.587785 0.000000 1.7041734328458258e-38
-35.265352 24.196444 1.632817 -0.823253 0.567675 0.000000 1.7041734328458258e-38
-34.732566 23.083008 1.667703 -0.836989 0.547220 0.000000 1.7041734328458258e-38
-36.064447 22.330063 1.366892 -0.850217 0.526432 0.000000 1.7041734328458258e-38
-36.659302 21.511427 1.114613 -0.862929 0.505325 0.000000 1.7041734328458258e-38
-37.615347 20.105051 1.433087 -0.875117 0.483911 0.000000 1.7041734328458258e-38
-37.774380 19.466656 1.239665 -0.886774 0.462204 0.000000 1.7041734328458258e-38
-37.925463 18.765010 1.040297 -0.897892 0.440216 0.000000 1.7041734328458258e-38
-38.245459 18.238714 1.385480 -0.908465 0.417960 0.000000 1.7041734328458258e-38
-38.747210 17.180820 1.576143 -0.918487 0.395451 0.000000 1.7041734328458258e-38
-39.257341 16.020805 1.393012 -0.927951 0.372702 0.000000 1.7041734328458258e-38
-40.149089 15.074969 0.830369 -0.936852 0.349727 0.000000 1.7041734328458258e-38
-40.412410 14.270249 1.489179 -0.945184 0.326539 0.000000 1.7041734328458258e-38
-40.057564 12.803679 0.891439 -0.952942 0.303153 0.000000 1.7041734328458258e-38
-40.881077 11.913969 1.260810 -0.960122 0.279583 0.000000 1.7041734328458258e-38
-40.749230 10.765943 1.342724 -0.966718 0.255843 0.000000 1.7041734328458258e-38
-41.641366 9.993782 1.238046 -0.972728 0.231948 0.000000 1.7041734328458258e-38
-28.753519 31.240334 2.525280 -0.678235 0.734845 0.000000 1.7041734328458258e-38
-29.735280 30.721855 2.754018 -0.696134 0.717912 0.000000 1.7041734328458258e-38
-30.194461 29.705849 1.841920 -0.713610 0.700543 0.000000 1.7041734328458258e-38
-30.833480 29.394084 2.667594 -0.730653 0.682749 0.000000 1.7041734328458258e-38
-32.033879 28.455548 2.732386 -0.747253 0.664540 0.000000 1.7041734328458258e-38
-31.988789 27.199269 2.406290 -0.763398 0.645928 0.000000 1.7041734328458258e-38
-32.898997 26.671346 2.139029 -0.779081 0.626924 0.000000 1.7041734328458258e-38
-33.645429 26.003560 2.500616 -0.794290 0.607539 0.000000 1.7041734328458258e-38
-34.330072 24.912507 2.917710 -0.809017 0.587785 0.000000 1.7041734328458258e-38
-35.271407 23.958908 2.477522 -0.823253 0.567675 0.000000 1.7041734328458258e-38
-35.321516 22.816226 2.081138 -0.836989 0.547220 0.000000 1.7041734328458258e-38
-36.758920 22.391456 2.138735 -0.850217 0.526432 0.000000 1.7041734328458258e-38
-36.803420 21.682682 2.281764 -0.862929 0.505325 0.000000 1.7041734328458258e-38
-37.136852 20.484045 2.675861 -0.875117 0.483911 0.000000 1.7041734328458258e-38
-37.559291 19.443355 2.423631 -0.886774 0.462204 0.000000 1.7041734328458258e-38
-37.861411 18.834106 2.055138 -0.897892 0.440216 0.000000 1.7041734328458258e-38
-38.427378 17.444505 2.897981 -0.908465 0.417960 0.000000 1.7041734328458258e-38
-38.742914 16.899862 2.521397 -0.918487 0.395451 0.000000 1.7041734328458258e-38
-39.515227 16.049254 2.362993 -0.927951 0.372702 0.000000 1.7041734328458258e-38
-39.760268 15.130458 2.305685 -0.936852 0.349727 0.000000 1.7041734328458258e-38
-40.370037 13.524722 2.154885 -0.945184 0.326539 0.000000 1.7041734328458258e-38
-41.063542 13.107706 3.016901 -0.952942 0.303153 0.000000 1.7041734328458258e-38
-40.392673 11.398832 2.691683 -0.960122 0.279583 0.000000 1.7041734328458258e-38
-29.138117 31.636797 4.123043 -0.678235 0.734845 0.000000 1.7041734328458258e-38
-29.907650 30.827052 3.685252 -0.696134 0.717912 0.000000 1.7041734328458258e-38
-30.251732 29.935926 4.009645 -0.713610 0.700543 0.000000 1.7041734328458258e-38
-31.053789 29.464027 3.804164 -0.730653 0.682749 0.000000 1.7041734328458258e-38
-31.597411 28.016486 4.358938 -0.747253 0.664540 0.000000 1.7041734328458258e-38
-32.330484 27.688691 3.228884 -0.763398 0.645928 0.000000 1.7041734328458258e-38
-33.385294 27.037804 3.797408 -0.779081 0.626924 0.000000 1.7041734328458258e-38
-34.359552 26.153383 3.548205 -0.794290 0.607539 0.000000 1.7041734328458258e-38
-33.988446 24.975315 3.772752 -0.809017 0.587785 0.000000 1.7041734328458258e-38
-34.663686 23.877009 3.413486 -0.823253 0.567675 0.000000 1.7041734328458258e-38
-35.660595 23.524340 3.312077 -0.836989 0.547220 0.000000 1.7041734328458258e-38
-36.664715 22.639105 3.530447 -0.850217 0.526432 0.000000 1.7041734328458258e-38
-36.822676 20.937153 3.507646 -0.862929 0.505325 0.000000 1.7041734328458258e-38
-37.225699 20.862467 3.479971 -0.875117 0.483911 0.000000 1.7041734328458258e-38
-37.222038 19.454648 3.506413 -0.886774 0.462204 0.000000 1.7041734328458258e-38
-37.730966 18.788179 3.545733 -0.897892 0.440216 0.000000 1.7041734328458258e-38
-38.688450 18.184022 4.151201 -0.908465 0.417960 0.000000 1.7041734328458258e-38
-39.313226 16.807935 3.738387 -0.918487 0.395451 0.000000 1.7041734328458258e-38
-39.766619 15.836313 3.712937 -0.927951 0.372702 0.000000 1.7041734328458258e-38
-39.507281 15.237976 3.612577 -0.936852 0.349727 0.000000 1.7041734328458258e-38
-40.267934 14.088734 3.535784 -0.945184 0.326539 0.000000 1.7041734328458258e-38
-40.357153 12.868341 3.420521 -0.952942 0.303153 0.000000 1.7041734328458258e-38
-28.361353 31.511734 4.507974 -0.678235 0.734845 0.000000 1.7041734328458258e-38
-29.699154 30.633367 5.001731 -0.696134 0.717912 0.000000 1.7041734328458258e-38
-30.211490 29.541993 4.967937 -0.713610 0.700543 0.000000 1.7041734328458258e-38
-30.972582 29.307438 4.706738 -0.730653 0.682749 0.000000 1.7041734328458258e-38
-31.908744 27.473578 4.762015 -0.747253 0.664540 0.000000 1.7041734328458258e-38
-32.649730 27.186663 4.998137 -0.763398 0.645928 0.000000 1.7041734328458258e-38
-33.176673 26.005899 5.013106 -0.779081 0.626924 0.000000 1.7041734328458258e-38
-34.085738 26.004295 4.563898 -0.794290 0.607539 0.000000 1.7041734328458258e-38
-34.425066 24.932866 5.039384 -0.809017 0.587785 0.000000 1.7041734328458258e-38
-35.002582 24.085304 4.487572 -0.823253 0.567675 0.000000 1.7041734328458258e-38
-36.067804 23.116057 4.945970 -0.836989 0.547220 0.000000 1.7041734328458258e-38
-36.370138 22.594016 4.864687 -0.850217 0.526432 0.000000 1.7041734328458258e-38
-37.018221 21.424651 5.016212 -0.862929 0.505325 0.000000 1.7041734328458258e-38
-37.150007 21.160163 4.747781 -0.875117 0.483911 0.000000 1.7041734328458258e-38
-37.765658 19.800551 4.941427 -0.886774 0.462204 0.000000 1.7041734328458258e-38
-38.367029 18.272059 4.795203 -0.897892 0.440216 0.000000 1.7041734328458258e-38
-38.988981 17.271601 4.709750 -0.908465 0.417960 0.000000 1.7041734328458258e-38
-39.407551 17.006666 5.128781 -0.918487 0.395451 0.000000 1.7041734328458258e-38
-39.767406 15.785190 4.390981 -0.927951 0.372702 0.000000 1.7041734328458258e-38
-40.023386 15.005051 5.195935 -0.936852 0.349727 0.000000 1.7041734328458258e-38
-40.443631 14.213974 4.493746 -0.945184 0.326539 0.000000 1.7041734328458258e-38
-28.508603 31.743647 6.194517 -0.678235 0.734845 0.000000 1.7041734328458258e-38
-29.486369 30.749256 5.992732 -0.696134 0.717912 0.000000 1.7041734328458258e-38
-30.234318 29.599231 6.002940 -0.713610 0.700543 0.000000 1.7041734328458258e-38
-30.786370 29.376218 5.973654 -0.730653 0.682749 0.000000 1.7041734328458258e-38
-32.051630 28.114486 6.405359 -0.747253 0.664540 0.000000 1.7041734328458258e-38
-32.819331 27.622338 6.409621 -0.763398 0.645928 0.000000 1.7041734328458258e-38
-33.213845 27.008798 6.094274 -0.779081 0.626924 0.000000 1.7041734328458258e-38
-33.899416 25.586846 6.490720 -0.794290 0.607539 0.000000 1.7041734328458258e-38
-34.692563 25.143481 6.164172 -0.809017 0.587785 0.000000 1.7041734328458258e-38
-35.384867 23.999147 6.600429 -0.823253 0.567675 0.000000 1.7041734328458258e-38
-35.593669 23.007781 6.277165 -0.836989 0.547220 0.000000 1.7041734328458258e-38
-36.261490 23.461237 6.271104 -0.850217 0.526432 0.000000 1.7041734328458258e-38
-36.873345 21.951914 5.633256 -0.862929 0.505325 0.000000 1.7041734328458258e-38
-37.250046 21.212048 6.150707 -0.875117 0.483911 0.000000 1.7041734328458258e-38
-38.294886 19.570243 6.621922 -0.886774 0.462204 0.000000 1.7041734328458258e-38
-38.135696 18.500708 5.979994 -0.897892 0.440216 0.000000 1.7041734328458258e-38
-38.866827 17.912686 6.587026 -0.908465 0.417960 0.000000 1.7041734328458258e-38
-38.810096 16.982283 5.786074 -0.918487 0.395451 0.000000 1.7041734328458258e-38
-39.927356 16.036382 5.781926 -0.927951 0.372702 0.000000 1.7041734328458258e-38
-29.817254 30.893691 7.596200 -0.696134 0.717912 0.000000 1.7041734328458258e-38
-30.272269 29.542293 7.260286 -0.713610 0.700543 0.000000 1.7041734328458258e-38
-31.074299 28.924710 7.339170 -0.730653 0.682749 0.000000 1.7041734328458258e-38
-31.731310 28.232135 7.490498 -0.747253 0.664540 0.000000 1.7041734328458258e-38
-32.074373 27.491567 7.776482 -0.763398 0.645928 0.000000 1.7041734328458258e-38
-33.053091 26.292588 7.092039 -0.779081 0.626924 0.000000 1.7041734328458258e-38
-34.119524 25.649717 7.395593 -0.794290 0.607539 0.000000 1.7041734328458258e-38
-34.313033 25.440395 7.515133 -0.809017 0.587785 0.000000 1.7041734328458258e-38
-35.238168 23.581638 7.443857 -0.823253 0.567675 0.000000 1.7041734328458258e-38
-35.682459 23.388957 8.054553 -0.836989 0.547220 0.000000 1.7041734328458258e-38
-35.882069 22.683198 7.134057 -0.850217 0.526432 0.000000 1.7041734328458258e-38
-36.950195 21.519200 7.190058 -0.862929 0.505325 0.000000 1.7041734328458258e-38
-37.165867 20.741619 7.096188 -0.875117 0.483911 0.000000 1.7041734328458258e-38
-37.454017 19.739605 6.903959 -0.886774 0.462204 0.000000 1.7041734328458258e-38
-38.302564 18.855673 7.714518 -0.897892 0.440216 0.000000 1.7041734328458258e-38
-38.839259 18.070697 7.478823 -0.908465 0.417960 0.000000 1.7041734328458258e-38
-39.559870 16.437950 7.759448 -0.918487 0.395451 0.000000 1.7041734328458258e-38
-29.842798 30.090622 8.867353 -0.696134 0.717912 0.000000 1.7041734328458258e-38
-29.940462 30.246402 8.063431 -0.713610 0.700543 0.000000 1.7041734328458258e-38
-31.647454 28.894070 8.181901 -0.730653 0.682749 0.000000 1.7041734328458258e-38
-31.888389 28.488522 8.230718 -0.747253 0.664540 0.000000 1.7041734328458258e-38
-32.357801 27.756241 8.495346 -0.763398 0.645928 0.000000 1.7041734328458258e-38
-33.312203 26.179641 8.560115 -0.779081 0.626924 0.000000 1.7041734328458258e-38
-33.907546 25.987629 8.773457 -0.794290 0.607539 0.000000 1.7041734328458258e-38
-34.465217 25.014378 8.745652 -0.809017 0.587785 0.000000 1.7041734328458258e-38
-34.845640 24.206475 8.755072 -0.823253 0.567675 0.000000 1.7041734328458258e-38
-35.788524 23.167826 8.816658 -0.836989 0.547220 0.000000 1.7041734328458258e-38
-36.463971 22.590244 8.668270 -0.850217 0.526432 0.000000 1.7041734328458258e-38
-36.931277 21.474860 8.507358 -0.862929 0.505325 0.000000 1.7041734328458258e-38
-37.854166 20.773977 8.729258 -0.875117 0.483911 0.000000 1.7041734328458258e-38
-37.603171 19.572935 9.228409 -0.886774 0.462204 0.000000 1.7041734328458258e-38
-38.446657 18.531123 8.361688 -0.897892 0.440216 0.000000 1.7041734328458258e-38
-39.304304 18.303318 9.071114 -0.908465 0.417960 0.000000 1.7041734328458258e-38
-29.508889 30.560494 9.822197 -0.696134 0.717912 0.000000 1.7041734328458258e-38
-30.846018 29.753948 10.424340 -0.713610 0.700543 0.000000 1.7041734328458258e-38
-31.213795 28.887056 9.802476 -0.730653 0.682749 0.000000 1.7041734328458258e-38
-32.424531 28.105073 10.305009 -0.747253 0.664540 0.000000 1.7041734328458258e-38
-32.678284 28.180866 9.868303 -0.763398 0.645928 0.000000 1.7041734328458258e-38
-33.316756 26.993476 9.095131 -0.779081 0.626924 0.000000 1.7041734328458258e-38
-33.894684 25.957803 10.342719 -0.794290 0.607539 0.000000 1.7041734328458258e-38
-34.296351 24.787914 10.269549 -0.809017 0.587785 0.000000 1.7041734328458258e-38
-35.273041 23.996953 9.956038 -0.823253 0.567675 0.000000 1.7041734328458258e-38
-35.842403 23.855363 9.999094 -0.836989 0.547220 0.000000 1.7041734328458258e-38
-36.285377 22.775350 10.224769 -0.850217 0.526432 0.000000 1.7041734328458258e-38
-36.655430 22.028664 10.079512 -0.862929 0.505325 0.000000 1.7041734328458258e-38
-37.361256 21.059131 9.869638 -0.875117 0.483911 0.000000 1.7041734328458258e-38
-37.899906 20.275848 10.383484 -0.886774 0.462204 0.000000 1.7041734328458258e-38
-29.848496 30.714117 11.031264 -0.696134 0.717912 0.000000 1.7041734328458258e-38
-30.700720 30.457927 11.549834 -0.713610 0.700543 0.000000 1.7041734328458258e-38
-31.150597 29.200578 11.319756 -0.730653 0.682749 0.000000 1.7041734328458258e-38
-31.972502 28.396131 11.235452 -0.747253 0.664540 0.000000 1.7041734328458258e-38
-32.818291 27.731974 11.195287 -0.763398 0.645928 0.000000 1.7041734328458258e-38
-33.176521 26.656861 11.347062 -0.779081 0.626924 0.000000 1.7041734328458258e-38
-34.280503 25.840842 10.975343 -0.794290 0.607539 0.000000 1.7041734328458258e-38
-34.960787 25.471530 10.843305 -0.809017 0.587785 0.000000 1.7041734328458258e-38
-35.458378 24.682393 10.962846 -0.823253 0.567675 0.000000 1.7041734328458258e-38
-35.893278 23.126346 11.383906 -0.836989 0.547220 0.000000 1.7041734328458258e-38
-36.149191 22.761598 11.295280 -0.850217 0.526432 0.000000 1.7041734328458258e-38
-36.925411 21.478877 10.889530 -0.862929 0.505325 0.000000 1.7041734328458258e-38
-37.082361 20.948772 10.926029 -0.875117 0.483911 0.000000 1.7041734328458258e-38
-30.077155 30.628924 12.474584 -0.696134 0.717912 0.000000 1.7041734328458258e-38
-30.428725 30.276788 12.344212 -0.713610 0.700543 0.000000 1.7041734328458258e-38
-31.179078 29.506740 12.431305 -0.730653 0.682749 0.000000 1.7041734328458258e-38
-32.092407 28.068494 12.550886 -0.747253 0.664540 0.000000 1.7041734328458258e-38
-32.729448 27.579725 12.754464 -0.763398 0.645928 0.000000 1.7041734328458258e-38
-33.843062 27.381930 12.364452 -0.779081 0.626924 0.000000 1.7041734328458258e-38
-33.971783 25.938790 11.871012 -0.794290 0.607539 0.000000 1.7041734328458258e-38
-34.740566 25.310492 12.574002 -0.809017 0.587785 0.000000 1.7041734328458258e-38
-35.368672 23.689768 11.908636 -0.823253 0.567675 0.000000 1.7041734328458258e-38
-35.282799 23.142448 12.799249 -0.836989 0.547220 0.000000 1.7041734328458258e-38
-36.745980 22.523902 12.558696 -0.850217 0.526432 0.000000 1.7041734328458258e-38
-37.257024 22.151027 12.393853 -0.862929 0.505325 0.000000 1.7041734328458258e-38
-30.330052 30.485217 13.611011 -0.696134 0.717912 0.000000 1.7041734328458258e-38
-30.303793 29.922357 13.465239 -0.713610 0.700543 0.000000 1.7041734328458258e-38
-31.461664 29.510215 13.464960 -0.730653 0.682749 0.000000 1.7041734328458258e-38
-32.270176 28.152304 13.436731 -0.747253 0.664540 0.000000 1.7041734328458258e-38
-32.450711 27.783420 13.386291 -0.763398 0.645928 0.000000 1.7041734328458258e-38
-33.106989 26.763947 14.034234 -0.779081 0.626924 0.000000 1.7041734328458258e-38
-33.710309 26.123329 13.158683 -0.794290 0.607539 0.000000 1.7041734328458258e-38
-34.077378 25.373873 13.511081 -0.809017 0.587785 0.000000 1.7041734328458258e-38
-35.089123 24.604213 14.001529 -0.823253 0.567675 0.000000 1.7041734328458258e-38
-36.164921 23.610086 13.252486 -0.836989 0.547220 0.000000 1.7041734328458258e-38
-30.953246 29.669679 15.041458 -0.713610 0.700543 0.000000 1.7041734328458258e-38
-31.772930 29.449316 15.185626 -0.730653 0.682749 0.000000 1.7041734328458258e-38
-32.377807 28.534231 14.454351 -0.747253 0.664540 0.000000 1.7041734328458258e-38
-32.987934 28.585444 15.078741 -0.763398 0.645928 0.000000 1.7041734328458258e-38
-33.626115 26.811419 14.832571 -0.779081 0.626924 0.000000 1.7041734328458258e-38
-34.162584 26.034506 15.004379 -0.794290 0.607539 0.000000 1.7041734328458258e-38
-35.121773 25.022129 14.956419 -0.809017 0.587785 0.000000 1.7041734328458258e-38
-35.799322 24.662404 14.841077 -0.823253 0.567675 0.000000 1.7041734328458258e-38
-31.472752 29.826157 16.241441 -0.730653 0.682749 0.000000 1.7041734328458258e-38
-32.023218 28.539475 16.021768 -0.747253 0.664540 0.000000 1.7041734328458258e-38
-32.980080 27.859632 16.432862 -0.763398 0.645928 0.000000 1.7041734328458258e-38
-34.325383 27.064066 16.058625 -0.779081 0.626924 0.000000 1.7041734328458258e-38
-34.689040 26.419880 15.865124 -0.794290 0.607539 0.000000 1.7041734328458258e-38
-35.020248 25.920514 16.385466 -0.809017 0.587785 0.000000 1.7041734328458258e-38
-32.259468 28.482233 17.180519 -0.747253 0.664540 0.000000 1.7041734328458258e-38
-33.159750 27.688734 17.413650 -0.763398 0.645928 0.000000 1.7041734328458258e-38
-33.575926 27.413239 17.062301 -0.779081 0.626924 0.000000 1.7041734328458258e-38
