# .PCD v0.7 - Point Cloud Data file format
VERSION 0.7
FIELDS x y z normal_x normal_y normal_z rgb
SIZE 4 4 4 4 4 4 4
TYPE F F F F F F F
COUNT 1 1 1 1 1 1 1
WIDTH 274
HEIGHT 1
VIEWPOINT 0 0 0 1 0 0 0
POINTS 274
DATA ascii
15.185693 -25.762639 17.890628 0.380803 -0.641195 -0.666227 1.7041734328458258e-38
15.591801 -24.968828 16.973183 0.396484 -0.631618 -0.666227 1.7041734328458258e-38
16.691866 -24.681659 17.166478 0.411926 -0.621658 -0.666227 1.7041734328458258e-38
16.738509 -25.071273 17.135054 0.427117 -0.611321 -0.666227 1.7041734328458258e-38
17.859554 -24.374608 17.348672 0.442048 -0.600612 -0.666227 1.7041734328458258e-38
14.821691 -26.912389 18.411757 0.352153 -0.627681 -0.694266 1.7041734328458258e-38
15.921763 -26.897291 18.042659 0.367511 -0.618814 -0.694266 1.7041734328458258e-38
16.385404 -26.050578 18.643101 0.382645 -0.609572 -0.694266 1.7041734328458258e-38
17.251799 -25.788239 18.678059 0.397547 -0.599959 -0.694266 1.7041734328458258e-38
17.921523 -25.505639 18.581568 0.412208 -0.589983 -0.694266 1.7041734328458258e-38
18.906619 -24.935281 18.569470 0.426619 -0.579648 -0.694266 1.7041734328458258e-38
19.024318 -24.582755 18.426094 0.440770 -0.568961 -0.694266 1.7041734328458258e-38
19.654337 -24.193704 18.513047 0.454654 -0.557929 -0.694266 1.7041734328458258e-38
14.374257 -28.296932 20.261105 0.311443 -0.625463 -0.715402 1.7041734328458258e-38
15.161915 -28.846315 19.506665 0.326759 -0.617599 -0.715402 1.7041734328458258e-38
15.521498 -27.738093 20.283331 0.341875 -0.609362 -0.715402 1.7041734328458258e-38
16.524097 -27.815215 20.258428 0.356785 -0.600754 -0.715402 1.7041734328458258e-38
16.849815 -27.294665 19.932704 0.371478 -0.591781 -0.715402 1.7041734328458258e-38
17.552197 -27.070327 19.579693 0.385945 -0.582449 -0.715402 1.7041734328458258e-38
18.892892 -25.858264 19.828252 0.400178 -0.572764 -0.715402 1.7041734328458258e-38
19.033034 -26.149502 19.794338 0.414168 -0.562730 -0.715402 1.7041734328458258e-38
19.582455 -25.519868 19.917784 0.427906 -0.552356 -0.715402 1.7041734328458258e-38
20.247960 -25.053369 19.738178 0.441385 -0.541645 -0.715402 1.7041734328458258e-38
14.210674 -30.660792 20.893459 0.289147 -0.618418 -0.730721 1.7041734328458258e-38
15.529438 -29.826092 21.345465 0.304295 -0.611107 -0.730721 1.7041734328458258e-38
15.373611 -29.854589 20.826501 0.319259 -0.603424 -0.730721 1.7041734328458258e-38
16.467093 -29.304676 20.884080 0.334029 -0.595375 -0.730721 1.7041734328458258e-38
17.018279 -29.077462 20.976976 0.348596 -0.586965 -0.730721 1.7041734328458258e-38
18.166791 -28.862462 21.134872 0.362951 -0.578198 -0.730721 1.7041734328458258e-38
18.941354 -28.015497 20.872265 0.377087 -0.569081 -0.730721 1.7041734328458258e-38
19.487848 -27.790854 21.024120 0.390993 -0.559617 -0.730721 1.7041734328458258e-38
19.570215 -27.574972 20.985333 0.404662 -0.549815 -0.730721 1.7041734328458258e-38
20.162670 -26.519397 21.365437 0.418085 -0.539678 -0.730721 1.7041734328458258e-38
21.745013 -25.973693 21.336693 0.431254 -0.529213 -0.730721 1.7041734328458258e-38
21.942611 -25.586757 20.453495 0.444162 -0.518428 -0.730721 1.7041734328458258e-38
13.023401 -32.650063 22.423797 0.254100 -0.621558 -0.741012 1.7041734328458258e-38
14.172171 -32.278188 21.989865 0.269336 -0.615109 -0.741012 1.7041734328458258e-38
14.817668 -31.893518 22.321640 0.284409 -0.608286 -0.741012 1.7041734328458258e-38
15.991292 -31.248319 21.903956 0.299309 -0.601094 -0.741012 1.7041734328458258e-38
16.433225 -30.891055 22.222994 0.314028 -0.593538 -0.741012 1.7041734328458258e-38
17.213002 -30.219112 22.278692 0.328556 -0.585621 -0.741012 1.7041734328458258e-38
17.796649 -29.377553 22.628207 0.342884 -0.577348 -0.741012 1.7041734328458258e-38
18.798549 -29.509236 21.966318 0.357005 -0.568725 -0.741012 1.7041734328458258e-38
19.609073 -29.039353 22.094891 0.370908 -0.559757 -0.741012 1.7041734328458258e-38
19.908587 -28.888883 22.585240 0.384587 -0.550449 -0.741012 1.7041734328458258e-38
20.884982 -28.043564 22.255206 0.398032 -0.540806 -0.741012 1.7041734328458258e-38
21.161857 -28.219042 21.844163 0.411235 -0.530836 -0.741012 1.7041734328458258e-38
21.816280 -27.313133 22.354849 0.424188 -0.520543 -0.741012 1.7041734328458258e-38
22.942158 -26.532579 22.690716 0.436885 -0.509934 -0.741012 1.7041734328458258e-38
13.074053 -34.149145 23.774053 0.236417 -0.621604 -0.746804 1.7041734328458258e-38
13.800268 -33.700057 23.575424 0.251660 -0.615590 -0.746804 1.7041734328458258e-38
14.649907 -32.896831 23.191308 0.266750 -0.609203 -0.746804 1.7041734328458258e-38
15.758133 -32.845942 23.353309 0.281679 -0.602446 -0.746804 1.7041734328458258e-38
16.004359 -32.764883 22.982880 0.296436 -0.595323 -0.746804 1.7041734328458258e-38
17.163541 -31.462078 23.019870 0.311013 -0.587839 -0.746804 1.7041734328458258e-38
17.459831 -31.403280 23.491464 0.325402 -0.579998 -0.746804 1.7041734328458258e-38
18.769151 -31.212479 23.330966 0.339592 -0.571805 -0.746804 1.7041734328458258e-38
19.213695 -31.430868 23.162109 0.353577 -0.563265 -0.746804 1.7041734328458258e-38
20.316849 -29.874302 23.927004 0.367347 -0.554383 -0.746804 1.7041734328458258e-38
20.903381 -30.405969 23.314653 0.380894 -0.545164 -0.746804 1.7041734328458258e-38
21.894662 -28.721461 23.913949 0.394210 -0.535614 -0.746804 1.7041734328458258e-38
22.139484 -29.061846 23.492965 0.407287 -0.525739 -0.746804 1.7041734328458258e-38
22.914413 -27.644294 23.573492 0.420116 -0.515545 -0.746804 1.7041734328458258e-38
23.600677 -27.518938 23.625112 0.432690 -0.505038 -0.746804 1.7041734328458258e-38
11.637556 -35.836512 24.669032 0.204958 -0.630797 -0.748390 1.7041734328458258e-38
11.866592 -35.304061 24.815608 0.220437 -0.625556 -0.748390 1.7041734328458258e-38
13.635633 -35.235643 24.941716 0.235783 -0.619935 -0.748390 1.7041734328458258e-38
13.837911 -35.210791 23.999405 0.250985 -0.613938 -0.748390 1.7041734328458258e-38
15.065395 -34.730075 24.471253 0.266034 -0.607568 -0.748390 1.7041734328458258e-38
16.051460 -34.243332 24.312341 0.280922 -0.600829 -0.748390 1.7041734328458258e-38
17.550176 -33.723434 24.417319 0.295640 -0.593725 -0.748390 1.7041734328458258e-38
17.411286 -33.340458 24.689694 0.310178 -0.586261 -0.748390 1.7041734328458258e-38
18.817683 -32.868318 25.298830 0.324528 -0.578441 -0.748390 1.7041734328458258e-38
19.100918 -32.252594 25.048862 0.338681 -0.570270 -0.748390 1.7041734328458258e-38
20.381127 -31.503340 24.660665 0.352628 -0.561753 -0.748390 1.7041734328458258e-38
20.800715 -32.137741 24.683465 0.366361 -0.552894 -0.748390 1.7041734328458258e-38
21.896889 -30.602816 24.716322 0.379872 -0.543700 -0.748390 1.7041734328458258e-38
22.833312 -30.446280 24.527426 0.393152 -0.534176 -0.748390 1.7041734328458258e-38
22.923625 -30.108615 24.928987 0.406193 -0.524328 -0.748390 1.7041734328458258e-38
23.877120 -29.011604 24.617957 0.418988 -0.514161 -0.748390 1.7041734328458258e-38
24.485213 -29.253123 24.855136 0.431528 -0.503682 -0.748390 1.7041734328458258e-38
25.229471 -28.317392 24.710871 0.443807 -0.492898 -0.748390 1.7041734328458258e-38
10.115889 -37.883412 25.002171 0.174383 -0.642881 -0.745851 1.7041734328458258e-38
11.045140 -37.696878 25.916264 0.190170 -0.638390 -0.745851 1.7041734328458258e-38
12.068415 -36.610791 26.070794 0.205840 -0.633511 -0.745851 1.7041734328458258e-38
13.079532 -36.683890 26.240924 0.221386 -0.628247 -0.745851 1.7041734328458258e-38
14.019103 -36.417103 26.192756 0.236797 -0.622602 -0.745851 1.7041734328458258e-38
14.049921 -35.521784 26.456300 0.252064 -0.616579 -0.745851 1.7041734328458258e-38
15.729173 -36.197338 26.342487 0.267179 -0.610181 -0.745851 1.7041734328458258e-38
16.332481 -35.216503 25.594510 0.282131 -0.603414 -0.745851 1.7041734328458258e-38
18.075136 -35.391063 26.000077 0.296912 -0.596279 -0.745851 1.7041734328458258e-38
17.626559 -34.531284 25.851796 0.311513 -0.588783 -0.745851 1.7041734328458258e-38
19.449285 -34.186094 26.320969 0.325924 -0.580930 -0.745851 1.7041734328458258e-38
19.634208 -33.661954 25.900808 0.340138 -0.572723 -0.745851 1.7041734328458258e-38
20.911328 -32.965355 26.196049 0.354145 -0.564169 -0.745851 1.7041734328458258e-38
21.651303 -32.355894 25.710022 0.367937 -0.555273 -0.745851 1.7041734328458258e-38
22.483400 -31.530484 25.475384 0.381506 -0.546039 -0.745851 1.7041734328458258e-38
23.295391 -31.249134 26.417737 0.394843 -0.536474 -0.745851 1.7041734328458258e-38
24.134377 -30.842202 26.108403 0.407941 -0.526584 -0.745851 1.7041734328458258e-38
24.449406 -30.390073 25.578671 0.420791 -0.516373 -0.745851 1.7041734328458258e-38
25.854404 -29.521642 25.704548 0.433385 -0.505849 -0.745851 1.7041734328458258e-38
26.212655 -28.673887 26.277219 0.445716 -0.495018 -0.745851 1.7041734328458258e-38
10.136086 -39.487984 27.280837 0.160283 -0.654294 -0.739059 1.7041734328458258e-38
10.514303 -39.150566 27.868199 0.176354 -0.650147 -0.739059 1.7041734328458258e-38
11.409336 -38.834162 27.017255 0.192319 -0.645605 -0.739059 1.7041734328458258e-38
12.504384 -38.477035 26.880719 0.208166 -0.640670 -0.739059 1.7041734328458258e-38
13.308196 -37.944294 27.524591 0.223888 -0.635347 -0.739059 1.7041734328458258e-38
14.377986 -37.766912 27.108196 0.239473 -0.629638 -0.739059 1.7041734328458258e-38
15.146607 -37.694953 26.749500 0.254913 -0.623547 -0.739059 1.7041734328458258e-38
16.003873 -36.759619 27.089170 0.270198 -0.617077 -0.739059 1.7041734328458258e-38
17.018225 -36.729754 27.589907 0.285319 -0.610233 -0.739059 1.7041734328458258e-38
17.740544 -36.104033 27.195955 0.300267 -0.603018 -0.739059 1.7041734328458258e-38
18.925527 -35.658916 27.233644 0.315033 -0.595438 -0.739059 1.7041734328458258e-38
20.017667 -35.264377 27.739808 0.329608 -0.587495 -0.739059 1.7041734328458258e-38
20.655709 -35.268615 27.407988 0.343982 -0.579196 -0.739059 1.7041734328458258e-38
21.610066 -34.228686 27.138623 0.358147 -0.570545 -0.739059 1.7041734328458258e-38
21.695075 -34.282591 27.710751 0.372095 -0.561548 -0.739059 1.7041734328458258e-38
22.977278 -32.848481 26.735585 0.385818 -0.552211 -0.739059 1.7041734328458258e-38
23.648283 -32.354087 27.185745 0.399306 -0.542537 -0.739059 1.7041734328458258e-38
24.918505 -31.961515 27.154193 0.412551 -0.532535 -0.739059 1.7041734328458258e-38
25.333026 -31.695971 27.637305 0.425546 -0.522209 -0.739059 1.7041734328458258e-38
26.771563 -31.010701 26.885271 0.438283 -0.511566 -0.739059 1.7041734328458258e-38
26.945402 -29.939643 27.161949 0.450754 -0.500613 -0.739059 1.7041734328458258e-38
27.931532 -29.380992 27.182106 0.462951 -0.489355 -0.739059 1.7041734328458258e-38
7.823963 -41.034739 28.347991 0.130190 -0.673462 -0.727667 1.7041734328458258e-38
9.084391 -40.578532 28.221569 0.146743 -0.670050 -0.727667 1.7041734328458258e-38
9.693568 -40.572848 27.990489 0.163207 -0.666231 -0.727667 1.7041734328458258e-38
10.789743 -39.900511 28.001718 0.179572 -0.662008 -0.727667 1.7041734328458258e-38
11.820494 -40.201033 29.055189 0.195827 -0.657383 -0.727667 1.7041734328458258e-38
12.743624 -39.861397 28.144379 0.211964 -0.652359 -0.727667 1.7041734328458258e-38
13.882399 -39.306401 28.187862 0.227972 -0.646939 -0.727667 1.7041734328458258e-38
15.142412 -38.952218 28.709178 0.243842 -0.641126 -0.727667 1.7041734328458258e-38
15.704535 -38.582971 28.389679 0.259564 -0.634923 -0.727667 1.7041734328458258e-38
17.187867 -38.219968 28.456234 0.275128 -0.628336 -0.727667 1.7041734328458258e-38
17.550507 -37.985333 28.524925 0.290525 -0.621366 -0.727667 1.7041734328458258e-38
18.860535 -37.588641 28.491582 0.305746 -0.614020 -0.727667 1.7041734328458258e-38
19.585287 -36.805799 27.941359 0.320781 -0.606301 -0.727667 1.7041734328458258e-38
20.156138 -36.830687 28.463474 0.335621 -0.598214 -0.727667 1.7041734328458258e-38
21.054382 -36.055319 28.095324 0.350258 -0.589763 -0.727667 1.7041734328458258e-38
22.081874 -35.707393 28.680981 0.364682 -0.580955 -0.727667 1.7041734328458258e-38
23.211304 -34.767335 28.363026 0.378884 -0.571793 -0.727667 1.7041734328458258e-38
23.306916 -34.370974 28.225171 0.392857 -0.562285 -0.727667 1.7041734328458258e-38
24.828571 -33.447924 28.550998 0.406591 -0.552435 -0.727667 1.7041734328458258e-38
25.954438 -33.184236 28.270675 0.420078 -0.542250 -0.727667 1.7041734328458258e-38
26.692501 -32.323740 28.379509 0.433310 -0.531736 -0.727667 1.7041734328458258e-38
27.724689 -31.540495 28.396445 0.446279 -0.520899 -0.727667 1.7041734328458258e-38
27.738049 -30.636816 28.515707 0.458977 -0.509746 -0.727667 1.7041734328458258e-38
28.707322 -30.134001 28.717635 0.471397 -0.498283 -0.727667 1.7041734328458258e-38
7.374652 -42.330493 29.827533 0.116401 -0.693399 -0.711090 1.7041734328458258e-38
8.611853 -42.356858 29.873597 0.133449 -0.690320 -0.711090 1.7041734328458258e-38
9.228452 -42.073832 30.082709 0.150417 -0.686823 -0.711090 1.7041734328458258e-38
10.866369 -41.937760 29.940838 0.167292 -0.682909 -0.711090 1.7041734328458258e-38
11.364482 -41.443964 29.764875 0.184067 -0.678580 -0.711090 1.7041734328458258e-38
12.188923 -42.328548 30.151164 0.200729 -0.673839 -0.711090 1.7041734328458258e-38
13.093067 -41.010233 29.624634 0.217270 -0.668689 -0.711090 1.7041734328458258e-38
14.070910 -40.525553 29.677428 0.233679 -0.663133 -0.711090 1.7041734328458258e-38
15.086970 -40.188046 29.680808 0.249946 -0.657174 -0.711090 1.7041734328458258e-38
16.566872 -40.245739 29.449105 0.266061 -0.650817 -0.711090 1.7041734328458258e-38
17.482810 -39.622145 29.419701 0.282015 -0.644064 -0.711090 1.7041734328458258e-38
18.054353 -39.023175 29.661568 0.297797 -0.636920 -0.711090 1.7041734328458258e-38
19.123604 -38.840439 29.922669 0.313399 -0.629390 -0.711090 1.7041734328458258e-38
20.527960 -38.620593 29.224659 0.328811 -0.621478 -0.711090 1.7041734328458258e-38
21.362233 -37.069022 29.051968 0.344022 -0.613188 -0.711090 1.7041734328458258e-38
22.224503 -36.518303 29.431998 0.359025 -0.604526 -0.711090 1.7041734328458258e-38
23.358924 -36.510303 29.785113 0.373810 -0.595497 -0.711090 1.7041734328458258e-38
23.560512 -35.581701 29.941057 0.388368 -0.586107 -0.711090 1.7041734328458258e-38
25.170519 -34.853149 29.687977 0.402691 -0.576360 -0.711090 1.7041734328458258e-38
26.447477 -34.261993 29.852876 0.416768 -0.566264 -0.711090 1.7041734328458258e-38
26.062184 -34.487094 29.257213 0.430593 -0.555824 -0.711090 1.7041734328458258e-38
26.911594 -32.955088 29.836848 0.444157 -0.545047 -0.711090 1.7041734328458258e-38
27.821537 -32.728977 29.613398 0.457450 -0.533938 -0.711090 1.7041734328458258e-38
29.042417 -32.251948 29.795628 0.470466 -0.522506 -0.711090 1.7041734328458258e-38
29.671795 -31.523641 30.167123 0.483197 -0.510756 -0.711090 1.7041734328458258e-38
30.254507 -30.828495 29.946586 0.495634 -0.498696 -0.711090 1.7041734328458258e-38
5.080690 -43.624474 30.768824 0.084691 -0.720299 -0.688474 1.7041734328458258e-38
5.978458 -43.574976 30.852980 0.102411 -0.717994 -0.688474 1.7041734328458258e-38
7.205656 -43.265311 30.577651 0.120070 -0.715253 -0.688474 1.7041734328458258e-38
8.262438 -43.194103 30.558251 0.137655 -0.712078 -0.688474 1.7041734328458258e-38
10.000971 -43.298939 31.190193 0.155157 -0.708470 -0.688474 1.7041734328458258e-38
10.792396 -43.033171 30.784131 0.172565 -0.704432 -0.688474 1.7041734328458258e-38
11.573681 -42.501182 30.631908 0.189868 -0.699967 -0.688474 1.7041734328458258e-38
12.274464 -41.971296 30.707379 0.207056 -0.695076 -0.688474 1.7041734328458258e-38
13.782867 -42.153038 30.880475 0.224118 -0.689764 -0.688474 1.7041734328458258e-38
15.138656 -41.768193 30.820787 0.241044 -0.684033 -0.688474 1.7041734328458258e-38
15.652592 -41.518603 30.726808 0.257824 -0.677887 -0.688474 1.7041734328458258e-38
16.598088 -40.468412 31.141282 0.274447 -0.671329 -0.688474 1.7041734328458258e-38
17.648611 -40.247817 30.451677 0.290903 -0.664363 -0.688474 1.7041734328458258e-38
19.158344 -39.704092 31.598735 0.307183 -0.656995 -0.688474 1.7041734328458258e-38
20.031196 -39.487454 31.315177 0.323277 -0.649227 -0.688474 1.7041734328458258e-38
20.510101 -39.239182 30.908562 0.339174 -0.641065 -0.688474 1.7041734328458258e-38
22.066057 -38.855503 30.639217 0.354865 -0.632514 -0.688474 1.7041734328458258e-38
22.670755 -37.838230 30.716911 0.370341 -0.623579 -0.688474 1.7041734328458258e-38
23.731599 -37.074617 31.287974 0.385592 -0.614266 -0.688474 1.7041734328458258e-38
24.552857 -36.921207 31.448522 0.400609 -0.604579 -0.688474 1.7041734328458258e-38
25.353045 -35.998414 31.515319 0.415382 -0.594526 -0.688474 1.7041734328458258e-38
26.485169 -35.944114 30.556128 0.429904 -0.584111 -0.688474 1.7041734328458258e-38
27.015538 -34.774964 31.061271 0.444164 -0.573342 -0.688474 1.7041734328458258e-38
28.620734 -34.178882 30.829603 0.458155 -0.562225 -0.688474 1.7041734328458258e-38
28.455416 -33.256025 30.926017 0.471868 -0.550767 -0.688474 1.7041734328458258e-38
29.162904 -32.883830 30.629114 0.485294 -0.538974 -0.688474 1.7041734328458258e-38
3.783089 -44.568796 32.494552 0.069426 -0.749231 -0.658660 1.7041734328458258e-38
5.414166 -44.883857 31.808234 0.087865 -0.747293 -0.658660 1.7041734328458258e-38
5.867803 -44.946107 32.578580 0.106249 -0.744901 -0.658660 1.7041734328458258e-38
7.632932 -44.249287 32.561315 0.124569 -0.742057 -0.658660 1.7041734328458258e-38
8.620944 -44.208193 32.621727 0.142814 -0.738763 -0.658660 1.7041734328458258e-38
9.686018 -44.401680 32.207084 0.160972 -0.735020 -0.658660 1.7041734328458258e-38
10.075917 -44.000727 32.381080 0.179032 -0.730831 -0.658660 1.7041734328458258e-38
11.925703 -43.702001 32.151906 0.196984 -0.726198 -0.658660 1.7041734328458258e-38
12.358889 -43.000577 32.054600 0.214815 -0.721125 -0.658660 1.7041734328458258e-38
13.840445 -42.759504 32.458559 0.232517 -0.715613 -0.658660 1.7041734328458258e-38
15.166960 -42.577426 31.818452 0.250077 -0.709668 -0.658660 1.7041734328458258e-38
16.110879 -42.035150 31.961806 0.267486 -0.703291 -0.658660 1.7041734328458258e-38
16.875958 -41.989598 32.195566 0.284732 -0.696487 -0.658660 1.7041734328458258e-38
18.399614 -41.990712 31.400135 0.301805 -0.689261 -0.658660 1.7041734328458258e-38
19.500544 -41.441007 31.981951 0.318695 -0.681616 -0.658660 1.7041734328458258e-38
19.576364 -40.323123 32.270050 0.335392 -0.673557 -0.658660 1.7041734328458258e-38
21.319271 -40.028179 31.546900 0.351885 -0.665089 -0.658660 1.7041734328458258e-38
21.912655 -39.719596 31.940326 0.368164 -0.656218 -0.658660 1.7041734328458258e-38
23.095261 -38.951049 32.466880 0.384220 -0.646948 -0.658660 1.7041734328458258e-38
23.687092 -38.444698 32.378412 0.400042 -0.637286 -0.658660 1.7041734328458258e-38
24.793717 -37.893698 32.304914 0.415622 -0.627236 -0.658660 1.7041734328458258e-38
25.998874 -37.004420 32.193358 0.430949 -0.616806 -0.658660 1.7041734328458258e-38
26.810739 -36.906735 32.239099 0.446015 -0.606001 -0.658660 1.7041734328458258e-38
27.826743 -36.178822 32.339565 0.460810 -0.594829 -0.658660 1.7041734328458258e-38
6.637559 -45.785110 33.518458 0.110772 -0.776613 -0.620162 1.7041734328458258e-38
7.573923 -45.932668 34.016159 0.129873 -0.773648 -0.620162 1.7041734328458258e-38
8.643607 -45.963613 32.910447 0.148894 -0.770214 -0.620162 1.7041734328458258e-38
9.824795 -45.063203 33.229278 0.167825 -0.766312 -0.620162 1.7041734328458258e-38
11.488182 -45.088950 33.734929 0.186654 -0.761944 -0.620162 1.7041734328458258e-38
11.925081 -45.023625 33.429376 0.205370 -0.757114 -0.620162 1.7041734328458258e-38
13.397256 -44.541644 33.489801 0.223961 -0.751825 -0.620162 1.7041734328458258e-38
14.521083 -44.574097 33.299781 0.242416 -0.746079 -0.620162 1.7041734328458258e-38
15.272271 -43.922168 33.524125 0.260724 -0.739880 -0.620162 1.7041734328458258e-38
16.350411 -43.989262 33.331106 0.278873 -0.733232 -0.620162 1.7041734328458258e-38
17.246480 -42.819105 33.643771 0.296853 -0.726138 -0.620162 1.7041734328458258e-38
17.966643 -42.754455 33.508074 0.314654 -0.718604 -0.620162 1.7041734328458258e-38
19.238416 -41.815753 33.716857 0.332263 -0.710634 -0.620162 1.7041734328458258e-38
20.642524 -41.785561 32.708892 0.349670 -0.702232 -0.620162 1.7041734328458258e-38
21.952825 -40.430236 33.940757 0.366865 -0.693404 -0.620162 1.7041734328458258e-38
22.654435 -40.811500 33.653349 0.383837 -0.684155 -0.620162 1.7041734328458258e-38
23.665387 -39.768381 33.492887 0.400577 -0.674490 -0.620162 1.7041734328458258e-38
24.707479 -39.007159 33.721762 0.417073 -0.664416 -0.620162 1.7041734328458258e-38
25.483919 -38.972670 32.652327 0.433316 -0.653939 -0.620162 1.7041734328458258e-38
26.482458 -38.380266 33.527821 0.449296 -0.643065 -0.620162 1.7041734328458258e-38
10.646262 -46.175590 34.751300 0.175600 -0.801816 -0.571188 1.7041734328458258e-38
11.141745 -45.774611 34.627282 0.195302 -0.797246 -0.571188 1.7041734328458258e-38
11.843719 -45.795824 34.284222 0.214885 -0.792192 -0.571188 1.7041734328458258e-38
13.548927 -45.645097 34.782614 0.234337 -0.786657 -0.571188 1.7041734328458258e-38
14.642383 -45.397694 34.491414 0.253647 -0.780645 -0.571188 1.7041734328458258e-38
15.919941 -44.304807 34.368449 0.272803 -0.774159 -0.571188 1.7041734328458258e-38
16.499807 -43.662716 34.636245 0.291794 -0.767203 -0.571188 1.7041734328458258e-38
17.941530 -44.041773 34.703741 0.310607 -0.759781 -0.571188 1.7041734328458258e-38
19.502792 -43.288987 34.958664 0.329232 -0.751898 -0.571188 1.7041734328458258e-38
20.059605 -43.192052 34.434204 0.347657 -0.743558 -0.571188 1.7041734328458258e-38
20.766042 -42.311954 35.006342 0.365870 -0.734767 -0.571188 1.7041734328458258e-38
22.187349 -41.936877 34.402283 0.383862 -0.725530 -0.571188 1.7041734328458258e-38
23.269902 -41.657830 34.298945 0.401621 -0.715852 -0.571188 1.7041734328458258e-38
24.443478 -40.786495 34.549939 0.419136 -0.705740 -0.571188 1.7041734328458258e-38
12.759921 -46.103554 35.649751 0.225224 -0.830308 -0.509767 1.7041734328458258e-38
14.026307 -46.510841 35.914568 0.245612 -0.824508 -0.509767 1.7041734328458258e-38
14.802729 -45.768147 35.579578 0.265851 -0.818206 -0.509767 1.7041734328458258e-38
16.129986 -44.925754 35.584732 0.285929 -0.811408 -0.509767 1.7041734328458258e-38
17.169538 -44.736924 35.787266 0.305833 -0.804117 -0.509767 1.7041734328458258e-38
18.624098 -44.687323 35.841400 0.325552 -0.796338 -0.509767 1.7041734328458258e-38
19.010310 -44.058118 35.877196 0.345073 -0.788075 -0.509767 1.7041734328458258e-38
20.579581 -43.797866 35.671690 0.364384 -0.779334 -0.509767 1.7041734328458258e-38
21.595735 -42.672282 36.064992 0.383474 -0.770120 -0.509767 1.7041734328458258e-38
23.066360 -42.383121 36.032077 0.402332 -0.760439 -0.509767 1.7041734328458258e-38
15.025054 -45.884741 37.066236 0.278389 -0.856792 -0.434059 1.7041734328458258e-38
16.516271 -45.963051 37.693288 0.299413 -0.849673 -0.434059 1.7041734328458258e-38
17.575045 -45.601623 37.059762 0.320256 -0.842039 -0.434059 1.7041734328458258e-38
18.463102 -45.391805 36.703391 0.340905 -0.833893 -0.434059 1.7041734328458258e-38
19.667705 -44.865531 36.952549 0.361346 -0.825241 -0.434059 1.7041734328458258e-38
17.064331 -45.903459 38.232501 0.333932 -0.877996 -0.342947 1.7041734328458258e-38
