# .PCD v0.7 - Point Cloud Data file format
VERSION 0.7
FIELDS x y z normal_x normal_y normal_z rgb
SIZE 4 4 4 4 4 4 4
TYPE F F F F F F F
COUNT 1 1 1 1 1 1 1
WIDTH 220
HEIGHT 1
VIEWPOINT 0 0 0 1 0 0 0
POINTS 220
DATA ascii
-16.501155 3.388867 1.181861 -0.688498 0.146345 -0.710320 1.7962614429870884e-38
-17.339116 4.564676 2.504661 -0.483511 0.127961 -0.865935 1.7962614429870884e-38
-18.478561 4.342610 2.155159 -0.486516 0.116010 -0.865935 1.7962614429870884e-38
-17.915896 3.352510 2.637084 -0.489227 0.103988 -0.865935 1.7962614429870884e-38
-20.179360 6.226658 3.664414 -0.436140 0.127002 -0.890872 1.7962614429870884e-38
-19.536878 5.146595 3.798702 -0.439137 0.116218 -0.890872 1.7962614429870884e-38
-19.435697 4.488398 3.141996 -0.441867 0.105363 -0.890872 1.7962614429870884e-38
-19.879803 4.059582 3.705128 -0.444329 0.094445 -0.890872 1.7962614429870884e-38
-20.541533 3.887469 3.426179 -0.446521 0.083469 -0.890872 1.7962614429870884e-38
-22.289611 7.184665 5.449790 -0.497586 0.158294 -0.852849 1.7962614429870884e-38
-21.932407 6.417609 4.289898 -0.501335 0.145986 -0.852849 1.7962614429870884e-38
-22.838880 5.922578 4.841035 -0.504780 0.133590 -0.852849 1.7962614429870884e-38
-22.702109 5.353885 4.982993 -0.507918 0.121113 -0.852849 1.7962614429870884e-38
-22.211665 4.822438 5.316972 -0.510748 0.108563 -0.852849 1.7962614429870884e-38
-22.603566 4.191187 5.267747 -0.513267 0.095946 -0.852849 1.7962614429870884e-38
-23.082679 8.682741 5.844289 -0.717000 0.267656 -0.643639 1.7962614429870884e-38
-23.526974 7.993621 6.336662 -0.723377 0.249910 -0.643639 1.7962614429870884e-38
-23.091830 7.629464 6.207664 -0.729315 0.232012 -0.643639 1.7962614429870884e-38
-23.810521 6.547045 6.032304 -0.734809 0.213973 -0.643639 1.7962614429870884e-38
-23.625740 6.386105 5.555596 -0.739858 0.195804 -0.643639 1.7962614429870884e-38
-24.132065 6.059454 6.209332 -0.744458 0.177516 -0.643639 1.7962614429870884e-38
-24.454597 5.814373 6.176884 -0.748605 0.159121 -0.643639 1.7962614429870884e-38
-24.032739 4.633908 6.075288 -0.752298 0.140629 -0.643639 1.7962614429870884e-38
-22.842326 9.415364 7.871392 -0.927712 0.372606 -0.022677 1.7962614429870884e-38
-23.106679 8.949135 7.149287 -0.936611 0.349637 -0.022677 1.7962614429870884e-38
-23.112554 8.325183 7.306929 -0.944941 0.326455 -0.022677 1.7962614429870884e-38
-24.026438 7.656618 6.921363 -0.952697 0.303075 -0.022677 1.7962614429870884e-38
-23.795564 6.704200 7.533863 -0.959875 0.279511 -0.022677 1.7962614429870884e-38
-24.326888 6.317390 7.195607 -0.966470 0.255777 -0.022677 1.7962614429870884e-38
-24.369032 6.366091 7.838198 -0.972478 0.231888 -0.022677 1.7962614429870884e-38
-24.349817 5.190729 7.675941 -0.977896 0.207858 -0.022677 1.7962614429870884e-38
-24.237819 4.345257 7.399449 -0.982720 0.183702 -0.022677 1.7962614429870884e-38
-22.881503 9.660315 9.203174 -0.908553 0.391174 -0.146677 1.7962614429870884e-38
-23.404870 9.277238 9.090972 -0.917915 0.368671 -0.146677 1.7962614429870884e-38
-23.325165 9.441399 8.734410 -0.926719 0.345944 -0.146677 1.7962614429870884e-38
-23.851150 8.015319 8.105695 -0.934961 0.323007 -0.146677 1.7962614429870884e-38
-24.010415 7.955053 8.839444 -0.942635 0.299874 -0.146677 1.7962614429870884e-38
-24.101013 6.721387 8.727856 -0.949737 0.276559 -0.146677 1.7962614429870884e-38
-23.968895 6.553015 8.709814 -0.956263 0.253076 -0.146677 1.7962614429870884e-38
-24.662725 6.083986 7.720222 -0.962208 0.229439 -0.146677 1.7962614429870884e-38
-24.444854 5.991424 8.207282 -0.967568 0.205663 -0.146677 1.7962614429870884e-38
-24.753279 4.611281 8.521019 -0.972342 0.181762 -0.146677 1.7962614429870884e-38
-22.780756 11.031611 10.335859 -0.866407 0.424779 -0.262492 1.7962614429870884e-38
-22.806406 10.697762 9.800345 -0.876609 0.403304 -0.262492 1.7962614429870884e-38
-23.201260 10.025548 9.697606 -0.886280 0.381584 -0.262492 1.7962614429870884e-38
-23.502148 9.534571 9.784289 -0.895412 0.359633 -0.262492 1.7962614429870884e-38
-23.495513 9.258737 10.187877 -0.904000 0.337463 -0.262492 1.7962614429870884e-38
-24.060906 8.510591 9.920296 -0.912040 0.315088 -0.262492 1.7962614429870884e-38
-24.545570 7.892391 9.940747 -0.919526 0.292522 -0.262492 1.7962614429870884e-38
-23.578920 7.529812 10.110252 -0.926454 0.269779 -0.262492 1.7962614429870884e-38
-24.449584 6.539501 9.595800 -0.932820 0.246871 -0.262492 1.7962614429870884e-38
-25.198493 5.622429 9.882592 -0.938619 0.223814 -0.262492 1.7962614429870884e-38
-25.445940 5.111141 9.822623 -0.943848 0.200621 -0.262492 1.7962614429870884e-38
-25.001322 4.462959 9.794453 -0.948504 0.177306 -0.262492 1.7962614429870884e-38
-22.849124 11.825607 10.795557 -0.825497 0.430265 -0.365277 1.7962614429870884e-38
-23.094410 11.224138 10.848260 -0.835847 0.409796 -0.365277 1.7962614429870884e-38
-23.864024 10.305899 11.022593 -0.845689 0.389079 -0.365277 1.7962614429870884e-38
-23.704173 9.932163 11.329242 -0.855019 0.368125 -0.365277 1.7962614429870884e-38
-23.942294 9.781343 11.079147 -0.863829 0.346948 -0.365277 1.7962614429870884e-38
-24.388227 9.050204 10.755218 -0.872114 0.325560 -0.365277 1.7962614429870884e-38
-24.205059 8.137041 11.409490 -0.879871 0.303975 -0.365277 1.7962614429870884e-38
-24.668433 8.134053 10.797234 -0.887093 0.282205 -0.365277 1.7962614429870884e-38
-24.955319 7.321935 11.485170 -0.893776 0.260263 -0.365277 1.7962614429870884e-38
-24.422071 6.608051 11.685344 -0.899917 0.238164 -0.365277 1.7962614429870884e-38
-25.163887 6.309253 10.851366 -0.905512 0.215920 -0.365277 1.7962614429870884e-38
-25.090638 4.657467 10.797543 -0.910557 0.193545 -0.365277 1.7962614429870884e-38
-25.201097 4.343341 11.262106 -0.915049 0.171052 -0.365277 1.7962614429870884e-38
-22.910132 12.664731 12.568750 -0.780259 0.431458 -0.452813 1.7962614429870884e-38
-22.881758 12.133906 12.890048 -0.790652 0.412103 -0.452813 1.7962614429870884e-38
-23.831704 11.823408 12.517868 -0.800565 0.392499 -0.452813 1.7962614429870884e-38
-24.247272 11.072170 12.373344 -0.809992 0.372656 -0.452813 1.7962614429870884e-38
-24.446602 10.522594 12.415021 -0.818928 0.352586 -0.452813 1.7962614429870884e-38
-24.461681 9.795463 12.344131 -0.827366 0.332303 -0.452813 1.7962614429870884e-38
-24.784638 9.252870 12.177960 -0.835302 0.311818 -0.452813 1.7962614429870884e-38
-24.096729 8.177411 12.195713 -0.842731 0.291144 -0.452813 1.7962614429870884e-38
-25.249826 8.596429 11.975094 -0.849648 0.270293 -0.452813 1.7962614429870884e-38
-25.159420 7.438023 12.471215 -0.856050 0.249277 -0.452813 1.7962614429870884e-38
-25.090036 7.103006 12.235847 -0.861931 0.228111 -0.452813 1.7962614429870884e-38
-25.561019 5.549689 12.400862 -0.867290 0.206806 -0.452813 1.7962614429870884e-38
-26.000152 5.419958 11.865522 -0.872122 0.185375 -0.452813 1.7962614429870884e-38
-25.767585 4.330531 12.415619 -0.876424 0.163832 -0.452813 1.7962614429870884e-38
-22.784881 14.224690 13.692550 -0.723570 0.448016 -0.525098 1.7962614429870884e-38
-23.372338 13.585671 13.347778 -0.734388 0.430053 -0.525098 1.7962614429870884e-38
-23.420795 13.528979 13.441247 -0.744761 0.411829 -0.525098 1.7962614429870884e-38
-23.806989 12.624881 13.610677 -0.754681 0.393355 -0.525098 1.7962614429870884e-38
-24.731603 11.510319 13.373953 -0.764143 0.374642 -0.525098 1.7962614429870884e-38
-25.201163 11.721554 13.718558 -0.773142 0.355702 -0.525098 1.7962614429870884e-38
-24.839377 10.033562 13.061086 -0.781671 0.336545 -0.525098 1.7962614429870884e-38
-25.086944 10.666777 13.398654 -0.789725 0.317185 -0.525098 1.7962614429870884e-38
-25.067725 9.310540 13.624819 -0.797300 0.297632 -0.525098 1.7962614429870884e-38
-25.187706 8.723866 13.401216 -0.804391 0.277898 -0.525098 1.7962614429870884e-38
-25.336425 8.209101 13.935609 -0.810993 0.257996 -0.525098 1.7962614429870884e-38
-26.161515 7.980242 13.690336 -0.817103 0.237936 -0.525098 1.7962614429870884e-38
-26.003841 6.955946 13.456605 -0.822718 0.217733 -0.525098 1.7962614429870884e-38
-26.297253 6.137698 13.896111 -0.827832 0.197397 -0.525098 1.7962614429870884e-38
-26.504172 5.171735 13.104420 -0.832444 0.176941 -0.525098 1.7962614429870884e-38
-23.867673 15.278899 14.339817 -0.679741 0.444411 -0.583482 1.7962614429870884e-38
-23.479837 14.592279 15.400686 -0.690483 0.427529 -0.583482 1.7962614429870884e-38
-23.720616 13.760625 14.239139 -0.700807 0.410388 -0.583482 1.7962614429870884e-38
-24.608109 13.115848 15.393082 -0.710705 0.392997 -0.583482 1.7962614429870884e-38
-24.709439 13.157459 14.759852 -0.720172 0.375368 -0.583482 1.7962614429870884e-38
-25.070013 12.255035 15.177323 -0.729201 0.357511 -0.583482 1.7962614429870884e-38
-25.217206 11.327566 15.332115 -0.737788 0.339436 -0.583482 1.7962614429870884e-38
-25.677752 10.880985 13.996509 -0.745927 0.321156 -0.583482 1.7962614429870884e-38
-25.663266 10.414130 14.875339 -0.753613 0.302681 -0.583482 1.7962614429870884e-38
-26.222417 9.571143 14.734487 -0.760842 0.284022 -0.583482 1.7962614429870884e-38
-26.194758 9.289410 14.776051 -0.767608 0.265191 -0.583482 1.7962614429870884e-38
-26.265175 8.422425 14.694093 -0.773909 0.246198 -0.583482 1.7962614429870884e-38
-26.690363 7.381617 14.915176 -0.779740 0.227056 -0.583482 1.7962614429870884e-38
-27.396334 6.819701 14.239753 -0.785097 0.207777 -0.583482 1.7962614429870884e-38
-27.153655 6.945169 14.810238 -0.789978 0.188371 -0.583482 1.7962614429870884e-38
-27.059032 6.498309 14.966578 -0.794379 0.168850 -0.583482 1.7962614429870884e-38
-23.543892 16.467783 16.033070 -0.639418 0.440911 -0.629875 1.7962614429870884e-38
-23.512135 16.004929 15.857609 -0.650086 0.425023 -0.629875 1.7962614429870884e-38
-24.913052 15.335488 16.065713 -0.660361 0.408878 -0.629875 1.7962614429870884e-38
-25.287905 14.685963 16.001766 -0.670234 0.392484 -0.629875 1.7962614429870884e-38
-25.051135 14.073023 15.899995 -0.679700 0.375852 -0.629875 1.7962614429870884e-38
-25.356287 13.165779 15.952610 -0.688754 0.358992 -0.629875 1.7962614429870884e-38
-26.026119 13.021010 15.998303 -0.697390 0.341914 -0.629875 1.7962614429870884e-38
-25.759298 12.575630 15.860858 -0.705602 0.324628 -0.629875 1.7962614429870884e-38
-27.336035 11.705495 15.979883 -0.713386 0.307146 -0.629875 1.7962614429870884e-38
-26.992234 10.560169 15.958030 -0.720736 0.289476 -0.629875 1.7962614429870884e-38
-26.599632 10.122881 16.467554 -0.727649 0.271631 -0.629875 1.7962614429870884e-38
-27.080552 9.314145 15.965367 -0.734121 0.253621 -0.629875 1.7962614429870884e-38
-27.283832 8.979338 16.381512 -0.740147 0.235458 -0.629875 1.7962614429870884e-38
-27.737607 8.106766 16.257686 -0.745723 0.217151 -0.629875 1.7962614429870884e-38
-27.964374 7.029826 15.840593 -0.750847 0.198712 -0.629875 1.7962614429870884e-38
-28.094628 6.880600 16.460167 -0.755515 0.180153 -0.629875 1.7962614429870884e-38
-28.585251 5.810308 15.975115 -0.759724 0.161484 -0.629875 1.7962614429870884e-38
-23.893348 18.609479 17.270239 -0.592341 0.453072 -0.666227 1.7962614429870884e-38
-24.150865 17.500667 17.659497 -0.603324 0.438340 -0.666227 1.7962614429870884e-38
-24.233494 17.286594 17.327558 -0.613940 0.423343 -0.666227 1.7962614429870884e-38
-25.256974 16.919337 17.576480 -0.624184 0.408088 -0.666227 1.7962614429870884e-38
-25.527273 16.148139 17.158905 -0.634048 0.392586 -0.666227 1.7962614429870884e-38
-25.346683 15.534155 17.043143 -0.643528 0.376846 -0.666227 1.7962614429870884e-38
-25.959339 14.685841 18.104060 -0.652618 0.360876 -0.666227 1.7962614429870884e-38
-26.704665 14.232689 17.324791 -0.661311 0.344688 -0.666227 1.7962614429870884e-38
-27.186414 13.110292 17.320327 -0.669602 0.328290 -0.666227 1.7962614429870884e-38
-27.447423 12.575321 17.606930 -0.677487 0.311693 -0.666227 1.7962614429870884e-38
-27.357577 11.646918 17.275046 -0.684961 0.294907 -0.666227 1.7962614429870884e-38
-27.713030 11.195302 17.652537 -0.692019 0.277942 -0.666227 1.7962614429870884e-38
-27.895891 10.023173 17.150891 -0.698656 0.260808 -0.666227 1.7962614429870884e-38
-28.176487 10.088756 17.708942 -0.704870 0.243516 -0.666227 1.7962614429870884e-38
-27.925572 9.092319 17.548580 -0.710655 0.226076 -0.666227 1.7962614429870884e-38
-29.108724 8.478219 16.997008 -0.716010 0.208498 -0.666227 1.7962614429870884e-38
-28.888148 8.549257 17.410654 -0.720929 0.190794 -0.666227 1.7962614429870884e-38
-29.308005 7.049055 17.164465 -0.725411 0.172975 -0.666227 1.7962614429870884e-38
-29.498923 6.839868 17.639631 -0.729453 0.155050 -0.666227 1.7962614429870884e-38
-24.503471 19.602020 18.516168 -0.560719 0.451209 -0.694266 1.7962614429870884e-38
-24.617473 19.224459 18.956325 -0.571665 0.437257 -0.694266 1.7962614429870884e-38
-25.584529 18.423781 18.624395 -0.582265 0.423040 -0.694266 1.7962614429870884e-38
-25.670646 17.704032 18.038786 -0.592510 0.408566 -0.694266 1.7962614429870884e-38
-25.519386 17.125819 18.297142 -0.602397 0.393844 -0.694266 1.7962614429870884e-38
-26.544053 15.815697 18.462514 -0.611917 0.378883 -0.694266 1.7962614429870884e-38
-26.907492 15.274501 18.789712 -0.621066 0.363692 -0.694266 1.7962614429870884e-38
-26.757629 14.999704 18.465007 -0.629838 0.348280 -0.694266 1.7962614429870884e-38
-27.371691 14.328788 18.232047 -0.638228 0.332657 -0.694266 1.7962614429870884e-38
-28.042811 13.563814 18.631157 -0.646230 0.316831 -0.694266 1.7962614429870884e-38
-28.172123 13.025632 18.099253 -0.653839 0.300814 -0.694266 1.7962614429870884e-38
-28.286169 12.265453 19.322514 -0.661052 0.284614 -0.694266 1.7962614429870884e-38
-28.895542 11.655928 19.405467 -0.667864 0.268241 -0.694266 1.7962614429870884e-38
-28.997070 10.826045 18.260624 -0.674270 0.251705 -0.694266 1.7962614429870884e-38
-28.855224 9.779463 18.684837 -0.680266 0.235016 -0.694266 1.7962614429870884e-38
-29.696381 9.345103 18.129521 -0.685850 0.218185 -0.694266 1.7962614429870884e-38
-29.374044 8.587568 18.192174 -0.691017 0.201221 -0.694266 1.7962614429870884e-38
-29.605765 7.783405 18.657083 -0.695765 0.184135 -0.694266 1.7962614429870884e-38
-29.915536 7.335779 17.897710 -0.700091 0.166937 -0.694266 1.7962614429870884e-38
-30.127428 6.417939 18.457992 -0.703991 0.149638 -0.694266 1.7962614429870884e-38
-24.997637 20.474800 19.786802 -0.544354 0.438040 -0.715402 1.7962614429870884e-38
-26.495085 20.093606 19.704537 -0.554981 0.424496 -0.715402 1.7962614429870884e-38
-26.333779 18.615933 19.692881 -0.565271 0.410693 -0.715402 1.7962614429870884e-38
-26.714659 18.083598 19.589177 -0.575218 0.396642 -0.715402 1.7962614429870884e-38
-26.829835 18.254232 20.039986 -0.584815 0.382350 -0.715402 1.7962614429870884e-38
-27.078516 16.861610 19.825214 -0.594058 0.367825 -0.715402 1.7962614429870884e-38
-27.697246 16.096370 19.666095 -0.602940 0.353077 -0.715402 1.7962614429870884e-38
-27.961827 15.930837 19.814038 -0.611456 0.338115 -0.715402 1.7962614429870884e-38
-28.952611 14.815111 19.361415 -0.619601 0.322948 -0.715402 1.7962614429870884e-38
-28.930015 14.271400 19.712601 -0.627369 0.307585 -0.715402 1.7962614429870884e-38
-29.220997 13.602223 19.870873 -0.634757 0.292034 -0.715402 1.7962614429870884e-38
-29.977120 12.675365 19.916767 -0.641759 0.276307 -0.715402 1.7962614429870884e-38
-29.448218 11.936217 19.959066 -0.648372 0.260412 -0.715402 1.7962614429870884e-38
-29.945391 11.217961 20.138337 -0.654591 0.244359 -0.715402 1.7962614429870884e-38
-30.116850 10.943373 19.931344 -0.660413 0.228157 -0.715402 1.7962614429870884e-38
-30.019623 9.590589 20.431038 -0.665833 0.211817 -0.715402 1.7962614429870884e-38
-30.728683 9.417271 19.697803 -0.670850 0.195348 -0.715402 1.7962614429870884e-38
-30.918543 8.677756 19.467607 -0.675459 0.178761 -0.715402 1.7962614429870884e-38
-31.414672 6.836788 19.740315 -0.679658 0.162065 -0.715402 1.7962614429870884e-38
-26.390534 20.622749 21.209829 -0.542243 0.414752 -0.730721 1.7962614429870884e-38
-27.140844 19.362905 21.007892 -0.552297 0.401267 -0.730721 1.7962614429870884e-38
-27.560583 18.478028 21.081698 -0.562015 0.387538 -0.730721 1.7962614429870884e-38
-28.103178 17.965752 20.931026 -0.571393 0.373574 -0.730721 1.7962614429870884e-38
-28.611384 18.236521 21.096963 -0.580423 0.359383 -0.730721 1.7962614429870884e-38
-28.633395 16.914182 20.468753 -0.589101 0.344974 -0.730721 1.7962614429870884e-38
-29.151314 16.033814 20.930248 -0.597422 0.330355 -0.730721 1.7962614429870884e-38
-30.059895 15.524990 21.350481 -0.605379 0.315536 -0.730721 1.7962614429870884e-38
-29.837111 15.241494 21.549316 -0.612970 0.300525 -0.730721 1.7962614429870884e-38
-31.085341 13.661064 20.488470 -0.620188 0.285332 -0.730721 1.7962614429870884e-38
-30.618146 13.056229 20.884174 -0.627029 0.269965 -0.730721 1.7962614429870884e-38
-31.190148 12.615874 20.585332 -0.633490 0.254435 -0.730721 1.7962614429870884e-38
-31.801375 11.730852 21.390552 -0.639567 0.238750 -0.730721 1.7962614429870884e-38
-31.710805 10.715205 20.386465 -0.645255 0.222920 -0.730721 1.7962614429870884e-38
-31.677606 9.947513 20.686697 -0.650551 0.206955 -0.730721 1.7962614429870884e-38
-32.718825 8.945979 20.742564 -0.655452 0.190864 -0.730721 1.7962614429870884e-38
-32.497149 8.218810 21.086640 -0.659956 0.174658 -0.730721 1.7962614429870884e-38
-32.701011 8.446544 20.519595 -0.664059 0.158345 -0.730721 1.7962614429870884e-38
-31.176468 16.751548 22.269289 -0.587634 0.324942 -0.741012 1.7962614429870884e-38
-30.798759 15.607131 21.745008 -0.595461 0.310366 -0.741012 1.7962614429870884e-38
-30.933535 15.190469 21.821819 -0.602927 0.295601 -0.741012 1.7962614429870884e-38
-32.025543 14.698903 22.021277 -0.610027 0.280657 -0.741012 1.7962614429870884e-38
-31.971599 13.502846 21.744781 -0.616756 0.265542 -0.741012 1.7962614429870884e-38
-31.946956 13.122249 22.167916 -0.623111 0.250266 -0.741012 1.7962614429870884e-38
-32.841207 12.640696 22.445500 -0.629088 0.234838 -0.741012 1.7962614429870884e-38
-32.631440 11.217144 22.283241 -0.634683 0.219268 -0.741012 1.7962614429870884e-38
-33.125491 10.411341 22.239382 -0.639892 0.203564 -0.741012 1.7962614429870884e-38
-33.671716 9.873769 21.871623 -0.644713 0.187737 -0.741012 1.7962614429870884e-38
-33.555189 9.019033 22.207049 -0.649143 0.171796 -0.741012 1.7962614429870884e-38
-33.876704 12.496920 23.277649 -0.623048 0.232584 -0.746804 1.7962614429870884e-38
-34.423989 12.061316 23.225288 -0.628589 0.217163 -0.746804 1.7962614429870884e-38
-34.576153 10.880701 23.751122 -0.633749 0.201610 -0.746804 1.7962614429870884e-38
-34.565911 9.588908 23.818687 -0.638524 0.185935 -0.746804 1.7962614429870884e-38
