# .PCD v0.7 - Point Cloud Data file format
VERSION 0.7
FIELDS x y z normal_x normal_y normal_z rgb
SIZE 4 4 4 4 4 4 4
TYPE F F F F F F F
COUNT 1 1 1 1 1 1 1
WIDTH 262
HEIGHT 1
VIEWPOINT 0 0 0 1 0 0 0
POINTS 262
DATA ascii
47.530322 -0.172565 48.052979 1.000000 0.000000 0.000000 1.5658809689597668e-38
46.018321 -10.104216 48.082987 0.975512 -0.219946 0.000000 1.5658809689597668e-38
46.492878 -8.537279 48.241888 0.980635 -0.195845 0.000000 1.5658809689597668e-38
46.957406 -7.967065 48.492062 0.985162 -0.171626 0.000000 1.5658809689597668e-38
47.549720 -7.430399 48.408255 0.989092 -0.147302 0.000000 1.5658809689597668e-38
47.278910 -6.141598 48.261857 0.992421 -0.122888 0.000000 1.5658809689597668e-38
46.953621 -4.419631 48.160220 0.995147 -0.098400 0.000000 1.5658809689597668e-38
47.455036 -3.566183 48.197168 0.997269 -0.073853 0.000000 1.5658809689597668e-38
48.012886 -2.679823 48.132761 0.998786 -0.049260 0.000000 1.5658809689597668e-38
47.649170 -1.495459 48.295217 0.999696 -0.024637 0.000000 1.5658809689597668e-38
47.744112 -0.421285 49.642404 1.000000 0.000000 0.000000 1.5658809689597668e-38
48.410898 1.196170 49.453550 0.999696 0.024637 0.000000 1.5658809689597668e-38
39.962242 -27.280224 49.244939 0.830184 -0.557489 0.000000 1.5658809689597668e-38
40.680145 -25.451347 49.591704 0.843667 -0.536867 0.000000 1.5658809689597668e-38
41.168215 -24.623374 49.771876 0.856638 -0.515918 0.000000 1.5658809689597668e-38
41.254745 -23.877167 49.462207 0.869089 -0.494656 0.000000 1.5658809689597668e-38
42.313205 -23.323062 49.107318 0.881012 -0.473094 0.000000 1.5658809689597668e-38
42.795671 -21.338298 49.358824 0.892401 -0.451244 0.000000 1.5658809689597668e-38
43.120820 -20.422571 49.386115 0.903247 -0.429121 0.000000 1.5658809689597668e-38
44.079074 -19.574005 49.149971 0.913545 -0.406737 0.000000 1.5658809689597668e-38
44.708301 -18.051023 49.197892 0.923289 -0.384106 0.000000 1.5658809689597668e-38
44.841268 -17.423612 49.670255 0.932472 -0.361242 0.000000 1.5658809689597668e-38
44.873133 -15.956949 49.843022 0.941089 -0.338158 0.000000 1.5658809689597668e-38
45.237519 -15.081237 49.849326 0.949135 -0.314870 0.000000 1.5658809689597668e-38
45.579558 -14.176072 49.683057 0.956604 -0.291390 0.000000 1.5658809689597668e-38
46.162152 -13.313398 49.388470 0.963493 -0.267733 0.000000 1.5658809689597668e-38
47.036629 -11.079546 49.293410 0.969797 -0.243914 0.000000 1.5658809689597668e-38
46.512807 -10.686311 50.025106 0.975512 -0.219946 0.000000 1.5658809689597668e-38
47.285121 -8.953773 49.784141 0.980635 -0.195845 0.000000 1.5658809689597668e-38
46.853827 -8.516041 49.275684 0.985162 -0.171626 0.000000 1.5658809689597668e-38
47.281502 -7.268269 49.315947 0.989092 -0.147302 0.000000 1.5658809689597668e-38
47.789900 -5.853140 49.850470 0.992421 -0.122888 0.000000 1.5658809689597668e-38
47.804066 -4.922286 49.541075 0.995147 -0.098400 0.000000 1.5658809689597668e-38
47.376907 -4.235613 49.677500 0.997269 -0.073853 0.000000 1.5658809689597668e-38
48.208542 -2.340931 49.367144 0.998786 -0.049260 0.000000 1.5658809689597668e-38
47.544155 -0.831566 49.632295 0.999696 -0.024637 0.000000 1.5658809689597668e-38
48.283415 -0.001447 50.580778 1.000000 0.000000 0.000000 1.5658809689597668e-38
47.847448 1.263239 50.560092 0.999696 0.024637 0.000000 1.5658809689597668e-38
40.184724 -26.951515 50.621802 0.830184 -0.557489 0.000000 1.5658809689597668e-38
40.843696 -25.672602 50.380402 0.843667 -0.536867 0.000000 1.5658809689597668e-38
41.277910 -25.022337 50.725765 0.856638 -0.515918 0.000000 1.5658809689597668e-38
42.316856 -23.732774 51.370923 0.869089 -0.494656 0.000000 1.5658809689597668e-38
42.527197 -22.851184 50.715745 0.881012 -0.473094 0.000000 1.5658809689597668e-38
43.052984 -21.651331 50.424059 0.892401 -0.451244 0.000000 1.5658809689597668e-38
43.463011 -20.899243 51.030536 0.903247 -0.429121 0.000000 1.5658809689597668e-38
43.451594 -19.556034 50.266199 0.913545 -0.406737 0.000000 1.5658809689597668e-38
44.628571 -18.632056 50.176611 0.923289 -0.384106 0.000000 1.5658809689597668e-38
45.224159 -18.165342 50.712224 0.932472 -0.361242 0.000000 1.5658809689597668e-38
45.564154 -15.884878 50.238602 0.941089 -0.338158 0.000000 1.5658809689597668e-38
45.589760 -14.850379 51.067022 0.949135 -0.314870 0.000000 1.5658809689597668e-38
46.488790 -13.275364 50.569042 0.956604 -0.291390 0.000000 1.5658809689597668e-38
46.548291 -13.007436 50.129115 0.963493 -0.267733 0.000000 1.5658809689597668e-38
46.713393 -12.353990 50.565401 0.969797 -0.243914 0.000000 1.5658809689597668e-38
46.575389 -10.468891 50.488092 0.975512 -0.219946 0.000000 1.5658809689597668e-38
46.727173 -9.179283 50.540524 0.980635 -0.195845 0.000000 1.5658809689597668e-38
47.351310 -8.565009 51.066372 0.985162 -0.171626 0.000000 1.5658809689597668e-38
47.751477 -7.283288 50.147439 0.989092 -0.147302 0.000000 1.5658809689597668e-38
48.583951 -5.328922 51.154580 0.992421 -0.122888 0.000000 1.5658809689597668e-38
47.751212 -4.892790 50.841849 0.995147 -0.098400 0.000000 1.5658809689597668e-38
47.796292 -3.856221 51.159217 0.997269 -0.073853 0.000000 1.5658809689597668e-38
48.121010 -2.710096 51.007450 0.998786 -0.049260 0.000000 1.5658809689597668e-38
48.009264 -1.781234 50.381206 0.999696 -0.024637 0.000000 1.5658809689597668e-38
48.277795 0.065988 52.010284 1.000000 0.000000 0.000000 1.5658809689597668e-38
48.786373 1.122149 51.819067 0.999696 0.024637 0.000000 1.5658809689597668e-38
40.494085 -27.020857 52.353469 0.830184 -0.557489 0.000000 1.5658809689597668e-38
41.112190 -25.929525 51.883851 0.843667 -0.536867 0.000000 1.5658809689597668e-38
41.329033 -25.424706 51.570216 0.856638 -0.515918 0.000000 1.5658809689597668e-38
42.390842 -23.503432 51.634452 0.869089 -0.494656 0.000000 1.5658809689597668e-38
42.690294 -23.385561 51.665728 0.881012 -0.473094 0.000000 1.5658809689597668e-38
43.299357 -22.010597 51.383905 0.892401 -0.451244 0.000000 1.5658809689597668e-38
44.262399 -20.798232 51.627441 0.903247 -0.429121 0.000000 1.5658809689597668e-38
44.283923 -19.723632 52.085311 0.913545 -0.406737 0.000000 1.5658809689597668e-38
44.615468 -18.509018 52.241854 0.923289 -0.384106 0.000000 1.5658809689597668e-38
44.766733 -17.703901 52.210541 0.932472 -0.361242 0.000000 1.5658809689597668e-38
45.414119 -16.402435 51.817645 0.941089 -0.338158 0.000000 1.5658809689597668e-38
45.846802 -15.397878 51.581156 0.949135 -0.314870 0.000000 1.5658809689597668e-38
46.468735 -13.794114 51.905816 0.956604 -0.291390 0.000000 1.5658809689597668e-38
46.949455 -13.114369 51.793728 0.963493 -0.267733 0.000000 1.5658809689597668e-38
47.093135 -11.685198 51.924935 0.969797 -0.243914 0.000000 1.5658809689597668e-38
47.449697 -11.038699 51.867571 0.975512 -0.219946 0.000000 1.5658809689597668e-38
47.784277 -9.196695 52.209571 0.980635 -0.195845 0.000000 1.5658809689597668e-38
48.020331 -8.424065 51.447203 0.985162 -0.171626 0.000000 1.5658809689597668e-38
47.826784 -6.943427 52.198594 0.989092 -0.147302 0.000000 1.5658809689597668e-38
47.907766 -6.242222 51.698210 0.992421 -0.122888 0.000000 1.5658809689597668e-38
48.034595 -5.334937 51.800619 0.995147 -0.098400 0.000000 1.5658809689597668e-38
48.314845 -3.606246 51.859682 0.997269 -0.073853 0.000000 1.5658809689597668e-38
48.167168 -2.557636 51.792225 0.998786 -0.049260 0.000000 1.5658809689597668e-38
48.629686 -1.193538 52.908815 0.999696 -0.024637 0.000000 1.5658809689597668e-38
48.571367 0.131362 53.102866 1.000000 0.000000 0.000000 1.5658809689597668e-38
40.433109 -27.371069 52.740867 0.830184 -0.557489 0.000000 1.5658809689597668e-38
41.232933 -25.670840 53.377146 0.843667 -0.536867 0.000000 1.5658809689597668e-38
41.769741 -25.472829 53.459029 0.856638 -0.515918 0.000000 1.5658809689597668e-38
42.443905 -23.847384 53.506044 0.869089 -0.494656 0.000000 1.5658809689597668e-38
43.355606 -23.360385 52.809183 0.881012 -0.473094 0.000000 1.5658809689597668e-38
43.478535 -22.239285 52.867165 0.892401 -0.451244 0.000000 1.5658809689597668e-38
44.328034 -21.188477 53.192556 0.903247 -0.429121 0.000000 1.5658809689597668e-38
43.973805 -19.777395 53.550722 0.913545 -0.406737 0.000000 1.5658809689597668e-38
45.301394 -18.381339 53.172365 0.923289 -0.384106 0.000000 1.5658809689597668e-38
45.717870 -17.452993 53.064192 0.932472 -0.361242 0.000000 1.5658809689597668e-38
45.918329 -16.192822 52.797561 0.941089 -0.338158 0.000000 1.5658809689597668e-38
45.877286 -15.368123 52.829349 0.949135 -0.314870 0.000000 1.5658809689597668e-38
46.188150 -14.308426 53.493473 0.956604 -0.291390 0.000000 1.5658809689597668e-38
47.186185 -12.934527 53.249961 0.963493 -0.267733 0.000000 1.5658809689597668e-38
47.827296 -12.033346 53.268199 0.969797 -0.243914 0.000000 1.5658809689597668e-38
47.302513 -11.091250 53.551341 0.975512 -0.219946 0.000000 1.5658809689597668e-38
47.636980 -9.323561 53.122038 0.980635 -0.195845 0.000000 1.5658809689597668e-38
48.322889 -8.652376 53.545050 0.985162 -0.171626 0.000000 1.5658809689597668e-38
48.408406 -7.707722 53.040819 0.989092 -0.147302 0.000000 1.5658809689597668e-38
48.608414 -5.489906 53.410525 0.992421 -0.122888 0.000000 1.5658809689597668e-38
48.315895 -5.079748 53.365873 0.995147 -0.098400 0.000000 1.5658809689597668e-38
48.410349 -3.709550 53.128629 0.997269 -0.073853 0.000000 1.5658809689597668e-38
48.876508 -1.855600 53.503940 0.998786 -0.049260 0.000000 1.5658809689597668e-38
48.659159 -1.468889 53.396159 0.999696 -0.024637 0.000000 1.5658809689597668e-38
49.410419 0.301061 54.495309 1.000000 0.000000 0.000000 1.5658809689597668e-38
41.227111 -27.490137 54.204111 0.830184 -0.557489 0.000000 1.5658809689597668e-38
41.182897 -25.653134 54.231532 0.843667 -0.536867 0.000000 1.5658809689597668e-38
42.066087 -25.116336 53.854443 0.856638 -0.515918 0.000000 1.5658809689597668e-38
42.503120 -24.359884 54.636381 0.869089 -0.494656 0.000000 1.5658809689597668e-38
43.612720 -23.242742 54.329612 0.881012 -0.473094 0.000000 1.5658809689597668e-38
44.403362 -22.284164 54.030089 0.892401 -0.451244 0.000000 1.5658809689597668e-38
44.591802 -21.003816 54.517986 0.903247 -0.429121 0.000000 1.5658809689597668e-38
45.351678 -20.314703 54.374351 0.913545 -0.406737 0.000000 1.5658809689597668e-38
44.787915 -18.686359 54.267089 0.923289 -0.384106 0.000000 1.5658809689597668e-38
45.256068 -17.448930 54.436088 0.932472 -0.361242 0.000000 1.5658809689597668e-38
45.653925 -16.896696 54.495332 0.941089 -0.338158 0.000000 1.5658809689597668e-38
45.921704 -15.332274 54.834857 0.949135 -0.314870 0.000000 1.5658809689597668e-38
46.988392 -14.439099 54.515292 0.956604 -0.291390 0.000000 1.5658809689597668e-38
46.749734 -13.054146 54.334935 0.963493 -0.267733 0.000000 1.5658809689597668e-38
47.121725 -11.742897 53.839748 0.969797 -0.243914 0.000000 1.5658809689597668e-38
47.357313 -11.077424 54.281547 0.975512 -0.219946 0.000000 1.5658809689597668e-38
48.353418 -9.352678 54.464583 0.980635 -0.195845 0.000000 1.5658809689597668e-38
48.202508 -8.397874 54.844537 0.985162 -0.171626 0.000000 1.5658809689597668e-38
47.832541 -6.973174 54.280531 0.989092 -0.147302 0.000000 1.5658809689597668e-38
48.690964 -5.858230 54.652963 0.992421 -0.122888 0.000000 1.5658809689597668e-38
49.148512 -5.224146 54.734623 0.995147 -0.098400 0.000000 1.5658809689597668e-38
48.758062 -3.750442 55.043118 0.997269 -0.073853 0.000000 1.5658809689597668e-38
49.061981 -2.534504 54.720183 0.998786 -0.049260 0.000000 1.5658809689597668e-38
48.882121 -1.334902 54.251164 0.999696 -0.024637 0.000000 1.5658809689597668e-38
49.243015 -0.184162 55.716732 1.000000 0.000000 0.000000 1.5658809689597668e-38
41.149339 -27.800043 55.196235 0.830184 -0.557489 0.000000 1.5658809689597668e-38
40.784387 -26.006719 55.981569 0.843667 -0.536867 0.000000 1.5658809689597668e-38
42.017005 -25.740784 55.920332 0.856638 -0.515918 0.000000 1.5658809689597668e-38
43.543555 -24.383855 55.309232 0.869089 -0.494656 0.000000 1.5658809689597668e-38
43.675708 -23.593074 55.560101 0.881012 -0.473094 0.000000 1.5658809689597668e-38
43.071345 -22.270370 55.286617 0.892401 -0.451244 0.000000 1.5658809689597668e-38
44.773737 -21.384827 55.904046 0.903247 -0.429121 0.000000 1.5658809689597668e-38
44.870782 -19.954166 55.826769 0.913545 -0.406737 0.000000 1.5658809689597668e-38
45.365144 -19.073771 55.426495 0.923289 -0.384106 0.000000 1.5658809689597668e-38
45.985239 -18.326144 56.173552 0.932472 -0.361242 0.000000 1.5658809689597668e-38
46.295633 -16.722254 55.749929 0.941089 -0.338158 0.000000 1.5658809689597668e-38
46.473256 -15.529773 55.330586 0.949135 -0.314870 0.000000 1.5658809689597668e-38
47.131208 -14.345823 55.726344 0.956604 -0.291390 0.000000 1.5658809689597668e-38
47.802216 -13.400780 55.631438 0.963493 -0.267733 0.000000 1.5658809689597668e-38
47.171691 -11.823751 55.664858 0.969797 -0.243914 0.000000 1.5658809689597668e-38
47.953223 -10.857934 55.496646 0.975512 -0.219946 0.000000 1.5658809689597668e-38
48.948622 -9.614662 55.759058 0.980635 -0.195845 0.000000 1.5658809689597668e-38
48.080519 -8.170153 55.633063 0.985162 -0.171626 0.000000 1.5658809689597668e-38
48.749225 -6.969421 55.638931 0.989092 -0.147302 0.000000 1.5658809689597668e-38
48.576004 -6.738483 55.553949 0.992421 -0.122888 0.000000 1.5658809689597668e-38
48.708387 -5.179452 56.106029 0.995147 -0.098400 0.000000 1.5658809689597668e-38
49.312252 -4.178925 55.716216 0.997269 -0.073853 0.000000 1.5658809689597668e-38
48.846803 -2.311169 55.430209 0.998786 -0.049260 0.000000 1.5658809689597668e-38
48.975027 -0.922059 55.915905 0.999696 -0.024637 0.000000 1.5658809689597668e-38
49.846241 -0.065114 56.470518 1.000000 0.000000 0.000000 1.5658809689597668e-38
40.718819 -27.542350 56.813064 0.830184 -0.557489 0.000000 1.5658809689597668e-38
41.849178 -26.542474 56.839528 0.843667 -0.536867 0.000000 1.5658809689597668e-38
42.748638 -25.453420 56.944472 0.856638 -0.515918 0.000000 1.5658809689597668e-38
43.051227 -24.229874 57.111803 0.869089 -0.494656 0.000000 1.5658809689597668e-38
43.981826 -23.753383 57.004555 0.881012 -0.473094 0.000000 1.5658809689597668e-38
44.047982 -22.378740 57.134551 0.892401 -0.451244 0.000000 1.5658809689597668e-38
45.003410 -21.373252 57.413298 0.903247 -0.429121 0.000000 1.5658809689597668e-38
44.693619 -19.913026 56.640011 0.913545 -0.406737 0.000000 1.5658809689597668e-38
45.411853 -18.954264 56.787570 0.923289 -0.384106 0.000000 1.5658809689597668e-38
45.198988 -17.659512 57.141145 0.932472 -0.361242 0.000000 1.5658809689597668e-38
46.435276 -16.774677 56.795349 0.941089 -0.338158 0.000000 1.5658809689597668e-38
46.367559 -16.097665 57.148306 0.949135 -0.314870 0.000000 1.5658809689597668e-38
47.569352 -14.213681 57.020993 0.956604 -0.291390 0.000000 1.5658809689597668e-38
47.825015 -13.009409 56.671670 0.963493 -0.267733 0.000000 1.5658809689597668e-38
47.968303 -12.136549 56.822358 0.969797 -0.243914 0.000000 1.5658809689597668e-38
48.525911 -10.391499 56.203314 0.975512 -0.219946 0.000000 1.5658809689597668e-38
48.360360 -9.765704 57.255658 0.980635 -0.195845 0.000000 1.5658809689597668e-38
48.225396 -9.374049 57.153497 0.985162 -0.171626 0.000000 1.5658809689597668e-38
49.143474 -7.810933 56.869896 0.989092 -0.147302 0.000000 1.5658809689597668e-38
49.478074 -6.393283 56.937532 0.992421 -0.122888 0.000000 1.5658809689597668e-38
49.306075 -5.288613 56.738064 0.995147 -0.098400 0.000000 1.5658809689597668e-38
48.751261 -3.697187 56.669918 0.997269 -0.073853 0.000000 1.5658809689597668e-38
49.395738 -2.242668 57.323805 0.998786 -0.049260 0.000000 1.5658809689597668e-38
50.078088 -1.154617 56.812245 0.999696 -0.024637 0.000000 1.5658809689597668e-38
49.523384 -0.289460 58.278776 1.000000 0.000000 0.000000 1.5658809689597668e-38
41.084449 -27.714971 58.381242 0.830184 -0.557489 0.000000 1.5658809689597668e-38
41.863520 -27.007687 58.429961 0.843667 -0.536867 0.000000 1.5658809689597668e-38
42.225051 -25.480637 57.584421 0.856638 -0.515918 0.000000 1.5658809689597668e-38
43.170356 -24.573119 57.554210 0.869089 -0.494656 0.000000 1.5658809689597668e-38
43.829575 -23.812777 58.169755 0.881012 -0.473094 0.000000 1.5658809689597668e-38
44.171482 -22.842019 57.830612 0.892401 -0.451244 0.000000 1.5658809689597668e-38
44.543674 -21.005014 58.395075 0.903247 -0.429121 0.000000 1.5658809689597668e-38
46.002895 -20.342255 57.981110 0.913545 -0.406737 0.000000 1.5658809689597668e-38
45.868640 -19.171970 57.969561 0.923289 -0.384106 0.000000 1.5658809689597668e-38
46.300317 -17.719430 57.510688 0.932472 -0.361242 0.000000 1.5658809689597668e-38
46.540042 -17.205589 58.098181 0.941089 -0.338158 0.000000 1.5658809689597668e-38
47.240845 -15.293716 58.014206 0.949135 -0.314870 0.000000 1.5658809689597668e-38
47.513691 -14.967996 57.886190 0.956604 -0.291390 0.000000 1.5658809689597668e-38
47.885880 -13.696842 58.515434 0.963493 -0.267733 0.000000 1.5658809689597668e-38
48.293686 -12.378223 57.699681 0.969797 -0.243914 0.000000 1.5658809689597668e-38
48.204511 -11.187006 57.779231 0.975512 -0.219946 0.000000 1.5658809689597668e-38
48.252532 -9.790063 58.364008 0.980635 -0.195845 0.000000 1.5658809689597668e-38
48.685974 -8.385310 58.046007 0.985162 -0.171626 0.000000 1.5658809689597668e-38
49.278032 -7.547378 58.228627 0.989092 -0.147302 0.000000 1.5658809689597668e-38
49.295609 -5.690961 58.311953 0.992421 -0.122888 0.000000 1.5658809689597668e-38
49.471699 -5.325141 57.986755 0.995147 -0.098400 0.000000 1.5658809689597668e-38
49.260117 -3.912390 58.148982 0.997269 -0.073853 0.000000 1.5658809689597668e-38
49.647771 -2.361073 58.522763 0.998786 -0.049260 0.000000 1.5658809689597668e-38
49.765781 -1.591254 58.205092 0.999696 -0.024637 0.000000 1.5658809689597668e-38
50.053865 0.378657 59.335186 1.000000 0.000000 0.000000 1.5658809689597668e-38
41.317014 -28.322796 59.567698 0.830184 -0.557489 0.000000 1.5658809689597668e-38
42.272175 -26.102063 59.386760 0.843667 -0.536867 0.000000 1.5658809689597668e-38
42.782863 -25.589657 59.687354 0.856638 -0.515918 0.000000 1.5658809689597668e-38
43.636058 -24.577082 59.371551 0.869089 -0.494656 0.000000 1.5658809689597668e-38
44.196411 -23.619601 58.994693 0.881012 -0.473094 0.000000 1.5658809689597668e-38
44.061281 -22.595380 59.417434 0.892401 -0.451244 0.000000 1.5658809689597668e-38
45.794271 -21.439922 59.395423 0.903247 -0.429121 0.000000 1.5658809689597668e-38
45.445025 -20.101793 59.465546 0.913545 -0.406737 0.000000 1.5658809689597668e-38
45.860823 -19.462077 59.260733 0.923289 -0.384106 0.000000 1.5658809689597668e-38
46.257353 -18.087560 59.423887 0.932472 -0.361242 0.000000 1.5658809689597668e-38
46.789811 -16.430495 59.729262 0.941089 -0.338158 0.000000 1.5658809689597668e-38
47.272609 -15.994489 59.372505 0.949135 -0.314870 0.000000 1.5658809689597668e-38
47.673928 -14.552933 59.262036 0.956604 -0.291390 0.000000 1.5658809689597668e-38
47.742824 -13.343668 59.276184 0.963493 -0.267733 0.000000 1.5658809689597668e-38
48.293486 -12.137875 59.360636 0.969797 -0.243914 0.000000 1.5658809689597668e-38
48.678790 -11.089761 59.489487 0.975512 -0.219946 0.000000 1.5658809689597668e-38
48.697303 -10.094871 59.114450 0.980635 -0.195845 0.000000 1.5658809689597668e-38
48.935459 -8.946781 58.873631 0.985162 -0.171626 0.000000 1.5658809689597668e-38
49.485495 -6.964922 59.548755 0.989092 -0.147302 0.000000 1.5658809689597668e-38
49.355569 -6.644421 59.439026 0.992421 -0.122888 0.000000 1.5658809689597668e-38
49.154295 -4.934061 59.141569 0.995147 -0.098400 0.000000 1.5658809689597668e-38
49.058164 -3.239497 59.004702 0.997269 -0.073853 0.000000 1.5658809689597668e-38
49.711262 -2.495706 59.240308 0.998786 -0.049260 0.000000 1.5658809689597668e-38
50.002786 -1.451171 59.496016 0.999696 -0.024637 0.000000 1.5658809689597668e-38
41.413463 -27.708240 61.070524 0.830184 -0.557489 0.000000 1.5658809689597668e-38
41.604011 -26.893020 60.076652 0.843667 -0.536867 0.000000 1.5658809689597668e-38
42.677882 -26.092121 60.598621 0.856638 -0.515918 0.000000 1.5658809689597668e-38
43.673259 -24.521372 60.697763 0.869089 -0.494656 0.000000 1.5658809689597668e-38
44.359695 -24.035684 60.935554 0.881012 -0.473094 0.000000 1.5658809689597668e-38
43.739663 -22.158998 61.022717 0.892401 -0.451244 0.000000 1.5658809689597668e-38
45.497074 -20.839457 60.077411 0.903247 -0.429121 0.000000 1.5658809689597668e-38
46.022049 -20.345698 60.691782 0.913545 -0.406737 0.000000 1.5658809689597668e-38
45.927516 -19.133494 60.722904 0.923289 -0.384106 0.000000 1.5658809689597668e-38
46.529980 -18.126563 60.224206 0.932472 -0.361242 0.000000 1.5658809689597668e-38
47.050136 -16.660737 60.912799 0.941089 -0.338158 0.000000 1.5658809689597668e-38
47.802628 -15.493604 60.910596 0.949135 -0.314870 0.000000 1.5658809689597668e-38
47.753335 -14.503012 60.944591 0.956604 -0.291390 0.000000 1.5658809689597668e-38
47.877803 -13.834762 60.186362 0.963493 -0.267733 0.000000 1.5658809689597668e-38
48.071965 -12.540551 60.460916 0.969797 -0.243914 0.000000 1.5658809689597668e-38
49.347764 -11.155272 60.163646 0.975512 -0.219946 0.000000 1.5658809689597668e-38
49.200691 -9.872748 60.383917 0.980635 -0.195845 0.000000 1.5658809689597668e-38
49.201189 -8.282001 60.195591 0.985162 -0.171626 0.000000 1.5658809689597668e-38
49.074973 -7.242924 60.434366 0.989092 -0.147302 0.000000 1.5658809689597668e-38
50.207216 -6.205630 60.588445 0.992421 -0.122888 0.000000 1.5658809689597668e-38
50.114170 -5.433612 60.719833 0.995147 -0.098400 0.000000 1.5658809689597668e-38
49.874890 -3.393554 60.424524 0.997269 -0.073853 0.000000 1.5658809689597668e-38
50.113647 -2.576669 60.742427 0.998786 -0.049260 0.000000 1.5658809689597668e-38
50.030890 -1.156172 61.144528 0.999696 -0.024637 0.000000 1.5658809689597668e-38
