# .PCD v0.7 - Point Cloud Data file format
VERSION 0.7
FIELDS x y z normal_x normal_y normal_z rgb
SIZE 4 4 4 4 4 4 4
TYPE F F F F F F F
COUNT 1 1 1 1 1 1 1
WIDTH 213
HEIGHT 1
VIEWPOINT 0 0 0 1 0 0 0
POINTS 213
DATA ascii
-40.603366 -40.233558 106.757431 -0.713610 -0.700543 0.000000 1.6580765988230895e-38
-39.718531 -40.795872 106.780501 -0.696134 -0.717912 0.000000 1.6580765988230895e-38
-39.043487 -41.768784 106.432173 -0.678235 -0.734845 0.000000 1.6580765988230895e-38
-37.585325 -42.914864 106.439533 -0.659925 -0.751332 0.000000 1.6580765988230895e-38
-41.470413 -38.753128 108.256365 -0.730653 -0.682749 0.000000 1.6580765988230895e-38
-40.213436 -40.248719 107.577888 -0.713610 -0.700543 0.000000 1.6580765988230895e-38
-39.522270 -41.520122 107.740510 -0.696134 -0.717912 0.000000 1.6580765988230895e-38
-38.973703 -41.965877 107.649547 -0.678235 -0.734845 0.000000 1.6580765988230895e-38
-38.202241 -42.166081 107.483741 -0.659925 -0.751332 0.000000 1.6580765988230895e-38
-36.171275 -44.297617 107.448994 -0.641213 -0.767363 0.000000 1.6580765988230895e-38
-35.277375 -44.773570 107.880553 -0.622113 -0.782928 0.000000 1.6580765988230895e-38
-42.102847 -37.385006 109.233143 -0.747253 -0.664540 0.000000 1.6580765988230895e-38
-41.448077 -39.164204 109.037711 -0.730653 -0.682749 0.000000 1.6580765988230895e-38
-41.376698 -40.157386 108.431153 -0.713610 -0.700543 0.000000 1.6580765988230895e-38
-39.626132 -41.052032 109.127369 -0.696134 -0.717912 0.000000 1.6580765988230895e-38
-38.556258 -41.652445 108.667460 -0.678235 -0.734845 0.000000 1.6580765988230895e-38
-38.244814 -42.350033 108.734196 -0.659925 -0.751332 0.000000 1.6580765988230895e-38
-36.649191 -43.527678 108.809526 -0.641213 -0.767363 0.000000 1.6580765988230895e-38
-35.886401 -44.104272 108.732796 -0.622113 -0.782928 0.000000 1.6580765988230895e-38
-33.874806 -45.490720 109.200811 -0.602635 -0.798017 0.000000 1.6580765988230895e-38
-32.997036 -46.558868 109.079720 -0.582791 -0.812622 0.000000 1.6580765988230895e-38
-43.617459 -37.023684 110.019143 -0.763398 -0.645928 0.000000 1.6580765988230895e-38
-42.449869 -38.336766 110.195106 -0.747253 -0.664540 0.000000 1.6580765988230895e-38
-41.374840 -39.030169 110.257066 -0.730653 -0.682749 0.000000 1.6580765988230895e-38
-41.275338 -39.857879 110.213900 -0.713610 -0.700543 0.000000 1.6580765988230895e-38
-39.883507 -40.883657 109.760054 -0.696134 -0.717912 0.000000 1.6580765988230895e-38
-38.288359 -41.201923 109.922766 -0.678235 -0.734845 0.000000 1.6580765988230895e-38
-37.427718 -43.056638 109.733940 -0.659925 -0.751332 0.000000 1.6580765988230895e-38
-36.320083 -44.016418 110.286636 -0.641213 -0.767363 0.000000 1.6580765988230895e-38
-35.042618 -44.664000 110.165735 -0.622113 -0.782928 0.000000 1.6580765988230895e-38
-34.788621 -45.973209 110.062216 -0.602635 -0.798017 0.000000 1.6580765988230895e-38
-33.478266 -46.318306 109.776414 -0.582791 -0.812622 0.000000 1.6580765988230895e-38
-32.440818 -47.375736 110.131992 -0.562593 -0.826734 0.000000 1.6580765988230895e-38
-31.014852 -48.168039 109.867759 -0.542053 -0.840344 0.000000 1.6580765988230895e-38
-44.674474 -36.087837 110.742139 -0.779081 -0.626924 0.000000 1.6580765988230895e-38
-43.814239 -37.391062 111.063375 -0.763398 -0.645928 0.000000 1.6580765988230895e-38
-42.670842 -38.538950 111.709341 -0.747253 -0.664540 0.000000 1.6580765988230895e-38
-41.116206 -39.271967 111.701562 -0.730653 -0.682749 0.000000 1.6580765988230895e-38
-41.314730 -40.026749 111.446718 -0.713610 -0.700543 0.000000 1.6580765988230895e-38
-38.971559 -41.253810 111.478871 -0.696134 -0.717912 0.000000 1.6580765988230895e-38
-38.923709 -42.223997 111.298759 -0.678235 -0.734845 0.000000 1.6580765988230895e-38
-37.875608 -43.247372 111.420566 -0.659925 -0.751332 0.000000 1.6580765988230895e-38
-37.015420 -44.095904 111.916658 -0.641213 -0.767363 0.000000 1.6580765988230895e-38
-35.686858 -44.602088 111.317357 -0.622113 -0.782928 0.000000 1.6580765988230895e-38
-34.305323 -45.785264 110.564528 -0.602635 -0.798017 0.000000 1.6580765988230895e-38
-33.407887 -46.870284 111.250174 -0.582791 -0.812622 0.000000 1.6580765988230895e-38
-32.034623 -46.833628 110.917691 -0.562593 -0.826734 0.000000 1.6580765988230895e-38
-31.135722 -48.153399 111.354873 -0.542053 -0.840344 0.000000 1.6580765988230895e-38
-29.851456 -48.740232 111.208886 -0.521185 -0.853444 0.000000 1.6580765988230895e-38
-28.713593 -49.511981 111.130562 -0.500000 -0.866025 0.000000 1.6580765988230895e-38
-27.599911 -50.341063 111.162884 -0.478512 -0.878081 0.000000 1.6580765988230895e-38
-45.709486 -34.719654 112.697651 -0.794290 -0.607539 0.000000 1.6580765988230895e-38
-44.488358 -35.518246 112.183324 -0.779081 -0.626924 0.000000 1.6580765988230895e-38
-44.347715 -37.128575 113.019719 -0.763398 -0.645928 0.000000 1.6580765988230895e-38
-42.428954 -38.057676 112.491762 -0.747253 -0.664540 0.000000 1.6580765988230895e-38
-41.830946 -38.825573 112.343541 -0.730653 -0.682749 0.000000 1.6580765988230895e-38
-41.103138 -40.153661 112.913137 -0.713610 -0.700543 0.000000 1.6580765988230895e-38
-39.678838 -41.769643 112.828624 -0.696134 -0.717912 0.000000 1.6580765988230895e-38
-38.907094 -41.958889 112.512638 -0.678235 -0.734845 0.000000 1.6580765988230895e-38
-37.702702 -43.081556 112.414045 -0.659925 -0.751332 0.000000 1.6580765988230895e-38
-37.006826 -44.072471 112.188965 -0.641213 -0.767363 0.000000 1.6580765988230895e-38
-35.816476 -45.004296 112.888265 -0.622113 -0.782928 0.000000 1.6580765988230895e-38
-34.367416 -45.169494 112.074005 -0.602635 -0.798017 0.000000 1.6580765988230895e-38
-33.505182 -46.241219 112.659659 -0.582791 -0.812622 0.000000 1.6580765988230895e-38
-32.335075 -47.700248 112.785605 -0.562593 -0.826734 0.000000 1.6580765988230895e-38
-31.035607 -48.302572 112.879867 -0.542053 -0.840344 0.000000 1.6580765988230895e-38
-29.223037 -49.219078 112.752285 -0.521185 -0.853444 0.000000 1.6580765988230895e-38
-28.637854 -49.479356 112.973478 -0.500000 -0.866025 0.000000 1.6580765988230895e-38
-27.020218 -50.515248 112.079761 -0.478512 -0.878081 0.000000 1.6580765988230895e-38
-26.225738 -51.052922 111.751522 -0.456733 -0.889604 0.000000 1.6580765988230895e-38
-46.552154 -33.183545 113.566763 -0.809017 -0.587785 0.000000 1.6580765988230895e-38
-45.588265 -35.017334 113.573385 -0.794290 -0.607539 0.000000 1.6580765988230895e-38
-44.777385 -35.487182 114.200717 -0.779081 -0.626924 0.000000 1.6580765988230895e-38
-43.813141 -37.487494 113.911024 -0.763398 -0.645928 0.000000 1.6580765988230895e-38
-43.052391 -38.435380 114.006034 -0.747253 -0.664540 0.000000 1.6580765988230895e-38
-42.325070 -39.159905 113.948396 -0.730653 -0.682749 0.000000 1.6580765988230895e-38
-40.764879 -40.597272 114.316003 -0.713610 -0.700543 0.000000 1.6580765988230895e-38
-39.879400 -41.217555 113.408569 -0.696134 -0.717912 0.000000 1.6580765988230895e-38
-39.187425 -42.297246 113.797205 -0.678235 -0.734845 0.000000 1.6580765988230895e-38
-37.786647 -43.242794 114.239854 -0.659925 -0.751332 0.000000 1.6580765988230895e-38
-36.929490 -43.999042 114.146470 -0.641213 -0.767363 0.000000 1.6580765988230895e-38
-35.884249 -45.360652 113.681015 -0.622113 -0.782928 0.000000 1.6580765988230895e-38
-34.327647 -45.796181 114.008271 -0.602635 -0.798017 0.000000 1.6580765988230895e-38
-33.856065 -47.139186 113.979604 -0.582791 -0.812622 0.000000 1.6580765988230895e-38
-32.197697 -47.739386 113.461939 -0.562593 -0.826734 0.000000 1.6580765988230895e-38
-31.172967 -48.259446 113.440035 -0.542053 -0.840344 0.000000 1.6580765988230895e-38
-29.946365 -49.432909 113.614945 -0.521185 -0.853444 0.000000 1.6580765988230895e-38
-29.103650 -49.752459 113.614207 -0.500000 -0.866025 0.000000 1.6580765988230895e-38
-27.070738 -50.320206 113.412556 -0.478512 -0.878081 0.000000 1.6580765988230895e-38
-25.952135 -51.132423 114.033034 -0.456733 -0.889604 0.000000 1.6580765988230895e-38
-25.347541 -51.523324 114.421150 -0.434676 -0.900587 0.000000 1.6580765988230895e-38
-46.617234 -34.036172 114.990706 -0.809017 -0.587785 0.000000 1.6580765988230895e-38
-45.387225 -35.296572 114.927382 -0.794290 -0.607539 0.000000 1.6580765988230895e-38
-44.097065 -36.547159 114.716466 -0.779081 -0.626924 0.000000 1.6580765988230895e-38
-43.756766 -37.581443 115.012233 -0.763398 -0.645928 0.000000 1.6580765988230895e-38
-42.418141 -38.357052 114.782885 -0.747253 -0.664540 0.000000 1.6580765988230895e-38
-42.455122 -39.479446 114.979435 -0.730653 -0.682749 0.000000 1.6580765988230895e-38
-40.347329 -40.293183 115.009774 -0.713610 -0.700543 0.000000 1.6580765988230895e-38
-39.998559 -41.496641 114.343412 -0.696134 -0.717912 0.000000 1.6580765988230895e-38
-38.522978 -42.026331 115.384665 -0.678235 -0.734845 0.000000 1.6580765988230895e-38
-37.833754 -42.806724 114.588499 -0.659925 -0.751332 0.000000 1.6580765988230895e-38
-36.814256 -43.920322 115.447095 -0.641213 -0.767363 0.000000 1.6580765988230895e-38
-35.607530 -44.844036 115.119370 -0.622113 -0.782928 0.000000 1.6580765988230895e-38
-35.057107 -46.013913 114.900154 -0.602635 -0.798017 0.000000 1.6580765988230895e-38
-33.223888 -46.520577 115.503378 -0.582791 -0.812622 0.000000 1.6580765988230895e-38
-32.167304 -47.549223 115.436305 -0.562593 -0.826734 0.000000 1.6580765988230895e-38
-31.507283 -48.354233 114.767443 -0.542053 -0.840344 0.000000 1.6580765988230895e-38
-30.271620 -49.345392 114.853107 -0.521185 -0.853444 0.000000 1.6580765988230895e-38
-28.661469 -49.847223 115.129465 -0.500000 -0.866025 0.000000 1.6580765988230895e-38
-27.417986 -51.135521 115.097943 -0.478512 -0.878081 0.000000 1.6580765988230895e-38
-26.458428 -51.589095 115.119485 -0.456733 -0.889604 0.000000 1.6580765988230895e-38
-24.947473 -51.682977 115.259584 -0.434676 -0.900587 0.000000 1.6580765988230895e-38
-23.889017 -52.624287 115.039269 -0.412356 -0.911023 0.000000 1.6580765988230895e-38
-46.378289 -33.506872 116.988660 -0.809017 -0.587785 0.000000 1.6580765988230895e-38
-45.064901 -34.952086 116.073014 -0.794290 -0.607539 0.000000 1.6580765988230895e-38
-44.956604 -36.419736 116.325946 -0.779081 -0.626924 0.000000 1.6580765988230895e-38
-44.165517 -37.450098 115.976363 -0.763398 -0.645928 0.000000 1.6580765988230895e-38
-42.674049 -38.212326 115.879845 -0.747253 -0.664540 0.000000 1.6580765988230895e-38
-41.722354 -38.876542 116.150736 -0.730653 -0.682749 0.000000 1.6580765988230895e-38
-41.242407 -40.518151 116.368234 -0.713610 -0.700543 0.000000 1.6580765988230895e-38
-39.729607 -41.203976 115.884958 -0.696134 -0.717912 0.000000 1.6580765988230895e-38
-38.655278 -42.243882 116.228367 -0.678235 -0.734845 0.000000 1.6580765988230895e-38
-37.793008 -42.861985 115.947065 -0.659925 -0.751332 0.000000 1.6580765988230895e-38
-37.249547 -44.110595 116.277810 -0.641213 -0.767363 0.000000 1.6580765988230895e-38
-35.478780 -44.610288 116.137749 -0.622113 -0.782928 0.000000 1.6580765988230895e-38
-34.531673 -45.719931 116.455698 -0.602635 -0.798017 0.000000 1.6580765988230895e-38
-33.976197 -46.540534 116.039227 -0.582791 -0.812622 0.000000 1.6580765988230895e-38
-32.157606 -47.854992 116.306238 -0.562593 -0.826734 0.000000 1.6580765988230895e-38
-31.241784 -47.651161 116.019602 -0.542053 -0.840344 0.000000 1.6580765988230895e-38
-30.241290 -48.603633 116.542895 -0.521185 -0.853444 0.000000 1.6580765988230895e-38
-28.661052 -49.921750 115.930827 -0.500000 -0.866025 0.000000 1.6580765988230895e-38
-27.639677 -50.632495 116.065062 -0.478512 -0.878081 0.000000 1.6580765988230895e-38
-26.413005 -51.301773 116.564761 -0.456733 -0.889604 0.000000 1.6580765988230895e-38
-25.409305 -51.646539 116.356596 -0.434676 -0.900587 0.000000 1.6580765988230895e-38
-23.728058 -52.163764 116.405181 -0.412356 -0.911023 0.000000 1.6580765988230895e-38
-22.380836 -52.600599 115.539822 -0.389786 -0.920906 0.000000 1.6580765988230895e-38
-47.905988 -32.523073 117.515995 -0.823253 -0.567675 0.000000 1.6580765988230895e-38
-45.973564 -33.500154 117.261883 -0.809017 -0.587785 0.000000 1.6580765988230895e-38
-45.367621 -34.895095 117.739486 -0.794290 -0.607539 0.000000 1.6580765988230895e-38
-45.012463 -36.152143 117.720739 -0.779081 -0.626924 0.000000 1.6580765988230895e-38
-43.664480 -37.762931 117.699378 -0.763398 -0.645928 0.000000 1.6580765988230895e-38
-43.208740 -38.130259 117.029515 -0.747253 -0.664540 0.000000 1.6580765988230895e-38
-41.736115 -39.044629 117.278167 -0.730653 -0.682749 0.000000 1.6580765988230895e-38
-40.900829 -40.281260 117.707230 -0.713610 -0.700543 0.000000 1.6580765988230895e-38
-40.431914 -41.632396 117.306226 -0.696134 -0.717912 0.000000 1.6580765988230895e-38
-39.003240 -41.752498 117.577474 -0.678235 -0.734845 0.000000 1.6580765988230895e-38
-37.651667 -43.452681 117.354059 -0.659925 -0.751332 0.000000 1.6580765988230895e-38
-37.062453 -44.170762 117.725754 -0.641213 -0.767363 0.000000 1.6580765988230895e-38
-35.862390 -45.096853 117.700006 -0.622113 -0.782928 0.000000 1.6580765988230895e-38
-34.794017 -46.105716 117.425123 -0.602635 -0.798017 0.000000 1.6580765988230895e-38
-32.953798 -46.448829 118.095087 -0.582791 -0.812622 0.000000 1.6580765988230895e-38
-32.730951 -47.407188 117.414041 -0.562593 -0.826734 0.000000 1.6580765988230895e-38
-31.253316 -48.768766 117.915832 -0.542053 -0.840344 0.000000 1.6580765988230895e-38
-30.446598 -48.792727 117.407547 -0.521185 -0.853444 0.000000 1.6580765988230895e-38
-29.015483 -50.069435 117.540807 -0.500000 -0.866025 0.000000 1.6580765988230895e-38
-27.616787 -50.474505 116.930061 -0.478512 -0.878081 0.000000 1.6580765988230895e-38
-26.874414 -51.684461 117.766474 -0.456733 -0.889604 0.000000 1.6580765988230895e-38
-24.552585 -51.848662 117.748997 -0.434676 -0.900587 0.000000 1.6580765988230895e-38
-23.600003 -52.018814 117.887345 -0.412356 -0.911023 0.000000 1.6580765988230895e-38
-22.777416 -52.879798 117.782776 -0.389786 -0.920906 0.000000 1.6580765988230895e-38
-20.837306 -53.243503 117.515943 -0.366979 -0.930229 0.000000 1.6580765988230895e-38
-47.534766 -32.359910 118.960917 -0.823253 -0.567675 0.000000 1.6580765988230895e-38
-46.203552 -33.796543 118.684942 -0.809017 -0.587785 0.000000 1.6580765988230895e-38
-45.565795 -35.343349 118.703574 -0.794290 -0.607539 0.000000 1.6580765988230895e-38
-44.206301 -36.144674 118.758212 -0.779081 -0.626924 0.000000 1.6580765988230895e-38
-43.953347 -36.687482 118.407495 -0.763398 -0.645928 0.000000 1.6580765988230895e-38
-42.761697 -38.328356 118.567918 -0.747253 -0.664540 0.000000 1.6580765988230895e-38
-42.512469 -38.741034 118.979929 -0.730653 -0.682749 0.000000 1.6580765988230895e-38
-41.427830 -40.656225 118.569162 -0.713610 -0.700543 0.000000 1.6580765988230895e-38
-39.875176 -41.315606 118.488937 -0.696134 -0.717912 0.000000 1.6580765988230895e-38
-39.020081 -41.870325 118.941391 -0.678235 -0.734845 0.000000 1.6580765988230895e-38
-38.484992 -43.514228 118.723623 -0.659925 -0.751332 0.000000 1.6580765988230895e-38
-36.827048 -43.727637 118.759852 -0.641213 -0.767363 0.000000 1.6580765988230895e-38
-35.607277 -45.671416 118.643624 -0.622113 -0.782928 0.000000 1.6580765988230895e-38
-34.439458 -45.316302 118.360993 -0.602635 -0.798017 0.000000 1.6580765988230895e-38
-33.559658 -47.251077 118.701727 -0.582791 -0.812622 0.000000 1.6580765988230895e-38
-32.034366 -47.257025 118.748257 -0.562593 -0.826734 0.000000 1.6580765988230895e-38
-31.243462 -47.536235 118.697531 -0.542053 -0.840344 0.000000 1.6580765988230895e-38
-30.131360 -49.238811 118.322255 -0.521185 -0.853444 0.000000 1.6580765988230895e-38
-28.616612 -49.598745 118.946643 -0.500000 -0.866025 0.000000 1.6580765988230895e-38
-27.280496 -50.665356 118.713117 -0.478512 -0.878081 0.000000 1.6580765988230895e-38
-25.915209 -51.290207 118.593890 -0.456733 -0.889604 0.000000 1.6580765988230895e-38
-24.694167 -52.019462 118.419127 -0.434676 -0.900587 0.000000 1.6580765988230895e-38
-24.024234 -51.569936 119.064453 -0.412356 -0.911023 0.000000 1.6580765988230895e-38
-22.225052 -53.230471 118.912168 -0.389786 -0.920906 0.000000 1.6580765988230895e-38
-20.591780 -53.376395 118.430960 -0.366979 -0.930229 0.000000 1.6580765988230895e-38
-19.615559 -54.036305 118.803929 -0.343949 -0.938988 0.000000 1.6580765988230895e-38
-47.431206 -32.931528 120.329248 -0.823253 -0.567675 0.000000 1.6580765988230895e-38
-46.355448 -34.096932 119.823102 -0.809017 -0.587785 0.000000 1.6580765988230895e-38
-45.458708 -35.185115 119.948947 -0.794290 -0.607539 0.000000 1.6580765988230895e-38
-44.884376 -36.265120 119.681522 -0.779081 -0.626924 0.000000 1.6580765988230895e-38
-43.911837 -37.419990 119.821065 -0.763398 -0.645928 0.000000 1.6580765988230895e-38
-42.712187 -38.426190 120.137205 -0.747253 -0.664540 0.000000 1.6580765988230895e-38
-41.725375 -39.290194 120.152952 -0.730653 -0.682749 0.000000 1.6580765988230895e-38
-41.289671 -40.058869 120.193519 -0.713610 -0.700543 0.000000 1.6580765988230895e-38
-39.591202 -40.928355 120.079335 -0.696134 -0.717912 0.000000 1.6580765988230895e-38
-38.170414 -41.988455 120.381867 -0.678235 -0.734845 0.000000 1.6580765988230895e-38
-38.083986 -43.312207 120.021696 -0.659925 -0.751332 0.000000 1.6580765988230895e-38
-37.170472 -44.111999 119.988218 -0.641213 -0.767363 0.000000 1.6580765988230895e-38
-35.443221 -44.668177 120.036320 -0.622113 -0.782928 0.000000 1.6580765988230895e-38
-34.763309 -45.348839 119.543884 -0.602635 -0.798017 0.000000 1.6580765988230895e-38
-33.975991 -46.581578 119.979195 -0.582791 -0.812622 0.000000 1.6580765988230895e-38
-32.441251 -48.085983 119.736517 -0.562593 -0.826734 0.000000 1.6580765988230895e-38
-30.724676 -47.927552 120.237185 -0.542053 -0.840344 0.000000 1.6580765988230895e-38
-30.212974 -49.172954 119.879266 -0.521185 -0.853444 0.000000 1.6580765988230895e-38
-28.953054 -49.959705 119.969727 -0.500000 -0.866025 0.000000 1.6580765988230895e-38
-27.957117 -50.135426 119.959341 -0.478512 -0.878081 0.000000 1.6580765988230895e-38
-26.412779 -51.625126 120.234831 -0.456733 -0.889604 0.000000 1.6580765988230895e-38
-25.306521 -51.639152 119.735737 -0.434676 -0.900587 0.000000 1.6580765988230895e-38
-23.676265 -52.768521 119.948917 -0.412356 -0.911023 0.000000 1.6580765988230895e-38
-22.435992 -52.903583 120.265027 -0.389786 -0.920906 0.000000 1.6580765988230895e-38
-20.946335 -53.019280 119.570861 -0.366979 -0.930229 0.000000 1.6580765988230895e-38
-19.149665 -53.709772 119.867282 -0.343949 -0.938988 0.000000 1.6580765988230895e-38
