# .PCD v0.7 - Point Cloud Data file format
VERSION 0.7
FIELDS x y z normal_x normal_y normal_z rgb
SIZE 4 4 4 4 4 4 4
TYPE F F F F F F F
COUNT 1 1 1 1 1 1 1
WIDTH 314
HEIGHT 1
VIEWPOINT 0 0 0 1 0 0 0
POINTS 314
DATA ascii
38.789322 40.999409 100.437207 0.687237 0.726434 0.000000 1.6119787838914282e-38
37.426438 41.247941 100.225240 0.669131 0.743145 0.000000 1.6119787838914282e-38
39.073835 41.582972 101.227654 0.687237 0.726434 0.000000 1.6119787838914282e-38
38.491124 42.272147 101.730842 0.669131 0.743145 0.000000 1.6119787838914282e-38
37.133229 42.603448 101.741924 0.650618 0.759405 0.000000 1.6119787838914282e-38
35.923147 43.767129 101.930352 0.631711 0.775204 0.000000 1.6119787838914282e-38
34.114268 44.585842 101.879326 0.612420 0.790532 0.000000 1.6119787838914282e-38
33.871885 45.449218 101.229664 0.592758 0.805381 0.000000 1.6119787838914282e-38
32.386696 46.541237 101.340240 0.572735 0.819740 0.000000 1.6119787838914282e-38
31.285835 47.266556 101.376632 0.552365 0.833602 0.000000 1.6119787838914282e-38
40.529838 40.431160 103.195427 0.704926 0.709281 0.000000 1.6119787838914282e-38
38.782473 41.154377 102.519142 0.687237 0.726434 0.000000 1.6119787838914282e-38
38.261513 42.509502 102.797653 0.669131 0.743145 0.000000 1.6119787838914282e-38
36.945905 43.215604 102.265649 0.650618 0.759405 0.000000 1.6119787838914282e-38
35.721266 43.887478 102.676334 0.631711 0.775204 0.000000 1.6119787838914282e-38
34.554429 44.601707 102.201014 0.612420 0.790532 0.000000 1.6119787838914282e-38
33.763958 45.287519 102.980251 0.592758 0.805381 0.000000 1.6119787838914282e-38
32.595397 46.779757 102.412883 0.572735 0.819740 0.000000 1.6119787838914282e-38
31.901506 47.966292 102.689426 0.552365 0.833602 0.000000 1.6119787838914282e-38
30.285521 48.054381 102.982610 0.531659 0.846958 0.000000 1.6119787838914282e-38
29.212105 48.254270 102.432422 0.510631 0.859800 0.000000 1.6119787838914282e-38
40.060719 40.587740 104.327733 0.704926 0.709281 0.000000 1.6119787838914282e-38
39.290104 41.405475 103.852559 0.687237 0.726434 0.000000 1.6119787838914282e-38
38.059227 41.834180 103.560657 0.669131 0.743145 0.000000 1.6119787838914282e-38
37.362005 43.694448 103.507661 0.650618 0.759405 0.000000 1.6119787838914282e-38
36.073558 43.609089 104.411917 0.631711 0.775204 0.000000 1.6119787838914282e-38
34.808015 45.693589 103.726538 0.612420 0.790532 0.000000 1.6119787838914282e-38
33.542377 45.901745 104.188638 0.592758 0.805381 0.000000 1.6119787838914282e-38
32.800493 46.890338 103.849722 0.572735 0.819740 0.000000 1.6119787838914282e-38
31.694836 48.053182 104.157890 0.552365 0.833602 0.000000 1.6119787838914282e-38
29.976779 48.273417 103.330212 0.531659 0.846958 0.000000 1.6119787838914282e-38
29.237532 48.375084 104.133012 0.510631 0.859800 0.000000 1.6119787838914282e-38
27.801750 49.877063 103.932081 0.489293 0.872120 0.000000 1.6119787838914282e-38
40.213057 39.889334 105.533779 0.704926 0.709281 0.000000 1.6119787838914282e-38
38.754614 41.169428 105.055497 0.687237 0.726434 0.000000 1.6119787838914282e-38
38.106245 42.219421 104.987907 0.669131 0.743145 0.000000 1.6119787838914282e-38
37.287405 42.841538 105.030321 0.650618 0.759405 0.000000 1.6119787838914282e-38
35.341051 43.831348 104.685707 0.631711 0.775204 0.000000 1.6119787838914282e-38
35.091815 45.069475 104.911980 0.612420 0.790532 0.000000 1.6119787838914282e-38
32.792376 45.401173 104.824936 0.592758 0.805381 0.000000 1.6119787838914282e-38
32.503754 46.903913 104.723031 0.572735 0.819740 0.000000 1.6119787838914282e-38
31.046796 46.963086 105.155475 0.552365 0.833602 0.000000 1.6119787838914282e-38
29.622290 47.696805 105.296056 0.531659 0.846958 0.000000 1.6119787838914282e-38
29.532882 48.976682 105.060435 0.510631 0.859800 0.000000 1.6119787838914282e-38
28.514071 49.502582 104.999157 0.489293 0.872120 0.000000 1.6119787838914282e-38
26.467806 50.780598 105.316329 0.467658 0.883910 0.000000 1.6119787838914282e-38
25.539148 51.069157 105.017640 0.445738 0.895163 0.000000 1.6119787838914282e-38
40.622030 39.444576 106.397351 0.722186 0.691698 0.000000 1.6119787838914282e-38
39.826087 40.132900 106.840928 0.704926 0.709281 0.000000 1.6119787838914282e-38
38.974656 41.300788 106.151843 0.687237 0.726434 0.000000 1.6119787838914282e-38
38.283873 42.464651 106.973285 0.669131 0.743145 0.000000 1.6119787838914282e-38
36.943186 43.465218 105.825704 0.650618 0.759405 0.000000 1.6119787838914282e-38
35.600408 44.608600 106.723277 0.631711 0.775204 0.000000 1.6119787838914282e-38
35.058910 45.421277 106.069050 0.612420 0.790532 0.000000 1.6119787838914282e-38
34.300200 45.619652 106.489002 0.592758 0.805381 0.000000 1.6119787838914282e-38
33.494115 46.484410 106.796288 0.572735 0.819740 0.000000 1.6119787838914282e-38
31.790765 47.379463 107.018762 0.552365 0.833602 0.000000 1.6119787838914282e-38
30.046536 48.290234 106.584213 0.531659 0.846958 0.000000 1.6119787838914282e-38
29.092141 49.966115 106.014316 0.510631 0.859800 0.000000 1.6119787838914282e-38
28.389289 49.057446 105.524435 0.489293 0.872120 0.000000 1.6119787838914282e-38
26.685947 50.629648 106.838777 0.467658 0.883910 0.000000 1.6119787838914282e-38
25.902543 51.110308 106.541262 0.445738 0.895163 0.000000 1.6119787838914282e-38
24.227461 52.118884 106.021124 0.423549 0.905873 0.000000 1.6119787838914282e-38
41.010099 39.389417 107.802488 0.722186 0.691698 0.000000 1.6119787838914282e-38
39.577532 40.633321 106.985473 0.704926 0.709281 0.000000 1.6119787838914282e-38
39.251314 41.642647 107.721181 0.687237 0.726434 0.000000 1.6119787838914282e-38
38.028025 42.518128 107.346172 0.669131 0.743145 0.000000 1.6119787838914282e-38
37.571464 43.619051 107.344160 0.650618 0.759405 0.000000 1.6119787838914282e-38
36.490119 44.330337 107.289968 0.631711 0.775204 0.000000 1.6119787838914282e-38
35.325634 45.640430 107.552142 0.612420 0.790532 0.000000 1.6119787838914282e-38
33.962223 45.991424 107.802677 0.592758 0.805381 0.000000 1.6119787838914282e-38
32.947391 47.111253 107.074502 0.572735 0.819740 0.000000 1.6119787838914282e-38
31.390136 47.896689 107.419413 0.552365 0.833602 0.000000 1.6119787838914282e-38
30.467266 48.094920 107.832235 0.531659 0.846958 0.000000 1.6119787838914282e-38
29.173426 49.284426 107.747357 0.510631 0.859800 0.000000 1.6119787838914282e-38
27.521981 50.435282 107.236509 0.489293 0.872120 0.000000 1.6119787838914282e-38
27.453572 49.832062 107.649290 0.467658 0.883910 0.000000 1.6119787838914282e-38
25.033876 51.607562 107.324540 0.445738 0.895163 0.000000 1.6119787838914282e-38
23.860386 51.744741 108.057941 0.423549 0.905873 0.000000 1.6119787838914282e-38
23.276803 52.247927 107.532726 0.401102 0.916034 0.000000 1.6119787838914282e-38
41.771873 40.056216 108.809364 0.722186 0.691698 0.000000 1.6119787838914282e-38
40.227234 40.092638 109.184651 0.704926 0.709281 0.000000 1.6119787838914282e-38
39.425625 41.483379 108.274265 0.687237 0.726434 0.000000 1.6119787838914282e-38
37.722499 42.534555 108.403214 0.669131 0.743145 0.000000 1.6119787838914282e-38
37.366165 43.601604 108.471585 0.650618 0.759405 0.000000 1.6119787838914282e-38
36.138032 44.047294 109.148388 0.631711 0.775204 0.000000 1.6119787838914282e-38
36.007642 45.169836 109.309302 0.612420 0.790532 0.000000 1.6119787838914282e-38
34.204380 46.031332 109.025598 0.592758 0.805381 0.000000 1.6119787838914282e-38
32.371396 46.917056 108.775977 0.572735 0.819740 0.000000 1.6119787838914282e-38
31.994096 47.480454 108.549705 0.552365 0.833602 0.000000 1.6119787838914282e-38
30.097496 48.688845 108.810795 0.531659 0.846958 0.000000 1.6119787838914282e-38
28.694574 49.470853 108.412823 0.510631 0.859800 0.000000 1.6119787838914282e-38
27.815002 49.807747 108.537245 0.489293 0.872120 0.000000 1.6119787838914282e-38
26.233308 50.789188 109.061534 0.467658 0.883910 0.000000 1.6119787838914282e-38
25.505082 51.298286 108.355648 0.445738 0.895163 0.000000 1.6119787838914282e-38
24.376626 51.925213 108.998682 0.423549 0.905873 0.000000 1.6119787838914282e-38
23.068083 52.680397 108.831179 0.401102 0.916034 0.000000 1.6119787838914282e-38
21.657805 52.530865 109.071684 0.378411 0.925638 0.000000 1.6119787838914282e-38
20.127656 53.269368 108.743286 0.355491 0.934680 0.000000 1.6119787838914282e-38
41.535999 39.820790 110.442158 0.722186 0.691698 0.000000 1.6119787838914282e-38
40.841136 40.918910 110.202864 0.704926 0.709281 0.000000 1.6119787838914282e-38
39.409274 41.773064 109.496832 0.687237 0.726434 0.000000 1.6119787838914282e-38
38.261095 41.996575 109.882620 0.669131 0.743145 0.000000 1.6119787838914282e-38
36.804908 43.592335 110.283425 0.650618 0.759405 0.000000 1.6119787838914282e-38
36.530068 44.089944 109.905763 0.631711 0.775204 0.000000 1.6119787838914282e-38
35.385680 45.104101 109.887492 0.612420 0.790532 0.000000 1.6119787838914282e-38
34.148943 46.263364 110.390230 0.592758 0.805381 0.000000 1.6119787838914282e-38
32.933589 46.811617 110.515370 0.572735 0.819740 0.000000 1.6119787838914282e-38
31.887679 47.718307 110.368965 0.552365 0.833602 0.000000 1.6119787838914282e-38
30.433315 48.209867 110.136298 0.531659 0.846958 0.000000 1.6119787838914282e-38
29.811354 49.535685 110.227873 0.510631 0.859800 0.000000 1.6119787838914282e-38
27.742863 49.573706 110.029773 0.489293 0.872120 0.000000 1.6119787838914282e-38
26.590993 50.608848 110.148359 0.467658 0.883910 0.000000 1.6119787838914282e-38
25.091601 50.996402 109.996725 0.445738 0.895163 0.000000 1.6119787838914282e-38
24.378888 52.003038 109.793073 0.423549 0.905873 0.000000 1.6119787838914282e-38
22.595500 52.158645 110.342046 0.401102 0.916034 0.000000 1.6119787838914282e-38
21.521765 53.024359 110.228214 0.378411 0.925638 0.000000 1.6119787838914282e-38
20.720002 53.143936 110.466952 0.355491 0.934680 0.000000 1.6119787838914282e-38
19.200579 54.495558 110.524651 0.332355 0.943154 0.000000 1.6119787838914282e-38
42.049671 38.079752 111.560517 0.739009 0.673696 0.000000 1.6119787838914282e-38
41.721985 39.435685 110.715425 0.722186 0.691698 0.000000 1.6119787838914282e-38
40.506843 40.694122 111.040082 0.704926 0.709281 0.000000 1.6119787838914282e-38
39.366445 40.803230 111.342686 0.687237 0.726434 0.000000 1.6119787838914282e-38
38.300686 42.987027 111.416372 0.669131 0.743145 0.000000 1.6119787838914282e-38
37.312944 44.109277 111.102118 0.650618 0.759405 0.000000 1.6119787838914282e-38
35.753363 44.699336 111.653806 0.631711 0.775204 0.000000 1.6119787838914282e-38
35.417381 45.234020 111.126870 0.612420 0.790532 0.000000 1.6119787838914282e-38
33.596867 45.888618 110.888708 0.592758 0.805381 0.000000 1.6119787838914282e-38
32.690406 47.475521 111.176780 0.572735 0.819740 0.000000 1.6119787838914282e-38
31.693499 47.936299 111.231912 0.552365 0.833602 0.000000 1.6119787838914282e-38
30.357763 48.923318 111.396133 0.531659 0.846958 0.000000 1.6119787838914282e-38
29.602064 49.989821 111.079236 0.510631 0.859800 0.000000 1.6119787838914282e-38
27.993758 49.929387 111.191535 0.489293 0.872120 0.000000 1.6119787838914282e-38
26.671103 51.076038 111.369980 0.467658 0.883910 0.000000 1.6119787838914282e-38
26.291247 51.178191 111.792030 0.445738 0.895163 0.000000 1.6119787838914282e-38
24.800437 51.888977 111.474372 0.423549 0.905873 0.000000 1.6119787838914282e-38
23.251210 52.329054 111.839320 0.401102 0.916034 0.000000 1.6119787838914282e-38
21.442605 52.890318 111.187309 0.378411 0.925638 0.000000 1.6119787838914282e-38
20.440073 53.663052 111.149284 0.355491 0.934680 0.000000 1.6119787838914282e-38
19.012669 53.716021 111.689568 0.332355 0.943154 0.000000 1.6119787838914282e-38
17.917670 54.399040 111.282542 0.309017 0.951057 0.000000 1.6119787838914282e-38
42.608620 38.199025 112.834112 0.739009 0.673696 0.000000 1.6119787838914282e-38
41.049029 39.488530 112.327818 0.722186 0.691698 0.000000 1.6119787838914282e-38
39.963126 40.736759 112.567995 0.704926 0.709281 0.000000 1.6119787838914282e-38
39.817565 42.028978 112.630387 0.687237 0.726434 0.000000 1.6119787838914282e-38
38.616987 42.594657 112.544182 0.669131 0.743145 0.000000 1.6119787838914282e-38
37.356387 43.513363 112.640939 0.650618 0.759405 0.000000 1.6119787838914282e-38
36.433240 44.098897 112.454887 0.631711 0.775204 0.000000 1.6119787838914282e-38
35.360473 45.177739 112.417356 0.612420 0.790532 0.000000 1.6119787838914282e-38
34.304522 45.973727 112.707355 0.592758 0.805381 0.000000 1.6119787838914282e-38
32.896365 47.285636 112.557490 0.572735 0.819740 0.000000 1.6119787838914282e-38
31.445863 47.618804 113.074080 0.552365 0.833602 0.000000 1.6119787838914282e-38
30.335280 48.400842 112.438820 0.531659 0.846958 0.000000 1.6119787838914282e-38
29.208028 49.194686 112.746713 0.510631 0.859800 0.000000 1.6119787838914282e-38
28.095759 49.846696 112.794083 0.489293 0.872120 0.000000 1.6119787838914282e-38
26.908800 51.098112 112.672234 0.467658 0.883910 0.000000 1.6119787838914282e-38
25.528594 51.284470 112.620865 0.445738 0.895163 0.000000 1.6119787838914282e-38
24.404351 51.959230 112.445100 0.423549 0.905873 0.000000 1.6119787838914282e-38
23.194713 52.672541 112.582913 0.401102 0.916034 0.000000 1.6119787838914282e-38
21.905743 53.070590 112.580968 0.378411 0.925638 0.000000 1.6119787838914282e-38
20.580001 53.852415 112.773321 0.355491 0.934680 0.000000 1.6119787838914282e-38
18.834113 54.210998 112.590372 0.332355 0.943154 0.000000 1.6119787838914282e-38
17.842408 55.098566 112.514168 0.309017 0.951057 0.000000 1.6119787838914282e-38
16.382073 54.802819 112.519792 0.285492 0.958381 0.000000 1.6119787838914282e-38
14.812916 55.036495 111.990625 0.261793 0.965124 0.000000 1.6119787838914282e-38
42.373506 38.633634 113.742825 0.739009 0.673696 0.000000 1.6119787838914282e-38
41.319411 39.609011 113.751823 0.722186 0.691698 0.000000 1.6119787838914282e-38
40.180727 40.293845 113.703343 0.704926 0.709281 0.000000 1.6119787838914282e-38
39.186082 41.678849 113.494356 0.687237 0.726434 0.000000 1.6119787838914282e-38
37.841622 43.094290 113.624662 0.669131 0.743145 0.000000 1.6119787838914282e-38
36.679582 43.814252 113.666829 0.650618 0.759405 0.000000 1.6119787838914282e-38
36.240976 44.533318 114.090485 0.631711 0.775204 0.000000 1.6119787838914282e-38
35.218329 44.930464 113.428163 0.612420 0.790532 0.000000 1.6119787838914282e-38
33.567027 46.053773 113.903898 0.592758 0.805381 0.000000 1.6119787838914282e-38
32.605026 46.823862 113.571199 0.572735 0.819740 0.000000 1.6119787838914282e-38
31.504263 48.027412 113.702013 0.552365 0.833602 0.000000 1.6119787838914282e-38
30.825392 48.432991 113.799474 0.531659 0.846958 0.000000 1.6119787838914282e-38
29.229739 49.417679 113.952546 0.510631 0.859800 0.000000 1.6119787838914282e-38
28.072834 50.848680 114.252348 0.489293 0.872120 0.000000 1.6119787838914282e-38
26.663092 51.124505 114.168347 0.467658 0.883910 0.000000 1.6119787838914282e-38
25.182834 50.740720 113.870557 0.445738 0.895163 0.000000 1.6119787838914282e-38
24.264346 51.246991 113.844839 0.423549 0.905873 0.000000 1.6119787838914282e-38
23.030110 52.391584 114.280053 0.401102 0.916034 0.000000 1.6119787838914282e-38
21.646587 53.007152 113.806759 0.378411 0.925638 0.000000 1.6119787838914282e-38
19.989225 53.369802 112.961263 0.355491 0.934680 0.000000 1.6119787838914282e-38
19.185888 54.405891 113.891290 0.332355 0.943154 0.000000 1.6119787838914282e-38
17.791680 54.557353 114.256478 0.309017 0.951057 0.000000 1.6119787838914282e-38
16.332252 55.269842 114.040781 0.285492 0.958381 0.000000 1.6119787838914282e-38
14.601954 55.583996 113.467057 0.261793 0.965124 0.000000 1.6119787838914282e-38
43.191338 38.010773 115.028501 0.755383 0.655284 0.000000 1.6119787838914282e-38
42.903986 38.492341 114.576064 0.739009 0.673696 0.000000 1.6119787838914282e-38
41.510970 40.169552 114.862363 0.722186 0.691698 0.000000 1.6119787838914282e-38
40.662871 40.536904 115.334800 0.704926 0.709281 0.000000 1.6119787838914282e-38
39.363413 41.804758 114.951606 0.687237 0.726434 0.000000 1.6119787838914282e-38
38.207848 42.107323 114.661585 0.669131 0.743145 0.000000 1.6119787838914282e-38
37.286140 43.752686 115.607746 0.650618 0.759405 0.000000 1.6119787838914282e-38
36.127738 44.334419 114.654047 0.631711 0.775204 0.000000 1.6119787838914282e-38
35.432339 45.577371 115.185785 0.612420 0.790532 0.000000 1.6119787838914282e-38
34.149708 46.146814 115.459078 0.592758 0.805381 0.000000 1.6119787838914282e-38
32.663268 46.941409 114.746651 0.572735 0.819740 0.000000 1.6119787838914282e-38
31.687607 47.647130 114.862732 0.552365 0.833602 0.000000 1.6119787838914282e-38
30.177046 48.359332 114.568968 0.531659 0.846958 0.000000 1.6119787838914282e-38
29.436624 49.125783 115.534906 0.510631 0.859800 0.000000 1.6119787838914282e-38
28.387683 50.112962 115.222578 0.489293 0.872120 0.000000 1.6119787838914282e-38
27.118472 50.620772 114.990509 0.467658 0.883910 0.000000 1.6119787838914282e-38
25.925377 51.758463 114.820168 0.445738 0.895163 0.000000 1.6119787838914282e-38
25.016207 51.624998 114.365894 0.423549 0.905873 0.000000 1.6119787838914282e-38
23.554892 52.832969 115.107165 0.401102 0.916034 0.000000 1.6119787838914282e-38
21.977874 52.962288 114.530153 0.378411 0.925638 0.000000 1.6119787838914282e-38
20.283477 53.476176 114.755009 0.355491 0.934680 0.000000 1.6119787838914282e-38
18.908695 53.995502 114.909962 0.332355 0.943154 0.000000 1.6119787838914282e-38
17.863381 54.793328 115.141406 0.309017 0.951057 0.000000 1.6119787838914282e-38
15.635548 54.741490 114.750423 0.285492 0.958381 0.000000 1.6119787838914282e-38
15.395645 55.179441 114.482366 0.261793 0.965124 0.000000 1.6119787838914282e-38
43.475936 37.724930 115.785440 0.755383 0.655284 0.000000 1.6119787838914282e-38
42.176984 38.443474 116.442464 0.739009 0.673696 0.000000 1.6119787838914282e-38
41.719739 40.268823 116.006334 0.722186 0.691698 0.000000 1.6119787838914282e-38
41.036040 40.680499 116.312367 0.704926 0.709281 0.000000 1.6119787838914282e-38
39.456732 41.820263 116.497829 0.687237 0.726434 0.000000 1.6119787838914282e-38
38.762606 42.631221 116.315283 0.669131 0.743145 0.000000 1.6119787838914282e-38
37.114208 43.842266 116.368471 0.650618 0.759405 0.000000 1.6119787838914282e-38
36.067880 44.173786 116.336898 0.631711 0.775204 0.000000 1.6119787838914282e-38
35.584454 45.903497 115.900591 0.612420 0.790532 0.000000 1.6119787838914282e-38
34.342938 46.520162 116.704117 0.592758 0.805381 0.000000 1.6119787838914282e-38
33.054675 47.005768 116.524435 0.572735 0.819740 0.000000 1.6119787838914282e-38
30.968395 47.605183 116.027805 0.552365 0.833602 0.000000 1.6119787838914282e-38
30.349806 48.214112 116.119353 0.531659 0.846958 0.000000 1.6119787838914282e-38
29.177140 49.329022 116.373809 0.510631 0.859800 0.000000 1.6119787838914282e-38
27.741663 49.980188 116.261208 0.489293 0.872120 0.000000 1.6119787838914282e-38
26.317594 50.771440 116.360277 0.467658 0.883910 0.000000 1.6119787838914282e-38
25.841602 51.044258 116.243183 0.445738 0.895163 0.000000 1.6119787838914282e-38
24.710988 51.534906 116.286631 0.423549 0.905873 0.000000 1.6119787838914282e-38
22.592395 52.510669 116.047160 0.401102 0.916034 0.000000 1.6119787838914282e-38
21.857531 53.102850 115.905676 0.378411 0.925638 0.000000 1.6119787838914282e-38
20.885115 53.764438 116.584713 0.355491 0.934680 0.000000 1.6119787838914282e-38
18.770074 54.080068 116.588392 0.332355 0.943154 0.000000 1.6119787838914282e-38
17.532555 54.650584 116.269021 0.309017 0.951057 0.000000 1.6119787838914282e-38
15.696782 55.052390 116.163001 0.285492 0.958381 0.000000 1.6119787838914282e-38
14.994062 55.244650 115.901988 0.261793 0.965124 0.000000 1.6119787838914282e-38
43.070484 37.885898 117.705333 0.755383 0.655284 0.000000 1.6119787838914282e-38
42.315870 38.474007 117.703957 0.739009 0.673696 0.000000 1.6119787838914282e-38
41.505958 39.610762 117.667259 0.722186 0.691698 0.000000 1.6119787838914282e-38
41.009938 41.144418 117.564324 0.704926 0.709281 0.000000 1.6119787838914282e-38
38.491227 41.686864 117.224657 0.687237 0.726434 0.000000 1.6119787838914282e-38
38.403432 42.614368 117.431025 0.669131 0.743145 0.000000 1.6119787838914282e-38
37.723252 43.585521 117.444405 0.650618 0.759405 0.000000 1.6119787838914282e-38
36.456425 44.244784 117.424452 0.631711 0.775204 0.000000 1.6119787838914282e-38
34.793452 45.629986 117.595234 0.612420 0.790532 0.000000 1.6119787838914282e-38
34.694839 45.806632 117.816801 0.592758 0.805381 0.000000 1.6119787838914282e-38
32.397230 46.823441 116.882064 0.572735 0.819740 0.000000 1.6119787838914282e-38
31.773007 48.000830 117.429114 0.552365 0.833602 0.000000 1.6119787838914282e-38
29.906552 48.527018 117.564536 0.531659 0.846958 0.000000 1.6119787838914282e-38
29.078882 49.416498 117.849988 0.510631 0.859800 0.000000 1.6119787838914282e-38
27.954484 49.807023 117.501507 0.489293 0.872120 0.000000 1.6119787838914282e-38
27.427623 50.962430 117.072965 0.467658 0.883910 0.000000 1.6119787838914282e-38
26.029722 51.333571 117.455649 0.445738 0.895163 0.000000 1.6119787838914282e-38
23.960717 52.117972 116.939528 0.423549 0.905873 0.000000 1.6119787838914282e-38
22.719055 52.839908 117.563778 0.401102 0.916034 0.000000 1.6119787838914282e-38
21.526549 53.151401 117.734937 0.378411 0.925638 0.000000 1.6119787838914282e-38
20.550002 53.928024 117.169365 0.355491 0.934680 0.000000 1.6119787838914282e-38
18.892897 54.797162 117.406771 0.332355 0.943154 0.000000 1.6119787838914282e-38
17.625739 54.707611 117.591937 0.309017 0.951057 0.000000 1.6119787838914282e-38
16.112038 54.345074 117.429276 0.285492 0.958381 0.000000 1.6119787838914282e-38
15.043183 54.948685 117.605774 0.261793 0.965124 0.000000 1.6119787838914282e-38
44.279725 36.578964 118.533589 0.771298 0.636474 0.000000 1.6119787838914282e-38
43.369425 37.330474 118.750980 0.755383 0.655284 0.000000 1.6119787838914282e-38
42.481649 38.756623 118.930717 0.739009 0.673696 0.000000 1.6119787838914282e-38
42.065639 39.272313 118.651601 0.722186 0.691698 0.000000 1.6119787838914282e-38
40.256521 40.874388 118.975269 0.704926 0.709281 0.000000 1.6119787838914282e-38
39.149421 41.862519 119.022503 0.687237 0.726434 0.000000 1.6119787838914282e-38
38.599877 42.626604 118.965679 0.669131 0.743145 0.000000 1.6119787838914282e-38
37.331486 43.934446 118.868665 0.650618 0.759405 0.000000 1.6119787838914282e-38
36.264405 44.193804 118.768037 0.631711 0.775204 0.000000 1.6119787838914282e-38
34.890262 45.126394 118.658477 0.612420 0.790532 0.000000 1.6119787838914282e-38
34.058411 45.947912 118.713314 0.592758 0.805381 0.000000 1.6119787838914282e-38
32.858699 46.951905 118.685881 0.572735 0.819740 0.000000 1.6119787838914282e-38
31.952203 47.812557 118.937323 0.552365 0.833602 0.000000 1.6119787838914282e-38
30.544414 49.002308 119.006401 0.531659 0.846958 0.000000 1.6119787838914282e-38
29.295541 49.230872 118.908393 0.510631 0.859800 0.000000 1.6119787838914282e-38
27.975042 49.673264 118.983545 0.489293 0.872120 0.000000 1.6119787838914282e-38
26.704809 50.200287 118.739962 0.467658 0.883910 0.000000 1.6119787838914282e-38
25.909017 51.291459 118.658478 0.445738 0.895163 0.000000 1.6119787838914282e-38
24.501970 51.947652 118.731729 0.423549 0.905873 0.000000 1.6119787838914282e-38
23.330275 52.871576 118.830759 0.401102 0.916034 0.000000 1.6119787838914282e-38
21.257039 53.395750 118.644336 0.378411 0.925638 0.000000 1.6119787838914282e-38
20.586213 53.285356 119.044201 0.355491 0.934680 0.000000 1.6119787838914282e-38
18.856953 54.356981 119.042857 0.332355 0.943154 0.000000 1.6119787838914282e-38
17.884487 54.797858 118.789361 0.309017 0.951057 0.000000 1.6119787838914282e-38
16.048713 55.500781 119.091534 0.285492 0.958381 0.000000 1.6119787838914282e-38
44.385132 36.591988 119.666163 0.771298 0.636474 0.000000 1.6119787838914282e-38
43.191774 37.398133 119.794304 0.755383 0.655284 0.000000 1.6119787838914282e-38
42.352636 38.651955 120.209844 0.739009 0.673696 0.000000 1.6119787838914282e-38
41.518175 40.309107 120.189089 0.722186 0.691698 0.000000 1.6119787838914282e-38
40.321261 40.919323 120.045370 0.704926 0.709281 0.000000 1.6119787838914282e-38
39.935060 42.016308 120.020326 0.687237 0.726434 0.000000 1.6119787838914282e-38
38.999586 42.898019 120.180358 0.669131 0.743145 0.000000 1.6119787838914282e-38
37.861494 43.922820 120.064785 0.650618 0.759405 0.000000 1.6119787838914282e-38
36.300004 43.968507 119.446288 0.631711 0.775204 0.000000 1.6119787838914282e-38
35.178941 45.289038 120.005647 0.612420 0.790532 0.000000 1.6119787838914282e-38
34.388680 46.077622 119.527098 0.592758 0.805381 0.000000 1.6119787838914282e-38
32.542528 46.839824 119.657954 0.572735 0.819740 0.000000 1.6119787838914282e-38
31.773946 48.393838 120.184448 0.552365 0.833602 0.000000 1.6119787838914282e-38
30.777055 48.765839 119.628366 0.531659 0.846958 0.000000 1.6119787838914282e-38
30.033493 49.343104 120.232783 0.510631 0.859800 0.000000 1.6119787838914282e-38
27.462963 50.120164 119.948436 0.489293 0.872120 0.000000 1.6119787838914282e-38
26.810176 50.404363 120.059498 0.467658 0.883910 0.000000 1.6119787838914282e-38
25.995912 52.101834 120.494652 0.445738 0.895163 0.000000 1.6119787838914282e-38
24.733422 52.600380 120.547802 0.423549 0.905873 0.000000 1.6119787838914282e-38
22.786233 52.747420 119.617065 0.401102 0.916034 0.000000 1.6119787838914282e-38
21.920226 53.150340 119.953623 0.378411 0.925638 0.000000 1.6119787838914282e-38
20.358640 52.995398 119.427334 0.355491 0.934680 0.000000 1.6119787838914282e-38
19.367153 54.029238 120.306869 0.332355 0.943154 0.000000 1.6119787838914282e-38
17.720107 54.209906 119.579828 0.309017 0.951057 0.000000 1.6119787838914282e-38
16.214277 54.828618 119.973468 0.285492 0.958381 0.000000 1.6119787838914282e-38
