# .PCD v0.7 - Point Cloud Data file format
VERSION 0.7
FIELDS x y z normal_x normal_y normal_z rgb
SIZE 4 4 4 4 4 4 4
TYPE F F F F F F F
COUNT 1 1 1 1 1 1 1
WIDTH 294
HEIGHT 1
VIEWPOINT 0 0 0 1 0 0 0
POINTS 294
DATA ascii
33.917231 26.944763 14.236612 0.771298 0.636474 0.000000 1.5197831540281055e-38
33.440195 27.563234 16.262329 0.771298 0.636474 0.000000 1.5197831540281055e-38
32.763845 28.905096 15.858117 0.755383 0.655284 0.000000 1.5197831540281055e-38
31.406111 28.758177 15.871379 0.739009 0.673696 0.000000 1.5197831540281055e-38
33.517962 26.723765 17.338852 0.786745 0.617278 0.000000 1.5197831540281055e-38
33.923397 27.161792 17.205126 0.771298 0.636474 0.000000 1.5197831540281055e-38
32.397735 28.035855 17.657808 0.755383 0.655284 0.000000 1.5197831540281055e-38
31.975941 28.975963 17.164234 0.739009 0.673696 0.000000 1.5197831540281055e-38
31.071274 29.779255 16.940254 0.722186 0.691698 0.000000 1.5197831540281055e-38
30.415953 30.574231 17.092249 0.704926 0.709281 0.000000 1.5197831540281055e-38
34.911536 25.726351 18.161655 0.801714 0.597707 0.000000 1.5197831540281055e-38
34.463700 26.634703 18.562236 0.786745 0.617278 0.000000 1.5197831540281055e-38
33.266446 27.985504 18.812654 0.771298 0.636474 0.000000 1.5197831540281055e-38
32.687053 28.064239 18.452622 0.755383 0.655284 0.000000 1.5197831540281055e-38
32.220225 29.273278 18.589430 0.739009 0.673696 0.000000 1.5197831540281055e-38
31.383135 30.225067 18.544143 0.722186 0.691698 0.000000 1.5197831540281055e-38
30.706063 30.463883 19.322856 0.704926 0.709281 0.000000 1.5197831540281055e-38
29.718774 31.564892 18.726641 0.687237 0.726434 0.000000 1.5197831540281055e-38
28.895474 32.230892 18.555404 0.669131 0.743145 0.000000 1.5197831540281055e-38
34.574685 26.350702 19.684963 0.801714 0.597707 0.000000 1.5197831540281055e-38
34.639161 26.845958 19.988343 0.786745 0.617278 0.000000 1.5197831540281055e-38
33.706944 27.429585 19.903975 0.771298 0.636474 0.000000 1.5197831540281055e-38
33.426063 28.570280 20.064197 0.755383 0.655284 0.000000 1.5197831540281055e-38
32.343535 29.387542 19.849758 0.739009 0.673696 0.000000 1.5197831540281055e-38
31.568228 30.307258 19.388165 0.722186 0.691698 0.000000 1.5197831540281055e-38
30.727640 30.787635 19.676356 0.704926 0.709281 0.000000 1.5197831540281055e-38
30.273044 31.368775 19.375384 0.687237 0.726434 0.000000 1.5197831540281055e-38
29.335633 31.889283 19.215432 0.669131 0.743145 0.000000 1.5197831540281055e-38
28.564397 33.070083 19.935630 0.650618 0.759405 0.000000 1.5197831540281055e-38
36.274460 25.115035 21.108041 0.816197 0.577774 0.000000 1.5197831540281055e-38
35.533001 25.610873 20.539603 0.801714 0.597707 0.000000 1.5197831540281055e-38
34.070015 27.162511 20.547972 0.786745 0.617278 0.000000 1.5197831540281055e-38
33.814165 27.913618 21.635245 0.771298 0.636474 0.000000 1.5197831540281055e-38
33.254658 28.685078 21.438668 0.755383 0.655284 0.000000 1.5197831540281055e-38
32.388648 29.240750 20.687546 0.739009 0.673696 0.000000 1.5197831540281055e-38
31.322567 30.151822 21.083433 0.722186 0.691698 0.000000 1.5197831540281055e-38
30.100098 30.864736 21.039502 0.704926 0.709281 0.000000 1.5197831540281055e-38
30.133536 32.166627 21.086624 0.687237 0.726434 0.000000 1.5197831540281055e-38
28.906829 31.861914 21.237031 0.669131 0.743145 0.000000 1.5197831540281055e-38
28.111680 33.376465 21.450154 0.650618 0.759405 0.000000 1.5197831540281055e-38
27.084667 33.971553 21.418715 0.631711 0.775204 0.000000 1.5197831540281055e-38
27.012361 33.844919 20.774832 0.612420 0.790532 0.000000 1.5197831540281055e-38
35.979680 25.512630 22.177921 0.816197 0.577774 0.000000 1.5197831540281055e-38
34.901459 26.357917 21.929184 0.801714 0.597707 0.000000 1.5197831540281055e-38
34.548572 27.110758 22.185664 0.786745 0.617278 0.000000 1.5197831540281055e-38
33.854943 27.869241 22.417267 0.771298 0.636474 0.000000 1.5197831540281055e-38
32.639296 28.845673 22.576022 0.755383 0.655284 0.000000 1.5197831540281055e-38
32.419641 29.646997 22.235065 0.739009 0.673696 0.000000 1.5197831540281055e-38
31.854961 30.273627 21.923659 0.722186 0.691698 0.000000 1.5197831540281055e-38
31.078655 30.532862 22.352875 0.704926 0.709281 0.000000 1.5197831540281055e-38
29.943634 31.638888 22.319638 0.687237 0.726434 0.000000 1.5197831540281055e-38
29.054176 32.657917 22.285080 0.669131 0.743145 0.000000 1.5197831540281055e-38
28.272069 33.616906 22.329476 0.650618 0.759405 0.000000 1.5197831540281055e-38
27.819515 34.331460 22.688095 0.631711 0.775204 0.000000 1.5197831540281055e-38
26.960454 34.486133 21.839130 0.612420 0.790532 0.000000 1.5197831540281055e-38
25.988507 35.554762 22.374336 0.592758 0.805381 0.000000 1.5197831540281055e-38
36.725628 24.559910 23.346352 0.830184 0.557489 0.000000 1.5197831540281055e-38
35.727557 25.654970 23.177601 0.816197 0.577774 0.000000 1.5197831540281055e-38
34.892539 26.405353 23.373412 0.801714 0.597707 0.000000 1.5197831540281055e-38
34.083124 27.488804 23.175275 0.786745 0.617278 0.000000 1.5197831540281055e-38
33.781465 27.739943 23.415850 0.771298 0.636474 0.000000 1.5197831540281055e-38
32.877615 28.965369 23.538402 0.755383 0.655284 0.000000 1.5197831540281055e-38
32.719683 29.376166 24.145061 0.739009 0.673696 0.000000 1.5197831540281055e-38
31.115094 29.873263 24.031080 0.722186 0.691698 0.000000 1.5197831540281055e-38
31.071365 31.222681 23.634537 0.704926 0.709281 0.000000 1.5197831540281055e-38
30.324403 31.962765 23.215383 0.687237 0.726434 0.000000 1.5197831540281055e-38
29.604080 32.804257 23.933684 0.669131 0.743145 0.000000 1.5197831540281055e-38
29.075653 33.418620 23.136890 0.650618 0.759405 0.000000 1.5197831540281055e-38
28.248565 33.707228 23.606544 0.631711 0.775204 0.000000 1.5197831540281055e-38
26.793389 34.556033 23.734445 0.612420 0.790532 0.000000 1.5197831540281055e-38
26.081036 35.490682 23.260449 0.592758 0.805381 0.000000 1.5197831540281055e-38
37.065070 23.878467 24.966675 0.843667 0.536867 0.000000 1.5197831540281055e-38
36.494391 24.398740 25.222012 0.830184 0.557489 0.000000 1.5197831540281055e-38
36.105117 25.315787 24.546343 0.816197 0.577774 0.000000 1.5197831540281055e-38
35.598274 26.345212 24.693202 0.801714 0.597707 0.000000 1.5197831540281055e-38
34.666359 27.273420 24.725261 0.786745 0.617278 0.000000 1.5197831540281055e-38
34.313009 28.394875 24.901834 0.771298 0.636474 0.000000 1.5197831540281055e-38
33.663743 28.847606 24.949367 0.755383 0.655284 0.000000 1.5197831540281055e-38
32.831903 29.961241 25.017068 0.739009 0.673696 0.000000 1.5197831540281055e-38
31.979411 31.035136 24.580359 0.722186 0.691698 0.000000 1.5197831540281055e-38
30.983678 31.157628 24.631848 0.704926 0.709281 0.000000 1.5197831540281055e-38
29.654963 32.389469 24.434456 0.687237 0.726434 0.000000 1.5197831540281055e-38
29.505524 32.286067 24.928483 0.669131 0.743145 0.000000 1.5197831540281055e-38
28.404065 33.087592 24.800571 0.650618 0.759405 0.000000 1.5197831540281055e-38
27.597179 33.951595 24.793805 0.631711 0.775204 0.000000 1.5197831540281055e-38
27.198231 34.553068 24.444910 0.612420 0.790532 0.000000 1.5197831540281055e-38
26.099748 35.613983 25.181095 0.592758 0.805381 0.000000 1.5197831540281055e-38
37.022008 23.520507 26.064350 0.843667 0.536867 0.000000 1.5197831540281055e-38
36.981545 24.777766 26.204493 0.830184 0.557489 0.000000 1.5197831540281055e-38
35.970500 25.700511 25.934869 0.816197 0.577774 0.000000 1.5197831540281055e-38
35.278363 26.969186 25.280239 0.801714 0.597707 0.000000 1.5197831540281055e-38
34.187634 27.379284 25.899887 0.786745 0.617278 0.000000 1.5197831540281055e-38
33.636255 27.795957 25.702060 0.771298 0.636474 0.000000 1.5197831540281055e-38
33.632094 29.306863 26.471250 0.755383 0.655284 0.000000 1.5197831540281055e-38
32.164477 29.346230 25.548694 0.739009 0.673696 0.000000 1.5197831540281055e-38
32.284808 30.676698 26.003441 0.722186 0.691698 0.000000 1.5197831540281055e-38
31.204645 31.311112 25.643039 0.704926 0.709281 0.000000 1.5197831540281055e-38
30.508412 32.029900 25.619285 0.687237 0.726434 0.000000 1.5197831540281055e-38
29.727021 32.696122 26.047626 0.669131 0.743145 0.000000 1.5197831540281055e-38
28.699574 33.809462 26.045430 0.650618 0.759405 0.000000 1.5197831540281055e-38
27.636844 34.336476 26.085788 0.631711 0.775204 0.000000 1.5197831540281055e-38
27.203301 35.227676 25.794587 0.612420 0.790532 0.000000 1.5197831540281055e-38
26.381807 35.055311 25.943386 0.592758 0.805381 0.000000 1.5197831540281055e-38
38.106535 22.839934 27.132614 0.856638 0.515918 0.000000 1.5197831540281055e-38
37.628987 24.136182 27.196040 0.843667 0.536867 0.000000 1.5197831540281055e-38
37.419383 24.651331 26.798292 0.830184 0.557489 0.000000 1.5197831540281055e-38
35.661189 25.103292 27.092351 0.816197 0.577774 0.000000 1.5197831540281055e-38
35.466103 26.697956 27.207912 0.801714 0.597707 0.000000 1.5197831540281055e-38
35.125208 27.374111 27.220551 0.786745 0.617278 0.000000 1.5197831540281055e-38
34.014261 28.638277 26.757050 0.771298 0.636474 0.000000 1.5197831540281055e-38
33.572471 28.990735 27.451021 0.755383 0.655284 0.000000 1.5197831540281055e-38
32.750066 29.863919 27.136503 0.739009 0.673696 0.000000 1.5197831540281055e-38
32.428641 30.660016 27.807390 0.722186 0.691698 0.000000 1.5197831540281055e-38
31.327255 31.445176 27.172897 0.704926 0.709281 0.000000 1.5197831540281055e-38
30.630802 32.022399 27.260218 0.687237 0.726434 0.000000 1.5197831540281055e-38
29.661424 33.037211 27.321504 0.669131 0.743145 0.000000 1.5197831540281055e-38
28.959029 33.688832 27.687178 0.650618 0.759405 0.000000 1.5197831540281055e-38
28.127142 35.142444 27.231450 0.631711 0.775204 0.000000 1.5197831540281055e-38
27.432988 34.822261 27.636732 0.612420 0.790532 0.000000 1.5197831540281055e-38
26.062490 35.834994 27.137167 0.592758 0.805381 0.000000 1.5197831540281055e-38
38.746232 22.432380 28.793566 0.869089 0.494656 0.000000 1.5197831540281055e-38
38.557751 23.361916 28.922493 0.856638 0.515918 0.000000 1.5197831540281055e-38
37.185773 24.077491 28.819104 0.843667 0.536867 0.000000 1.5197831540281055e-38
37.351609 24.569484 28.650822 0.830184 0.557489 0.000000 1.5197831540281055e-38
36.332225 26.257197 28.037421 0.816197 0.577774 0.000000 1.5197831540281055e-38
35.434597 26.046664 28.496993 0.801714 0.597707 0.000000 1.5197831540281055e-38
35.678604 27.447185 28.483918 0.786745 0.617278 0.000000 1.5197831540281055e-38
34.477343 28.279562 28.563416 0.771298 0.636474 0.000000 1.5197831540281055e-38
33.721924 28.897554 28.425394 0.755383 0.655284 0.000000 1.5197831540281055e-38
33.098428 30.248868 28.843159 0.739009 0.673696 0.000000 1.5197831540281055e-38
32.228108 30.877911 28.678664 0.722186 0.691698 0.000000 1.5197831540281055e-38
31.181170 31.362640 28.416169 0.704926 0.709281 0.000000 1.5197831540281055e-38
30.190182 32.438486 28.768333 0.687237 0.726434 0.000000 1.5197831540281055e-38
29.554200 33.190384 28.264869 0.669131 0.743145 0.000000 1.5197831540281055e-38
28.638695 34.399861 28.152938 0.650618 0.759405 0.000000 1.5197831540281055e-38
27.718754 34.550450 28.534165 0.631711 0.775204 0.000000 1.5197831540281055e-38
27.444541 35.768311 28.220469 0.612420 0.790532 0.000000 1.5197831540281055e-38
26.196122 36.311141 28.735345 0.592758 0.805381 0.000000 1.5197831540281055e-38
38.784395 21.722265 29.930985 0.869089 0.494656 0.000000 1.5197831540281055e-38
38.020457 22.461603 29.846653 0.856638 0.515918 0.000000 1.5197831540281055e-38
37.398071 24.069562 29.446915 0.843667 0.536867 0.000000 1.5197831540281055e-38
37.283144 24.949146 28.913959 0.830184 0.557489 0.000000 1.5197831540281055e-38
36.561006 25.712955 30.115737 0.816197 0.577774 0.000000 1.5197831540281055e-38
35.918258 26.916836 29.477559 0.801714 0.597707 0.000000 1.5197831540281055e-38
34.894236 27.556206 29.582537 0.786745 0.617278 0.000000 1.5197831540281055e-38
34.842890 28.375082 29.323275 0.771298 0.636474 0.000000 1.5197831540281055e-38
33.482536 29.550517 29.640544 0.755383 0.655284 0.000000 1.5197831540281055e-38
32.933441 30.401217 29.416293 0.739009 0.673696 0.000000 1.5197831540281055e-38
31.577913 30.631196 29.763348 0.722186 0.691698 0.000000 1.5197831540281055e-38
31.402845 31.204071 29.995540 0.704926 0.709281 0.000000 1.5197831540281055e-38
30.736870 32.554821 29.816605 0.687237 0.726434 0.000000 1.5197831540281055e-38
29.489756 33.275203 29.962958 0.669131 0.743145 0.000000 1.5197831540281055e-38
29.394759 34.126795 29.844661 0.650618 0.759405 0.000000 1.5197831540281055e-38
27.687155 34.611426 29.403749 0.631711 0.775204 0.000000 1.5197831540281055e-38
27.731621 35.639495 29.405563 0.612420 0.790532 0.000000 1.5197831540281055e-38
26.455165 36.037979 29.960959 0.592758 0.805381 0.000000 1.5197831540281055e-38
39.429306 21.541425 30.680728 0.881012 0.473094 0.000000 1.5197831540281055e-38
39.137476 22.202340 31.525805 0.869089 0.494656 0.000000 1.5197831540281055e-38
38.517652 22.917618 31.148746 0.856638 0.515918 0.000000 1.5197831540281055e-38
38.050134 23.947054 30.578636 0.843667 0.536867 0.000000 1.5197831540281055e-38
37.375530 25.009674 30.472870 0.830184 0.557489 0.000000 1.5197831540281055e-38
36.664074 25.708811 30.473154 0.816197 0.577774 0.000000 1.5197831540281055e-38
35.832869 27.178351 31.290254 0.801714 0.597707 0.000000 1.5197831540281055e-38
35.551497 27.751545 31.106574 0.786745 0.617278 0.000000 1.5197831540281055e-38
34.604622 28.199761 30.656184 0.771298 0.636474 0.000000 1.5197831540281055e-38
33.679442 29.794864 31.250842 0.755383 0.655284 0.000000 1.5197831540281055e-38
32.803642 30.215820 30.807053 0.739009 0.673696 0.000000 1.5197831540281055e-38
32.326974 30.846003 31.349543 0.722186 0.691698 0.000000 1.5197831540281055e-38
31.594076 31.859851 30.995113 0.704926 0.709281 0.000000 1.5197831540281055e-38
30.498477 32.596456 31.246530 0.687237 0.726434 0.000000 1.5197831540281055e-38
30.436973 32.968662 30.472255 0.669131 0.743145 0.000000 1.5197831540281055e-38
29.183954 34.374655 31.035714 0.650618 0.759405 0.000000 1.5197831540281055e-38
28.521843 34.342049 30.756239 0.631711 0.775204 0.000000 1.5197831540281055e-38
26.794171 35.394507 30.278569 0.612420 0.790532 0.000000 1.5197831540281055e-38
26.971386 36.569315 30.970028 0.592758 0.805381 0.000000 1.5197831540281055e-38
39.627259 21.183775 32.427421 0.881012 0.473094 0.000000 1.5197831540281055e-38
39.273841 22.681115 32.313367 0.869089 0.494656 0.000000 1.5197831540281055e-38
38.494259 23.404240 31.570765 0.856638 0.515918 0.000000 1.5197831540281055e-38
38.600880 24.244337 32.820285 0.843667 0.536867 0.000000 1.5197831540281055e-38
37.102157 24.754873 32.274698 0.830184 0.557489 0.000000 1.5197831540281055e-38
36.842221 26.104552 32.220696 0.816197 0.577774 0.000000 1.5197831540281055e-38
35.893226 26.454597 32.249894 0.801714 0.597707 0.000000 1.5197831540281055e-38
35.023179 27.367897 32.050759 0.786745 0.617278 0.000000 1.5197831540281055e-38
34.841953 29.241255 32.458726 0.771298 0.636474 0.000000 1.5197831540281055e-38
34.426446 29.687565 32.275005 0.755383 0.655284 0.000000 1.5197831540281055e-38
34.011303 29.923244 32.040979 0.739009 0.673696 0.000000 1.5197831540281055e-38
32.401906 31.398395 31.871315 0.722186 0.691698 0.000000 1.5197831540281055e-38
31.954651 32.095551 32.408953 0.704926 0.709281 0.000000 1.5197831540281055e-38
31.168091 33.155101 32.150186 0.687237 0.726434 0.000000 1.5197831540281055e-38
30.273696 33.224741 31.875510 0.669131 0.743145 0.000000 1.5197831540281055e-38
29.810939 33.933865 32.357342 0.650618 0.759405 0.000000 1.5197831540281055e-38
28.589868 35.241042 31.667488 0.631711 0.775204 0.000000 1.5197831540281055e-38
27.829723 35.561004 31.984976 0.612420 0.790532 0.000000 1.5197831540281055e-38
40.067863 20.319372 33.303936 0.892401 0.451244 0.000000 1.5197831540281055e-38
40.046147 21.595738 33.236037 0.881012 0.473094 0.000000 1.5197831540281055e-38
39.258664 22.436080 33.529455 0.869089 0.494656 0.000000 1.5197831540281055e-38
39.206773 23.305593 33.752685 0.856638 0.515918 0.000000 1.5197831540281055e-38
37.776820 24.069398 32.761315 0.843667 0.536867 0.000000 1.5197831540281055e-38
37.560942 25.386892 32.635446 0.830184 0.557489 0.000000 1.5197831540281055e-38
36.939966 26.290538 33.566233 0.816197 0.577774 0.000000 1.5197831540281055e-38
35.870260 27.242000 33.404853 0.801714 0.597707 0.000000 1.5197831540281055e-38
35.729873 27.856699 33.516373 0.786745 0.617278 0.000000 1.5197831540281055e-38
35.187292 28.700707 33.487293 0.771298 0.636474 0.000000 1.5197831540281055e-38
34.510252 29.571940 33.064443 0.755383 0.655284 0.000000 1.5197831540281055e-38
33.598211 30.874391 33.788697 0.739009 0.673696 0.000000 1.5197831540281055e-38
32.849696 30.554217 33.211312 0.722186 0.691698 0.000000 1.5197831540281055e-38
31.679809 32.065484 33.908541 0.704926 0.709281 0.000000 1.5197831540281055e-38
30.731677 33.499786 33.287363 0.687237 0.726434 0.000000 1.5197831540281055e-38
30.007566 33.835859 33.679353 0.669131 0.743145 0.000000 1.5197831540281055e-38
29.596060 34.086245 33.552670 0.650618 0.759405 0.000000 1.5197831540281055e-38
28.236598 34.791859 33.373601 0.631711 0.775204 0.000000 1.5197831540281055e-38
40.512332 20.943708 35.514531 0.892401 0.451244 0.000000 1.5197831540281055e-38
39.940987 21.293416 34.342352 0.881012 0.473094 0.000000 1.5197831540281055e-38
38.773695 22.821078 34.533127 0.869089 0.494656 0.000000 1.5197831540281055e-38
39.135375 23.734403 34.314884 0.856638 0.515918 0.000000 1.5197831540281055e-38
38.004925 24.885492 34.618156 0.843667 0.536867 0.000000 1.5197831540281055e-38
37.474243 24.984364 34.596739 0.830184 0.557489 0.000000 1.5197831540281055e-38
37.489986 26.424018 34.693704 0.816197 0.577774 0.000000 1.5197831540281055e-38
36.856977 27.541673 34.739412 0.801714 0.597707 0.000000 1.5197831540281055e-38
36.533973 27.936801 34.968584 0.786745 0.617278 0.000000 1.5197831540281055e-38
34.882281 29.152965 34.564659 0.771298 0.636474 0.000000 1.5197831540281055e-38
34.416385 30.452699 34.924731 0.755383 0.655284 0.000000 1.5197831540281055e-38
33.678011 30.338743 34.695644 0.739009 0.673696 0.000000 1.5197831540281055e-38
32.469183 31.654183 34.897739 0.722186 0.691698 0.000000 1.5197831540281055e-38
31.934423 32.685030 35.096044 0.704926 0.709281 0.000000 1.5197831540281055e-38
31.230517 33.133964 34.462638 0.687237 0.726434 0.000000 1.5197831540281055e-38
30.282346 33.399236 34.495674 0.669131 0.743145 0.000000 1.5197831540281055e-38
29.492627 33.962384 34.812219 0.650618 0.759405 0.000000 1.5197831540281055e-38
28.972602 35.175053 33.830003 0.631711 0.775204 0.000000 1.5197831540281055e-38
40.006975 21.423972 35.948226 0.881012 0.473094 0.000000 1.5197831540281055e-38
40.188651 22.558892 35.299491 0.869089 0.494656 0.000000 1.5197831540281055e-38
38.764523 23.590084 35.904187 0.856638 0.515918 0.000000 1.5197831540281055e-38
38.934921 24.754098 36.155323 0.843667 0.536867 0.000000 1.5197831540281055e-38
37.767992 25.735635 35.607512 0.830184 0.557489 0.000000 1.5197831540281055e-38
37.486199 26.245573 35.441891 0.816197 0.577774 0.000000 1.5197831540281055e-38
36.713680 27.657977 35.754308 0.801714 0.597707 0.000000 1.5197831540281055e-38
36.322355 27.633810 35.517251 0.786745 0.617278 0.000000 1.5197831540281055e-38
35.105559 28.894163 35.676149 0.771298 0.636474 0.000000 1.5197831540281055e-38
34.464392 29.704007 35.768596 0.755383 0.655284 0.000000 1.5197831540281055e-38
33.761629 30.501385 35.844483 0.739009 0.673696 0.000000 1.5197831540281055e-38
32.717806 31.160383 36.105399 0.722186 0.691698 0.000000 1.5197831540281055e-38
32.637193 32.642727 35.975803 0.704926 0.709281 0.000000 1.5197831540281055e-38
31.126279 33.018942 36.193395 0.687237 0.726434 0.000000 1.5197831540281055e-38
29.809162 33.757605 36.096523 0.669131 0.743145 0.000000 1.5197831540281055e-38
29.308481 34.734604 35.989385 0.650618 0.759405 0.000000 1.5197831540281055e-38
39.719221 22.634050 37.826503 0.869089 0.494656 0.000000 1.5197831540281055e-38
39.469322 23.891755 37.929559 0.856638 0.515918 0.000000 1.5197831540281055e-38
38.730289 24.608469 36.909640 0.843667 0.536867 0.000000 1.5197831540281055e-38
37.862025 24.902340 37.350529 0.830184 0.557489 0.000000 1.5197831540281055e-38
36.977519 26.715715 37.100494 0.816197 0.577774 0.000000 1.5197831540281055e-38
36.733139 27.344553 37.529224 0.801714 0.597707 0.000000 1.5197831540281055e-38
36.372402 28.244356 36.843701 0.786745 0.617278 0.000000 1.5197831540281055e-38
35.579723 28.839258 36.646944 0.771298 0.636474 0.000000 1.5197831540281055e-38
34.723616 30.358100 36.991877 0.755383 0.655284 0.000000 1.5197831540281055e-38
33.946032 30.710565 37.330000 0.739009 0.673696 0.000000 1.5197831540281055e-38
33.383215 31.580401 36.805121 0.722186 0.691698 0.000000 1.5197831540281055e-38
31.827560 32.741741 36.772432 0.704926 0.709281 0.000000 1.5197831540281055e-38
31.566652 33.482321 36.963011 0.687237 0.726434 0.000000 1.5197831540281055e-38
30.576460 34.313691 36.870944 0.669131 0.743145 0.000000 1.5197831540281055e-38
39.459170 23.689438 38.289479 0.856638 0.515918 0.000000 1.5197831540281055e-38
38.582216 24.955880 38.454156 0.843667 0.536867 0.000000 1.5197831540281055e-38
38.239497 26.244752 38.492655 0.830184 0.557489 0.000000 1.5197831540281055e-38
37.883250 26.643933 38.244566 0.816197 0.577774 0.000000 1.5197831540281055e-38
36.539549 27.550881 37.551469 0.801714 0.597707 0.000000 1.5197831540281055e-38
36.250843 28.472812 38.285245 0.786745 0.617278 0.000000 1.5197831540281055e-38
35.431247 28.885342 38.766197 0.771298 0.636474 0.000000 1.5197831540281055e-38
34.626110 29.833801 38.513914 0.755383 0.655284 0.000000 1.5197831540281055e-38
34.007757 30.864376 38.211305 0.739009 0.673696 0.000000 1.5197831540281055e-38
33.199457 32.203265 38.491379 0.722186 0.691698 0.000000 1.5197831540281055e-38
32.397289 32.863590 38.358775 0.704926 0.709281 0.000000 1.5197831540281055e-38
31.714866 33.441741 38.527450 0.687237 0.726434 0.000000 1.5197831540281055e-38
30.628764 33.822868 38.622570 0.669131 0.743145 0.000000 1.5197831540281055e-38
38.680970 24.944871 39.763978 0.843667 0.536867 0.000000 1.5197831540281055e-38
38.268036 25.934397 39.929598 0.830184 0.557489 0.000000 1.5197831540281055e-38
37.642683 26.280505 40.015301 0.816197 0.577774 0.000000 1.5197831540281055e-38
37.271853 27.771316 39.380339 0.801714 0.597707 0.000000 1.5197831540281055e-38
36.627590 29.118697 39.551236 0.786745 0.617278 0.000000 1.5197831540281055e-38
35.646964 29.072886 39.371766 0.771298 0.636474 0.000000 1.5197831540281055e-38
34.561278 30.300320 39.485395 0.755383 0.655284 0.000000 1.5197831540281055e-38
34.239345 30.843761 39.537362 0.739009 0.673696 0.000000 1.5197831540281055e-38
33.064581 31.998974 39.097932 0.722186 0.691698 0.000000 1.5197831540281055e-38
32.599005 32.671062 39.641918 0.704926 0.709281 0.000000 1.5197831540281055e-38
31.240978 33.743189 39.498006 0.687237 0.726434 0.000000 1.5197831540281055e-38
38.679914 25.716644 40.370207 0.830184 0.557489 0.000000 1.5197831540281055e-38
38.437019 26.538243 40.383097 0.816197 0.577774 0.000000 1.5197831540281055e-38
37.277927 27.707956 41.270599 0.801714 0.597707 0.000000 1.5197831540281055e-38
36.383811 28.525232 40.925311 0.786745 0.617278 0.000000 1.5197831540281055e-38
35.841220 29.595755 40.906328 0.771298 0.636474 0.000000 1.5197831540281055e-38
35.092425 30.274397 41.074546 0.755383 0.655284 0.000000 1.5197831540281055e-38
34.175471 31.494791 41.241071 0.739009 0.673696 0.000000 1.5197831540281055e-38
38.022687 27.098377 42.132310 0.816197 0.577774 0.000000 1.5197831540281055e-38
37.099210 28.383078 42.032211 0.801714 0.597707 0.000000 1.5197831540281055e-38
36.725067 28.570215 42.393808 0.786745 0.617278 0.000000 1.5197831540281055e-38
36.118588 29.757852 41.716359 0.771298 0.636474 0.000000 1.5197831540281055e-38
