# .PCD v0.7 - Point Cloud Data file format
VERSION 0.7
FIELDS x y z normal_x normal_y normal_z rgb
SIZE 4 4 4 4 4 4 4
TYPE F F F F F F F
COUNT 1 1 1 1 1 1 1
WIDTH 220
HEIGHT 1
VIEWPOINT 0 0 0 1 0 0 0
POINTS 220
DATA ascii
-25.229127 4.324228 8.042188 -0.986948 0.159435 -0.022677 1.5843200949324314e-38
-24.749259 2.740469 7.605348 -0.990576 0.135071 -0.022677 1.5843200949324314e-38
-24.476133 4.145915 8.705484 -0.976525 0.157751 -0.146677 1.5843200949324314e-38
-24.638992 3.397300 9.613753 -0.980115 0.133644 -0.146677 1.5843200949324314e-38
-24.908795 2.836895 8.146653 -0.983110 0.109456 -0.146677 1.5843200949324314e-38
-25.178110 2.506872 8.259157 -0.985508 0.085201 -0.146677 1.5843200949324314e-38
-24.526804 4.244328 9.728817 -0.952585 0.153884 -0.262492 1.5843200949324314e-38
-25.156550 3.418943 9.666521 -0.956087 0.130368 -0.262492 1.5843200949324314e-38
-25.443598 3.110266 9.770972 -0.959009 0.106773 -0.262492 1.5843200949324314e-38
-25.602774 2.172134 9.932310 -0.961348 0.083113 -0.262492 1.5843200949324314e-38
-25.912339 1.549493 10.157301 -0.963104 0.059402 -0.262492 1.5843200949324314e-38
-25.215950 1.606348 10.272240 -0.964275 0.035656 -0.262492 1.5843200949324314e-38
-24.932038 1.152559 10.124354 -0.964861 0.011888 -0.262492 1.5843200949324314e-38
-25.178180 3.960899 10.843335 -0.918985 0.148456 -0.365277 1.5843200949324314e-38
-25.685940 3.193277 11.103657 -0.922364 0.125769 -0.365277 1.5843200949324314e-38
-25.591116 2.760829 11.636328 -0.925182 0.103006 -0.365277 1.5843200949324314e-38
-25.900068 2.637942 10.821649 -0.927439 0.080181 -0.365277 1.5843200949324314e-38
-25.709325 1.941975 11.473428 -0.929133 0.057307 -0.365277 1.5843200949324314e-38
-25.888526 1.119133 11.260374 -0.930263 0.034398 -0.365277 1.5843200949324314e-38
-25.940080 0.502386 11.692768 -0.930828 0.011468 -0.365277 1.5843200949324314e-38
-25.636588 -0.147695 11.335667 -0.930828 -0.011468 -0.365277 1.5843200949324314e-38
-26.200741 -0.814544 10.828993 -0.930263 -0.034398 -0.365277 1.5843200949324314e-38
-26.368373 3.945300 12.717554 -0.880194 0.142189 -0.452813 1.5843200949324314e-38
-25.919635 3.903094 12.839052 -0.883430 0.120461 -0.452813 1.5843200949324314e-38
-26.407609 3.364006 11.931482 -0.886130 0.098659 -0.452813 1.5843200949324314e-38
-26.015783 2.120524 12.092044 -0.888292 0.076797 -0.452813 1.5843200949324314e-38
-26.103198 1.904845 12.645715 -0.889914 0.054888 -0.452813 1.5843200949324314e-38
-26.255048 1.012797 12.529194 -0.890996 0.032946 -0.452813 1.5843200949324314e-38
-26.244365 0.486876 12.432334 -0.891538 0.010984 -0.452813 1.5843200949324314e-38
-26.082659 -0.812631 12.331752 -0.891538 -0.010984 -0.452813 1.5843200949324314e-38
-26.734660 -0.890199 12.863713 -0.890996 -0.032946 -0.452813 1.5843200949324314e-38
-26.429765 -1.583184 12.598080 -0.889914 -0.054888 -0.452813 1.5843200949324314e-38
-26.859930 -2.425159 12.480489 -0.888292 -0.076797 -0.452813 1.5843200949324314e-38
-27.044856 -3.207357 12.701391 -0.886130 -0.098659 -0.452813 1.5843200949324314e-38
-27.091723 5.152878 13.262796 -0.836551 0.156378 -0.525098 1.5843200949324314e-38
-26.598001 4.352243 13.588835 -0.840150 0.135721 -0.525098 1.5843200949324314e-38
-26.654623 3.699928 12.795328 -0.843239 0.114980 -0.525098 1.5843200949324314e-38
-26.965088 3.118917 14.100332 -0.845815 0.094170 -0.525098 1.5843200949324314e-38
-26.427608 1.919574 13.503330 -0.847879 0.073303 -0.525098 1.5843200949324314e-38
-27.452573 2.120204 13.912104 -0.849427 0.052391 -0.525098 1.5843200949324314e-38
-26.910374 1.048776 14.022437 -0.850460 0.031447 -0.525098 1.5843200949324314e-38
-26.668564 0.680463 13.745251 -0.850977 0.010485 -0.525098 1.5843200949324314e-38
-27.136730 -0.102912 13.853060 -0.850977 -0.010485 -0.525098 1.5843200949324314e-38
-27.072741 -1.104322 13.948241 -0.850460 -0.031447 -0.525098 1.5843200949324314e-38
-26.483503 -1.889057 13.529234 -0.849427 -0.052391 -0.525098 1.5843200949324314e-38
-26.828265 -2.182539 13.451538 -0.847879 -0.073303 -0.525098 1.5843200949324314e-38
-26.302944 -2.864757 13.767662 -0.845815 -0.094170 -0.525098 1.5843200949324314e-38
-26.258479 -3.787155 13.581718 -0.843239 -0.114980 -0.525098 1.5843200949324314e-38
-27.064024 -4.362976 13.161569 -0.840150 -0.135721 -0.525098 1.5843200949324314e-38
-26.349352 -4.841488 13.525127 -0.836551 -0.156378 -0.525098 1.5843200949324314e-38
-27.616114 4.931163 14.845558 -0.798298 0.149228 -0.583482 1.5843200949324314e-38
-27.694236 4.275719 15.140937 -0.801732 0.129514 -0.583482 1.5843200949324314e-38
-27.297639 3.270091 14.599910 -0.804680 0.109722 -0.583482 1.5843200949324314e-38
-27.829047 3.262614 15.188284 -0.807139 0.089864 -0.583482 1.5843200949324314e-38
-26.946805 2.260042 14.720642 -0.809108 0.069951 -0.583482 1.5843200949324314e-38
-27.631522 1.510479 14.803072 -0.810586 0.049995 -0.583482 1.5843200949324314e-38
-27.966420 0.243007 14.882331 -0.811571 0.030009 -0.583482 1.5843200949324314e-38
-27.913530 0.724607 14.847008 -0.812064 0.010005 -0.583482 1.5843200949324314e-38
-28.235246 -0.420667 14.218036 -0.812064 -0.010005 -0.583482 1.5843200949324314e-38
-28.205184 -0.838852 14.771159 -0.811571 -0.030009 -0.583482 1.5843200949324314e-38
-27.531341 -2.305212 14.772622 -0.810586 -0.049995 -0.583482 1.5843200949324314e-38
-27.900049 -2.112990 15.047190 -0.809108 -0.069951 -0.583482 1.5843200949324314e-38
-27.497170 -2.620464 14.734935 -0.807139 -0.089864 -0.583482 1.5843200949324314e-38
-27.204962 -4.077421 14.521097 -0.804680 -0.109722 -0.583482 1.5843200949324314e-38
-27.278543 -4.894567 15.017191 -0.801732 -0.129514 -0.583482 1.5843200949324314e-38
-27.356157 -4.797878 14.827528 -0.798298 -0.149228 -0.583482 1.5843200949324314e-38
-27.235293 -5.639835 14.646566 -0.794379 -0.168850 -0.583482 1.5843200949324314e-38
-27.312982 -6.319950 14.836574 -0.789978 -0.188371 -0.583482 1.5843200949324314e-38
-28.079034 5.135016 15.953555 -0.763472 0.142718 -0.629875 1.5843200949324314e-38
-28.862869 4.739194 16.034055 -0.766756 0.123864 -0.629875 1.5843200949324314e-38
-28.740040 3.814253 16.420573 -0.769575 0.104936 -0.629875 1.5843200949324314e-38
-28.932520 2.935180 16.458150 -0.771927 0.085944 -0.629875 1.5843200949324314e-38
-28.678167 2.682240 16.203000 -0.773810 0.066899 -0.629875 1.5843200949324314e-38
-28.763921 1.668954 16.331942 -0.775223 0.047814 -0.629875 1.5843200949324314e-38
-28.439585 1.389754 15.726833 -0.776166 0.028700 -0.629875 1.5843200949324314e-38
-28.414300 0.247524 15.855965 -0.776638 0.009569 -0.629875 1.5843200949324314e-38
-28.856572 -0.105566 16.244613 -0.776638 -0.009569 -0.629875 1.5843200949324314e-38
-28.864902 -0.813198 16.124432 -0.776166 -0.028700 -0.629875 1.5843200949324314e-38
-28.925212 -1.985855 16.205545 -0.775223 -0.047814 -0.629875 1.5843200949324314e-38
-28.725655 -2.893966 16.336623 -0.773810 -0.066899 -0.629875 1.5843200949324314e-38
-28.775137 -2.710042 15.661577 -0.771927 -0.085944 -0.629875 1.5843200949324314e-38
-28.598040 -4.102100 15.789847 -0.769575 -0.104936 -0.629875 1.5843200949324314e-38
-28.585308 -4.063002 16.125485 -0.766756 -0.123864 -0.629875 1.5843200949324314e-38
-28.554962 -5.842037 15.566065 -0.763472 -0.142718 -0.629875 1.5843200949324314e-38
-28.339376 -6.179618 16.015259 -0.759724 -0.161484 -0.629875 1.5843200949324314e-38
-28.703972 -6.709443 16.390793 -0.755515 -0.180153 -0.629875 1.5843200949324314e-38
-27.362333 -7.938642 15.842056 -0.750847 -0.198712 -0.629875 1.5843200949324314e-38
-29.251144 5.369817 17.226351 -0.733051 0.137031 -0.666227 1.5843200949324314e-38
-29.018344 4.854444 16.394746 -0.736205 0.118929 -0.666227 1.5843200949324314e-38
-28.863194 4.089605 17.422598 -0.738911 0.100755 -0.666227 1.5843200949324314e-38
-29.353889 3.444073 17.543660 -0.741169 0.082519 -0.666227 1.5843200949324314e-38
-29.879419 2.203274 17.403657 -0.742977 0.064234 -0.666227 1.5843200949324314e-38
-29.377159 1.644070 17.101180 -0.744334 0.045909 -0.666227 1.5843200949324314e-38
-29.476583 0.966320 17.196420 -0.745240 0.027557 -0.666227 1.5843200949324314e-38
-29.972961 0.348411 16.847496 -0.745692 0.009187 -0.666227 1.5843200949324314e-38
-30.022820 -0.298795 17.386559 -0.745692 -0.009187 -0.666227 1.5843200949324314e-38
-29.495491 -0.551675 17.773333 -0.745240 -0.027557 -0.666227 1.5843200949324314e-38
-29.532247 -1.883031 17.132667 -0.744334 -0.045909 -0.666227 1.5843200949324314e-38
-29.746938 -2.396539 17.566169 -0.742977 -0.064234 -0.666227 1.5843200949324314e-38
-29.492972 -3.340805 17.555646 -0.741169 -0.082519 -0.666227 1.5843200949324314e-38
-29.211213 -3.770638 17.309984 -0.738911 -0.100755 -0.666227 1.5843200949324314e-38
-29.731243 -5.019741 17.115222 -0.736205 -0.118929 -0.666227 1.5843200949324314e-38
-29.277682 -5.331423 16.895228 -0.733051 -0.137031 -0.666227 1.5843200949324314e-38
-29.361898 -6.135940 17.049684 -0.729453 -0.155050 -0.666227 1.5843200949324314e-38
-28.918689 -7.018947 17.102562 -0.725411 -0.172975 -0.666227 1.5843200949324314e-38
-28.853425 -7.522621 17.065029 -0.720929 -0.190794 -0.666227 1.5843200949324314e-38
-28.745169 -8.208951 17.090961 -0.716010 -0.208498 -0.666227 1.5843200949324314e-38
-30.518414 5.215754 18.614352 -0.707464 0.132248 -0.694266 1.5843200949324314e-38
-31.026158 4.860192 18.603580 -0.710508 0.114778 -0.694266 1.5843200949324314e-38
-30.407191 3.944238 18.992177 -0.713120 0.097238 -0.694266 1.5843200949324314e-38
-30.539252 3.302933 18.224076 -0.715299 0.079639 -0.694266 1.5843200949324314e-38
-31.331647 2.752832 18.335516 -0.717044 0.061991 -0.694266 1.5843200949324314e-38
-30.595130 1.705378 18.286500 -0.718354 0.044307 -0.694266 1.5843200949324314e-38
-30.922491 0.940191 18.559266 -0.719227 0.026595 -0.694266 1.5843200949324314e-38
-30.715609 0.417248 18.592990 -0.719664 0.008867 -0.694266 1.5843200949324314e-38
-30.949862 -0.890009 18.674252 -0.719664 -0.008867 -0.694266 1.5843200949324314e-38
-30.944600 -0.878136 18.738444 -0.719227 -0.026595 -0.694266 1.5843200949324314e-38
-31.015521 -1.599517 18.468912 -0.718354 -0.044307 -0.694266 1.5843200949324314e-38
-30.824355 -2.764651 18.695228 -0.717044 -0.061991 -0.694266 1.5843200949324314e-38
-30.936255 -2.937490 19.161910 -0.715299 -0.079639 -0.694266 1.5843200949324314e-38
-30.467221 -3.727733 18.094937 -0.713120 -0.097238 -0.694266 1.5843200949324314e-38
-31.043254 -5.042412 18.569070 -0.710508 -0.114778 -0.694266 1.5843200949324314e-38
-30.545154 -6.191404 18.902179 -0.707464 -0.132248 -0.694266 1.5843200949324314e-38
-29.689775 -6.063827 18.882358 -0.703991 -0.149638 -0.694266 1.5843200949324314e-38
-30.100125 -7.446468 18.578459 -0.700091 -0.166937 -0.694266 1.5843200949324314e-38
-29.349896 -8.040243 18.420214 -0.695765 -0.184135 -0.694266 1.5843200949324314e-38
-29.444791 -8.318802 18.302330 -0.691017 -0.201221 -0.694266 1.5843200949324314e-38
-31.785223 6.638793 20.670907 -0.683445 0.145271 -0.715402 1.5843200949324314e-38
-31.180678 5.493179 19.960536 -0.686816 0.128388 -0.715402 1.5843200949324314e-38
-31.592695 5.040936 19.847307 -0.689771 0.111428 -0.715402 1.5843200949324314e-38
-31.866611 3.952492 19.484416 -0.692307 0.094400 -0.715402 1.5843200949324314e-38
-31.995351 3.597822 19.581246 -0.694423 0.077315 -0.715402 1.5843200949324314e-38
-32.363531 2.750427 20.059660 -0.696117 0.060182 -0.715402 1.5843200949324314e-38
-32.206840 2.471854 19.585068 -0.697388 0.043013 -0.715402 1.5843200949324314e-38
-32.165098 1.085214 19.970203 -0.698236 0.025819 -0.715402 1.5843200949324314e-38
-32.477081 0.975467 19.286631 -0.698660 0.008608 -0.715402 1.5843200949324314e-38
-31.727961 -0.370252 19.959542 -0.698660 -0.008608 -0.715402 1.5843200949324314e-38
-31.822673 -0.934205 19.574806 -0.698236 -0.025819 -0.715402 1.5843200949324314e-38
-32.003867 -1.424792 19.527627 -0.697388 -0.043013 -0.715402 1.5843200949324314e-38
-31.489690 -2.661650 19.663846 -0.696117 -0.060182 -0.715402 1.5843200949324314e-38
-32.315026 -3.634988 19.207231 -0.694423 -0.077315 -0.715402 1.5843200949324314e-38
-32.073979 -4.435354 19.471490 -0.692307 -0.094400 -0.715402 1.5843200949324314e-38
-31.608021 -5.207935 19.603076 -0.689771 -0.111428 -0.715402 1.5843200949324314e-38
-31.793619 -5.818481 19.815781 -0.686816 -0.128388 -0.715402 1.5843200949324314e-38
-31.750713 -6.666427 19.778612 -0.683445 -0.145271 -0.715402 1.5843200949324314e-38
-31.707513 -7.565715 19.967616 -0.679658 -0.162065 -0.715402 1.5843200949324314e-38
-31.000244 -8.318653 19.996846 -0.675459 -0.178761 -0.715402 1.5843200949324314e-38
-31.253159 -9.299852 19.718438 -0.670850 -0.195348 -0.715402 1.5843200949324314e-38
-32.942131 6.394172 21.059875 -0.671052 0.125441 -0.730721 1.5843200949324314e-38
-32.697207 4.695802 20.778258 -0.673939 0.108870 -0.730721 1.5843200949324314e-38
-32.791767 4.805284 21.193081 -0.676417 0.092233 -0.730721 1.5843200949324314e-38
-32.965879 3.136525 21.269611 -0.678484 0.075540 -0.730721 1.5843200949324314e-38
-33.097856 2.691445 21.819699 -0.680139 0.058801 -0.730721 1.5843200949324314e-38
-33.419297 1.407034 21.145309 -0.681382 0.042026 -0.730721 1.5843200949324314e-38
-33.734871 1.588919 21.195311 -0.682210 0.025226 -0.730721 1.5843200949324314e-38
-33.718651 0.863959 21.312763 -0.682625 0.008410 -0.730721 1.5843200949324314e-38
-33.787650 -0.458837 21.186003 -0.682625 -0.008410 -0.730721 1.5843200949324314e-38
-33.628192 -1.339740 21.041945 -0.682210 -0.025226 -0.730721 1.5843200949324314e-38
-33.797942 -2.734694 21.102668 -0.681382 -0.042026 -0.730721 1.5843200949324314e-38
-34.013837 -3.186967 20.499453 -0.680139 -0.058801 -0.730721 1.5843200949324314e-38
-33.830377 -3.583586 20.964235 -0.678484 -0.075540 -0.730721 1.5843200949324314e-38
-33.311804 -4.926446 20.834173 -0.676417 -0.092233 -0.730721 1.5843200949324314e-38
-32.999610 -5.364734 21.277730 -0.673939 -0.108870 -0.730721 1.5843200949324314e-38
-32.681179 -6.238959 20.475253 -0.671052 -0.125441 -0.730721 1.5843200949324314e-38
-33.035844 -7.003043 20.797982 -0.667758 -0.141936 -0.730721 1.5843200949324314e-38
-32.943464 -7.759020 21.760019 -0.664059 -0.158345 -0.730721 1.5843200949324314e-38
-32.571951 -8.582274 20.637317 -0.659956 -0.174658 -0.730721 1.5843200949324314e-38
-34.847845 4.935236 22.084560 -0.665335 0.090722 -0.741012 1.5843200949324314e-38
-34.869488 4.092225 22.384238 -0.667368 0.074302 -0.741012 1.5843200949324314e-38
-35.509284 2.957667 22.305697 -0.668996 0.057838 -0.741012 1.5843200949324314e-38
-34.923613 2.195840 21.725135 -0.670218 0.041338 -0.741012 1.5843200949324314e-38
-35.713385 0.996520 22.352715 -0.671033 0.024813 -0.741012 1.5843200949324314e-38
-35.852745 0.176743 21.691213 -0.671440 0.008273 -0.741012 1.5843200949324314e-38
-34.958045 0.157563 22.202888 -0.671440 -0.008273 -0.741012 1.5843200949324314e-38
-34.896330 -1.037391 22.274433 -0.671033 -0.024813 -0.741012 1.5843200949324314e-38
-34.886232 -1.869737 22.409607 -0.670218 -0.041338 -0.741012 1.5843200949324314e-38
-34.671662 -3.046632 22.164222 -0.668996 -0.057838 -0.741012 1.5843200949324314e-38
-34.398512 -3.961379 22.637417 -0.667368 -0.074302 -0.741012 1.5843200949324314e-38
-34.882171 -4.283404 22.409653 -0.665335 -0.090722 -0.741012 1.5843200949324314e-38
-34.731965 -5.411083 22.072950 -0.662898 -0.107087 -0.741012 1.5843200949324314e-38
-34.283844 -6.556624 22.228168 -0.660058 -0.123386 -0.741012 1.5843200949324314e-38
-33.843092 -7.098050 21.930432 -0.656818 -0.139611 -0.741012 1.5843200949324314e-38
-34.256881 -8.010935 22.370997 -0.653179 -0.155751 -0.741012 1.5843200949324314e-38
-36.548222 2.904176 23.790930 -0.662573 0.057282 -0.746804 1.5843200949324314e-38
-36.132814 1.995229 23.794593 -0.663783 0.040941 -0.746804 1.5843200949324314e-38
-35.938081 1.439520 23.321436 -0.664590 0.024574 -0.746804 1.5843200949324314e-38
-36.401276 0.532194 23.111576 -0.664994 0.008193 -0.746804 1.5843200949324314e-38
-35.865449 0.063271 23.434368 -0.664994 -0.008193 -0.746804 1.5843200949324314e-38
-36.134938 -0.984362 24.091823 -0.664590 -0.024574 -0.746804 1.5843200949324314e-38
-35.730657 -2.753262 23.410489 -0.663783 -0.040941 -0.746804 1.5843200949324314e-38
-35.981552 -3.272009 24.039985 -0.662573 -0.057282 -0.746804 1.5843200949324314e-38
-35.555017 -4.257769 23.456435 -0.660961 -0.073589 -0.746804 1.5843200949324314e-38
-36.158885 -4.958338 23.437525 -0.658947 -0.089851 -0.746804 1.5843200949324314e-38
-35.516115 -6.050174 22.720130 -0.656533 -0.106058 -0.746804 1.5843200949324314e-38
-36.130393 -6.972449 23.308447 -0.653721 -0.122202 -0.746804 1.5843200949324314e-38
-35.417874 -7.864175 23.141824 -0.650512 -0.138271 -0.746804 1.5843200949324314e-38
-37.789231 1.154394 24.855780 -0.662806 0.024508 -0.748390 1.5843200949324314e-38
-37.745382 0.094656 25.323826 -0.663209 0.008171 -0.748390 1.5843200949324314e-38
-37.895102 -0.762055 24.669627 -0.663209 -0.008171 -0.748390 1.5843200949324314e-38
-37.258960 -2.041634 25.093233 -0.662806 -0.024508 -0.748390 1.5843200949324314e-38
-37.862550 -2.239059 24.539466 -0.662001 -0.040831 -0.748390 1.5843200949324314e-38
-36.923003 -3.206427 24.529841 -0.660794 -0.057128 -0.748390 1.5843200949324314e-38
-37.519597 -4.140348 24.795571 -0.659186 -0.073391 -0.748390 1.5843200949324314e-38
-37.183609 -5.088558 24.329119 -0.657178 -0.089610 -0.748390 1.5843200949324314e-38
-37.280632 -5.823946 24.541303 -0.654771 -0.105774 -0.748390 1.5843200949324314e-38
-36.817461 -6.910590 24.676946 -0.651966 -0.121874 -0.748390 1.5843200949324314e-38
-39.050014 -0.366045 25.928846 -0.666062 -0.008206 -0.745851 1.5843200949324314e-38
-39.548556 -1.507828 25.866783 -0.665658 -0.024614 -0.745851 1.5843200949324314e-38
-39.290181 -2.574328 26.019909 -0.664849 -0.041006 -0.745851 1.5843200949324314e-38
-39.247379 -3.576945 26.443752 -0.663637 -0.057374 -0.745851 1.5843200949324314e-38
-39.293533 -4.376223 25.629489 -0.662022 -0.073707 -0.745851 1.5843200949324314e-38
-38.919966 -5.335524 25.683109 -0.660005 -0.089995 -0.745851 1.5843200949324314e-38
-38.380558 -5.822589 26.231885 -0.657587 -0.106229 -0.745851 1.5843200949324314e-38
-40.305814 -1.365176 27.122555 -0.673181 -0.024892 -0.739059 1.5843200949324314e-38
-40.688122 -2.113322 27.528076 -0.672363 -0.041470 -0.739059 1.5843200949324314e-38
-40.871172 -3.080066 27.153802 -0.671137 -0.058023 -0.739059 1.5843200949324314e-38
-40.119951 -4.131689 27.712256 -0.669504 -0.074540 -0.739059 1.5843200949324314e-38
-39.753685 -5.389347 26.803803 -0.667464 -0.091012 -0.739059 1.5843200949324314e-38
-41.831667 -3.316347 28.757372 -0.683382 -0.059081 -0.727667 1.5843200949324314e-38
-41.819921 -4.395061 28.648835 -0.681718 -0.075900 -0.727667 1.5843200949324314e-38
