# .PCD v0.7 - Point Cloud Data file format
VERSION 0.7
FIELDS x y z normal_x normal_y normal_z rgb
SIZE 4 4 4 4 4 4 4
TYPE F F F F F F F
COUNT 1 1 1 1 1 1 1
WIDTH 166
HEIGHT 1
VIEWPOINT 0 0 0 1 0 0 0
POINTS 166
DATA ascii
21.333651 13.568097 10.153395 0.814083 0.518041 -0.262492 1.6119787838914282e-38
20.662738 14.076486 9.760190 0.801073 0.537941 -0.262492 1.6119787838914282e-38
20.664135 14.911860 10.063156 0.787576 0.557514 -0.262492 1.6119787838914282e-38
20.113799 15.204037 10.344040 0.773602 0.576748 -0.262492 1.6119787838914282e-38
22.837857 11.741044 11.174898 0.830735 0.420063 -0.365277 1.6119787838914282e-38
23.072409 12.783024 11.361821 0.820133 0.440402 -0.365277 1.6119787838914282e-38
22.819917 12.982287 11.646990 0.809034 0.460475 -0.365277 1.6119787838914282e-38
22.639432 13.585739 11.345935 0.797443 0.480267 -0.365277 1.6119787838914282e-38
21.688215 13.828049 11.032669 0.785369 0.499769 -0.365277 1.6119787838914282e-38
21.588565 14.156004 11.076689 0.772817 0.518966 -0.365277 1.6119787838914282e-38
20.335050 15.411968 11.067878 0.759797 0.537849 -0.365277 1.6119787838914282e-38
20.804912 15.846267 11.224109 0.746315 0.556405 -0.365277 1.6119787838914282e-38
23.816593 11.178946 12.897990 0.805340 0.382606 -0.452813 1.6119787838914282e-38
23.154854 11.715563 12.099672 0.795669 0.402332 -0.452813 1.6119787838914282e-38
23.034519 12.769522 12.814544 0.785515 0.421813 -0.452813 1.6119787838914282e-38
22.679386 12.811092 12.023995 0.774884 0.441038 -0.452813 1.6119787838914282e-38
22.953585 13.924283 12.339339 0.763783 0.459995 -0.452813 1.6119787838914282e-38
21.801248 13.747721 12.422323 0.752218 0.478673 -0.452813 1.6119787838914282e-38
22.029767 14.063031 12.274741 0.740196 0.497061 -0.452813 1.6119787838914282e-38
21.982069 15.151861 12.818025 0.727725 0.515146 -0.452813 1.6119787838914282e-38
21.309858 15.416832 12.283333 0.714813 0.532919 -0.452813 1.6119787838914282e-38
20.682281 15.971807 12.080174 0.701466 0.550369 -0.452813 1.6119787838914282e-38
24.460292 10.645244 13.612977 0.777465 0.346150 -0.525098 1.6119787838914282e-38
24.586706 11.722405 13.454599 0.768701 0.365199 -0.525098 1.6119787838914282e-38
24.214516 12.649644 13.669791 0.759470 0.384027 -0.525098 1.6119787838914282e-38
23.327350 12.850577 14.221435 0.749778 0.402622 -0.525098 1.6119787838914282e-38
23.108744 13.381450 13.540347 0.739631 0.420973 -0.525098 1.6119787838914282e-38
23.187130 14.005605 13.950239 0.729035 0.439067 -0.525098 1.6119787838914282e-38
22.833143 14.896836 13.572951 0.717996 0.456896 -0.525098 1.6119787838914282e-38
22.338165 14.870422 13.063121 0.706521 0.474447 -0.525098 1.6119787838914282e-38
22.147812 16.235745 13.745718 0.694617 0.491710 -0.525098 1.6119787838914282e-38
21.879578 16.034522 13.534947 0.682292 0.508674 -0.525098 1.6119787838914282e-38
21.564265 17.290115 14.054632 0.669553 0.525329 -0.525098 1.6119787838914282e-38
25.378706 10.575499 14.975103 0.749827 0.311942 -0.583482 1.6119787838914282e-38
25.488445 11.924367 14.182225 0.741914 0.330321 -0.583482 1.6119787838914282e-38
25.306115 11.957628 15.090062 0.733550 0.348500 -0.583482 1.6119787838914282e-38
25.078055 12.522584 14.897156 0.724742 0.366467 -0.583482 1.6119787838914282e-38
24.322604 13.364933 14.281698 0.715493 0.384212 -0.583482 1.6119787838914282e-38
24.446680 13.774623 14.699242 0.705810 0.401723 -0.583482 1.6119787838914282e-38
23.796979 14.326195 15.234552 0.695698 0.418990 -0.583482 1.6119787838914282e-38
24.475405 15.323567 14.675763 0.685164 0.436003 -0.583482 1.6119787838914282e-38
23.318639 15.734176 14.567813 0.674214 0.452752 -0.583482 1.6119787838914282e-38
22.361770 16.078336 15.087673 0.662855 0.469225 -0.583482 1.6119787838914282e-38
21.852968 16.436420 15.017156 0.651093 0.485414 -0.583482 1.6119787838914282e-38
21.931968 17.622831 14.421951 0.638936 0.501308 -0.583482 1.6119787838914282e-38
26.806986 10.877174 16.568506 0.717115 0.298334 -0.629875 1.6119787838914282e-38
26.298427 11.742828 16.419897 0.709548 0.315911 -0.629875 1.6119787838914282e-38
25.965854 12.414972 16.352211 0.701549 0.333296 -0.629875 1.6119787838914282e-38
25.266559 12.913831 16.331220 0.693124 0.350480 -0.629875 1.6119787838914282e-38
25.399844 14.069060 15.609697 0.684279 0.367450 -0.629875 1.6119787838914282e-38
24.529679 14.480932 16.342216 0.675018 0.384197 -0.629875 1.6119787838914282e-38
24.620020 14.982658 16.306036 0.665348 0.400712 -0.629875 1.6119787838914282e-38
24.060170 15.253977 16.139392 0.655273 0.416982 -0.629875 1.6119787838914282e-38
24.187135 15.710346 16.023090 0.644801 0.433000 -0.629875 1.6119787838914282e-38
23.439697 16.769873 16.079865 0.633937 0.448755 -0.629875 1.6119787838914282e-38
22.931988 17.593302 15.920697 0.622689 0.464237 -0.629875 1.6119787838914282e-38
22.576888 17.305077 15.868386 0.611062 0.479438 -0.629875 1.6119787838914282e-38
27.673036 10.992314 17.646277 0.695390 0.269396 -0.666227 1.6119787838914282e-38
27.285966 11.493473 17.485628 0.688542 0.286446 -0.666227 1.6119787838914282e-38
27.316131 12.254822 16.920699 0.681276 0.303323 -0.666227 1.6119787838914282e-38
27.140138 12.669101 17.424423 0.673596 0.320016 -0.666227 1.6119787838914282e-38
26.926009 13.676272 17.424204 0.665507 0.336515 -0.666227 1.6119787838914282e-38
26.502556 14.334651 17.768238 0.657014 0.352809 -0.666227 1.6119787838914282e-38
25.943635 14.821235 17.599208 0.648122 0.368889 -0.666227 1.6119787838914282e-38
25.434910 15.006420 17.467557 0.638837 0.384745 -0.666227 1.6119787838914282e-38
25.132865 15.670341 17.469750 0.629164 0.400368 -0.666227 1.6119787838914282e-38
25.221361 16.159543 17.626285 0.619109 0.415747 -0.666227 1.6119787838914282e-38
23.613200 17.134138 17.871742 0.608678 0.430874 -0.666227 1.6119787838914282e-38
23.843324 17.876489 17.548447 0.597878 0.445740 -0.666227 1.6119787838914282e-38
29.359489 10.612949 18.942268 0.677319 0.243379 -0.694266 1.6119787838914282e-38
28.916462 11.079910 18.793489 0.671118 0.259992 -0.694266 1.6119787838914282e-38
28.396405 12.238059 18.881554 0.664508 0.276448 -0.694266 1.6119787838914282e-38
28.709663 12.727419 18.410752 0.657496 0.292736 -0.694266 1.6119787838914282e-38
28.045848 13.422664 18.388659 0.650084 0.308846 -0.694266 1.6119787838914282e-38
28.076632 14.168800 18.289034 0.642277 0.324769 -0.694266 1.6119787838914282e-38
27.888363 14.701627 18.228470 0.634081 0.340494 -0.694266 1.6119787838914282e-38
26.704639 15.787473 19.104197 0.625500 0.356013 -0.694266 1.6119787838914282e-38
26.870413 16.396344 18.921686 0.616538 0.371316 -0.694266 1.6119787838914282e-38
26.332365 16.748964 18.718660 0.607203 0.386393 -0.694266 1.6119787838914282e-38
25.967933 17.067364 18.776289 0.597499 0.401236 -0.694266 1.6119787838914282e-38
25.750920 17.857027 18.462727 0.587432 0.415835 -0.694266 1.6119787838914282e-38
31.161771 10.086619 19.894457 0.663173 0.220004 -0.715402 1.6119787838914282e-38
30.362569 11.423083 19.159869 0.657552 0.236276 -0.715402 1.6119787838914282e-38
30.180753 11.430118 19.087025 0.651531 0.252404 -0.715402 1.6119787838914282e-38
29.663346 12.939925 19.597000 0.645114 0.268380 -0.715402 1.6119787838914282e-38
29.694551 13.474846 19.790005 0.638306 0.284192 -0.715402 1.6119787838914282e-38
29.161390 13.322127 19.578965 0.631111 0.299832 -0.715402 1.6119787838914282e-38
29.047606 14.568592 19.904017 0.623532 0.315290 -0.715402 1.6119787838914282e-38
28.448231 15.912528 19.664658 0.615575 0.330557 -0.715402 1.6119787838914282e-38
28.505441 15.990254 20.302074 0.607244 0.345623 -0.715402 1.6119787838914282e-38
27.254846 16.691193 19.675708 0.598544 0.360479 -0.715402 1.6119787838914282e-38
27.245933 17.678004 19.907457 0.589481 0.375116 -0.715402 1.6119787838914282e-38
27.135442 17.775210 19.546964 0.580061 0.389525 -0.715402 1.6119787838914282e-38
26.323143 18.618752 19.738057 0.570288 0.403698 -0.715402 1.6119787838914282e-38
32.472860 9.535505 20.827673 0.653051 0.198925 -0.730721 1.6119787838914282e-38
31.587145 10.326271 21.478739 0.647952 0.214954 -0.730721 1.6119787838914282e-38
31.492716 11.308994 21.263244 0.642459 0.230853 -0.730721 1.6119787838914282e-38
30.777757 12.132497 20.701866 0.636577 0.246611 -0.730721 1.6119787838914282e-38
30.880472 12.707680 20.839534 0.630308 0.262220 -0.730721 1.6119787838914282e-38
30.709652 13.709051 20.964982 0.623656 0.277669 -0.730721 1.6119787838914282e-38
30.407760 14.132902 21.235404 0.616626 0.292950 -0.730721 1.6119787838914282e-38
29.870880 14.990448 20.792500 0.609221 0.308054 -0.730721 1.6119787838914282e-38
29.478333 16.429611 21.011934 0.601446 0.322970 -0.730721 1.6119787838914282e-38
28.807504 16.867303 20.889349 0.593306 0.337690 -0.730721 1.6119787838914282e-38
28.818328 17.123125 21.415160 0.584807 0.352205 -0.730721 1.6119787838914282e-38
28.120904 18.426840 20.716150 0.575952 0.366506 -0.730721 1.6119787838914282e-38
27.758011 19.119209 21.081380 0.566747 0.380585 -0.730721 1.6119787838914282e-38
33.165739 10.003111 22.207991 0.642352 0.195666 -0.741012 1.6119787838914282e-38
33.366384 10.839118 22.181351 0.637336 0.211432 -0.741012 1.6119787838914282e-38
33.003698 11.737995 22.603054 0.631933 0.227070 -0.741012 1.6119787838914282e-38
32.256151 12.262056 22.359430 0.626147 0.242571 -0.741012 1.6119787838914282e-38
32.332910 13.141157 22.671120 0.619981 0.257924 -0.741012 1.6119787838914282e-38
32.449169 14.001833 22.714231 0.613438 0.273120 -0.741012 1.6119787838914282e-38
30.797763 15.293953 22.010712 0.606523 0.288151 -0.741012 1.6119787838914282e-38
31.426809 15.454577 22.247495 0.599239 0.303006 -0.741012 1.6119787838914282e-38
30.493635 16.441079 22.817018 0.591592 0.317678 -0.741012 1.6119787838914282e-38
30.288312 17.890597 22.152297 0.583586 0.332157 -0.741012 1.6119787838914282e-38
30.333838 17.511585 22.182089 0.575225 0.346434 -0.741012 1.6119787838914282e-38
29.272947 19.191463 22.323616 0.566515 0.360501 -0.741012 1.6119787838914282e-38
28.336957 19.056600 21.964243 0.557461 0.374349 -0.741012 1.6119787838914282e-38
34.738168 11.953479 23.602040 0.631217 0.209402 -0.746804 1.6119787838914282e-38
33.951741 12.215231 23.379028 0.625866 0.224890 -0.746804 1.6119787838914282e-38
33.709404 13.295379 23.588994 0.620136 0.240242 -0.746804 1.6119787838914282e-38
33.785680 14.041456 23.245928 0.614028 0.255447 -0.746804 1.6119787838914282e-38
32.980923 14.582077 23.449214 0.607548 0.270498 -0.746804 1.6119787838914282e-38
33.296062 16.149188 23.756135 0.600700 0.285384 -0.746804 1.6119787838914282e-38
32.399908 15.956564 23.571157 0.593486 0.300097 -0.746804 1.6119787838914282e-38
31.714259 17.646622 23.023323 0.585912 0.314628 -0.746804 1.6119787838914282e-38
31.634192 17.677183 23.502300 0.577983 0.328968 -0.746804 1.6119787838914282e-38
31.267117 19.017144 23.486948 0.569702 0.343108 -0.746804 1.6119787838914282e-38
30.825251 19.271551 23.578816 0.561076 0.357040 -0.746804 1.6119787838914282e-38
35.013591 12.742812 24.472927 0.624186 0.224287 -0.748390 1.6119787838914282e-38
35.376761 13.337692 24.823488 0.618471 0.239597 -0.748390 1.6119787838914282e-38
34.427446 15.245337 24.893355 0.612380 0.254762 -0.748390 1.6119787838914282e-38
34.360961 15.230033 24.576188 0.605917 0.269772 -0.748390 1.6119787838914282e-38
33.788501 15.924394 25.245767 0.599087 0.284618 -0.748390 1.6119787838914282e-38
33.442501 16.355268 24.392478 0.591893 0.299292 -0.748390 1.6119787838914282e-38
33.457710 17.741260 24.702044 0.584339 0.313784 -0.748390 1.6119787838914282e-38
33.081301 18.395855 24.931993 0.576431 0.328085 -0.748390 1.6119787838914282e-38
32.061085 19.602506 24.624927 0.568173 0.342187 -0.748390 1.6119787838914282e-38
36.660427 14.202606 26.198464 0.621131 0.240628 -0.745851 1.6119787838914282e-38
36.285602 14.345460 26.097862 0.615014 0.255858 -0.745851 1.6119787838914282e-38
35.628026 15.734165 25.920750 0.608524 0.270932 -0.745851 1.6119787838914282e-38
34.807340 16.216866 26.353332 0.601664 0.285843 -0.745851 1.6119787838914282e-38
34.989154 16.898322 25.806466 0.594439 0.300579 -0.745851 1.6119787838914282e-38
34.669927 18.391499 26.352883 0.586853 0.315134 -0.745851 1.6119787838914282e-38
34.255054 18.910552 25.936384 0.578911 0.329496 -0.745851 1.6119787838914282e-38
33.319464 19.731129 25.543099 0.570617 0.343659 -0.745851 1.6119787838914282e-38
37.640549 15.695594 27.352303 0.621965 0.258749 -0.739059 1.6119787838914282e-38
37.017810 16.300757 27.125954 0.615401 0.273994 -0.739059 1.6119787838914282e-38
36.588407 17.295276 27.549931 0.608464 0.289073 -0.739059 1.6119787838914282e-38
36.103501 18.354418 26.795690 0.601157 0.303976 -0.739059 1.6119787838914282e-38
35.898057 18.950546 26.903699 0.593486 0.318695 -0.739059 1.6119787838914282e-38
35.626944 20.205844 27.509624 0.585454 0.333220 -0.739059 1.6119787838914282e-38
38.576253 16.023915 28.146344 0.633312 0.263470 -0.727667 1.6119787838914282e-38
38.084488 17.116618 28.452303 0.626629 0.278993 -0.727667 1.6119787838914282e-38
37.297239 17.838713 28.313201 0.619565 0.294347 -0.727667 1.6119787838914282e-38
37.325953 18.870244 28.330124 0.612125 0.309522 -0.727667 1.6119787838914282e-38
36.657105 19.777217 28.742501 0.604313 0.324509 -0.727667 1.6119787838914282e-38
39.585529 17.646323 29.818961 0.642315 0.285977 -0.711090 1.6119787838914282e-38
38.864476 17.993402 29.960037 0.635074 0.301715 -0.711090 1.6119787838914282e-38
38.027562 19.609397 29.917443 0.627448 0.317270 -0.711090 1.6119787838914282e-38
37.580613 20.181742 30.327164 0.619441 0.332633 -0.711090 1.6119787838914282e-38
40.079332 18.851674 31.339358 0.655090 0.311224 -0.688474 1.6119787838914282e-38
39.513665 19.709951 30.590474 0.647223 0.327270 -0.688474 1.6119787838914282e-38
40.583509 20.468542 32.258609 0.671478 0.339534 -0.658660 1.6119787838914282e-38
