# .PCD v0.7 - Point Cloud Data file format
VERSION 0.7
FIELDS x y z normal_x normal_y normal_z rgb
SIZE 4 4 4 4 4 4 4
TYPE F F F F F F F
COUNT 1 1 1 1 1 1 1
WIDTH 182
HEIGHT 1
VIEWPOINT 0 0 0 1 0 0 0
POINTS 182
DATA ascii
22.700368 -20.268285 76.075295 0.660115 -0.572640 0.486139 1.7962614429870884e-38
23.391963 -19.552802 74.739847 0.674023 -0.556203 0.486139 1.7962614429870884e-38
22.195649 -21.267407 77.072141 0.644806 -0.617584 0.450350 1.7962614429870884e-38
21.761603 -20.712485 76.374939 0.659826 -0.601511 0.450350 1.7962614429870884e-38
22.658485 -19.903481 76.468944 0.674445 -0.585072 0.450350 1.7962614429870884e-38
22.896762 -19.397104 76.421178 0.688655 -0.568277 0.450350 1.7962614429870884e-38
23.709629 -18.738009 75.901471 0.702447 -0.551138 0.450350 1.7962614429870884e-38
20.506669 -21.339709 77.937042 0.627027 -0.662790 0.409324 1.7962614429870884e-38
20.847350 -20.899293 78.070611 0.643166 -0.647141 0.409324 1.7962614429870884e-38
21.211214 -20.462568 77.407755 0.658915 -0.631098 0.409324 1.7962614429870884e-38
22.178393 -20.193910 78.422781 0.674264 -0.614673 0.409324 1.7962614429870884e-38
22.178554 -18.937392 78.250812 0.689203 -0.597874 0.409324 1.7962614429870884e-38
23.008737 -18.734645 77.579748 0.703724 -0.580712 0.409324 1.7962614429870884e-38
23.120481 -18.277464 77.907494 0.717818 -0.563198 0.409324 1.7962614429870884e-38
23.247731 -17.692511 77.061347 0.731475 -0.545342 0.409324 1.7962614429870884e-38
18.824448 -22.232976 79.269589 0.623519 -0.692489 0.362882 1.7962614429870884e-38
19.593453 -21.191413 79.438246 0.640391 -0.676916 0.362882 1.7962614429870884e-38
20.586551 -20.893526 79.331176 0.656874 -0.660933 0.362882 1.7962614429870884e-38
20.808720 -19.891388 79.169209 0.672959 -0.644549 0.362882 1.7962614429870884e-38
20.934557 -19.709486 78.451626 0.688635 -0.627773 0.362882 1.7962614429870884e-38
21.914977 -18.843673 78.963930 0.703892 -0.610617 0.362882 1.7962614429870884e-38
22.285271 -18.710646 79.552178 0.718723 -0.593089 0.362882 1.7962614429870884e-38
22.381205 -17.956238 78.785776 0.733117 -0.575202 0.362882 1.7962614429870884e-38
23.270625 -16.985125 78.552463 0.747066 -0.556965 0.362882 1.7962614429870884e-38
23.815484 -16.230277 79.213947 0.760561 -0.538390 0.362882 1.7962614429870884e-38
19.252865 -21.376813 80.119002 0.635945 -0.706289 0.311014 1.7962614429870884e-38
19.168773 -20.761940 80.895884 0.653153 -0.690406 0.311014 1.7962614429870884e-38
19.927233 -19.947957 80.328657 0.669965 -0.674105 0.311014 1.7962614429870884e-38
20.462252 -19.554603 79.952261 0.686370 -0.657394 0.311014 1.7962614429870884e-38
21.558594 -19.035511 80.727796 0.702358 -0.640284 0.311014 1.7962614429870884e-38
21.446986 -18.523153 80.692213 0.717920 -0.622785 0.311014 1.7962614429870884e-38
21.950635 -18.398057 80.129434 0.733046 -0.604909 0.311014 1.7962614429870884e-38
22.291159 -17.521018 80.363523 0.747727 -0.586665 0.311014 1.7962614429870884e-38
22.697725 -16.828044 80.274052 0.761954 -0.568064 0.311014 1.7962614429870884e-38
23.077946 -16.181636 80.577539 0.775718 -0.549119 0.311014 1.7962614429870884e-38
23.288276 -16.284706 80.080051 0.789011 -0.529841 0.311014 1.7962614429870884e-38
18.111401 -21.543456 81.844440 0.629290 -0.734510 0.253947 1.7962614429870884e-38
18.784957 -20.456045 81.293790 0.647195 -0.718783 0.253947 1.7962614429870884e-38
19.686549 -20.602443 81.612672 0.664708 -0.702620 0.253947 1.7962614429870884e-38
19.957359 -19.664028 81.949058 0.681817 -0.686030 0.253947 1.7962614429870884e-38
20.608547 -19.539718 82.173208 0.698512 -0.669023 0.253947 1.7962614429870884e-38
20.952419 -19.853624 81.647226 0.714783 -0.651611 0.253947 1.7962614429870884e-38
21.122114 -18.538942 81.828370 0.730620 -0.633802 0.253947 1.7962614429870884e-38
21.776312 -18.118649 82.088392 0.746013 -0.615609 0.253947 1.7962614429870884e-38
21.733267 -17.781565 81.311664 0.760954 -0.597043 0.253947 1.7962614429870884e-38
22.673166 -16.715037 81.393783 0.775433 -0.578114 0.253947 1.7962614429870884e-38
22.768714 -16.265758 81.316935 0.789441 -0.558833 0.253947 1.7962614429870884e-38
23.580315 -15.224056 81.584229 0.802969 -0.539214 0.253947 1.7962614429870884e-38
23.824020 -15.081245 82.047771 0.816010 -0.519267 0.253947 1.7962614429870884e-38
18.423870 -21.303603 83.063557 0.638488 -0.745246 0.192202 1.7962614429870884e-38
18.570350 -20.117235 83.321149 0.656655 -0.729289 0.192202 1.7962614429870884e-38
19.776163 -19.732314 82.846309 0.674423 -0.712889 0.192202 1.7962614429870884e-38
19.469060 -20.091161 82.966466 0.691782 -0.696057 0.192202 1.7962614429870884e-38
20.117192 -19.273828 82.637874 0.708722 -0.678802 0.192202 1.7962614429870884e-38
20.686620 -18.874183 82.741839 0.725230 -0.661135 0.192202 1.7962614429870884e-38
21.083433 -18.270290 82.458744 0.741299 -0.643066 0.192202 1.7962614429870884e-38
21.241125 -17.563376 82.872279 0.756917 -0.624607 0.192202 1.7962614429870884e-38
21.324809 -16.978990 82.871766 0.772076 -0.605769 0.192202 1.7962614429870884e-38
22.005887 -16.844342 82.936165 0.786767 -0.586563 0.192202 1.7962614429870884e-38
22.065100 -15.962441 83.182619 0.800979 -0.567001 0.192202 1.7962614429870884e-38
23.384342 -15.177487 82.652617 0.814706 -0.547095 0.192202 1.7962614429870884e-38
23.802811 -14.867807 82.636007 0.827937 -0.526857 0.192202 1.7962614429870884e-38
17.708557 -20.793754 83.997123 0.626626 -0.768964 0.126626 1.7962614429870884e-38
17.901251 -21.243186 84.077663 0.645381 -0.753292 0.126626 1.7962614429870884e-38
17.910407 -20.214885 83.723462 0.663744 -0.737163 0.126626 1.7962614429870884e-38
18.757181 -20.057550 84.536941 0.681705 -0.720586 0.126626 1.7962614429870884e-38
19.231815 -19.664511 84.211768 0.699251 -0.703572 0.126626 1.7962614429870884e-38
19.763807 -19.158567 83.646562 0.716373 -0.686131 0.126626 1.7962614429870884e-38
20.272040 -18.255586 84.368411 0.733060 -0.668273 0.126626 1.7962614429870884e-38
20.749882 -18.419640 84.060003 0.749302 -0.650009 0.126626 1.7962614429870884e-38
20.883900 -17.654745 84.000701 0.765089 -0.631351 0.126626 1.7962614429870884e-38
21.616057 -17.107376 84.284745 0.780412 -0.612309 0.126626 1.7962614429870884e-38
21.852282 -16.236688 84.461286 0.795261 -0.592896 0.126626 1.7962614429870884e-38
23.224177 -15.884007 84.565622 0.809627 -0.573123 0.126626 1.7962614429870884e-38
23.243872 -15.355000 83.758588 0.823501 -0.553002 0.126626 1.7962614429870884e-38
16.660036 -21.967665 85.337437 0.611376 -0.789184 0.058377 1.7962614429870884e-38
17.563514 -21.463661 85.707348 0.630634 -0.773882 0.058377 1.7962614429870884e-38
18.436668 -21.170266 85.717356 0.649509 -0.758110 0.058377 1.7962614429870884e-38
18.416063 -20.344847 85.320647 0.667989 -0.741877 0.058377 1.7962614429870884e-38
19.285635 -19.894792 85.256514 0.686065 -0.725195 0.058377 1.7962614429870884e-38
19.281661 -19.887179 85.189342 0.703723 -0.708072 0.058377 1.7962614429870884e-38
20.248177 -18.717833 85.168801 0.720955 -0.690519 0.058377 1.7962614429870884e-38
20.015805 -18.261577 85.489565 0.737749 -0.672547 0.058377 1.7962614429870884e-38
20.203171 -17.176307 85.364321 0.754095 -0.654166 0.058377 1.7962614429870884e-38
21.744639 -17.470129 85.048603 0.769983 -0.635389 0.058377 1.7962614429870884e-38
21.717614 -17.434183 85.323047 0.785403 -0.616226 0.058377 1.7962614429870884e-38
21.745104 -16.516449 85.435226 0.800347 -0.596688 0.058377 1.7962614429870884e-38
22.558881 -16.344289 85.167382 0.814805 -0.576788 0.058377 1.7962614429870884e-38
22.262719 -15.161649 85.421668 0.828768 -0.556539 0.058377 1.7962614429870884e-38
16.741036 -21.720520 86.610541 0.612183 -0.790227 0.027806 1.7962614429870884e-38
17.116057 -21.326721 86.190120 0.631467 -0.774904 0.027806 1.7962614429870884e-38
17.745503 -21.215540 86.334947 0.650367 -0.759111 0.027806 1.7962614429870884e-38
17.721974 -20.563213 86.743601 0.668872 -0.742857 0.027806 1.7962614429870884e-38
18.950455 -19.649753 86.312127 0.686971 -0.726153 0.027806 1.7962614429870884e-38
19.239903 -19.228141 86.571961 0.704653 -0.709007 0.027806 1.7962614429870884e-38
19.913639 -18.385549 86.521676 0.721907 -0.691431 0.027806 1.7962614429870884e-38
20.175468 -18.822668 86.511174 0.738723 -0.673435 0.027806 1.7962614429870884e-38
21.077476 -17.846428 87.027710 0.755091 -0.655030 0.027806 1.7962614429870884e-38
21.316823 -18.173539 86.786663 0.771000 -0.636228 0.027806 1.7962614429870884e-38
21.664596 -16.972938 86.963407 0.786441 -0.617040 0.027806 1.7962614429870884e-38
21.962627 -16.261409 86.274915 0.801404 -0.597476 0.027806 1.7962614429870884e-38
21.987688 -16.066831 86.503834 0.815881 -0.577550 0.027806 1.7962614429870884e-38
16.306109 -22.101789 87.786840 0.581262 -0.789762 0.195984 1.7962614429870884e-38
17.027522 -21.717430 87.695443 0.600544 -0.775202 0.195984 1.7962614429870884e-38
17.001649 -21.474649 88.103025 0.619460 -0.760171 0.195984 1.7962614429870884e-38
17.652478 -20.607662 88.025852 0.638001 -0.744678 0.195984 1.7962614429870884e-38
18.017886 -20.567944 88.008231 0.656154 -0.728733 0.195984 1.7962614429870884e-38
18.842138 -19.925920 87.973567 0.673909 -0.712346 0.195984 1.7962614429870884e-38
19.587630 -19.414732 87.664388 0.691255 -0.695526 0.195984 1.7962614429870884e-38
19.791256 -19.163470 87.877870 0.708181 -0.678284 0.195984 1.7962614429870884e-38
20.216853 -18.674330 87.713622 0.724677 -0.660631 0.195984 1.7962614429870884e-38
20.566931 -17.705946 87.572516 0.740734 -0.642576 0.195984 1.7962614429870884e-38
20.856743 -17.523428 88.004238 0.756340 -0.624131 0.195984 1.7962614429870884e-38
21.740337 -16.807658 88.049503 0.771488 -0.605307 0.195984 1.7962614429870884e-38
22.280313 -16.303593 87.594562 0.786167 -0.586116 0.195984 1.7962614429870884e-38
22.304603 -16.214051 87.953468 0.800368 -0.566569 0.195984 1.7962614429870884e-38
15.815679 -21.512934 88.880192 0.557051 -0.756866 0.341830 1.7962614429870884e-38
16.532965 -21.612599 89.257962 0.575529 -0.742912 0.341830 1.7962614429870884e-38
17.464004 -20.877516 89.232827 0.593658 -0.728507 0.341830 1.7962614429870884e-38
17.730776 -20.583154 89.464380 0.611426 -0.713660 0.341830 1.7962614429870884e-38
17.915316 -20.541173 88.795747 0.628823 -0.698379 0.341830 1.7962614429870884e-38
18.744317 -19.734232 89.100007 0.645839 -0.682674 0.341830 1.7962614429870884e-38
18.965739 -19.100668 89.400171 0.662462 -0.666555 0.341830 1.7962614429870884e-38
19.961113 -18.970890 89.351773 0.678683 -0.650032 0.341830 1.7962614429870884e-38
20.016777 -18.560863 89.220438 0.694492 -0.633113 0.341830 1.7962614429870884e-38
20.954498 -17.918095 89.003551 0.709880 -0.615811 0.341830 1.7962614429870884e-38
20.347990 -17.223729 89.120222 0.724836 -0.598134 0.341830 1.7962614429870884e-38
21.839072 -16.950579 89.361341 0.739353 -0.580094 0.341830 1.7962614429870884e-38
21.741392 -15.471534 89.124731 0.753420 -0.561703 0.341830 1.7962614429870884e-38
15.080428 -21.798891 90.528877 0.509640 -0.729434 0.456281 1.7962614429870884e-38
16.106046 -20.947212 90.219206 0.527457 -0.716657 0.456281 1.7962614429870884e-38
16.156398 -21.011876 90.626076 0.544953 -0.703444 0.456281 1.7962614429870884e-38
16.599718 -21.090547 90.454027 0.562119 -0.689804 0.456281 1.7962614429870884e-38
17.375511 -20.217034 90.865229 0.578943 -0.675746 0.456281 1.7962614429870884e-38
17.543919 -19.239855 89.907572 0.595416 -0.661277 0.456281 1.7962614429870884e-38
18.268629 -19.465546 90.287356 0.611528 -0.646407 0.456281 1.7962614429870884e-38
18.882263 -18.939980 90.099908 0.627268 -0.631144 0.456281 1.7962614429870884e-38
19.043785 -17.175900 90.369958 0.642627 -0.615498 0.456281 1.7962614429870884e-38
19.598648 -17.696932 89.794459 0.657597 -0.599479 0.456281 1.7962614429870884e-38
20.265265 -17.126773 89.774117 0.672167 -0.583095 0.456281 1.7962614429870884e-38
21.131477 -16.841525 89.974246 0.686329 -0.566358 0.456281 1.7962614429870884e-38
20.912998 -16.607125 89.826164 0.700074 -0.549276 0.456281 1.7962614429870884e-38
21.133268 -15.884851 89.836911 0.713394 -0.531862 0.456281 1.7962614429870884e-38
14.692216 -20.514214 91.600966 0.482210 -0.690175 0.539567 1.7962614429870884e-38
15.358396 -20.894279 91.542376 0.499068 -0.678085 0.539567 1.7962614429870884e-38
15.702667 -20.260474 92.043535 0.515623 -0.665583 0.539567 1.7962614429870884e-38
16.135955 -20.194816 91.523732 0.531865 -0.652677 0.539567 1.7962614429870884e-38
17.038898 -19.653205 91.626355 0.547783 -0.639376 0.539567 1.7962614429870884e-38
17.380880 -18.487265 91.823148 0.563370 -0.625686 0.539567 1.7962614429870884e-38
17.431817 -19.360162 91.591506 0.578614 -0.611616 0.539567 1.7962614429870884e-38
17.937508 -18.406931 91.247594 0.593507 -0.597174 0.539567 1.7962614429870884e-38
18.441873 -17.966074 91.511683 0.608040 -0.582371 0.539567 1.7962614429870884e-38
18.824736 -17.560141 91.705397 0.622203 -0.567213 0.539567 1.7962614429870884e-38
19.447360 -16.869632 91.531575 0.635989 -0.551712 0.539567 1.7962614429870884e-38
19.589366 -15.955659 92.156086 0.649389 -0.535875 0.539567 1.7962614429870884e-38
20.627131 -16.421745 91.347903 0.662394 -0.519713 0.539567 1.7962614429870884e-38
20.853379 -15.613642 91.336074 0.674998 -0.503236 0.539567 1.7962614429870884e-38
15.635625 -20.371036 93.140994 0.491635 -0.634619 0.596283 1.7962614429870884e-38
15.729547 -20.022289 92.884490 0.507121 -0.622314 0.596283 1.7962614429870884e-38
16.145170 -19.034128 92.702545 0.522299 -0.609631 0.596283 1.7962614429870884e-38
16.647135 -18.501421 92.340806 0.537161 -0.596577 0.596283 1.7962614429870884e-38
17.224309 -18.192832 93.259566 0.551696 -0.583162 0.596283 1.7962614429870884e-38
17.801685 -17.360295 93.341988 0.565896 -0.569393 0.596283 1.7962614429870884e-38
18.194044 -17.258364 92.015950 0.579752 -0.555278 0.596283 1.7962614429870884e-38
18.464178 -16.247211 93.051896 0.593257 -0.540825 0.596283 1.7962614429870884e-38
18.647148 -16.290261 92.616754 0.606402 -0.526045 0.596283 1.7962614429870884e-38
19.287214 -15.993221 93.215316 0.619178 -0.510945 0.596283 1.7962614429870884e-38
19.616026 -15.285084 92.535031 0.631578 -0.495535 0.596283 1.7962614429870884e-38
15.654405 -18.242883 93.891299 0.518847 -0.576238 0.631464 1.7962614429870884e-38
16.473235 -17.225896 94.366765 0.532887 -0.563280 0.631464 1.7962614429870884e-38
16.217361 -16.459967 93.775090 0.546603 -0.549980 0.631464 1.7962614429870884e-38
17.191719 -16.539012 93.369505 0.559987 -0.536346 0.631464 1.7962614429870884e-38
17.547937 -15.817708 94.210046 0.573031 -0.522387 0.631464 1.7962614429870884e-38
17.919205 -15.610987 94.159078 0.585728 -0.508110 0.631464 1.7962614429870884e-38
18.372411 -15.077211 93.780485 0.598068 -0.493525 0.631464 1.7962614429870884e-38
18.535946 -14.854871 93.296332 0.610046 -0.478641 0.631464 1.7962614429870884e-38
16.321787 -14.913121 95.525320 0.549529 -0.526330 0.648841 1.7962614429870884e-38
16.936184 -15.492659 95.660359 0.562330 -0.512631 0.648841 1.7962614429870884e-38
17.079780 -15.126676 95.739915 0.574789 -0.498621 0.648841 1.7962614429870884e-38
17.539321 -14.706396 95.059009 0.586899 -0.484309 0.648841 1.7962614429870884e-38
16.394497 -14.100622 96.226282 0.573792 -0.497757 0.650385 1.7962614429870884e-38
17.503131 -13.885882 95.951748 0.585882 -0.483469 0.650385 1.7962614429870884e-38
