# .PCD v0.7 - Point Cloud Data file format
VERSION 0.7
FIELDS x y z normal_x normal_y normal_z rgb
SIZE 4 4 4 4 4 4 4
TYPE F F F F F F F
COUNT 1 1 1 1 1 1 1
WIDTH 291
HEIGHT 1
VIEWPOINT 0 0 0 1 0 0 0
POINTS 291
DATA ascii
44.123843 20.740816 35.680150 0.777075 0.369178 -0.509767 1.7962614429870884e-38
42.783395 21.740503 35.263892 0.767744 0.388211 -0.509767 1.7962614429870884e-38
45.694055 17.224146 37.577459 0.840050 0.325437 -0.434059 1.7962614429870884e-38
45.329982 18.721315 37.253690 0.831777 0.346035 -0.434059 1.7962614429870884e-38
44.806348 19.449002 37.616750 0.822999 0.366423 -0.434059 1.7962614429870884e-38
44.226435 20.731277 36.784425 0.813721 0.386588 -0.434059 1.7962614429870884e-38
43.848236 22.085553 37.258182 0.803950 0.406519 -0.434059 1.7962614429870884e-38
43.004315 22.787711 37.265987 0.793690 0.426203 -0.434059 1.7962614429870884e-38
47.057590 14.192115 38.491865 0.898591 0.273718 -0.342947 1.7962614429870884e-38
46.627111 15.203412 38.340791 0.891574 0.295774 -0.342947 1.7962614429870884e-38
46.409793 16.555465 38.083128 0.884017 0.317651 -0.342947 1.7962614429870884e-38
45.879434 17.678335 38.168006 0.875922 0.339334 -0.342947 1.7962614429870884e-38
45.626693 19.614928 38.750045 0.867296 0.360812 -0.342947 1.7962614429870884e-38
45.645687 19.893082 38.852922 0.858143 0.382070 -0.342947 1.7962614429870884e-38
44.623305 21.463449 38.487827 0.848470 0.403096 -0.342947 1.7962614429870884e-38
43.917103 22.474688 38.495995 0.838281 0.423878 -0.342947 1.7962614429870884e-38
42.927864 23.299388 38.612237 0.827583 0.444403 -0.342947 1.7962614429870884e-38
42.953400 24.541085 38.125088 0.816383 0.464657 -0.342947 1.7962614429870884e-38
48.493400 12.090893 39.894584 0.942197 0.236972 -0.236874 1.7962614429870884e-38
47.852159 13.430575 39.666683 0.936072 0.260113 -0.236874 1.7962614429870884e-38
47.649094 14.988875 39.100302 0.929380 0.283097 -0.236874 1.7962614429870884e-38
47.155999 15.709910 39.602115 0.922123 0.305909 -0.236874 1.7962614429870884e-38
46.657239 16.647657 40.046633 0.914306 0.328534 -0.236874 1.7962614429870884e-38
46.327081 18.686810 39.746111 0.905934 0.350961 -0.236874 1.7962614429870884e-38
45.804956 19.257683 39.620309 0.897013 0.373174 -0.236874 1.7962614429870884e-38
45.810147 19.866426 39.047273 0.887546 0.395161 -0.236874 1.7962614429870884e-38
45.003969 21.580041 39.673401 0.877541 0.416908 -0.236874 1.7962614429870884e-38
44.558289 22.586603 39.143509 0.867003 0.438402 -0.236874 1.7962614429870884e-38
43.874861 23.910030 39.639159 0.855939 0.459629 -0.236874 1.7962614429870884e-38
42.804860 24.486587 39.754656 0.844355 0.480578 -0.236874 1.7962614429870884e-38
43.117669 25.056662 39.695999 0.832258 0.501235 -0.236874 1.7962614429870884e-38
49.682123 8.718735 41.323286 0.978202 0.170413 -0.118656 1.7962614429870884e-38
48.783192 9.738238 40.550037 0.973707 0.194462 -0.118656 1.7962614429870884e-38
48.717469 11.062760 40.832553 0.968620 0.218393 -0.118656 1.7962614429870884e-38
48.279440 12.031327 40.928293 0.962946 0.242191 -0.118656 1.7962614429870884e-38
48.059149 13.022291 40.255556 0.956686 0.265842 -0.118656 1.7962614429870884e-38
47.584337 14.134326 40.574071 0.949846 0.289331 -0.118656 1.7962614429870884e-38
47.263043 15.677518 40.624941 0.942430 0.312645 -0.118656 1.7962614429870884e-38
47.645676 16.505814 41.187506 0.934441 0.335769 -0.118656 1.7962614429870884e-38
46.509300 17.839435 41.001015 0.925885 0.358690 -0.118656 1.7962614429870884e-38
45.963696 18.936200 41.361685 0.916766 0.381392 -0.118656 1.7962614429870884e-38
44.954724 20.234781 40.881764 0.907092 0.403863 -0.118656 1.7962614429870884e-38
45.521279 21.306339 41.623047 0.896866 0.426089 -0.118656 1.7962614429870884e-38
44.785040 21.820298 40.388637 0.886096 0.448056 -0.118656 1.7962614429870884e-38
44.059765 23.278265 40.989092 0.874788 0.469751 -0.118656 1.7962614429870884e-38
43.257242 24.339216 40.535365 0.862949 0.491161 -0.118656 1.7962614429870884e-38
43.027267 25.152743 41.138325 0.850586 0.512273 -0.118656 1.7962614429870884e-38
42.446419 26.706173 40.403409 0.837707 0.533074 -0.118656 1.7962614429870884e-38
49.663160 6.482447 42.421191 0.992414 0.122888 0.003484 1.7962614429870884e-38
49.117280 7.308976 41.403803 0.989086 0.147301 0.003484 1.7962614429870884e-38
49.290761 8.760560 42.533144 0.985156 0.171625 0.003484 1.7962614429870884e-38
48.495696 9.465834 42.105097 0.980629 0.195844 0.003484 1.7962614429870884e-38
48.289977 11.048958 42.248756 0.975506 0.219945 0.003484 1.7962614429870884e-38
48.105356 12.235435 41.698192 0.969791 0.243912 0.003484 1.7962614429870884e-38
48.587181 13.448615 41.869836 0.963487 0.267731 0.003484 1.7962614429870884e-38
47.458675 14.686201 42.469236 0.956599 0.291388 0.003484 1.7962614429870884e-38
47.225194 15.611552 41.836213 0.949129 0.314868 0.003484 1.7962614429870884e-38
47.521009 16.335285 42.447534 0.941084 0.338156 0.003484 1.7962614429870884e-38
46.510352 18.040560 41.959665 0.932467 0.361239 0.003484 1.7962614429870884e-38
46.236236 18.986306 42.379371 0.923284 0.384103 0.003484 1.7962614429870884e-38
46.006874 20.041766 42.262096 0.913540 0.406734 0.003484 1.7962614429870884e-38
45.055314 21.471474 42.519401 0.903242 0.429118 0.003484 1.7962614429870884e-38
44.417723 22.840119 42.198993 0.892395 0.451241 0.003484 1.7962614429870884e-38
43.992306 23.764848 42.136379 0.881007 0.473091 0.003484 1.7962614429870884e-38
43.106848 24.550722 41.748280 0.869084 0.494653 0.003484 1.7962614429870884e-38
42.748826 26.199346 42.236164 0.856633 0.515915 0.003484 1.7962614429870884e-38
41.753490 26.761262 42.131943 0.843662 0.536863 0.003484 1.7962614429870884e-38
41.732339 27.679182 41.690626 0.830179 0.557486 0.003484 1.7962614429870884e-38
49.410371 2.030406 43.078512 0.996131 0.049129 0.072865 1.7962614429870884e-38
49.731446 3.789304 43.489997 0.994618 0.073656 0.072865 1.7962614429870884e-38
50.449926 4.693774 43.204772 0.992502 0.098139 0.072865 1.7962614429870884e-38
49.360705 6.462396 43.639154 0.989782 0.122562 0.072865 1.7962614429870884e-38
49.273318 7.977814 43.086299 0.986462 0.146910 0.072865 1.7962614429870884e-38
49.520307 9.009491 42.890495 0.982544 0.171169 0.072865 1.7962614429870884e-38
49.158464 8.965460 43.546233 0.978028 0.195325 0.072865 1.7962614429870884e-38
48.398795 11.157115 43.525466 0.972919 0.219362 0.072865 1.7962614429870884e-38
48.779838 12.451169 43.315738 0.967219 0.243265 0.072865 1.7962614429870884e-38
48.014764 13.351620 42.964169 0.960932 0.267021 0.072865 1.7962614429870884e-38
47.721291 14.468442 43.062504 0.954062 0.290615 0.072865 1.7962614429870884e-38
46.889320 15.345447 42.353936 0.946612 0.314033 0.072865 1.7962614429870884e-38
46.917412 17.000006 42.494199 0.938588 0.337259 0.072865 1.7962614429870884e-38
46.650348 18.008188 42.945942 0.929994 0.360281 0.072865 1.7962614429870884e-38
45.991252 19.502290 43.006712 0.920835 0.383085 0.072865 1.7962614429870884e-38
45.657549 20.421497 43.052307 0.911117 0.405655 0.072865 1.7962614429870884e-38
45.421951 21.556806 43.223396 0.900846 0.427980 0.072865 1.7962614429870884e-38
45.286626 22.844549 42.793121 0.890028 0.450045 0.072865 1.7962614429870884e-38
43.892028 24.372206 43.004315 0.878670 0.471836 0.072865 1.7962614429870884e-38
43.433080 25.078602 43.494666 0.866779 0.493341 0.072865 1.7962614429870884e-38
43.030168 25.992671 43.306587 0.854361 0.514546 0.072865 1.7962614429870884e-38
41.905602 26.948267 43.178136 0.841425 0.535440 0.072865 1.7962614429870884e-38
41.325376 28.292742 43.184670 0.827977 0.556008 0.072865 1.7962614429870884e-38
41.282928 28.938286 43.251225 0.814027 0.576238 0.072865 1.7962614429870884e-38
50.022361 2.547057 44.552412 0.988856 0.048770 0.140662 1.7962614429870884e-38
50.239798 4.420575 44.473902 0.987354 0.073118 0.140662 1.7962614429870884e-38
49.624912 4.736519 44.185296 0.985253 0.097422 0.140662 1.7962614429870884e-38
49.580687 6.197103 44.053016 0.982554 0.121666 0.140662 1.7962614429870884e-38
49.412710 7.423418 44.355709 0.979258 0.145837 0.140662 1.7962614429870884e-38
48.880194 8.677415 45.018747 0.975367 0.169919 0.140662 1.7962614429870884e-38
48.974114 9.991041 44.286424 0.970885 0.193898 0.140662 1.7962614429870884e-38
48.475099 11.139991 44.128579 0.965813 0.217760 0.140662 1.7962614429870884e-38
48.376822 12.299652 44.524522 0.960155 0.241489 0.140662 1.7962614429870884e-38
48.096422 13.355632 44.349434 0.953914 0.265071 0.140662 1.7962614429870884e-38
47.303987 14.489756 44.927434 0.947094 0.288493 0.140662 1.7962614429870884e-38
47.592608 15.583001 44.426251 0.939698 0.311739 0.140662 1.7962614429870884e-38
46.752549 16.714953 44.622407 0.931733 0.334796 0.140662 1.7962614429870884e-38
46.772413 18.675671 44.287128 0.923201 0.357650 0.140662 1.7962614429870884e-38
46.193025 19.298602 44.437159 0.914109 0.380287 0.140662 1.7962614429870884e-38
45.204446 20.345971 45.172046 0.904463 0.402693 0.140662 1.7962614429870884e-38
45.079910 21.142344 44.488903 0.894267 0.424854 0.140662 1.7962614429870884e-38
44.116772 22.486243 44.741105 0.883528 0.446758 0.140662 1.7962614429870884e-38
43.683682 22.592535 44.619147 0.872253 0.468390 0.140662 1.7962614429870884e-38
43.146988 24.418236 44.308292 0.860448 0.489738 0.140662 1.7962614429870884e-38
42.797235 25.580323 44.815216 0.848121 0.510788 0.140662 1.7962614429870884e-38
42.316692 26.665160 44.379823 0.835279 0.531529 0.140662 1.7962614429870884e-38
41.397548 27.730148 44.010328 0.821930 0.551947 0.140662 1.7962614429870884e-38
41.236638 28.998622 44.397037 0.808082 0.572029 0.140662 1.7962614429870884e-38
49.313892 2.063831 45.776752 0.977465 0.048208 0.205519 1.7962614429870884e-38
49.792572 3.806339 45.619746 0.975981 0.072276 0.205519 1.7962614429870884e-38
49.148741 4.654636 46.373081 0.973904 0.096300 0.205519 1.7962614429870884e-38
49.245905 6.155361 45.139857 0.971235 0.120265 0.205519 1.7962614429870884e-38
48.706086 7.293123 45.623747 0.967978 0.144157 0.205519 1.7962614429870884e-38
48.905383 8.548844 45.953332 0.964132 0.167962 0.205519 1.7962614429870884e-38
48.080148 9.382649 45.743312 0.959701 0.191665 0.205519 1.7962614429870884e-38
48.192577 10.816573 45.805904 0.954688 0.215251 0.205519 1.7962614429870884e-38
47.879844 12.156153 45.936391 0.949095 0.238707 0.205519 1.7962614429870884e-38
47.810171 13.496161 45.121313 0.942925 0.262018 0.205519 1.7962614429870884e-38
47.273146 14.721050 45.513890 0.936184 0.285169 0.205519 1.7962614429870884e-38
46.778442 15.580105 45.768000 0.928874 0.308148 0.205519 1.7962614429870884e-38
46.518973 17.326209 45.859143 0.921000 0.330940 0.205519 1.7962614429870884e-38
45.981100 17.486255 45.894869 0.912567 0.353530 0.205519 1.7962614429870884e-38
45.518495 19.697984 45.901579 0.903580 0.375906 0.205519 1.7962614429870884e-38
45.481162 20.249329 46.109667 0.894044 0.398054 0.205519 1.7962614429870884e-38
44.083757 20.924019 46.083437 0.883966 0.419960 0.205519 1.7962614429870884e-38
44.714528 22.011770 45.227607 0.873351 0.441611 0.205519 1.7962614429870884e-38
43.749730 23.611745 45.817411 0.862205 0.462994 0.205519 1.7962614429870884e-38
43.090174 23.980086 45.660693 0.850537 0.484096 0.205519 1.7962614429870884e-38
42.422712 25.425795 45.197574 0.838351 0.504905 0.205519 1.7962614429870884e-38
42.022526 26.889085 45.534803 0.825657 0.525406 0.205519 1.7962614429870884e-38
41.122532 27.503205 45.627038 0.812462 0.545589 0.205519 1.7962614429870884e-38
40.632492 28.813610 46.095627 0.798774 0.565440 0.205519 1.7962614429870884e-38
49.604249 0.618211 47.101200 0.963586 0.023748 0.266341 1.7962614429870884e-38
48.864104 2.545747 46.966345 0.962709 0.047481 0.266341 1.7962614429870884e-38
48.722289 3.742253 47.077564 0.961247 0.071185 0.266341 1.7962614429870884e-38
48.991803 4.819806 47.058763 0.959201 0.094846 0.266341 1.7962614429870884e-38
49.280222 5.964147 47.314219 0.956573 0.118449 0.266341 1.7962614429870884e-38
48.751405 7.650757 46.939767 0.953365 0.141981 0.266341 1.7962614429870884e-38
48.369023 8.131917 47.000165 0.949577 0.165426 0.266341 1.7962614429870884e-38
48.107762 10.076612 46.748946 0.945213 0.188771 0.266341 1.7962614429870884e-38
47.886151 11.017775 47.366047 0.940275 0.212002 0.266341 1.7962614429870884e-38
48.030718 12.342656 46.986244 0.934767 0.235103 0.266341 1.7962614429870884e-38
47.480787 13.802879 47.517390 0.928691 0.258062 0.266341 1.7962614429870884e-38
47.375268 14.697621 47.267869 0.922051 0.280864 0.266341 1.7962614429870884e-38
46.430967 15.511310 47.459342 0.914851 0.303496 0.266341 1.7962614429870884e-38
46.612205 16.652271 47.462937 0.907096 0.325944 0.266341 1.7962614429870884e-38
46.082071 18.036043 47.122669 0.898790 0.348193 0.266341 1.7962614429870884e-38
45.680897 19.120379 47.400212 0.889939 0.370231 0.266341 1.7962614429870884e-38
45.467169 19.916963 47.116963 0.880547 0.392045 0.266341 1.7962614429870884e-38
44.911777 21.116362 46.617640 0.870621 0.413620 0.266341 1.7962614429870884e-38
43.723137 21.994652 46.872856 0.860166 0.434945 0.266341 1.7962614429870884e-38
43.210410 23.632447 46.927262 0.849189 0.456005 0.266341 1.7962614429870884e-38
43.224788 24.047657 46.904312 0.837696 0.476788 0.266341 1.7962614429870884e-38
42.263907 25.678168 47.353397 0.825695 0.497282 0.266341 1.7962614429870884e-38
41.431657 26.765779 46.505741 0.813193 0.517474 0.266341 1.7962614429870884e-38
41.189828 27.082149 47.144302 0.800197 0.537352 0.266341 1.7962614429870884e-38
40.577613 28.750667 46.518556 0.786715 0.556904 0.266341 1.7962614429870884e-38
48.845963 1.135797 48.286315 0.946334 0.023322 0.322349 1.7962614429870884e-38
48.613633 2.459710 47.920294 0.945472 0.046630 0.322349 1.7962614429870884e-38
49.004783 3.828785 48.245687 0.944036 0.069910 0.322349 1.7962614429870884e-38
48.486314 4.906947 47.981129 0.942027 0.093148 0.322349 1.7962614429870884e-38
48.558213 5.965982 49.036395 0.939446 0.116329 0.322349 1.7962614429870884e-38
48.016890 6.405604 48.056149 0.936295 0.139439 0.322349 1.7962614429870884e-38
47.678127 8.177685 47.858141 0.932575 0.162464 0.322349 1.7962614429870884e-38
47.699959 9.261019 48.536308 0.928289 0.185391 0.322349 1.7962614429870884e-38
47.706149 11.082110 48.259567 0.923440 0.208206 0.322349 1.7962614429870884e-38
47.719714 11.841281 48.725788 0.918030 0.230894 0.322349 1.7962614429870884e-38
47.274054 12.863185 48.433168 0.912063 0.253442 0.322349 1.7962614429870884e-38
46.803906 14.193635 48.276229 0.905542 0.275836 0.322349 1.7962614429870884e-38
46.655755 14.767735 48.142141 0.898471 0.298062 0.322349 1.7962614429870884e-38
46.241597 16.616707 47.909508 0.890855 0.320108 0.322349 1.7962614429870884e-38
44.904935 18.181725 48.191298 0.882698 0.341959 0.322349 1.7962614429870884e-38
45.620252 19.028416 48.009339 0.874005 0.363603 0.322349 1.7962614429870884e-38
43.938961 19.758354 48.236250 0.864781 0.385025 0.322349 1.7962614429870884e-38
44.320813 20.658728 48.300825 0.855033 0.406215 0.322349 1.7962614429870884e-38
43.708306 22.370027 48.155381 0.844765 0.427157 0.322349 1.7962614429870884e-38
43.230737 23.229619 48.510099 0.833985 0.447840 0.322349 1.7962614429870884e-38
42.268667 23.276629 48.176364 0.822698 0.468252 0.322349 1.7962614429870884e-38
41.836271 24.890737 47.795004 0.810912 0.488379 0.322349 1.7962614429870884e-38
41.098630 26.228315 48.276051 0.798633 0.508209 0.322349 1.7962614429870884e-38
39.925873 26.745557 48.586289 0.785870 0.527731 0.322349 1.7962614429870884e-38
39.870352 28.263174 47.847446 0.772629 0.546933 0.322349 1.7962614429870884e-38
48.362794 2.232301 49.835565 0.926670 0.045703 0.373087 1.7962614429870884e-38
48.354848 2.925225 49.844222 0.925263 0.068520 0.373087 1.7962614429870884e-38
48.509941 4.948856 48.657914 0.923294 0.091295 0.373087 1.7962614429870884e-38
48.090787 6.223068 49.598386 0.920764 0.114015 0.373087 1.7962614429870884e-38
47.991902 7.406742 49.526329 0.917675 0.136666 0.373087 1.7962614429870884e-38
48.101030 8.365330 49.509191 0.914030 0.159234 0.373087 1.7962614429870884e-38
47.788271 9.370893 49.155363 0.909829 0.181705 0.373087 1.7962614429870884e-38
47.273442 10.835485 49.762145 0.905076 0.204065 0.373087 1.7962614429870884e-38
47.274626 11.799212 49.433125 0.899774 0.226302 0.373087 1.7962614429870884e-38
46.512247 13.049027 48.992199 0.893925 0.248402 0.373087 1.7962614429870884e-38
46.362889 14.975350 49.033377 0.887534 0.270350 0.373087 1.7962614429870884e-38
46.041149 15.371605 49.636476 0.880604 0.292135 0.373087 1.7962614429870884e-38
45.314219 16.541476 49.324184 0.873139 0.313742 0.373087 1.7962614429870884e-38
44.758365 17.790985 49.683921 0.865144 0.335159 0.373087 1.7962614429870884e-38
44.451667 18.450228 49.310532 0.856624 0.356372 0.373087 1.7962614429870884e-38
43.776393 19.938766 49.724512 0.847584 0.377369 0.373087 1.7962614429870884e-38
43.670642 20.786303 49.518945 0.838029 0.398136 0.373087 1.7962614429870884e-38
43.318127 21.462562 49.631069 0.827966 0.418663 0.373087 1.7962614429870884e-38
42.340288 23.130037 49.165072 0.817400 0.438934 0.373087 1.7962614429870884e-38
41.725119 23.962099 49.469385 0.806337 0.458940 0.373087 1.7962614429870884e-38
41.542919 24.733024 49.545381 0.794786 0.478667 0.373087 1.7962614429870884e-38
40.972335 26.365714 49.540046 0.782751 0.498103 0.373087 1.7962614429870884e-38
40.050042 26.611243 49.025458 0.770242 0.517237 0.373087 1.7962614429870884e-38
39.648952 28.236282 49.217470 0.757264 0.536056 0.373087 1.7962614429870884e-38
47.650608 4.288499 50.851739 0.903862 0.089374 0.418385 1.7962614429870884e-38
47.472891 5.746702 50.766535 0.901386 0.111616 0.418385 1.7962614429870884e-38
47.379177 7.019015 50.654393 0.898362 0.133790 0.418385 1.7962614429870884e-38
47.207764 8.328106 50.787041 0.894793 0.155882 0.418385 1.7962614429870884e-38
47.334944 9.221879 50.793087 0.890681 0.177881 0.418385 1.7962614429870884e-38
47.485201 10.528634 50.720996 0.886028 0.199771 0.418385 1.7962614429870884e-38
46.098462 11.475592 50.689740 0.880837 0.221539 0.418385 1.7962614429870884e-38
46.335405 13.025842 50.819532 0.875112 0.243174 0.418385 1.7962614429870884e-38
46.086456 13.665038 50.868324 0.868855 0.264661 0.418385 1.7962614429870884e-38
45.491258 15.127580 50.612954 0.862071 0.285987 0.418385 1.7962614429870884e-38
44.815754 15.841675 50.817851 0.854763 0.307139 0.418385 1.7962614429870884e-38
44.838048 17.273621 50.717205 0.846936 0.328105 0.418385 1.7962614429870884e-38
44.032528 18.559170 50.739837 0.838596 0.348872 0.418385 1.7962614429870884e-38
43.671944 19.752662 50.915155 0.829746 0.369427 0.418385 1.7962614429870884e-38
42.827323 20.580332 50.434179 0.820392 0.389757 0.418385 1.7962614429870884e-38
42.810117 20.680299 50.780793 0.810541 0.409851 0.418385 1.7962614429870884e-38
42.436068 22.639751 50.372234 0.800197 0.429697 0.418385 1.7962614429870884e-38
42.237962 24.053149 50.562331 0.789367 0.449281 0.418385 1.7962614429870884e-38
40.976037 24.131031 50.863670 0.778059 0.468593 0.418385 1.7962614429870884e-38
40.021941 25.929219 51.029432 0.766277 0.487620 0.418385 1.7962614429870884e-38
39.765456 26.398322 51.096355 0.754031 0.506351 0.418385 1.7962614429870884e-38
39.116854 27.717754 50.442189 0.741327 0.524775 0.418385 1.7962614429870884e-38
46.527089 9.294467 52.253274 0.871590 0.174068 0.458292 1.7962614429870884e-38
45.886415 10.866439 51.831965 0.867037 0.195489 0.458292 1.7962614429870884e-38
45.667701 11.650950 52.086729 0.861957 0.216791 0.458292 1.7962614429870884e-38
45.072164 12.524979 51.307148 0.856354 0.237962 0.458292 1.7962614429870884e-38
45.064474 13.598972 52.048001 0.850232 0.258988 0.458292 1.7962614429870884e-38
44.677386 14.734533 52.349929 0.843593 0.279857 0.458292 1.7962614429870884e-38
45.152255 15.725613 52.264540 0.836442 0.300556 0.458292 1.7962614429870884e-38
44.241576 16.572570 51.721412 0.828783 0.321072 0.458292 1.7962614429870884e-38
42.782332 18.273221 51.635726 0.820621 0.341394 0.458292 1.7962614429870884e-38
43.269784 20.018346 52.436704 0.811961 0.361508 0.458292 1.7962614429870884e-38
42.512183 20.003651 52.346657 0.802808 0.381403 0.458292 1.7962614429870884e-38
41.927575 21.650519 52.779523 0.793167 0.401066 0.458292 1.7962614429870884e-38
41.892735 22.742320 52.279172 0.783045 0.420486 0.458292 1.7962614429870884e-38
40.958763 23.494515 51.671832 0.772448 0.439651 0.458292 1.7962614429870884e-38
40.923687 24.088052 52.169059 0.761381 0.458549 0.458292 1.7962614429870884e-38
40.262431 25.257408 51.742464 0.749853 0.477168 0.458292 1.7962614429870884e-38
39.233977 26.113058 52.005682 0.737869 0.495498 0.458292 1.7962614429870884e-38
38.347914 27.087292 52.122834 0.725437 0.513526 0.458292 1.7962614429870884e-38
45.208133 12.929681 53.413471 0.838259 0.232933 0.493015 1.7962614429870884e-38
44.171185 13.277232 53.092077 0.832266 0.253515 0.493015 1.7962614429870884e-38
44.697551 14.506796 53.513456 0.825767 0.273943 0.493015 1.7962614429870884e-38
43.715630 15.935140 52.913868 0.818767 0.294205 0.493015 1.7962614429870884e-38
43.442434 16.512730 53.628806 0.811270 0.314288 0.493015 1.7962614429870884e-38
42.863723 17.454698 52.707981 0.803281 0.334180 0.493015 1.7962614429870884e-38
42.592000 18.837171 53.390493 0.794803 0.353869 0.493015 1.7962614429870884e-38
42.066672 20.368611 53.080251 0.785844 0.373344 0.493015 1.7962614429870884e-38
41.939149 20.765131 52.744876 0.776407 0.392592 0.493015 1.7962614429870884e-38
40.852925 21.731572 52.823687 0.766499 0.411601 0.493015 1.7962614429870884e-38
40.667793 22.996797 53.238409 0.756125 0.430361 0.493015 1.7962614429870884e-38
40.121119 23.562272 53.366855 0.745293 0.448859 0.493015 1.7962614429870884e-38
38.996189 24.872212 52.628239 0.734008 0.467085 0.493015 1.7962614429870884e-38
38.925126 25.500611 52.835844 0.722277 0.485027 0.493015 1.7962614429870884e-38
37.737967 26.914985 53.148096 0.710108 0.502675 0.493015 1.7962614429870884e-38
42.769375 16.456940 54.341453 0.794861 0.307931 0.522853 1.7962614429870884e-38
42.573060 17.545482 53.978307 0.787033 0.327420 0.522853 1.7962614429870884e-38
41.748851 18.658107 54.593677 0.778727 0.346712 0.522853 1.7962614429870884e-38
41.302676 19.616531 54.446467 0.769949 0.365792 0.522853 1.7962614429870884e-38
40.746176 20.693789 54.573153 0.760703 0.384651 0.522853 1.7962614429870884e-38
40.100495 21.816588 54.105898 0.750995 0.403276 0.522853 1.7962614429870884e-38
39.587836 22.515962 54.842615 0.740831 0.421656 0.522853 1.7962614429870884e-38
38.822620 23.551975 54.425055 0.730218 0.439780 0.522853 1.7962614429870884e-38
39.091697 25.237518 54.306382 0.719161 0.457637 0.522853 1.7962614429870884e-38
38.284201 25.571780 54.402698 0.707668 0.475217 0.522853 1.7962614429870884e-38
37.562080 26.055974 54.418625 0.695745 0.492508 0.522853 1.7962614429870884e-38
39.693350 19.664962 55.878116 0.746388 0.377412 0.548147 1.7962614429870884e-38
39.604544 21.493694 56.143105 0.736863 0.395687 0.548147 1.7962614429870884e-38
38.922511 21.825471 55.587184 0.726890 0.413721 0.548147 1.7962614429870884e-38
38.459019 23.278403 55.831513 0.716477 0.431504 0.548147 1.7962614429870884e-38
38.177023 24.245412 55.987551 0.705628 0.449026 0.548147 1.7962614429870884e-38
37.671663 25.107931 55.860678 0.694351 0.466274 0.548147 1.7962614429870884e-38
36.375458 26.397014 55.676760 0.682652 0.483240 0.548147 1.7962614429870884e-38
37.707094 22.646679 57.083866 0.704302 0.424172 0.569242 1.7962614429870884e-38
36.975751 23.830220 56.657354 0.693638 0.441396 0.569242 1.7962614429870884e-38
36.401986 24.369800 56.900079 0.682552 0.458351 0.569242 1.7962614429870884e-38
36.387413 25.393136 56.284423 0.671052 0.475028 0.569242 1.7962614429870884e-38
