# .PCD v0.7 - Point Cloud Data file format
VERSION 0.7
FIELDS x y z normal_x normal_y normal_z rgb
SIZE 4 4 4 4 4 4 4
TYPE F F F F F F F
COUNT 1 1 1 1 1 1 1
WIDTH 258
HEIGHT 1
VIEWPOINT 0 0 0 1 0 0 0
POINTS 258
DATA ascii
-4.884548 -15.637079 0.074300 -0.273662 -0.961822 -0.002570 1.5843200949324314e-38
-4.051896 -15.568430 -0.047755 -0.249882 -0.968273 -0.002570 1.5843200949324314e-38
-3.554204 -15.888778 0.212055 -0.225951 -0.974135 -0.002570 1.5843200949324314e-38
-3.031319 -15.555045 0.166960 -0.201882 -0.979407 -0.002570 1.5843200949324314e-38
-2.754130 -15.134859 -0.026128 -0.177690 -0.984083 -0.002570 1.5843200949324314e-38
-2.546391 -16.036706 -0.309679 -0.153391 -0.988162 -0.002570 1.5843200949324314e-38
-2.437329 -16.132954 -0.021204 -0.128999 -0.991641 -0.002570 1.5843200949324314e-38
-1.572167 -15.897008 -0.229661 -0.104528 -0.994519 -0.002570 1.5843200949324314e-38
-1.009853 -15.726901 -0.047894 -0.079994 -0.996792 -0.002570 1.5843200949324314e-38
-1.082458 -15.810889 0.056392 -0.055411 -0.998460 -0.002570 1.5843200949324314e-38
-0.927159 -16.012806 0.078611 -0.030795 -0.999522 -0.002570 1.5843200949324314e-38
-0.368468 -15.942743 -0.436447 -0.006160 -0.999978 -0.002570 1.5843200949324314e-38
0.696518 -15.622883 -0.075755 0.018479 -0.999826 -0.002570 1.5843200949324314e-38
0.798741 -16.708104 -0.346904 0.043106 -0.999067 -0.002570 1.5843200949324314e-38
0.995194 -16.284923 0.214319 0.067708 -0.997702 -0.002570 1.5843200949324314e-38
2.075483 -16.284731 -0.251239 0.092268 -0.995731 -0.002570 1.5843200949324314e-38
1.938998 -15.407204 -0.366712 0.116772 -0.993155 -0.002570 1.5843200949324314e-38
2.334009 -15.293294 -0.495528 0.141206 -0.989977 -0.002570 1.5843200949324314e-38
2.264541 -15.906294 -0.156177 0.165553 -0.986197 -0.002570 1.5843200949324314e-38
3.280598 -15.636663 -0.532489 0.189800 -0.981819 -0.002570 1.5843200949324314e-38
3.577552 -15.802835 0.382334 0.213932 -0.976845 -0.002570 1.5843200949324314e-38
3.618687 -15.731481 0.162339 0.237934 -0.971278 -0.002570 1.5843200949324314e-38
4.417564 -15.307556 -0.505679 0.261792 -0.965121 -0.002570 1.5843200949324314e-38
4.729276 -15.644392 0.070583 0.285491 -0.958378 -0.002570 1.5843200949324314e-38
4.517152 -15.083008 -0.241980 0.309016 -0.951053 -0.002570 1.5843200949324314e-38
-5.297918 -16.303542 1.606984 -0.192626 -0.677009 -0.710320 1.5843200949324314e-38
-4.991409 -16.216207 0.883113 -0.175887 -0.681549 -0.710320 1.5843200949324314e-38
-3.518420 -16.412036 1.358300 -0.159042 -0.685676 -0.710320 1.5843200949324314e-38
-3.189651 -15.746345 1.176231 -0.142101 -0.689386 -0.710320 1.5843200949324314e-38
-2.843934 -16.820547 1.594237 -0.125073 -0.692678 -0.710320 1.5843200949324314e-38
-2.780564 -16.611133 1.230439 -0.107969 -0.695549 -0.710320 1.5843200949324314e-38
-2.615390 -16.432169 1.527353 -0.090800 -0.697998 -0.710320 1.5843200949324314e-38
-1.651456 -17.025346 1.199971 -0.073575 -0.700023 -0.710320 1.5843200949324314e-38
-1.108482 -17.149902 0.914684 -0.056306 -0.701624 -0.710320 1.5843200949324314e-38
-0.659075 -16.533237 1.360705 -0.039003 -0.702798 -0.710320 1.5843200949324314e-38
0.045424 -16.491373 1.434480 -0.021676 -0.703545 -0.710320 1.5843200949324314e-38
0.710723 -16.703657 0.997749 -0.004336 -0.703866 -0.710320 1.5843200949324314e-38
0.435825 -16.505293 1.079099 0.013007 -0.703759 -0.710320 1.5843200949324314e-38
0.407566 -15.931411 1.335166 0.030342 -0.703225 -0.710320 1.5843200949324314e-38
0.906964 -16.326867 1.204370 0.047658 -0.702264 -0.710320 1.5843200949324314e-38
1.459465 -16.400167 0.849549 0.064946 -0.700877 -0.710320 1.5843200949324314e-38
2.048866 -15.952106 1.376967 0.082194 -0.699064 -0.710320 1.5843200949324314e-38
2.236783 -16.625235 1.114011 0.099392 -0.696827 -0.710320 1.5843200949324314e-38
2.678600 -16.523556 1.512007 0.116530 -0.694166 -0.710320 1.5843200949324314e-38
2.638295 -16.078762 1.123207 0.133597 -0.691085 -0.710320 1.5843200949324314e-38
3.672895 -16.592687 1.635703 0.150583 -0.687583 -0.710320 1.5843200949324314e-38
4.332892 -15.874075 0.782687 0.167478 -0.683665 -0.710320 1.5843200949324314e-38
4.604925 -15.938045 0.755532 0.184271 -0.679331 -0.710320 1.5843200949324314e-38
4.743243 -15.837941 1.403936 0.200952 -0.674585 -0.710320 1.5843200949324314e-38
5.195169 -15.738050 1.679197 0.217511 -0.669429 -0.710320 1.5843200949324314e-38
-4.670662 -17.777424 2.088388 -0.124981 -0.484290 -0.865935 1.5843200949324314e-38
-4.162734 -17.885986 1.827424 -0.113011 -0.487222 -0.865935 1.5843200949324314e-38
-3.984606 -17.876802 2.590344 -0.100973 -0.489858 -0.865935 1.5843200949324314e-38
-3.611596 -18.037390 2.780949 -0.088873 -0.492197 -0.865935 1.5843200949324314e-38
-2.585814 -18.188474 2.333834 -0.076720 -0.494237 -0.865935 1.5843200949324314e-38
-2.559470 -18.083481 2.532758 -0.064520 -0.495978 -0.865935 1.5843200949324314e-38
-1.732138 -18.237141 2.719856 -0.052281 -0.497417 -0.865935 1.5843200949324314e-38
-1.441707 -18.083076 2.735474 -0.040010 -0.498554 -0.865935 1.5843200949324314e-38
-1.259675 -18.891584 2.937275 -0.027714 -0.499388 -0.865935 1.5843200949324314e-38
-0.488935 -18.883006 2.260081 -0.015402 -0.499919 -0.865935 1.5843200949324314e-38
0.118359 -18.460930 2.320608 -0.003081 -0.500147 -0.865935 1.5843200949324314e-38
0.759858 -18.688424 2.234781 0.009242 -0.500071 -0.865935 1.5843200949324314e-38
0.855601 -18.243157 2.623130 0.021560 -0.499692 -0.865935 1.5843200949324314e-38
1.517667 -18.275630 2.621042 0.033865 -0.499009 -0.865935 1.5843200949324314e-38
1.617888 -18.280172 2.506487 0.046149 -0.498023 -0.865935 1.5843200949324314e-38
2.210505 -18.019888 2.640771 0.058405 -0.496735 -0.865935 1.5843200949324314e-38
2.608264 -18.435976 2.494528 0.070625 -0.495145 -0.865935 1.5843200949324314e-38
3.034040 -18.065827 3.136184 0.082803 -0.493255 -0.865935 1.5843200949324314e-38
3.330914 -17.916636 2.794765 0.094930 -0.491065 -0.865935 1.5843200949324314e-38
3.960929 -17.250555 2.360815 0.107000 -0.488577 -0.865935 1.5843200949324314e-38
4.469851 -18.089238 2.368769 0.119005 -0.485793 -0.865935 1.5843200949324314e-38
4.885746 -17.482557 2.569955 0.130937 -0.482713 -0.865935 1.5843200949324314e-38
5.624321 -17.641021 2.374576 0.142790 -0.479341 -0.865935 1.5843200949324314e-38
6.490117 -17.359652 2.258382 0.154557 -0.475677 -0.865935 1.5843200949324314e-38
-4.352559 -20.008601 3.930884 -0.102640 -0.442508 -0.890872 1.5843200949324314e-38
-4.382083 -20.605509 3.541024 -0.091706 -0.444902 -0.890872 1.5843200949324314e-38
-3.867742 -20.152963 4.004135 -0.080717 -0.447026 -0.890872 1.5843200949324314e-38
-3.224589 -20.044060 4.121881 -0.069679 -0.448879 -0.890872 1.5843200949324314e-38
-2.599654 -20.791988 4.183953 -0.058599 -0.450460 -0.890872 1.5843200949324314e-38
-2.183981 -20.567182 3.609459 -0.047483 -0.451767 -0.890872 1.5843200949324314e-38
-1.924300 -21.092726 3.901201 -0.036338 -0.452799 -0.890872 1.5843200949324314e-38
-1.383065 -19.768839 3.385518 -0.025171 -0.453557 -0.890872 1.5843200949324314e-38
-1.015243 -20.555662 4.170134 -0.013989 -0.454040 -0.890872 1.5843200949324314e-38
-0.108248 -20.546464 3.158276 -0.002798 -0.454247 -0.890872 1.5843200949324314e-38
0.179602 -21.037077 3.142826 0.008394 -0.454178 -0.890872 1.5843200949324314e-38
0.928198 -21.372120 3.314681 0.019581 -0.453833 -0.890872 1.5843200949324314e-38
1.241652 -20.920370 3.830263 0.030757 -0.453213 -0.890872 1.5843200949324314e-38
2.003339 -20.362009 3.937055 0.041913 -0.452317 -0.890872 1.5843200949324314e-38
2.761603 -20.577363 3.802380 0.053045 -0.451147 -0.890872 1.5843200949324314e-38
3.079038 -20.468438 3.592182 0.064144 -0.449704 -0.890872 1.5843200949324314e-38
3.330300 -20.677897 3.837825 0.075204 -0.447987 -0.890872 1.5843200949324314e-38
3.904195 -20.540872 3.512667 0.086218 -0.445998 -0.890872 1.5843200949324314e-38
4.069259 -19.945209 3.734926 0.097180 -0.443738 -0.890872 1.5843200949324314e-38
4.670827 -19.880951 3.543206 0.108083 -0.441209 -0.890872 1.5843200949324314e-38
5.002013 -19.689586 3.550211 0.118921 -0.438413 -0.890872 1.5843200949324314e-38
5.792296 -19.843896 4.054117 0.129686 -0.435350 -0.890872 1.5843200949324314e-38
6.408389 -20.064228 3.874503 0.140373 -0.432022 -0.890872 1.5843200949324314e-38
-4.654472 -22.330482 4.718805 -0.105415 -0.511407 -0.852849 1.5843200949324314e-38
-4.260287 -22.770599 4.392635 -0.092783 -0.513849 -0.852849 1.5843200949324314e-38
-3.269103 -22.367898 4.738050 -0.080095 -0.515979 -0.852849 1.5843200949324314e-38
-2.862204 -22.885052 5.046936 -0.067358 -0.517795 -0.852849 1.5843200949324314e-38
-2.592171 -23.136585 5.264076 -0.054580 -0.519298 -0.852849 1.5843200949324314e-38
-1.858832 -22.317209 4.962347 -0.041770 -0.520485 -0.852849 1.5843200949324314e-38
-1.552151 -22.594125 5.137694 -0.028934 -0.521356 -0.852849 1.5843200949324314e-38
-0.490149 -22.629453 4.752615 -0.016080 -0.521910 -0.852849 1.5843200949324314e-38
-0.179840 -23.048539 4.561230 -0.003216 -0.522148 -0.852849 1.5843200949324314e-38
0.345892 -22.592700 5.019655 0.009649 -0.522069 -0.852849 1.5843200949324314e-38
0.587526 -23.442916 5.447886 0.022508 -0.521673 -0.852849 1.5843200949324314e-38
1.530022 -23.138989 4.866256 0.035354 -0.520960 -0.852849 1.5843200949324314e-38
1.678753 -22.472509 4.830538 0.048179 -0.519931 -0.852849 1.5843200949324314e-38
3.095705 -22.824711 5.377313 0.060974 -0.518586 -0.852849 1.5843200949324314e-38
3.324403 -22.511141 5.164182 0.073732 -0.516926 -0.852849 1.5843200949324314e-38
3.994319 -22.575812 4.878598 0.086445 -0.514953 -0.852849 1.5843200949324314e-38
4.939589 -22.851586 4.949746 0.099106 -0.512667 -0.852849 1.5843200949324314e-38
4.924401 -22.344377 4.819612 0.111707 -0.510069 -0.852849 1.5843200949324314e-38
5.566348 -22.387728 4.473868 0.124240 -0.507162 -0.852849 1.5843200949324314e-38
6.023458 -22.525650 4.428138 0.136697 -0.503947 -0.852849 1.5843200949324314e-38
6.606666 -21.894046 5.106463 0.149072 -0.500427 -0.852849 1.5843200949324314e-38
-4.696813 -24.721309 5.731439 -0.154507 -0.749571 -0.643639 1.5843200949324314e-38
-4.404918 -24.317119 5.788252 -0.135992 -0.753150 -0.643639 1.5843200949324314e-38
-3.184841 -24.181835 6.328012 -0.117395 -0.756272 -0.643639 1.5843200949324314e-38
-3.376642 -24.144386 6.071437 -0.098727 -0.758935 -0.643639 1.5843200949324314e-38
-2.652883 -24.248450 5.696868 -0.079999 -0.761137 -0.643639 1.5843200949324314e-38
-1.486057 -24.432884 6.569850 -0.061222 -0.762877 -0.643639 1.5843200949324314e-38
-1.683882 -24.805534 5.836997 -0.042408 -0.764154 -0.643639 1.5843200949324314e-38
-0.681432 -24.534881 6.046243 -0.023568 -0.764967 -0.643639 1.5843200949324314e-38
-0.455548 -24.945840 6.171022 -0.004714 -0.765315 -0.643639 1.5843200949324314e-38
0.314283 -24.767815 6.649694 0.014142 -0.765199 -0.643639 1.5843200949324314e-38
1.034272 -24.162480 6.025591 0.032991 -0.764618 -0.643639 1.5843200949324314e-38
1.736770 -24.526595 5.676280 0.051819 -0.763573 -0.643639 1.5843200949324314e-38
2.695196 -24.502078 6.409492 0.070616 -0.762065 -0.643639 1.5843200949324314e-38
2.643068 -24.447714 5.925511 0.089370 -0.760094 -0.643639 1.5843200949324314e-38
3.839716 -24.226755 6.295683 0.108069 -0.757661 -0.643639 1.5843200949324314e-38
4.474506 -23.880428 6.415170 0.126703 -0.754769 -0.643639 1.5843200949324314e-38
4.236198 -24.328478 5.884401 0.145260 -0.751418 -0.643639 1.5843200949324314e-38
5.473810 -23.946380 5.768413 0.163729 -0.747611 -0.643639 1.5843200949324314e-38
5.788571 -24.309042 6.169620 0.182099 -0.743350 -0.643639 1.5843200949324314e-38
5.934677 -23.550906 6.298956 0.200358 -0.738638 -0.643639 1.5843200949324314e-38
-4.588134 -24.280947 6.918139 -0.177645 -0.983833 -0.022677 1.5843200949324314e-38
-3.801371 -24.231054 7.194497 -0.153352 -0.987911 -0.022677 1.5843200949324314e-38
-3.224661 -25.184827 7.910850 -0.128966 -0.991390 -0.022677 1.5843200949324314e-38
-2.638475 -24.851571 7.828971 -0.104502 -0.994266 -0.022677 1.5843200949324314e-38
-1.801615 -25.185089 7.228497 -0.079974 -0.996539 -0.022677 1.5843200949324314e-38
-1.236947 -25.151348 6.787507 -0.055397 -0.998207 -0.022677 1.5843200949324314e-38
-0.785926 -25.434731 7.907565 -0.030787 -0.999269 -0.022677 1.5843200949324314e-38
-0.100978 -25.273604 7.213091 -0.006158 -0.999724 -0.022677 1.5843200949324314e-38
-0.104800 -25.328095 7.727577 0.018474 -0.999572 -0.022677 1.5843200949324314e-38
1.747308 -24.761366 7.395068 0.043095 -0.998814 -0.022677 1.5843200949324314e-38
1.563283 -25.232098 8.040610 0.067691 -0.997449 -0.022677 1.5843200949324314e-38
2.250317 -24.261180 7.840736 0.092245 -0.995478 -0.022677 1.5843200949324314e-38
2.397374 -25.031261 7.221967 0.116743 -0.992903 -0.022677 1.5843200949324314e-38
3.506557 -24.770100 8.321552 0.141170 -0.989726 -0.022677 1.5843200949324314e-38
3.816097 -24.588818 7.607633 0.165511 -0.985947 -0.022677 1.5843200949324314e-38
4.745035 -24.514990 7.109238 0.189752 -0.981570 -0.022677 1.5843200949324314e-38
5.380813 -24.270255 7.520961 0.213878 -0.976597 -0.022677 1.5843200949324314e-38
6.120041 -23.860697 7.703770 0.237874 -0.971031 -0.022677 1.5843200949324314e-38
6.566871 -24.482067 7.242679 0.261726 -0.964876 -0.022677 1.5843200949324314e-38
-3.364068 -24.750231 8.832100 -0.151733 -0.977478 -0.146677 1.5843200949324314e-38
-3.285027 -24.740193 8.753983 -0.127604 -0.980919 -0.146677 1.5843200949324314e-38
-2.607062 -24.929514 8.795370 -0.103398 -0.983766 -0.146677 1.5843200949324314e-38
-2.096772 -25.100671 9.172002 -0.079129 -0.986014 -0.146677 1.5843200949324314e-38
-0.578129 -25.431120 8.281952 -0.054812 -0.987665 -0.146677 1.5843200949324314e-38
-1.060360 -25.127465 8.928528 -0.030462 -0.988715 -0.146677 1.5843200949324314e-38
0.022710 -25.056301 8.818474 -0.006093 -0.989166 -0.146677 1.5843200949324314e-38
0.256350 -25.177336 8.653765 0.018279 -0.989016 -0.146677 1.5843200949324314e-38
0.607071 -25.433441 8.323324 0.042640 -0.988265 -0.146677 1.5843200949324314e-38
1.929271 -24.977161 8.843112 0.066976 -0.986914 -0.146677 1.5843200949324314e-38
1.764813 -25.446349 8.858758 0.091270 -0.984965 -0.146677 1.5843200949324314e-38
2.098373 -24.569223 8.112799 0.115510 -0.982417 -0.146677 1.5843200949324314e-38
3.798462 -25.123381 8.974465 0.139679 -0.979273 -0.146677 1.5843200949324314e-38
5.119239 -25.443863 8.868407 0.163763 -0.975534 -0.146677 1.5843200949324314e-38
4.223150 -24.523950 8.597762 0.187748 -0.971204 -0.146677 1.5843200949324314e-38
5.410449 -24.800591 8.893956 0.211619 -0.966283 -0.146677 1.5843200949324314e-38
5.539662 -24.014808 8.537019 0.235362 -0.960776 -0.146677 1.5843200949324314e-38
-4.084066 -25.109624 9.777569 -0.148013 -0.953515 -0.262492 1.5843200949324314e-38
-3.108109 -24.624844 10.070887 -0.124476 -0.956872 -0.262492 1.5843200949324314e-38
-3.107255 -25.644909 9.777218 -0.100863 -0.959648 -0.262492 1.5843200949324314e-38
-2.109816 -25.803931 10.142709 -0.077189 -0.961842 -0.262492 1.5843200949324314e-38
-1.731610 -24.881677 10.443097 -0.053468 -0.963452 -0.262492 1.5843200949324314e-38
-0.855705 -25.224920 9.527323 -0.029715 -0.964477 -0.262492 1.5843200949324314e-38
0.030833 -25.517620 9.570737 -0.005944 -0.964916 -0.262492 1.5843200949324314e-38
0.381984 -25.504037 9.799359 0.017831 -0.964769 -0.262492 1.5843200949324314e-38
1.378458 -25.580655 10.417414 0.041595 -0.964037 -0.262492 1.5843200949324314e-38
1.320142 -24.825798 9.591954 0.065334 -0.962720 -0.262492 1.5843200949324314e-38
2.340419 -25.407485 9.793789 0.089033 -0.960818 -0.262492 1.5843200949324314e-38
3.202772 -24.745140 10.254065 0.112678 -0.958333 -0.262492 1.5843200949324314e-38
3.460752 -25.059179 9.662284 0.136255 -0.955266 -0.262492 1.5843200949324314e-38
3.902412 -25.362466 9.765635 0.159749 -0.951619 -0.262492 1.5843200949324314e-38
4.889878 -25.481051 9.883001 0.183146 -0.947394 -0.262492 1.5843200949324314e-38
5.882000 -24.444744 9.721352 0.206431 -0.942594 -0.262492 1.5843200949324314e-38
-3.659688 -25.597499 11.460762 -0.120085 -0.923121 -0.365277 1.5843200949324314e-38
-2.631416 -25.264601 11.474101 -0.097305 -0.925799 -0.365277 1.5843200949324314e-38
-2.059935 -26.398460 10.802289 -0.074467 -0.927916 -0.365277 1.5843200949324314e-38
-1.199511 -26.205522 11.036013 -0.051582 -0.929469 -0.365277 1.5843200949324314e-38
-0.692354 -25.326956 10.961515 -0.028667 -0.930457 -0.365277 1.5843200949324314e-38
-0.351850 -25.795299 11.239295 -0.005734 -0.930881 -0.365277 1.5843200949324314e-38
0.430113 -25.460872 10.894277 0.017202 -0.930740 -0.365277 1.5843200949324314e-38
1.147337 -25.622528 11.013951 0.040128 -0.930034 -0.365277 1.5843200949324314e-38
1.997429 -25.676206 11.370674 0.063029 -0.928763 -0.365277 1.5843200949324314e-38
2.436915 -25.557160 10.944303 0.085893 -0.926928 -0.365277 1.5843200949324314e-38
2.821175 -25.236366 11.324674 0.108704 -0.924530 -0.365277 1.5843200949324314e-38
3.333413 -25.467485 10.421888 0.131449 -0.921572 -0.365277 1.5843200949324314e-38
4.095806 -25.136001 11.096477 0.154114 -0.918053 -0.365277 1.5843200949324314e-38
4.928456 -26.216354 11.016345 0.176686 -0.913978 -0.365277 1.5843200949324314e-38
-2.798521 -26.015673 12.069650 -0.093198 -0.886721 -0.452813 1.5843200949324314e-38
-2.493594 -26.130584 12.041233 -0.071323 -0.888748 -0.452813 1.5843200949324314e-38
-1.789402 -26.046001 12.528653 -0.049405 -0.890235 -0.452813 1.5843200949324314e-38
-1.187213 -26.510742 12.100015 -0.027457 -0.891182 -0.452813 1.5843200949324314e-38
0.370658 -26.065190 12.244881 -0.005492 -0.891588 -0.452813 1.5843200949324314e-38
0.659546 -26.739851 12.169340 0.016476 -0.891453 -0.452813 1.5843200949324314e-38
1.166777 -26.177342 12.341896 0.038434 -0.890777 -0.452813 1.5843200949324314e-38
1.857663 -26.253552 12.322061 0.060369 -0.889559 -0.452813 1.5843200949324314e-38
2.341274 -26.353021 12.440715 0.082267 -0.887802 -0.452813 1.5843200949324314e-38
3.198745 -26.097801 12.017555 0.104115 -0.885506 -0.452813 1.5843200949324314e-38
3.419338 -25.953932 12.812636 0.125900 -0.882672 -0.452813 1.5843200949324314e-38
4.405999 -26.097555 12.438436 0.147609 -0.879302 -0.452813 1.5843200949324314e-38
-2.808056 -26.823696 13.004833 -0.088958 -0.846379 -0.525098 1.5843200949324314e-38
-2.341666 -26.809014 13.666488 -0.068078 -0.848314 -0.525098 1.5843200949324314e-38
-2.144203 -26.930336 13.718215 -0.047157 -0.849734 -0.525098 1.5843200949324314e-38
-0.447385 -27.217760 12.935627 -0.026208 -0.850638 -0.525098 1.5843200949324314e-38
-0.465559 -27.362619 13.829260 -0.005242 -0.851025 -0.525098 1.5843200949324314e-38
-0.315462 -27.163904 14.035986 0.015726 -0.850896 -0.525098 1.5843200949324314e-38
1.167506 -26.739989 13.115708 0.036685 -0.850250 -0.525098 1.5843200949324314e-38
1.349822 -26.540802 13.638612 0.057622 -0.849089 -0.525098 1.5843200949324314e-38
2.525366 -27.254136 13.638482 0.078524 -0.847411 -0.525098 1.5843200949324314e-38
2.813053 -26.493003 14.426597 0.099378 -0.845219 -0.525098 1.5843200949324314e-38
3.962551 -26.953622 12.848150 0.120172 -0.842514 -0.525098 1.5843200949324314e-38
-2.793126 -27.501139 14.354804 -0.064965 -0.809523 -0.583482 1.5843200949324314e-38
-1.784776 -27.819091 14.978863 -0.045001 -0.810878 -0.583482 1.5843200949324314e-38
-0.936260 -27.391997 15.062333 -0.025009 -0.811741 -0.583482 1.5843200949324314e-38
0.021796 -28.229228 15.355171 -0.005003 -0.812111 -0.583482 1.5843200949324314e-38
0.273920 -27.334916 15.452019 0.015007 -0.811987 -0.583482 1.5843200949324314e-38
1.354785 -27.525435 13.920485 0.035008 -0.811371 -0.583482 1.5843200949324314e-38
1.827908 -27.466351 15.122714 0.054987 -0.810262 -0.583482 1.5843200949324314e-38
2.204766 -27.830203 14.084451 0.074934 -0.808662 -0.583482 1.5843200949324314e-38
3.377295 -28.235329 15.184504 0.094834 -0.806570 -0.583482 1.5843200949324314e-38
-1.446531 -29.008389 15.611643 -0.043038 -0.775503 -0.629875 1.5843200949324314e-38
-1.493975 -28.773340 16.171886 -0.023918 -0.776328 -0.629875 1.5843200949324314e-38
-0.531990 -28.493604 16.128140 -0.004784 -0.776682 -0.629875 1.5843200949324314e-38
0.937175 -28.691880 15.762574 0.014352 -0.776564 -0.629875 1.5843200949324314e-38
1.379296 -28.580149 15.918187 0.033481 -0.775974 -0.629875 1.5843200949324314e-38
1.517901 -28.711762 15.782221 0.052589 -0.774914 -0.629875 1.5843200949324314e-38
2.994329 -28.807223 16.599855 0.071665 -0.773383 -0.629875 1.5843200949324314e-38
-0.996394 -29.966403 17.280881 -0.022965 -0.745395 -0.666227 1.5843200949324314e-38
-0.477571 -29.915220 16.984365 -0.004594 -0.745735 -0.666227 1.5843200949324314e-38
0.859343 -29.695079 17.748456 0.013781 -0.745622 -0.666227 1.5843200949324314e-38
0.798518 -29.265016 16.847845 0.032147 -0.745056 -0.666227 1.5843200949324314e-38
1.662491 -29.981000 17.711904 0.050493 -0.744038 -0.666227 1.5843200949324314e-38
2.823108 -29.809041 17.081799 0.068809 -0.742568 -0.666227 1.5843200949324314e-38
-0.972161 -31.053101 18.705294 -0.022164 -0.719377 -0.694266 1.5843200949324314e-38
0.105746 -30.968028 18.173849 -0.004433 -0.719705 -0.694266 1.5843200949324314e-38
0.605374 -30.225141 19.050503 0.013300 -0.719596 -0.694266 1.5843200949324314e-38
0.444576 -30.965929 18.836337 0.031025 -0.719050 -0.694266 1.5843200949324314e-38
2.045182 -31.080616 18.476612 0.048731 -0.718067 -0.694266 1.5843200949324314e-38
-0.174752 -32.123886 19.911094 -0.004304 -0.698700 -0.715402 1.5843200949324314e-38
0.672097 -32.435655 19.628522 0.012911 -0.698594 -0.715402 1.5843200949324314e-38
1.049878 -32.683481 19.759390 0.030119 -0.698064 -0.715402 1.5843200949324314e-38
1.030634 -33.868243 21.104043 0.012615 -0.682560 -0.730721 1.5843200949324314e-38
