# .PCD v0.7 - Point Cloud Data file format
VERSION 0.7
FIELDS x y z normal_x normal_y normal_z rgb
SIZE 4 4 4 4 4 4 4
TYPE F F F F F F F
COUNT 1 1 1 1 1 1 1
WIDTH 318
HEIGHT 1
VIEWPOINT 0 0 0 1 0 0 0
POINTS 318
DATA ascii
-20.617925 45.512267 43.959035 -0.408257 0.901965 0.140662 1.6119787838914282e-38
-21.568918 44.606033 44.434425 -0.430355 0.891633 0.140662 1.6119787838914282e-38
-23.222587 44.211900 44.619448 -0.452192 0.880759 0.140662 1.6119787838914282e-38
-19.275825 45.558498 45.420301 -0.381465 0.901247 0.205519 1.6119787838914282e-38
-20.321378 45.008631 45.523287 -0.403554 0.891575 0.205519 1.6119787838914282e-38
-22.273421 45.061203 45.775041 -0.425397 0.881362 0.205519 1.6119787838914282e-38
-22.322626 44.311698 46.105126 -0.446983 0.870614 0.205519 1.6119787838914282e-38
-23.904106 43.142358 46.002004 -0.468297 0.859337 0.205519 1.6119787838914282e-38
-24.761660 42.816197 45.996010 -0.489327 0.847538 0.205519 1.6119787838914282e-38
-17.374657 45.707205 46.642908 -0.353723 0.896628 0.266341 1.6119787838914282e-38
-19.158471 45.506687 47.271792 -0.375706 0.887641 0.266341 1.6119787838914282e-38
-20.490856 44.664775 46.550418 -0.397462 0.878115 0.266341 1.6119787838914282e-38
-21.839982 44.274522 46.975334 -0.418975 0.868057 0.266341 1.6119787838914282e-38
-21.897574 43.350084 47.110930 -0.440235 0.857471 0.266341 1.6119787838914282e-38
-23.808606 43.356642 46.844339 -0.461227 0.846364 0.266341 1.6119787838914282e-38
-24.339599 43.004181 46.976379 -0.481939 0.834744 0.266341 1.6119787838914282e-38
-25.262904 42.303178 47.428077 -0.502359 0.822616 0.266341 1.6119787838914282e-38
-26.736404 41.714862 46.779830 -0.522474 0.809990 0.266341 1.6119787838914282e-38
-16.646217 46.431106 48.475770 -0.325589 0.888866 0.322349 1.6119787838914282e-38
-18.192177 45.885535 48.210306 -0.347390 0.880575 0.322349 1.6119787838914282e-38
-19.057806 45.081500 48.538083 -0.368979 0.871748 0.322349 1.6119787838914282e-38
-19.647250 44.573306 48.766801 -0.390345 0.862393 0.322349 1.6119787838914282e-38
-21.214398 44.476117 48.306953 -0.411474 0.852514 0.322349 1.6119787838914282e-38
-22.490462 44.094839 48.071057 -0.432353 0.842118 0.322349 1.6119787838914282e-38
-23.604573 42.577719 48.627603 -0.452969 0.831210 0.322349 1.6119787838914282e-38
-24.008280 42.476715 47.952261 -0.473310 0.819798 0.322349 1.6119787838914282e-38
-25.497684 41.658515 47.938282 -0.493365 0.807888 0.322349 1.6119787838914282e-38
-26.663175 41.260201 48.065872 -0.513119 0.795487 0.322349 1.6119787838914282e-38
-27.433746 39.909806 48.751177 -0.532562 0.782604 0.322349 1.6119787838914282e-38
-28.626741 40.013447 48.304028 -0.551682 0.769245 0.322349 1.6119787838914282e-38
-15.795505 45.573400 49.217575 -0.297554 0.878788 0.373087 1.6119787838914282e-38
-16.362791 46.043406 50.044084 -0.319115 0.871190 0.373087 1.6119787838914282e-38
-17.577287 44.930267 49.284192 -0.340482 0.863063 0.373087 1.6119787838914282e-38
-18.661778 44.552222 49.608111 -0.361642 0.854413 0.373087 1.6119787838914282e-38
-19.403229 44.212264 50.167892 -0.382583 0.845243 0.373087 1.6119787838914282e-38
-21.402032 43.775727 49.578657 -0.403291 0.835561 0.373087 1.6119787838914282e-38
-22.428016 43.349787 49.943779 -0.423755 0.825371 0.373087 1.6119787838914282e-38
-22.527375 42.674296 48.914504 -0.443961 0.814680 0.373087 1.6119787838914282e-38
-24.086386 42.189283 49.413980 -0.463898 0.803495 0.373087 1.6119787838914282e-38
-25.191545 41.211976 49.444427 -0.483553 0.791822 0.373087 1.6119787838914282e-38
-25.962099 41.138912 49.103323 -0.502915 0.779668 0.373087 1.6119787838914282e-38
-27.416060 39.586147 50.036033 -0.521971 0.767041 0.373087 1.6119787838914282e-38
-27.980196 38.778539 49.465176 -0.540711 0.753948 0.373087 1.6119787838914282e-38
-29.288089 38.444308 49.795419 -0.559122 0.740397 0.373087 1.6119787838914282e-38
-29.842928 38.020698 49.292040 -0.577194 0.726397 0.373087 1.6119787838914282e-38
-15.017271 45.515781 51.213748 -0.291291 0.860293 0.418385 1.6119787838914282e-38
-16.494893 45.180652 50.932853 -0.312398 0.852855 0.418385 1.6119787838914282e-38
-17.867057 44.594023 50.169223 -0.333316 0.844899 0.418385 1.6119787838914282e-38
-18.719434 44.050623 50.619965 -0.354031 0.836431 0.418385 1.6119787838914282e-38
-19.884413 43.814314 50.455900 -0.374531 0.827454 0.418385 1.6119787838914282e-38
-20.273852 43.330824 50.480760 -0.394804 0.817976 0.418385 1.6119787838914282e-38
-21.694728 42.932691 50.832385 -0.414837 0.808001 0.418385 1.6119787838914282e-38
-23.234389 42.753193 50.913492 -0.434618 0.797535 0.418385 1.6119787838914282e-38
-24.336753 41.566966 50.655554 -0.454135 0.786585 0.418385 1.6119787838914282e-38
-24.975835 40.543143 50.737947 -0.473377 0.775157 0.418385 1.6119787838914282e-38
-26.227260 40.168593 50.837883 -0.492331 0.763259 0.418385 1.6119787838914282e-38
-27.105224 39.534074 50.967719 -0.510986 0.750898 0.418385 1.6119787838914282e-38
-28.196794 38.750367 50.345273 -0.529331 0.738080 0.418385 1.6119787838914282e-38
-29.128099 38.283679 50.913489 -0.547355 0.724815 0.418385 1.6119787838914282e-38
-30.056581 37.704717 50.753214 -0.565046 0.711110 0.418385 1.6119787838914282e-38
-31.144902 36.828192 51.079957 -0.582395 0.696972 0.418385 1.6119787838914282e-38
-32.194496 36.609111 50.538494 -0.599390 0.682412 0.418385 1.6119787838914282e-38
-15.841674 44.423444 51.711234 -0.285048 0.841853 0.458292 1.6119787838914282e-38
-16.783755 44.289766 51.785339 -0.305702 0.834574 0.458292 1.6119787838914282e-38
-17.073281 43.992616 51.894859 -0.326171 0.826789 0.458292 1.6119787838914282e-38
-18.558890 43.262290 52.226001 -0.346442 0.818502 0.458292 1.6119787838914282e-38
-19.149964 42.746575 52.444780 -0.366503 0.809718 0.458292 1.6119787838914282e-38
-20.770485 42.390633 52.100601 -0.386341 0.800443 0.458292 1.6119787838914282e-38
-21.444292 42.075301 51.854877 -0.405945 0.790682 0.458292 1.6119787838914282e-38
-22.291794 41.364425 51.938132 -0.425302 0.780440 0.458292 1.6119787838914282e-38
-23.152211 40.579799 51.821168 -0.444401 0.769725 0.458292 1.6119787838914282e-38
-24.355290 40.543954 52.226968 -0.463230 0.758542 0.458292 1.6119787838914282e-38
-26.047207 39.862000 51.873201 -0.481778 0.746899 0.458292 1.6119787838914282e-38
-25.940555 39.364449 51.952067 -0.500033 0.734803 0.458292 1.6119787838914282e-38
-27.492287 38.470142 52.168467 -0.517985 0.722260 0.458292 1.6119787838914282e-38
-28.773980 38.172295 51.561345 -0.535623 0.709279 0.458292 1.6119787838914282e-38
-29.377298 36.801395 51.971611 -0.552935 0.695867 0.458292 1.6119787838914282e-38
-30.046254 35.798432 51.907919 -0.569911 0.682033 0.458292 1.6119787838914282e-38
-31.660015 35.469732 51.526045 -0.586542 0.667785 0.458292 1.6119787838914282e-38
-32.046021 34.645523 52.182900 -0.602817 0.653131 0.458292 1.6119787838914282e-38
-32.572975 33.975285 52.226859 -0.618725 0.638081 0.458292 1.6119787838914282e-38
-14.503107 44.184792 52.989801 -0.279025 0.824064 0.493015 1.6119787838914282e-38
-16.128141 44.207481 53.592936 -0.299243 0.816939 0.493015 1.6119787838914282e-38
-17.061579 43.237098 53.520706 -0.319279 0.809319 0.493015 1.6119787838914282e-38
-17.696941 42.524930 53.126147 -0.339122 0.801207 0.493015 1.6119787838914282e-38
-18.889966 42.522040 53.049300 -0.358759 0.792609 0.493015 1.6119787838914282e-38
-20.222448 42.124304 52.857825 -0.378177 0.783529 0.493015 1.6119787838914282e-38
-21.279706 41.610942 53.048623 -0.397367 0.773974 0.493015 1.6119787838914282e-38
-22.556796 40.801829 52.904603 -0.416315 0.763949 0.493015 1.6119787838914282e-38
-23.070215 40.105689 53.252589 -0.435010 0.753460 0.493015 1.6119787838914282e-38
-24.425953 39.601983 53.607275 -0.453442 0.742514 0.493015 1.6119787838914282e-38
-25.326460 39.001906 52.966341 -0.471598 0.731117 0.493015 1.6119787838914282e-38
-26.143684 38.815790 53.577103 -0.489467 0.719276 0.493015 1.6119787838914282e-38
-27.237946 37.841167 53.235163 -0.507040 0.706998 0.493015 1.6119787838914282e-38
-28.063252 36.996528 53.634600 -0.524305 0.694292 0.493015 1.6119787838914282e-38
-29.015396 36.684624 53.323213 -0.541251 0.681163 0.493015 1.6119787838914282e-38
-29.791936 35.496856 53.193956 -0.557869 0.667621 0.493015 1.6119787838914282e-38
-30.101786 35.526387 53.242979 -0.574148 0.653674 0.493015 1.6119787838914282e-38
-31.750272 33.615774 53.046675 -0.590079 0.639330 0.493015 1.6119787838914282e-38
-32.498733 33.395973 53.121572 -0.605651 0.624598 0.493015 1.6119787838914282e-38
-33.103757 32.380789 53.277672 -0.620856 0.609487 0.493015 1.6119787838914282e-38
-34.118633 31.586091 53.698108 -0.635683 0.594006 0.493015 1.6119787838914282e-38
-14.671597 43.916033 54.531894 -0.273381 0.807396 0.522853 1.6119787838914282e-38
-15.988905 43.253767 54.771022 -0.293190 0.800415 0.522853 1.6119787838914282e-38
-16.851753 42.094290 54.398510 -0.312821 0.792949 0.522853 1.6119787838914282e-38
-17.869713 42.274883 54.284346 -0.332262 0.785001 0.522853 1.6119787838914282e-38
-18.538667 41.122646 54.461183 -0.351502 0.776576 0.522853 1.6119787838914282e-38
-19.928126 41.983769 54.428659 -0.370528 0.767681 0.522853 1.6119787838914282e-38
-20.839663 40.888487 54.461318 -0.389329 0.758319 0.522853 1.6119787838914282e-38
-21.444561 39.988357 54.232828 -0.407894 0.748496 0.522853 1.6119787838914282e-38
-22.733955 39.845296 54.348021 -0.426211 0.738220 0.522853 1.6119787838914282e-38
-23.954192 39.464669 54.578517 -0.444270 0.727495 0.522853 1.6119787838914282e-38
-25.105203 38.660280 54.418049 -0.462059 0.716328 0.522853 1.6119787838914282e-38
-25.693365 37.867651 54.070497 -0.479567 0.704727 0.522853 1.6119787838914282e-38
-26.560274 37.480541 54.857579 -0.496784 0.692698 0.522853 1.6119787838914282e-38
-28.068100 36.624166 54.363870 -0.513700 0.680248 0.522853 1.6119787838914282e-38
-28.686542 35.490053 54.113104 -0.530303 0.667385 0.522853 1.6119787838914282e-38
-29.363624 35.087686 54.185067 -0.546585 0.654117 0.522853 1.6119787838914282e-38
-29.874888 35.213587 54.416061 -0.562535 0.640452 0.522853 1.6119787838914282e-38
-31.595490 33.863306 53.807379 -0.578143 0.626399 0.522853 1.6119787838914282e-38
-32.371809 33.090907 54.017869 -0.593400 0.611964 0.522853 1.6119787838914282e-38
-32.858083 31.724137 54.449868 -0.608298 0.597159 0.522853 1.6119787838914282e-38
-33.214921 31.168255 54.427165 -0.622825 0.581991 0.522853 1.6119787838914282e-38
-34.558899 30.292223 54.183579 -0.636975 0.566469 0.522853 1.6119787838914282e-38
-34.819785 29.237233 54.333433 -0.650738 0.550604 0.522853 1.6119787838914282e-38
-13.347212 42.986112 55.983986 -0.248637 0.798570 0.548147 1.6119787838914282e-38
-14.334189 42.687748 55.960525 -0.268236 0.792202 0.548147 1.6119787838914282e-38
-15.767064 42.174108 55.779193 -0.287673 0.785353 0.548147 1.6119787838914282e-38
-16.529358 42.177192 56.028102 -0.306934 0.778027 0.548147 1.6119787838914282e-38
-18.058766 41.576863 56.240427 -0.326010 0.770229 0.548147 1.6119787838914282e-38
-18.790717 40.904689 54.997807 -0.344887 0.761963 0.548147 1.6119787838914282e-38
-19.588646 40.822268 55.843669 -0.363556 0.753235 0.548147 1.6119787838914282e-38
-20.925796 40.149767 55.736567 -0.382003 0.744049 0.548147 1.6119787838914282e-38
-21.582043 39.303858 55.693295 -0.400219 0.734411 0.548147 1.6119787838914282e-38
-22.811928 38.526585 55.874495 -0.418191 0.724328 0.548147 1.6119787838914282e-38
-23.481730 38.697854 55.509767 -0.435910 0.713805 0.548147 1.6119787838914282e-38
-24.277679 38.235666 56.196300 -0.453364 0.702849 0.548147 1.6119787838914282e-38
-25.148533 37.430180 55.256138 -0.470542 0.691466 0.548147 1.6119787838914282e-38
-26.336279 36.251007 55.424440 -0.487436 0.679663 0.548147 1.6119787838914282e-38
-26.613467 35.711690 54.967325 -0.504033 0.667447 0.548147 1.6119787838914282e-38
-27.835185 35.135609 55.900505 -0.520324 0.654827 0.548147 1.6119787838914282e-38
-29.292277 34.507230 56.028868 -0.536299 0.641808 0.548147 1.6119787838914282e-38
-30.182377 33.860673 55.757494 -0.551949 0.628401 0.548147 1.6119787838914282e-38
-30.827992 33.239904 55.674797 -0.567264 0.614611 0.548147 1.6119787838914282e-38
-31.259724 32.955697 56.472666 -0.582234 0.600449 0.548147 1.6119787838914282e-38
-32.069879 31.585973 55.802379 -0.596851 0.585922 0.548147 1.6119787838914282e-38
-33.047787 30.339734 55.656126 -0.611105 0.571039 0.548147 1.6119787838914282e-38
-33.402695 29.554674 55.374726 -0.624989 0.555809 0.548147 1.6119787838914282e-38
-34.630656 29.265742 56.383203 -0.638493 0.540243 0.548147 1.6119787838914282e-38
-12.938209 41.408771 57.200427 -0.244412 0.785001 0.569242 1.6119787838914282e-38
-14.617800 42.178284 56.308206 -0.263678 0.778741 0.569242 1.6119787838914282e-38
-15.679712 41.783671 57.271947 -0.282784 0.772008 0.569242 1.6119787838914282e-38
-16.260243 41.928624 56.600438 -0.301719 0.764806 0.569242 1.6119787838914282e-38
-17.578486 40.706304 56.802274 -0.320470 0.757141 0.569242 1.6119787838914282e-38
-18.182723 40.136292 57.077470 -0.339027 0.749015 0.569242 1.6119787838914282e-38
-19.093486 40.380840 56.760083 -0.357378 0.740435 0.569242 1.6119787838914282e-38
-20.132588 39.592035 56.905048 -0.375512 0.731406 0.569242 1.6119787838914282e-38
-21.262006 38.280686 56.932235 -0.393418 0.721932 0.569242 1.6119787838914282e-38
-21.971814 38.348384 56.672534 -0.411085 0.712020 0.569242 1.6119787838914282e-38
-23.592738 37.944269 56.917156 -0.428502 0.701676 0.569242 1.6119787838914282e-38
-23.596481 36.793203 56.766124 -0.445660 0.690906 0.569242 1.6119787838914282e-38
-25.319773 36.932686 57.278927 -0.462547 0.679716 0.569242 1.6119787838914282e-38
-25.241389 36.156352 57.143997 -0.479153 0.668114 0.569242 1.6119787838914282e-38
-26.566448 35.524835 56.921939 -0.495468 0.656106 0.569242 1.6119787838914282e-38
-27.374526 35.326417 56.972820 -0.511482 0.643699 0.569242 1.6119787838914282e-38
-28.399142 34.054301 56.862489 -0.527186 0.630902 0.569242 1.6119787838914282e-38
-29.161342 33.229800 57.250411 -0.542570 0.617722 0.569242 1.6119787838914282e-38
-29.733227 33.204094 56.900154 -0.557624 0.604167 0.569242 1.6119787838914282e-38
-30.752788 31.878256 56.967094 -0.572340 0.590246 0.569242 1.6119787838914282e-38
-31.274594 30.547211 57.045429 -0.586709 0.575965 0.569242 1.6119787838914282e-38
-31.769881 30.655291 57.281787 -0.600721 0.561336 0.569242 1.6119787838914282e-38
-32.851362 29.261012 56.682264 -0.614369 0.546365 0.569242 1.6119787838914282e-38
-13.073767 40.641963 58.119718 -0.240787 0.773358 0.586464 1.6119787838914282e-38
-13.854641 40.944684 58.105125 -0.259767 0.767190 0.586464 1.6119787838914282e-38
-14.778203 41.040290 57.784987 -0.278590 0.760558 0.586464 1.6119787838914282e-38
-16.174205 40.620382 58.321032 -0.297244 0.753463 0.586464 1.6119787838914282e-38
-16.522833 40.380494 58.868792 -0.315717 0.745911 0.586464 1.6119787838914282e-38
-17.994087 40.034029 57.868325 -0.333999 0.737906 0.586464 1.6119787838914282e-38
-18.157274 39.243696 58.306936 -0.352077 0.729453 0.586464 1.6119787838914282e-38
-19.536287 38.223763 57.821903 -0.369942 0.720557 0.586464 1.6119787838914282e-38
-20.744296 38.233721 58.769096 -0.387583 0.711224 0.586464 1.6119787838914282e-38
-21.996877 38.068547 58.064653 -0.404988 0.701459 0.586464 1.6119787838914282e-38
-22.715911 37.010990 58.052747 -0.422147 0.691269 0.586464 1.6119787838914282e-38
-23.392290 36.372814 57.721193 -0.439050 0.680658 0.586464 1.6119787838914282e-38
-24.510502 36.037289 57.723631 -0.455686 0.669634 0.586464 1.6119787838914282e-38
-25.132686 35.641659 58.588309 -0.472046 0.658204 0.586464 1.6119787838914282e-38
-26.067648 34.111891 58.338616 -0.488119 0.646374 0.586464 1.6119787838914282e-38
-26.724621 33.789071 58.122525 -0.503896 0.634152 0.586464 1.6119787838914282e-38
-27.699117 33.858314 58.067575 -0.519367 0.621545 0.586464 1.6119787838914282e-38
-28.389340 32.720900 58.204158 -0.534523 0.608560 0.586464 1.6119787838914282e-38
-29.052699 31.660653 58.213452 -0.549354 0.595206 0.586464 1.6119787838914282e-38
-30.220927 30.722699 58.514105 -0.563851 0.581491 0.586464 1.6119787838914282e-38
-30.739269 30.430708 58.065916 -0.578007 0.567423 0.586464 1.6119787838914282e-38
-31.727985 29.860057 58.160198 -0.591811 0.553010 0.586464 1.6119787838914282e-38
-32.649118 28.702024 58.140693 -0.605256 0.538261 0.586464 1.6119787838914282e-38
-12.114636 40.702450 58.810115 -0.237800 0.763762 0.600099 1.6119787838914282e-38
-13.678673 40.843760 59.288612 -0.256544 0.757672 0.600099 1.6119787838914282e-38
-14.062641 40.225129 59.258901 -0.275134 0.751121 0.600099 1.6119787838914282e-38
-15.925058 39.647641 59.762593 -0.293556 0.744115 0.600099 1.6119787838914282e-38
-17.044070 39.185419 58.769027 -0.311800 0.736656 0.600099 1.6119787838914282e-38
-17.631865 38.232745 59.550114 -0.329855 0.728751 0.600099 1.6119787838914282e-38
-18.685553 38.632925 59.219296 -0.347709 0.720403 0.600099 1.6119787838914282e-38
-19.605974 37.334071 59.498758 -0.365352 0.711617 0.600099 1.6119787838914282e-38
-20.194732 37.610691 59.578004 -0.382774 0.702400 0.600099 1.6119787838914282e-38
-21.135493 36.995008 59.590493 -0.399963 0.692756 0.600099 1.6119787838914282e-38
-21.884183 35.823115 59.242898 -0.416909 0.682692 0.600099 1.6119787838914282e-38
-23.530552 35.824135 59.870431 -0.433603 0.672213 0.600099 1.6119787838914282e-38
-23.647898 34.963798 59.533067 -0.450033 0.661326 0.600099 1.6119787838914282e-38
-24.670764 34.615936 58.990440 -0.466189 0.650038 0.600099 1.6119787838914282e-38
-25.224511 33.571679 59.271420 -0.482063 0.638355 0.600099 1.6119787838914282e-38
-26.159360 33.171596 59.405234 -0.497644 0.626284 0.600099 1.6119787838914282e-38
-27.223216 32.641702 59.415960 -0.512923 0.613833 0.600099 1.6119787838914282e-38
-27.990369 31.962842 59.112797 -0.527891 0.601010 0.600099 1.6119787838914282e-38
-29.297972 31.538982 59.694577 -0.542538 0.587822 0.600099 1.6119787838914282e-38
-29.492628 30.618427 59.106887 -0.556856 0.574276 0.600099 1.6119787838914282e-38
-31.068390 29.706702 58.812238 -0.570835 0.560383 0.600099 1.6119787838914282e-38
-31.006021 29.416118 59.196602 -0.584468 0.546149 0.600099 1.6119787838914282e-38
-31.934619 27.949016 59.394719 -0.597747 0.531583 0.600099 1.6119787838914282e-38
-10.942299 39.977455 61.098099 -0.216769 0.761866 0.610387 1.6119787838914282e-38
-12.775575 39.887499 60.351446 -0.235474 0.756294 0.610387 1.6119787838914282e-38
-13.522412 39.646050 60.550014 -0.254036 0.750263 0.610387 1.6119787838914282e-38
-13.518890 39.189583 60.409824 -0.272443 0.743776 0.610387 1.6119787838914282e-38
-15.099536 38.598897 60.868172 -0.290685 0.736838 0.610387 1.6119787838914282e-38
-16.292433 38.404465 60.678086 -0.308751 0.729453 0.610387 1.6119787838914282e-38
-17.118312 38.184166 60.077581 -0.326629 0.721624 0.610387 1.6119787838914282e-38
-18.040444 37.227448 60.213961 -0.344309 0.713358 0.610387 1.6119787838914282e-38
-19.237926 36.795318 60.547956 -0.361780 0.704659 0.610387 1.6119787838914282e-38
-19.790745 36.664926 60.495836 -0.379031 0.695531 0.610387 1.6119787838914282e-38
-20.309841 35.889672 60.034620 -0.396052 0.685982 0.610387 1.6119787838914282e-38
-21.769271 35.492196 59.636667 -0.412832 0.676016 0.610387 1.6119787838914282e-38
-22.171204 34.903763 60.272838 -0.429362 0.665640 0.610387 1.6119787838914282e-38
-23.675276 34.596234 60.883733 -0.445632 0.654859 0.610387 1.6119787838914282e-38
-24.421501 33.374495 60.657821 -0.461631 0.643681 0.610387 1.6119787838914282e-38
-24.957474 33.343521 60.449618 -0.477349 0.632112 0.610387 1.6119787838914282e-38
-25.898143 32.552701 60.908600 -0.492778 0.620160 0.610387 1.6119787838914282e-38
-26.256739 32.379824 61.009301 -0.507907 0.607831 0.610387 1.6119787838914282e-38
-26.889326 31.537158 60.441751 -0.522729 0.595133 0.610387 1.6119787838914282e-38
-27.734491 30.134914 61.327896 -0.537233 0.582073 0.610387 1.6119787838914282e-38
-29.231176 30.110220 61.051833 -0.551410 0.568661 0.610387 1.6119787838914282e-38
-29.527313 28.506788 60.334174 -0.565253 0.554903 0.610387 1.6119787838914282e-38
-30.266540 28.572868 60.564919 -0.578753 0.540808 0.610387 1.6119787838914282e-38
-11.296582 39.169564 61.950411 -0.215252 0.756532 0.617516 1.6119787838914282e-38
-12.075229 38.557553 61.848461 -0.233826 0.750999 0.617516 1.6119787838914282e-38
-12.926252 38.409039 62.187934 -0.252257 0.745010 0.617516 1.6119787838914282e-38
-13.783325 38.135743 61.151864 -0.270536 0.738569 0.617516 1.6119787838914282e-38
-14.967609 37.963379 61.771862 -0.288650 0.731680 0.617516 1.6119787838914282e-38
-15.737280 37.328360 61.925418 -0.306589 0.724346 0.617516 1.6119787838914282e-38
-16.324485 37.230438 61.466996 -0.324342 0.716573 0.617516 1.6119787838914282e-38
-18.148559 36.703403 62.206026 -0.341898 0.708364 0.617516 1.6119787838914282e-38
-19.044996 36.061713 62.567636 -0.359247 0.699726 0.617516 1.6119787838914282e-38
-19.511783 36.414501 61.608590 -0.376377 0.690662 0.617516 1.6119787838914282e-38
-20.497855 34.956300 61.471914 -0.393279 0.681180 0.617516 1.6119787838914282e-38
-21.671443 34.589904 61.899130 -0.409942 0.671284 0.617516 1.6119787838914282e-38
-22.226502 33.981463 62.289493 -0.426357 0.660980 0.617516 1.6119787838914282e-38
-22.554000 33.494061 61.984633 -0.442512 0.650275 0.617516 1.6119787838914282e-38
-24.156636 33.079506 61.836947 -0.458399 0.639175 0.617516 1.6119787838914282e-38
-24.583777 32.415382 61.817018 -0.474007 0.627687 0.617516 1.6119787838914282e-38
-25.656580 32.296718 62.140915 -0.489328 0.615818 0.617516 1.6119787838914282e-38
-26.154452 30.632562 61.118786 -0.504352 0.603576 0.617516 1.6119787838914282e-38
-26.196519 30.457662 62.084565 -0.519069 0.590967 0.617516 1.6119787838914282e-38
-27.826097 29.748056 61.778770 -0.533472 0.577999 0.617516 1.6119787838914282e-38
-10.984607 38.120692 62.525153 -0.214366 0.753417 0.621619 1.6119787838914282e-38
-11.472318 38.422877 62.963119 -0.232863 0.747907 0.621619 1.6119787838914282e-38
-12.357407 37.496840 62.912093 -0.251219 0.741943 0.621619 1.6119787838914282e-38
-13.745388 37.238245 62.876392 -0.269422 0.735528 0.621619 1.6119787838914282e-38
-14.361682 36.709628 62.770816 -0.287462 0.728667 0.621619 1.6119787838914282e-38
-15.453367 36.287725 62.994589 -0.305327 0.721363 0.621619 1.6119787838914282e-38
-16.358162 35.702331 63.530443 -0.323007 0.713622 0.621619 1.6119787838914282e-38
-16.982632 35.501645 63.087045 -0.340491 0.705447 0.621619 1.6119787838914282e-38
-17.909786 35.318027 63.656739 -0.357768 0.696844 0.621619 1.6119787838914282e-38
-19.035231 35.155454 62.692392 -0.374828 0.687818 0.621619 1.6119787838914282e-38
-20.169468 34.826323 62.963197 -0.391660 0.678375 0.621619 1.6119787838914282e-38
-21.005029 33.808050 63.471977 -0.408254 0.668519 0.621619 1.6119787838914282e-38
-21.710879 33.290707 62.536437 -0.424601 0.658258 0.621619 1.6119787838914282e-38
-22.436459 33.063012 62.857481 -0.440690 0.647597 0.621619 1.6119787838914282e-38
-23.477829 31.971761 62.909879 -0.456511 0.636543 0.621619 1.6119787838914282e-38
-23.653271 31.739720 63.264666 -0.472056 0.625103 0.621619 1.6119787838914282e-38
-24.646085 30.841820 62.859874 -0.487313 0.613283 0.621619 1.6119787838914282e-38
-25.281878 30.887634 62.810563 -0.502275 0.601090 0.621619 1.6119787838914282e-38
-10.966725 37.247849 64.308233 -0.214114 0.752534 0.622774 1.6119787838914282e-38
-11.609020 37.081144 63.896987 -0.232590 0.747030 0.622774 1.6119787838914282e-38
-12.572858 36.760597 64.135108 -0.250924 0.741073 0.622774 1.6119787838914282e-38
-13.198693 35.944841 64.082742 -0.269106 0.734666 0.622774 1.6119787838914282e-38
-14.717143 35.333064 64.187113 -0.287125 0.727813 0.622774 1.6119787838914282e-38
-14.928892 35.555429 64.677982 -0.304969 0.720518 0.622774 1.6119787838914282e-38
-16.054010 34.571888 64.433155 -0.322628 0.712785 0.622774 1.6119787838914282e-38
-17.122325 34.842380 63.644252 -0.340091 0.704620 0.622774 1.6119787838914282e-38
-17.733679 34.590980 64.504041 -0.357348 0.696028 0.622774 1.6119787838914282e-38
-18.568069 33.919457 64.180741 -0.374388 0.687012 0.622774 1.6119787838914282e-38
-19.412791 33.656971 64.104930 -0.391201 0.677580 0.622774 1.6119787838914282e-38
-20.337594 32.508838 64.523906 -0.407776 0.667736 0.622774 1.6119787838914282e-38
-21.044479 32.097560 64.576602 -0.424103 0.657486 0.622774 1.6119787838914282e-38
-21.772611 31.711427 64.581331 -0.440173 0.646838 0.622774 1.6119787838914282e-38
-22.641660 30.917932 64.601098 -0.455976 0.635797 0.622774 1.6119787838914282e-38
-23.558138 31.730364 64.179845 -0.471502 0.624370 0.622774 1.6119787838914282e-38
-11.711233 35.323480 65.308028 -0.251375 0.742405 0.621004 1.6119787838914282e-38
-13.080141 35.283717 65.913972 -0.269590 0.735986 0.621004 1.6119787838914282e-38
-14.246130 35.026879 65.401777 -0.287641 0.729121 0.621004 1.6119787838914282e-38
-14.170571 34.949716 65.638618 -0.305517 0.721813 0.621004 1.6119787838914282e-38
-15.240146 33.916506 66.175262 -0.323208 0.714067 0.621004 1.6119787838914282e-38
-16.624009 34.296368 65.732506 -0.340703 0.705887 0.621004 1.6119787838914282e-38
-17.122870 33.870204 65.865985 -0.357991 0.697278 0.621004 1.6119787838914282e-38
-17.990225 32.945168 65.603919 -0.375061 0.688247 0.621004 1.6119787838914282e-38
-18.862612 32.723780 65.873187 -0.391904 0.678797 0.621004 1.6119787838914282e-38
-19.489097 32.199175 65.370820 -0.408509 0.668936 0.621004 1.6119787838914282e-38
-20.318251 31.141552 65.327758 -0.424866 0.658668 0.621004 1.6119787838914282e-38
-21.007362 31.403292 65.560811 -0.440965 0.648001 0.621004 1.6119787838914282e-38
-13.333035 33.777513 65.917831 -0.289008 0.732586 0.616273 1.6119787838914282e-38
-14.264503 33.976201 66.743390 -0.306969 0.725243 0.616273 1.6119787838914282e-38
-14.930676 33.123832 66.700318 -0.324744 0.717460 0.616273 1.6119787838914282e-38
-16.223928 33.250632 66.531003 -0.342322 0.709241 0.616273 1.6119787838914282e-38
-16.139016 32.487903 67.043578 -0.359692 0.700592 0.616273 1.6119787838914282e-38
-17.702758 32.617031 67.193976 -0.376843 0.691517 0.616273 1.6119787838914282e-38
-18.441528 31.855840 67.186311 -0.393766 0.682023 0.616273 1.6119787838914282e-38
-19.030347 31.035609 66.825144 -0.410450 0.672115 0.616273 1.6119787838914282e-38
-15.488193 32.417186 67.850908 -0.344941 0.714668 0.608494 1.6119787838914282e-38
-16.310889 31.988137 67.762373 -0.362444 0.705953 0.608494 1.6119787838914282e-38
-16.914130 31.542977 68.000777 -0.379727 0.696809 0.608494 1.6119787838914282e-38
