# .PCD v0.7 - Point Cloud Data file format
VERSION 0.7
FIELDS x y z normal_x normal_y normal_z rgb
SIZE 4 4 4 4 4 4 4
TYPE F F F F F F F
COUNT 1 1 1 1 1 1 1
WIDTH 289
HEIGHT 1
VIEWPOINT 0 0 0 1 0 0 0
POINTS 289
DATA ascii
55.199432 -6.793614 87.970223 0.992421 -0.122888 0.000000 1.5658809689597668e-38
53.632959 -12.158807 88.636752 0.975512 -0.219946 0.000000 1.5658809689597668e-38
53.813485 -11.307331 89.272931 0.980635 -0.195845 0.000000 1.5658809689597668e-38
54.350807 -9.464764 89.053837 0.985162 -0.171626 0.000000 1.5658809689597668e-38
54.565777 -8.271674 89.359073 0.989092 -0.147302 0.000000 1.5658809689597668e-38
54.225798 -7.212897 89.479633 0.992421 -0.122888 0.000000 1.5658809689597668e-38
54.985293 -6.036432 89.167989 0.995147 -0.098400 0.000000 1.5658809689597668e-38
53.337321 -13.414607 90.356266 0.969797 -0.243914 0.000000 1.5658809689597668e-38
53.917499 -12.194965 90.784518 0.975512 -0.219946 0.000000 1.5658809689597668e-38
54.447720 -10.787376 90.436644 0.980635 -0.195845 0.000000 1.5658809689597668e-38
54.536920 -9.333158 90.127512 0.985162 -0.171626 0.000000 1.5658809689597668e-38
55.405536 -8.096205 91.157178 0.989092 -0.147302 0.000000 1.5658809689597668e-38
55.591605 -6.952524 90.381135 0.992421 -0.122888 0.000000 1.5658809689597668e-38
55.187140 -5.165941 90.348656 0.995147 -0.098400 0.000000 1.5658809689597668e-38
53.146713 -14.754375 91.686576 0.963493 -0.267733 0.000000 1.5658809689597668e-38
54.021112 -13.912261 91.957554 0.969797 -0.243914 0.000000 1.5658809689597668e-38
54.007816 -12.512324 91.853754 0.975512 -0.219946 0.000000 1.5658809689597668e-38
54.839147 -10.966686 91.296576 0.980635 -0.195845 0.000000 1.5658809689597668e-38
54.822592 -9.927297 92.311865 0.985162 -0.171626 0.000000 1.5658809689597668e-38
54.598397 -8.070399 91.498170 0.989092 -0.147302 0.000000 1.5658809689597668e-38
54.816908 -7.102710 91.884711 0.992421 -0.122888 0.000000 1.5658809689597668e-38
55.354363 -5.671387 91.378413 0.995147 -0.098400 0.000000 1.5658809689597668e-38
55.117905 -3.835508 91.823087 0.997269 -0.073853 0.000000 1.5658809689597668e-38
53.027417 -16.196628 92.996275 0.956604 -0.291390 0.000000 1.5658809689597668e-38
53.729619 -14.775793 93.067289 0.963493 -0.267733 0.000000 1.5658809689597668e-38
53.895945 -14.362024 92.260180 0.969797 -0.243914 0.000000 1.5658809689597668e-38
54.461484 -12.186736 92.992047 0.975512 -0.219946 0.000000 1.5658809689597668e-38
55.449927 -10.837945 92.754854 0.980635 -0.195845 0.000000 1.5658809689597668e-38
54.953081 -9.912382 93.009973 0.985162 -0.171626 0.000000 1.5658809689597668e-38
55.016614 -7.696244 92.303347 0.989092 -0.147302 0.000000 1.5658809689597668e-38
55.254718 -7.030122 92.463565 0.992421 -0.122888 0.000000 1.5658809689597668e-38
55.591947 -5.573732 93.182666 0.995147 -0.098400 0.000000 1.5658809689597668e-38
55.364043 -4.229542 93.387898 0.997269 -0.073853 0.000000 1.5658809689597668e-38
55.202492 -2.977654 91.856554 0.998786 -0.049260 0.000000 1.5658809689597668e-38
52.915481 -17.564617 93.662524 0.949135 -0.314870 0.000000 1.5658809689597668e-38
53.371271 -15.960836 93.998234 0.956604 -0.291390 0.000000 1.5658809689597668e-38
54.842494 -14.920356 93.661643 0.963493 -0.267733 0.000000 1.5658809689597668e-38
53.988407 -14.198333 94.343902 0.969797 -0.243914 0.000000 1.5658809689597668e-38
54.945586 -12.026972 93.768579 0.975512 -0.219946 0.000000 1.5658809689597668e-38
54.488225 -10.713285 93.864335 0.980635 -0.195845 0.000000 1.5658809689597668e-38
54.744536 -9.873797 94.581335 0.985162 -0.171626 0.000000 1.5658809689597668e-38
55.082875 -7.974516 94.185491 0.989092 -0.147302 0.000000 1.5658809689597668e-38
55.153371 -6.848830 93.720274 0.992421 -0.122888 0.000000 1.5658809689597668e-38
55.994572 -5.767038 94.130200 0.995147 -0.098400 0.000000 1.5658809689597668e-38
55.530417 -4.400741 94.343812 0.997269 -0.073853 0.000000 1.5658809689597668e-38
55.607010 -3.299122 94.147912 0.998786 -0.049260 0.000000 1.5658809689597668e-38
52.436629 -18.954402 95.898731 0.941089 -0.338158 0.000000 1.5658809689597668e-38
53.019053 -17.688314 95.371870 0.949135 -0.314870 0.000000 1.5658809689597668e-38
53.306185 -16.489760 95.229110 0.956604 -0.291390 0.000000 1.5658809689597668e-38
53.995364 -15.267052 95.425176 0.963493 -0.267733 0.000000 1.5658809689597668e-38
54.754025 -14.228400 95.375193 0.969797 -0.243914 0.000000 1.5658809689597668e-38
54.582558 -12.401901 95.355614 0.975512 -0.219946 0.000000 1.5658809689597668e-38
55.310521 -10.886456 95.545486 0.980635 -0.195845 0.000000 1.5658809689597668e-38
55.138495 -9.498223 95.094565 0.985162 -0.171626 0.000000 1.5658809689597668e-38
55.381529 -8.327657 95.289777 0.989092 -0.147302 0.000000 1.5658809689597668e-38
55.059946 -7.213921 95.614167 0.992421 -0.122888 0.000000 1.5658809689597668e-38
56.127364 -6.027967 95.087628 0.995147 -0.098400 0.000000 1.5658809689597668e-38
55.603593 -4.058321 95.232602 0.997269 -0.073853 0.000000 1.5658809689597668e-38
56.116932 -3.162989 95.362717 0.998786 -0.049260 0.000000 1.5658809689597668e-38
55.863671 -1.600399 95.390247 0.999696 -0.024637 0.000000 1.5658809689597668e-38
56.050083 -0.030215 96.895749 1.000000 0.000000 0.000000 1.5658809689597668e-38
52.623839 -19.010526 96.413878 0.941089 -0.338158 0.000000 1.5658809689597668e-38
52.917197 -17.845063 96.326395 0.949135 -0.314870 0.000000 1.5658809689597668e-38
53.574180 -16.894898 96.276060 0.956604 -0.291390 0.000000 1.5658809689597668e-38
54.348865 -14.895092 96.375009 0.963493 -0.267733 0.000000 1.5658809689597668e-38
54.075181 -13.659349 96.785150 0.969797 -0.243914 0.000000 1.5658809689597668e-38
55.204968 -12.501517 96.176820 0.975512 -0.219946 0.000000 1.5658809689597668e-38
55.181897 -10.883943 96.497976 0.980635 -0.195845 0.000000 1.5658809689597668e-38
55.100907 -10.025010 96.697224 0.985162 -0.171626 0.000000 1.5658809689597668e-38
55.780964 -8.375187 97.008008 0.989092 -0.147302 0.000000 1.5658809689597668e-38
55.769701 -6.949497 96.139985 0.992421 -0.122888 0.000000 1.5658809689597668e-38
55.341711 -5.676228 96.605471 0.995147 -0.098400 0.000000 1.5658809689597668e-38
56.671037 -4.124647 96.672523 0.997269 -0.073853 0.000000 1.5658809689597668e-38
55.807917 -2.702080 96.518239 0.998786 -0.049260 0.000000 1.5658809689597668e-38
55.823549 -0.981303 96.454629 0.999696 -0.024637 0.000000 1.5658809689597668e-38
56.592819 0.002894 97.632539 1.000000 0.000000 0.000000 1.5658809689597668e-38
52.762405 -20.290231 98.301824 0.932472 -0.361242 0.000000 1.5658809689597668e-38
53.962596 -19.083881 97.640463 0.941089 -0.338158 0.000000 1.5658809689597668e-38
53.284369 -17.693368 97.801549 0.949135 -0.314870 0.000000 1.5658809689597668e-38
54.611146 -16.350989 97.603070 0.956604 -0.291390 0.000000 1.5658809689597668e-38
54.211219 -15.310470 97.228529 0.963493 -0.267733 0.000000 1.5658809689597668e-38
54.517551 -13.022857 97.998470 0.969797 -0.243914 0.000000 1.5658809689597668e-38
54.739577 -12.269176 98.486209 0.975512 -0.219946 0.000000 1.5658809689597668e-38
55.231374 -11.285546 97.752512 0.980635 -0.195845 0.000000 1.5658809689597668e-38
55.618988 -9.530876 98.167785 0.985162 -0.171626 0.000000 1.5658809689597668e-38
55.677432 -8.990276 97.873492 0.989092 -0.147302 0.000000 1.5658809689597668e-38
55.955922 -6.812231 97.477391 0.992421 -0.122888 0.000000 1.5658809689597668e-38
56.586161 -5.862362 97.437590 0.995147 -0.098400 0.000000 1.5658809689597668e-38
56.038918 -3.757116 98.142879 0.997269 -0.073853 0.000000 1.5658809689597668e-38
56.384968 -2.503418 97.341209 0.998786 -0.049260 0.000000 1.5658809689597668e-38
55.734193 -1.497730 97.997650 0.999696 -0.024637 0.000000 1.5658809689597668e-38
56.665124 -0.260731 98.675916 1.000000 0.000000 0.000000 1.5658809689597668e-38
56.725099 1.446411 98.347564 0.999696 0.024637 0.000000 1.5658809689597668e-38
51.864135 -21.697044 98.581570 0.923289 -0.384106 0.000000 1.5658809689597668e-38
52.335899 -20.097240 98.891442 0.932472 -0.361242 0.000000 1.5658809689597668e-38
53.060484 -19.031911 98.498543 0.941089 -0.338158 0.000000 1.5658809689597668e-38
53.055643 -17.641531 98.845951 0.949135 -0.314870 0.000000 1.5658809689597668e-38
53.878433 -16.247355 98.688678 0.956604 -0.291390 0.000000 1.5658809689597668e-38
54.162917 -15.203684 99.070049 0.963493 -0.267733 0.000000 1.5658809689597668e-38
54.580589 -13.944544 99.477141 0.969797 -0.243914 0.000000 1.5658809689597668e-38
55.022688 -12.206708 98.426275 0.975512 -0.219946 0.000000 1.5658809689597668e-38
54.913150 -10.868334 98.896794 0.980635 -0.195845 0.000000 1.5658809689597668e-38
55.439004 -9.963381 99.261354 0.985162 -0.171626 0.000000 1.5658809689597668e-38
55.972806 -8.326144 99.042820 0.989092 -0.147302 0.000000 1.5658809689597668e-38
55.872718 -7.135029 98.813434 0.992421 -0.122888 0.000000 1.5658809689597668e-38
56.347278 -5.667332 98.986293 0.995147 -0.098400 0.000000 1.5658809689597668e-38
56.108770 -3.882761 98.774026 0.997269 -0.073853 0.000000 1.5658809689597668e-38
56.781293 -2.949882 98.797386 0.998786 -0.049260 0.000000 1.5658809689597668e-38
56.975531 -1.709308 98.957862 0.999696 -0.024637 0.000000 1.5658809689597668e-38
56.818839 -0.463038 100.283644 1.000000 0.000000 0.000000 1.5658809689597668e-38
56.036476 1.403384 100.816960 0.999696 0.024637 0.000000 1.5658809689597668e-38
51.759167 -22.725854 100.404333 0.913545 -0.406737 0.000000 1.5658809689597668e-38
52.049967 -22.157584 100.431415 0.923289 -0.384106 0.000000 1.5658809689597668e-38
52.904908 -20.328793 100.851917 0.932472 -0.361242 0.000000 1.5658809689597668e-38
53.016098 -19.205527 100.268188 0.941089 -0.338158 0.000000 1.5658809689597668e-38
53.491515 -17.865390 100.515949 0.949135 -0.314870 0.000000 1.5658809689597668e-38
53.868576 -16.641795 100.379457 0.956604 -0.291390 0.000000 1.5658809689597668e-38
54.056211 -15.155597 100.165880 0.963493 -0.267733 0.000000 1.5658809689597668e-38
54.996398 -13.543878 100.158228 0.969797 -0.243914 0.000000 1.5658809689597668e-38
55.105613 -12.440898 100.113798 0.975512 -0.219946 0.000000 1.5658809689597668e-38
55.808500 -10.917743 100.586052 0.980635 -0.195845 0.000000 1.5658809689597668e-38
55.413742 -9.324122 100.242042 0.985162 -0.171626 0.000000 1.5658809689597668e-38
56.104103 -8.897509 100.694094 0.989092 -0.147302 0.000000 1.5658809689597668e-38
56.219126 -6.385948 100.539732 0.992421 -0.122888 0.000000 1.5658809689597668e-38
55.626881 -5.104650 100.262252 0.995147 -0.098400 0.000000 1.5658809689597668e-38
56.553580 -4.011225 100.176571 0.997269 -0.073853 0.000000 1.5658809689597668e-38
56.325390 -2.572251 99.956523 0.998786 -0.049260 0.000000 1.5658809689597668e-38
56.506659 -0.971839 99.840342 0.999696 -0.024637 0.000000 1.5658809689597668e-38
56.572542 0.350431 101.197868 1.000000 0.000000 0.000000 1.5658809689597668e-38
56.042591 0.800716 101.302247 0.999696 0.024637 0.000000 1.5658809689597668e-38
57.068721 2.560877 101.356909 0.998786 0.049260 0.000000 1.5658809689597668e-38
51.208272 -24.571091 101.822436 0.903247 -0.429121 0.000000 1.5658809689597668e-38
51.761965 -23.231876 100.834243 0.913545 -0.406737 0.000000 1.5658809689597668e-38
52.637767 -21.855555 101.364757 0.923289 -0.384106 0.000000 1.5658809689597668e-38
52.953112 -20.723249 100.987852 0.932472 -0.361242 0.000000 1.5658809689597668e-38
53.353874 -19.429965 101.420254 0.941089 -0.338158 0.000000 1.5658809689597668e-38
53.492001 -18.239533 100.950884 0.949135 -0.314870 0.000000 1.5658809689597668e-38
54.204929 -16.173096 101.736690 0.956604 -0.291390 0.000000 1.5658809689597668e-38
54.572209 -14.734886 101.282605 0.963493 -0.267733 0.000000 1.5658809689597668e-38
55.167397 -13.961006 101.225528 0.969797 -0.243914 0.000000 1.5658809689597668e-38
55.488292 -12.326260 101.632167 0.975512 -0.219946 0.000000 1.5658809689597668e-38
55.088967 -10.782462 101.646448 0.980635 -0.195845 0.000000 1.5658809689597668e-38
55.671074 -9.544652 101.772155 0.985162 -0.171626 0.000000 1.5658809689597668e-38
55.793671 -8.560835 101.356748 0.989092 -0.147302 0.000000 1.5658809689597668e-38
55.536548 -6.860406 101.716549 0.992421 -0.122888 0.000000 1.5658809689597668e-38
56.528395 -5.428851 101.750345 0.995147 -0.098400 0.000000 1.5658809689597668e-38
56.447493 -4.653929 101.482129 0.997269 -0.073853 0.000000 1.5658809689597668e-38
56.953883 -2.681330 101.331723 0.998786 -0.049260 0.000000 1.5658809689597668e-38
56.850272 -1.279437 101.378562 0.999696 -0.024637 0.000000 1.5658809689597668e-38
56.777861 -0.095214 102.864863 1.000000 0.000000 0.000000 1.5658809689597668e-38
56.454945 1.496967 102.941192 0.999696 0.024637 0.000000 1.5658809689597668e-38
56.744629 2.869895 102.701417 0.998786 0.049260 0.000000 1.5658809689597668e-38
50.686619 -24.400268 102.833685 0.903247 -0.429121 0.000000 1.5658809689597668e-38
52.127886 -22.930183 102.512989 0.913545 -0.406737 0.000000 1.5658809689597668e-38
52.714106 -21.858095 102.698551 0.923289 -0.384106 0.000000 1.5658809689597668e-38
52.711788 -20.571137 102.554057 0.932472 -0.361242 0.000000 1.5658809689597668e-38
52.984963 -18.996714 102.730716 0.941089 -0.338158 0.000000 1.5658809689597668e-38
54.094413 -18.077565 102.892054 0.949135 -0.314870 0.000000 1.5658809689597668e-38
53.809147 -16.371646 102.883151 0.956604 -0.291390 0.000000 1.5658809689597668e-38
54.359112 -14.856718 103.147958 0.963493 -0.267733 0.000000 1.5658809689597668e-38
54.855901 -13.405366 102.169900 0.969797 -0.243914 0.000000 1.5658809689597668e-38
55.311755 -13.264464 102.959306 0.975512 -0.219946 0.000000 1.5658809689597668e-38
55.184209 -11.698055 102.759112 0.980635 -0.195845 0.000000 1.5658809689597668e-38
56.211096 -9.859755 102.721304 0.985162 -0.171626 0.000000 1.5658809689597668e-38
56.651743 -8.643418 102.385982 0.989092 -0.147302 0.000000 1.5658809689597668e-38
56.637748 -6.905645 103.107864 0.992421 -0.122888 0.000000 1.5658809689597668e-38
56.078042 -6.120107 102.250181 0.995147 -0.098400 0.000000 1.5658809689597668e-38
56.799200 -3.830382 103.001619 0.997269 -0.073853 0.000000 1.5658809689597668e-38
56.839874 -2.419270 102.498194 0.998786 -0.049260 0.000000 1.5658809689597668e-38
56.129163 -1.883046 102.244447 0.999696 -0.024637 0.000000 1.5658809689597668e-38
56.264449 -0.408155 103.639883 1.000000 0.000000 0.000000 1.5658809689597668e-38
57.009767 1.488805 104.370069 0.999696 0.024637 0.000000 1.5658809689597668e-38
56.404093 2.912119 104.312346 0.998786 0.049260 0.000000 1.5658809689597668e-38
51.792925 -23.459677 103.335163 0.913545 -0.406737 0.000000 1.5658809689597668e-38
52.739296 -21.604953 103.887536 0.923289 -0.384106 0.000000 1.5658809689597668e-38
53.219330 -20.227706 103.378790 0.932472 -0.361242 0.000000 1.5658809689597668e-38
53.571002 -19.295419 104.047201 0.941089 -0.338158 0.000000 1.5658809689597668e-38
54.009469 -17.667791 103.442672 0.949135 -0.314870 0.000000 1.5658809689597668e-38
54.772357 -16.721145 103.877248 0.956604 -0.291390 0.000000 1.5658809689597668e-38
54.241891 -15.250347 103.912073 0.963493 -0.267733 0.000000 1.5658809689597668e-38
55.104157 -14.086051 103.551640 0.969797 -0.243914 0.000000 1.5658809689597668e-38
55.645360 -13.023991 104.158903 0.975512 -0.219946 0.000000 1.5658809689597668e-38
56.252528 -10.467800 103.592456 0.980635 -0.195845 0.000000 1.5658809689597668e-38
56.178787 -9.924825 104.284882 0.985162 -0.171626 0.000000 1.5658809689597668e-38
56.342813 -8.461042 103.644408 0.989092 -0.147302 0.000000 1.5658809689597668e-38
56.303263 -7.187884 103.910229 0.992421 -0.122888 0.000000 1.5658809689597668e-38
56.577272 -5.759925 103.724293 0.995147 -0.098400 0.000000 1.5658809689597668e-38
56.877983 -3.987997 103.673695 0.997269 -0.073853 0.000000 1.5658809689597668e-38
56.759617 -3.059448 104.699893 0.998786 -0.049260 0.000000 1.5658809689597668e-38
56.545547 -1.324525 104.051051 0.999696 -0.024637 0.000000 1.5658809689597668e-38
56.741057 -0.258098 105.070801 1.000000 0.000000 0.000000 1.5658809689597668e-38
56.663862 1.459398 104.899725 0.999696 0.024637 0.000000 1.5658809689597668e-38
52.871024 -20.745509 105.014441 0.932472 -0.361242 0.000000 1.5658809689597668e-38
53.672648 -18.772318 104.780931 0.941089 -0.338158 0.000000 1.5658809689597668e-38
54.116113 -17.997745 105.103705 0.949135 -0.314870 0.000000 1.5658809689597668e-38
54.323285 -16.249551 104.426884 0.956604 -0.291390 0.000000 1.5658809689597668e-38
54.521241 -14.917890 105.504089 0.963493 -0.267733 0.000000 1.5658809689597668e-38
55.748862 -13.796618 105.299299 0.969797 -0.243914 0.000000 1.5658809689597668e-38
54.987368 -12.523010 105.322508 0.975512 -0.219946 0.000000 1.5658809689597668e-38
55.691615 -11.179232 105.524295 0.980635 -0.195845 0.000000 1.5658809689597668e-38
56.532814 -9.697387 105.139383 0.985162 -0.171626 0.000000 1.5658809689597668e-38
56.538205 -8.498284 105.467856 0.989092 -0.147302 0.000000 1.5658809689597668e-38
56.351609 -6.772339 105.148733 0.992421 -0.122888 0.000000 1.5658809689597668e-38
56.478583 -5.495222 105.036951 0.995147 -0.098400 0.000000 1.5658809689597668e-38
57.083448 -4.503508 105.222042 0.997269 -0.073853 0.000000 1.5658809689597668e-38
56.651907 -2.444552 105.369042 0.998786 -0.049260 0.000000 1.5658809689597668e-38
56.909939 -1.407459 105.659959 0.999696 -0.024637 0.000000 1.5658809689597668e-38
57.256783 -0.226737 106.672164 1.000000 0.000000 0.000000 1.5658809689597668e-38
56.842915 1.450950 105.762282 0.999696 0.024637 0.000000 1.5658809689597668e-38
53.639801 -19.190989 106.751379 0.941089 -0.338158 0.000000 1.5658809689597668e-38
53.973396 -17.294024 105.946302 0.949135 -0.314870 0.000000 1.5658809689597668e-38
54.740399 -16.621746 106.469722 0.956604 -0.291390 0.000000 1.5658809689597668e-38
55.175519 -15.454005 106.722451 0.963493 -0.267733 0.000000 1.5658809689597668e-38
55.899111 -13.997158 106.236433 0.969797 -0.243914 0.000000 1.5658809689597668e-38
56.012128 -12.248610 105.922064 0.975512 -0.219946 0.000000 1.5658809689597668e-38
56.090456 -10.936260 106.375319 0.980635 -0.195845 0.000000 1.5658809689597668e-38
56.633031 -10.268889 105.746682 0.985162 -0.171626 0.000000 1.5658809689597668e-38
56.726427 -8.644367 106.381356 0.989092 -0.147302 0.000000 1.5658809689597668e-38
56.256900 -6.752510 106.493991 0.992421 -0.122888 0.000000 1.5658809689597668e-38
56.712497 -5.982073 106.343680 0.995147 -0.098400 0.000000 1.5658809689597668e-38
56.973422 -4.371278 106.242463 0.997269 -0.073853 0.000000 1.5658809689597668e-38
56.962931 -2.607112 106.518935 0.998786 -0.049260 0.000000 1.5658809689597668e-38
57.364563 -1.431965 106.695627 0.999696 -0.024637 0.000000 1.5658809689597668e-38
56.760305 0.119472 107.732372 1.000000 0.000000 0.000000 1.5658809689597668e-38
54.220937 -17.949490 107.931865 0.949135 -0.314870 0.000000 1.5658809689597668e-38
54.314164 -16.604439 107.729352 0.956604 -0.291390 0.000000 1.5658809689597668e-38
54.560765 -15.224515 107.705757 0.963493 -0.267733 0.000000 1.5658809689597668e-38
55.346781 -14.314332 107.606029 0.969797 -0.243914 0.000000 1.5658809689597668e-38
55.124693 -12.463590 107.851357 0.975512 -0.219946 0.000000 1.5658809689597668e-38
55.938430 -10.800920 107.419723 0.980635 -0.195845 0.000000 1.5658809689597668e-38
56.044280 -9.885114 108.307940 0.985162 -0.171626 0.000000 1.5658809689597668e-38
56.401834 -7.769410 107.617317 0.989092 -0.147302 0.000000 1.5658809689597668e-38
56.435047 -6.432286 107.684277 0.992421 -0.122888 0.000000 1.5658809689597668e-38
56.744691 -5.361350 108.003050 0.995147 -0.098400 0.000000 1.5658809689597668e-38
56.779734 -3.947190 107.560884 0.997269 -0.073853 0.000000 1.5658809689597668e-38
56.746394 -3.025452 107.277277 0.998786 -0.049260 0.000000 1.5658809689597668e-38
57.118870 -1.379827 107.971536 0.999696 -0.024637 0.000000 1.5658809689597668e-38
57.444155 -0.121159 108.808067 1.000000 0.000000 0.000000 1.5658809689597668e-38
55.055144 -16.654138 108.991419 0.956604 -0.291390 0.000000 1.5658809689597668e-38
54.671556 -15.556089 108.664010 0.963493 -0.267733 0.000000 1.5658809689597668e-38
55.629701 -14.140924 108.918204 0.969797 -0.243914 0.000000 1.5658809689597668e-38
55.752123 -12.558402 109.144316 0.975512 -0.219946 0.000000 1.5658809689597668e-38
56.143421 -11.256326 109.004782 0.980635 -0.195845 0.000000 1.5658809689597668e-38
56.837657 -9.780629 108.498843 0.985162 -0.171626 0.000000 1.5658809689597668e-38
56.165263 -8.507356 108.523854 0.989092 -0.147302 0.000000 1.5658809689597668e-38
56.032544 -7.114990 108.980171 0.992421 -0.122888 0.000000 1.5658809689597668e-38
57.321276 -5.632168 108.958919 0.995147 -0.098400 0.000000 1.5658809689597668e-38
57.182161 -4.198310 108.665735 0.997269 -0.073853 0.000000 1.5658809689597668e-38
57.765539 -3.113345 108.990902 0.998786 -0.049260 0.000000 1.5658809689597668e-38
56.932293 -1.374990 108.988825 0.999696 -0.024637 0.000000 1.5658809689597668e-38
55.402256 -15.352875 110.119896 0.963493 -0.267733 0.000000 1.5658809689597668e-38
55.593576 -14.181161 109.838051 0.969797 -0.243914 0.000000 1.5658809689597668e-38
55.792742 -12.716215 109.839834 0.975512 -0.219946 0.000000 1.5658809689597668e-38
56.102974 -11.603862 110.331815 0.980635 -0.195845 0.000000 1.5658809689597668e-38
56.577088 -9.620405 109.851500 0.985162 -0.171626 0.000000 1.5658809689597668e-38
56.335552 -8.036588 110.044387 0.989092 -0.147302 0.000000 1.5658809689597668e-38
56.986769 -7.381062 110.017340 0.992421 -0.122888 0.000000 1.5658809689597668e-38
57.329360 -5.593285 110.028155 0.995147 -0.098400 0.000000 1.5658809689597668e-38
57.263229 -4.133221 110.728445 0.997269 -0.073853 0.000000 1.5658809689597668e-38
57.192418 -2.625853 110.062643 0.998786 -0.049260 0.000000 1.5658809689597668e-38
56.935664 -1.283945 109.663197 0.999696 -0.024637 0.000000 1.5658809689597668e-38
55.427795 -13.716702 111.562706 0.969797 -0.243914 0.000000 1.5658809689597668e-38
55.650059 -12.740797 111.204262 0.975512 -0.219946 0.000000 1.5658809689597668e-38
56.077112 -10.781091 111.397699 0.980635 -0.195845 0.000000 1.5658809689597668e-38
55.959976 -10.031987 111.201562 0.985162 -0.171626 0.000000 1.5658809689597668e-38
56.809995 -7.900927 111.576398 0.989092 -0.147302 0.000000 1.5658809689597668e-38
56.843090 -7.297717 111.766508 0.992421 -0.122888 0.000000 1.5658809689597668e-38
56.940932 -6.065281 111.447503 0.995147 -0.098400 0.000000 1.5658809689597668e-38
56.780863 -4.034440 111.222021 0.997269 -0.073853 0.000000 1.5658809689597668e-38
57.146791 -3.646660 111.663465 0.998786 -0.049260 0.000000 1.5658809689597668e-38
56.873537 -11.626916 112.845908 0.980635 -0.195845 0.000000 1.5658809689597668e-38
55.854754 -9.757096 112.685603 0.985162 -0.171626 0.000000 1.5658809689597668e-38
56.598622 -8.866783 112.493131 0.989092 -0.147302 0.000000 1.5658809689597668e-38
56.996063 -7.394101 112.515310 0.992421 -0.122888 0.000000 1.5658809689597668e-38
57.061418 -5.508572 112.099586 0.995147 -0.098400 0.000000 1.5658809689597668e-38
57.023718 -4.183267 112.458059 0.997269 -0.073853 0.000000 1.5658809689597668e-38
56.959684 -2.544750 112.867950 0.998786 -0.049260 0.000000 1.5658809689597668e-38
56.783610 -9.987673 113.495718 0.985162 -0.171626 0.000000 1.5658809689597668e-38
56.557705 -8.328392 113.517964 0.989092 -0.147302 0.000000 1.5658809689597668e-38
57.510322 -7.462262 113.769527 0.992421 -0.122888 0.000000 1.5658809689597668e-38
57.480586 -5.562686 113.708589 0.995147 -0.098400 0.000000 1.5658809689597668e-38
57.590273 -4.517864 113.727910 0.997269 -0.073853 0.000000 1.5658809689597668e-38
56.619999 -8.102197 115.322306 0.989092 -0.147302 0.000000 1.5658809689597668e-38
56.808650 -6.855001 114.923741 0.992421 -0.122888 0.000000 1.5658809689597668e-38
57.284075 -5.581433 115.815272 0.995147 -0.098400 0.000000 1.5658809689597668e-38
57.697401 -3.921896 115.281215 0.997269 -0.073853 0.000000 1.5658809689597668e-38
57.565199 -6.813614 116.848333 0.992421 -0.122888 0.000000 1.5658809689597668e-38
57.369623 -5.737957 116.848853 0.995147 -0.098400 0.000000 1.5658809689597668e-38
57.198388 -5.271298 117.757904 0.995147 -0.098400 0.000000 1.5658809689597668e-38
