# .PCD v0.7 - Point Cloud Data file format
VERSION 0.7
FIELDS x y z normal_x normal_y normal_z rgb
SIZE 4 4 4 4 4 4 4
TYPE F F F F F F F
COUNT 1 1 1 1 1 1 1
WIDTH 314
HEIGHT 1
VIEWPOINT 0 0 0 1 0 0 0
POINTS 314
DATA ascii
-30.278395 -9.726198 19.711205 -0.665833 -0.211817 -0.715402 1.6119787838914282e-38
-31.831207 -9.115286 21.272648 -0.655452 -0.190864 -0.730721 1.6119787838914282e-38
-31.555470 -10.296495 20.940202 -0.650551 -0.206955 -0.730721 1.6119787838914282e-38
-31.190222 -10.762884 20.365161 -0.645255 -0.222920 -0.730721 1.6119787838914282e-38
-31.287269 -11.904973 21.300379 -0.639567 -0.238750 -0.730721 1.6119787838914282e-38
-31.002711 -13.023266 21.111577 -0.633490 -0.254435 -0.730721 1.6119787838914282e-38
-33.929114 -8.448424 22.512090 -0.649143 -0.171796 -0.741012 1.6119787838914282e-38
-33.684306 -9.970728 22.199697 -0.644713 -0.187737 -0.741012 1.6119787838914282e-38
-33.345707 -10.199515 22.563398 -0.639892 -0.203564 -0.741012 1.6119787838914282e-38
-32.964963 -11.188880 22.514934 -0.634683 -0.219268 -0.741012 1.6119787838914282e-38
-32.667320 -12.080440 22.446298 -0.629088 -0.234838 -0.741012 1.6119787838914282e-38
-32.227988 -13.236433 22.064728 -0.623111 -0.250266 -0.741012 1.6119787838914282e-38
-32.130666 -14.008464 21.826111 -0.616756 -0.265542 -0.741012 1.6119787838914282e-38
-31.491665 -14.477839 21.866231 -0.610027 -0.280657 -0.741012 1.6119787838914282e-38
-35.556320 -8.746634 23.338807 -0.646908 -0.154255 -0.746804 1.6119787838914282e-38
-35.238715 -9.071815 23.208296 -0.642911 -0.170147 -0.746804 1.6119787838914282e-38
-34.927566 -10.302999 23.747820 -0.638524 -0.185935 -0.746804 1.6119787838914282e-38
-34.606190 -10.679089 23.159444 -0.633749 -0.201610 -0.746804 1.6119787838914282e-38
-34.293354 -12.015196 23.137341 -0.628589 -0.217163 -0.746804 1.6119787838914282e-38
-33.996625 -12.163491 23.249282 -0.623048 -0.232584 -0.746804 1.6119787838914282e-38
-33.691809 -13.910280 23.067386 -0.617129 -0.247863 -0.746804 1.6119787838914282e-38
-33.546518 -14.476641 23.383480 -0.610835 -0.262993 -0.746804 1.6119787838914282e-38
-33.014697 -15.652474 23.317371 -0.604170 -0.277962 -0.746804 1.6119787838914282e-38
-32.412907 -16.372574 23.398611 -0.597138 -0.292763 -0.746804 1.6119787838914282e-38
-32.072358 -16.997214 23.607612 -0.589744 -0.307386 -0.746804 1.6119787838914282e-38
-36.479321 -8.351505 24.539672 -0.648765 -0.137899 -0.748390 1.6119787838914282e-38
-36.263741 -8.186258 25.428066 -0.645171 -0.153841 -0.748390 1.6119787838914282e-38
-36.392028 -9.497807 24.987496 -0.641185 -0.169690 -0.748390 1.6119787838914282e-38
-35.776174 -10.435303 25.020113 -0.636809 -0.185436 -0.748390 1.6119787838914282e-38
-35.750376 -11.260225 24.466757 -0.632047 -0.201069 -0.748390 1.6119787838914282e-38
-35.694895 -12.454454 24.385599 -0.626902 -0.216580 -0.748390 1.6119787838914282e-38
-35.777825 -13.297977 24.663103 -0.621375 -0.231959 -0.748390 1.6119787838914282e-38
-34.915626 -13.869436 24.798705 -0.615472 -0.247198 -0.748390 1.6119787838914282e-38
-34.667787 -15.167443 25.005389 -0.609195 -0.262287 -0.748390 1.6119787838914282e-38
-34.243837 -15.870748 24.686332 -0.602548 -0.277216 -0.748390 1.6119787838914282e-38
-34.034920 -16.737964 24.573531 -0.595535 -0.291977 -0.748390 1.6119787838914282e-38
-33.482575 -17.210120 24.864402 -0.588161 -0.306561 -0.748390 1.6119787838914282e-38
-38.080210 -7.589806 25.906460 -0.654771 -0.122398 -0.745851 1.6119787838914282e-38
-38.058919 -7.858122 26.505387 -0.651556 -0.138493 -0.745851 1.6119787838914282e-38
-37.666795 -8.789197 26.769460 -0.647946 -0.154503 -0.745851 1.6119787838914282e-38
-37.723914 -10.078027 26.032589 -0.643943 -0.170420 -0.745851 1.6119787838914282e-38
-37.769702 -10.898119 25.461326 -0.639549 -0.186233 -0.745851 1.6119787838914282e-38
-37.373659 -11.873481 26.264272 -0.634767 -0.201934 -0.745851 1.6119787838914282e-38
-36.578500 -13.041250 26.602191 -0.629599 -0.217512 -0.745851 1.6119787838914282e-38
-36.541929 -13.585694 25.494073 -0.624049 -0.232957 -0.745851 1.6119787838914282e-38
-36.424862 -14.240011 26.030315 -0.618120 -0.248261 -0.745851 1.6119787838914282e-38
-35.836903 -15.375221 25.546420 -0.611816 -0.263415 -0.745851 1.6119787838914282e-38
-35.506857 -15.899913 26.305394 -0.605140 -0.278409 -0.745851 1.6119787838914282e-38
-35.102522 -16.722441 25.601652 -0.598097 -0.293233 -0.745851 1.6119787838914282e-38
-34.922272 -17.491148 26.152773 -0.590691 -0.307880 -0.745851 1.6119787838914282e-38
-34.262205 -18.914565 25.737392 -0.582926 -0.322339 -0.745851 1.6119787838914282e-38
-40.515695 -6.183392 27.619104 -0.665019 -0.107429 -0.739059 1.6119787838914282e-38
-39.981271 -7.509044 27.049315 -0.662171 -0.123781 -0.739059 1.6119787838914282e-38
-39.716976 -8.082382 27.282007 -0.658920 -0.140058 -0.739059 1.6119787838914282e-38
-39.391482 -8.579272 26.786169 -0.655269 -0.156249 -0.739059 1.6119787838914282e-38
-38.915405 -10.657187 27.169264 -0.651221 -0.172346 -0.739059 1.6119787838914282e-38
-38.768511 -11.048802 27.138140 -0.646777 -0.188338 -0.739059 1.6119787838914282e-38
-38.632949 -12.338731 26.892509 -0.641940 -0.204216 -0.739059 1.6119787838914282e-38
-38.019546 -13.115990 27.347045 -0.636714 -0.219970 -0.739059 1.6119787838914282e-38
-37.893279 -14.195625 27.569175 -0.631101 -0.235590 -0.739059 1.6119787838914282e-38
-37.206066 -14.642110 27.328273 -0.625106 -0.251067 -0.739059 1.6119787838914282e-38
-36.724215 -16.111016 27.156239 -0.618730 -0.266392 -0.739059 1.6119787838914282e-38
-36.366354 -16.643101 27.129360 -0.611979 -0.281555 -0.739059 1.6119787838914282e-38
-36.611336 -17.856996 27.011034 -0.604857 -0.296547 -0.739059 1.6119787838914282e-38
-35.330646 -18.456669 26.986718 -0.597367 -0.311359 -0.739059 1.6119787838914282e-38
-35.690270 -19.795707 27.048847 -0.589514 -0.325982 -0.739059 1.6119787838914282e-38
-41.732406 -5.667330 28.555854 -0.679642 -0.092673 -0.727667 1.6119787838914282e-38
-41.177962 -7.173095 28.492963 -0.677152 -0.109389 -0.727667 1.6119787838914282e-38
-40.859455 -7.199759 28.252971 -0.674251 -0.126039 -0.727667 1.6119787838914282e-38
-41.012451 -8.745344 28.540973 -0.670941 -0.142613 -0.727667 1.6119787838914282e-38
-40.593391 -9.505166 28.116052 -0.667224 -0.159100 -0.727667 1.6119787838914282e-38
-40.252460 -10.907018 28.410608 -0.663102 -0.175490 -0.727667 1.6119787838914282e-38
-39.583622 -12.095234 28.369768 -0.658577 -0.191774 -0.727667 1.6119787838914282e-38
-40.178587 -12.614160 28.768078 -0.653652 -0.207942 -0.727667 1.6119787838914282e-38
-39.421305 -13.671729 28.852129 -0.648331 -0.223983 -0.727667 1.6119787838914282e-38
-39.025095 -14.359200 28.668185 -0.642615 -0.239888 -0.727667 1.6119787838914282e-38
-39.615410 -15.587558 28.130186 -0.636510 -0.255648 -0.727667 1.6119787838914282e-38
-38.606099 -16.072221 28.341167 -0.630018 -0.271252 -0.727667 1.6119787838914282e-38
-37.371013 -17.876916 28.128507 -0.623144 -0.286692 -0.727667 1.6119787838914282e-38
-37.268525 -18.486438 28.545806 -0.615892 -0.301957 -0.727667 1.6119787838914282e-38
-37.066604 -19.345055 28.362337 -0.608265 -0.317040 -0.727667 1.6119787838914282e-38
-36.492264 -20.016328 28.937935 -0.600270 -0.331930 -0.727667 1.6119787838914282e-38
-42.351152 -5.536306 29.493000 -0.696654 -0.094993 -0.711090 1.6119787838914282e-38
-43.088398 -7.185935 29.512144 -0.694103 -0.112128 -0.711090 1.6119787838914282e-38
-41.849099 -7.944900 29.388673 -0.691129 -0.129194 -0.711090 1.6119787838914282e-38
-42.059534 -9.338062 29.845024 -0.687737 -0.146183 -0.711090 1.6119787838914282e-38
-42.163915 -10.233831 29.803369 -0.683926 -0.163083 -0.711090 1.6119787838914282e-38
-41.086854 -10.353292 29.378762 -0.679701 -0.179883 -0.711090 1.6119787838914282e-38
-41.506952 -11.879837 30.041358 -0.675062 -0.196575 -0.711090 1.6119787838914282e-38
-41.668151 -13.022859 29.544579 -0.670014 -0.213147 -0.711090 1.6119787838914282e-38
-41.262185 -14.456851 29.520389 -0.664560 -0.229590 -0.711090 1.6119787838914282e-38
-40.308688 -14.751377 29.797026 -0.658701 -0.245893 -0.711090 1.6119787838914282e-38
-39.658942 -16.034759 29.479238 -0.652443 -0.262047 -0.711090 1.6119787838914282e-38
-39.590951 -16.813350 30.000490 -0.645789 -0.278042 -0.711090 1.6119787838914282e-38
-39.148809 -18.269635 29.791419 -0.638743 -0.293868 -0.711090 1.6119787838914282e-38
-38.505932 -18.579057 29.487093 -0.631309 -0.309516 -0.711090 1.6119787838914282e-38
-38.371082 -19.668494 29.568492 -0.623491 -0.324976 -0.711090 1.6119787838914282e-38
-37.803891 -20.453490 29.279420 -0.615296 -0.340239 -0.711090 1.6119787838914282e-38
-44.400480 -6.097968 30.403315 -0.718611 -0.097987 -0.688474 1.6119787838914282e-38
-43.079654 -6.994419 30.965584 -0.715979 -0.115662 -0.688474 1.6119787838914282e-38
-43.435336 -7.951130 31.221282 -0.712912 -0.133266 -0.688474 1.6119787838914282e-38
-43.760455 -8.808815 31.301583 -0.709412 -0.150790 -0.688474 1.6119787838914282e-38
-43.071441 -10.301284 29.997007 -0.705482 -0.168223 -0.688474 1.6119787838914282e-38
-43.158746 -11.167574 31.288020 -0.701123 -0.185553 -0.688474 1.6119787838914282e-38
-42.274935 -12.396633 31.505597 -0.696339 -0.202770 -0.688474 1.6119787838914282e-38
-41.874273 -13.535244 31.582468 -0.691132 -0.219865 -0.688474 1.6119787838914282e-38
-42.161310 -14.893680 30.801503 -0.685505 -0.236826 -0.688474 1.6119787838914282e-38
-41.691290 -15.587866 31.167262 -0.679462 -0.253643 -0.688474 1.6119787838914282e-38
-41.079958 -16.497737 30.945479 -0.673007 -0.270306 -0.688474 1.6119787838914282e-38
-41.344594 -17.956673 30.812242 -0.666143 -0.286805 -0.688474 1.6119787838914282e-38
-40.460229 -18.567853 31.349074 -0.658874 -0.303130 -0.688474 1.6119787838914282e-38
-39.761729 -19.879958 30.689905 -0.651206 -0.319271 -0.688474 1.6119787838914282e-38
-38.734139 -19.996723 31.106598 -0.643142 -0.335218 -0.688474 1.6119787838914282e-38
-39.200148 -21.325174 31.042944 -0.634688 -0.350962 -0.688474 1.6119787838914282e-38
-45.526687 -5.362375 31.810384 -0.747820 -0.083260 -0.658660 1.6119787838914282e-38
-45.059082 -6.078092 32.274375 -0.745542 -0.101659 -0.658660 1.6119787838914282e-38
-45.339147 -7.288937 31.939777 -0.742811 -0.119996 -0.658660 1.6119787838914282e-38
-44.455287 -8.420381 32.140699 -0.739629 -0.138261 -0.658660 1.6119787838914282e-38
-44.620004 -8.919377 31.779875 -0.735998 -0.156441 -0.658660 1.6119787838914282e-38
-44.270465 -10.495444 32.089540 -0.731920 -0.174527 -0.658660 1.6119787838914282e-38
-44.106948 -12.155790 31.957496 -0.727398 -0.192506 -0.658660 1.6119787838914282e-38
-43.866166 -12.186029 32.844357 -0.722434 -0.210369 -0.658660 1.6119787838914282e-38
-43.267716 -14.181031 32.386362 -0.717032 -0.228104 -0.658660 1.6119787838914282e-38
-43.194670 -14.985809 31.976294 -0.711195 -0.245701 -0.658660 1.6119787838914282e-38
-42.672324 -15.979930 31.770898 -0.704925 -0.263148 -0.658660 1.6119787838914282e-38
-42.328786 -16.610350 32.154881 -0.698228 -0.280436 -0.658660 1.6119787838914282e-38
-41.651027 -18.618558 32.449284 -0.691107 -0.297554 -0.658660 1.6119787838914282e-38
-41.439408 -18.633346 32.211231 -0.683566 -0.314490 -0.658660 1.6119787838914282e-38
-40.922466 -20.484009 32.817402 -0.675610 -0.331236 -0.658660 1.6119787838914282e-38
-40.008233 -20.719756 32.710597 -0.667244 -0.347781 -0.658660 1.6119787838914282e-38
-39.652902 -21.558228 32.021376 -0.658473 -0.364115 -0.658660 1.6119787838914282e-38
-38.945662 -23.124912 32.013791 -0.649303 -0.380227 -0.658660 1.6119787838914282e-38
-46.336413 -5.614210 33.359978 -0.779656 -0.086804 -0.620162 1.6119787838914282e-38
-46.061963 -5.833747 33.063049 -0.777281 -0.105986 -0.620162 1.6119787838914282e-38
-45.849471 -7.281296 33.432093 -0.774434 -0.125105 -0.620162 1.6119787838914282e-38
-45.680969 -8.422063 33.725791 -0.771116 -0.144147 -0.620162 1.6119787838914282e-38
-44.944787 -9.641397 33.157308 -0.767331 -0.163101 -0.620162 1.6119787838914282e-38
-44.693586 -11.090276 33.939236 -0.763080 -0.181957 -0.620162 1.6119787838914282e-38
-44.471728 -11.429376 33.607679 -0.758365 -0.200702 -0.620162 1.6119787838914282e-38
-45.202495 -13.289931 33.494128 -0.753190 -0.219325 -0.620162 1.6119787838914282e-38
-44.438163 -14.166900 33.585904 -0.747558 -0.237815 -0.620162 1.6119787838914282e-38
-43.926328 -15.523600 33.667759 -0.741472 -0.256161 -0.620162 1.6119787838914282e-38
-43.334095 -16.308967 33.615442 -0.734936 -0.274351 -0.620162 1.6119787838914282e-38
-43.046880 -16.901380 33.447424 -0.727953 -0.292375 -0.620162 1.6119787838914282e-38
-42.238893 -18.918900 33.539828 -0.720529 -0.310221 -0.620162 1.6119787838914282e-38
-42.290223 -19.659391 33.749612 -0.712667 -0.327879 -0.620162 1.6119787838914282e-38
-41.413329 -21.036712 33.616711 -0.704373 -0.345338 -0.620162 1.6119787838914282e-38
-40.985699 -21.672378 33.151471 -0.695651 -0.362587 -0.620162 1.6119787838914282e-38
-41.100013 -22.564378 33.348816 -0.686506 -0.379616 -0.620162 1.6119787838914282e-38
-39.817976 -23.376329 33.084089 -0.676945 -0.396414 -0.620162 1.6119787838914282e-38
-47.472638 -5.124391 34.886360 -0.815778 -0.090826 -0.571188 1.6119787838914282e-38
-46.590982 -6.133336 34.363744 -0.813293 -0.110897 -0.571188 1.6119787838914282e-38
-46.651594 -7.400569 34.496710 -0.810314 -0.130901 -0.571188 1.6119787838914282e-38
-46.484806 -9.074241 34.450895 -0.806843 -0.150825 -0.571188 1.6119787838914282e-38
-46.194255 -9.390337 34.984607 -0.802882 -0.170658 -0.571188 1.6119787838914282e-38
-45.850981 -10.956559 34.616606 -0.798434 -0.190387 -0.571188 1.6119787838914282e-38
-46.199010 -12.362323 34.398319 -0.793501 -0.210001 -0.571188 1.6119787838914282e-38
-45.280010 -12.952037 34.860147 -0.788086 -0.229487 -0.571188 1.6119787838914282e-38
-44.757751 -14.329658 34.344296 -0.782193 -0.248833 -0.571188 1.6119787838914282e-38
-44.760257 -15.675889 34.836533 -0.775825 -0.268029 -0.571188 1.6119787838914282e-38
-44.458564 -16.585714 34.847262 -0.768986 -0.287062 -0.571188 1.6119787838914282e-38
-44.151802 -17.354627 34.234896 -0.761680 -0.305921 -0.571188 1.6119787838914282e-38
-43.389475 -18.748045 34.887378 -0.753912 -0.324594 -0.571188 1.6119787838914282e-38
-43.419322 -20.245601 34.864189 -0.745685 -0.343070 -0.571188 1.6119787838914282e-38
-42.623746 -20.867182 34.441251 -0.737007 -0.361337 -0.571188 1.6119787838914282e-38
-41.706281 -21.791101 34.711374 -0.727881 -0.379386 -0.571188 1.6119787838914282e-38
-41.779178 -22.758056 34.341511 -0.718313 -0.397204 -0.571188 1.6119787838914282e-38
-41.048875 -24.331845 34.592213 -0.708308 -0.414780 -0.571188 1.6119787838914282e-38
-48.165993 -5.092044 36.012141 -0.855030 -0.095196 -0.509767 1.6119787838914282e-38
-47.672610 -6.674529 36.275546 -0.852425 -0.116233 -0.509767 1.6119787838914282e-38
-47.533795 -8.146603 36.245979 -0.849302 -0.137199 -0.509767 1.6119787838914282e-38
-47.252648 -8.510846 36.048053 -0.845664 -0.158082 -0.509767 1.6119787838914282e-38
-46.368657 -10.101460 35.881117 -0.841513 -0.178869 -0.509767 1.6119787838914282e-38
-46.609318 -11.256651 36.117080 -0.836850 -0.199547 -0.509767 1.6119787838914282e-38
-47.420188 -12.337614 35.845391 -0.831680 -0.220105 -0.509767 1.6119787838914282e-38
-46.260173 -13.721646 36.148126 -0.826005 -0.240528 -0.509767 1.6119787838914282e-38
-46.024128 -14.533104 35.865140 -0.819828 -0.260806 -0.509767 1.6119787838914282e-38
-45.349222 -15.289657 35.934820 -0.813154 -0.280925 -0.509767 1.6119787838914282e-38
-44.845826 -16.791700 35.724486 -0.805986 -0.300874 -0.509767 1.6119787838914282e-38
-44.712247 -18.026220 36.046737 -0.798328 -0.320640 -0.509767 1.6119787838914282e-38
-44.182201 -19.274540 35.809700 -0.790186 -0.340212 -0.509767 1.6119787838914282e-38
-44.189545 -20.175188 35.876680 -0.781564 -0.359577 -0.509767 1.6119787838914282e-38
-42.680261 -20.786603 35.566066 -0.772468 -0.378723 -0.509767 1.6119787838914282e-38
-42.627048 -22.183813 35.807157 -0.762903 -0.397640 -0.509767 1.6119787838914282e-38
-42.176455 -23.400750 36.438101 -0.752874 -0.416315 -0.509767 1.6119787838914282e-38
-41.664597 -24.223101 35.117580 -0.742389 -0.434738 -0.509767 1.6119787838914282e-38
-48.863352 -5.378693 37.343585 -0.895352 -0.099685 -0.434059 1.6119787838914282e-38
-48.349804 -6.913456 37.257943 -0.892625 -0.121714 -0.434059 1.6119787838914282e-38
-47.868175 -7.119037 37.545955 -0.889355 -0.143669 -0.434059 1.6119787838914282e-38
-48.273953 -8.710161 37.190359 -0.885545 -0.165537 -0.434059 1.6119787838914282e-38
-48.082475 -10.061641 37.689005 -0.881198 -0.187304 -0.434059 1.6119787838914282e-38
-47.113605 -11.623849 37.117517 -0.876316 -0.208958 -0.434059 1.6119787838914282e-38
-47.031560 -13.004947 36.604771 -0.870902 -0.230485 -0.434059 1.6119787838914282e-38
-46.810730 -13.594255 36.561756 -0.864959 -0.251872 -0.434059 1.6119787838914282e-38
-46.390336 -14.468766 37.047912 -0.858491 -0.273106 -0.434059 1.6119787838914282e-38
-46.110160 -15.764748 37.245111 -0.851502 -0.294174 -0.434059 1.6119787838914282e-38
-46.222062 -17.339349 36.994646 -0.843995 -0.315063 -0.434059 1.6119787838914282e-38
-45.545337 -17.749002 37.303745 -0.835977 -0.335761 -0.434059 1.6119787838914282e-38
-45.158127 -19.363630 37.452520 -0.827451 -0.356256 -0.434059 1.6119787838914282e-38
-44.529988 -20.142375 37.528356 -0.818422 -0.376534 -0.434059 1.6119787838914282e-38
-43.455265 -21.429866 37.488710 -0.808897 -0.396584 -0.434059 1.6119787838914282e-38
-43.434166 -21.811317 37.185657 -0.798881 -0.416392 -0.434059 1.6119787838914282e-38
-42.364571 -23.725084 37.263226 -0.788379 -0.435948 -0.434059 1.6119787838914282e-38
-41.950756 -24.940194 36.825869 -0.777399 -0.455240 -0.434059 1.6119787838914282e-38
-49.135748 -5.762613 38.939104 -0.933586 -0.103942 -0.342947 1.6119787838914282e-38
-49.019782 -6.316749 38.658667 -0.930742 -0.126912 -0.342947 1.6119787838914282e-38
-48.587534 -7.907280 38.408650 -0.927333 -0.149804 -0.342947 1.6119787838914282e-38
-48.316167 -9.033804 37.880491 -0.923360 -0.172606 -0.342947 1.6119787838914282e-38
-48.795281 -9.803112 37.560101 -0.918828 -0.195303 -0.342947 1.6119787838914282e-38
-47.923759 -11.511941 38.398756 -0.913737 -0.217881 -0.342947 1.6119787838914282e-38
-48.028001 -12.514937 38.412320 -0.908092 -0.240327 -0.342947 1.6119787838914282e-38
-46.532305 -13.752177 38.754986 -0.901895 -0.262627 -0.342947 1.6119787838914282e-38
-47.456059 -14.647801 38.418397 -0.895151 -0.284768 -0.342947 1.6119787838914282e-38
-46.542838 -16.022338 38.862417 -0.887863 -0.306736 -0.342947 1.6119787838914282e-38
-46.136231 -17.486447 38.165734 -0.880036 -0.328517 -0.342947 1.6119787838914282e-38
-45.528570 -18.250302 37.891373 -0.871675 -0.350099 -0.342947 1.6119787838914282e-38
-45.152473 -19.831408 38.481993 -0.862785 -0.371469 -0.342947 1.6119787838914282e-38
-45.054184 -20.701474 38.187073 -0.853371 -0.392613 -0.342947 1.6119787838914282e-38
-43.835290 -21.594283 38.728849 -0.843439 -0.413519 -0.342947 1.6119787838914282e-38
-42.873957 -22.785421 38.801113 -0.832995 -0.434173 -0.342947 1.6119787838914282e-38
-43.377359 -23.493782 38.108263 -0.822045 -0.454564 -0.342947 1.6119787838914282e-38
-42.571842 -24.765474 38.558785 -0.810596 -0.474680 -0.342947 1.6119787838914282e-38
-42.321035 -26.227803 38.533950 -0.798655 -0.494507 -0.342947 1.6119787838914282e-38
-49.089462 -5.712588 39.870978 -0.965574 -0.107504 -0.236874 1.6119787838914282e-38
-49.405538 -6.710416 39.788860 -0.962633 -0.131260 -0.236874 1.6119787838914282e-38
-48.815078 -7.831210 39.263462 -0.959106 -0.154937 -0.236874 1.6119787838914282e-38
-49.419507 -9.189610 39.879014 -0.954998 -0.178520 -0.236874 1.6119787838914282e-38
-48.483671 -10.261588 39.585521 -0.950310 -0.201995 -0.236874 1.6119787838914282e-38
-48.256483 -11.827126 39.821689 -0.945045 -0.225346 -0.236874 1.6119787838914282e-38
-47.796603 -12.823181 39.718731 -0.939206 -0.248562 -0.236874 1.6119787838914282e-38
-48.237570 -13.842568 39.547691 -0.932797 -0.271626 -0.236874 1.6119787838914282e-38
-46.987972 -15.127720 39.848228 -0.925822 -0.294525 -0.236874 1.6119787838914282e-38
-47.097476 -16.916355 39.519968 -0.918284 -0.317246 -0.236874 1.6119787838914282e-38
-46.506958 -17.337817 39.637414 -0.910189 -0.339773 -0.236874 1.6119787838914282e-38
-46.275512 -18.622177 39.249726 -0.901542 -0.362095 -0.236874 1.6119787838914282e-38
-46.252146 -19.687740 39.364068 -0.892347 -0.384197 -0.236874 1.6119787838914282e-38
-44.831087 -21.429209 39.674935 -0.882611 -0.406065 -0.236874 1.6119787838914282e-38
-43.993051 -21.935667 39.586804 -0.872338 -0.427687 -0.236874 1.6119787838914282e-38
-43.948959 -22.822372 39.465077 -0.861536 -0.449050 -0.236874 1.6119787838914282e-38
-43.799958 -23.856879 39.015210 -0.850211 -0.470139 -0.236874 1.6119787838914282e-38
-42.642000 -25.234601 39.588554 -0.838370 -0.490944 -0.236874 1.6119787838914282e-38
-42.417511 -25.736913 39.662332 -0.826020 -0.511450 -0.236874 1.6119787838914282e-38
-49.991671 -4.035381 41.015813 -0.989245 -0.085524 -0.118656 1.6119787838914282e-38
-49.251783 -5.205911 40.987539 -0.986838 -0.109871 -0.118656 1.6119787838914282e-38
-49.912524 -6.562728 40.859384 -0.983831 -0.134151 -0.118656 1.6119787838914282e-38
-49.402680 -7.553913 40.779342 -0.980228 -0.158349 -0.118656 1.6119787838914282e-38
-49.238399 -8.837344 40.703214 -0.976029 -0.182451 -0.118656 1.6119787838914282e-38
-49.012476 -10.719117 40.578689 -0.971237 -0.206443 -0.118656 1.6119787838914282e-38
-48.788359 -11.394765 40.519021 -0.965856 -0.230309 -0.118656 1.6119787838914282e-38
-48.825323 -12.683187 40.634557 -0.959889 -0.254035 -0.118656 1.6119787838914282e-38
-47.943477 -13.574754 40.846206 -0.953339 -0.277607 -0.118656 1.6119787838914282e-38
-47.127233 -15.156770 41.126829 -0.946210 -0.301011 -0.118656 1.6119787838914282e-38
-47.356985 -16.271677 40.544852 -0.938506 -0.324232 -0.118656 1.6119787838914282e-38
-47.021002 -17.529144 40.426182 -0.930233 -0.347256 -0.118656 1.6119787838914282e-38
-46.284523 -18.699731 40.895116 -0.921395 -0.370069 -0.118656 1.6119787838914282e-38
-46.253748 -19.534245 41.334026 -0.911998 -0.392658 -0.118656 1.6119787838914282e-38
-44.913450 -20.297468 40.837472 -0.902047 -0.415008 -0.118656 1.6119787838914282e-38
-44.937189 -21.833570 40.753276 -0.891549 -0.437106 -0.118656 1.6119787838914282e-38
-44.798486 -22.831917 40.754422 -0.880509 -0.458939 -0.118656 1.6119787838914282e-38
-44.134545 -24.314043 40.761244 -0.868935 -0.480493 -0.118656 1.6119787838914282e-38
-43.082247 -25.223587 41.235448 -0.856833 -0.501755 -0.118656 1.6119787838914282e-38
-42.837659 -26.330250 40.561053 -0.844211 -0.522713 -0.118656 1.6119787838914282e-38
-49.980913 -4.210925 42.358771 -0.996278 -0.086132 0.003484 1.6119787838914282e-38
-49.622470 -5.434133 41.801474 -0.993853 -0.110652 0.003484 1.6119787838914282e-38
-49.329408 -6.812153 41.462327 -0.990825 -0.135104 0.003484 1.6119787838914282e-38
-49.111812 -7.633878 42.506192 -0.987196 -0.159475 0.003484 1.6119787838914282e-38
-48.497302 -8.955396 42.216047 -0.982967 -0.183748 0.003484 1.6119787838914282e-38
-48.579810 -10.661661 41.560265 -0.978142 -0.207910 0.003484 1.6119787838914282e-38
-48.779411 -11.214184 41.863526 -0.972722 -0.231946 0.003484 1.6119787838914282e-38
-48.196133 -12.620122 42.135135 -0.966713 -0.255841 0.003484 1.6119787838914282e-38
-48.389269 -13.876288 41.935390 -0.960116 -0.279581 0.003484 1.6119787838914282e-38
-47.136139 -14.816538 41.945968 -0.952936 -0.303151 0.003484 1.6119787838914282e-38
-46.729369 -16.223787 41.560365 -0.945178 -0.326537 0.003484 1.6119787838914282e-38
-46.865983 -16.995704 41.815904 -0.936846 -0.349724 0.003484 1.6119787838914282e-38
-46.417926 -19.043013 41.701516 -0.927945 -0.372700 0.003484 1.6119787838914282e-38
-46.174522 -20.140737 41.876373 -0.918481 -0.395449 0.003484 1.6119787838914282e-38
-44.901681 -20.908794 42.297512 -0.908460 -0.417958 0.003484 1.6119787838914282e-38
-44.567034 -22.343271 41.812402 -0.897887 -0.440213 0.003484 1.6119787838914282e-38
-44.108843 -23.300429 42.271732 -0.886768 -0.462201 0.003484 1.6119787838914282e-38
-43.252558 -24.632134 41.954775 -0.875112 -0.483908 0.003484 1.6119787838914282e-38
-43.205838 -25.424115 41.879463 -0.862924 -0.505322 0.003484 1.6119787838914282e-38
-42.658401 -26.326127 42.111321 -0.850212 -0.526429 0.003484 1.6119787838914282e-38
-50.184172 -4.049816 43.220229 -0.993635 -0.085904 0.072865 1.6119787838914282e-38
-49.697298 -5.863881 43.474138 -0.991217 -0.110359 0.072865 1.6119787838914282e-38
-49.373875 -6.795496 42.882466 -0.988197 -0.134746 0.072865 1.6119787838914282e-38
-48.950471 -7.889506 43.634322 -0.984578 -0.159052 0.072865 1.6119787838914282e-38
-49.732883 -9.161704 43.083899 -0.980360 -0.183261 0.072865 1.6119787838914282e-38
-48.850089 -10.102749 43.409953 -0.975548 -0.207359 0.072865 1.6119787838914282e-38
-48.584788 -11.582534 42.831040 -0.970143 -0.231331 0.072865 1.6119787838914282e-38
-48.561987 -12.443604 43.147308 -0.964149 -0.255163 0.072865 1.6119787838914282e-38
-47.618366 -13.717943 43.562731 -0.957569 -0.278839 0.072865 1.6119787838914282e-38
-47.501976 -15.274041 43.253623 -0.950409 -0.302347 0.072865 1.6119787838914282e-38
-47.022194 -16.949114 43.672102 -0.942671 -0.325671 0.072865 1.6119787838914282e-38
-46.948142 -17.495604 43.275670 -0.934362 -0.348797 0.072865 1.6119787838914282e-38
-46.365441 -19.011495 43.344487 -0.925484 -0.371711 0.072865 1.6119787838914282e-38
-45.702426 -20.367118 42.908733 -0.916045 -0.394400 0.072865 1.6119787838914282e-38
-45.111366 -20.665232 43.388591 -0.906050 -0.416849 0.072865 1.6119787838914282e-38
-45.056610 -21.775200 42.938099 -0.895505 -0.439046 0.072865 1.6119787838914282e-38
-44.337777 -23.480195 43.250368 -0.884416 -0.460975 0.072865 1.6119787838914282e-38
-44.023412 -23.945850 43.428924 -0.872791 -0.482625 0.072865 1.6119787838914282e-38
-43.276647 -24.915175 43.012074 -0.860635 -0.503982 0.072865 1.6119787838914282e-38
-42.481070 -26.481057 43.521681 -0.847957 -0.525033 0.072865 1.6119787838914282e-38
-41.616679 -26.944406 43.323864 -0.834764 -0.545765 0.072865 1.6119787838914282e-38
-46.827479 -16.661553 44.396840 -0.935786 -0.323292 0.140662 1.6119787838914282e-38
-46.640811 -17.596299 45.295980 -0.927537 -0.346249 0.140662 1.6119787838914282e-38
-46.374611 -18.580780 44.356014 -0.918725 -0.368996 0.140662 1.6119787838914282e-38
-45.688927 -19.286420 44.570539 -0.909355 -0.391520 0.140662 1.6119787838914282e-38
-45.324861 -21.144689 44.898733 -0.899433 -0.413805 0.140662 1.6119787838914282e-38
-44.775513 -21.987275 43.834401 -0.888965 -0.435839 0.140662 1.6119787838914282e-38
-44.216661 -23.147032 43.988281 -0.877957 -0.457609 0.140662 1.6119787838914282e-38
-43.300883 -24.268729 45.104753 -0.866416 -0.479100 0.140662 1.6119787838914282e-38
-42.566237 -25.390948 44.946877 -0.854349 -0.500301 0.140662 1.6119787838914282e-38
-41.874110 -26.394223 44.226284 -0.841764 -0.521198 0.140662 1.6119787838914282e-38
-42.344867 -27.147994 44.244085 -0.828667 -0.541779 0.140662 1.6119787838914282e-38
