# .PCD v0.7 - Point Cloud Data file format
VERSION 0.7
FIELDS x y z normal_x normal_y normal_z rgb
SIZE 4 4 4 4 4 4 4
TYPE F F F F F F F
COUNT 1 1 1 1 1 1 1
WIDTH 318
HEIGHT 1
VIEWPOINT 0 0 0 1 0 0 0
POINTS 318
DATA ascii
16.091415 -0.311995 0.225135 0.999997 0.000000 -0.002570 1.5658809689597668e-38
16.277313 -0.191111 -0.390654 0.999693 0.024637 -0.002570 1.5658809689597668e-38
16.018928 0.693286 -0.005040 0.998783 0.049260 -0.002570 1.5658809689597668e-38
13.645878 -7.920795 -0.073518 0.856635 -0.515916 -0.002570 1.5658809689597668e-38
13.596179 -7.931580 0.314752 0.869086 -0.494654 -0.002570 1.5658809689597668e-38
13.803407 -7.842669 0.167565 0.881009 -0.473092 -0.002570 1.5658809689597668e-38
14.211948 -7.025660 -0.004094 0.892398 -0.451243 -0.002570 1.5658809689597668e-38
14.662454 -7.176453 -0.003625 0.903244 -0.429119 -0.002570 1.5658809689597668e-38
14.553520 -6.872554 -0.469043 0.913542 -0.406735 -0.002570 1.5658809689597668e-38
14.978350 -6.250978 -0.306684 0.923286 -0.384104 -0.002570 1.5658809689597668e-38
14.890702 -5.441461 -0.684221 0.932469 -0.361240 -0.002570 1.5658809689597668e-38
14.608436 -5.687398 0.438354 0.941086 -0.338157 -0.002570 1.5658809689597668e-38
15.270935 -4.807718 -0.342048 0.949132 -0.314869 -0.002570 1.5658809689597668e-38
14.969810 -4.527892 0.017482 0.956601 -0.291389 -0.002570 1.5658809689597668e-38
15.580512 -4.340029 0.083443 0.963490 -0.267732 -0.002570 1.5658809689597668e-38
15.564187 -3.669289 0.242102 0.969794 -0.243913 -0.002570 1.5658809689597668e-38
15.122230 -4.193322 0.300524 0.975509 -0.219946 -0.002570 1.5658809689597668e-38
16.046474 -3.439714 -0.557951 0.980632 -0.195845 -0.002570 1.5658809689597668e-38
15.792306 -2.466759 0.539278 0.985159 -0.171625 -0.002570 1.5658809689597668e-38
15.980355 -2.468342 -0.267939 0.989088 -0.147301 -0.002570 1.5658809689597668e-38
15.882164 -2.055992 -0.304520 0.992417 -0.122888 -0.002570 1.5658809689597668e-38
16.536977 -1.038854 0.340815 0.995144 -0.098400 -0.002570 1.5658809689597668e-38
15.680052 -0.925135 0.191888 0.997266 -0.073852 -0.002570 1.5658809689597668e-38
16.113340 -0.413259 0.190611 0.998783 -0.049260 -0.002570 1.5658809689597668e-38
16.217148 -0.203127 0.102237 0.999693 -0.024637 -0.002570 1.5658809689597668e-38
16.104748 0.025086 1.070256 0.703879 0.000000 -0.710320 1.5658809689597668e-38
16.250828 0.914508 1.755812 0.703666 0.017342 -0.710320 1.5658809689597668e-38
17.027396 0.896241 1.642301 0.703025 0.034673 -0.710320 1.5658809689597668e-38
14.053416 -8.659131 0.706827 0.611734 -0.348178 -0.710320 1.5658809689597668e-38
14.692740 -7.534684 1.233089 0.620126 -0.333001 -0.710320 1.5658809689597668e-38
14.171271 -7.565853 1.188274 0.628142 -0.317621 -0.710320 1.5658809689597668e-38
15.658680 -7.577636 1.119910 0.635777 -0.302049 -0.710320 1.5658809689597668e-38
15.712998 -6.633036 1.406107 0.643026 -0.286294 -0.710320 1.5658809689597668e-38
15.397750 -6.292472 1.470396 0.649884 -0.270364 -0.710320 1.5658809689597668e-38
15.273334 -5.747583 0.825212 0.656348 -0.254271 -0.710320 1.5658809689597668e-38
15.758077 -5.573274 1.052225 0.662413 -0.238023 -0.710320 1.5658809689597668e-38
15.786640 -5.426139 0.915603 0.668076 -0.221630 -0.710320 1.5658809689597668e-38
15.811652 -5.179873 1.333953 0.673334 -0.205103 -0.710320 1.5658809689597668e-38
15.687338 -4.241439 0.882670 0.678183 -0.188452 -0.710320 1.5658809689597668e-38
15.967369 -4.246064 1.634657 0.682620 -0.171686 -0.710320 1.5658809689597668e-38
16.331441 -3.723390 1.386729 0.686643 -0.154816 -0.710320 1.5658809689597668e-38
15.685439 -3.271776 1.836368 0.690249 -0.137852 -0.710320 1.5658809689597668e-38
16.432637 -2.835448 1.401552 0.693435 -0.120804 -0.710320 1.5658809689597668e-38
16.726999 -3.050315 0.732415 0.696201 -0.103683 -0.710320 1.5658809689597668e-38
16.576797 -2.259303 1.630721 0.698544 -0.086499 -0.710320 1.5658809689597668e-38
16.464524 -2.217723 0.856709 0.700463 -0.069262 -0.710320 1.5658809689597668e-38
15.769488 -1.299131 1.180598 0.701957 -0.051983 -0.710320 1.5658809689597668e-38
16.492291 -0.496013 1.596669 0.703025 -0.034673 -0.710320 1.5658809689597668e-38
16.583664 -1.050371 1.422298 0.703666 -0.017342 -0.710320 1.5658809689597668e-38
18.543984 0.092817 2.768671 0.500157 0.000000 -0.865935 1.5658809689597668e-38
18.022349 1.055398 2.186398 0.500005 0.012323 -0.865935 1.5658809689597668e-38
18.579833 0.399064 2.195147 0.499549 0.024638 -0.865935 1.5658809689597668e-38
15.585502 -8.615628 2.197183 0.434680 -0.247405 -0.865935 1.5658809689597668e-38
15.877509 -8.705948 2.447169 0.440644 -0.236621 -0.865935 1.5658809689597668e-38
16.129229 -8.384174 2.843040 0.446340 -0.225693 -0.865935 1.5658809689597668e-38
16.357515 -8.304212 2.757005 0.451765 -0.214627 -0.865935 1.5658809689597668e-38
16.936257 -7.660908 1.999577 0.456916 -0.203432 -0.865935 1.5658809689597668e-38
16.744244 -7.075267 2.823928 0.461789 -0.192113 -0.865935 1.5658809689597668e-38
16.825418 -6.664030 2.676770 0.466382 -0.180677 -0.865935 1.5658809689597668e-38
16.580371 -5.904326 2.119492 0.470692 -0.169132 -0.865935 1.5658809689597668e-38
17.542208 -5.712472 2.799603 0.474716 -0.157484 -0.865935 1.5658809689597668e-38
17.745156 -6.068166 2.238793 0.478452 -0.145740 -0.865935 1.5658809689597668e-38
17.747937 -4.978724 2.617510 0.481897 -0.133908 -0.865935 1.5658809689597668e-38
18.059133 -4.299959 2.409944 0.485050 -0.121995 -0.865935 1.5658809689597668e-38
17.373449 -4.178681 2.599137 0.487909 -0.110008 -0.865935 1.5658809689597668e-38
17.694360 -3.409743 2.746745 0.490471 -0.097953 -0.865935 1.5658809689597668e-38
18.142757 -4.073164 2.090800 0.492735 -0.085840 -0.865935 1.5658809689597668e-38
18.742765 -2.870980 1.878984 0.494701 -0.073674 -0.865935 1.5658809689597668e-38
18.608659 -2.254358 2.805709 0.496366 -0.061463 -0.865935 1.5658809689597668e-38
18.371277 -1.670771 2.583130 0.497729 -0.049216 -0.865935 1.5658809689597668e-38
18.536437 -0.673987 2.765529 0.498791 -0.036938 -0.865935 1.5658809689597668e-38
17.880964 -0.771270 2.816671 0.499549 -0.024638 -0.865935 1.5658809689597668e-38
18.732608 -0.580753 2.823710 0.500005 -0.012323 -0.865935 1.5658809689597668e-38
20.996853 0.771755 3.486340 0.454255 0.000000 -0.890872 1.5658809689597668e-38
20.560021 0.418616 3.564274 0.454117 0.011192 -0.890872 1.5658809689597668e-38
20.426371 0.191791 3.580930 0.453704 0.022377 -0.890872 1.5658809689597668e-38
18.627984 -9.595495 4.301178 0.400204 -0.214905 -0.890872 1.5658809689597668e-38
18.024878 -9.428722 3.572584 0.405378 -0.204980 -0.890872 1.5658809689597668e-38
18.121849 -8.572650 3.630221 0.410305 -0.194930 -0.890872 1.5658809689597668e-38
19.149208 -7.719054 3.605367 0.414983 -0.184762 -0.890872 1.5658809689597668e-38
19.002847 -7.922507 4.007514 0.419409 -0.174482 -0.890872 1.5658809689597668e-38
19.149440 -7.673685 4.028497 0.423580 -0.164096 -0.890872 1.5658809689597668e-38
19.611578 -7.619561 3.343723 0.427495 -0.153610 -0.890872 1.5658809689597668e-38
20.115052 -6.403057 3.482681 0.431149 -0.143031 -0.890872 1.5658809689597668e-38
19.768314 -6.033196 3.932060 0.434543 -0.132365 -0.890872 1.5658809689597668e-38
19.554683 -5.799319 3.793227 0.437672 -0.121619 -0.890872 1.5658809689597668e-38
20.062817 -4.881976 3.342488 0.440535 -0.110799 -0.890872 1.5658809689597668e-38
20.318313 -4.229490 3.857386 0.443131 -0.099912 -0.890872 1.5658809689597668e-38
20.359044 -4.086395 3.460885 0.445458 -0.088964 -0.890872 1.5658809689597668e-38
20.389514 -3.177920 3.675632 0.447515 -0.077962 -0.890872 1.5658809689597668e-38
20.225583 -3.199549 3.771595 0.449300 -0.066913 -0.890872 1.5658809689597668e-38
20.449440 -2.400474 3.868193 0.450812 -0.055823 -0.890872 1.5658809689597668e-38
20.884676 -1.611641 4.010098 0.452051 -0.044699 -0.890872 1.5658809689597668e-38
20.381680 -1.801176 3.688609 0.453015 -0.033548 -0.890872 1.5658809689597668e-38
20.558025 -1.362092 3.578833 0.453704 -0.022377 -0.890872 1.5658809689597668e-38
20.569887 -0.712006 3.616603 0.454117 -0.011192 -0.890872 1.5658809689597668e-38
23.351076 0.059771 5.689996 0.522158 0.000000 -0.852849 1.5658809689597668e-38
23.041712 0.479581 4.949693 0.522000 0.012865 -0.852849 1.5658809689597668e-38
23.046569 1.263434 5.571467 0.521524 0.025721 -0.852849 1.5658809689597668e-38
20.612038 -10.602579 5.082296 0.460028 -0.247030 -0.852849 1.5658809689597668e-38
20.801283 -10.152377 4.816615 0.465974 -0.235621 -0.852849 1.5658809689597668e-38
20.369295 -9.742610 5.112280 0.471638 -0.224069 -0.852849 1.5658809689597668e-38
21.336441 -9.634839 4.676524 0.477015 -0.212381 -0.852849 1.5658809689597668e-38
21.371349 -8.854838 4.382725 0.482103 -0.200564 -0.852849 1.5658809689597668e-38
21.557101 -8.863397 4.664877 0.486898 -0.188625 -0.852849 1.5658809689597668e-38
22.048243 -7.229345 4.583757 0.491397 -0.176572 -0.852849 1.5658809689597668e-38
21.728952 -7.228439 5.482822 0.495599 -0.164412 -0.852849 1.5658809689597668e-38
21.851689 -6.844313 5.413071 0.499499 -0.152152 -0.852849 1.5658809689597668e-38
22.045536 -5.940540 4.505311 0.503096 -0.139799 -0.852849 1.5658809689597668e-38
22.251575 -6.107295 4.631823 0.506387 -0.127362 -0.852849 1.5658809689597668e-38
22.686137 -5.073197 4.852722 0.509372 -0.114847 -0.852849 1.5658809689597668e-38
22.327563 -4.570161 5.038788 0.512046 -0.102262 -0.852849 1.5658809689597668e-38
22.951184 -4.734513 4.698925 0.514410 -0.089616 -0.852849 1.5658809689597668e-38
22.794404 -3.417236 5.069466 0.516462 -0.076915 -0.852849 1.5658809689597668e-38
22.903493 -2.917589 4.790398 0.518200 -0.064167 -0.852849 1.5658809689597668e-38
22.812281 -1.918342 4.728851 0.519624 -0.051381 -0.852849 1.5658809689597668e-38
22.915897 -1.643424 5.416559 0.520732 -0.038563 -0.852849 1.5658809689597668e-38
22.879529 -0.845216 5.318047 0.521524 -0.025721 -0.852849 1.5658809689597668e-38
22.971434 -0.629816 4.849738 0.522000 -0.012865 -0.852849 1.5658809689597668e-38
24.489581 0.256272 6.254870 0.765330 0.000000 -0.643639 1.5658809689597668e-38
24.629457 0.267685 5.895320 0.765097 0.018856 -0.643639 1.5658809689597668e-38
21.473337 -11.087727 6.295468 0.682981 -0.345350 -0.643639 1.5658809689597668e-38
21.915100 -10.451703 5.853592 0.691282 -0.328419 -0.643639 1.5658809689597668e-38
22.649624 -9.674675 6.267267 0.699163 -0.311288 -0.643639 1.5658809689597668e-38
22.125983 -9.726106 6.354980 0.706620 -0.293967 -0.643639 1.5658809689597668e-38
22.913778 -9.682582 6.558416 0.713649 -0.276469 -0.643639 1.5658809689597668e-38
23.160104 -8.553029 6.484054 0.720243 -0.258803 -0.643639 1.5658809689597668e-38
23.113498 -7.941725 6.293073 0.726401 -0.240979 -0.643639 1.5658809689597668e-38
24.034569 -6.671300 6.293480 0.732118 -0.223009 -0.643639 1.5658809689597668e-38
23.808204 -6.339767 5.808472 0.737390 -0.204904 -0.643639 1.5658809689597668e-38
24.017594 -6.212286 6.281110 0.742214 -0.186674 -0.643639 1.5658809689597668e-38
23.896506 -5.252912 6.220998 0.746588 -0.168331 -0.643639 1.5658809689597668e-38
23.168686 -4.757536 6.378213 0.750509 -0.149886 -0.643639 1.5658809689597668e-38
24.335597 -4.246988 6.678216 0.753974 -0.131350 -0.643639 1.5658809689597668e-38
24.391760 -3.487360 6.498915 0.756981 -0.112734 -0.643639 1.5658809689597668e-38
24.488905 -3.288319 5.454066 0.759529 -0.094050 -0.643639 1.5658809689597668e-38
24.303969 -2.189050 6.079638 0.761615 -0.075309 -0.643639 1.5658809689597668e-38
24.739595 -1.769667 6.571987 0.763240 -0.056522 -0.643639 1.5658809689597668e-38
24.447939 -1.069851 6.337333 0.764400 -0.037700 -0.643639 1.5658809689597668e-38
25.009351 -1.117243 6.048045 0.765097 -0.018856 -0.643639 1.5658809689597668e-38
25.257080 0.463769 7.494702 0.999743 0.000000 -0.022677 1.5658809689597668e-38
24.907125 0.843134 7.683291 0.999439 0.024631 -0.022677 1.5658809689597668e-38
22.340606 -10.432614 7.780146 0.903015 -0.429010 -0.022677 1.5658809689597668e-38
23.294587 -9.628264 7.463066 0.913311 -0.406632 -0.022677 1.5658809689597668e-38
22.991200 -9.198317 7.636601 0.923052 -0.384007 -0.022677 1.5658809689597668e-38
23.019424 -9.342045 7.570259 0.932232 -0.361149 -0.022677 1.5658809689597668e-38
23.476426 -8.462740 7.744440 0.940847 -0.338071 -0.022677 1.5658809689597668e-38
23.958482 -7.473573 6.843220 0.948891 -0.314789 -0.022677 1.5658809689597668e-38
23.993546 -7.077073 6.964705 0.956358 -0.291315 -0.022677 1.5658809689597668e-38
23.893293 -6.946147 7.429190 0.963245 -0.267664 -0.022677 1.5658809689597668e-38
24.735729 -5.491682 7.178394 0.969548 -0.243851 -0.022677 1.5658809689597668e-38
24.548230 -5.331575 7.538968 0.975261 -0.219890 -0.022677 1.5658809689597668e-38
24.638040 -4.805509 7.928951 0.980383 -0.195795 -0.022677 1.5658809689597668e-38
24.962284 -4.609122 7.661397 0.984909 -0.171582 -0.022677 1.5658809689597668e-38
24.997500 -3.588424 7.762108 0.988837 -0.147264 -0.022677 1.5658809689597668e-38
24.869441 -3.012377 7.459053 0.992165 -0.122857 -0.022677 1.5658809689597668e-38
24.275713 -2.484375 7.222205 0.994891 -0.098375 -0.022677 1.5658809689597668e-38
24.578314 -1.416294 7.573943 0.997013 -0.073834 -0.022677 1.5658809689597668e-38
24.963223 -1.401064 7.511531 0.998529 -0.049247 -0.022677 1.5658809689597668e-38
25.292367 -0.864088 7.421232 0.999439 -0.024631 -0.022677 1.5658809689597668e-38
25.368807 -0.580800 8.642523 0.989184 0.000000 -0.146677 1.5658809689597668e-38
24.971978 0.578458 8.509305 0.988884 0.024371 -0.146677 1.5658809689597668e-38
22.872278 -10.558744 8.313889 0.893478 -0.424479 -0.146677 1.5658809689597668e-38
22.648653 -10.537670 8.260150 0.903665 -0.402338 -0.146677 1.5658809689597668e-38
23.420938 -9.557261 8.683643 0.913303 -0.379951 -0.146677 1.5658809689597668e-38
22.635058 -8.453552 8.391512 0.922387 -0.357335 -0.146677 1.5658809689597668e-38
24.244777 -8.925381 8.416073 0.930911 -0.334501 -0.146677 1.5658809689597668e-38
23.170392 -7.797230 8.329417 0.938870 -0.311464 -0.146677 1.5658809689597668e-38
23.696894 -7.728081 8.893000 0.946258 -0.288238 -0.146677 1.5658809689597668e-38
24.405197 -6.178734 8.454082 0.953072 -0.264837 -0.146677 1.5658809689597668e-38
24.415682 -6.511081 8.559282 0.959308 -0.241276 -0.146677 1.5658809689597668e-38
24.337878 -5.383163 8.964900 0.964961 -0.217568 -0.146677 1.5658809689597668e-38
24.919477 -5.170207 8.959334 0.970029 -0.193727 -0.146677 1.5658809689597668e-38
24.722609 -4.406623 8.447240 0.974507 -0.169769 -0.146677 1.5658809689597668e-38
24.666514 -3.175814 8.752017 0.978394 -0.145709 -0.146677 1.5658809689597668e-38
24.970461 -3.164201 9.393587 0.981687 -0.121559 -0.146677 1.5658809689597668e-38
25.378037 -2.686991 8.577709 0.984384 -0.097336 -0.146677 1.5658809689597668e-38
24.975547 -1.810556 8.449426 0.986483 -0.073054 -0.146677 1.5658809689597668e-38
25.209550 -0.801211 8.265705 0.987984 -0.048727 -0.146677 1.5658809689597668e-38
24.762321 -0.763554 8.528755 0.988884 -0.024371 -0.146677 1.5658809689597668e-38
25.968184 0.300513 10.180204 0.964934 0.000000 -0.262492 1.5658809689597668e-38
25.281634 0.539125 9.461396 0.964641 0.023774 -0.262492 1.5658809689597668e-38
23.295299 -10.314040 10.001160 0.881511 -0.392474 -0.262492 1.5658809689597668e-38
23.266661 -9.329301 9.865855 0.890913 -0.370637 -0.262492 1.5658809689597668e-38
24.187811 -9.401328 10.119755 0.899774 -0.348574 -0.262492 1.5658809689597668e-38
23.856258 -8.676940 10.086602 0.908089 -0.326300 -0.262492 1.5658809689597668e-38
23.988514 -8.786404 8.978047 0.915853 -0.303828 -0.262492 1.5658809689597668e-38
24.649483 -7.023085 10.463110 0.923060 -0.281172 -0.262492 1.5658809689597668e-38
24.437256 -7.179814 9.771032 0.929707 -0.258345 -0.262492 1.5658809689597668e-38
24.605860 -6.489872 10.391480 0.935790 -0.235361 -0.262492 1.5658809689597668e-38
25.419267 -5.436257 9.893648 0.941305 -0.212234 -0.262492 1.5658809689597668e-38
24.488884 -4.504404 9.919799 0.946248 -0.188978 -0.262492 1.5658809689597668e-38
24.905481 -4.209559 9.721194 0.950617 -0.165607 -0.262492 1.5658809689597668e-38
25.135975 -4.169584 10.223033 0.954408 -0.142136 -0.262492 1.5658809689597668e-38
25.145039 -2.769869 9.836566 0.957620 -0.118579 -0.262492 1.5658809689597668e-38
25.204668 -2.859977 10.124834 0.960251 -0.094950 -0.262492 1.5658809689597668e-38
25.036614 -2.019465 9.897221 0.962299 -0.071263 -0.262492 1.5658809689597668e-38
25.374213 -1.761487 9.827665 0.963763 -0.047533 -0.262492 1.5658809689597668e-38
25.599512 -0.738520 9.829488 0.964641 -0.023774 -0.262492 1.5658809689597668e-38
25.828776 -0.037788 10.824866 0.930899 0.000000 -0.365277 1.5658809689597668e-38
23.828842 -10.409436 10.689369 0.850418 -0.378631 -0.365277 1.5658809689597668e-38
24.057890 -9.904397 10.971365 0.859489 -0.357564 -0.365277 1.5658809689597668e-38
24.263188 -9.362992 10.784322 0.868037 -0.336279 -0.365277 1.5658809689597668e-38
24.815675 -8.722925 11.109605 0.876059 -0.314791 -0.365277 1.5658809689597668e-38
24.347219 -7.763365 10.976557 0.883549 -0.293112 -0.365277 1.5658809689597668e-38
24.197820 -7.715647 11.532053 0.890502 -0.271254 -0.365277 1.5658809689597668e-38
25.088545 -6.978676 11.545997 0.896915 -0.249232 -0.365277 1.5658809689597668e-38
25.225801 -6.368086 11.084248 0.902783 -0.227059 -0.365277 1.5658809689597668e-38
25.247547 -5.919795 11.135372 0.908103 -0.204748 -0.365277 1.5658809689597668e-38
25.373372 -5.554997 11.077225 0.912872 -0.182312 -0.365277 1.5658809689597668e-38
25.306619 -4.116099 10.580672 0.917086 -0.159766 -0.365277 1.5658809689597668e-38
25.384384 -3.941972 11.422042 0.920744 -0.137123 -0.365277 1.5658809689597668e-38
25.571591 -2.629238 11.332685 0.923843 -0.114397 -0.365277 1.5658809689597668e-38
25.531875 -2.464867 11.027800 0.926381 -0.091601 -0.365277 1.5658809689597668e-38
25.967473 -2.303582 10.886912 0.928357 -0.068749 -0.365277 1.5658809689597668e-38
25.885464 -0.902197 10.473430 0.929769 -0.045856 -0.365277 1.5658809689597668e-38
26.184570 -0.677195 10.568858 0.930616 -0.022935 -0.365277 1.5658809689597668e-38
25.436974 -0.458816 12.365223 0.891605 0.000000 -0.452813 1.5658809689597668e-38
24.159262 -10.028386 12.078068 0.823209 -0.342471 -0.452813 1.5658809689597668e-38
24.694499 -9.655673 12.409344 0.831397 -0.322085 -0.452813 1.5658809689597668e-38
25.201120 -8.956699 12.647075 0.839080 -0.301504 -0.452813 1.5658809689597668e-38
24.460225 -8.433984 12.379441 0.846254 -0.280739 -0.452813 1.5658809689597668e-38
25.771561 -8.262461 12.342271 0.852914 -0.259805 -0.452813 1.5658809689597668e-38
25.813000 -7.286922 12.307282 0.859056 -0.238712 -0.452813 1.5658809689597668e-38
25.641541 -6.368723 12.840865 0.864676 -0.217475 -0.452813 1.5658809689597668e-38
25.827081 -5.394504 12.263132 0.869772 -0.196105 -0.452813 1.5658809689597668e-38
25.605303 -5.225796 12.023403 0.874339 -0.174617 -0.452813 1.5658809689597668e-38
26.091757 -4.635954 12.169597 0.878376 -0.153022 -0.452813 1.5658809689597668e-38
26.199791 -4.222672 12.602285 0.881879 -0.131335 -0.452813 1.5658809689597668e-38
25.994367 -2.888841 12.253313 0.884847 -0.109568 -0.452813 1.5658809689597668e-38
26.399248 -2.537748 12.594305 0.887278 -0.087734 -0.452813 1.5658809689597668e-38
26.298554 -2.444110 12.673772 0.889170 -0.065847 -0.452813 1.5658809689597668e-38
26.279214 -1.060529 12.578208 0.890523 -0.043920 -0.452813 1.5658809689597668e-38
26.097509 -0.923327 12.567741 0.891335 -0.021967 -0.452813 1.5658809689597668e-38
26.943038 0.280929 13.554787 0.851042 0.000000 -0.525098 1.5658809689597668e-38
24.822798 -10.192833 13.301871 0.785757 -0.326890 -0.525098 1.5658809689597668e-38
25.155046 -9.881577 13.577239 0.793573 -0.307432 -0.525098 1.5658809689597668e-38
25.138634 -9.697358 13.764470 0.800906 -0.287787 -0.525098 1.5658809689597668e-38
25.948166 -9.049841 13.718925 0.807753 -0.267967 -0.525098 1.5658809689597668e-38
26.185811 -7.698661 13.483246 0.814110 -0.247985 -0.525098 1.5658809689597668e-38
25.764037 -7.213604 13.682583 0.819973 -0.227852 -0.525098 1.5658809689597668e-38
26.246245 -6.648007 13.283452 0.825337 -0.207581 -0.525098 1.5658809689597668e-38
26.498809 -5.804776 13.668494 0.830201 -0.187183 -0.525098 1.5658809689597668e-38
26.543791 -4.790714 13.420934 0.834561 -0.166673 -0.525098 1.5658809689597668e-38
27.017319 -4.859938 13.940933 0.838414 -0.146061 -0.525098 1.5658809689597668e-38
27.109125 -4.070071 14.106536 0.841758 -0.125360 -0.525098 1.5658809689597668e-38
26.969819 -3.585345 13.496000 0.844591 -0.104583 -0.525098 1.5658809689597668e-38
27.242643 -2.383235 13.290835 0.846911 -0.083743 -0.525098 1.5658809689597668e-38
26.918410 -1.935473 13.455966 0.848717 -0.062852 -0.525098 1.5658809689597668e-38
27.708533 -1.261595 13.589704 0.850008 -0.041922 -0.525098 1.5658809689597668e-38
27.383062 -0.775613 13.910476 0.850783 -0.020967 -0.525098 1.5658809689597668e-38
27.360616 -0.136096 15.160082 0.812126 0.000000 -0.583482 1.5658809689597668e-38
25.582243 -9.989456 15.168213 0.757285 -0.293374 -0.583482 1.5658809689597668e-38
26.327942 -9.450511 14.410843 0.764283 -0.274627 -0.583482 1.5658809689597668e-38
26.426277 -8.402615 14.475126 0.770817 -0.255714 -0.583482 1.5658809689597668e-38
26.578471 -8.234637 14.636049 0.776883 -0.236645 -0.583482 1.5658809689597668e-38
26.918198 -7.326301 14.975209 0.782478 -0.217433 -0.583482 1.5658809689597668e-38
26.726408 -7.289460 14.924077 0.787597 -0.198089 -0.583482 1.5658809689597668e-38
27.026901 -5.576418 15.410714 0.792239 -0.178624 -0.583482 1.5658809689597668e-38
27.918610 -5.738471 15.016172 0.796399 -0.159051 -0.583482 1.5658809689597668e-38
27.708828 -4.554146 14.739041 0.800076 -0.139382 -0.583482 1.5658809689597668e-38
27.940768 -4.103821 14.883793 0.803267 -0.119628 -0.583482 1.5658809689597668e-38
27.188414 -3.230353 14.767237 0.805970 -0.099801 -0.583482 1.5658809689597668e-38
27.865158 -2.670990 14.899642 0.808185 -0.079913 -0.583482 1.5658809689597668e-38
27.771139 -1.821621 14.785693 0.809908 -0.059978 -0.583482 1.5658809689597668e-38
27.390554 -1.201741 14.602659 0.811140 -0.040005 -0.583482 1.5658809689597668e-38
27.455200 -0.993095 14.930361 0.811879 -0.020009 -0.583482 1.5658809689597668e-38
26.869502 -10.643564 15.946947 0.724248 -0.280575 -0.629875 1.5658809689597668e-38
27.662674 -9.410443 15.876726 0.730941 -0.262646 -0.629875 1.5658809689597668e-38
27.201771 -9.453852 16.293972 0.737190 -0.244558 -0.629875 1.5658809689597668e-38
27.482899 -8.984284 16.112709 0.742991 -0.226321 -0.629875 1.5658809689597668e-38
27.887965 -7.423899 16.060468 0.748342 -0.207947 -0.629875 1.5658809689597668e-38
27.826070 -6.430777 16.084450 0.753238 -0.189447 -0.629875 1.5658809689597668e-38
28.318378 -6.498068 16.289447 0.757677 -0.170832 -0.629875 1.5658809689597668e-38
27.813398 -5.780529 15.719992 0.761656 -0.152112 -0.629875 1.5658809689597668e-38
28.199022 -4.569045 15.898776 0.765172 -0.133301 -0.629875 1.5658809689597668e-38
28.709188 -3.788282 16.074201 0.768224 -0.114409 -0.629875 1.5658809689597668e-38
28.887740 -3.380835 16.117405 0.770809 -0.095447 -0.629875 1.5658809689597668e-38
28.893247 -2.282730 15.891294 0.772927 -0.076427 -0.629875 1.5658809689597668e-38
28.441530 -2.432915 16.380803 0.774575 -0.057361 -0.629875 1.5658809689597668e-38
29.111797 -1.580189 15.441670 0.775754 -0.038260 -0.629875 1.5658809689597668e-38
28.596788 -0.545398 16.062457 0.776461 -0.019136 -0.629875 1.5658809689597668e-38
28.448927 -10.111711 17.694356 0.701816 -0.252181 -0.666227 1.5658809689597668e-38
28.496570 -9.441292 17.555888 0.707816 -0.234814 -0.666227 1.5658809689597668e-38
28.805567 -8.560282 16.631897 0.713387 -0.217304 -0.666227 1.5658809689597668e-38
28.478301 -7.580155 16.942804 0.718524 -0.199662 -0.666227 1.5658809689597668e-38
29.226060 -7.072129 17.101862 0.723225 -0.181898 -0.666227 1.5658809689597668e-38
28.533421 -6.738994 17.942992 0.727487 -0.164025 -0.666227 1.5658809689597668e-38
29.025991 -6.086866 17.020313 0.731307 -0.146052 -0.666227 1.5658809689597668e-38
29.784615 -5.198181 17.131816 0.734684 -0.127990 -0.666227 1.5658809689597668e-38
29.961566 -4.225064 17.043801 0.737614 -0.109850 -0.666227 1.5658809689597668e-38
29.269860 -3.322397 17.324624 0.740097 -0.091644 -0.666227 1.5658809689597668e-38
29.253636 -3.473490 16.984776 0.742130 -0.073382 -0.666227 1.5658809689597668e-38
29.409887 -2.819302 16.989736 0.743712 -0.055075 -0.666227 1.5658809689597668e-38
29.551306 -1.609868 17.827461 0.744844 -0.036736 -0.666227 1.5658809689597668e-38
29.774166 -0.786028 17.472364 0.745523 -0.018373 -0.666227 1.5658809689597668e-38
29.212322 -10.939730 18.556542 0.677319 -0.243379 -0.694266 1.5658809689597668e-38
29.449316 -9.225590 18.018200 0.683110 -0.226618 -0.694266 1.5658809689597668e-38
29.583634 -8.650656 18.484170 0.688486 -0.209719 -0.694266 1.5658809689597668e-38
29.830142 -8.553385 18.276919 0.693444 -0.192692 -0.694266 1.5658809689597668e-38
29.529293 -7.753446 18.259895 0.697981 -0.175549 -0.694266 1.5658809689597668e-38
30.289705 -7.057664 18.412824 0.702094 -0.158299 -0.694266 1.5658809689597668e-38
30.277509 -6.088354 18.398144 0.705781 -0.140954 -0.694266 1.5658809689597668e-38
30.235049 -5.297028 18.876946 0.709040 -0.123522 -0.694266 1.5658809689597668e-38
30.713989 -4.751326 18.519757 0.711868 -0.106016 -0.694266 1.5658809689597668e-38
30.163501 -3.853049 18.436595 0.714264 -0.088445 -0.694266 1.5658809689597668e-38
30.583209 -3.277392 18.433631 0.716226 -0.070821 -0.694266 1.5658809689597668e-38
31.226804 -1.962826 18.278263 0.717753 -0.053153 -0.694266 1.5658809689597668e-38
30.820685 -1.675513 18.799565 0.718845 -0.035453 -0.694266 1.5658809689597668e-38
31.627863 -7.754295 19.687670 0.677610 -0.170426 -0.715402 1.5658809689597668e-38
31.182811 -7.417458 19.853861 0.681603 -0.153679 -0.715402 1.5658809689597668e-38
31.517530 -5.851053 19.738385 0.685183 -0.136840 -0.715402 1.5658809689597668e-38
31.784224 -5.950630 19.685605 0.688346 -0.119917 -0.715402 1.5658809689597668e-38
31.946408 -4.861587 19.648126 0.691091 -0.102922 -0.715402 1.5658809689597668e-38
32.098724 -3.508092 19.837305 0.693417 -0.085864 -0.715402 1.5658809689597668e-38
32.431820 -2.986441 20.119120 0.695322 -0.068754 -0.715402 1.5658809689597668e-38
31.974080 -2.443457 19.732982 0.696805 -0.051602 -0.715402 1.5658809689597668e-38
33.368580 -3.117591 21.109095 0.679363 -0.067176 -0.730721 1.5658809689597668e-38
