# .PCD v0.7 - Point Cloud Data file format
VERSION 0.7
FIELDS x y z normal_x normal_y normal_z rgb
SIZE 4 4 4 4 4 4 4
TYPE F F F F F F F
COUNT 1 1 1 1 1 1 1
WIDTH 399
HEIGHT 1
VIEWPOINT 0 0 0 1 0 0 0
POINTS 399
DATA ascii
10.464961 -36.307315 65.553510 0.205195 -0.756472 0.621004 1.7041734328458258e-38
10.621916 -36.576610 65.237327 0.223770 -0.751187 0.621004 1.7041734328458258e-38
11.371127 -36.313445 65.103966 0.242210 -0.745445 0.621004 1.7041734328458258e-38
11.783203 -35.757288 65.769585 0.260502 -0.739252 0.621004 1.7041734328458258e-38
8.017154 -35.610880 67.100376 0.168479 -0.769300 0.616273 1.7041734328458258e-38
9.031394 -35.344145 66.427257 0.187382 -0.764915 0.616273 1.7041734328458258e-38
9.347142 -35.820984 66.372178 0.206170 -0.760067 0.616273 1.7041734328458258e-38
10.931936 -35.457633 66.466165 0.224834 -0.754756 0.616273 1.7041734328458258e-38
11.320701 -35.116912 67.482695 0.243361 -0.748988 0.616273 1.7041734328458258e-38
12.111670 -34.469650 66.569982 0.261740 -0.742765 0.616273 1.7041734328458258e-38
12.543921 -34.510890 66.588731 0.279961 -0.736091 0.616273 1.7041734328458258e-38
13.665951 -34.440549 66.844946 0.298011 -0.728970 0.616273 1.7041734328458258e-38
5.226821 -34.972574 67.966361 0.112055 -0.785607 0.608494 1.7041734328458258e-38
6.034914 -34.965189 67.719410 0.131377 -0.782608 0.608494 1.7041734328458258e-38
6.579788 -34.788609 67.975822 0.150618 -0.779134 0.608494 1.7041734328458258e-38
7.419496 -35.091923 67.674495 0.169768 -0.775187 0.608494 1.7041734328458258e-38
7.913582 -35.212553 68.054948 0.188816 -0.770769 0.608494 1.7041734328458258e-38
9.555301 -33.728046 68.028822 0.207748 -0.765883 0.608494 1.7041734328458258e-38
9.816580 -34.251344 68.252116 0.226554 -0.760532 0.608494 1.7041734328458258e-38
11.350181 -33.701159 68.213070 0.245223 -0.754719 0.608494 1.7041734328458258e-38
11.903571 -33.477711 67.685791 0.263743 -0.748448 0.608494 1.7041734328458258e-38
12.099179 -32.767980 68.027131 0.282103 -0.741723 0.608494 1.7041734328458258e-38
13.680735 -33.913407 68.504707 0.300291 -0.734548 0.608494 1.7041734328458258e-38
14.678052 -33.199413 67.946045 0.318298 -0.726926 0.608494 1.7041734328458258e-38
4.188669 -34.503943 69.426019 0.093635 -0.796368 0.597520 1.7041734328458258e-38
4.328531 -34.542733 69.188960 0.113227 -0.793820 0.597520 1.7041734328458258e-38
6.054698 -34.754600 69.594445 0.132750 -0.790789 0.597520 1.7041734328458258e-38
7.142267 -34.677266 69.283347 0.152193 -0.787278 0.597520 1.7041734328458258e-38
7.593391 -33.726547 68.628991 0.171543 -0.783290 0.597520 1.7041734328458258e-38
8.380003 -33.860379 69.193368 0.190789 -0.778825 0.597520 1.7041734328458258e-38
9.729538 -33.645199 69.413307 0.209920 -0.773889 0.597520 1.7041734328458258e-38
9.897296 -33.273552 69.444142 0.228923 -0.768482 0.597520 1.7041734328458258e-38
11.019940 -33.324156 69.324138 0.247786 -0.762608 0.597520 1.7041734328458258e-38
11.620343 -33.310531 68.992252 0.266500 -0.756272 0.597520 1.7041734328458258e-38
12.636227 -32.659741 70.061951 0.285052 -0.749477 0.597520 1.7041734328458258e-38
13.455357 -32.071086 69.731470 0.303430 -0.742226 0.597520 1.7041734328458258e-38
14.187745 -31.817208 68.854101 0.321625 -0.734525 0.597520 1.7041734328458258e-38
14.936550 -31.099949 69.100489 0.339624 -0.726378 0.597520 1.7041734328458258e-38
14.961215 -31.467101 69.806060 0.357417 -0.717790 0.597520 1.7041734328458258e-38
3.474855 -33.896840 71.055512 0.094862 -0.806804 0.583154 1.7041734328458258e-38
4.537021 -34.104105 70.786653 0.114710 -0.804222 0.583154 1.7041734328458258e-38
5.684951 -33.329366 70.468207 0.134490 -0.801152 0.583154 1.7041734328458258e-38
6.705296 -32.813555 70.359029 0.154187 -0.797595 0.583154 1.7041734328458258e-38
7.439728 -32.768339 70.342135 0.173791 -0.793554 0.583154 1.7041734328458258e-38
8.516131 -32.580671 70.142860 0.193289 -0.789032 0.583154 1.7041734328458258e-38
9.350251 -33.063446 70.309231 0.212671 -0.784030 0.583154 1.7041734328458258e-38
9.879970 -32.165628 70.545067 0.231922 -0.778552 0.583154 1.7041734328458258e-38
10.283151 -32.307877 70.401919 0.251034 -0.772602 0.583154 1.7041734328458258e-38
11.515360 -32.083817 70.319910 0.269992 -0.766183 0.583154 1.7041734328458258e-38
11.603864 -31.853130 70.479953 0.288787 -0.759298 0.583154 1.7041734328458258e-38
12.484649 -31.891855 70.809451 0.307407 -0.751953 0.583154 1.7041734328458258e-38
13.292589 -31.435770 70.986321 0.325840 -0.744151 0.583154 1.7041734328458258e-38
14.608040 -30.391012 70.667024 0.344075 -0.735897 0.583154 1.7041734328458258e-38
15.498800 -30.070687 70.412132 0.362101 -0.727196 0.583154 1.7041734328458258e-38
15.528683 -30.339285 70.473555 0.379907 -0.718055 0.583154 1.7041734328458258e-38
3.750101 -32.628764 71.963301 0.096337 -0.819348 0.565144 1.7041734328458258e-38
4.766862 -32.721215 72.003834 0.116494 -0.816726 0.565144 1.7041734328458258e-38
5.277629 -32.230386 71.668153 0.136581 -0.813608 0.565144 1.7041734328458258e-38
6.668599 -32.106041 71.917372 0.156584 -0.809996 0.565144 1.7041734328458258e-38
7.037042 -31.924874 71.923906 0.176493 -0.805892 0.565144 1.7041734328458258e-38
6.891696 -32.317157 71.803199 0.196295 -0.801299 0.565144 1.7041734328458258e-38
8.728357 -31.656393 72.217231 0.215977 -0.796220 0.565144 1.7041734328458258e-38
9.602971 -32.271193 71.811871 0.235528 -0.790657 0.565144 1.7041734328458258e-38
10.568528 -31.370551 71.813612 0.254937 -0.784614 0.565144 1.7041734328458258e-38
10.826130 -30.858332 71.646624 0.274190 -0.778095 0.565144 1.7041734328458258e-38
11.916217 -30.734701 71.768843 0.293277 -0.771104 0.565144 1.7041734328458258e-38
12.640417 -30.504191 72.135771 0.312186 -0.763644 0.565144 1.7041734328458258e-38
13.447448 -29.935648 71.523403 0.330906 -0.755721 0.565144 1.7041734328458258e-38
13.737649 -29.893261 71.977414 0.349424 -0.747339 0.565144 1.7041734328458258e-38
14.877788 -29.783805 71.986746 0.367731 -0.738503 0.565144 1.7041734328458258e-38
15.253771 -28.984674 71.838543 0.385814 -0.729219 0.565144 1.7041734328458258e-38
16.088988 -28.958309 71.792531 0.403663 -0.719492 0.565144 1.7041734328458258e-38
3.156675 -31.952746 72.876551 0.098043 -0.833863 0.543195 1.7041734328458258e-38
4.911341 -31.936194 73.153344 0.118558 -0.831194 0.543195 1.7041734328458258e-38
5.202553 -31.957560 73.219862 0.139000 -0.828021 0.543195 1.7041734328458258e-38
6.434289 -31.991148 73.332423 0.159358 -0.824345 0.543195 1.7041734328458258e-38
6.595289 -32.149942 72.992936 0.179620 -0.820168 0.543195 1.7041734328458258e-38
7.812643 -31.725800 72.394861 0.199772 -0.815494 0.543195 1.7041734328458258e-38
8.280169 -31.261423 73.400576 0.219803 -0.810325 0.543195 1.7041734328458258e-38
9.195232 -30.635399 73.052598 0.239701 -0.804663 0.543195 1.7041734328458258e-38
10.419629 -30.887448 72.963305 0.259453 -0.798513 0.543195 1.7041734328458258e-38
10.229677 -30.122107 73.323898 0.279047 -0.791879 0.543195 1.7041734328458258e-38
11.707111 -30.130082 72.542859 0.298472 -0.784763 0.543195 1.7041734328458258e-38
12.157292 -30.004875 73.266487 0.317716 -0.777172 0.543195 1.7041734328458258e-38
12.785734 -29.626768 73.641886 0.336768 -0.769108 0.543195 1.7041734328458258e-38
13.876240 -28.842456 72.836059 0.355614 -0.760577 0.543195 1.7041734328458258e-38
14.020754 -28.500377 73.437322 0.374245 -0.751585 0.543195 1.7041734328458258e-38
14.670620 -28.613347 72.715413 0.392648 -0.742136 0.543195 1.7041734328458258e-38
15.897557 -27.752602 72.879198 0.410814 -0.732237 0.543195 1.7041734328458258e-38
16.328772 -28.268888 72.703418 0.428729 -0.721894 0.543195 1.7041734328458258e-38
17.569348 -27.120621 73.267578 0.446385 -0.711112 0.543195 1.7041734328458258e-38
4.095289 -31.258885 74.015813 0.099957 -0.850144 0.516976 1.7041734328458258e-38
3.952342 -30.521984 74.622483 0.120872 -0.847423 0.516976 1.7041734328458258e-38
4.608392 -30.791222 73.893164 0.141714 -0.844188 0.516976 1.7041734328458258e-38
5.811269 -31.224838 73.626565 0.162470 -0.840440 0.516976 1.7041734328458258e-38
6.708413 -30.125374 73.948993 0.183127 -0.836182 0.516976 1.7041734328458258e-38
7.743666 -30.204577 74.443329 0.203673 -0.831417 0.516976 1.7041734328458258e-38
8.824850 -30.039043 74.768201 0.224095 -0.826146 0.516976 1.7041734328458258e-38
8.626442 -29.890127 74.680074 0.244381 -0.820374 0.516976 1.7041734328458258e-38
9.478163 -30.929430 73.846603 0.264519 -0.814104 0.516976 1.7041734328458258e-38
10.225641 -29.466932 74.056874 0.284496 -0.807340 0.516976 1.7041734328458258e-38
11.170976 -29.550300 74.188241 0.304300 -0.800086 0.516976 1.7041734328458258e-38
11.870359 -29.274597 74.473180 0.323920 -0.792346 0.516976 1.7041734328458258e-38
13.017289 -29.127772 74.291999 0.343343 -0.784125 0.516976 1.7041734328458258e-38
12.879653 -28.989680 74.537767 0.362558 -0.775428 0.516976 1.7041734328458258e-38
14.607970 -28.225844 74.776793 0.381552 -0.766260 0.516976 1.7041734328458258e-38
14.500023 -27.844076 74.727125 0.400315 -0.756627 0.516976 1.7041734328458258e-38
15.100497 -27.128262 74.122321 0.418835 -0.746534 0.516976 1.7041734328458258e-38
15.828564 -27.168805 73.576314 0.437100 -0.735989 0.516976 1.7041734328458258e-38
17.083842 -26.544771 74.182404 0.455101 -0.724996 0.516976 1.7041734328458258e-38
17.148229 -26.099469 74.491839 0.472824 -0.713564 0.516976 1.7041734328458258e-38
3.955403 -30.239394 75.472271 0.102045 -0.867903 0.486139 1.7041734328458258e-38
4.160262 -30.071791 75.371853 0.123397 -0.865125 0.486139 1.7041734328458258e-38
5.106666 -30.094932 75.526758 0.144674 -0.861822 0.486139 1.7041734328458258e-38
6.292523 -30.541201 75.484118 0.165864 -0.857996 0.486139 1.7041734328458258e-38
7.209876 -29.723373 75.404804 0.186952 -0.853649 0.486139 1.7041734328458258e-38
7.545047 -29.835876 75.903829 0.207927 -0.848784 0.486139 1.7041734328458258e-38
8.284286 -29.892471 75.535426 0.228776 -0.843404 0.486139 1.7041734328458258e-38
8.891128 -29.285055 75.559542 0.249486 -0.837511 0.486139 1.7041734328458258e-38
9.657272 -29.074887 75.247561 0.270044 -0.831110 0.486139 1.7041734328458258e-38
10.067454 -29.034224 75.492577 0.290439 -0.824205 0.486139 1.7041734328458258e-38
10.839479 -28.366910 75.175879 0.310657 -0.816799 0.486139 1.7041734328458258e-38
11.098088 -27.830098 75.218667 0.330686 -0.808897 0.486139 1.7041734328458258e-38
12.645263 -27.942698 75.229239 0.350515 -0.800505 0.486139 1.7041734328458258e-38
12.964455 -27.897910 75.570832 0.370131 -0.791626 0.486139 1.7041734328458258e-38
13.455420 -27.537442 75.452742 0.389522 -0.782266 0.486139 1.7041734328458258e-38
14.689188 -27.262299 75.171222 0.408677 -0.772432 0.486139 1.7041734328458258e-38
14.859504 -26.666858 74.932441 0.427584 -0.762129 0.486139 1.7041734328458258e-38
16.037269 -26.392817 75.593882 0.446231 -0.751363 0.486139 1.7041734328458258e-38
16.389467 -26.204640 75.139258 0.464607 -0.740141 0.486139 1.7041734328458258e-38
16.749296 -26.046172 75.568393 0.482701 -0.728469 0.486139 1.7041734328458258e-38
17.536046 -25.629053 75.278966 0.500502 -0.716356 0.486139 1.7041734328458258e-38
18.395268 -24.339963 75.078752 0.518000 -0.703807 0.486139 1.7041734328458258e-38
3.436421 -29.720638 76.102810 0.104261 -0.886744 0.450350 1.7041734328458258e-38
4.340143 -29.872169 76.941852 0.126076 -0.883906 0.450350 1.7041734328458258e-38
4.818828 -29.371785 76.247812 0.147815 -0.880531 0.450350 1.7041734328458258e-38
5.708251 -29.792179 76.554597 0.169464 -0.876622 0.450350 1.7041734328458258e-38
7.244031 -29.636040 76.589252 0.191011 -0.872181 0.450350 1.7041734328458258e-38
6.806070 -29.275989 76.656043 0.212441 -0.867210 0.450350 1.7041734328458258e-38
7.645667 -28.525984 77.047582 0.233742 -0.861713 0.450350 1.7041734328458258e-38
8.294067 -28.551280 76.557004 0.254902 -0.855693 0.450350 1.7041734328458258e-38
8.916180 -28.791565 76.324241 0.275906 -0.849153 0.450350 1.7041734328458258e-38
10.268556 -28.601694 77.087471 0.296744 -0.842097 0.450350 1.7041734328458258e-38
10.723625 -28.205212 76.550402 0.317401 -0.834531 0.450350 1.7041734328458258e-38
11.895835 -27.809361 76.549730 0.337865 -0.826457 0.450350 1.7041734328458258e-38
12.307852 -27.348217 76.404603 0.358124 -0.817882 0.450350 1.7041734328458258e-38
12.727853 -27.761208 76.690996 0.378166 -0.808811 0.450350 1.7041734328458258e-38
13.487274 -26.762436 76.401190 0.397978 -0.799248 0.450350 1.7041734328458258e-38
13.830051 -26.484443 77.076176 0.417549 -0.789201 0.450350 1.7041734328458258e-38
14.729307 -26.371836 76.992098 0.436866 -0.778674 0.450350 1.7041734328458258e-38
15.381562 -25.780617 76.940345 0.455918 -0.767674 0.450350 1.7041734328458258e-38
15.945777 -25.728415 76.654655 0.474693 -0.756208 0.450350 1.7041734328458258e-38
16.930443 -24.479285 76.335410 0.493180 -0.744284 0.450350 1.7041734328458258e-38
17.700035 -24.740652 76.707168 0.511368 -0.731907 0.450350 1.7041734328458258e-38
18.320432 -24.322033 76.618712 0.529245 -0.719086 0.450350 1.7041734328458258e-38
18.208433 -23.741610 76.794559 0.546801 -0.705828 0.450350 1.7041734328458258e-38
3.644027 -29.308565 77.956857 0.106542 -0.906147 0.409324 1.7041734328458258e-38
4.068240 -29.690185 77.633135 0.128835 -0.903247 0.409324 1.7041734328458258e-38
5.164405 -28.691274 77.680646 0.151050 -0.899799 0.409324 1.7041734328458258e-38
5.926683 -29.281684 77.783002 0.173172 -0.895804 0.409324 1.7041734328458258e-38
6.266169 -28.856903 77.730493 0.195190 -0.891266 0.409324 1.7041734328458258e-38
7.046862 -28.378019 77.502018 0.217089 -0.886186 0.409324 1.7041734328458258e-38
7.749479 -28.140116 77.814324 0.238857 -0.880569 0.409324 1.7041734328458258e-38
8.245642 -28.486213 78.538251 0.260479 -0.874417 0.409324 1.7041734328458258e-38
9.550650 -28.103668 78.292229 0.281944 -0.867734 0.409324 1.7041734328458258e-38
9.632321 -27.829115 77.620159 0.303237 -0.860524 0.409324 1.7041734328458258e-38
9.918733 -27.706848 77.810639 0.324346 -0.852792 0.409324 1.7041734328458258e-38
11.274801 -27.069960 77.901335 0.345258 -0.844542 0.409324 1.7041734328458258e-38
11.517878 -27.180918 78.415475 0.365961 -0.835779 0.409324 1.7041734328458258e-38
12.665182 -26.257395 78.471234 0.386441 -0.826509 0.409324 1.7041734328458258e-38
12.932842 -26.122707 77.667487 0.406687 -0.816737 0.409324 1.7041734328458258e-38
14.085747 -25.788915 77.303922 0.426686 -0.806470 0.409324 1.7041734328458258e-38
14.533898 -25.946933 77.836022 0.446426 -0.795712 0.409324 1.7041734328458258e-38
14.843718 -25.054679 77.733093 0.465894 -0.784472 0.409324 1.7041734328458258e-38
15.277345 -25.191056 77.873788 0.485080 -0.772755 0.409324 1.7041734328458258e-38
16.394046 -24.196605 78.092224 0.503972 -0.760570 0.409324 1.7041734328458258e-38
17.046155 -23.925489 78.183348 0.522557 -0.747922 0.409324 1.7041734328458258e-38
17.770835 -22.972522 78.178404 0.540826 -0.734821 0.409324 1.7041734328458258e-38
18.125970 -23.426220 78.031127 0.558766 -0.721273 0.409324 1.7041734328458258e-38
18.954428 -23.200608 78.315720 0.576366 -0.707288 0.409324 1.7041734328458258e-38
19.037194 -22.439314 78.094680 0.593617 -0.692873 0.409324 1.7041734328458258e-38
3.983273 -28.444336 79.277633 0.131581 -0.922498 0.362882 1.7041734328458258e-38
4.688007 -28.145468 78.908161 0.154269 -0.918977 0.362882 1.7041734328458258e-38
4.869753 -28.450027 79.098196 0.176863 -0.914897 0.362882 1.7041734328458258e-38
6.509692 -28.643169 79.332370 0.199350 -0.910262 0.362882 1.7041734328458258e-38
7.006214 -28.010296 79.488481 0.221716 -0.905074 0.362882 1.7041734328458258e-38
7.568782 -27.913310 79.310342 0.243948 -0.899337 0.362882 1.7041734328458258e-38
8.231028 -28.139820 79.052113 0.266031 -0.893053 0.362882 1.7041734328458258e-38
8.864712 -27.690596 79.080309 0.287953 -0.886228 0.362882 1.7041734328458258e-38
9.671635 -27.375384 79.431450 0.309700 -0.878865 0.362882 1.7041734328458258e-38
10.548141 -27.761595 78.745313 0.331259 -0.870968 0.362882 1.7041734328458258e-38
10.229114 -26.868443 79.074457 0.352617 -0.862542 0.362882 1.7041734328458258e-38
11.652454 -26.255618 79.162435 0.373761 -0.853592 0.362882 1.7041734328458258e-38
12.075870 -26.215651 79.027090 0.394677 -0.844125 0.362882 1.7041734328458258e-38
12.455667 -25.617083 79.302628 0.415355 -0.834145 0.362882 1.7041734328458258e-38
13.967852 -25.949876 78.690828 0.435780 -0.823658 0.362882 1.7041734328458258e-38
13.878474 -25.117921 79.432943 0.455940 -0.812672 0.362882 1.7041734328458258e-38
14.862637 -24.837984 79.431619 0.475824 -0.801192 0.362882 1.7041734328458258e-38
15.247445 -24.192522 79.770763 0.495419 -0.789226 0.362882 1.7041734328458258e-38
15.665629 -24.199180 78.758307 0.514713 -0.776780 0.362882 1.7041734328458258e-38
16.284376 -23.604061 78.669572 0.533695 -0.763863 0.362882 1.7041734328458258e-38
16.919469 -22.990195 79.242292 0.552352 -0.750482 0.362882 1.7041734328458258e-38
17.952745 -23.264659 79.195574 0.570675 -0.736646 0.362882 1.7041734328458258e-38
18.846603 -22.631586 79.028852 0.588651 -0.722362 0.362882 1.7041734328458258e-38
19.002240 -22.245770 79.390435 0.606269 -0.707640 0.362882 1.7041734328458258e-38
3.882677 -28.834514 80.477710 0.134203 -0.940883 0.311014 1.7041734328458258e-38
4.912757 -28.305426 80.140884 0.157343 -0.937291 0.311014 1.7041734328458258e-38
5.450470 -27.618268 80.739617 0.180388 -0.933130 0.311014 1.7041734328458258e-38
6.344621 -27.228889 80.689675 0.203323 -0.928402 0.311014 1.7041734328458258e-38
7.126874 -27.650166 80.308365 0.226135 -0.923111 0.311014 1.7041734328458258e-38
7.800093 -27.795164 80.539507 0.248809 -0.917259 0.311014 1.7041734328458258e-38
7.952599 -27.206940 80.492742 0.271333 -0.910851 0.311014 1.7041734328458258e-38
8.854218 -27.105316 80.572131 0.293691 -0.903889 0.311014 1.7041734328458258e-38
9.678167 -27.294504 80.398761 0.315872 -0.896379 0.311014 1.7041734328458258e-38
10.004154 -26.575113 80.287534 0.337860 -0.888325 0.311014 1.7041734328458258e-38
11.165210 -26.396179 80.708335 0.359644 -0.879731 0.311014 1.7041734328458258e-38
11.143588 -26.186256 80.227960 0.381209 -0.870603 0.311014 1.7041734328458258e-38
12.186961 -26.168019 79.899722 0.402543 -0.860947 0.311014 1.7041734328458258e-38
12.513468 -25.339013 80.169447 0.423632 -0.850768 0.311014 1.7041734328458258e-38
13.405402 -25.380873 79.886520 0.444464 -0.840073 0.311014 1.7041734328458258e-38
14.197803 -24.655911 80.400423 0.465027 -0.828867 0.311014 1.7041734328458258e-38
14.563113 -24.561935 80.102598 0.485307 -0.817158 0.311014 1.7041734328458258e-38
15.541240 -24.163942 80.520864 0.505292 -0.804954 0.311014 1.7041734328458258e-38
15.589787 -23.620327 80.755919 0.524971 -0.792260 0.311014 1.7041734328458258e-38
16.369862 -23.250030 80.675772 0.544331 -0.779086 0.311014 1.7041734328458258e-38
17.102611 -22.635786 80.508632 0.563360 -0.765438 0.311014 1.7041734328458258e-38
17.546783 -22.454116 80.671797 0.582047 -0.751326 0.311014 1.7041734328458258e-38
17.870845 -21.929983 81.101602 0.600382 -0.736758 0.311014 1.7041734328458258e-38
18.646812 -21.998107 80.325324 0.618351 -0.721743 0.311014 1.7041734328458258e-38
3.792954 -27.988457 81.847384 0.136577 -0.957527 0.253947 1.7041734328458258e-38
4.505245 -27.774374 82.151593 0.160127 -0.953871 0.253947 1.7041734328458258e-38
5.454115 -27.780175 81.320338 0.183579 -0.949637 0.253947 1.7041734328458258e-38
5.978059 -27.242010 81.472453 0.206920 -0.944826 0.253947 1.7041734328458258e-38
6.680022 -27.506394 81.527164 0.230135 -0.939441 0.253947 1.7041734328458258e-38
6.980909 -27.085409 81.674591 0.253211 -0.933486 0.253947 1.7041734328458258e-38
8.454967 -26.945851 81.416075 0.276133 -0.926964 0.253947 1.7041734328458258e-38
9.108571 -26.663164 81.686536 0.298887 -0.919879 0.253947 1.7041734328458258e-38
9.324968 -26.505022 81.369938 0.321460 -0.912236 0.253947 1.7041734328458258e-38
9.953909 -26.379304 81.735125 0.343837 -0.904039 0.253947 1.7041734328458258e-38
10.958120 -25.769348 81.781491 0.366006 -0.895294 0.253947 1.7041734328458258e-38
10.744401 -25.919445 81.081517 0.387953 -0.886004 0.253947 1.7041734328458258e-38
12.217525 -25.539314 81.583980 0.409664 -0.876177 0.253947 1.7041734328458258e-38
12.311377 -24.822683 81.658662 0.431126 -0.865818 0.253947 1.7041734328458258e-38
13.099388 -24.847726 81.688786 0.452327 -0.854934 0.253947 1.7041734328458258e-38
13.701889 -24.174865 82.003886 0.473253 -0.843530 0.253947 1.7041734328458258e-38
14.370721 -24.440397 81.726298 0.493892 -0.831614 0.253947 1.7041734328458258e-38
14.755525 -23.417715 82.099491 0.514231 -0.819193 0.253947 1.7041734328458258e-38
15.732742 -23.818175 81.488617 0.534257 -0.806275 0.253947 1.7041734328458258e-38
16.029619 -23.332152 81.537633 0.553960 -0.792868 0.253947 1.7041734328458258e-38
16.722890 -22.517747 82.014989 0.573326 -0.778979 0.253947 1.7041734328458258e-38
17.199836 -22.348114 81.242340 0.592344 -0.764617 0.253947 1.7041734328458258e-38
17.853279 -21.962612 81.566369 0.611002 -0.749791 0.253947 1.7041734328458258e-38
4.154015 -27.354482 82.938664 0.138573 -0.971522 0.192202 1.7041734328458258e-38
4.945512 -27.268111 82.789119 0.162467 -0.967813 0.192202 1.7041734328458258e-38
5.320893 -27.530386 82.518952 0.186262 -0.963517 0.192202 1.7041734328458258e-38
6.085520 -27.650827 82.830363 0.209944 -0.958635 0.192202 1.7041734328458258e-38
5.936102 -27.024842 82.668505 0.233499 -0.953172 0.192202 1.7041734328458258e-38
7.460301 -26.941432 82.848322 0.256912 -0.947130 0.192202 1.7041734328458258e-38
7.965409 -26.870366 82.716631 0.280169 -0.940513 0.192202 1.7041734328458258e-38
8.435002 -26.520518 82.719512 0.303255 -0.933324 0.192202 1.7041734328458258e-38
9.389836 -26.793851 82.436854 0.326158 -0.925570 0.192202 1.7041734328458258e-38
10.465515 -26.157185 82.582188 0.348863 -0.917253 0.192202 1.7041734328458258e-38
10.529525 -25.545028 83.078904 0.371356 -0.908379 0.192202 1.7041734328458258e-38
10.944549 -25.661526 82.786477 0.393623 -0.898955 0.192202 1.7041734328458258e-38
11.887478 -25.211162 82.611495 0.415652 -0.888984 0.192202 1.7041734328458258e-38
12.259103 -25.006163 83.331211 0.437428 -0.878473 0.192202 1.7041734328458258e-38
12.969110 -23.620595 82.805833 0.458938 -0.867430 0.192202 1.7041734328458258e-38
13.119828 -24.179534 83.200758 0.480170 -0.855859 0.192202 1.7041734328458258e-38
14.361482 -23.882844 82.772691 0.501111 -0.843769 0.192202 1.7041734328458258e-38
14.718990 -24.282496 83.144314 0.521747 -0.831167 0.192202 1.7041734328458258e-38
15.267320 -22.868444 82.726815 0.542066 -0.818060 0.192202 1.7041734328458258e-38
15.932245 -22.451605 83.287369 0.562057 -0.804457 0.192202 1.7041734328458258e-38
16.758200 -22.987850 82.503487 0.581706 -0.790365 0.192202 1.7041734328458258e-38
17.263693 -22.222566 82.908724 0.601002 -0.775793 0.192202 1.7041734328458258e-38
17.652752 -21.509353 82.569877 0.619933 -0.760751 0.192202 1.7041734328458258e-38
3.920525 -26.880300 83.401654 0.140070 -0.982011 0.126626 1.7041734328458258e-38
4.722742 -27.257123 83.495621 0.164221 -0.978262 0.126626 1.7041734328458258e-38
5.242571 -27.514405 83.967815 0.188273 -0.973919 0.126626 1.7041734328458258e-38
6.005865 -27.042430 84.230605 0.212211 -0.968985 0.126626 1.7041734328458258e-38
6.625014 -26.145337 84.201486 0.236020 -0.963463 0.126626 1.7041734328458258e-38
7.271174 -26.555163 84.115838 0.259686 -0.957355 0.126626 1.7041734328458258e-38
7.417395 -26.287475 84.510925 0.283194 -0.950667 0.126626 1.7041734328458258e-38
9.009532 -26.085720 84.043051 0.306530 -0.943401 0.126626 1.7041734328458258e-38
9.267030 -25.538164 84.056523 0.329680 -0.935562 0.126626 1.7041734328458258e-38
9.469707 -25.176982 83.818278 0.352629 -0.927156 0.126626 1.7041734328458258e-38
9.989856 -25.494071 84.246343 0.375365 -0.918187 0.126626 1.7041734328458258e-38
11.226111 -25.060826 84.075208 0.397873 -0.908660 0.126626 1.7041734328458258e-38
11.665074 -25.215380 84.164751 0.420139 -0.898582 0.126626 1.7041734328458258e-38
12.485284 -24.475297 83.854371 0.442150 -0.887958 0.126626 1.7041734328458258e-38
12.554806 -24.170721 83.965007 0.463893 -0.876795 0.126626 1.7041734328458258e-38
13.231250 -24.665310 84.545930 0.485354 -0.865099 0.126626 1.7041734328458258e-38
14.199407 -23.606039 84.254937 0.506521 -0.852879 0.126626 1.7041734328458258e-38
14.761808 -23.421636 84.102625 0.527380 -0.840141 0.126626 1.7041734328458258e-38
14.977391 -23.575056 84.797400 0.547919 -0.826892 0.126626 1.7041734328458258e-38
15.845002 -22.793485 83.883423 0.568125 -0.813142 0.126626 1.7041734328458258e-38
16.702016 -22.221824 83.864690 0.587986 -0.798898 0.126626 1.7041734328458258e-38
16.839653 -21.761354 84.007722 0.607491 -0.784169 0.126626 1.7041734328458258e-38
3.733682 -27.111626 85.184574 0.140965 -0.988292 0.058377 1.7041734328458258e-38
4.279810 -27.063887 84.968460 0.165272 -0.984519 0.058377 1.7041734328458258e-38
5.162474 -26.762284 85.404408 0.189477 -0.980148 0.058377 1.7041734328458258e-38
5.575529 -26.751231 85.180525 0.213568 -0.975182 0.058377 1.7041734328458258e-38
6.804143 -26.587010 85.256684 0.237529 -0.969625 0.058377 1.7041734328458258e-38
6.982294 -26.825035 86.137725 0.261346 -0.963478 0.058377 1.7041734328458258e-38
7.172284 -26.912699 85.691569 0.285005 -0.956747 0.058377 1.7041734328458258e-38
8.773348 -26.074861 84.763248 0.308490 -0.949435 0.058377 1.7041734328458258e-38
9.311506 -26.259315 85.331178 0.331788 -0.941546 0.058377 1.7041734328458258e-38
9.908866 -25.580129 85.165618 0.354885 -0.933086 0.058377 1.7041734328458258e-38
10.803285 -25.239303 85.072779 0.377766 -0.924059 0.058377 1.7041734328458258e-38
10.898554 -25.446368 85.342036 0.400417 -0.914471 0.058377 1.7041734328458258e-38
11.849212 -25.494266 84.765573 0.422826 -0.904329 0.058377 1.7041734328458258e-38
12.021734 -24.238393 85.432092 0.444978 -0.893637 0.058377 1.7041734328458258e-38
13.347951 -24.381111 85.108213 0.466860 -0.882402 0.058377 1.7041734328458258e-38
12.967498 -24.258546 85.174776 0.488458 -0.870632 0.058377 1.7041734328458258e-38
13.330319 -23.922956 85.105866 0.509760 -0.858334 0.058377 1.7041734328458258e-38
14.643321 -23.329741 85.456832 0.530753 -0.845514 0.058377 1.7041734328458258e-38
14.720018 -23.289910 85.638606 0.551423 -0.832181 0.058377 1.7041734328458258e-38
15.689906 -22.313701 85.318462 0.571758 -0.818343 0.058377 1.7041734328458258e-38
16.375004 -22.013850 85.193880 0.591747 -0.804007 0.058377 1.7041734328458258e-38
5.042905 -27.351472 86.715855 0.189728 -0.981443 0.027806 1.7041734328458258e-38
6.714001 -26.890815 86.380097 0.213850 -0.976471 0.027806 1.7041734328458258e-38
6.323808 -26.427140 86.334850 0.237843 -0.970905 0.027806 1.7041734328458258e-38
7.588472 -27.029296 86.655636 0.261692 -0.964751 0.027806 1.7041734328458258e-38
8.049239 -26.124110 86.805621 0.285381 -0.958011 0.027806 1.7041734328458258e-38
8.576924 -25.805360 86.300648 0.308898 -0.950689 0.027806 1.7041734328458258e-38
8.945601 -26.055063 87.042993 0.332226 -0.942790 0.027806 1.7041734328458258e-38
9.914879 -25.496541 86.544210 0.355353 -0.934318 0.027806 1.7041734328458258e-38
10.650304 -25.918091 86.475266 0.378265 -0.925280 0.027806 1.7041734328458258e-38
10.963973 -25.330698 86.501558 0.400946 -0.915679 0.027806 1.7041734328458258e-38
11.810475 -24.837517 86.956042 0.423385 -0.905523 0.027806 1.7041734328458258e-38
11.630694 -24.168051 86.403022 0.445566 -0.894817 0.027806 1.7041734328458258e-38
13.254089 -24.430346 86.708795 0.467477 -0.883568 0.027806 1.7041734328458258e-38
13.131164 -24.345726 86.772277 0.489104 -0.871782 0.027806 1.7041734328458258e-38
13.241736 -24.006681 86.827944 0.510434 -0.859467 0.027806 1.7041734328458258e-38
14.494859 -23.553679 87.054777 0.531454 -0.846631 0.027806 1.7041734328458258e-38
15.750830 -22.921645 86.980059 0.552151 -0.833280 0.027806 1.7041734328458258e-38
16.203750 -22.545501 86.444274 0.572514 -0.819424 0.027806 1.7041734328458258e-38
16.325818 -22.582108 86.768322 0.592528 -0.805070 0.027806 1.7041734328458258e-38
6.362260 -26.254622 87.838320 0.233321 -0.952445 0.195984 1.7041734328458258e-38
7.384514 -26.490585 87.713193 0.256716 -0.946408 0.195984 1.7041734328458258e-38
8.056476 -26.015664 87.738805 0.279955 -0.939795 0.195984 1.7041734328458258e-38
8.116183 -26.517793 87.373814 0.303024 -0.932613 0.195984 1.7041734328458258e-38
8.901905 -25.705891 87.335360 0.325909 -0.924864 0.195984 1.7041734328458258e-38
9.244670 -25.455769 88.305670 0.348597 -0.916554 0.195984 1.7041734328458258e-38
10.678422 -25.874172 87.952572 0.371073 -0.907687 0.195984 1.7041734328458258e-38
11.259246 -25.207531 87.763989 0.393323 -0.898269 0.195984 1.7041734328458258e-38
11.686617 -24.634671 87.948189 0.415335 -0.888306 0.195984 1.7041734328458258e-38
12.410873 -24.423331 87.647307 0.437094 -0.877803 0.195984 1.7041734328458258e-38
12.659331 -24.413926 87.696734 0.458588 -0.866768 0.195984 1.7041734328458258e-38
13.553581 -24.089472 88.156039 0.479804 -0.855207 0.195984 1.7041734328458258e-38
13.672297 -23.459655 88.085798 0.500729 -0.843126 0.195984 1.7041734328458258e-38
14.678681 -23.723576 87.875029 0.521349 -0.830533 0.195984 1.7041734328458258e-38
14.889120 -23.200639 87.901916 0.541653 -0.817436 0.195984 1.7041734328458258e-38
15.293026 -22.351323 88.271844 0.561628 -0.803843 0.195984 1.7041734328458258e-38
7.042589 -25.850190 89.317921 0.246023 -0.906987 0.341830 1.7041734328458258e-38
8.132279 -26.275913 88.760208 0.268294 -0.900650 0.341830 1.7041734328458258e-38
8.069760 -25.685347 88.749024 0.290402 -0.893766 0.341830 1.7041734328458258e-38
8.768894 -25.265603 89.393189 0.312334 -0.886340 0.341830 1.7041734328458258e-38
9.808334 -25.145916 88.873382 0.334077 -0.878376 0.341830 1.7041734328458258e-38
10.225793 -24.655669 89.270632 0.355616 -0.869879 0.341830 1.7041734328458258e-38
11.097590 -24.453316 88.973774 0.376940 -0.860853 0.341830 1.7041734328458258e-38
11.628523 -24.578054 89.250715 0.398035 -0.851305 0.341830 1.7041734328458258e-38
12.405679 -23.708737 89.250576 0.418888 -0.841240 0.341830 1.7041734328458258e-38
12.747789 -23.454646 88.812794 0.439487 -0.830664 0.341830 1.7041734328458258e-38
13.647653 -23.513350 89.113569 0.459819 -0.819585 0.341830 1.7041734328458258e-38
13.654894 -23.571819 89.513639 0.479872 -0.808007 0.341830 1.7041734328458258e-38
14.479261 -22.983806 89.177166 0.499633 -0.795939 0.341830 1.7041734328458258e-38
14.816234 -23.023803 89.018738 0.519091 -0.783388 0.341830 1.7041734328458258e-38
15.045264 -22.066656 89.547935 0.538235 -0.770361 0.341830 1.7041734328458258e-38
7.871482 -24.529256 89.894807 0.274974 -0.846284 0.456281 1.7041734328458258e-38
9.162794 -25.268345 90.337893 0.295741 -0.839253 0.456281 1.7041734328458258e-38
9.997483 -24.495127 89.877844 0.316328 -0.831712 0.456281 1.7041734328458258e-38
9.912438 -24.502065 90.618449 0.336724 -0.823666 0.456281 1.7041734328458258e-38
10.628162 -24.287821 90.825269 0.356915 -0.815120 0.456281 1.7041734328458258e-38
11.682078 -23.761702 90.121444 0.376889 -0.806079 0.456281 1.7041734328458258e-38
10.999788 -24.071608 89.846137 0.396634 -0.796548 0.456281 1.7041734328458258e-38
12.356840 -23.108720 90.902024 0.416138 -0.786535 0.456281 1.7041734328458258e-38
13.329795 -23.291014 90.385467 0.435390 -0.776043 0.456281 1.7041734328458258e-38
13.633063 -23.219939 90.047188 0.454378 -0.765081 0.456281 1.7041734328458258e-38
13.939596 -21.773299 90.425215 0.473090 -0.753654 0.456281 1.7041734328458258e-38
14.222352 -22.186310 90.443919 0.491514 -0.741769 0.456281 1.7041734328458258e-38
9.581036 -23.771514 92.054337 0.299303 -0.786947 0.539567 1.7041734328458258e-38
9.992140 -23.564631 91.259792 0.318600 -0.779334 0.539567 1.7041734328458258e-38
10.031544 -23.080068 91.410349 0.337705 -0.771248 0.539567 1.7041734328458258e-38
10.742150 -24.014941 91.864461 0.356604 -0.762694 0.539567 1.7041734328458258e-38
11.140297 -23.293011 91.874686 0.375286 -0.753676 0.539567 1.7041734328458258e-38
11.377706 -22.349568 91.297619 0.393741 -0.744201 0.539567 1.7041734328458258e-38
12.553290 -22.686391 91.147415 0.411957 -0.734275 0.539567 1.7041734328458258e-38
12.919075 -22.384641 91.177099 0.429922 -0.723902 0.539567 1.7041734328458258e-38
14.150881 -22.096692 90.980277 0.447627 -0.713090 0.539567 1.7041734328458258e-38
13.601887 -21.331278 91.026174 0.465060 -0.701846 0.539567 1.7041734328458258e-38
9.781833 -22.641927 92.676000 0.321994 -0.735368 0.596283 1.7041734328458258e-38
10.029796 -22.565697 92.428178 0.340014 -0.727212 0.596283 1.7041734328458258e-38
11.429027 -21.732700 92.974816 0.357827 -0.718614 0.596283 1.7041734328458258e-38
11.446533 -21.991407 92.870539 0.375423 -0.709580 0.596283 1.7041734328458258e-38
12.502547 -21.761170 92.905955 0.392792 -0.700115 0.596283 1.7041734328458258e-38
12.204463 -21.325533 92.525397 0.409921 -0.690225 0.596283 1.7041734328458258e-38
10.863787 -21.808500 94.047309 0.345628 -0.694114 0.631464 1.7041734328458258e-38
11.475776 -21.599691 94.526786 0.362624 -0.685388 0.631464 1.7041734328458258e-38
11.746542 -20.688840 93.917470 0.379400 -0.676246 0.631464 1.7041734328458258e-38
