# .PCD v0.7 - Point Cloud Data file format
VERSION 0.7
FIELDS x y z normal_x normal_y normal_z rgb
SIZE 4 4 4 4 4 4 4
TYPE F F F F F F F
COUNT 1 1 1 1 1 1 1
WIDTH 212
HEIGHT 1
VIEWPOINT 0 0 0 1 0 0 0
POINTS 212
DATA ascii
-2.707394 25.324974 10.628562 -0.097305 0.925799 -0.365277 1.5197831540281055e-38
-3.076057 25.400621 11.233137 -0.120085 0.923121 -0.365277 1.5197831540281055e-38
-3.582533 25.082282 11.120479 -0.142792 0.919882 -0.365277 1.5197831540281055e-38
-4.632091 25.483722 11.505769 -0.165412 0.916085 -0.365277 1.5197831540281055e-38
-2.869561 25.970533 12.422886 -0.093198 0.886721 -0.452813 1.5197831540281055e-38
-3.393495 26.047210 12.679415 -0.115016 0.884156 -0.452813 1.5197831540281055e-38
-4.370376 25.713464 12.063866 -0.136765 0.881054 -0.452813 1.5197831540281055e-38
-4.788033 25.549790 12.356563 -0.158430 0.877417 -0.452813 1.5197831540281055e-38
-5.366724 25.559243 12.633264 -0.179999 0.873247 -0.452813 1.5197831540281055e-38
-5.968841 25.975163 12.312619 -0.201459 0.868547 -0.452813 1.5197831540281055e-38
-6.588550 25.333128 12.369020 -0.222797 0.863320 -0.452813 1.5197831540281055e-38
-6.993928 25.208676 12.526658 -0.243999 0.857569 -0.452813 1.5197831540281055e-38
-2.820482 27.197488 14.000966 -0.088958 0.846379 -0.525098 1.5197831540281055e-38
-3.543679 27.053004 13.277777 -0.109784 0.843931 -0.525098 1.5197831540281055e-38
-3.916589 26.542335 13.252838 -0.130543 0.840970 -0.525098 1.5197831540281055e-38
-4.859377 27.023944 13.662549 -0.151222 0.837498 -0.525098 1.5197831540281055e-38
-5.008745 26.252756 13.922603 -0.171810 0.833518 -0.525098 1.5197831540281055e-38
-6.304018 26.402474 13.673252 -0.192294 0.829032 -0.525098 1.5197831540281055e-38
-6.556892 26.251609 13.386492 -0.212661 0.824043 -0.525098 1.5197831540281055e-38
-7.134117 26.521504 13.433106 -0.232899 0.818554 -0.525098 1.5197831540281055e-38
-8.587156 25.961637 13.508893 -0.252995 0.812567 -0.525098 1.5197831540281055e-38
-8.709415 25.772858 13.471330 -0.272938 0.806087 -0.525098 1.5197831540281055e-38
-9.378975 25.354587 14.049174 -0.292715 0.799118 -0.525098 1.5197831540281055e-38
-9.911888 24.777129 13.249484 -0.312314 0.791664 -0.525098 1.5197831540281055e-38
-2.643044 27.923904 14.924529 -0.084890 0.807677 -0.583482 1.5197831540281055e-38
-3.802168 27.743817 14.825258 -0.104764 0.805340 -0.583482 1.5197831540281055e-38
-4.366112 28.334848 14.383645 -0.124573 0.802515 -0.583482 1.5197831540281055e-38
-4.663083 27.158765 14.884719 -0.144307 0.799202 -0.583482 1.5197831540281055e-38
-4.854057 26.998562 14.628199 -0.163954 0.795404 -0.583482 1.5197831540281055e-38
-6.300468 26.886248 15.110578 -0.183501 0.791123 -0.583482 1.5197831540281055e-38
-7.122333 27.173280 14.446604 -0.202936 0.786362 -0.583482 1.5197831540281055e-38
-8.166557 26.728667 14.374808 -0.222249 0.781124 -0.583482 1.5197831540281055e-38
-7.826931 26.142439 14.534055 -0.241426 0.775411 -0.583482 1.5197831540281055e-38
-8.811201 26.213339 14.389844 -0.260457 0.769227 -0.583482 1.5197831540281055e-38
-8.970750 25.860605 14.786483 -0.279330 0.762577 -0.583482 1.5197831540281055e-38
-10.287130 26.130152 14.984067 -0.298033 0.755463 -0.583482 1.5197831540281055e-38
-11.107840 25.559542 14.777284 -0.316555 0.747891 -0.583482 1.5197831540281055e-38
-11.263945 25.031447 15.450794 -0.334885 0.739865 -0.583482 1.5197831540281055e-38
-12.338247 25.088564 14.497364 -0.353012 0.731390 -0.583482 1.5197831540281055e-38
-13.114447 24.522872 14.554204 -0.370924 0.722470 -0.583482 1.5197831540281055e-38
-2.876178 28.438503 16.388496 -0.081187 0.772442 -0.629875 1.5197831540281055e-38
-3.488123 28.797466 16.146942 -0.100193 0.770207 -0.629875 1.5197831540281055e-38
-4.108644 28.848537 16.167404 -0.119139 0.767505 -0.629875 1.5197831540281055e-38
-5.153298 28.617891 15.811237 -0.138012 0.764336 -0.629875 1.5197831540281055e-38
-6.031208 28.198807 15.560067 -0.156801 0.760704 -0.629875 1.5197831540281055e-38
-6.260917 27.774072 15.941027 -0.175496 0.756610 -0.629875 1.5197831540281055e-38
-7.262603 27.905843 15.979378 -0.194083 0.752057 -0.629875 1.5197831540281055e-38
-7.903884 27.690346 15.948365 -0.212553 0.747047 -0.629875 1.5197831540281055e-38
-8.795898 27.830032 15.451153 -0.230894 0.741583 -0.629875 1.5197831540281055e-38
-9.300722 27.145577 16.208112 -0.249095 0.735669 -0.629875 1.5197831540281055e-38
-10.344754 26.900403 16.051766 -0.267144 0.729309 -0.629875 1.5197831540281055e-38
-10.250888 26.897664 15.727428 -0.285031 0.722506 -0.629875 1.5197831540281055e-38
-11.375179 26.795225 15.722242 -0.302745 0.715264 -0.629875 1.5197831540281055e-38
-11.902738 26.241968 15.966739 -0.320276 0.707588 -0.629875 1.5197831540281055e-38
-11.713415 25.820246 16.217404 -0.337612 0.699482 -0.629875 1.5197831540281055e-38
-13.387426 25.786001 16.343711 -0.354743 0.690952 -0.629875 1.5197831540281055e-38
-13.961331 25.279319 15.813890 -0.371658 0.682003 -0.629875 1.5197831540281055e-38
-14.747301 25.259464 15.916274 -0.388348 0.672639 -0.629875 1.5197831540281055e-38
-15.738357 25.115582 15.841846 -0.404802 0.662867 -0.629875 1.5197831540281055e-38
-15.689363 24.700870 16.039952 -0.421011 0.652692 -0.629875 1.5197831540281055e-38
-16.256150 23.448073 15.592024 -0.436964 0.642122 -0.629875 1.5197831540281055e-38
-2.277413 30.291185 17.489954 -0.059656 0.743359 -0.666227 1.5197831540281055e-38
-2.783698 29.336958 17.281541 -0.077952 0.741664 -0.666227 1.5197831540281055e-38
-3.486116 29.347447 17.609154 -0.096201 0.739518 -0.666227 1.5197831540281055e-38
-4.360783 29.592283 17.220977 -0.114392 0.736923 -0.666227 1.5197831540281055e-38
-5.602324 29.920664 17.509146 -0.132513 0.733881 -0.666227 1.5197831540281055e-38
-5.926687 29.124537 17.330949 -0.150554 0.730394 -0.666227 1.5197831540281055e-38
-6.698232 29.210940 17.539890 -0.168503 0.726463 -0.666227 1.5197831540281055e-38
-7.697068 28.475923 17.344872 -0.186350 0.722091 -0.666227 1.5197831540281055e-38
-8.696641 28.626174 17.166831 -0.204084 0.717280 -0.666227 1.5197831540281055e-38
-8.730139 29.107984 16.736210 -0.221694 0.712035 -0.666227 1.5197831540281055e-38
-8.895205 28.215904 17.423930 -0.239169 0.706356 -0.666227 1.5197831540281055e-38
-10.695894 28.340338 17.332029 -0.256500 0.700250 -0.666227 1.5197831540281055e-38
-10.977632 27.198486 17.341727 -0.273674 0.693717 -0.666227 1.5197831540281055e-38
-11.386538 27.430379 17.671847 -0.290682 0.686764 -0.666227 1.5197831540281055e-38
-11.974445 27.013799 17.798122 -0.307514 0.679394 -0.666227 1.5197831540281055e-38
-12.967277 26.909400 17.349282 -0.324159 0.671612 -0.666227 1.5197831540281055e-38
-13.618742 25.777457 17.263936 -0.340608 0.663421 -0.666227 1.5197831540281055e-38
-14.699111 26.710290 17.795413 -0.356849 0.654828 -0.666227 1.5197831540281055e-38
-14.676060 25.790822 17.017183 -0.372874 0.645837 -0.666227 1.5197831540281055e-38
-15.761566 26.069427 17.111928 -0.388673 0.636455 -0.666227 1.5197831540281055e-38
-16.894172 25.404483 17.769739 -0.404236 0.626686 -0.666227 1.5197831540281055e-38
-16.303102 25.000502 17.680044 -0.419553 0.616536 -0.666227 1.5197831540281055e-38
-17.388161 23.644684 17.327952 -0.434615 0.606012 -0.666227 1.5197831540281055e-38
-2.466907 30.958470 18.302497 -0.057573 0.717412 -0.694266 1.5197831540281055e-38
-2.960842 30.905846 18.543244 -0.075231 0.715776 -0.694266 1.5197831540281055e-38
-4.382094 30.773316 17.988737 -0.092843 0.713705 -0.694266 1.5197831540281055e-38
-4.931747 30.477797 18.642800 -0.110399 0.711201 -0.694266 1.5197831540281055e-38
-4.946910 30.691789 18.991222 -0.127888 0.708265 -0.694266 1.5197831540281055e-38
-6.067569 30.712695 19.113839 -0.145299 0.704899 -0.694266 1.5197831540281055e-38
-7.227150 29.972569 18.757344 -0.162621 0.701106 -0.694266 1.5197831540281055e-38
-7.750915 30.095987 18.482101 -0.179845 0.696886 -0.694266 1.5197831540281055e-38
-8.666196 30.316059 18.226743 -0.196960 0.692244 -0.694266 1.5197831540281055e-38
-9.013755 29.768937 18.082997 -0.213956 0.687181 -0.694266 1.5197831540281055e-38
-10.195664 29.176724 18.726076 -0.230821 0.681701 -0.694266 1.5197831540281055e-38
-10.777260 29.095882 18.119407 -0.247546 0.675807 -0.694266 1.5197831540281055e-38
-10.683619 28.871267 18.706401 -0.264121 0.669503 -0.694266 1.5197831540281055e-38
-12.250913 28.364954 19.130506 -0.280536 0.662793 -0.694266 1.5197831540281055e-38
-13.363736 28.337832 18.193250 -0.296781 0.655680 -0.694266 1.5197831540281055e-38
-13.602450 27.739151 18.260908 -0.312845 0.648169 -0.694266 1.5197831540281055e-38
-14.154364 26.819556 18.462054 -0.328719 0.640265 -0.694266 1.5197831540281055e-38
-14.867530 26.824818 19.010667 -0.344394 0.631971 -0.694266 1.5197831540281055e-38
-15.685217 26.787458 18.379035 -0.359859 0.623295 -0.694266 1.5197831540281055e-38
-16.188373 26.860944 19.298606 -0.375106 0.614239 -0.694266 1.5197831540281055e-38
-16.587421 26.388627 19.071629 -0.390126 0.604811 -0.694266 1.5197831540281055e-38
-17.373455 26.111210 18.794421 -0.404908 0.595016 -0.694266 1.5197831540281055e-38
-3.769855 31.683936 19.568327 -0.073035 0.694886 -0.715402 1.5197831540281055e-38
-4.112214 32.043418 19.412305 -0.090133 0.692875 -0.715402 1.5197831540281055e-38
-5.207949 31.620002 19.739590 -0.107177 0.690444 -0.715402 1.5197831540281055e-38
-5.134246 31.451959 19.500727 -0.124155 0.687594 -0.715402 1.5197831540281055e-38
-6.849651 31.771782 19.781412 -0.141058 0.684327 -0.715402 1.5197831540281055e-38
-7.554679 31.302311 19.556361 -0.157875 0.680644 -0.715402 1.5197831540281055e-38
-7.968723 32.027424 19.959074 -0.174597 0.676547 -0.715402 1.5197831540281055e-38
-8.852174 30.814625 19.390794 -0.191212 0.672040 -0.715402 1.5197831540281055e-38
-9.365601 30.991102 19.653984 -0.207711 0.667125 -0.715402 1.5197831540281055e-38
-9.977318 30.548115 20.026243 -0.224085 0.661805 -0.715402 1.5197831540281055e-38
-11.001792 30.224588 19.507349 -0.240322 0.656084 -0.715402 1.5197831540281055e-38
-11.876911 30.247908 19.641374 -0.256413 0.649964 -0.715402 1.5197831540281055e-38
-12.436743 29.369826 20.027832 -0.272349 0.643449 -0.715402 1.5197831540281055e-38
-13.202569 29.015340 19.726610 -0.288119 0.636544 -0.715402 1.5197831540281055e-38
-13.736732 28.661755 19.472529 -0.303714 0.629252 -0.715402 1.5197831540281055e-38
-14.748217 29.325327 19.592041 -0.319125 0.621578 -0.715402 1.5197831540281055e-38
-15.281048 28.391816 19.616958 -0.334342 0.613527 -0.715402 1.5197831540281055e-38
-16.074186 27.790684 19.686473 -0.349357 0.605103 -0.715402 1.5197831540281055e-38
-17.304015 27.512009 20.063542 -0.364159 0.596313 -0.715402 1.5197831540281055e-38
-17.461311 27.424091 19.967913 -0.378740 0.587160 -0.715402 1.5197831540281055e-38
-4.068633 33.323702 21.504689 -0.088065 0.676972 -0.730721 1.5197831540281055e-38
-4.832220 33.463173 20.907366 -0.104717 0.674597 -0.730721 1.5197831540281055e-38
-5.989317 32.916471 20.579160 -0.121305 0.671812 -0.730721 1.5197831540281055e-38
-6.329973 33.074802 20.927420 -0.137820 0.668620 -0.730721 1.5197831540281055e-38
-7.187440 32.485271 20.479487 -0.154252 0.665021 -0.730721 1.5197831540281055e-38
-8.079319 32.094172 20.972195 -0.170589 0.661019 -0.730721 1.5197831540281055e-38
-9.117318 32.377022 21.285448 -0.186823 0.656616 -0.730721 1.5197831540281055e-38
-9.796951 32.190406 20.793702 -0.202944 0.651813 -0.730721 1.5197831540281055e-38
-10.668932 31.318387 21.499569 -0.218941 0.646616 -0.730721 1.5197831540281055e-38
-11.957442 31.391446 20.635266 -0.234806 0.641025 -0.730721 1.5197831540281055e-38
-12.528186 31.205612 20.872300 -0.250528 0.635046 -0.730721 1.5197831540281055e-38
-12.730854 30.956917 20.892055 -0.266098 0.628680 -0.730721 1.5197831540281055e-38
-13.871256 30.923268 21.303589 -0.281506 0.621934 -0.730721 1.5197831540281055e-38
-14.921469 30.003121 21.173365 -0.296743 0.614809 -0.730721 1.5197831540281055e-38
-15.213634 29.523823 21.255666 -0.311801 0.607312 -0.730721 1.5197831540281055e-38
-16.317411 29.843591 21.189763 -0.326669 0.599445 -0.730721 1.5197831540281055e-38
-17.110487 28.889345 20.866990 -0.341338 0.591215 -0.730721 1.5197831540281055e-38
-17.433526 28.564865 20.687281 -0.355801 0.582626 -0.730721 1.5197831540281055e-38
-6.624759 35.043000 21.891899 -0.119318 0.660805 -0.741012 1.5197831540281055e-38
-7.116132 33.858340 21.957241 -0.135562 0.657665 -0.741012 1.5197831540281055e-38
-8.018612 34.176501 22.655201 -0.151724 0.654126 -0.741012 1.5197831540281055e-38
-8.833745 33.478080 22.411633 -0.167794 0.650189 -0.741012 1.5197831540281055e-38
-9.395139 33.628195 22.350763 -0.183762 0.645858 -0.741012 1.5197831540281055e-38
-10.405137 33.340115 22.213546 -0.199619 0.641134 -0.741012 1.5197831540281055e-38
-10.867835 33.713572 22.321937 -0.215354 0.636021 -0.741012 1.5197831540281055e-38
-12.001629 32.836096 22.070665 -0.230959 0.630523 -0.741012 1.5197831540281055e-38
-12.573628 32.586105 22.141900 -0.246423 0.624641 -0.741012 1.5197831540281055e-38
-13.328193 32.134162 21.977024 -0.261738 0.618380 -0.741012 1.5197831540281055e-38
-14.280767 31.854770 22.556167 -0.276894 0.611744 -0.741012 1.5197831540281055e-38
-14.915486 31.386816 22.126415 -0.291881 0.604736 -0.741012 1.5197831540281055e-38
-15.933922 31.145413 22.413168 -0.306692 0.597361 -0.741012 1.5197831540281055e-38
-16.603843 30.607187 22.567086 -0.321316 0.589624 -0.741012 1.5197831540281055e-38
-17.646243 30.957633 22.496962 -0.335746 0.581529 -0.741012 1.5197831540281055e-38
-18.521295 29.830435 22.499846 -0.349971 0.573080 -0.741012 1.5197831540281055e-38
-7.511063 35.385414 23.350206 -0.134261 0.651351 -0.746804 1.5197831540281055e-38
-8.468886 34.950727 23.372427 -0.150268 0.647845 -0.746804 1.5197831540281055e-38
-9.027582 35.465127 23.593760 -0.166183 0.643947 -0.746804 1.5197831540281055e-38
-9.574847 34.438632 23.375264 -0.181998 0.639657 -0.746804 1.5197831540281055e-38
-10.567900 34.729932 23.246802 -0.197702 0.634979 -0.746804 1.5197831540281055e-38
-11.350829 34.191461 23.271946 -0.213287 0.629915 -0.746804 1.5197831540281055e-38
-12.327752 34.055707 23.348281 -0.228741 0.624469 -0.746804 1.5197831540281055e-38
-13.476111 33.415257 23.386430 -0.244057 0.618644 -0.746804 1.5197831540281055e-38
-13.806181 33.471419 23.792733 -0.259225 0.612443 -0.746804 1.5197831540281055e-38
-14.799915 32.855963 23.010412 -0.274235 0.605871 -0.746804 1.5197831540281055e-38
-16.042265 32.459790 23.280580 -0.289079 0.598930 -0.746804 1.5197831540281055e-38
-16.269805 32.554033 24.168719 -0.303748 0.591626 -0.746804 1.5197831540281055e-38
-17.583074 32.324201 23.982535 -0.318231 0.583963 -0.746804 1.5197831540281055e-38
-18.202948 31.549809 23.877375 -0.332522 0.575945 -0.746804 1.5197831540281055e-38
-8.700568 36.458137 24.745308 -0.149864 0.646106 -0.748390 1.5197831540281055e-38
-9.596869 36.304056 24.740808 -0.165737 0.642218 -0.748390 1.5197831540281055e-38
-10.002023 36.664094 24.786598 -0.181509 0.637940 -0.748390 1.5197831540281055e-38
-11.127943 35.902998 24.886643 -0.197172 0.633274 -0.748390 1.5197831540281055e-38
-11.961054 36.068963 24.175657 -0.212714 0.628224 -0.748390 1.5197831540281055e-38
-13.023650 35.464563 24.734383 -0.228127 0.622793 -0.748390 1.5197831540281055e-38
-14.102370 34.643126 24.984165 -0.243402 0.616983 -0.748390 1.5197831540281055e-38
-14.906623 34.155326 24.999240 -0.258529 0.610799 -0.748390 1.5197831540281055e-38
-15.391866 34.274840 24.467903 -0.273499 0.604244 -0.748390 1.5197831540281055e-38
-16.404180 34.281255 24.257858 -0.288303 0.597322 -0.748390 1.5197831540281055e-38
-17.669990 33.314636 24.734275 -0.302932 0.590038 -0.748390 1.5197831540281055e-38
-18.169890 33.261857 25.068918 -0.317377 0.582395 -0.748390 1.5197831540281055e-38
-10.799409 37.782879 26.130817 -0.182290 0.640684 -0.745851 1.5197831540281055e-38
-11.752575 36.503603 25.776927 -0.198020 0.635998 -0.745851 1.5197831540281055e-38
-12.669357 36.717547 25.855429 -0.213629 0.630927 -0.745851 1.5197831540281055e-38
-13.187113 36.658689 26.276290 -0.229109 0.625472 -0.745851 1.5197831540281055e-38
-14.783965 36.236296 25.397675 -0.244449 0.619637 -0.745851 1.5197831540281055e-38
-15.350101 35.650000 26.363757 -0.259641 0.613427 -0.745851 1.5197831540281055e-38
-15.980647 35.882195 25.850577 -0.274676 0.606844 -0.745851 1.5197831540281055e-38
-17.281133 34.854727 26.059013 -0.289543 0.599892 -0.745851 1.5197831540281055e-38
-17.293520 34.865009 25.866951 -0.304235 0.592576 -0.745851 1.5197831540281055e-38
-12.254423 39.311837 27.395112 -0.200258 0.643186 -0.739059 1.5197831540281055e-38
-12.472496 38.185511 26.509446 -0.216043 0.638057 -0.739059 1.5197831540281055e-38
-14.236814 38.077893 27.287779 -0.231698 0.632541 -0.739059 1.5197831540281055e-38
-14.838316 37.445625 27.498410 -0.247212 0.626640 -0.739059 1.5197831540281055e-38
-15.907573 37.320128 27.275093 -0.262576 0.620359 -0.739059 1.5197831540281055e-38
-16.780135 36.563878 27.088296 -0.277780 0.613702 -0.739059 1.5197831540281055e-38
-17.009792 36.740126 27.522611 -0.292816 0.606672 -0.739059 1.5197831540281055e-38
-13.480336 39.463309 28.885498 -0.219985 0.649698 -0.727667 1.5197831540281055e-38
-14.068095 39.256940 27.985304 -0.235925 0.644081 -0.727667 1.5197831540281055e-38
-15.569105 38.531451 28.464544 -0.251722 0.638073 -0.727667 1.5197831540281055e-38
-16.430507 38.939177 27.982177 -0.267366 0.631677 -0.727667 1.5197831540281055e-38
-17.568980 38.118972 28.610039 -0.282848 0.624898 -0.727667 1.5197831540281055e-38
-18.928838 37.089140 28.374527 -0.298158 0.617740 -0.727667 1.5197831540281055e-38
-15.985070 39.745220 29.918959 -0.258023 0.654045 -0.711090 1.5197831540281055e-38
-16.365116 39.988777 29.694636 -0.274059 0.647490 -0.711090 1.5197831540281055e-38
-17.531335 39.438144 29.735404 -0.289928 0.640541 -0.711090 1.5197831540281055e-38
-17.485835 40.366043 30.775963 -0.282696 0.667897 -0.688474 1.5197831540281055e-38
