# .PCD v0.7 - Point Cloud Data file format
VERSION 0.7
FIELDS x y z normal_x normal_y normal_z rgb
SIZE 4 4 4 4 4 4 4
TYPE F F F F F F F
COUNT 1 1 1 1 1 1 1
WIDTH 238
HEIGHT 1
VIEWPOINT 0 0 0 1 0 0 0
POINTS 238
DATA ascii
-7.534416 50.415274 66.164943 -0.153392 0.988165 0.000000 1.7962614429870884e-38
-8.971963 50.623727 65.469729 -0.177691 0.984086 0.000000 1.7962614429870884e-38
-10.596800 50.027327 65.363297 -0.201882 0.979410 0.000000 1.7962614429870884e-38
-12.143232 50.072032 65.576833 -0.225951 0.974139 0.000000 1.7962614429870884e-38
-5.406661 50.950934 66.491564 -0.104528 0.994522 0.000000 1.7962614429870884e-38
-6.596467 51.443162 66.759249 -0.128999 0.991645 0.000000 1.7962614429870884e-38
-8.311754 51.162042 67.181260 -0.153392 0.988165 0.000000 1.7962614429870884e-38
-8.690930 50.499436 66.569057 -0.177691 0.984086 0.000000 1.7962614429870884e-38
-10.630316 50.614425 67.285887 -0.201882 0.979410 0.000000 1.7962614429870884e-38
-11.873950 49.245463 66.798788 -0.225951 0.974139 0.000000 1.7962614429870884e-38
-4.255606 51.494015 68.795094 -0.079994 0.996795 0.000000 1.7962614429870884e-38
-5.184493 51.688235 68.194505 -0.104528 0.994522 0.000000 1.7962614429870884e-38
-6.629000 51.294216 68.184430 -0.128999 0.991645 0.000000 1.7962614429870884e-38
-7.651145 50.974793 67.648742 -0.153392 0.988165 0.000000 1.7962614429870884e-38
-9.603478 50.885003 67.703379 -0.177691 0.984086 0.000000 1.7962614429870884e-38
-10.204594 50.907071 67.975039 -0.201882 0.979410 0.000000 1.7962614429870884e-38
-11.288284 50.311337 68.049013 -0.225951 0.974139 0.000000 1.7962614429870884e-38
-1.313047 51.639661 69.703703 -0.030795 0.999526 0.000000 1.7962614429870884e-38
-2.525892 51.871235 68.980265 -0.055411 0.998464 0.000000 1.7962614429870884e-38
-3.903983 51.657725 69.293155 -0.079994 0.996795 0.000000 1.7962614429870884e-38
-5.392837 51.511113 69.018663 -0.104528 0.994522 0.000000 1.7962614429870884e-38
-7.137275 50.854588 69.368153 -0.128999 0.991645 0.000000 1.7962614429870884e-38
-8.673435 51.408729 69.430200 -0.153392 0.988165 0.000000 1.7962614429870884e-38
-9.295910 51.287505 69.200329 -0.177691 0.984086 0.000000 1.7962614429870884e-38
-10.332734 50.149830 68.605804 -0.201882 0.979410 0.000000 1.7962614429870884e-38
-11.775765 50.591072 69.563429 -0.225951 0.974139 0.000000 1.7962614429870884e-38
-0.297341 52.162232 70.536919 -0.006160 0.999981 0.000000 1.7962614429870884e-38
-1.498482 52.489561 70.449947 -0.030795 0.999526 0.000000 1.7962614429870884e-38
-2.641401 52.114163 70.544060 -0.055411 0.998464 0.000000 1.7962614429870884e-38
-3.934488 51.641572 70.224742 -0.079994 0.996795 0.000000 1.7962614429870884e-38
-5.309667 51.262244 70.668926 -0.104528 0.994522 0.000000 1.7962614429870884e-38
-7.051405 52.059305 70.396584 -0.128999 0.991645 0.000000 1.7962614429870884e-38
-7.546337 51.359626 70.439402 -0.153392 0.988165 0.000000 1.7962614429870884e-38
-8.987036 51.298489 70.495454 -0.177691 0.984086 0.000000 1.7962614429870884e-38
-10.626934 50.848873 71.222725 -0.201882 0.979410 0.000000 1.7962614429870884e-38
-12.260805 50.332172 70.868529 -0.225951 0.974139 0.000000 1.7962614429870884e-38
2.000744 52.563078 71.741855 0.043107 0.999070 0.000000 1.7962614429870884e-38
0.550787 52.103302 71.424030 0.018479 0.999829 0.000000 1.7962614429870884e-38
-0.297643 52.032307 71.481467 -0.006160 0.999981 0.000000 1.7962614429870884e-38
-1.522040 52.259765 72.115324 -0.030795 0.999526 0.000000 1.7962614429870884e-38
-2.546979 52.209476 71.902472 -0.055411 0.998464 0.000000 1.7962614429870884e-38
-4.603668 52.312675 71.875788 -0.079994 0.996795 0.000000 1.7962614429870884e-38
-5.177623 51.893159 71.663323 -0.104528 0.994522 0.000000 1.7962614429870884e-38
-6.830347 52.265008 71.837454 -0.128999 0.991645 0.000000 1.7962614429870884e-38
-8.466781 51.846083 71.613588 -0.153392 0.988165 0.000000 1.7962614429870884e-38
-8.962777 51.601172 72.124711 -0.177691 0.984086 0.000000 1.7962614429870884e-38
-10.241013 51.476306 72.092920 -0.201882 0.979410 0.000000 1.7962614429870884e-38
3.406941 52.675234 72.987032 0.067708 0.997705 0.000000 1.7962614429870884e-38
2.512295 52.723980 73.413992 0.043107 0.999070 0.000000 1.7962614429870884e-38
1.096524 52.039387 72.893629 0.018479 0.999829 0.000000 1.7962614429870884e-38
-0.330968 52.504372 73.385209 -0.006160 0.999981 0.000000 1.7962614429870884e-38
-1.275923 52.433268 73.718719 -0.030795 0.999526 0.000000 1.7962614429870884e-38
-3.013844 52.340673 72.661971 -0.055411 0.998464 0.000000 1.7962614429870884e-38
-4.667579 51.979370 73.293754 -0.079994 0.996795 0.000000 1.7962614429870884e-38
-5.265465 51.948969 73.019654 -0.104528 0.994522 0.000000 1.7962614429870884e-38
-6.530730 51.452965 73.521354 -0.128999 0.991645 0.000000 1.7962614429870884e-38
-7.737553 52.123465 73.350315 -0.153392 0.988165 0.000000 1.7962614429870884e-38
-9.941529 51.600578 73.367202 -0.177691 0.984086 0.000000 1.7962614429870884e-38
-10.601267 51.643425 73.424143 -0.201882 0.979410 0.000000 1.7962614429870884e-38
6.374022 51.792549 74.621288 0.116773 0.993159 0.000000 1.7962614429870884e-38
5.522000 52.553122 73.977481 0.092268 0.995734 0.000000 1.7962614429870884e-38
3.919165 52.691666 74.069015 0.067708 0.997705 0.000000 1.7962614429870884e-38
1.981409 52.558523 74.284579 0.043107 0.999070 0.000000 1.7962614429870884e-38
1.243031 52.805542 74.363039 0.018479 0.999829 0.000000 1.7962614429870884e-38
-0.424932 52.984765 74.164788 -0.006160 0.999981 0.000000 1.7962614429870884e-38
-1.072404 52.508446 74.345302 -0.030795 0.999526 0.000000 1.7962614429870884e-38
-2.264991 52.960860 74.450429 -0.055411 0.998464 0.000000 1.7962614429870884e-38
-4.128990 52.576157 74.174644 -0.079994 0.996795 0.000000 1.7962614429870884e-38
-5.680253 51.979712 74.418989 -0.104528 0.994522 0.000000 1.7962614429870884e-38
-7.263445 52.484134 74.134029 -0.128999 0.991645 0.000000 1.7962614429870884e-38
-8.374875 52.526966 73.792075 -0.153392 0.988165 0.000000 1.7962614429870884e-38
-9.569359 51.718375 74.271676 -0.177691 0.984086 0.000000 1.7962614429870884e-38
-10.828919 52.082093 73.815416 -0.201882 0.979410 0.000000 1.7962614429870884e-38
7.714905 52.469037 75.178581 0.141206 0.989980 0.000000 1.7962614429870884e-38
6.130963 52.422184 75.028751 0.116773 0.993159 0.000000 1.7962614429870884e-38
4.247309 52.479036 75.454453 0.092268 0.995734 0.000000 1.7962614429870884e-38
3.921210 52.611091 75.521402 0.067708 0.997705 0.000000 1.7962614429870884e-38
1.772309 52.664726 74.729719 0.043107 0.999070 0.000000 1.7962614429870884e-38
1.648770 53.004424 75.513841 0.018479 0.999829 0.000000 1.7962614429870884e-38
-0.165628 53.712771 75.333335 -0.006160 0.999981 0.000000 1.7962614429870884e-38
-1.924956 53.529008 75.094652 -0.030795 0.999526 0.000000 1.7962614429870884e-38
-2.544825 52.850564 75.593922 -0.055411 0.998464 0.000000 1.7962614429870884e-38
-4.667035 53.562441 75.349248 -0.079994 0.996795 0.000000 1.7962614429870884e-38
-5.745613 52.828492 75.270428 -0.104528 0.994522 0.000000 1.7962614429870884e-38
-6.703695 52.133326 75.507600 -0.128999 0.991645 0.000000 1.7962614429870884e-38
-8.303662 52.092387 75.181520 -0.153392 0.988165 0.000000 1.7962614429870884e-38
-9.143701 52.006256 75.408752 -0.177691 0.984086 0.000000 1.7962614429870884e-38
-10.562375 52.205779 75.186941 -0.201882 0.979410 0.000000 1.7962614429870884e-38
10.277099 52.054522 76.648568 0.189801 0.981823 0.000000 1.7962614429870884e-38
8.967419 52.699507 76.331016 0.165554 0.986201 0.000000 1.7962614429870884e-38
6.842260 52.608997 76.444578 0.141206 0.989980 0.000000 1.7962614429870884e-38
6.229351 52.785374 76.408408 0.116773 0.993159 0.000000 1.7962614429870884e-38
5.532498 52.954013 76.528904 0.092268 0.995734 0.000000 1.7962614429870884e-38
3.630854 53.212686 76.511269 0.067708 0.997705 0.000000 1.7962614429870884e-38
2.988299 52.669548 76.265113 0.043107 0.999070 0.000000 1.7962614429870884e-38
0.502829 53.167839 76.842917 0.018479 0.999829 0.000000 1.7962614429870884e-38
-0.426697 53.315735 76.837998 -0.006160 0.999981 0.000000 1.7962614429870884e-38
-1.745779 53.278751 76.642097 -0.030795 0.999526 0.000000 1.7962614429870884e-38
-3.069254 52.944499 76.770944 -0.055411 0.998464 0.000000 1.7962614429870884e-38
-3.888417 52.643830 76.556941 -0.079994 0.996795 0.000000 1.7962614429870884e-38
-5.509580 53.411507 76.830538 -0.104528 0.994522 0.000000 1.7962614429870884e-38
-7.103442 52.454282 76.996559 -0.128999 0.991645 0.000000 1.7962614429870884e-38
-8.250806 52.177168 77.005172 -0.153392 0.988165 0.000000 1.7962614429870884e-38
-9.356395 51.971286 76.298933 -0.177691 0.984086 0.000000 1.7962614429870884e-38
-11.385540 51.894137 76.792405 -0.201882 0.979410 0.000000 1.7962614429870884e-38
11.325588 52.157326 78.008373 0.213933 0.976848 0.000000 1.7962614429870884e-38
10.310272 52.303791 77.878017 0.189801 0.981823 0.000000 1.7962614429870884e-38
9.246007 52.573728 77.765760 0.165554 0.986201 0.000000 1.7962614429870884e-38
7.513916 52.882550 77.475881 0.141206 0.989980 0.000000 1.7962614429870884e-38
6.101870 53.154805 78.539494 0.116773 0.993159 0.000000 1.7962614429870884e-38
4.767921 53.395797 77.991906 0.092268 0.995734 0.000000 1.7962614429870884e-38
3.963212 53.085918 78.269100 0.067708 0.997705 0.000000 1.7962614429870884e-38
2.722257 53.777855 78.366367 0.043107 0.999070 0.000000 1.7962614429870884e-38
1.043925 53.560469 77.812271 0.018479 0.999829 0.000000 1.7962614429870884e-38
-0.995784 53.469852 77.889846 -0.006160 0.999981 0.000000 1.7962614429870884e-38
-1.355355 53.627372 77.619494 -0.030795 0.999526 0.000000 1.7962614429870884e-38
-2.256899 53.428509 77.552894 -0.055411 0.998464 0.000000 1.7962614429870884e-38
-4.614459 52.569665 78.167238 -0.079994 0.996795 0.000000 1.7962614429870884e-38
-5.739263 52.849488 77.744954 -0.104528 0.994522 0.000000 1.7962614429870884e-38
-6.977981 53.120676 77.444805 -0.128999 0.991645 0.000000 1.7962614429870884e-38
-8.511150 52.901719 77.759921 -0.153392 0.988165 0.000000 1.7962614429870884e-38
-9.312965 52.395168 78.410588 -0.177691 0.984086 0.000000 1.7962614429870884e-38
-10.716729 52.662586 78.093473 -0.201882 0.979410 0.000000 1.7962614429870884e-38
14.546828 51.729325 79.208863 0.261793 0.965124 0.000000 1.7962614429870884e-38
13.008716 52.332418 79.065435 0.237935 0.971281 0.000000 1.7962614429870884e-38
11.782504 52.233097 79.480131 0.213933 0.976848 0.000000 1.7962614429870884e-38
9.804883 52.542400 79.242037 0.189801 0.981823 0.000000 1.7962614429870884e-38
8.983398 52.616050 78.680630 0.165554 0.986201 0.000000 1.7962614429870884e-38
7.707998 53.009735 79.058033 0.141206 0.989980 0.000000 1.7962614429870884e-38
6.756376 53.154235 79.020179 0.116773 0.993159 0.000000 1.7962614429870884e-38
4.406365 53.055368 79.438003 0.092268 0.995734 0.000000 1.7962614429870884e-38
3.412124 53.674425 78.787507 0.067708 0.997705 0.000000 1.7962614429870884e-38
2.050135 53.290651 79.318287 0.043107 0.999070 0.000000 1.7962614429870884e-38
0.927061 53.266550 79.389603 0.018479 0.999829 0.000000 1.7962614429870884e-38
-0.181938 53.710007 79.263831 -0.006160 0.999981 0.000000 1.7962614429870884e-38
-1.907079 53.961043 79.144946 -0.030795 0.999526 0.000000 1.7962614429870884e-38
-2.890145 53.641406 78.891788 -0.055411 0.998464 0.000000 1.7962614429870884e-38
-3.719486 53.428976 79.185277 -0.079994 0.996795 0.000000 1.7962614429870884e-38
-5.727411 53.660211 79.532909 -0.104528 0.994522 0.000000 1.7962614429870884e-38
-6.868017 52.721228 79.125919 -0.128999 0.991645 0.000000 1.7962614429870884e-38
-8.242654 52.838965 78.880259 -0.153392 0.988165 0.000000 1.7962614429870884e-38
-9.992088 53.197124 79.397737 -0.177691 0.984086 0.000000 1.7962614429870884e-38
15.487833 51.822584 80.396139 0.285492 0.958381 0.000000 1.7962614429870884e-38
14.406579 52.030828 80.255310 0.261793 0.965124 0.000000 1.7962614429870884e-38
13.029288 52.011731 80.875436 0.237935 0.971281 0.000000 1.7962614429870884e-38
11.816295 52.486068 80.356880 0.213933 0.976848 0.000000 1.7962614429870884e-38
10.254785 52.789735 80.808071 0.189801 0.981823 0.000000 1.7962614429870884e-38
8.748464 52.626465 80.334776 0.165554 0.986201 0.000000 1.7962614429870884e-38
7.825464 53.585039 80.446515 0.141206 0.989980 0.000000 1.7962614429870884e-38
6.094542 53.438476 80.215823 0.116773 0.993159 0.000000 1.7962614429870884e-38
4.274292 53.334700 80.565489 0.092268 0.995734 0.000000 1.7962614429870884e-38
3.562839 53.603829 80.744421 0.067708 0.997705 0.000000 1.7962614429870884e-38
2.030796 53.510011 80.511653 0.043107 0.999070 0.000000 1.7962614429870884e-38
0.780980 53.595663 80.877142 0.018479 0.999829 0.000000 1.7962614429870884e-38
-0.653140 53.599130 80.544039 -0.006160 0.999981 0.000000 1.7962614429870884e-38
-1.672058 53.382336 80.947576 -0.030795 0.999526 0.000000 1.7962614429870884e-38
-3.220520 53.663554 80.543418 -0.055411 0.998464 0.000000 1.7962614429870884e-38
-3.656574 53.524504 80.136548 -0.079994 0.996795 0.000000 1.7962614429870884e-38
-5.476395 54.151512 80.453158 -0.104528 0.994522 0.000000 1.7962614429870884e-38
-7.028366 53.487609 79.789760 -0.128999 0.991645 0.000000 1.7962614429870884e-38
-8.440030 52.635375 80.304369 -0.153392 0.988165 0.000000 1.7962614429870884e-38
-9.717206 52.172170 80.466145 -0.177691 0.984086 0.000000 1.7962614429870884e-38
13.966752 52.120455 81.696975 0.261793 0.965124 0.000000 1.7962614429870884e-38
12.782147 52.176154 82.310715 0.237935 0.971281 0.000000 1.7962614429870884e-38
11.374942 52.582140 81.616665 0.213933 0.976848 0.000000 1.7962614429870884e-38
10.312340 52.839372 81.935531 0.189801 0.981823 0.000000 1.7962614429870884e-38
8.990181 53.287399 81.816914 0.165554 0.986201 0.000000 1.7962614429870884e-38
7.374351 53.310053 81.642870 0.141206 0.989980 0.000000 1.7962614429870884e-38
6.587844 53.584121 81.554355 0.116773 0.993159 0.000000 1.7962614429870884e-38
4.352451 53.588377 81.154321 0.092268 0.995734 0.000000 1.7962614429870884e-38
3.237613 54.012651 82.645141 0.067708 0.997705 0.000000 1.7962614429870884e-38
2.387183 54.076509 81.421333 0.043107 0.999070 0.000000 1.7962614429870884e-38
0.683838 54.634519 81.407873 0.018479 0.999829 0.000000 1.7962614429870884e-38
-0.932767 54.099544 81.520555 -0.006160 0.999981 0.000000 1.7962614429870884e-38
-1.485005 54.471564 81.760183 -0.030795 0.999526 0.000000 1.7962614429870884e-38
-2.925635 54.141780 82.460896 -0.055411 0.998464 0.000000 1.7962614429870884e-38
-3.638290 53.758974 81.934425 -0.079994 0.996795 0.000000 1.7962614429870884e-38
-5.111523 53.938966 81.629585 -0.104528 0.994522 0.000000 1.7962614429870884e-38
-7.118778 53.605077 81.307538 -0.128999 0.991645 0.000000 1.7962614429870884e-38
-8.018676 53.804796 81.530401 -0.153392 0.988165 0.000000 1.7962614429870884e-38
-9.735254 52.850296 81.789567 -0.177691 0.984086 0.000000 1.7962614429870884e-38
14.446151 52.391505 82.553272 0.261793 0.965124 0.000000 1.7962614429870884e-38
12.667046 52.557229 83.062806 0.237935 0.971281 0.000000 1.7962614429870884e-38
11.845031 53.035703 83.097247 0.213933 0.976848 0.000000 1.7962614429870884e-38
9.815361 53.333232 82.867132 0.189801 0.981823 0.000000 1.7962614429870884e-38
9.126501 53.707030 82.571269 0.165554 0.986201 0.000000 1.7962614429870884e-38
7.624564 54.086651 82.977785 0.141206 0.989980 0.000000 1.7962614429870884e-38
6.302471 53.493315 83.049447 0.116773 0.993159 0.000000 1.7962614429870884e-38
4.586605 53.944823 82.739231 0.092268 0.995734 0.000000 1.7962614429870884e-38
3.789813 53.925623 82.788061 0.067708 0.997705 0.000000 1.7962614429870884e-38
2.064441 54.104740 82.951018 0.043107 0.999070 0.000000 1.7962614429870884e-38
0.897889 54.126362 82.935957 0.018479 0.999829 0.000000 1.7962614429870884e-38
-0.033723 54.452032 82.498464 -0.006160 0.999981 0.000000 1.7962614429870884e-38
-1.439789 54.614313 83.098305 -0.030795 0.999526 0.000000 1.7962614429870884e-38
-3.728999 54.225786 83.301643 -0.055411 0.998464 0.000000 1.7962614429870884e-38
-4.472648 54.925933 82.232519 -0.079994 0.996795 0.000000 1.7962614429870884e-38
-5.624701 54.149618 82.938223 -0.104528 0.994522 0.000000 1.7962614429870884e-38
-6.949386 53.464532 82.714002 -0.128999 0.991645 0.000000 1.7962614429870884e-38
13.250530 52.805572 84.017605 0.237935 0.971281 0.000000 1.7962614429870884e-38
11.610637 53.409262 84.607491 0.213933 0.976848 0.000000 1.7962614429870884e-38
10.192389 53.358914 84.132984 0.189801 0.981823 0.000000 1.7962614429870884e-38
8.931192 53.502745 84.086014 0.165554 0.986201 0.000000 1.7962614429870884e-38
7.448371 54.100332 84.565866 0.141206 0.989980 0.000000 1.7962614429870884e-38
6.270521 54.554578 84.091331 0.116773 0.993159 0.000000 1.7962614429870884e-38
4.812756 54.401740 83.846451 0.092268 0.995734 0.000000 1.7962614429870884e-38
3.872396 54.379292 84.002609 0.067708 0.997705 0.000000 1.7962614429870884e-38
2.193384 54.115594 84.433190 0.043107 0.999070 0.000000 1.7962614429870884e-38
0.938952 54.512090 84.120410 0.018479 0.999829 0.000000 1.7962614429870884e-38
-0.398906 54.524902 84.277311 -0.006160 0.999981 0.000000 1.7962614429870884e-38
-1.634561 54.345535 83.797714 -0.030795 0.999526 0.000000 1.7962614429870884e-38
-3.196993 54.252569 84.128526 -0.055411 0.998464 0.000000 1.7962614429870884e-38
-4.875657 54.439433 84.220038 -0.079994 0.996795 0.000000 1.7962614429870884e-38
11.560798 53.261374 85.383754 0.213933 0.976848 0.000000 1.7962614429870884e-38
10.314433 53.347266 85.356561 0.189801 0.981823 0.000000 1.7962614429870884e-38
8.601189 53.977299 85.428263 0.165554 0.986201 0.000000 1.7962614429870884e-38
7.931448 53.925362 85.582313 0.141206 0.989980 0.000000 1.7962614429870884e-38
6.507524 54.286284 85.953956 0.116773 0.993159 0.000000 1.7962614429870884e-38
5.181101 54.249546 85.821709 0.092268 0.995734 0.000000 1.7962614429870884e-38
3.851391 55.030016 84.804334 0.067708 0.997705 0.000000 1.7962614429870884e-38
2.264372 54.481508 84.794306 0.043107 0.999070 0.000000 1.7962614429870884e-38
1.059118 54.500869 84.761151 0.018479 0.999829 0.000000 1.7962614429870884e-38
-0.566343 55.036593 85.633444 -0.006160 0.999981 0.000000 1.7962614429870884e-38
-1.895596 54.373544 85.619078 -0.030795 0.999526 0.000000 1.7962614429870884e-38
10.073672 53.528539 86.756302 0.189801 0.981823 0.000000 1.7962614429870884e-38
9.226155 53.968606 86.992671 0.165554 0.986201 0.000000 1.7962614429870884e-38
8.187615 54.705857 87.043700 0.141206 0.989980 0.000000 1.7962614429870884e-38
6.395627 54.035129 86.501217 0.116773 0.993159 0.000000 1.7962614429870884e-38
5.022833 54.387828 86.483692 0.092268 0.995734 0.000000 1.7962614429870884e-38
3.364475 54.899114 87.086428 0.067708 0.997705 0.000000 1.7962614429870884e-38
3.077292 54.834084 86.546455 0.043107 0.999070 0.000000 1.7962614429870884e-38
1.001753 55.209560 87.001226 0.018479 0.999829 0.000000 1.7962614429870884e-38
9.117667 54.461081 87.719637 0.165554 0.986201 0.000000 1.7962614429870884e-38
6.954116 54.272269 87.692858 0.141206 0.989980 0.000000 1.7962614429870884e-38
6.430309 54.763021 88.330330 0.116773 0.993159 0.000000 1.7962614429870884e-38
5.083774 54.458712 87.776273 0.092268 0.995734 0.000000 1.7962614429870884e-38
3.916790 54.834497 87.593996 0.067708 0.997705 0.000000 1.7962614429870884e-38
7.865580 54.381318 88.804510 0.141206 0.989980 0.000000 1.7962614429870884e-38
6.441605 54.826694 89.330998 0.116773 0.993159 0.000000 1.7962614429870884e-38
