# .PCD v0.7 - Point Cloud Data file format
VERSION 0.7
FIELDS x y z normal_x normal_y normal_z rgb
SIZE 4 4 4 4 4 4 4
TYPE F F F F F F F
COUNT 1 1 1 1 1 1 1
WIDTH 281
HEIGHT 1
VIEWPOINT 0 0 0 1 0 0 0
POINTS 281
DATA ascii
-41.346260 21.799592 45.043707 -0.886774 0.462204 0.000000 1.7041734328458258e-38
-42.304637 21.345667 44.708165 -0.897892 0.440216 0.000000 1.7041734328458258e-38
-42.854779 19.309595 44.293685 -0.908465 0.417960 0.000000 1.7041734328458258e-38
-39.751018 24.811433 45.397645 -0.850217 0.526432 0.000000 1.7041734328458258e-38
-40.017625 23.474575 45.743982 -0.862929 0.505325 0.000000 1.7041734328458258e-38
-41.619942 22.664358 45.455246 -0.875117 0.483911 0.000000 1.7041734328458258e-38
-42.080422 22.143917 45.202600 -0.886774 0.462204 0.000000 1.7041734328458258e-38
-42.065754 21.135831 45.925914 -0.897892 0.440216 0.000000 1.7041734328458258e-38
-42.905950 19.840275 46.200220 -0.908465 0.417960 0.000000 1.7041734328458258e-38
-43.941270 18.911447 45.549344 -0.918487 0.395451 0.000000 1.7041734328458258e-38
-43.617185 17.433809 45.985257 -0.927951 0.372702 0.000000 1.7041734328458258e-38
-44.750200 16.024050 45.739277 -0.936852 0.349727 0.000000 1.7041734328458258e-38
-40.205672 25.146953 47.034075 -0.850217 0.526432 0.000000 1.7041734328458258e-38
-41.024524 24.409393 47.099649 -0.862929 0.505325 0.000000 1.7041734328458258e-38
-41.733012 23.029166 47.624561 -0.875117 0.483911 0.000000 1.7041734328458258e-38
-41.933643 21.836949 46.996968 -0.886774 0.462204 0.000000 1.7041734328458258e-38
-42.509382 20.783198 46.857446 -0.897892 0.440216 0.000000 1.7041734328458258e-38
-43.154004 20.308157 47.247602 -0.908465 0.417960 0.000000 1.7041734328458258e-38
-43.749481 19.043986 47.012881 -0.918487 0.395451 0.000000 1.7041734328458258e-38
-43.972775 17.778819 46.377232 -0.927951 0.372702 0.000000 1.7041734328458258e-38
-45.413154 16.679421 46.754451 -0.936852 0.349727 0.000000 1.7041734328458258e-38
-45.386457 15.263449 47.287702 -0.945184 0.326539 0.000000 1.7041734328458258e-38
-45.155831 14.630782 47.146238 -0.952942 0.303153 0.000000 1.7041734328458258e-38
-45.879850 13.512677 47.186031 -0.960122 0.279583 0.000000 1.7041734328458258e-38
-40.309784 26.171504 48.367778 -0.836989 0.547220 0.000000 1.7041734328458258e-38
-41.053902 25.135395 48.494489 -0.850217 0.526432 0.000000 1.7041734328458258e-38
-40.886841 23.994625 48.378963 -0.862929 0.505325 0.000000 1.7041734328458258e-38
-41.446399 23.352163 48.514854 -0.875117 0.483911 0.000000 1.7041734328458258e-38
-42.290436 22.032000 48.329057 -0.886774 0.462204 0.000000 1.7041734328458258e-38
-43.084282 21.344520 47.788301 -0.897892 0.440216 0.000000 1.7041734328458258e-38
-43.511091 19.937799 48.388327 -0.908465 0.417960 0.000000 1.7041734328458258e-38
-43.640862 19.321038 48.270748 -0.918487 0.395451 0.000000 1.7041734328458258e-38
-44.505225 17.745042 48.151603 -0.927951 0.372702 0.000000 1.7041734328458258e-38
-44.558670 16.371866 48.194794 -0.936852 0.349727 0.000000 1.7041734328458258e-38
-44.625525 15.639199 47.931543 -0.945184 0.326539 0.000000 1.7041734328458258e-38
-45.584546 13.799165 48.229765 -0.952942 0.303153 0.000000 1.7041734328458258e-38
-45.330981 12.988112 47.810609 -0.960122 0.279583 0.000000 1.7041734328458258e-38
-46.336118 12.487419 48.758814 -0.966718 0.255843 0.000000 1.7041734328458258e-38
-46.292519 10.684769 48.240755 -0.972728 0.231948 0.000000 1.7041734328458258e-38
-46.148812 9.830069 48.289564 -0.978148 0.207912 0.000000 1.7041734328458258e-38
-39.343642 27.525368 48.953402 -0.823253 0.567675 0.000000 1.7041734328458258e-38
-40.373796 26.574752 49.935066 -0.836989 0.547220 0.000000 1.7041734328458258e-38
-40.648339 25.592911 49.621120 -0.850217 0.526432 0.000000 1.7041734328458258e-38
-41.098249 24.279577 49.628521 -0.862929 0.505325 0.000000 1.7041734328458258e-38
-42.338259 23.425650 49.108830 -0.875117 0.483911 0.000000 1.7041734328458258e-38
-42.314491 22.036192 49.595533 -0.886774 0.462204 0.000000 1.7041734328458258e-38
-43.349885 20.962226 49.594927 -0.897892 0.440216 0.000000 1.7041734328458258e-38
-43.344853 20.374048 49.139514 -0.908465 0.417960 0.000000 1.7041734328458258e-38
-44.502146 18.673752 49.164854 -0.918487 0.395451 0.000000 1.7041734328458258e-38
-44.035668 18.277325 49.185551 -0.927951 0.372702 0.000000 1.7041734328458258e-38
-44.419515 17.157479 48.995655 -0.936852 0.349727 0.000000 1.7041734328458258e-38
-45.641291 15.163435 49.458562 -0.945184 0.326539 0.000000 1.7041734328458258e-38
-45.699089 14.544251 48.876518 -0.952942 0.303153 0.000000 1.7041734328458258e-38
-46.476829 13.487184 49.671203 -0.960122 0.279583 0.000000 1.7041734328458258e-38
-46.970990 11.886206 49.791260 -0.966718 0.255843 0.000000 1.7041734328458258e-38
-47.020594 11.120095 49.088673 -0.972728 0.231948 0.000000 1.7041734328458258e-38
-46.663761 9.366615 49.393198 -0.978148 0.207912 0.000000 1.7041734328458258e-38
-46.862551 8.995870 49.345302 -0.982973 0.183750 0.000000 1.7041734328458258e-38
-47.557063 7.578793 49.097731 -0.987202 0.159476 0.000000 1.7041734328458258e-38
-47.551532 6.454957 49.359151 -0.990831 0.135105 0.000000 1.7041734328458258e-38
-40.954654 27.126488 50.882623 -0.823253 0.567675 0.000000 1.7041734328458258e-38
-40.401209 26.568885 51.053494 -0.836989 0.547220 0.000000 1.7041734328458258e-38
-41.076275 25.243273 50.065593 -0.850217 0.526432 0.000000 1.7041734328458258e-38
-42.054082 23.952705 50.888641 -0.862929 0.505325 0.000000 1.7041734328458258e-38
-42.273352 23.162355 50.527026 -0.875117 0.483911 0.000000 1.7041734328458258e-38
-42.972695 22.553446 50.749653 -0.886774 0.462204 0.000000 1.7041734328458258e-38
-42.977463 20.558650 50.881470 -0.897892 0.440216 0.000000 1.7041734328458258e-38
-43.929587 20.059601 51.127497 -0.908465 0.417960 0.000000 1.7041734328458258e-38
-44.384411 19.206760 50.416266 -0.918487 0.395451 0.000000 1.7041734328458258e-38
-44.712756 17.485395 50.704456 -0.927951 0.372702 0.000000 1.7041734328458258e-38
-45.036948 17.187353 50.476281 -0.936852 0.349727 0.000000 1.7041734328458258e-38
-45.712828 15.544644 50.645446 -0.945184 0.326539 0.000000 1.7041734328458258e-38
-46.217224 13.963600 50.408836 -0.952942 0.303153 0.000000 1.7041734328458258e-38
-46.288772 13.430350 50.887285 -0.960122 0.279583 0.000000 1.7041734328458258e-38
-46.339363 12.195749 50.245928 -0.966718 0.255843 0.000000 1.7041734328458258e-38
-46.760707 11.176020 50.644117 -0.972728 0.231948 0.000000 1.7041734328458258e-38
-46.776736 10.155689 50.758519 -0.978148 0.207912 0.000000 1.7041734328458258e-38
-47.326268 9.110915 50.514784 -0.982973 0.183750 0.000000 1.7041734328458258e-38
-47.843308 7.615865 50.368269 -0.987202 0.159476 0.000000 1.7041734328458258e-38
-47.767791 6.540626 50.701009 -0.990831 0.135105 0.000000 1.7041734328458258e-38
-48.008523 5.828927 51.003848 -0.993859 0.110653 0.000000 1.7041734328458258e-38
-48.046091 4.179177 51.134553 -0.996284 0.086133 0.000000 1.7041734328458258e-38
-48.280017 2.677314 50.789719 -0.998103 0.061561 0.000000 1.7041734328458258e-38
-39.420710 28.806113 51.905579 -0.809017 0.587785 0.000000 1.7041734328458258e-38
-39.922358 27.313813 51.836525 -0.823253 0.567675 0.000000 1.7041734328458258e-38
-40.372642 26.078412 51.982984 -0.836989 0.547220 0.000000 1.7041734328458258e-38
-40.891673 25.471126 52.275031 -0.850217 0.526432 0.000000 1.7041734328458258e-38
-41.391839 24.745360 51.797586 -0.862929 0.505325 0.000000 1.7041734328458258e-38
-42.394948 23.540889 51.817838 -0.875117 0.483911 0.000000 1.7041734328458258e-38
-43.099814 22.216808 52.721831 -0.886774 0.462204 0.000000 1.7041734328458258e-38
-43.568702 21.641459 51.697942 -0.897892 0.440216 0.000000 1.7041734328458258e-38
-43.488933 20.129396 51.974656 -0.908465 0.417960 0.000000 1.7041734328458258e-38
-45.034661 19.487767 52.358729 -0.918487 0.395451 0.000000 1.7041734328458258e-38
-45.299398 18.403421 51.557577 -0.927951 0.372702 0.000000 1.7041734328458258e-38
-45.184684 16.851823 52.359639 -0.936852 0.349727 0.000000 1.7041734328458258e-38
-45.703088 16.094606 52.330090 -0.945184 0.326539 0.000000 1.7041734328458258e-38
-46.240905 14.673845 51.625408 -0.952942 0.303153 0.000000 1.7041734328458258e-38
-46.591332 14.119074 52.185498 -0.960122 0.279583 0.000000 1.7041734328458258e-38
-47.134204 12.880600 52.075464 -0.966718 0.255843 0.000000 1.7041734328458258e-38
-46.862771 11.381019 52.084690 -0.972728 0.231948 0.000000 1.7041734328458258e-38
-47.973686 10.401821 51.282462 -0.978148 0.207912 0.000000 1.7041734328458258e-38
-47.303287 8.929363 52.209402 -0.982973 0.183750 0.000000 1.7041734328458258e-38
-47.765373 8.036976 51.963607 -0.987202 0.159476 0.000000 1.7041734328458258e-38
-47.904398 6.664946 52.522356 -0.990831 0.135105 0.000000 1.7041734328458258e-38
-47.955242 4.964157 51.789569 -0.993859 0.110653 0.000000 1.7041734328458258e-38
-48.073349 4.549578 51.742110 -0.996284 0.086133 0.000000 1.7041734328458258e-38
-47.668919 3.034245 52.084933 -0.998103 0.061561 0.000000 1.7041734328458258e-38
-48.775889 2.124305 51.825028 -0.999317 0.036951 0.000000 1.7041734328458258e-38
-39.882407 28.407893 53.166791 -0.809017 0.587785 0.000000 1.7041734328458258e-38
-39.904281 27.531835 52.660658 -0.823253 0.567675 0.000000 1.7041734328458258e-38
-41.314497 26.613332 53.052544 -0.836989 0.547220 0.000000 1.7041734328458258e-38
-41.653969 25.298834 53.236009 -0.850217 0.526432 0.000000 1.7041734328458258e-38
-41.608997 24.634874 53.590557 -0.862929 0.505325 0.000000 1.7041734328458258e-38
-42.705075 23.685518 53.601488 -0.875117 0.483911 0.000000 1.7041734328458258e-38
-43.207584 22.503748 53.083531 -0.886774 0.462204 0.000000 1.7041734328458258e-38
-43.523612 21.696452 53.301260 -0.897892 0.440216 0.000000 1.7041734328458258e-38
-44.284807 19.892659 53.181347 -0.908465 0.417960 0.000000 1.7041734328458258e-38
-44.761328 19.317831 53.230914 -0.918487 0.395451 0.000000 1.7041734328458258e-38
-44.692648 17.930881 52.723297 -0.927951 0.372702 0.000000 1.7041734328458258e-38
-45.940340 16.831476 53.520478 -0.936852 0.349727 0.000000 1.7041734328458258e-38
-46.392279 15.543847 53.320048 -0.945184 0.326539 0.000000 1.7041734328458258e-38
-46.125913 14.289993 52.664260 -0.952942 0.303153 0.000000 1.7041734328458258e-38
-46.966106 13.804792 53.238844 -0.960122 0.279583 0.000000 1.7041734328458258e-38
-47.276209 12.673970 53.233168 -0.966718 0.255843 0.000000 1.7041734328458258e-38
-47.376002 10.804835 52.964721 -0.972728 0.231948 0.000000 1.7041734328458258e-38
-47.020410 10.018396 52.908838 -0.978148 0.207912 0.000000 1.7041734328458258e-38
-47.957026 8.979011 53.460879 -0.982973 0.183750 0.000000 1.7041734328458258e-38
-47.861842 7.558878 53.577349 -0.987202 0.159476 0.000000 1.7041734328458258e-38
-47.980408 6.442177 53.157417 -0.990831 0.135105 0.000000 1.7041734328458258e-38
-48.191984 5.707995 52.740276 -0.993859 0.110653 0.000000 1.7041734328458258e-38
-48.469054 4.182845 53.024686 -0.996284 0.086133 0.000000 1.7041734328458258e-38
-48.751495 3.312548 53.356280 -0.998103 0.061561 0.000000 1.7041734328458258e-38
-48.005838 1.627531 53.237017 -0.999317 0.036951 0.000000 1.7041734328458258e-38
-40.157870 27.884098 54.612554 -0.823253 0.567675 0.000000 1.7041734328458258e-38
-40.966251 26.333630 54.508340 -0.836989 0.547220 0.000000 1.7041734328458258e-38
-41.590258 25.490489 54.106274 -0.850217 0.526432 0.000000 1.7041734328458258e-38
-42.220497 24.308512 54.389967 -0.862929 0.505325 0.000000 1.7041734328458258e-38
-42.881871 23.632743 54.553786 -0.875117 0.483911 0.000000 1.7041734328458258e-38
-43.186211 22.393306 54.693927 -0.886774 0.462204 0.000000 1.7041734328458258e-38
-43.982416 22.057288 54.257363 -0.897892 0.440216 0.000000 1.7041734328458258e-38
-44.917149 20.692861 54.560676 -0.908465 0.417960 0.000000 1.7041734328458258e-38
-44.563422 19.434722 55.134992 -0.918487 0.395451 0.000000 1.7041734328458258e-38
-45.443483 18.543038 54.275352 -0.927951 0.372702 0.000000 1.7041734328458258e-38
-45.674627 17.308805 54.682759 -0.936852 0.349727 0.000000 1.7041734328458258e-38
-45.996786 15.000245 54.412387 -0.945184 0.326539 0.000000 1.7041734328458258e-38
-46.781674 14.714070 54.347967 -0.952942 0.303153 0.000000 1.7041734328458258e-38
-46.667062 13.735378 54.280733 -0.960122 0.279583 0.000000 1.7041734328458258e-38
-47.723436 12.973389 54.238794 -0.966718 0.255843 0.000000 1.7041734328458258e-38
-47.616116 11.986402 54.246957 -0.972728 0.231948 0.000000 1.7041734328458258e-38
-47.924671 10.238778 53.951206 -0.978148 0.207912 0.000000 1.7041734328458258e-38
-48.594526 8.842849 54.298889 -0.982973 0.183750 0.000000 1.7041734328458258e-38
-48.244550 7.506688 54.563184 -0.987202 0.159476 0.000000 1.7041734328458258e-38
-49.109350 6.587016 54.541043 -0.990831 0.135105 0.000000 1.7041734328458258e-38
-48.511898 5.363277 54.234888 -0.993859 0.110653 0.000000 1.7041734328458258e-38
-48.786577 4.583018 54.253149 -0.996284 0.086133 0.000000 1.7041734328458258e-38
-48.524585 3.352166 53.912222 -0.998103 0.061561 0.000000 1.7041734328458258e-38
-42.291671 25.986229 55.612478 -0.850217 0.526432 0.000000 1.7041734328458258e-38
-42.151151 24.570594 55.340720 -0.862929 0.505325 0.000000 1.7041734328458258e-38
-42.780587 23.696442 55.926823 -0.875117 0.483911 0.000000 1.7041734328458258e-38
-43.576348 23.281339 55.896825 -0.886774 0.462204 0.000000 1.7041734328458258e-38
-44.009947 21.877306 55.588234 -0.897892 0.440216 0.000000 1.7041734328458258e-38
-45.145438 20.651717 56.252580 -0.908465 0.417960 0.000000 1.7041734328458258e-38
-45.832280 19.577821 55.209546 -0.918487 0.395451 0.000000 1.7041734328458258e-38
-45.617315 18.342754 55.894159 -0.927951 0.372702 0.000000 1.7041734328458258e-38
-45.984761 17.601689 56.020023 -0.936852 0.349727 0.000000 1.7041734328458258e-38
-46.516343 16.378233 55.576269 -0.945184 0.326539 0.000000 1.7041734328458258e-38
-46.984125 14.539138 56.063692 -0.952942 0.303153 0.000000 1.7041734328458258e-38
-47.281567 13.015493 55.832723 -0.960122 0.279583 0.000000 1.7041734328458258e-38
-47.646006 12.485510 55.599898 -0.966718 0.255843 0.000000 1.7041734328458258e-38
-47.912162 12.218939 56.168915 -0.972728 0.231948 0.000000 1.7041734328458258e-38
-47.867813 10.291599 56.008731 -0.978148 0.207912 0.000000 1.7041734328458258e-38
-48.241648 9.276351 55.837570 -0.982973 0.183750 0.000000 1.7041734328458258e-38
-48.484092 8.120591 55.544051 -0.987202 0.159476 0.000000 1.7041734328458258e-38
-48.683451 6.346814 55.410911 -0.990831 0.135105 0.000000 1.7041734328458258e-38
-49.608558 5.575732 55.889559 -0.993859 0.110653 0.000000 1.7041734328458258e-38
-48.643356 3.902848 55.802076 -0.996284 0.086133 0.000000 1.7041734328458258e-38
-49.058635 3.247094 55.474677 -0.998103 0.061561 0.000000 1.7041734328458258e-38
-42.893143 24.400775 56.786841 -0.862929 0.505325 0.000000 1.7041734328458258e-38
-43.558967 24.339754 56.947091 -0.875117 0.483911 0.000000 1.7041734328458258e-38
-44.241908 23.000429 56.932709 -0.886774 0.462204 0.000000 1.7041734328458258e-38
-44.421520 22.216136 56.614560 -0.897892 0.440216 0.000000 1.7041734328458258e-38
-44.561642 20.521625 56.901710 -0.908465 0.417960 0.000000 1.7041734328458258e-38
-45.592140 19.326856 56.776405 -0.918487 0.395451 0.000000 1.7041734328458258e-38
-46.404886 18.513012 56.941685 -0.927951 0.372702 0.000000 1.7041734328458258e-38
-46.723607 17.472166 57.344336 -0.936852 0.349727 0.000000 1.7041734328458258e-38
-46.885195 15.893425 57.241240 -0.945184 0.326539 0.000000 1.7041734328458258e-38
-46.948067 14.932963 57.151585 -0.952942 0.303153 0.000000 1.7041734328458258e-38
-47.341436 14.238084 56.902190 -0.960122 0.279583 0.000000 1.7041734328458258e-38
-47.621564 12.966362 56.172868 -0.966718 0.255843 0.000000 1.7041734328458258e-38
-47.706079 11.305150 57.057201 -0.972728 0.231948 0.000000 1.7041734328458258e-38
-47.814794 10.177695 56.770561 -0.978148 0.207912 0.000000 1.7041734328458258e-38
-48.568803 8.640326 57.566954 -0.982973 0.183750 0.000000 1.7041734328458258e-38
-48.774007 8.370728 56.807254 -0.987202 0.159476 0.000000 1.7041734328458258e-38
-48.930319 6.956586 56.576552 -0.990831 0.135105 0.000000 1.7041734328458258e-38
-49.120844 5.737553 56.843306 -0.993859 0.110653 0.000000 1.7041734328458258e-38
-49.354756 4.588967 57.327551 -0.996284 0.086133 0.000000 1.7041734328458258e-38
-43.974142 22.896792 57.562156 -0.886774 0.462204 0.000000 1.7041734328458258e-38
-44.059447 21.724540 58.515853 -0.897892 0.440216 0.000000 1.7041734328458258e-38
-45.304080 20.792242 58.436023 -0.908465 0.417960 0.000000 1.7041734328458258e-38
-45.339517 19.548142 58.297118 -0.918487 0.395451 0.000000 1.7041734328458258e-38
-45.856795 18.454976 57.810214 -0.927951 0.372702 0.000000 1.7041734328458258e-38
-46.688745 17.245181 58.152148 -0.936852 0.349727 0.000000 1.7041734328458258e-38
-46.437226 16.480250 57.899511 -0.945184 0.326539 0.000000 1.7041734328458258e-38
-46.749066 15.023572 58.346016 -0.952942 0.303153 0.000000 1.7041734328458258e-38
-47.938086 13.741630 58.455711 -0.960122 0.279583 0.000000 1.7041734328458258e-38
-48.247487 12.715508 58.285603 -0.966718 0.255843 0.000000 1.7041734328458258e-38
-48.589011 10.979643 58.416545 -0.972728 0.231948 0.000000 1.7041734328458258e-38
-47.692108 10.457519 58.339554 -0.978148 0.207912 0.000000 1.7041734328458258e-38
-49.055861 9.561454 58.031300 -0.982973 0.183750 0.000000 1.7041734328458258e-38
-48.651421 8.097895 58.333839 -0.987202 0.159476 0.000000 1.7041734328458258e-38
-49.002694 6.874485 58.229347 -0.990831 0.135105 0.000000 1.7041734328458258e-38
-49.040198 5.274518 58.072684 -0.993859 0.110653 0.000000 1.7041734328458258e-38
-49.010893 4.327148 58.046548 -0.996284 0.086133 0.000000 1.7041734328458258e-38
-44.401852 22.212850 59.159455 -0.897892 0.440216 0.000000 1.7041734328458258e-38
-45.161566 20.623189 58.597549 -0.908465 0.417960 0.000000 1.7041734328458258e-38
-45.295016 19.612055 59.693282 -0.918487 0.395451 0.000000 1.7041734328458258e-38
-46.483260 18.347631 59.217465 -0.927951 0.372702 0.000000 1.7041734328458258e-38
-46.653018 17.496696 59.530752 -0.936852 0.349727 0.000000 1.7041734328458258e-38
-47.293311 16.299406 59.128492 -0.945184 0.326539 0.000000 1.7041734328458258e-38
-47.090578 14.726616 59.134852 -0.952942 0.303153 0.000000 1.7041734328458258e-38
-48.016505 14.661854 59.611493 -0.960122 0.279583 0.000000 1.7041734328458258e-38
-48.474588 13.007725 59.536192 -0.966718 0.255843 0.000000 1.7041734328458258e-38
-48.436154 11.777957 59.398865 -0.972728 0.231948 0.000000 1.7041734328458258e-38
-48.737347 9.904456 59.814373 -0.978148 0.207912 0.000000 1.7041734328458258e-38
-49.163526 8.793992 59.230146 -0.982973 0.183750 0.000000 1.7041734328458258e-38
-49.379415 7.714051 59.614738 -0.987202 0.159476 0.000000 1.7041734328458258e-38
-49.128970 6.151094 59.227011 -0.990831 0.135105 0.000000 1.7041734328458258e-38
-49.705186 5.467552 59.893338 -0.993859 0.110653 0.000000 1.7041734328458258e-38
-46.284479 19.664594 60.936024 -0.918487 0.395451 0.000000 1.7041734328458258e-38
-46.349115 18.733197 60.177764 -0.927951 0.372702 0.000000 1.7041734328458258e-38
-47.305361 17.647996 60.807566 -0.936852 0.349727 0.000000 1.7041734328458258e-38
-47.298076 16.224471 60.466575 -0.945184 0.326539 0.000000 1.7041734328458258e-38
-47.698084 14.818919 60.646063 -0.952942 0.303153 0.000000 1.7041734328458258e-38
-48.539318 13.697296 60.672021 -0.960122 0.279583 0.000000 1.7041734328458258e-38
-48.278357 12.925750 60.284197 -0.966718 0.255843 0.000000 1.7041734328458258e-38
-49.315855 11.623057 60.048743 -0.972728 0.231948 0.000000 1.7041734328458258e-38
-48.742846 10.096434 61.288813 -0.978148 0.207912 0.000000 1.7041734328458258e-38
-49.556633 9.348678 60.397574 -0.982973 0.183750 0.000000 1.7041734328458258e-38
-49.530438 8.048350 60.876644 -0.987202 0.159476 0.000000 1.7041734328458258e-38
-49.356043 6.989866 60.929846 -0.990831 0.135105 0.000000 1.7041734328458258e-38
-49.998493 5.740711 60.516288 -0.993859 0.110653 0.000000 1.7041734328458258e-38
-46.619215 20.068920 62.045351 -0.927951 0.372702 0.000000 1.7041734328458258e-38
-47.163161 17.878215 62.088694 -0.936852 0.349727 0.000000 1.7041734328458258e-38
-47.802122 15.924934 62.033844 -0.945184 0.326539 0.000000 1.7041734328458258e-38
-47.771020 15.178794 62.349229 -0.952942 0.303153 0.000000 1.7041734328458258e-38
-47.922354 14.313314 61.772084 -0.960122 0.279583 0.000000 1.7041734328458258e-38
-49.315293 12.833015 61.304813 -0.966718 0.255843 0.000000 1.7041734328458258e-38
-49.697825 11.876009 62.207362 -0.972728 0.231948 0.000000 1.7041734328458258e-38
-49.848817 10.394346 61.850422 -0.978148 0.207912 0.000000 1.7041734328458258e-38
-49.594392 8.840847 62.254981 -0.982973 0.183750 0.000000 1.7041734328458258e-38
-50.124914 7.447114 61.443336 -0.987202 0.159476 0.000000 1.7041734328458258e-38
-49.758037 6.724309 61.624596 -0.990831 0.135105 0.000000 1.7041734328458258e-38
-49.896642 5.672724 61.163474 -0.993859 0.110653 0.000000 1.7041734328458258e-38
-47.455719 16.683453 62.984243 -0.945184 0.326539 0.000000 1.7041734328458258e-38
-47.948901 15.414049 63.629548 -0.952942 0.303153 0.000000 1.7041734328458258e-38
-48.389244 13.731766 62.895162 -0.960122 0.279583 0.000000 1.7041734328458258e-38
-49.105606 13.040202 63.001737 -0.966718 0.255843 0.000000 1.7041734328458258e-38
-49.564660 11.914824 63.392819 -0.972728 0.231948 0.000000 1.7041734328458258e-38
-49.531548 10.584542 62.802516 -0.978148 0.207912 0.000000 1.7041734328458258e-38
-49.901691 9.154449 63.260359 -0.982973 0.183750 0.000000 1.7041734328458258e-38
-49.882124 7.971620 62.981969 -0.987202 0.159476 0.000000 1.7041734328458258e-38
-50.732950 7.318980 62.467150 -0.990831 0.135105 0.000000 1.7041734328458258e-38
-48.433763 15.800996 64.540271 -0.952942 0.303153 0.000000 1.7041734328458258e-38
-49.037522 13.709047 64.083529 -0.960122 0.279583 0.000000 1.7041734328458258e-38
-48.741669 13.097493 64.509098 -0.966718 0.255843 0.000000 1.7041734328458258e-38
-49.650387 11.939585 63.873848 -0.972728 0.231948 0.000000 1.7041734328458258e-38
-49.456634 10.225339 63.737573 -0.978148 0.207912 0.000000 1.7041734328458258e-38
-49.303864 9.383826 64.362059 -0.982973 0.183750 0.000000 1.7041734328458258e-38
-50.758575 8.295850 64.595703 -0.987202 0.159476 0.000000 1.7041734328458258e-38
-50.441926 7.136852 64.681050 -0.990831 0.135105 0.000000 1.7041734328458258e-38
-49.269076 12.607898 65.171903 -0.966718 0.255843 0.000000 1.7041734328458258e-38
-49.451220 11.999375 65.941933 -0.972728 0.231948 0.000000 1.7041734328458258e-38
-49.833822 10.625172 65.953731 -0.978148 0.207912 0.000000 1.7041734328458258e-38
-50.346184 9.287617 65.547655 -0.982973 0.183750 0.000000 1.7041734328458258e-38
-50.300227 8.127506 65.121496 -0.987202 0.159476 0.000000 1.7041734328458258e-38
-50.455839 12.007604 66.423321 -0.972728 0.231948 0.000000 1.7041734328458258e-38
-49.902361 10.367127 66.969417 -0.978148 0.207912 0.000000 1.7041734328458258e-38
-50.627776 9.244466 66.529967 -0.982973 0.183750 0.000000 1.7041734328458258e-38
-50.540972 8.400394 66.709464 -0.987202 0.159476 0.000000 1.7041734328458258e-38
-50.259937 10.804978 67.920137 -0.978148 0.207912 0.000000 1.7041734328458258e-38
-50.439291 9.110273 67.875166 -0.982973 0.183750 0.000000 1.7041734328458258e-38
