# .PCD v0.7 - Point Cloud Data file format
VERSION 0.7
FIELDS x y z normal_x normal_y normal_z rgb
SIZE 4 4 4 4 4 4 4
TYPE F F F F F F F
COUNT 1 1 1 1 1 1 1
WIDTH 250
HEIGHT 1
VIEWPOINT 0 0 0 1 0 0 0
POINTS 250
DATA ascii
12.573723 27.993923 75.033061 0.350515 0.800505 0.486139 1.5843200949324314e-38
14.900929 25.792447 76.534794 0.436866 0.778674 0.450350 1.5843200949324314e-38
14.375396 26.389983 76.946763 0.417549 0.789201 0.450350 1.5843200949324314e-38
13.269968 27.113172 76.829762 0.397978 0.799248 0.450350 1.5843200949324314e-38
12.651791 27.426517 76.053069 0.378166 0.808811 0.450350 1.5843200949324314e-38
11.726118 27.384793 77.052842 0.358124 0.817882 0.450350 1.5843200949324314e-38
10.936190 27.802046 76.796261 0.337865 0.826457 0.450350 1.5843200949324314e-38
14.778616 25.212174 77.353899 0.465894 0.784472 0.409324 1.5843200949324314e-38
14.302786 25.700465 77.625204 0.446426 0.795712 0.409324 1.5843200949324314e-38
13.631243 26.043132 77.974090 0.426686 0.806470 0.409324 1.5843200949324314e-38
12.639756 26.578837 78.155436 0.406687 0.816737 0.409324 1.5843200949324314e-38
12.253707 27.187632 78.074893 0.386441 0.826509 0.409324 1.5843200949324314e-38
11.908601 27.188455 77.628246 0.365961 0.835779 0.409324 1.5843200949324314e-38
11.040796 27.451722 77.698809 0.345258 0.844542 0.409324 1.5843200949324314e-38
10.365935 27.713101 78.031099 0.324346 0.852792 0.409324 1.5843200949324314e-38
15.351114 24.713094 79.243414 0.495419 0.789226 0.362882 1.5843200949324314e-38
14.417513 25.035917 79.023125 0.475824 0.801192 0.362882 1.5843200949324314e-38
13.750098 25.460255 78.819506 0.455940 0.812672 0.362882 1.5843200949324314e-38
13.426770 25.666817 79.153267 0.435780 0.823658 0.362882 1.5843200949324314e-38
12.711585 25.606308 78.947233 0.415355 0.834145 0.362882 1.5843200949324314e-38
11.933504 26.176410 79.011648 0.394677 0.844125 0.362882 1.5843200949324314e-38
11.193534 26.421609 78.982292 0.373761 0.853592 0.362882 1.5843200949324314e-38
11.030971 26.894932 79.577848 0.352617 0.862542 0.362882 1.5843200949324314e-38
10.481603 26.721486 78.523338 0.331259 0.870968 0.362882 1.5843200949324314e-38
9.162130 27.142443 78.692868 0.309700 0.878865 0.362882 1.5843200949324314e-38
15.589627 23.535996 80.698200 0.524971 0.792260 0.311014 1.5843200949324314e-38
15.049475 23.894208 80.530759 0.505292 0.804954 0.311014 1.5843200949324314e-38
14.567821 24.508292 80.545401 0.485307 0.817158 0.311014 1.5843200949324314e-38
13.900985 25.104134 79.983851 0.465027 0.828867 0.311014 1.5843200949324314e-38
13.698114 24.912719 79.921378 0.444464 0.840073 0.311014 1.5843200949324314e-38
12.464654 25.402487 80.191876 0.423632 0.850768 0.311014 1.5843200949324314e-38
11.779308 26.115698 80.151181 0.402543 0.860947 0.311014 1.5843200949324314e-38
10.751902 25.996903 81.025988 0.381209 0.870603 0.311014 1.5843200949324314e-38
10.463470 26.105805 80.291268 0.359644 0.879731 0.311014 1.5843200949324314e-38
10.592843 26.525494 80.105372 0.337860 0.888325 0.311014 1.5843200949324314e-38
9.579249 26.961429 80.558366 0.315872 0.896379 0.311014 1.5843200949324314e-38
8.486629 26.930655 80.750072 0.293691 0.903889 0.311014 1.5843200949324314e-38
15.904746 22.608777 81.544426 0.553960 0.792868 0.253947 1.5843200949324314e-38
15.593478 23.796407 81.321401 0.534257 0.806275 0.253947 1.5843200949324314e-38
14.707967 23.675460 81.416929 0.514231 0.819193 0.253947 1.5843200949324314e-38
14.209471 23.902250 81.774626 0.493892 0.831614 0.253947 1.5843200949324314e-38
13.618718 24.535590 81.740776 0.473253 0.843530 0.253947 1.5843200949324314e-38
12.741186 25.042089 81.712321 0.452327 0.854934 0.253947 1.5843200949324314e-38
12.601575 25.140568 81.568611 0.431126 0.865818 0.253947 1.5843200949324314e-38
11.930381 25.510542 81.295431 0.409664 0.876177 0.253947 1.5843200949324314e-38
11.755404 25.558905 81.669497 0.387953 0.886004 0.253947 1.5843200949324314e-38
10.994102 25.935257 81.720577 0.366006 0.895294 0.253947 1.5843200949324314e-38
9.342434 25.697600 81.641809 0.343837 0.904039 0.253947 1.5843200949324314e-38
9.405838 26.862368 81.889832 0.321460 0.912236 0.253947 1.5843200949324314e-38
8.214901 27.133292 81.292315 0.298887 0.919879 0.253947 1.5843200949324314e-38
8.289590 26.823339 82.464224 0.276133 0.926964 0.253947 1.5843200949324314e-38
15.687051 22.215836 82.385550 0.562057 0.804457 0.192202 1.5843200949324314e-38
15.916640 23.223701 82.455734 0.542066 0.818060 0.192202 1.5843200949324314e-38
14.623868 23.587303 83.021251 0.521747 0.831167 0.192202 1.5843200949324314e-38
14.148987 24.548212 83.507106 0.501111 0.843769 0.192202 1.5843200949324314e-38
13.739667 24.175027 83.001375 0.480170 0.855859 0.192202 1.5843200949324314e-38
12.623647 24.913051 82.938115 0.458938 0.867430 0.192202 1.5843200949324314e-38
12.049852 24.751294 83.058635 0.437428 0.878473 0.192202 1.5843200949324314e-38
11.294506 24.956752 82.746838 0.415652 0.888984 0.192202 1.5843200949324314e-38
11.461574 26.022034 83.000218 0.393623 0.898955 0.192202 1.5843200949324314e-38
9.589117 25.440127 83.935292 0.371356 0.908379 0.192202 1.5843200949324314e-38
9.946164 25.245022 83.598429 0.348863 0.917253 0.192202 1.5843200949324314e-38
8.853896 26.434970 82.542709 0.326158 0.925570 0.192202 1.5843200949324314e-38
9.265491 26.057899 82.711006 0.303255 0.933324 0.192202 1.5843200949324314e-38
8.264451 26.520992 83.032503 0.280169 0.940513 0.192202 1.5843200949324314e-38
16.537259 22.518101 84.412070 0.587986 0.798898 0.126626 1.5843200949324314e-38
15.878649 22.481220 84.027175 0.568125 0.813142 0.126626 1.5843200949324314e-38
15.316750 23.039813 83.870158 0.547919 0.826892 0.126626 1.5843200949324314e-38
14.193343 23.247988 84.040642 0.527380 0.840141 0.126626 1.5843200949324314e-38
14.209453 23.646781 84.048261 0.506521 0.852879 0.126626 1.5843200949324314e-38
13.560283 24.580270 84.073801 0.485354 0.865099 0.126626 1.5843200949324314e-38
12.464074 24.230861 84.666109 0.463893 0.876795 0.126626 1.5843200949324314e-38
12.752944 25.029210 84.334169 0.442150 0.887958 0.126626 1.5843200949324314e-38
11.923143 24.971727 84.383900 0.420139 0.898582 0.126626 1.5843200949324314e-38
11.360558 25.577642 83.944122 0.397873 0.908660 0.126626 1.5843200949324314e-38
10.363989 25.397283 84.422793 0.375365 0.918187 0.126626 1.5843200949324314e-38
9.918698 25.957428 84.296380 0.352629 0.927156 0.126626 1.5843200949324314e-38
8.764541 26.338631 83.961449 0.329680 0.935562 0.126626 1.5843200949324314e-38
8.407973 26.041815 84.147713 0.306530 0.943401 0.126626 1.5843200949324314e-38
16.765820 21.735850 84.880339 0.611376 0.789184 0.058377 1.5843200949324314e-38
16.246508 22.092240 85.258145 0.591747 0.804007 0.058377 1.5843200949324314e-38
16.097659 22.797084 85.651610 0.571758 0.818343 0.058377 1.5843200949324314e-38
14.855570 22.972671 85.478512 0.551423 0.832181 0.058377 1.5843200949324314e-38
15.211807 23.366711 85.326309 0.530753 0.845514 0.058377 1.5843200949324314e-38
14.398457 23.607744 85.516431 0.509760 0.858334 0.058377 1.5843200949324314e-38
13.617144 23.868355 85.167998 0.488458 0.870632 0.058377 1.5843200949324314e-38
12.865330 24.204541 84.911329 0.466860 0.882402 0.058377 1.5843200949324314e-38
12.487807 24.815306 85.137990 0.444978 0.893637 0.058377 1.5843200949324314e-38
11.408521 25.085640 85.886452 0.422826 0.904329 0.058377 1.5843200949324314e-38
11.348718 25.578960 85.269483 0.400417 0.914471 0.058377 1.5843200949324314e-38
10.542444 25.443453 85.143003 0.377766 0.924059 0.058377 1.5843200949324314e-38
9.845503 25.471779 85.137283 0.354885 0.933086 0.058377 1.5843200949324314e-38
9.016331 25.863872 85.351982 0.331788 0.941546 0.058377 1.5843200949324314e-38
16.961173 20.897605 86.492018 0.631467 0.774904 0.027806 1.5843200949324314e-38
16.272115 22.429430 86.877964 0.612183 0.790227 0.027806 1.5843200949324314e-38
16.454378 22.380626 86.979245 0.592528 0.805070 0.027806 1.5843200949324314e-38
15.564244 22.432302 86.700620 0.572514 0.819424 0.027806 1.5843200949324314e-38
15.037246 22.643507 86.439082 0.552151 0.833280 0.027806 1.5843200949324314e-38
14.733685 23.562456 86.216698 0.531454 0.846631 0.027806 1.5843200949324314e-38
13.984026 23.625921 86.180735 0.510434 0.859467 0.027806 1.5843200949324314e-38
13.588860 23.948762 86.316374 0.489104 0.871782 0.027806 1.5843200949324314e-38
12.714596 24.465661 86.891299 0.467477 0.883568 0.027806 1.5843200949324314e-38
12.358451 25.186357 86.932554 0.445566 0.894817 0.027806 1.5843200949324314e-38
11.811821 24.698201 86.937286 0.423385 0.905523 0.027806 1.5843200949324314e-38
10.798603 25.412442 85.864732 0.400946 0.915679 0.027806 1.5843200949324314e-38
10.257125 25.033171 86.512064 0.378265 0.925280 0.027806 1.5843200949324314e-38
9.313270 25.709688 86.738061 0.355353 0.934318 0.027806 1.5843200949324314e-38
8.943811 25.838139 86.663783 0.332226 0.942790 0.027806 1.5843200949324314e-38
17.455009 20.627149 87.551442 0.638001 0.744678 0.195984 1.5843200949324314e-38
17.846519 21.431067 87.736705 0.619460 0.760171 0.195984 1.5843200949324314e-38
17.181391 21.333411 87.735397 0.600544 0.775202 0.195984 1.5843200949324314e-38
16.471609 21.697259 88.040562 0.581262 0.789762 0.195984 1.5843200949324314e-38
15.755539 22.601188 88.374273 0.561628 0.803843 0.195984 1.5843200949324314e-38
15.247120 22.841783 87.385845 0.541653 0.817436 0.195984 1.5843200949324314e-38
14.607126 23.025348 87.798113 0.521349 0.830533 0.195984 1.5843200949324314e-38
13.826763 23.668081 87.537866 0.500729 0.843126 0.195984 1.5843200949324314e-38
13.448679 23.545171 87.295431 0.479804 0.855207 0.195984 1.5843200949324314e-38
12.690689 24.319342 87.601953 0.458588 0.866768 0.195984 1.5843200949324314e-38
12.234566 24.379133 87.524425 0.437094 0.877803 0.195984 1.5843200949324314e-38
11.753754 24.585615 87.947438 0.415335 0.888306 0.195984 1.5843200949324314e-38
10.534451 25.099997 88.022209 0.393323 0.898269 0.195984 1.5843200949324314e-38
10.457319 25.589444 88.028700 0.371073 0.907687 0.195984 1.5843200949324314e-38
9.814548 25.822840 87.722924 0.348597 0.916554 0.195984 1.5843200949324314e-38
17.944146 19.821531 88.673465 0.628823 0.698379 0.341830 1.5843200949324314e-38
17.529499 20.404599 89.373188 0.611426 0.713660 0.341830 1.5843200949324314e-38
17.228903 20.951519 89.089648 0.593658 0.728507 0.341830 1.5843200949324314e-38
16.413346 20.815467 88.717443 0.575529 0.742912 0.341830 1.5843200949324314e-38
16.244086 21.708672 88.678606 0.557051 0.756866 0.341830 1.5843200949324314e-38
15.877473 22.647461 89.433518 0.538235 0.770361 0.341830 1.5843200949324314e-38
15.044430 22.598225 89.064789 0.519091 0.783388 0.341830 1.5843200949324314e-38
14.407090 23.061667 89.284394 0.499633 0.795939 0.341830 1.5843200949324314e-38
13.926402 22.236760 89.417521 0.479872 0.808007 0.341830 1.5843200949324314e-38
13.273750 23.145326 89.131575 0.459819 0.819585 0.341830 1.5843200949324314e-38
12.720365 23.399726 88.879393 0.439487 0.830664 0.341830 1.5843200949324314e-38
11.705896 23.882831 89.243276 0.418888 0.841240 0.341830 1.5843200949324314e-38
11.251745 24.492108 89.293451 0.398035 0.851305 0.341830 1.5843200949324314e-38
10.702028 24.971770 89.478704 0.376940 0.860853 0.341830 1.5843200949324314e-38
10.473280 25.177850 89.328504 0.355616 0.869879 0.341830 1.5843200949324314e-38
18.116000 18.678040 90.660990 0.611528 0.646407 0.456281 1.5843200949324314e-38
17.356618 19.956797 90.642545 0.595416 0.661277 0.456281 1.5843200949324314e-38
16.850323 19.724508 90.191341 0.578943 0.675746 0.456281 1.5843200949324314e-38
16.992279 20.334211 90.337442 0.562119 0.689804 0.456281 1.5843200949324314e-38
16.055294 21.154842 90.118806 0.544953 0.703444 0.456281 1.5843200949324314e-38
15.469369 21.002323 89.990286 0.527457 0.716657 0.456281 1.5843200949324314e-38
15.474976 21.584700 90.023982 0.509640 0.729434 0.456281 1.5843200949324314e-38
14.115416 21.977718 90.063026 0.491514 0.741769 0.456281 1.5843200949324314e-38
13.765638 22.180045 90.345812 0.473090 0.753654 0.456281 1.5843200949324314e-38
13.164083 22.660245 90.574957 0.454378 0.765081 0.456281 1.5843200949324314e-38
12.781687 22.758873 90.625856 0.435390 0.776043 0.456281 1.5843200949324314e-38
12.348763 23.337704 90.465602 0.416138 0.786535 0.456281 1.5843200949324314e-38
11.769238 23.708856 89.837983 0.396634 0.796548 0.456281 1.5843200949324314e-38
10.956133 24.530034 89.997198 0.376889 0.806079 0.456281 1.5843200949324314e-38
10.634583 24.762743 90.515316 0.356915 0.815120 0.456281 1.5843200949324314e-38
18.185937 18.719503 91.266925 0.593507 0.597174 0.539567 1.5843200949324314e-38
17.761761 18.699124 91.622801 0.578614 0.611616 0.539567 1.5843200949324314e-38
17.057575 18.457748 91.750114 0.563370 0.625686 0.539567 1.5843200949324314e-38
16.766940 19.302296 91.395849 0.547783 0.639376 0.539567 1.5843200949324314e-38
15.913284 19.400944 91.858008 0.531865 0.652677 0.539567 1.5843200949324314e-38
15.938878 19.947697 92.303810 0.515623 0.665583 0.539567 1.5843200949324314e-38
14.923126 20.949755 91.547513 0.499068 0.678085 0.539567 1.5843200949324314e-38
14.366783 21.209987 91.491059 0.482210 0.690175 0.539567 1.5843200949324314e-38
14.030128 21.857718 91.733559 0.465060 0.701846 0.539567 1.5843200949324314e-38
13.903895 21.741252 91.652037 0.447627 0.713090 0.539567 1.5843200949324314e-38
13.138675 22.286217 91.254932 0.429922 0.723902 0.539567 1.5843200949324314e-38
11.885111 22.860477 91.541967 0.411957 0.734275 0.539567 1.5843200949324314e-38
12.211857 22.551853 91.479265 0.393741 0.744201 0.539567 1.5843200949324314e-38
11.932097 23.156083 92.207804 0.375286 0.753676 0.539567 1.5843200949324314e-38
11.172180 23.122222 91.678881 0.356604 0.762694 0.539567 1.5843200949324314e-38
18.148733 17.648484 93.201365 0.579752 0.555278 0.596283 1.5843200949324314e-38
17.711689 17.867146 92.393795 0.565896 0.569393 0.596283 1.5843200949324314e-38
16.895671 17.689757 93.092656 0.551696 0.583162 0.596283 1.5843200949324314e-38
16.765815 18.526733 93.246567 0.537161 0.596577 0.596283 1.5843200949324314e-38
16.353559 19.240943 93.010407 0.522299 0.609631 0.596283 1.5843200949324314e-38
15.977714 18.979909 93.075776 0.507121 0.622314 0.596283 1.5843200949324314e-38
15.383405 19.551517 92.988849 0.491635 0.634619 0.596283 1.5843200949324314e-38
15.137867 20.014272 92.558635 0.475850 0.646539 0.596283 1.5843200949324314e-38
14.042782 19.982524 92.732922 0.459777 0.658066 0.596283 1.5843200949324314e-38
13.923916 21.266195 92.541771 0.443424 0.669194 0.596283 1.5843200949324314e-38
13.339321 21.085265 92.780925 0.426802 0.679916 0.596283 1.5843200949324314e-38
12.249272 21.094810 93.327897 0.409921 0.690225 0.596283 1.5843200949324314e-38
12.479941 21.789524 92.922063 0.392792 0.700115 0.596283 1.5843200949324314e-38
11.861749 21.863622 92.661373 0.375423 0.709580 0.596283 1.5843200949324314e-38
10.908451 22.328830 92.438324 0.357827 0.718614 0.596283 1.5843200949324314e-38
17.369002 16.372780 94.110960 0.559987 0.536346 0.631464 1.5843200949324314e-38
17.367106 16.849545 94.203653 0.546603 0.549980 0.631464 1.5843200949324314e-38
17.041129 17.455547 93.873428 0.532887 0.563280 0.631464 1.5843200949324314e-38
15.855667 17.151485 93.657187 0.518847 0.576238 0.631464 1.5843200949324314e-38
15.664775 18.456504 93.892788 0.504493 0.588846 0.631464 1.5843200949324314e-38
15.398108 18.811707 93.789382 0.489832 0.601097 0.631464 1.5843200949324314e-38
14.470832 18.506307 94.243802 0.474874 0.612983 0.631464 1.5843200949324314e-38
14.180345 19.531642 94.002708 0.459627 0.624496 0.631464 1.5843200949324314e-38
13.418098 19.842753 93.426164 0.444102 0.635631 0.631464 1.5843200949324314e-38
13.111862 19.708113 94.478282 0.428307 0.646379 0.631464 1.5843200949324314e-38
13.242635 20.386843 93.846971 0.412251 0.656736 0.631464 1.5843200949324314e-38
12.731045 20.357566 93.605398 0.395946 0.666693 0.631464 1.5843200949324314e-38
11.108130 20.892479 93.506123 0.379400 0.676246 0.631464 1.5843200949324314e-38
11.612394 20.969672 93.634702 0.362624 0.685388 0.631464 1.5843200949324314e-38
10.997104 21.675762 94.519643 0.345628 0.694114 0.631464 1.5843200949324314e-38
16.819662 15.626896 95.454898 0.549529 0.526330 0.648841 1.5843200949324314e-38
16.018759 15.937002 95.136155 0.536395 0.539709 0.648841 1.5843200949324314e-38
16.318514 16.275437 95.555188 0.522935 0.552761 0.648841 1.5843200949324314e-38
15.565845 16.952345 95.092102 0.509158 0.565477 0.648841 1.5843200949324314e-38
14.515589 17.766374 94.900834 0.495071 0.577850 0.648841 1.5843200949324314e-38
13.620872 17.833751 94.852504 0.480684 0.589872 0.648841 1.5843200949324314e-38
13.982969 17.689034 95.083336 0.466005 0.601535 0.648841 1.5843200949324314e-38
13.586710 18.513461 95.659363 0.451044 0.612834 0.648841 1.5843200949324314e-38
13.108072 18.792785 95.185787 0.435808 0.623760 0.648841 1.5843200949324314e-38
12.918645 18.738568 95.126462 0.420308 0.634308 0.648841 1.5843200949324314e-38
12.167208 19.111689 95.676464 0.404553 0.644471 0.648841 1.5843200949324314e-38
11.781890 19.309735 95.380234 0.388552 0.654243 0.648841 1.5843200949324314e-38
11.591017 19.743479 95.666219 0.372315 0.663617 0.648841 1.5843200949324314e-38
10.779911 20.289719 95.617250 0.355852 0.672588 0.648841 1.5843200949324314e-38
15.558967 15.369775 96.211065 0.535465 0.538774 0.650385 1.5843200949324314e-38
15.409768 16.059749 96.791021 0.522028 0.551803 0.650385 1.5843200949324314e-38
14.496939 15.970518 96.335020 0.508275 0.564497 0.650385 1.5843200949324314e-38
13.742897 16.473942 96.292240 0.494213 0.576848 0.650385 1.5843200949324314e-38
13.764021 16.933829 96.522057 0.479851 0.588849 0.650385 1.5843200949324314e-38
13.190695 16.897195 96.062188 0.465197 0.600492 0.650385 1.5843200949324314e-38
12.995768 17.618350 96.077223 0.450262 0.611771 0.650385 1.5843200949324314e-38
12.928100 18.141571 96.188399 0.435052 0.622679 0.650385 1.5843200949324314e-38
12.135219 18.152629 96.573921 0.419579 0.633209 0.650385 1.5843200949324314e-38
11.655267 18.686684 96.938601 0.403851 0.643354 0.650385 1.5843200949324314e-38
11.234473 18.925342 96.934293 0.387878 0.653108 0.650385 1.5843200949324314e-38
10.517648 18.754417 96.696431 0.371669 0.662466 0.650385 1.5843200949324314e-38
14.565954 14.785547 97.527243 0.543824 0.547184 0.636275 1.5843200949324314e-38
14.023517 14.738791 97.195569 0.530177 0.560416 0.636275 1.5843200949324314e-38
13.701983 15.605705 97.672646 0.516209 0.573308 0.636275 1.5843200949324314e-38
13.524825 15.660568 98.311624 0.501928 0.585852 0.636275 1.5843200949324314e-38
13.177902 15.939708 97.414905 0.487341 0.598041 0.636275 1.5843200949324314e-38
13.241294 16.008299 97.493533 0.472459 0.609866 0.636275 1.5843200949324314e-38
12.080457 16.727041 97.838474 0.457290 0.621321 0.636275 1.5843200949324314e-38
11.923132 16.926478 97.312805 0.441844 0.632399 0.636275 1.5843200949324314e-38
12.036253 17.403425 97.902242 0.426129 0.643093 0.636275 1.5843200949324314e-38
10.846159 17.512381 98.083815 0.410155 0.653396 0.636275 1.5843200949324314e-38
9.950392 18.097437 97.657852 0.393933 0.663303 0.636275 1.5843200949324314e-38
13.401322 14.558927 99.213701 0.547248 0.578461 0.604899 1.5843200949324314e-38
13.265253 14.657361 99.465107 0.532830 0.591768 0.604899 1.5843200949324314e-38
12.945172 14.717871 99.005117 0.518089 0.604716 0.604899 1.5843200949324314e-38
12.466541 15.216382 98.464711 0.503033 0.617297 0.604899 1.5843200949324314e-38
12.122955 15.826213 99.194213 0.487672 0.629503 0.604899 1.5843200949324314e-38
11.739125 15.956105 98.801089 0.472014 0.641327 0.604899 1.5843200949324314e-38
11.629762 15.873011 98.812763 0.456070 0.652761 0.604899 1.5843200949324314e-38
10.694310 16.470673 99.362905 0.439849 0.663799 0.604899 1.5843200949324314e-38
10.169814 16.852389 99.059534 0.423362 0.674435 0.604899 1.5843200949324314e-38
12.813860 14.306231 100.324983 0.542142 0.632790 0.552864 1.5843200949324314e-38
11.925158 14.886899 100.117871 0.526387 0.645955 0.552864 1.5843200949324314e-38
11.562024 15.444629 100.549407 0.510312 0.658728 0.552864 1.5843200949324314e-38
11.004680 15.034353 100.027372 0.493928 0.671101 0.552864 1.5843200949324314e-38
10.496319 15.339965 100.169737 0.477244 0.683066 0.552864 1.5843200949324314e-38
10.216139 15.921298 99.704116 0.460270 0.694617 0.552864 1.5843200949324314e-38
