# .PCD v0.7 - Point Cloud Data file format
VERSION 0.7
FIELDS x y z normal_x normal_y normal_z rgb
SIZE 4 4 4 4 4 4 4
TYPE F F F F F F F
COUNT 1 1 1 1 1 1 1
WIDTH 243
HEIGHT 1
VIEWPOINT 0 0 0 1 0 0 0
POINTS 243
DATA ascii
44.792832 -4.705155 33.363066 0.995147 -0.098400 0.000000 1.5843200949324314e-38
45.343379 -3.275362 33.330925 0.997269 -0.073853 0.000000 1.5843200949324314e-38
44.945787 -7.859331 34.462151 0.985162 -0.171626 0.000000 1.5843200949324314e-38
44.793958 -6.319689 34.622866 0.989092 -0.147302 0.000000 1.5843200949324314e-38
45.591717 -5.747680 34.704345 0.992421 -0.122888 0.000000 1.5843200949324314e-38
45.028041 -3.842890 34.693087 0.995147 -0.098400 0.000000 1.5843200949324314e-38
45.892789 -3.477339 35.097449 0.997269 -0.073853 0.000000 1.5843200949324314e-38
45.358598 -1.984335 34.273262 0.998786 -0.049260 0.000000 1.5843200949324314e-38
43.939775 -11.314913 35.740166 0.969797 -0.243914 0.000000 1.5843200949324314e-38
44.423966 -9.612251 36.162969 0.975512 -0.219946 0.000000 1.5843200949324314e-38
44.980772 -8.873893 35.530205 0.980635 -0.195845 0.000000 1.5843200949324314e-38
44.664779 -7.803106 35.515959 0.985162 -0.171626 0.000000 1.5843200949324314e-38
45.166060 -6.471293 36.039892 0.989092 -0.147302 0.000000 1.5843200949324314e-38
45.378127 -6.160148 36.276295 0.992421 -0.122888 0.000000 1.5843200949324314e-38
44.880602 -4.530120 36.061852 0.995147 -0.098400 0.000000 1.5843200949324314e-38
45.555112 -3.748957 35.546791 0.997269 -0.073853 0.000000 1.5843200949324314e-38
45.602779 -2.091620 35.544128 0.998786 -0.049260 0.000000 1.5843200949324314e-38
42.855819 -15.941424 37.334370 0.941089 -0.338158 0.000000 1.5843200949324314e-38
43.684034 -14.423817 37.245837 0.949135 -0.314870 0.000000 1.5843200949324314e-38
44.046962 -13.306640 37.531485 0.956604 -0.291390 0.000000 1.5843200949324314e-38
43.792254 -12.358827 36.973079 0.963493 -0.267733 0.000000 1.5843200949324314e-38
44.582090 -11.594252 37.547794 0.969797 -0.243914 0.000000 1.5843200949324314e-38
44.818029 -9.541927 37.101231 0.975512 -0.219946 0.000000 1.5843200949324314e-38
44.718874 -8.766778 37.422572 0.980635 -0.195845 0.000000 1.5843200949324314e-38
44.876867 -8.454642 36.565522 0.985162 -0.171626 0.000000 1.5843200949324314e-38
45.349457 -6.279989 36.723150 0.989092 -0.147302 0.000000 1.5843200949324314e-38
45.341697 -5.729172 37.689562 0.992421 -0.122888 0.000000 1.5843200949324314e-38
46.225804 -4.376477 37.382802 0.995147 -0.098400 0.000000 1.5843200949324314e-38
45.906391 -3.764350 37.322959 0.997269 -0.073853 0.000000 1.5843200949324314e-38
45.408875 -2.306104 37.455323 0.998786 -0.049260 0.000000 1.5843200949324314e-38
45.780709 -0.796915 37.503181 0.999696 -0.024637 0.000000 1.5843200949324314e-38
41.785546 -18.854583 38.415500 0.913545 -0.406737 0.000000 1.5843200949324314e-38
42.140138 -17.839741 38.510696 0.923289 -0.384106 0.000000 1.5843200949324314e-38
42.861487 -16.750560 38.079595 0.932472 -0.361242 0.000000 1.5843200949324314e-38
42.960826 -15.585710 38.958259 0.941089 -0.338158 0.000000 1.5843200949324314e-38
43.804410 -14.875390 38.562680 0.949135 -0.314870 0.000000 1.5843200949324314e-38
43.750403 -13.397547 38.173857 0.956604 -0.291390 0.000000 1.5843200949324314e-38
44.901592 -12.648748 38.444599 0.963493 -0.267733 0.000000 1.5843200949324314e-38
44.378973 -10.991821 38.438552 0.969797 -0.243914 0.000000 1.5843200949324314e-38
45.223674 -9.896180 38.142455 0.975512 -0.219946 0.000000 1.5843200949324314e-38
45.957680 -8.836995 38.185317 0.980635 -0.195845 0.000000 1.5843200949324314e-38
45.352623 -7.700914 38.528354 0.985162 -0.171626 0.000000 1.5843200949324314e-38
45.620415 -6.481971 38.610967 0.989092 -0.147302 0.000000 1.5843200949324314e-38
45.370376 -5.017139 38.941182 0.992421 -0.122888 0.000000 1.5843200949324314e-38
45.990277 -4.512157 38.367281 0.995147 -0.098400 0.000000 1.5843200949324314e-38
45.750425 -3.453545 37.694480 0.997269 -0.073853 0.000000 1.5843200949324314e-38
46.376366 -1.911396 37.847509 0.998786 -0.049260 0.000000 1.5843200949324314e-38
46.226140 -1.134974 38.290802 0.999696 -0.024637 0.000000 1.5843200949324314e-38
46.327951 -0.522836 39.584254 1.000000 0.000000 0.000000 1.5843200949324314e-38
40.939095 -21.719750 39.309276 0.881012 -0.473094 0.000000 1.5843200949324314e-38
41.448010 -21.342047 39.491502 0.892401 -0.451244 0.000000 1.5843200949324314e-38
41.369430 -20.073963 40.165605 0.903247 -0.429121 0.000000 1.5843200949324314e-38
41.746417 -19.028897 39.740749 0.913545 -0.406737 0.000000 1.5843200949324314e-38
42.496581 -17.691374 40.016494 0.923289 -0.384106 0.000000 1.5843200949324314e-38
43.258048 -16.822781 39.547513 0.932472 -0.361242 0.000000 1.5843200949324314e-38
43.618776 -15.425686 39.593855 0.941089 -0.338158 0.000000 1.5843200949324314e-38
43.939328 -14.432234 39.559961 0.949135 -0.314870 0.000000 1.5843200949324314e-38
43.994515 -13.233629 39.675168 0.956604 -0.291390 0.000000 1.5843200949324314e-38
43.869915 -12.611687 39.443427 0.963493 -0.267733 0.000000 1.5843200949324314e-38
44.724979 -10.902776 40.548327 0.969797 -0.243914 0.000000 1.5843200949324314e-38
44.311593 -10.065823 39.608505 0.975512 -0.219946 0.000000 1.5843200949324314e-38
45.231664 -8.881281 39.632565 0.980635 -0.195845 0.000000 1.5843200949324314e-38
45.386459 -7.916918 39.754599 0.985162 -0.171626 0.000000 1.5843200949324314e-38
45.814790 -6.745817 39.412595 0.989092 -0.147302 0.000000 1.5843200949324314e-38
46.675820 -5.567139 39.816368 0.992421 -0.122888 0.000000 1.5843200949324314e-38
45.803642 -4.487262 39.642111 0.995147 -0.098400 0.000000 1.5843200949324314e-38
45.480404 -3.625515 39.367086 0.997269 -0.073853 0.000000 1.5843200949324314e-38
45.943899 -2.595781 39.600786 0.998786 -0.049260 0.000000 1.5843200949324314e-38
46.585288 -1.098613 39.233248 0.999696 -0.024637 0.000000 1.5843200949324314e-38
46.081834 -0.113115 40.400060 1.000000 0.000000 0.000000 1.5843200949324314e-38
38.627377 -26.027145 40.980634 0.830184 -0.557489 0.000000 1.5843200949324314e-38
39.284368 -25.083918 40.208929 0.843667 -0.536867 0.000000 1.5843200949324314e-38
39.666340 -24.368840 40.848333 0.856638 -0.515918 0.000000 1.5843200949324314e-38
40.241025 -23.124030 40.436074 0.869089 -0.494656 0.000000 1.5843200949324314e-38
41.227166 -22.083438 41.530748 0.881012 -0.473094 0.000000 1.5843200949324314e-38
41.409928 -20.828234 40.836506 0.892401 -0.451244 0.000000 1.5843200949324314e-38
42.005108 -19.579573 41.156010 0.903247 -0.429121 0.000000 1.5843200949324314e-38
41.850401 -18.612313 40.973884 0.913545 -0.406737 0.000000 1.5843200949324314e-38
42.843170 -17.305325 41.350572 0.923289 -0.384106 0.000000 1.5843200949324314e-38
43.529796 -16.921460 40.466997 0.932472 -0.361242 0.000000 1.5843200949324314e-38
43.884491 -15.279676 40.216145 0.941089 -0.338158 0.000000 1.5843200949324314e-38
44.357308 -14.683608 40.282041 0.949135 -0.314870 0.000000 1.5843200949324314e-38
44.518755 -13.245076 40.719338 0.956604 -0.291390 0.000000 1.5843200949324314e-38
44.380306 -11.906803 40.624151 0.963493 -0.267733 0.000000 1.5843200949324314e-38
45.337794 -11.769342 40.949544 0.969797 -0.243914 0.000000 1.5843200949324314e-38
45.371331 -9.941530 41.272637 0.975512 -0.219946 0.000000 1.5843200949324314e-38
45.248642 -8.929255 40.414772 0.980635 -0.195845 0.000000 1.5843200949324314e-38
45.289391 -8.135405 40.947540 0.985162 -0.171626 0.000000 1.5843200949324314e-38
46.388113 -6.275805 40.718275 0.989092 -0.147302 0.000000 1.5843200949324314e-38
46.131145 -5.418022 41.054357 0.992421 -0.122888 0.000000 1.5843200949324314e-38
46.115128 -4.542066 40.791688 0.995147 -0.098400 0.000000 1.5843200949324314e-38
46.201907 -3.528524 40.788845 0.997269 -0.073853 0.000000 1.5843200949324314e-38
46.213042 -2.625848 41.083516 0.998786 -0.049260 0.000000 1.5843200949324314e-38
46.531901 -0.579980 40.935598 0.999696 -0.024637 0.000000 1.5843200949324314e-38
46.480809 -0.187931 42.076065 1.000000 0.000000 0.000000 1.5843200949324314e-38
46.757613 1.074837 41.620778 0.999696 0.024637 0.000000 1.5843200949324314e-38
38.021276 -26.840646 42.035552 0.816197 -0.577774 0.000000 1.5843200949324314e-38
38.949592 -25.826346 42.271848 0.830184 -0.557489 0.000000 1.5843200949324314e-38
39.262311 -25.210617 42.261375 0.843667 -0.536867 0.000000 1.5843200949324314e-38
40.389788 -23.713010 42.536353 0.856638 -0.515918 0.000000 1.5843200949324314e-38
40.553280 -23.344877 41.797500 0.869089 -0.494656 0.000000 1.5843200949324314e-38
41.474235 -22.607533 42.513283 0.881012 -0.473094 0.000000 1.5843200949324314e-38
41.354840 -20.453617 42.040675 0.892401 -0.451244 0.000000 1.5843200949324314e-38
42.313417 -19.284037 41.962811 0.903247 -0.429121 0.000000 1.5843200949324314e-38
42.472526 -19.164778 41.761321 0.913545 -0.406737 0.000000 1.5843200949324314e-38
42.931770 -18.068045 41.686779 0.923289 -0.384106 0.000000 1.5843200949324314e-38
43.395561 -16.701056 41.793084 0.932472 -0.361242 0.000000 1.5843200949324314e-38
43.811574 -15.338218 41.635996 0.941089 -0.338158 0.000000 1.5843200949324314e-38
44.814786 -14.876987 42.122127 0.949135 -0.314870 0.000000 1.5843200949324314e-38
44.967156 -13.105179 42.202802 0.956604 -0.291390 0.000000 1.5843200949324314e-38
44.696111 -12.712780 41.889388 0.963493 -0.267733 0.000000 1.5843200949324314e-38
45.765033 -11.482761 42.158944 0.969797 -0.243914 0.000000 1.5843200949324314e-38
45.151483 -10.597701 42.069773 0.975512 -0.219946 0.000000 1.5843200949324314e-38
45.605940 -9.203065 41.618135 0.980635 -0.195845 0.000000 1.5843200949324314e-38
45.892324 -7.533988 41.805944 0.985162 -0.171626 0.000000 1.5843200949324314e-38
46.366732 -7.904437 41.821152 0.989092 -0.147302 0.000000 1.5843200949324314e-38
45.679531 -5.356458 42.325489 0.992421 -0.122888 0.000000 1.5843200949324314e-38
46.069415 -4.499250 42.422368 0.995147 -0.098400 0.000000 1.5843200949324314e-38
46.885782 -3.563701 41.399199 0.997269 -0.073853 0.000000 1.5843200949324314e-38
46.279755 -2.065960 42.691524 0.998786 -0.049260 0.000000 1.5843200949324314e-38
46.575453 -1.330297 42.781664 0.999696 -0.024637 0.000000 1.5843200949324314e-38
46.945969 -0.368330 43.263297 1.000000 0.000000 0.000000 1.5843200949324314e-38
47.110014 1.132518 43.537277 0.999696 0.024637 0.000000 1.5843200949324314e-38
38.185336 -27.172722 43.789007 0.816197 -0.577774 0.000000 1.5843200949324314e-38
38.037481 -26.085197 43.427971 0.830184 -0.557489 0.000000 1.5843200949324314e-38
40.066186 -25.636545 43.172928 0.843667 -0.536867 0.000000 1.5843200949324314e-38
39.704152 -24.696948 43.237611 0.856638 -0.515918 0.000000 1.5843200949324314e-38
40.944365 -22.800098 43.139407 0.869089 -0.494656 0.000000 1.5843200949324314e-38
41.452692 -22.211566 43.465941 0.881012 -0.473094 0.000000 1.5843200949324314e-38
42.132330 -21.187433 43.622061 0.892401 -0.451244 0.000000 1.5843200949324314e-38
41.929964 -19.896297 43.609071 0.903247 -0.429121 0.000000 1.5843200949324314e-38
43.055143 -19.400644 43.237226 0.913545 -0.406737 0.000000 1.5843200949324314e-38
43.322972 -17.852548 43.333732 0.923289 -0.384106 0.000000 1.5843200949324314e-38
44.091068 -17.303564 43.226894 0.932472 -0.361242 0.000000 1.5843200949324314e-38
43.559466 -15.647633 43.465355 0.941089 -0.338158 0.000000 1.5843200949324314e-38
45.447112 -14.435624 43.398379 0.949135 -0.314870 0.000000 1.5843200949324314e-38
44.868752 -13.739089 43.338115 0.956604 -0.291390 0.000000 1.5843200949324314e-38
45.197718 -13.125825 43.358043 0.963493 -0.267733 0.000000 1.5843200949324314e-38
45.440316 -10.894873 43.259468 0.969797 -0.243914 0.000000 1.5843200949324314e-38
45.447952 -10.218263 43.321273 0.975512 -0.219946 0.000000 1.5843200949324314e-38
45.878307 -9.554014 43.252163 0.980635 -0.195845 0.000000 1.5843200949324314e-38
45.955724 -8.101188 43.518615 0.985162 -0.171626 0.000000 1.5843200949324314e-38
46.111118 -6.963661 43.461331 0.989092 -0.147302 0.000000 1.5843200949324314e-38
46.388524 -4.971396 43.373629 0.992421 -0.122888 0.000000 1.5843200949324314e-38
46.224438 -4.859310 43.016989 0.995147 -0.098400 0.000000 1.5843200949324314e-38
46.448872 -3.296996 42.967016 0.997269 -0.073853 0.000000 1.5843200949324314e-38
46.668042 -1.963736 43.143037 0.998786 -0.049260 0.000000 1.5843200949324314e-38
47.011482 -1.658521 43.187785 0.999696 -0.024637 0.000000 1.5843200949324314e-38
46.780148 0.089931 44.225649 1.000000 0.000000 0.000000 1.5843200949324314e-38
47.652548 0.667276 44.876817 0.999696 0.024637 0.000000 1.5843200949324314e-38
38.503781 -27.327323 44.488529 0.816197 -0.577774 0.000000 1.5843200949324314e-38
39.542442 -26.616186 44.535343 0.830184 -0.557489 0.000000 1.5843200949324314e-38
39.356869 -25.055084 44.318064 0.843667 -0.536867 0.000000 1.5843200949324314e-38
40.312898 -24.669234 44.923544 0.856638 -0.515918 0.000000 1.5843200949324314e-38
40.908936 -23.230215 44.784801 0.869089 -0.494656 0.000000 1.5843200949324314e-38
41.072617 -22.441634 44.587099 0.881012 -0.473094 0.000000 1.5843200949324314e-38
41.455220 -21.725585 44.289704 0.892401 -0.451244 0.000000 1.5843200949324314e-38
42.151807 -20.291538 44.692812 0.903247 -0.429121 0.000000 1.5843200949324314e-38
43.203561 -18.592481 44.529295 0.913545 -0.406737 0.000000 1.5843200949324314e-38
43.483304 -18.078077 44.632163 0.923289 -0.384106 0.000000 1.5843200949324314e-38
43.988535 -16.718315 44.811545 0.932472 -0.361242 0.000000 1.5843200949324314e-38
44.430230 -15.455919 44.544110 0.941089 -0.338158 0.000000 1.5843200949324314e-38
44.469468 -14.947747 44.504332 0.949135 -0.314870 0.000000 1.5843200949324314e-38
44.679256 -13.892712 44.194131 0.956604 -0.291390 0.000000 1.5843200949324314e-38
45.431621 -12.489602 44.005408 0.963493 -0.267733 0.000000 1.5843200949324314e-38
45.428776 -10.927592 44.725016 0.969797 -0.243914 0.000000 1.5843200949324314e-38
46.030170 -10.546857 44.622267 0.975512 -0.219946 0.000000 1.5843200949324314e-38
46.130524 -9.452756 44.387946 0.980635 -0.195845 0.000000 1.5843200949324314e-38
46.206499 -8.520892 44.139012 0.985162 -0.171626 0.000000 1.5843200949324314e-38
46.472896 -7.184345 44.445807 0.989092 -0.147302 0.000000 1.5843200949324314e-38
46.207652 -5.540996 45.160226 0.992421 -0.122888 0.000000 1.5843200949324314e-38
47.125833 -4.290172 44.723919 0.995147 -0.098400 0.000000 1.5843200949324314e-38
46.997133 -3.448504 44.261724 0.997269 -0.073853 0.000000 1.5843200949324314e-38
47.195834 -2.128267 44.397180 0.998786 -0.049260 0.000000 1.5843200949324314e-38
47.189452 -1.367275 44.347006 0.999696 -0.024637 0.000000 1.5843200949324314e-38
47.503245 0.129158 45.703613 1.000000 0.000000 0.000000 1.5843200949324314e-38
47.152064 1.217062 45.222576 0.999696 0.024637 0.000000 1.5843200949324314e-38
39.026021 -27.390721 45.804135 0.816197 -0.577774 0.000000 1.5843200949324314e-38
39.711659 -26.758372 45.458164 0.830184 -0.557489 0.000000 1.5843200949324314e-38
39.782783 -25.420057 46.565817 0.843667 -0.536867 0.000000 1.5843200949324314e-38
40.227474 -24.779078 45.492445 0.856638 -0.515918 0.000000 1.5843200949324314e-38
41.152094 -23.235124 45.561070 0.869089 -0.494656 0.000000 1.5843200949324314e-38
41.652385 -21.779909 45.783746 0.881012 -0.473094 0.000000 1.5843200949324314e-38
42.280709 -20.763932 45.563788 0.892401 -0.451244 0.000000 1.5843200949324314e-38
42.468116 -20.425742 45.614823 0.903247 -0.429121 0.000000 1.5843200949324314e-38
42.637641 -19.185333 45.838278 0.913545 -0.406737 0.000000 1.5843200949324314e-38
43.588777 -18.082711 45.850629 0.923289 -0.384106 0.000000 1.5843200949324314e-38
43.683782 -16.989559 45.940749 0.932472 -0.361242 0.000000 1.5843200949324314e-38
44.006829 -15.546048 45.402457 0.941089 -0.338158 0.000000 1.5843200949324314e-38
44.524814 -14.823523 45.933606 0.949135 -0.314870 0.000000 1.5843200949324314e-38
45.452674 -13.605903 45.617285 0.956604 -0.291390 0.000000 1.5843200949324314e-38
45.577576 -12.750931 45.825474 0.963493 -0.267733 0.000000 1.5843200949324314e-38
45.863530 -11.681448 45.669031 0.969797 -0.243914 0.000000 1.5843200949324314e-38
45.557485 -10.147982 45.862463 0.975512 -0.219946 0.000000 1.5843200949324314e-38
45.663301 -9.019807 45.757288 0.980635 -0.195845 0.000000 1.5843200949324314e-38
46.288275 -8.420496 45.566729 0.985162 -0.171626 0.000000 1.5843200949324314e-38
46.475608 -7.202213 46.283386 0.989092 -0.147302 0.000000 1.5843200949324314e-38
47.023763 -5.198214 45.840917 0.992421 -0.122888 0.000000 1.5843200949324314e-38
47.215084 -4.915663 45.722787 0.995147 -0.098400 0.000000 1.5843200949324314e-38
47.117121 -3.305034 45.758351 0.997269 -0.073853 0.000000 1.5843200949324314e-38
47.318724 -2.233894 45.682339 0.998786 -0.049260 0.000000 1.5843200949324314e-38
47.134657 -1.365328 46.097887 0.999696 -0.024637 0.000000 1.5843200949324314e-38
47.407627 0.098669 46.963343 1.000000 0.000000 0.000000 1.5843200949324314e-38
39.008625 -27.439015 47.419454 0.816197 -0.577774 0.000000 1.5843200949324314e-38
39.679402 -26.192899 46.728754 0.830184 -0.557489 0.000000 1.5843200949324314e-38
40.151776 -26.050788 47.430616 0.843667 -0.536867 0.000000 1.5843200949324314e-38
40.501903 -24.650660 46.600100 0.856638 -0.515918 0.000000 1.5843200949324314e-38
41.269415 -23.575815 47.557119 0.869089 -0.494656 0.000000 1.5843200949324314e-38
42.104402 -22.625562 46.510439 0.881012 -0.473094 0.000000 1.5843200949324314e-38
41.702460 -21.741227 46.610944 0.892401 -0.451244 0.000000 1.5843200949324314e-38
43.007342 -20.426008 47.015507 0.903247 -0.429121 0.000000 1.5843200949324314e-38
43.107231 -19.273712 46.584187 0.913545 -0.406737 0.000000 1.5843200949324314e-38
43.828225 -17.995318 46.900679 0.923289 -0.384106 0.000000 1.5843200949324314e-38
44.423992 -17.751445 46.393184 0.932472 -0.361242 0.000000 1.5843200949324314e-38
44.798371 -15.747857 46.938839 0.941089 -0.338158 0.000000 1.5843200949324314e-38
45.725913 -15.388807 46.806314 0.949135 -0.314870 0.000000 1.5843200949324314e-38
45.479166 -13.701222 46.835138 0.956604 -0.291390 0.000000 1.5843200949324314e-38
45.446562 -12.530799 47.050281 0.963493 -0.267733 0.000000 1.5843200949324314e-38
45.960375 -11.435857 46.969405 0.969797 -0.243914 0.000000 1.5843200949324314e-38
46.293293 -10.500064 46.763992 0.975512 -0.219946 0.000000 1.5843200949324314e-38
46.301717 -9.460049 47.019931 0.980635 -0.195845 0.000000 1.5843200949324314e-38
46.232205 -7.868514 47.015842 0.985162 -0.171626 0.000000 1.5843200949324314e-38
46.660699 -6.511610 47.022847 0.989092 -0.147302 0.000000 1.5843200949324314e-38
46.737799 -5.365476 47.416770 0.992421 -0.122888 0.000000 1.5843200949324314e-38
46.995209 -4.770746 46.873033 0.995147 -0.098400 0.000000 1.5843200949324314e-38
46.801806 -3.410467 47.263853 0.997269 -0.073853 0.000000 1.5843200949324314e-38
47.637760 -2.329940 47.292957 0.998786 -0.049260 0.000000 1.5843200949324314e-38
47.143335 -0.624754 46.778685 0.999696 -0.024637 0.000000 1.5843200949324314e-38
39.628375 -26.626361 48.608956 0.830184 -0.557489 0.000000 1.5843200949324314e-38
40.237352 -25.924660 48.715218 0.843667 -0.536867 0.000000 1.5843200949324314e-38
40.002765 -24.612509 48.312705 0.856638 -0.515918 0.000000 1.5843200949324314e-38
41.477334 -23.459215 48.280630 0.869089 -0.494656 0.000000 1.5843200949324314e-38
42.199398 -22.760770 47.809707 0.881012 -0.473094 0.000000 1.5843200949324314e-38
42.579146 -21.845216 48.028865 0.892401 -0.451244 0.000000 1.5843200949324314e-38
43.459191 -20.013937 48.590235 0.903247 -0.429121 0.000000 1.5843200949324314e-38
43.889483 -19.394995 48.552056 0.913545 -0.406737 0.000000 1.5843200949324314e-38
44.174005 -17.748592 47.971992 0.923289 -0.384106 0.000000 1.5843200949324314e-38
44.707399 -17.620856 48.450927 0.932472 -0.361242 0.000000 1.5843200949324314e-38
44.401164 -16.503892 47.862636 0.941089 -0.338158 0.000000 1.5843200949324314e-38
45.376545 -14.921935 48.982566 0.949135 -0.314870 0.000000 1.5843200949324314e-38
45.630026 -13.675870 48.295684 0.956604 -0.291390 0.000000 1.5843200949324314e-38
46.192872 -12.735429 48.577308 0.963493 -0.267733 0.000000 1.5843200949324314e-38
45.971272 -12.375908 48.372644 0.969797 -0.243914 0.000000 1.5843200949324314e-38
