# .PCD v0.7 - Point Cloud Data file format
VERSION 0.7
FIELDS x y z normal_x normal_y normal_z rgb
SIZE 4 4 4 4 4 4 4
TYPE F F F F F F F
COUNT 1 1 1 1 1 1 1
WIDTH 290
HEIGHT 1
VIEWPOINT 0 0 0 1 0 0 0
POINTS 290
DATA ascii
34.162221 -22.845891 61.686317 0.652988 -0.438498 0.617516 1.5197831540281055e-38
32.517049 -22.871243 62.580326 0.639343 -0.452582 0.621619 1.5197831540281055e-38
32.718867 -22.158408 63.049728 0.650300 -0.436692 0.621619 1.5197831540281055e-38
33.777339 -20.677980 63.277240 0.660861 -0.420538 0.621619 1.5197831540281055e-38
31.718949 -22.090052 64.402630 0.638594 -0.452051 0.622774 1.5197831540281055e-38
32.356723 -21.709551 64.485452 0.649537 -0.436181 0.622774 1.5197831540281055e-38
33.046512 -20.548369 64.732724 0.660086 -0.420045 0.622774 1.5197831540281055e-38
33.510898 -20.304886 64.545651 0.670235 -0.403655 0.622774 1.5197831540281055e-38
33.397748 -19.449013 64.244201 0.679977 -0.387019 0.622774 1.5197831540281055e-38
30.504712 -21.215281 65.487337 0.639741 -0.452864 0.621004 1.5197831540281055e-38
31.324445 -21.444409 66.335974 0.650705 -0.436965 0.621004 1.5197831540281055e-38
31.517052 -20.572819 65.548656 0.661273 -0.420800 0.621004 1.5197831540281055e-38
31.996279 -19.321797 65.113517 0.671440 -0.404380 0.621004 1.5197831540281055e-38
33.074081 -18.348532 65.531406 0.681199 -0.387715 0.621004 1.5197831540281055e-38
32.685382 -18.062054 65.585768 0.690544 -0.370814 0.621004 1.5197831540281055e-38
29.995159 -22.439065 66.591794 0.631376 -0.470714 0.616273 1.5197831540281055e-38
29.519168 -20.957737 66.966007 0.642782 -0.455016 0.616273 1.5197831540281055e-38
30.092997 -20.154483 66.594561 0.653797 -0.439041 0.616273 1.5197831540281055e-38
31.069328 -19.510351 66.730662 0.664415 -0.422800 0.616273 1.5197831540281055e-38
31.701977 -18.971637 66.905744 0.674630 -0.406302 0.616273 1.5197831540281055e-38
31.803590 -18.708795 66.767063 0.684436 -0.389558 0.616273 1.5197831540281055e-38
32.061178 -16.939553 66.394871 0.693826 -0.372577 0.616273 1.5197831540281055e-38
33.108609 -16.609233 66.925984 0.702794 -0.355369 0.616273 1.5197831540281055e-38
28.485675 -21.414194 68.200617 0.636207 -0.474316 0.608494 1.5197831540281055e-38
29.113650 -20.784529 67.156968 0.647700 -0.458497 0.608494 1.5197831540281055e-38
29.820497 -19.855701 68.285389 0.658800 -0.442401 0.608494 1.5197831540281055e-38
30.152269 -18.838097 67.876077 0.669499 -0.426035 0.608494 1.5197831540281055e-38
30.595372 -18.361508 68.239203 0.679793 -0.409411 0.608494 1.5197831540281055e-38
31.177330 -17.530696 68.121878 0.689673 -0.392538 0.608494 1.5197831540281055e-38
31.420611 -16.633177 67.538944 0.699135 -0.375428 0.608494 1.5197831540281055e-38
31.696581 -15.645324 67.839461 0.708172 -0.358089 0.608494 1.5197831540281055e-38
32.249430 -14.916069 68.003408 0.716780 -0.340532 0.608494 1.5197831540281055e-38
32.390666 -14.173126 67.954435 0.724952 -0.322769 0.608494 1.5197831540281055e-38
27.479462 -21.088735 69.200758 0.642858 -0.479274 0.597520 1.5197831540281055e-38
28.417216 -20.463674 69.353271 0.654471 -0.463290 0.597520 1.5197831540281055e-38
29.041924 -19.461707 68.630891 0.665686 -0.447025 0.597520 1.5197831540281055e-38
29.385895 -18.135281 69.415667 0.676498 -0.430489 0.597520 1.5197831540281055e-38
29.810556 -18.062582 69.451486 0.686899 -0.413691 0.597520 1.5197831540281055e-38
30.301617 -16.998864 68.949450 0.696882 -0.396642 0.597520 1.5197831540281055e-38
30.690343 -16.599178 69.389829 0.706443 -0.379352 0.597520 1.5197831540281055e-38
30.466517 -15.818407 69.441086 0.715575 -0.361832 0.597520 1.5197831540281055e-38
31.638704 -14.939971 68.630228 0.724272 -0.344092 0.597520 1.5197831540281055e-38
31.978307 -13.676754 69.026715 0.732530 -0.326143 0.597520 1.5197831540281055e-38
31.997163 -13.122615 69.528325 0.740343 -0.307997 0.597520 1.5197831540281055e-38
26.769491 -20.652005 70.260673 0.639122 -0.501453 0.583154 1.5197831540281055e-38
27.338545 -20.603379 70.461838 0.651282 -0.485555 0.583154 1.5197831540281055e-38
27.626036 -19.288853 70.518243 0.663047 -0.469361 0.583154 1.5197831540281055e-38
28.055109 -18.464681 70.386765 0.674410 -0.452883 0.583154 1.5197831540281055e-38
28.449237 -18.756532 70.450404 0.685363 -0.436130 0.583154 1.5197831540281055e-38
28.748243 -17.558881 70.587451 0.695900 -0.419112 0.583154 1.5197831540281055e-38
29.126558 -17.010020 70.035626 0.706015 -0.401840 0.583154 1.5197831540281055e-38
29.703205 -16.315759 71.158721 0.715701 -0.384323 0.583154 1.5197831540281055e-38
30.693296 -14.889415 70.127028 0.724952 -0.366573 0.583154 1.5197831540281055e-38
30.556450 -14.903195 71.068311 0.733764 -0.348601 0.583154 1.5197831540281055e-38
31.207976 -14.099455 70.626306 0.742129 -0.330417 0.583154 1.5197831540281055e-38
30.844080 -13.057698 70.462795 0.750045 -0.312033 0.583154 1.5197831540281055e-38
31.821945 -11.945573 70.521561 0.757505 -0.293459 0.583154 1.5197831540281055e-38
31.824868 -12.430243 70.984101 0.764505 -0.274707 0.583154 1.5197831540281055e-38
26.474121 -20.560128 71.922543 0.649059 -0.509250 0.565144 1.5197831540281055e-38
26.762251 -19.852796 72.273189 0.661408 -0.493104 0.565144 1.5197831540281055e-38
27.572911 -18.749968 72.081424 0.673356 -0.476659 0.565144 1.5197831540281055e-38
26.894189 -18.804661 71.727244 0.684895 -0.459925 0.565144 1.5197831540281055e-38
27.660688 -17.539651 70.898380 0.696019 -0.442911 0.565144 1.5197831540281055e-38
28.472138 -17.088405 71.590038 0.706720 -0.425628 0.565144 1.5197831540281055e-38
29.269424 -16.426029 71.267548 0.716992 -0.408087 0.565144 1.5197831540281055e-38
29.228242 -15.506968 71.700396 0.726828 -0.390299 0.565144 1.5197831540281055e-38
30.172587 -14.837116 72.057015 0.736224 -0.372273 0.565144 1.5197831540281055e-38
29.922277 -13.788456 71.653314 0.745172 -0.354021 0.565144 1.5197831540281055e-38
29.846381 -13.200782 71.842359 0.753668 -0.335555 0.565144 1.5197831540281055e-38
30.725710 -12.868242 71.896634 0.761706 -0.316884 0.565144 1.5197831540281055e-38
30.312089 -12.072189 71.541180 0.769282 -0.298022 0.565144 1.5197831540281055e-38
31.223695 -11.311301 71.340729 0.776391 -0.278978 0.565144 1.5197831540281055e-38
31.170104 -10.217494 71.791902 0.783029 -0.259765 0.565144 1.5197831540281055e-38
25.678882 -19.881850 73.412278 0.660556 -0.518271 0.543195 1.5197831540281055e-38
25.683546 -19.515135 72.986860 0.673125 -0.501839 0.543195 1.5197831540281055e-38
26.163572 -18.773385 72.935551 0.685284 -0.485103 0.543195 1.5197831540281055e-38
26.490765 -18.200134 72.653095 0.697028 -0.468072 0.543195 1.5197831540281055e-38
27.287421 -17.584495 72.617076 0.708349 -0.450757 0.543195 1.5197831540281055e-38
27.257956 -16.548649 73.190504 0.719239 -0.433168 0.543195 1.5197831540281055e-38
28.206244 -15.861505 73.150352 0.729693 -0.415316 0.543195 1.5197831540281055e-38
28.348375 -15.094904 73.121756 0.739704 -0.397213 0.543195 1.5197831540281055e-38
28.512577 -14.850816 73.395337 0.749265 -0.378868 0.543195 1.5197831540281055e-38
29.118290 -13.500305 72.659694 0.758372 -0.360293 0.543195 1.5197831540281055e-38
29.290577 -13.508163 73.183589 0.767019 -0.341499 0.543195 1.5197831540281055e-38
29.541601 -12.532840 73.576432 0.775200 -0.322498 0.543195 1.5197831540281055e-38
30.221488 -11.434205 72.629058 0.782910 -0.303301 0.543195 1.5197831540281055e-38
29.741771 -10.596055 72.317577 0.790145 -0.283920 0.543195 1.5197831540281055e-38
30.407599 -10.380942 72.712148 0.796900 -0.264367 0.543195 1.5197831540281055e-38
30.666273 -9.698216 72.624888 0.803171 -0.244653 0.543195 1.5197831540281055e-38
24.386232 -19.956056 74.315468 0.660231 -0.544822 0.516976 1.5197831540281055e-38
24.824639 -19.553628 74.133528 0.673454 -0.528390 0.516976 1.5197831540281055e-38
25.463685 -18.232931 74.502202 0.686267 -0.511638 0.516976 1.5197831540281055e-38
24.809417 -18.381895 74.261219 0.698665 -0.494574 0.516976 1.5197831540281055e-38
25.756127 -17.860657 74.101189 0.710638 -0.477211 0.516976 1.5197831540281055e-38
26.612848 -16.683870 74.116600 0.722179 -0.459558 0.516976 1.5197831540281055e-38
26.783579 -16.463994 74.378933 0.733282 -0.441626 0.516976 1.5197831540281055e-38
27.440008 -15.270694 74.265730 0.743940 -0.423425 0.516976 1.5197831540281055e-38
27.289325 -14.969956 74.483880 0.754146 -0.404968 0.516976 1.5197831540281055e-38
27.519883 -14.204194 74.312349 0.763895 -0.386265 0.516976 1.5197831540281055e-38
28.982449 -13.663929 74.190301 0.773180 -0.367327 0.516976 1.5197831540281055e-38
29.211210 -12.956755 74.549216 0.781995 -0.348167 0.516976 1.5197831540281055e-38
29.128887 -12.135466 74.362289 0.790336 -0.328795 0.516976 1.5197831540281055e-38
29.255383 -10.673395 73.607137 0.798196 -0.309223 0.516976 1.5197831540281055e-38
29.485656 -10.701373 74.186606 0.805572 -0.289463 0.516976 1.5197831540281055e-38
30.147330 -10.027772 74.374416 0.812460 -0.269528 0.516976 1.5197831540281055e-38
30.127345 -8.904347 74.185649 0.818853 -0.249430 0.516976 1.5197831540281055e-38
30.371021 -8.449593 73.930988 0.824750 -0.229179 0.516976 1.5197831540281055e-38
30.952144 -7.892780 74.083258 0.830146 -0.208790 0.516976 1.5197831540281055e-38
23.999721 -19.076673 75.563471 0.687522 -0.539428 0.486139 1.5197831540281055e-38
24.519908 -18.807180 75.264745 0.700603 -0.522325 0.486139 1.5197831540281055e-38
24.998765 -18.038426 75.208659 0.713259 -0.504906 0.486139 1.5197831540281055e-38
25.790963 -17.304241 75.595904 0.725482 -0.487180 0.486139 1.5197831540281055e-38
25.850296 -16.852578 75.364028 0.737265 -0.469158 0.486139 1.5197831540281055e-38
26.388931 -15.319357 75.232244 0.748600 -0.450851 0.486139 1.5197831540281055e-38
26.658344 -14.914853 75.842075 0.759481 -0.432270 0.486139 1.5197831540281055e-38
26.855327 -14.572282 75.797726 0.769900 -0.413428 0.486139 1.5197831540281055e-38
27.553098 -13.544658 75.815344 0.779852 -0.394334 0.486139 1.5197831540281055e-38
27.898807 -13.132364 75.262625 0.789331 -0.375000 0.486139 1.5197831540281055e-38
27.975617 -12.541525 75.823616 0.798330 -0.355440 0.486139 1.5197831540281055e-38
28.400946 -11.737580 75.165707 0.806845 -0.335663 0.486139 1.5197831540281055e-38
28.991340 -11.321519 75.378500 0.814870 -0.315682 0.486139 1.5197831540281055e-38
29.287389 -10.116600 75.208984 0.822400 -0.295510 0.486139 1.5197831540281055e-38
28.817949 -9.728662 75.290995 0.829431 -0.275159 0.486139 1.5197831540281055e-38
28.930711 -9.172622 74.639503 0.835959 -0.254640 0.486139 1.5197831540281055e-38
29.853633 -7.967982 75.886825 0.841979 -0.233967 0.486139 1.5197831540281055e-38
29.881960 -7.623452 75.770938 0.847487 -0.213152 0.486139 1.5197831540281055e-38
29.741020 -7.151042 75.419749 0.852482 -0.192207 0.486139 1.5197831540281055e-38
24.077764 -17.734373 76.617386 0.715812 -0.533664 0.450350 1.5197831540281055e-38
24.145871 -17.136747 76.289268 0.728743 -0.515867 0.450350 1.5197831540281055e-38
24.848024 -16.757333 77.024778 0.741232 -0.497756 0.450350 1.5197831540281055e-38
25.522821 -16.059595 76.980210 0.753270 -0.479342 0.450350 1.5197831540281055e-38
25.391835 -15.027690 75.781520 0.764851 -0.460638 0.450350 1.5197831540281055e-38
26.541676 -15.115204 76.815085 0.775968 -0.441654 0.450350 1.5197831540281055e-38
26.906139 -14.046666 76.812757 0.786614 -0.422403 0.450350 1.5197831540281055e-38
27.073683 -14.002423 76.302047 0.796782 -0.402894 0.450350 1.5197831540281055e-38
27.221098 -12.952985 76.607188 0.806466 -0.383141 0.450350 1.5197831540281055e-38
27.820581 -11.875692 76.424810 0.815661 -0.363156 0.450350 1.5197831540281055e-38
27.874612 -12.010446 76.224519 0.824361 -0.342950 0.450350 1.5197831540281055e-38
27.749956 -10.870049 76.505114 0.832560 -0.322535 0.450350 1.5197831540281055e-38
28.412088 -10.165175 77.035258 0.840253 -0.301925 0.450350 1.5197831540281055e-38
28.682163 -9.772384 76.971218 0.847437 -0.281132 0.450350 1.5197831540281055e-38
28.484319 -8.631890 76.553344 0.854106 -0.260168 0.450350 1.5197831540281055e-38
29.347113 -7.825165 76.493245 0.860257 -0.239046 0.450350 1.5197831540281055e-38
29.023494 -6.348034 76.322745 0.865885 -0.217779 0.450350 1.5197831540281055e-38
29.095043 -6.809990 76.353351 0.870988 -0.196380 0.450350 1.5197831540281055e-38
29.148784 -5.917130 76.843991 0.875562 -0.174861 0.450350 1.5197831540281055e-38
23.952562 -16.981703 77.703570 0.744689 -0.527155 0.409324 1.5197831540281055e-38
24.373627 -16.373154 78.241987 0.757451 -0.508647 0.409324 1.5197831540281055e-38
25.168232 -15.722825 77.929328 0.769753 -0.489831 0.409324 1.5197831540281055e-38
25.340478 -14.657368 78.088589 0.781587 -0.470718 0.409324 1.5197831540281055e-38
25.678878 -14.249175 77.952558 0.792947 -0.451319 0.409324 1.5197831540281055e-38
25.695902 -13.798134 77.989247 0.803826 -0.431645 0.409324 1.5197831540281055e-38
26.221800 -13.129143 77.394379 0.814217 -0.411710 0.409324 1.5197831540281055e-38
26.444690 -12.904181 77.705689 0.824113 -0.391525 0.409324 1.5197831540281055e-38
26.864048 -12.254217 78.441234 0.833509 -0.371102 0.409324 1.5197831540281055e-38
27.332760 -11.552887 77.416014 0.842399 -0.350454 0.409324 1.5197831540281055e-38
27.292734 -10.739982 77.747659 0.850778 -0.329593 0.409324 1.5197831540281055e-38
28.484344 -10.457363 77.953455 0.858640 -0.308532 0.409324 1.5197831540281055e-38
27.919620 -9.349830 77.356327 0.865980 -0.287284 0.409324 1.5197831540281055e-38
28.165795 -8.529325 78.151052 0.872796 -0.265861 0.409324 1.5197831540281055e-38
28.526511 -7.521117 77.324280 0.879081 -0.244277 0.409324 1.5197831540281055e-38
28.496746 -6.433597 78.256172 0.884832 -0.222544 0.409324 1.5197831540281055e-38
28.299555 -6.452503 77.623922 0.890047 -0.200677 0.409324 1.5197831540281055e-38
28.757026 -5.169108 78.225693 0.894721 -0.178687 0.409324 1.5197831540281055e-38
28.563869 -5.285132 77.938389 0.898851 -0.156589 0.409324 1.5197831540281055e-38
29.056301 -4.245087 77.705835 0.902436 -0.134396 0.409324 1.5197831540281055e-38
23.821615 -16.144170 79.011572 0.773595 -0.519488 0.362882 1.5197831540281055e-38
25.003508 -15.285460 79.445396 0.786159 -0.500271 0.362882 1.5197831540281055e-38
25.436086 -14.526376 79.138840 0.798246 -0.480750 0.362882 1.5197831540281055e-38
25.157487 -13.606521 78.953471 0.809848 -0.460938 0.362882 1.5197831540281055e-38
25.443430 -13.994354 78.629782 0.820958 -0.440845 0.362882 1.5197831540281055e-38
25.560550 -13.316236 78.987727 0.831570 -0.420485 0.362882 1.5197831540281055e-38
26.322038 -12.421551 79.478559 0.841678 -0.399870 0.362882 1.5197831540281055e-38
26.481661 -11.716514 79.087852 0.851274 -0.379012 0.362882 1.5197831540281055e-38
27.302425 -11.242349 79.450263 0.860353 -0.357923 0.362882 1.5197831540281055e-38
26.629417 -10.526725 79.777529 0.868910 -0.336618 0.362882 1.5197831540281055e-38
27.438952 -10.205611 78.865700 0.876940 -0.315108 0.362882 1.5197831540281055e-38
27.946908 -9.085258 79.092685 0.884437 -0.293407 0.362882 1.5197831540281055e-38
27.448712 -8.527519 79.599424 0.891398 -0.271527 0.362882 1.5197831540281055e-38
27.671762 -7.928315 79.355118 0.897817 -0.249483 0.362882 1.5197831540281055e-38
27.752279 -7.338918 79.177146 0.903691 -0.227287 0.362882 1.5197831540281055e-38
28.238981 -6.607623 79.317211 0.909016 -0.204954 0.362882 1.5197831540281055e-38
28.443460 -6.259471 79.409407 0.913790 -0.182496 0.362882 1.5197831540281055e-38
28.337961 -4.724723 79.799165 0.918009 -0.159927 0.362882 1.5197831540281055e-38
28.602416 -4.456106 79.588895 0.921670 -0.137261 0.362882 1.5197831540281055e-38
28.467139 -2.988435 79.036190 0.924772 -0.114512 0.362882 1.5197831540281055e-38
24.030793 -14.944280 80.846585 0.801826 -0.510241 0.311014 1.5197831540281055e-38
24.634730 -14.127021 80.472859 0.814153 -0.490331 0.311014 1.5197831540281055e-38
25.097074 -14.266395 79.945540 0.825987 -0.470124 0.311014 1.5197831540281055e-38
25.011518 -13.518167 81.187831 0.837319 -0.449631 0.311014 1.5197831540281055e-38
25.428492 -13.163374 80.701766 0.848142 -0.428865 0.311014 1.5197831540281055e-38
25.509816 -12.184570 80.675557 0.858451 -0.407839 0.311014 1.5197831540281055e-38
25.751646 -11.134571 80.750412 0.868239 -0.386565 0.311014 1.5197831540281055e-38
26.414763 -10.419446 80.297697 0.877499 -0.365056 0.311014 1.5197831540281055e-38
26.808699 -10.209801 80.221018 0.886227 -0.343326 0.311014 1.5197831540281055e-38
26.633653 -9.026373 80.730165 0.894416 -0.321387 0.311014 1.5197831540281055e-38
27.312099 -9.159672 80.624755 0.902063 -0.299254 0.311014 1.5197831540281055e-38
27.147676 -7.793630 80.776243 0.909162 -0.276938 0.311014 1.5197831540281055e-38
27.730176 -7.383621 80.386035 0.915709 -0.254455 0.311014 1.5197831540281055e-38
27.780155 -6.487830 80.552369 0.921700 -0.231817 0.311014 1.5197831540281055e-38
27.544633 -5.890805 80.208543 0.927132 -0.209038 0.311014 1.5197831540281055e-38
27.933954 -5.722646 79.629676 0.932001 -0.186133 0.311014 1.5197831540281055e-38
28.124413 -4.238577 80.508367 0.936304 -0.163114 0.311014 1.5197831540281055e-38
29.072787 -4.243272 80.478806 0.940038 -0.139996 0.311014 1.5197831540281055e-38
28.247383 -3.483556 80.523371 0.943202 -0.116794 0.311014 1.5197831540281055e-38
28.809430 -3.055534 80.414986 0.945793 -0.093520 0.311014 1.5197831540281055e-38
24.667185 -14.631773 81.647253 0.828556 -0.499005 0.253947 1.5197831540281055e-38
24.692637 -13.822886 81.364051 0.840599 -0.478440 0.253947 1.5197831540281055e-38
24.227873 -13.498996 81.735957 0.852131 -0.457585 0.253947 1.5197831540281055e-38
24.972741 -13.021609 81.463520 0.863146 -0.436451 0.253947 1.5197831540281055e-38
25.945314 -12.421412 81.543186 0.873637 -0.415053 0.253947 1.5197831540281055e-38
25.530936 -10.866332 81.195881 0.883598 -0.393403 0.253947 1.5197831540281055e-38
25.724290 -10.797149 81.688375 0.893022 -0.371514 0.253947 1.5197831540281055e-38
26.555034 -9.867574 81.426821 0.901904 -0.349400 0.253947 1.5197831540281055e-38
26.555021 -9.575629 81.500721 0.910239 -0.327073 0.253947 1.5197831540281055e-38
26.992166 -8.792257 82.116411 0.918021 -0.304548 0.253947 1.5197831540281055e-38
27.040244 -7.929919 80.823824 0.925245 -0.281837 0.253947 1.5197831540281055e-38
27.118393 -7.412429 81.795971 0.931908 -0.258956 0.253947 1.5197831540281055e-38
27.733161 -6.685995 81.275595 0.938005 -0.235918 0.253947 1.5197831540281055e-38
27.592334 -5.945719 81.456685 0.943533 -0.212736 0.253947 1.5197831540281055e-38
27.451659 -5.282449 81.641202 0.948488 -0.189425 0.253947 1.5197831540281055e-38
28.031430 -4.780775 80.986214 0.952867 -0.165999 0.253947 1.5197831540281055e-38
27.831841 -4.271042 81.826230 0.956667 -0.142473 0.253947 1.5197831540281055e-38
28.035455 -3.747359 81.701234 0.959887 -0.118860 0.253947 1.5197831540281055e-38
28.146132 -2.642439 81.934921 0.962524 -0.095175 0.253947 1.5197831540281055e-38
27.738380 -2.131927 80.973445 0.964577 -0.071432 0.253947 1.5197831540281055e-38
24.631512 -13.098296 82.795145 0.864586 -0.464273 0.192202 1.5197831540281055e-38
25.376048 -12.752204 83.386514 0.875762 -0.442831 0.192202 1.5197831540281055e-38
24.724234 -12.063649 83.115969 0.886406 -0.421120 0.192202 1.5197831540281055e-38
25.122590 -11.546423 83.047086 0.896513 -0.399153 0.192202 1.5197831540281055e-38
25.191245 -10.364312 83.330166 0.906075 -0.376944 0.192202 1.5197831540281055e-38
26.421915 -9.961418 82.758259 0.915087 -0.354506 0.192202 1.5197831540281055e-38
26.096691 -9.330094 82.925473 0.923543 -0.331853 0.192202 1.5197831540281055e-38
26.315393 -8.292622 82.812743 0.931439 -0.308999 0.192202 1.5197831540281055e-38
27.068638 -8.084015 82.897967 0.938769 -0.285957 0.192202 1.5197831540281055e-38
26.984689 -7.303732 82.843230 0.945529 -0.262741 0.192202 1.5197831540281055e-38
27.174215 -6.585716 83.382569 0.951715 -0.239366 0.192202 1.5197831540281055e-38
27.185345 -6.358841 82.683309 0.957324 -0.215846 0.192202 1.5197831540281055e-38
28.016975 -6.017413 82.529620 0.962351 -0.192194 0.192202 1.5197831540281055e-38
27.440459 -4.963602 83.132256 0.966794 -0.168426 0.192202 1.5197831540281055e-38
27.761509 -4.262135 83.337721 0.970650 -0.144555 0.192202 1.5197831540281055e-38
27.303783 -3.643103 83.358333 0.973917 -0.120597 0.192202 1.5197831540281055e-38
27.319075 -2.635976 83.357072 0.976593 -0.096566 0.192202 1.5197831540281055e-38
26.990023 -2.157792 83.170870 0.978675 -0.072476 0.192202 1.5197831540281055e-38
25.093457 -12.472130 84.092346 0.895976 -0.425666 0.126626 1.5197831540281055e-38
24.944267 -10.810526 83.423234 0.906192 -0.403463 0.126626 1.5197831540281055e-38
25.828693 -10.666694 83.509643 0.915857 -0.381014 0.126626 1.5197831540281055e-38
26.281985 -9.581678 84.498710 0.924966 -0.358334 0.126626 1.5197831540281055e-38
26.044916 -9.550057 84.143243 0.933514 -0.335436 0.126626 1.5197831540281055e-38
26.403223 -8.867489 83.866369 0.941495 -0.312335 0.126626 1.5197831540281055e-38
26.593850 -7.997019 84.401496 0.948904 -0.289044 0.126626 1.5197831540281055e-38
27.093261 -7.144738 83.778022 0.955737 -0.265578 0.126626 1.5197831540281055e-38
26.806723 -6.627048 84.366470 0.961991 -0.241950 0.126626 1.5197831540281055e-38
27.226047 -6.097962 83.976583 0.967660 -0.218176 0.126626 1.5197831540281055e-38
27.412846 -5.300978 84.208158 0.972741 -0.194269 0.126626 1.5197831540281055e-38
27.024008 -4.114750 84.198424 0.977232 -0.170244 0.126626 1.5197831540281055e-38
27.317989 -3.997513 84.084221 0.981130 -0.146116 0.126626 1.5197831540281055e-38
27.049436 -3.307718 83.688231 0.984432 -0.121899 0.126626 1.5197831540281055e-38
27.542366 -3.198294 83.477418 0.987136 -0.097608 0.126626 1.5197831540281055e-38
25.104723 -10.682302 85.117753 0.921715 -0.383451 0.058377 1.5197831540281055e-38
25.346245 -10.025065 85.171193 0.930882 -0.360626 0.058377 1.5197831540281055e-38
25.656544 -9.019947 85.062347 0.939484 -0.337582 0.058377 1.5197831540281055e-38
26.054313 -8.679731 84.853641 0.947516 -0.314333 0.058377 1.5197831540281055e-38
26.000389 -8.033941 85.337725 0.954973 -0.290893 0.058377 1.5197831540281055e-38
26.288900 -7.378606 85.441133 0.961850 -0.267276 0.058377 1.5197831540281055e-38
26.874944 -6.515110 85.723547 0.968143 -0.243498 0.058377 1.5197831540281055e-38
26.888524 -6.471896 85.272103 0.973848 -0.219571 0.058377 1.5197831540281055e-38
26.616547 -5.138191 85.772760 0.978962 -0.195511 0.058377 1.5197831540281055e-38
27.120071 -4.376225 85.689026 0.983482 -0.171333 0.058377 1.5197831540281055e-38
27.321187 -3.897274 85.645440 0.987405 -0.147050 0.058377 1.5197831540281055e-38
26.902928 -3.308818 85.527051 0.990728 -0.122679 0.058377 1.5197831540281055e-38
26.966441 -2.135332 85.688580 0.993450 -0.098232 0.058377 1.5197831540281055e-38
26.624830 -9.140993 86.693888 0.940725 -0.338028 0.027806 1.5197831540281055e-38
25.942046 -8.629855 86.234974 0.948768 -0.314748 0.027806 1.5197831540281055e-38
26.451056 -8.517552 86.217272 0.956235 -0.291277 0.027806 1.5197831540281055e-38
26.280429 -6.908949 86.267377 0.963121 -0.267629 0.027806 1.5197831540281055e-38
26.766850 -7.325795 86.605381 0.969422 -0.243819 0.027806 1.5197831540281055e-38
27.344446 -5.897843 85.976012 0.975135 -0.219861 0.027806 1.5197831540281055e-38
26.977809 -5.524416 86.965851 0.980256 -0.195770 0.027806 1.5197831540281055e-38
27.059198 -5.151272 86.557037 0.984781 -0.171559 0.027806 1.5197831540281055e-38
26.988440 -4.698455 86.545664 0.988709 -0.147245 0.027806 1.5197831540281055e-38
27.290169 -3.264691 86.903190 0.992037 -0.122841 0.027806 1.5197831540281055e-38
25.985221 -8.397653 87.364634 0.938053 -0.285739 0.195984 1.5197831540281055e-38
26.139781 -7.651160 87.791240 0.944808 -0.262541 0.195984 1.5197831540281055e-38
26.580280 -6.909203 88.023921 0.950990 -0.239184 0.195984 1.5197831540281055e-38
26.486794 -6.062905 87.184274 0.956594 -0.215681 0.195984 1.5197831540281055e-38
26.850813 -4.681915 88.073546 0.961617 -0.192047 0.195984 1.5197831540281055e-38
26.898264 -5.042404 88.324681 0.966057 -0.168297 0.195984 1.5197831540281055e-38
27.009225 -4.231610 87.640536 0.969910 -0.144445 0.195984 1.5197831540281055e-38
25.804545 -6.277087 88.799410 0.911378 -0.229221 0.341830 1.5197831540281055e-38
