# .PCD v0.7 - Point Cloud Data file format
VERSION 0.7
FIELDS x y z normal_x normal_y normal_z rgb
SIZE 4 4 4 4 4 4 4
TYPE F F F F F F F
COUNT 1 1 1 1 1 1 1
WIDTH 287
HEIGHT 1
VIEWPOINT 0 0 0 1 0 0 0
POINTS 287
DATA ascii
0.030477 -35.446139 68.031031 0.014664 -0.793423 0.608494 1.6119787838914282e-38
1.672559 -35.625490 67.529483 0.034208 -0.792821 0.608494 1.6119787838914282e-38
2.829244 -35.547498 68.268136 0.053730 -0.791738 0.608494 1.6119787838914282e-38
3.056968 -35.505188 67.648268 0.073220 -0.790174 0.608494 1.6119787838914282e-38
-2.872982 -34.492016 69.741160 -0.064144 -0.799284 0.597520 1.6119787838914282e-38
-2.233991 -34.454287 69.604299 -0.044432 -0.800622 0.597520 1.6119787838914282e-38
-1.133661 -34.537231 69.201979 -0.024693 -0.801474 0.597520 1.6119787838914282e-38
0.162532 -35.615029 69.711817 -0.004939 -0.801839 0.597520 1.6119787838914282e-38
0.309272 -34.761072 69.034165 0.014817 -0.801717 0.597520 1.6119787838914282e-38
1.948802 -34.830380 69.115719 0.034565 -0.801109 0.597520 1.6119787838914282e-38
2.691886 -34.494517 69.178260 0.054292 -0.800014 0.597520 1.6119787838914282e-38
2.913029 -34.983452 69.660871 0.073986 -0.798433 0.597520 1.6119787838914282e-38
-5.303899 -33.360107 70.540531 -0.124610 -0.802748 0.583154 1.6119787838914282e-38
-3.731755 -33.290136 70.313180 -0.104794 -0.805574 0.583154 1.6119787838914282e-38
-3.893174 -33.822283 70.190494 -0.084915 -0.807912 0.583154 1.6119787838914282e-38
-2.848376 -34.070733 70.417355 -0.064984 -0.809758 0.583154 1.6119787838914282e-38
-1.972346 -33.792245 70.453401 -0.045014 -0.811114 0.583154 1.6119787838914282e-38
-1.314286 -33.507920 70.636360 -0.025017 -0.811977 0.583154 1.6119787838914282e-38
-0.372090 -34.153658 70.075295 -0.005004 -0.812346 0.583154 1.6119787838914282e-38
0.164080 -33.568439 70.797848 0.015012 -0.812223 0.583154 1.6119787838914282e-38
1.285537 -33.447109 70.700493 0.035018 -0.811607 0.583154 1.6119787838914282e-38
2.355496 -33.552113 70.701002 0.055003 -0.810498 0.583154 1.6119787838914282e-38
3.172936 -33.815914 70.483305 0.074955 -0.808896 0.583154 1.6119787838914282e-38
-7.953758 -32.247527 71.879404 -0.206152 -0.798820 0.565144 1.6119787838914282e-38
-7.095340 -32.474143 71.349861 -0.186408 -0.803657 0.565144 1.6119787838914282e-38
-6.979426 -31.795139 71.569785 -0.166551 -0.808006 0.565144 1.6119787838914282e-38
-6.227520 -32.384770 70.935434 -0.146594 -0.811864 0.565144 1.6119787838914282e-38
-5.351392 -32.205148 71.465967 -0.126547 -0.815229 0.565144 1.6119787838914282e-38
-4.337811 -32.656019 71.840979 -0.106423 -0.818099 0.565144 1.6119787838914282e-38
-3.611302 -32.675345 72.186445 -0.086235 -0.820473 0.565144 1.6119787838914282e-38
-2.959916 -33.059660 71.721032 -0.065995 -0.822348 0.565144 1.6119787838914282e-38
-1.619738 -32.959482 71.714428 -0.045714 -0.823725 0.565144 1.6119787838914282e-38
-1.481668 -33.344404 71.810380 -0.025406 -0.824601 0.565144 1.6119787838914282e-38
-0.357554 -33.122150 71.734015 -0.005082 -0.824977 0.565144 1.6119787838914282e-38
1.312681 -33.163754 72.168663 0.015245 -0.824851 0.565144 1.6119787838914282e-38
1.817534 -32.748327 71.498345 0.035563 -0.824225 0.565144 1.6119787838914282e-38
2.276882 -33.061520 72.356902 0.055859 -0.823099 0.565144 1.6119787838914282e-38
3.169911 -32.943244 72.288053 0.076121 -0.821473 0.565144 1.6119787838914282e-38
-10.406999 -30.399416 73.633331 -0.269270 -0.795256 0.543195 1.6119787838914282e-38
-9.377691 -30.482225 72.898139 -0.249596 -0.801649 0.543195 1.6119787838914282e-38
-9.204756 -31.050438 72.769345 -0.229769 -0.807555 0.543195 1.6119787838914282e-38
-8.060181 -31.322583 72.486382 -0.209803 -0.812971 0.543195 1.6119787838914282e-38
-6.894568 -31.405319 72.890680 -0.189710 -0.817893 0.543195 1.6119787838914282e-38
-6.831181 -31.675412 72.730698 -0.169502 -0.822319 0.543195 1.6119787838914282e-38
-6.079084 -31.634540 72.849044 -0.149191 -0.826245 0.543195 1.6119787838914282e-38
-4.713972 -31.922795 73.024127 -0.128789 -0.829670 0.543195 1.6119787838914282e-38
-4.127335 -31.811260 72.737343 -0.108309 -0.832591 0.543195 1.6119787838914282e-38
-3.095633 -32.373339 73.002422 -0.087763 -0.835007 0.543195 1.6119787838914282e-38
-2.936949 -32.128750 73.256943 -0.067164 -0.836916 0.543195 1.6119787838914282e-38
-1.617368 -31.828676 72.898723 -0.046524 -0.838317 0.543195 1.6119787838914282e-38
-0.718791 -32.388107 72.852157 -0.025856 -0.839208 0.543195 1.6119787838914282e-38
-0.159314 -31.940098 72.825488 -0.005172 -0.839591 0.543195 1.6119787838914282e-38
0.803483 -32.120855 73.090755 0.015515 -0.839463 0.543195 1.6119787838914282e-38
1.131457 -32.281194 72.961601 0.036193 -0.838826 0.543195 1.6119787838914282e-38
2.281156 -32.364049 72.602098 0.056848 -0.837680 0.543195 1.6119787838914282e-38
2.330815 -31.834624 73.272918 0.077469 -0.836025 0.543195 1.6119787838914282e-38
-12.785941 -29.040584 74.015228 -0.352977 -0.779835 0.516976 1.6119787838914282e-38
-12.135020 -28.759270 74.069890 -0.333657 -0.788295 0.516976 1.6119787838914282e-38
-11.236328 -28.944227 73.688978 -0.314134 -0.796276 0.516976 1.6119787838914282e-38
-10.315986 -29.154458 74.288775 -0.294420 -0.803774 0.516976 1.6119787838914282e-38
-10.118373 -29.524890 74.386920 -0.274528 -0.810784 0.516976 1.6119787838914282e-38
-9.422338 -29.519053 73.595394 -0.254469 -0.817301 0.516976 1.6119787838914282e-38
-8.798358 -30.087630 74.211173 -0.234256 -0.823323 0.516976 1.6119787838914282e-38
-7.641810 -30.843036 74.150471 -0.213900 -0.828844 0.516976 1.6119787838914282e-38
-6.754608 -31.056966 74.154664 -0.193414 -0.833863 0.516976 1.6119787838914282e-38
-6.502685 -30.665473 74.344732 -0.172811 -0.838375 0.516976 1.6119787838914282e-38
-5.554180 -31.008383 74.245784 -0.152103 -0.842378 0.516976 1.6119787838914282e-38
-4.869184 -31.059338 74.663894 -0.131303 -0.845870 0.516976 1.6119787838914282e-38
-4.414021 -31.056424 73.944170 -0.110423 -0.848848 0.516976 1.6119787838914282e-38
-2.697939 -31.222603 73.846442 -0.089476 -0.851311 0.516976 1.6119787838914282e-38
-2.583110 -31.758437 74.036835 -0.068475 -0.853257 0.516976 1.6119787838914282e-38
-1.556384 -30.964810 74.551010 -0.047432 -0.854685 0.516976 1.6119787838914282e-38
-0.999089 -31.235538 74.469356 -0.026361 -0.855594 0.516976 1.6119787838914282e-38
0.481364 -31.602053 74.679621 -0.005273 -0.855984 0.516976 1.6119787838914282e-38
0.253022 -31.062111 74.040608 0.015818 -0.855854 0.516976 1.6119787838914282e-38
1.149351 -31.477645 73.994006 0.036899 -0.855204 0.516976 1.6119787838914282e-38
2.255301 -30.981388 73.593336 0.057958 -0.854036 0.516976 1.6119787838914282e-38
2.846826 -31.613387 74.498329 0.078982 -0.852348 0.516976 1.6119787838914282e-38
-12.435549 -28.132802 75.244452 -0.360350 -0.796126 0.486139 1.6119787838914282e-38
-11.813927 -28.577667 75.477836 -0.340627 -0.804762 0.486139 1.6119787838914282e-38
-11.065342 -27.988217 75.655418 -0.320696 -0.812910 0.486139 1.6119787838914282e-38
-11.001365 -29.224199 75.981821 -0.300571 -0.820564 0.486139 1.6119787838914282e-38
-10.037146 -29.536431 75.162487 -0.280263 -0.827721 0.486139 1.6119787838914282e-38
-8.889148 -29.281414 75.658118 -0.259785 -0.834374 0.486139 1.6119787838914282e-38
-8.412265 -29.862099 74.927743 -0.239149 -0.840521 0.486139 1.6119787838914282e-38
-7.922614 -29.692761 75.108852 -0.218368 -0.846158 0.486139 1.6119787838914282e-38
-6.642585 -30.209312 74.968326 -0.197455 -0.851281 0.486139 1.6119787838914282e-38
-6.198262 -29.842917 75.911686 -0.176421 -0.855888 0.486139 1.6119787838914282e-38
-5.939242 -29.787613 75.519518 -0.155281 -0.859975 0.486139 1.6119787838914282e-38
-4.895935 -30.135719 75.870533 -0.134046 -0.863539 0.486139 1.6119787838914282e-38
-4.464425 -30.576066 75.300515 -0.112730 -0.866580 0.486139 1.6119787838914282e-38
-3.021575 -30.097118 75.485938 -0.091345 -0.869094 0.486139 1.6119787838914282e-38
-2.543746 -30.471320 75.393574 -0.069905 -0.871081 0.486139 1.6119787838914282e-38
-2.352181 -30.501042 75.759620 -0.048423 -0.872539 0.486139 1.6119787838914282e-38
-0.623402 -31.035559 75.646065 -0.026911 -0.873467 0.486139 1.6119787838914282e-38
0.270699 -29.943555 75.607597 -0.005383 -0.873865 0.486139 1.6119787838914282e-38
0.862522 -30.995867 75.126898 0.016148 -0.873732 0.486139 1.6119787838914282e-38
1.619713 -31.285548 75.510522 0.037670 -0.873069 0.486139 1.6119787838914282e-38
2.508040 -30.419088 75.675738 0.059169 -0.871876 0.486139 1.6119787838914282e-38
2.818104 -30.695313 76.110350 0.080632 -0.870153 0.486139 1.6119787838914282e-38
-11.991439 -27.428977 76.693775 -0.368173 -0.813408 0.450350 1.6119787838914282e-38
-11.835602 -27.603050 76.372632 -0.348021 -0.822232 0.450350 1.6119787838914282e-38
-11.834555 -28.511486 76.634712 -0.327658 -0.830557 0.450350 1.6119787838914282e-38
-10.655530 -28.248876 76.547287 -0.307095 -0.838378 0.450350 1.6119787838914282e-38
-9.848228 -28.654305 76.991192 -0.286347 -0.845689 0.450350 1.6119787838914282e-38
-8.861635 -28.218942 76.732009 -0.265424 -0.852487 0.450350 1.6119787838914282e-38
-8.795683 -29.212927 76.735569 -0.244341 -0.858768 0.450350 1.6119787838914282e-38
-7.435592 -29.269397 76.462309 -0.223109 -0.864527 0.450350 1.6119787838914282e-38
-6.971506 -29.313089 76.686327 -0.201741 -0.869762 0.450350 1.6119787838914282e-38
-6.395284 -29.354257 76.772139 -0.180251 -0.874468 0.450350 1.6119787838914282e-38
-5.372030 -29.775946 76.902503 -0.158652 -0.878643 0.450350 1.6119787838914282e-38
-4.211843 -29.825685 76.512482 -0.136956 -0.882286 0.450350 1.6119787838914282e-38
-3.736239 -30.146929 76.318062 -0.115177 -0.885392 0.450350 1.6119787838914282e-38
-3.335399 -29.789359 76.436898 -0.093328 -0.887961 0.450350 1.6119787838914282e-38
-2.409197 -30.553314 76.886069 -0.071423 -0.889991 0.450350 1.6119787838914282e-38
-1.232801 -30.273601 76.834262 -0.049474 -0.891480 0.450350 1.6119787838914282e-38
-0.987710 -30.000702 76.627263 -0.027495 -0.892429 0.450350 1.6119787838914282e-38
-0.276138 -30.296174 76.373169 -0.005500 -0.892835 0.450350 1.6119787838914282e-38
0.885048 -30.545391 76.695425 0.016499 -0.892700 0.450350 1.6119787838914282e-38
1.275978 -30.032952 76.900491 0.038488 -0.892022 0.450350 1.6119787838914282e-38
1.923187 -29.781951 77.296794 0.060453 -0.890803 0.450350 1.6119787838914282e-38
2.726706 -30.528223 76.658267 0.082382 -0.889043 0.450350 1.6119787838914282e-38
-12.189198 -26.647976 78.158461 -0.376229 -0.831207 0.409324 1.6119787838914282e-38
-10.871953 -26.918755 77.864652 -0.355636 -0.840224 0.409324 1.6119787838914282e-38
-10.999855 -27.297640 78.376575 -0.334827 -0.848731 0.409324 1.6119787838914282e-38
-9.874792 -27.873401 78.073921 -0.313815 -0.856723 0.409324 1.6119787838914282e-38
-9.380534 -27.586202 78.028567 -0.292613 -0.864194 0.409324 1.6119787838914282e-38
-8.677657 -28.479596 78.175762 -0.271232 -0.871141 0.409324 1.6119787838914282e-38
-8.478449 -28.305549 77.772913 -0.249687 -0.877559 0.409324 1.6119787838914282e-38
-7.543715 -28.347659 77.937177 -0.227991 -0.883445 0.409324 1.6119787838914282e-38
-7.373857 -28.754484 77.821647 -0.206156 -0.888794 0.409324 1.6119787838914282e-38
-5.569606 -29.223123 78.513223 -0.184195 -0.893603 0.409324 1.6119787838914282e-38
-4.977214 -29.071569 77.812484 -0.162123 -0.897870 0.409324 1.6119787838914282e-38
-4.709928 -29.012509 77.701788 -0.139953 -0.901591 0.409324 1.6119787838914282e-38
-3.835122 -29.536786 78.151975 -0.117697 -0.904766 0.409324 1.6119787838914282e-38
-3.028245 -29.435952 77.865619 -0.095371 -0.907391 0.409324 1.6119787838914282e-38
-2.564250 -29.268540 77.561626 -0.072986 -0.909465 0.409324 1.6119787838914282e-38
-1.361666 -29.359681 77.803550 -0.050557 -0.910987 0.409324 1.6119787838914282e-38
-0.730820 -29.326372 77.624456 -0.028097 -0.911956 0.409324 1.6119787838914282e-38
0.210758 -30.205334 78.265007 -0.005620 -0.912372 0.409324 1.6119787838914282e-38
0.495388 -29.154733 78.370270 0.016860 -0.912233 0.409324 1.6119787838914282e-38
1.141547 -29.543686 78.032533 0.039330 -0.911541 0.409324 1.6119787838914282e-38
1.654377 -29.488833 77.813169 0.061776 -0.910295 0.409324 1.6119787838914282e-38
2.362096 -29.472013 78.164058 0.084185 -0.908497 0.409324 1.6119787838914282e-38
-12.064110 -26.672793 79.327507 -0.384248 -0.848923 0.362882 1.6119787838914282e-38
-11.590149 -26.288061 79.382833 -0.363216 -0.858132 0.362882 1.6119787838914282e-38
-10.551563 -27.530017 78.778492 -0.341964 -0.866820 0.362882 1.6119787838914282e-38
-9.977312 -27.180346 79.457200 -0.320504 -0.874982 0.362882 1.6119787838914282e-38
-10.154544 -27.637370 79.426383 -0.298849 -0.882613 0.362882 1.6119787838914282e-38
-8.703827 -27.770149 78.691587 -0.277013 -0.889708 0.362882 1.6119787838914282e-38
-7.601760 -27.979004 79.503367 -0.255009 -0.896263 0.362882 1.6119787838914282e-38
-6.791440 -27.625037 79.165533 -0.232850 -0.902274 0.362882 1.6119787838914282e-38
-6.683879 -28.355517 79.765760 -0.210549 -0.907737 0.362882 1.6119787838914282e-38
-5.905686 -28.026418 79.319978 -0.188121 -0.912649 0.362882 1.6119787838914282e-38
-5.265518 -28.553612 79.530277 -0.165579 -0.917006 0.362882 1.6119787838914282e-38
-4.429501 -28.731886 78.933196 -0.142936 -0.920807 0.362882 1.6119787838914282e-38
-3.636986 -28.851362 79.353424 -0.120206 -0.924049 0.362882 1.6119787838914282e-38
-2.261622 -28.624257 79.716489 -0.097403 -0.926731 0.362882 1.6119787838914282e-38
-2.529340 -28.640280 79.551948 -0.074541 -0.928849 0.362882 1.6119787838914282e-38
-1.189562 -28.509969 79.180233 -0.051634 -0.930404 0.362882 1.6119787838914282e-38
-0.624179 -29.229761 79.657395 -0.028696 -0.931393 0.362882 1.6119787838914282e-38
-0.463904 -28.561421 79.488323 -0.005740 -0.931818 0.362882 1.6119787838914282e-38
0.845906 -28.313596 79.490978 0.017219 -0.931676 0.362882 1.6119787838914282e-38
0.849450 -28.734356 78.608451 0.040168 -0.930969 0.362882 1.6119787838914282e-38
1.932010 -28.998527 79.366610 0.063093 -0.929697 0.362882 1.6119787838914282e-38
2.423178 -29.052663 79.325616 0.085979 -0.927860 0.362882 1.6119787838914282e-38
3.731623 -28.739448 79.872173 0.108813 -0.925460 0.362882 1.6119787838914282e-38
-12.296157 -25.626167 80.252464 -0.413119 -0.855923 0.311014 1.6119787838914282e-38
-11.667565 -25.454183 80.436573 -0.391906 -0.865841 0.311014 1.6119787838914282e-38
-11.185908 -26.211089 80.425508 -0.370455 -0.875234 0.311014 1.6119787838914282e-38
-10.621063 -26.728900 80.650350 -0.348779 -0.884095 0.311014 1.6119787838914282e-38
-9.439093 -26.076373 80.549850 -0.326891 -0.892420 0.311014 1.6119787838914282e-38
-9.103506 -26.718930 80.139968 -0.304805 -0.900203 0.311014 1.6119787838914282e-38
-8.278020 -26.894792 80.719638 -0.282534 -0.907439 0.311014 1.6119787838914282e-38
-7.297741 -27.586386 80.264668 -0.260091 -0.914124 0.311014 1.6119787838914282e-38
-7.184869 -27.925332 80.573892 -0.237490 -0.920255 0.311014 1.6119787838914282e-38
-6.235853 -27.589250 80.457186 -0.214745 -0.925827 0.311014 1.6119787838914282e-38
-5.450821 -27.735363 80.231617 -0.191870 -0.930836 0.311014 1.6119787838914282e-38
-5.948221 -28.140424 80.424087 -0.168878 -0.935281 0.311014 1.6119787838914282e-38
-4.356632 -28.211172 80.251326 -0.145784 -0.939158 0.311014 1.6119787838914282e-38
-3.929825 -28.566436 80.542858 -0.122602 -0.942465 0.311014 1.6119787838914282e-38
-2.652013 -28.713901 80.393984 -0.099344 -0.945199 0.311014 1.6119787838914282e-38
-2.042789 -28.459977 80.627173 -0.076027 -0.947360 0.311014 1.6119787838914282e-38
-1.255425 -28.332528 80.263668 -0.052663 -0.948945 0.311014 1.6119787838914282e-38
-0.482976 -28.561351 80.332142 -0.029268 -0.949955 0.311014 1.6119787838914282e-38
-0.021059 -28.584530 80.345227 -0.005854 -0.950387 0.311014 1.6119787838914282e-38
0.414428 -28.543960 80.471461 0.017562 -0.950243 0.311014 1.6119787838914282e-38
0.636496 -28.497517 79.882883 0.040969 -0.949522 0.311014 1.6119787838914282e-38
1.807335 -28.327804 80.314130 0.064350 -0.948224 0.311014 1.6119787838914282e-38
2.840038 -28.268787 79.765549 0.087692 -0.946351 0.311014 1.6119787838914282e-38
3.686778 -28.224779 80.241603 0.110981 -0.943903 0.311014 1.6119787838914282e-38
-12.267669 -24.992649 82.335131 -0.420427 -0.871064 0.253947 1.6119787838914282e-38
-11.969857 -25.622393 81.468128 -0.398839 -0.881158 0.253947 1.6119787838914282e-38
-11.073025 -25.392618 81.418613 -0.377008 -0.890717 0.253947 1.6119787838914282e-38
-10.805176 -26.106344 81.763359 -0.354949 -0.899735 0.253947 1.6119787838914282e-38
-9.801458 -26.617748 81.697586 -0.332674 -0.908207 0.253947 1.6119787838914282e-38
-9.426413 -26.517163 81.545170 -0.310197 -0.916127 0.253947 1.6119787838914282e-38
-7.946169 -26.762346 81.603444 -0.287532 -0.923492 0.253947 1.6119787838914282e-38
-7.766932 -27.635857 81.612251 -0.264692 -0.930295 0.253947 1.6119787838914282e-38
-7.090075 -27.221765 81.592395 -0.241691 -0.936534 0.253947 1.6119787838914282e-38
-5.927420 -27.482780 81.396313 -0.218544 -0.942205 0.253947 1.6119787838914282e-38
-6.178279 -27.684153 81.335374 -0.195264 -0.947303 0.253947 1.6119787838914282e-38
-5.387748 -27.775453 81.990970 -0.171866 -0.951826 0.253947 1.6119787838914282e-38
-4.034334 -28.181269 81.660491 -0.148363 -0.955772 0.253947 1.6119787838914282e-38
-3.501751 -27.719133 82.130583 -0.124770 -0.959137 0.253947 1.6119787838914282e-38
-3.291244 -28.241222 81.450702 -0.101102 -0.961920 0.253947 1.6119787838914282e-38
-2.140297 -28.855979 81.580885 -0.077372 -0.964119 0.253947 1.6119787838914282e-38
-2.093419 -28.087051 82.270508 -0.053595 -0.965732 0.253947 1.6119787838914282e-38
-0.595951 -28.484099 81.523894 -0.029786 -0.966760 0.253947 1.6119787838914282e-38
-0.440211 -27.740666 80.988941 -0.005958 -0.967200 0.253947 1.6119787838914282e-38
0.388034 -28.333735 81.297523 0.017873 -0.967053 0.253947 1.6119787838914282e-38
1.710129 -28.573277 81.291200 0.041693 -0.966319 0.253947 1.6119787838914282e-38
2.383257 -28.094896 81.596832 0.065488 -0.964999 0.253947 1.6119787838914282e-38
2.407866 -28.010230 81.520736 0.089244 -0.963092 0.253947 1.6119787838914282e-38
3.064381 -28.357553 81.661560 0.112945 -0.960601 0.253947 1.6119787838914282e-38
-11.922482 -25.156407 82.611660 -0.426572 -0.883796 0.192202 1.6119787838914282e-38
-12.654444 -25.846439 82.794957 -0.404668 -0.894037 0.192202 1.6119787838914282e-38
-10.940999 -25.520064 83.067089 -0.382518 -0.903736 0.192202 1.6119787838914282e-38
-9.541125 -26.133961 82.301245 -0.360137 -0.912886 0.192202 1.6119787838914282e-38
-9.856216 -25.643898 82.890464 -0.337536 -0.921481 0.192202 1.6119787838914282e-38
-8.626733 -26.543805 82.736173 -0.314731 -0.929518 0.192202 1.6119787838914282e-38
-8.792181 -26.686190 82.889859 -0.291734 -0.936990 0.192202 1.6119787838914282e-38
-7.360115 -26.614526 83.482726 -0.268561 -0.943893 0.192202 1.6119787838914282e-38
-7.004349 -26.889705 82.881918 -0.245224 -0.950223 0.192202 1.6119787838914282e-38
-6.500333 -27.002808 82.803885 -0.221739 -0.955976 0.192202 1.6119787838914282e-38
-5.122629 -27.509319 82.784653 -0.198118 -0.961149 0.192202 1.6119787838914282e-38
-5.321079 -27.301197 82.488342 -0.174378 -0.965738 0.192202 1.6119787838914282e-38
-4.273752 -27.866982 82.591512 -0.150532 -0.969742 0.192202 1.6119787838914282e-38
-3.821570 -27.394329 82.858229 -0.126594 -0.973156 0.192202 1.6119787838914282e-38
-2.947510 -27.524567 82.688574 -0.102580 -0.975979 0.192202 1.6119787838914282e-38
-2.817230 -28.086279 82.800821 -0.078503 -0.978210 0.192202 1.6119787838914282e-38
-1.557665 -27.635432 82.843026 -0.054378 -0.979848 0.192202 1.6119787838914282e-38
-0.552437 -27.724174 82.464162 -0.030221 -0.980890 0.192202 1.6119787838914282e-38
-0.935716 -28.147534 82.927949 -0.006045 -0.981337 0.192202 1.6119787838914282e-38
0.625874 -27.872718 82.922668 0.018134 -0.981188 0.192202 1.6119787838914282e-38
1.596504 -27.815751 82.991559 0.042303 -0.980443 0.192202 1.6119787838914282e-38
2.364337 -28.325339 83.399504 0.066446 -0.979103 0.192202 1.6119787838914282e-38
1.801550 -27.974862 82.718856 0.090548 -0.977169 0.192202 1.6119787838914282e-38
2.761649 -27.704795 82.871245 0.114596 -0.974642 0.192202 1.6119787838914282e-38
-12.279505 -24.264172 84.255534 -0.431177 -0.893337 0.126626 1.6119787838914282e-38
-11.461643 -24.880314 84.234095 -0.409037 -0.903689 0.126626 1.6119787838914282e-38
-10.671310 -25.641591 84.332611 -0.386648 -0.913493 0.126626 1.6119787838914282e-38
-9.863266 -25.897730 83.555244 -0.364025 -0.922741 0.126626 1.6119787838914282e-38
-9.223658 -25.770363 84.376340 -0.341180 -0.931430 0.126626 1.6119787838914282e-38
-8.852373 -25.896477 83.927851 -0.318129 -0.939553 0.126626 1.6119787838914282e-38
-8.274378 -26.709862 84.470955 -0.294884 -0.947106 0.126626 1.6119787838914282e-38
-7.579604 -26.520698 84.253701 -0.271460 -0.954083 0.126626 1.6119787838914282e-38
-6.979735 -26.521850 84.621115 -0.247872 -0.960482 0.126626 1.6119787838914282e-38
-5.952651 -27.447630 84.156651 -0.224132 -0.966297 0.126626 1.6119787838914282e-38
-5.534595 -26.703698 83.958985 -0.200257 -0.971526 0.126626 1.6119787838914282e-38
-5.224502 -26.954979 84.117943 -0.176261 -0.976165 0.126626 1.6119787838914282e-38
-4.427734 -27.396464 83.700384 -0.152157 -0.980211 0.126626 1.6119787838914282e-38
-3.515225 -27.505753 84.283606 -0.127961 -0.983662 0.126626 1.6119787838914282e-38
-2.951236 -27.483508 83.987120 -0.103687 -0.986516 0.126626 1.6119787838914282e-38
-2.287876 -27.895936 84.433376 -0.079350 -0.988772 0.126626 1.6119787838914282e-38
-1.544388 -28.199869 83.648101 -0.054965 -0.990426 0.126626 1.6119787838914282e-38
-0.540084 -27.645462 84.117736 -0.030547 -0.991480 0.126626 1.6119787838914282e-38
-0.171104 -27.498867 84.582886 -0.006110 -0.991932 0.126626 1.6119787838914282e-38
0.644396 -27.548673 83.952327 0.018330 -0.991781 0.126626 1.6119787838914282e-38
-11.666129 -25.255985 85.532808 -0.411653 -0.909469 0.058377 1.6119787838914282e-38
-10.364130 -26.170167 85.514567 -0.389121 -0.919335 0.058377 1.6119787838914282e-38
-10.275135 -25.753640 85.485776 -0.366353 -0.928643 0.058377 1.6119787838914282e-38
-8.892721 -26.066078 85.332139 -0.343362 -0.937387 0.058377 1.6119787838914282e-38
-9.301923 -25.944619 85.153824 -0.320163 -0.945562 0.058377 1.6119787838914282e-38
-7.711334 -26.177689 85.275853 -0.296770 -0.953163 0.058377 1.6119787838914282e-38
-7.616936 -26.370025 85.568154 -0.273196 -0.960185 0.058377 1.6119787838914282e-38
-7.230029 -26.701605 85.360028 -0.249457 -0.966625 0.058377 1.6119787838914282e-38
-6.157018 -26.426671 84.933168 -0.225566 -0.972477 0.058377 1.6119787838914282e-38
-5.271125 -26.854222 85.211484 -0.201538 -0.977739 0.058377 1.6119787838914282e-38
-4.650016 -27.207224 84.817118 -0.177388 -0.982408 0.058377 1.6119787838914282e-38
-5.253077 -27.569512 85.197570 -0.153130 -0.986480 0.058377 1.6119787838914282e-38
-3.499890 -27.121182 85.283409 -0.128779 -0.989954 0.058377 1.6119787838914282e-38
-3.300740 -27.493737 85.295346 -0.104350 -0.992826 0.058377 1.6119787838914282e-38
-1.681007 -27.275119 84.863886 -0.079858 -0.995095 0.058377 1.6119787838914282e-38
-11.082546 -25.030278 86.226478 -0.389635 -0.920549 0.027806 1.6119787838914282e-38
-9.407445 -25.937405 86.266366 -0.366837 -0.929870 0.027806 1.6119787838914282e-38
-9.355125 -25.654859 86.305750 -0.343816 -0.938625 0.027806 1.6119787838914282e-38
-8.310920 -25.945850 86.523566 -0.320586 -0.946811 0.027806 1.6119787838914282e-38
-8.058494 -25.890930 87.080707 -0.297162 -0.954422 0.027806 1.6119787838914282e-38
-7.467120 -26.829782 86.220389 -0.273557 -0.961454 0.027806 1.6119787838914282e-38
-7.295571 -26.817675 86.609274 -0.249786 -0.967902 0.027806 1.6119787838914282e-38
-6.148857 -26.448129 85.975936 -0.225864 -0.973762 0.027806 1.6119787838914282e-38
-5.554438 -26.792829 85.755539 -0.201804 -0.979031 0.027806 1.6119787838914282e-38
-10.346821 -24.885959 87.750519 -0.359862 -0.912189 0.195984 1.6119787838914282e-38
-9.299943 -25.707123 87.603645 -0.337279 -0.920779 0.195984 1.6119787838914282e-38
-9.132976 -25.847829 87.545801 -0.314491 -0.928809 0.195984 1.6119787838914282e-38
-8.198410 -26.242852 87.726375 -0.291512 -0.936275 0.195984 1.6119787838914282e-38
