# .PCD v0.7 - Point Cloud Data file format
VERSION 0.7
FIELDS x y z normal_x normal_y normal_z rgb
SIZE 4 4 4 4 4 4 4
TYPE F F F F F F F
COUNT 1 1 1 1 1 1 1
WIDTH 225
HEIGHT 1
VIEWPOINT 0 0 0 1 0 0 0
POINTS 225
DATA ascii
1.593296 17.275031 104.048325 0.089851 0.969649 0.227393 1.7041734328458258e-38
0.916472 17.099114 104.348646 0.065934 0.971568 0.227393 1.7041734328458258e-38
1.823200 17.287939 105.410352 0.116545 0.991222 0.062422 1.7041734328458258e-38
2.213693 16.147541 105.287502 0.092088 0.993792 0.062422 1.7041734328458258e-38
0.409199 16.935005 105.059599 0.067576 0.995760 0.062422 1.7041734328458258e-38
0.360710 16.787627 105.035668 0.043022 0.997122 0.062422 1.7041734328458258e-38
0.416343 16.637813 104.904040 0.018443 0.997879 0.062422 1.7041734328458258e-38
2.341726 17.019748 105.774622 0.140811 0.987208 -0.074785 1.7041734328458258e-38
2.390231 16.898143 105.546280 0.116446 0.990378 -0.074785 1.7041734328458258e-38
1.622007 16.827131 106.079057 0.092010 0.992946 -0.074785 1.7041734328458258e-38
1.740386 17.241783 106.344367 0.067518 0.994911 -0.074785 1.7041734328458258e-38
0.750432 17.094058 105.903242 0.042986 0.996273 -0.074785 1.7041734328458258e-38
1.103336 17.040199 106.934294 0.018427 0.997029 -0.074785 1.7041734328458258e-38
-0.359325 17.205467 106.036694 -0.006143 0.997181 -0.074785 1.7041734328458258e-38
-1.388946 17.292992 106.450238 -0.030709 0.996727 -0.074785 1.7041734328458258e-38
2.242472 17.095807 107.973161 0.138803 0.973132 -0.183708 1.7041734328458258e-38
2.220483 17.066446 107.090049 0.114785 0.976256 -0.183708 1.7041734328458258e-38
1.484318 17.756746 107.554437 0.090698 0.978788 -0.183708 1.7041734328458258e-38
1.162551 17.204162 107.757061 0.066556 0.980725 -0.183708 1.7041734328458258e-38
0.544554 17.404170 107.751500 0.042373 0.982067 -0.183708 1.7041734328458258e-38
-0.199032 16.426551 107.467793 0.018164 0.982813 -0.183708 1.7041734328458258e-38
-0.469160 17.285212 107.516560 -0.006055 0.982962 -0.183708 1.7041734328458258e-38
-0.388415 17.329551 107.327141 -0.030271 0.982515 -0.183708 1.7041734328458258e-38
-1.061955 17.000343 107.908782 -0.054468 0.981471 -0.183708 1.7041734328458258e-38
2.990547 17.089247 108.489042 0.159203 0.948372 -0.274309 1.7041734328458258e-38
2.405301 17.015772 109.308658 0.135790 0.952006 -0.274309 1.7041734328458258e-38
1.815719 17.327886 108.671127 0.112293 0.955063 -0.274309 1.7041734328458258e-38
1.242859 17.617308 108.837599 0.088729 0.957539 -0.274309 1.7041734328458258e-38
1.886952 17.760682 108.886994 0.065111 0.959435 -0.274309 1.7041734328458258e-38
0.863881 17.443305 108.557790 0.041453 0.960748 -0.274309 1.7041734328458258e-38
-0.107957 17.166934 109.267199 0.017770 0.961477 -0.274309 1.7041734328458258e-38
-0.030585 17.647396 109.102124 -0.005924 0.961623 -0.274309 1.7041734328458258e-38
-0.598528 17.296607 109.471894 -0.029614 0.961186 -0.274309 1.7041734328458258e-38
-0.809708 16.960401 108.339425 -0.053286 0.960164 -0.274309 1.7041734328458258e-38
-1.173820 17.165503 108.826912 -0.076926 0.958560 -0.274309 1.7041734328458258e-38
-2.484192 17.251834 109.139649 -0.100519 0.956374 -0.274309 1.7041734328458258e-38
4.067083 17.652465 110.217832 0.178413 0.922911 -0.341182 1.7041734328458258e-38
2.820954 18.000766 109.974579 0.155620 0.927026 -0.341182 1.7041734328458258e-38
3.044791 18.220657 109.949413 0.132733 0.930579 -0.341182 1.7041734328458258e-38
2.005977 17.549921 109.702056 0.109766 0.933567 -0.341182 1.7041734328458258e-38
1.738803 17.815026 110.301476 0.086732 0.935988 -0.341182 1.7041734328458258e-38
1.196250 18.110605 110.088744 0.063645 0.937840 -0.341182 1.7041734328458258e-38
0.712681 17.899544 110.331053 0.040520 0.939124 -0.341182 1.7041734328458258e-38
0.219704 18.159413 109.881960 0.017370 0.939837 -0.341182 1.7041734328458258e-38
-0.204434 17.330064 110.000710 -0.005790 0.939980 -0.341182 1.7041734328458258e-38
-0.887482 18.047758 110.255795 -0.028947 0.939552 -0.341182 1.7041734328458258e-38
-0.626294 18.360971 110.054243 -0.052087 0.938553 -0.341182 1.7041734328458258e-38
-1.652455 17.973392 109.986679 -0.075194 0.936985 -0.341182 1.7041734328458258e-38
-2.051458 17.786846 109.926516 -0.098256 0.934848 -0.341182 1.7041734328458258e-38
-1.689943 17.661381 110.093890 -0.121259 0.932143 -0.341182 1.7041734328458258e-38
-2.501339 18.335256 110.035445 -0.144188 0.928873 -0.341182 1.7041734328458258e-38
4.160113 17.973595 111.183966 0.197636 0.902434 -0.382823 1.7041734328458258e-38
3.621117 18.444355 110.777795 0.175342 0.907029 -0.382823 1.7041734328458258e-38
3.383233 17.881611 111.767300 0.152942 0.911074 -0.382823 1.7041734328458258e-38
2.854458 17.853259 111.165590 0.130449 0.914565 -0.382823 1.7041734328458258e-38
2.289668 18.532124 111.483037 0.107877 0.917502 -0.382823 1.7041734328458258e-38
1.812336 18.103737 111.350347 0.085240 0.919881 -0.382823 1.7041734328458258e-38
1.222041 17.881243 111.440860 0.062550 0.921702 -0.382823 1.7041734328458258e-38
0.681927 18.769454 111.691131 0.039823 0.922963 -0.382823 1.7041734328458258e-38
0.394806 18.701883 111.524781 0.017071 0.923664 -0.382823 1.7041734328458258e-38
-0.119894 17.948685 111.292340 -0.005691 0.923804 -0.382823 1.7041734328458258e-38
-0.665955 18.331862 111.271555 -0.028449 0.923384 -0.382823 1.7041734328458258e-38
-0.687099 18.709716 111.193766 -0.051190 0.922403 -0.382823 1.7041734328458258e-38
-1.867151 18.023664 111.712711 -0.073900 0.920861 -0.382823 1.7041734328458258e-38
-1.633486 17.931227 110.900158 -0.096566 0.918761 -0.382823 1.7041734328458258e-38
-2.547576 18.758983 111.465971 -0.119172 0.916103 -0.382823 1.7041734328458258e-38
-2.889293 18.118612 110.775808 -0.141707 0.912889 -0.382823 1.7041734328458258e-38
-3.352422 18.453416 111.221897 -0.164155 0.909120 -0.382823 1.7041734328458258e-38
-3.782576 18.094171 111.002984 -0.186503 0.904800 -0.382823 1.7041734328458258e-38
4.289054 18.172064 112.559675 0.218121 0.890396 -0.399523 1.7041734328458258e-38
3.882173 18.774991 112.645345 0.196117 0.895499 -0.399523 1.7041734328458258e-38
3.810400 18.854182 112.993411 0.173995 0.900059 -0.399523 1.7041734328458258e-38
3.421346 18.376888 112.835085 0.151767 0.904073 -0.399523 1.7041734328458258e-38
2.765308 19.117424 112.585057 0.129447 0.907538 -0.399523 1.7041734328458258e-38
2.550694 18.803520 112.619245 0.107048 0.910451 -0.399523 1.7041734328458258e-38
1.943945 18.727867 112.743119 0.084585 0.912812 -0.399523 1.7041734328458258e-38
0.824320 19.004562 112.195778 0.062069 0.914619 -0.399523 1.7041734328458258e-38
0.981138 17.949102 112.032933 0.039517 0.915871 -0.399523 1.7041734328458258e-38
0.365164 18.920771 112.501515 0.016940 0.916566 -0.399523 1.7041734328458258e-38
0.100283 19.182274 113.336592 -0.005647 0.916706 -0.399523 1.7041734328458258e-38
-0.568926 19.204256 112.328737 -0.028231 0.916288 -0.399523 1.7041734328458258e-38
-1.211507 18.627565 112.544285 -0.050797 0.915315 -0.399523 1.7041734328458258e-38
-1.445153 19.154865 112.681015 -0.073333 0.913785 -0.399523 1.7041734328458258e-38
-1.574865 19.205270 112.589421 -0.095824 0.911701 -0.399523 1.7041734328458258e-38
-2.469727 18.287493 112.414474 -0.118257 0.909063 -0.399523 1.7041734328458258e-38
-3.142291 18.449504 112.450185 -0.140618 0.905874 -0.399523 1.7041734328458258e-38
-3.201023 18.689061 112.873832 -0.162893 0.902135 -0.399523 1.7041734328458258e-38
-3.700738 18.336234 112.804419 -0.185070 0.897847 -0.399523 1.7041734328458258e-38
-4.682376 18.707168 112.347594 -0.207135 0.893015 -0.399523 1.7041734328458258e-38
4.443858 18.813675 114.177315 0.218925 0.893678 -0.391678 1.7041734328458258e-38
3.931025 19.075569 113.333526 0.196840 0.898800 -0.391678 1.7041734328458258e-38
3.620740 18.929586 114.180267 0.174636 0.903377 -0.391678 1.7041734328458258e-38
2.980773 18.689325 113.672585 0.152327 0.907406 -0.391678 1.7041734328458258e-38
2.547954 19.305488 114.199075 0.129924 0.910883 -0.391678 1.7041734328458258e-38
2.157884 19.404700 113.773814 0.107443 0.913808 -0.391678 1.7041734328458258e-38
1.933093 19.052391 113.797127 0.084896 0.916177 -0.391678 1.7041734328458258e-38
1.589223 19.155604 113.752017 0.062298 0.917991 -0.391678 1.7041734328458258e-38
0.806884 18.965463 114.020269 0.039662 0.919247 -0.391678 1.7041734328458258e-38
0.177669 19.411136 113.988073 0.017002 0.919945 -0.391678 1.7041734328458258e-38
0.084282 19.071490 113.928201 -0.005668 0.920085 -0.391678 1.7041734328458258e-38
-0.313815 19.222420 114.042368 -0.028335 0.919666 -0.391678 1.7041734328458258e-38
-0.963491 19.547081 114.063812 -0.050984 0.918689 -0.391678 1.7041734328458258e-38
-1.829621 19.084268 114.154358 -0.073603 0.917154 -0.391678 1.7041734328458258e-38
-2.132538 18.890244 113.760326 -0.096177 0.915062 -0.391678 1.7041734328458258e-38
-2.544802 19.345536 113.694568 -0.118692 0.912415 -0.391678 1.7041734328458258e-38
-2.464764 18.936049 113.227908 -0.141136 0.909213 -0.391678 1.7041734328458258e-38
-3.898520 18.904418 113.952751 -0.163494 0.905460 -0.391678 1.7041734328458258e-38
-3.990536 19.138078 113.608308 -0.185752 0.901157 -0.391678 1.7041734328458258e-38
-4.273907 18.455889 113.856752 -0.207898 0.896307 -0.391678 1.7041734328458258e-38
-4.683935 18.539620 114.312652 -0.229918 0.890913 -0.391678 1.7041734328458258e-38
4.951932 19.398009 115.805868 0.222066 0.906503 -0.359081 1.7041734328458258e-38
3.852211 19.416281 114.740417 0.199665 0.911699 -0.359081 1.7041734328458258e-38
3.474733 19.334053 114.722029 0.177143 0.916341 -0.359081 1.7041734328458258e-38
3.357474 19.687084 115.042087 0.154512 0.920427 -0.359081 1.7041734328458258e-38
3.196611 19.910993 115.302184 0.131789 0.923955 -0.359081 1.7041734328458258e-38
2.377273 19.899706 115.329858 0.108985 0.926921 -0.359081 1.7041734328458258e-38
1.497189 19.662084 115.073497 0.086115 0.929325 -0.359081 1.7041734328458258e-38
1.362784 19.471257 115.280158 0.063192 0.931165 -0.359081 1.7041734328458258e-38
1.291528 20.333947 114.843567 0.040232 0.932439 -0.359081 1.7041734328458258e-38
0.623510 19.819032 115.072694 0.017246 0.933147 -0.359081 1.7041734328458258e-38
0.207765 20.345201 114.918945 -0.005749 0.933289 -0.359081 1.7041734328458258e-38
-0.769946 20.383425 115.021268 -0.028741 0.932864 -0.359081 1.7041734328458258e-38
-2.005301 20.044736 114.811139 -0.051716 0.931872 -0.359081 1.7041734328458258e-38
-1.680637 20.057425 114.496862 -0.074659 0.930315 -0.359081 1.7041734328458258e-38
-1.855378 19.379604 114.828713 -0.097557 0.928194 -0.359081 1.7041734328458258e-38
-2.477230 19.407626 114.683456 -0.120396 0.925508 -0.359081 1.7041734328458258e-38
-2.958654 19.866166 114.998241 -0.143161 0.922261 -0.359081 1.7041734328458258e-38
-3.357896 20.834520 114.604596 -0.165840 0.918454 -0.359081 1.7041734328458258e-38
-4.698033 19.869765 114.696774 -0.188418 0.914089 -0.359081 1.7041734328458258e-38
-4.395370 19.609767 115.041146 -0.210882 0.909170 -0.359081 1.7041734328458258e-38
-4.900160 19.823497 114.867888 -0.233217 0.903698 -0.359081 1.7041734328458258e-38
4.604927 19.636137 116.470740 0.226881 0.926158 -0.301258 1.7041734328458258e-38
4.191891 19.940606 116.348999 0.203994 0.931466 -0.301258 1.7041734328458258e-38
3.705772 20.300423 116.176144 0.180983 0.936210 -0.301258 1.7041734328458258e-38
3.205570 20.429687 116.329754 0.157863 0.940384 -0.301258 1.7041734328458258e-38
2.160177 19.377611 116.766692 0.134646 0.943988 -0.301258 1.7041734328458258e-38
2.404633 20.187862 115.623100 0.111348 0.947019 -0.301258 1.7041734328458258e-38
1.836500 19.976109 116.193984 0.087982 0.949475 -0.301258 1.7041734328458258e-38
1.161336 20.245810 116.346729 0.064562 0.951354 -0.301258 1.7041734328458258e-38
0.990323 20.340907 116.320642 0.041104 0.952656 -0.301258 1.7041734328458258e-38
-0.158741 20.350791 116.350736 0.017620 0.953380 -0.301258 1.7041734328458258e-38
-0.149325 20.824819 116.209384 -0.005874 0.953524 -0.301258 1.7041734328458258e-38
-1.024888 20.369639 116.116380 -0.029364 0.953090 -0.301258 1.7041734328458258e-38
-1.646722 20.256767 116.731408 -0.052837 0.952078 -0.301258 1.7041734328458258e-38
-1.740911 20.639122 116.503929 -0.076278 0.950487 -0.301258 1.7041734328458258e-38
-1.420168 20.403977 116.311592 -0.099672 0.948319 -0.301258 1.7041734328458258e-38
-2.602115 20.292715 116.210688 -0.123006 0.945575 -0.301258 1.7041734328458258e-38
-3.278568 20.276578 116.098869 -0.146265 0.942258 -0.301258 1.7041734328458258e-38
-4.181317 19.662048 116.782724 -0.169436 0.938368 -0.301258 1.7041734328458258e-38
-4.209959 20.190327 116.079318 -0.192503 0.933909 -0.301258 1.7041734328458258e-38
-4.337986 19.973106 116.885972 -0.215454 0.928883 -0.301258 1.7041734328458258e-38
-4.697497 19.953637 116.112037 -0.238274 0.923292 -0.301258 1.7041734328458258e-38
-5.929828 19.559395 116.294371 -0.260949 0.917142 -0.301258 1.7041734328458258e-38
5.029637 20.412500 117.196442 0.232169 0.947742 -0.218821 1.7041734328458258e-38
4.541972 20.401531 117.969097 0.208748 0.953174 -0.218821 1.7041734328458258e-38
4.187396 20.655928 117.571475 0.185201 0.958028 -0.218821 1.7041734328458258e-38
3.294010 20.810698 117.145008 0.161542 0.962300 -0.218821 1.7041734328458258e-38
3.382841 20.745583 117.424890 0.137784 0.965988 -0.218821 1.7041734328458258e-38
1.942217 20.552805 117.335249 0.113943 0.969089 -0.218821 1.7041734328458258e-38
1.436628 20.455802 117.796689 0.090032 0.971602 -0.218821 1.7041734328458258e-38
1.399634 20.595691 117.055298 0.066067 0.973526 -0.218821 1.7041734328458258e-38
0.838247 21.168483 117.537073 0.042062 0.974858 -0.218821 1.7041734328458258e-38
0.274346 20.936417 117.905399 0.018031 0.975598 -0.218821 1.7041734328458258e-38
0.286532 20.818553 117.033174 -0.006011 0.975746 -0.218821 1.7041734328458258e-38
-0.340330 20.588064 117.367823 -0.030049 0.975302 -0.218821 1.7041734328458258e-38
-1.440083 20.846506 117.812883 -0.054069 0.974266 -0.218821 1.7041734328458258e-38
-1.857451 20.842088 117.855555 -0.078056 0.972638 -0.218821 1.7041734328458258e-38
-2.055560 20.602315 117.480060 -0.101995 0.970420 -0.218821 1.7041734328458258e-38
-2.869164 20.770887 117.867614 -0.125873 0.967612 -0.218821 1.7041734328458258e-38
-3.138130 20.337034 117.673308 -0.149674 0.964217 -0.218821 1.7041734328458258e-38
-3.951908 20.763210 117.868184 -0.173385 0.960237 -0.218821 1.7041734328458258e-38
-4.033033 20.160632 117.468305 -0.196990 0.955674 -0.218821 1.7041734328458258e-38
-5.202769 19.950084 117.746226 -0.220475 0.950530 -0.218821 1.7041734328458258e-38
-5.408442 20.774561 117.376838 -0.243827 0.944810 -0.218821 1.7041734328458258e-38
-5.947413 20.025957 117.640350 -0.267031 0.938516 -0.218821 1.7041734328458258e-38
-5.748706 19.702229 117.259244 -0.290072 0.931652 -0.218821 1.7041734328458258e-38
5.363913 19.169344 119.064896 0.260039 0.958658 -0.115560 1.7041734328458258e-38
4.433184 20.486218 118.544306 0.236341 0.964774 -0.115560 1.7041734328458258e-38
4.621179 20.140893 118.764555 0.212500 0.970304 -0.115560 1.7041734328458258e-38
3.460182 20.551763 118.761561 0.188530 0.975245 -0.115560 1.7041734328458258e-38
3.680043 20.495310 118.847777 0.164445 0.979594 -0.115560 1.7041734328458258e-38
2.836138 20.853976 118.880221 0.140260 0.983348 -0.115560 1.7041734328458258e-38
2.707666 20.432615 118.735457 0.115990 0.986505 -0.115560 1.7041734328458258e-38
2.016093 21.384125 119.357692 0.091650 0.989063 -0.115560 1.7041734328458258e-38
1.009139 20.695114 118.013245 0.067254 0.991021 -0.115560 1.7041734328458258e-38
1.560988 21.003419 118.937074 0.042818 0.992377 -0.115560 1.7041734328458258e-38
0.291868 20.922869 119.101677 0.018355 0.993131 -0.115560 1.7041734328458258e-38
-0.442775 20.588483 118.690681 -0.006119 0.993282 -0.115560 1.7041734328458258e-38
-0.641483 21.084297 118.768794 -0.030589 0.992829 -0.115560 1.7041734328458258e-38
-1.413093 20.781227 118.815978 -0.055040 0.991774 -0.115560 1.7041734328458258e-38
-1.475908 21.160351 118.680507 -0.079458 0.990117 -0.115560 1.7041734328458258e-38
-2.399770 20.543516 119.112925 -0.103828 0.987859 -0.115560 1.7041734328458258e-38
-2.830527 20.523636 118.813039 -0.128135 0.985001 -0.115560 1.7041734328458258e-38
-2.725822 20.402630 118.940265 -0.152364 0.981545 -0.115560 1.7041734328458258e-38
-3.855137 20.627890 119.006233 -0.176501 0.977493 -0.115560 1.7041734328458258e-38
-3.860116 20.337813 118.988005 -0.200530 0.972848 -0.115560 1.7041734328458258e-38
-4.657381 20.507215 119.133581 -0.224438 0.967612 -0.115560 1.7041734328458258e-38
-5.442628 20.496149 118.809947 -0.248209 0.961789 -0.115560 1.7041734328458258e-38
-5.371958 20.251722 118.717555 -0.271830 0.955382 -0.115560 1.7041734328458258e-38
-5.959920 19.811140 118.642769 -0.295285 0.948395 -0.115560 1.7041734328458258e-38
5.573281 20.369641 120.068457 0.261793 0.965124 -0.000286 1.7041734328458258e-38
5.261848 20.697723 119.721134 0.237935 0.971281 -0.000286 1.7041734328458258e-38
3.933179 20.310259 120.025019 0.213933 0.976848 -0.000286 1.7041734328458258e-38
3.828183 20.808176 119.600353 0.189801 0.981823 -0.000286 1.7041734328458258e-38
3.950738 20.945526 119.884433 0.165554 0.986201 -0.000286 1.7041734328458258e-38
2.736250 20.744002 120.344331 0.141206 0.989980 -0.000286 1.7041734328458258e-38
2.332482 20.681866 119.998516 0.116773 0.993159 -0.000286 1.7041734328458258e-38
1.561020 21.233096 120.186418 0.092268 0.995734 -0.000286 1.7041734328458258e-38
1.693584 21.367462 119.762804 0.067708 0.997705 -0.000286 1.7041734328458258e-38
0.909883 20.952090 120.475288 0.043107 0.999070 -0.000286 1.7041734328458258e-38
0.263738 20.459367 119.861987 0.018479 0.999829 -0.000286 1.7041734328458258e-38
0.136442 21.159498 119.971933 -0.006160 0.999981 -0.000286 1.7041734328458258e-38
-0.760734 21.092333 120.169856 -0.030795 0.999526 -0.000286 1.7041734328458258e-38
-1.098530 20.863057 119.990702 -0.055411 0.998464 -0.000286 1.7041734328458258e-38
-1.843937 21.242878 119.960503 -0.079994 0.996795 -0.000286 1.7041734328458258e-38
-2.475586 21.562786 119.781480 -0.104528 0.994522 -0.000286 1.7041734328458258e-38
-2.976950 20.463480 119.793864 -0.128999 0.991645 -0.000286 1.7041734328458258e-38
-2.997357 20.277159 120.048318 -0.153392 0.988165 -0.000286 1.7041734328458258e-38
-3.906379 20.422361 119.478323 -0.177691 0.984086 -0.000286 1.7041734328458258e-38
-4.252814 20.053505 119.915809 -0.201882 0.979410 -0.000286 1.7041734328458258e-38
-4.642560 19.779219 120.208161 -0.225951 0.974139 -0.000286 1.7041734328458258e-38
-5.840737 20.878573 119.941736 -0.249883 0.968276 -0.000286 1.7041734328458258e-38
-6.005819 20.259804 119.729664 -0.273663 0.961826 -0.000286 1.7041734328458258e-38
-6.971577 20.392137 119.895807 -0.297277 0.954791 -0.000286 1.7041734328458258e-38
-6.712203 19.841134 119.750853 -0.320710 0.947177 -0.000286 1.7041734328458258e-38
