# .PCD v0.7 - Point Cloud Data file format
VERSION 0.7
FIELDS x y z normal_x normal_y normal_z rgb
SIZE 4 4 4 4 4 4 4
TYPE F F F F F F F
COUNT 1 1 1 1 1 1 1
WIDTH 259
HEIGHT 1
VIEWPOINT 0 0 0 1 0 0 0
POINTS 259
DATA ascii
-48.574464 0.868436 53.603400 -0.999924 0.012320 0.000000 1.5843200949324314e-38
-48.915828 1.514004 53.982440 -0.999317 0.036951 0.000000 1.5843200949324314e-38
-48.669465 0.744561 54.512028 -0.999924 0.012320 0.000000 1.5843200949324314e-38
-49.232723 -0.539425 54.039851 -0.999924 -0.012320 0.000000 1.5843200949324314e-38
-49.218967 1.350177 55.455027 -0.999317 0.036951 0.000000 1.5843200949324314e-38
-49.146987 0.657769 55.164338 -0.999924 0.012320 0.000000 1.5843200949324314e-38
-49.301351 -0.557437 56.092516 -0.999924 -0.012320 0.000000 1.5843200949324314e-38
-49.371582 -1.669208 55.501634 -0.999317 -0.036951 0.000000 1.5843200949324314e-38
-49.192155 -3.289091 55.356801 -0.998103 -0.061561 0.000000 1.5843200949324314e-38
-48.831674 2.838205 56.733422 -0.998103 0.061561 0.000000 1.5843200949324314e-38
-49.501138 2.040716 56.548177 -0.999317 0.036951 0.000000 1.5843200949324314e-38
-49.731749 0.394208 56.625750 -0.999924 0.012320 0.000000 1.5843200949324314e-38
-49.124340 -0.363418 56.762712 -0.999924 -0.012320 0.000000 1.5843200949324314e-38
-49.417824 -2.587080 56.769988 -0.999317 -0.036951 0.000000 1.5843200949324314e-38
-48.926528 -3.194248 56.579463 -0.998103 -0.061561 0.000000 1.5843200949324314e-38
-48.796966 -4.588743 57.371035 -0.996284 -0.086133 0.000000 1.5843200949324314e-38
-49.231180 3.306853 57.754384 -0.998103 0.061561 0.000000 1.5843200949324314e-38
-49.382906 1.875318 58.357900 -0.999317 0.036951 0.000000 1.5843200949324314e-38
-49.628805 0.750786 57.595030 -0.999924 0.012320 0.000000 1.5843200949324314e-38
-49.900497 -0.389466 58.930761 -0.999924 -0.012320 0.000000 1.5843200949324314e-38
-49.491702 -2.041958 58.184953 -0.999317 -0.036951 0.000000 1.5843200949324314e-38
-49.809668 -2.680677 58.158754 -0.998103 -0.061561 0.000000 1.5843200949324314e-38
-49.135357 -4.321312 58.486918 -0.996284 -0.086133 0.000000 1.5843200949324314e-38
-49.818055 -5.484989 58.306206 -0.993859 -0.110653 0.000000 1.5843200949324314e-38
-49.261191 -6.598202 58.247093 -0.990831 -0.135105 0.000000 1.5843200949324314e-38
-49.937260 4.764910 59.337580 -0.996284 0.086133 0.000000 1.5843200949324314e-38
-49.312430 2.977282 59.253019 -0.998103 0.061561 0.000000 1.5843200949324314e-38
-49.851279 2.230762 59.428938 -0.999317 0.036951 0.000000 1.5843200949324314e-38
-49.811991 0.805496 59.117526 -0.999924 0.012320 0.000000 1.5843200949324314e-38
-49.773760 -0.802931 59.822823 -0.999924 -0.012320 0.000000 1.5843200949324314e-38
-49.718889 -1.635269 58.769645 -0.999317 -0.036951 0.000000 1.5843200949324314e-38
-49.571929 -3.123831 58.950296 -0.998103 -0.061561 0.000000 1.5843200949324314e-38
-49.664692 -4.751673 59.564752 -0.996284 -0.086133 0.000000 1.5843200949324314e-38
-49.142063 -6.056366 59.372449 -0.993859 -0.110653 0.000000 1.5843200949324314e-38
-49.470695 -7.335725 59.656395 -0.990831 -0.135105 0.000000 1.5843200949324314e-38
-49.052485 -7.346595 59.530294 -0.987202 -0.159476 0.000000 1.5843200949324314e-38
-49.292975 -9.010859 59.766885 -0.982973 -0.183750 0.000000 1.5843200949324314e-38
-49.639311 4.351780 60.804635 -0.996284 0.086133 0.000000 1.5843200949324314e-38
-49.938941 3.313635 60.376261 -0.998103 0.061561 0.000000 1.5843200949324314e-38
-50.558792 2.148753 61.022055 -0.999317 0.036951 0.000000 1.5843200949324314e-38
-50.152414 0.860809 60.129764 -0.999924 0.012320 0.000000 1.5843200949324314e-38
-50.304106 -0.592893 60.097977 -0.999924 -0.012320 0.000000 1.5843200949324314e-38
-50.546065 -1.804677 60.436852 -0.999317 -0.036951 0.000000 1.5843200949324314e-38
-50.130387 -3.207412 60.233483 -0.998103 -0.061561 0.000000 1.5843200949324314e-38
-50.000436 -4.321219 60.443744 -0.996284 -0.086133 0.000000 1.5843200949324314e-38
-49.964102 -5.607265 60.864485 -0.993859 -0.110653 0.000000 1.5843200949324314e-38
-49.690236 -7.349569 60.260400 -0.990831 -0.135105 0.000000 1.5843200949324314e-38
-49.200441 -8.198839 60.592011 -0.987202 -0.159476 0.000000 1.5843200949324314e-38
-48.690568 -9.020247 59.974059 -0.982973 -0.183750 0.000000 1.5843200949324314e-38
-48.592702 -10.375941 60.729347 -0.978148 -0.207912 0.000000 1.5843200949324314e-38
-50.021776 4.692388 61.818716 -0.996284 0.086133 0.000000 1.5843200949324314e-38
-50.339167 3.668629 61.642724 -0.998103 0.061561 0.000000 1.5843200949324314e-38
-50.379519 1.960327 61.870202 -0.999317 0.036951 0.000000 1.5843200949324314e-38
-50.442080 0.647237 62.326354 -0.999924 0.012320 0.000000 1.5843200949324314e-38
-50.118097 -0.642885 61.596488 -0.999924 -0.012320 0.000000 1.5843200949324314e-38
-50.549122 -1.575968 61.377673 -0.999317 -0.036951 0.000000 1.5843200949324314e-38
-49.547735 -3.110002 61.442106 -0.998103 -0.061561 0.000000 1.5843200949324314e-38
-50.122453 -4.578230 61.729974 -0.996284 -0.086133 0.000000 1.5843200949324314e-38
-50.508168 -5.644516 61.218879 -0.993859 -0.110653 0.000000 1.5843200949324314e-38
-50.082400 -7.052662 61.704975 -0.990831 -0.135105 0.000000 1.5843200949324314e-38
-49.948907 -8.021684 62.122072 -0.987202 -0.159476 0.000000 1.5843200949324314e-38
-49.398487 -8.864622 61.706111 -0.982973 -0.183750 0.000000 1.5843200949324314e-38
-49.166223 -10.362075 62.201166 -0.978148 -0.207912 0.000000 1.5843200949324314e-38
-49.209831 -11.445212 61.598477 -0.972728 -0.231948 0.000000 1.5843200949324314e-38
-48.858991 -12.992918 61.991622 -0.966718 -0.255843 0.000000 1.5843200949324314e-38
-50.169271 5.611069 63.013079 -0.993859 0.110653 0.000000 1.5843200949324314e-38
-50.420989 4.160001 63.288628 -0.996284 0.086133 0.000000 1.5843200949324314e-38
-50.904690 3.213733 62.889454 -0.998103 0.061561 0.000000 1.5843200949324314e-38
-50.700120 1.750018 63.043177 -0.999317 0.036951 0.000000 1.5843200949324314e-38
-50.452117 0.612717 63.372677 -0.999924 0.012320 0.000000 1.5843200949324314e-38
-50.289294 -0.530826 63.297561 -0.999924 -0.012320 0.000000 1.5843200949324314e-38
-49.964563 -2.293989 63.415624 -0.999317 -0.036951 0.000000 1.5843200949324314e-38
-50.047165 -2.985287 63.663997 -0.998103 -0.061561 0.000000 1.5843200949324314e-38
-49.886405 -4.460006 63.014651 -0.996284 -0.086133 0.000000 1.5843200949324314e-38
-50.136653 -5.786991 63.906150 -0.993859 -0.110653 0.000000 1.5843200949324314e-38
-49.905954 -6.823256 62.669723 -0.990831 -0.135105 0.000000 1.5843200949324314e-38
-49.883356 -8.426223 63.320759 -0.987202 -0.159476 0.000000 1.5843200949324314e-38
-50.495589 -8.883822 62.965540 -0.982973 -0.183750 0.000000 1.5843200949324314e-38
-50.008244 -10.526622 63.097830 -0.978148 -0.207912 0.000000 1.5843200949324314e-38
-49.245769 -11.324164 63.207047 -0.972728 -0.231948 0.000000 1.5843200949324314e-38
-48.683508 -13.021952 63.220883 -0.966718 -0.255843 0.000000 1.5843200949324314e-38
-48.981042 -14.071295 62.865321 -0.960122 -0.279583 0.000000 1.5843200949324314e-38
-50.378384 4.976640 63.984414 -0.993859 0.110653 0.000000 1.5843200949324314e-38
-50.153315 4.404434 64.355961 -0.996284 0.086133 0.000000 1.5843200949324314e-38
-51.001408 2.939028 64.687692 -0.998103 0.061561 0.000000 1.5843200949324314e-38
-50.364086 2.118086 64.495368 -0.999317 0.036951 0.000000 1.5843200949324314e-38
-50.656508 0.605322 63.968799 -0.999924 0.012320 0.000000 1.5843200949324314e-38
-51.270434 -0.232004 64.320020 -0.999924 -0.012320 0.000000 1.5843200949324314e-38
-50.670506 -1.815696 64.408344 -0.999317 -0.036951 0.000000 1.5843200949324314e-38
-50.648427 -2.921050 64.099631 -0.998103 -0.061561 0.000000 1.5843200949324314e-38
-50.304661 -4.601038 64.401736 -0.996284 -0.086133 0.000000 1.5843200949324314e-38
-50.890998 -5.676496 64.131948 -0.993859 -0.110653 0.000000 1.5843200949324314e-38
-50.374874 -6.649259 64.352713 -0.990831 -0.135105 0.000000 1.5843200949324314e-38
-49.609331 -7.870306 64.261361 -0.987202 -0.159476 0.000000 1.5843200949324314e-38
-50.008396 -9.230032 64.541194 -0.982973 -0.183750 0.000000 1.5843200949324314e-38
-50.107411 -10.380971 63.967469 -0.978148 -0.207912 0.000000 1.5843200949324314e-38
-49.299676 -11.464127 64.419816 -0.972728 -0.231948 0.000000 1.5843200949324314e-38
-49.853763 -13.543890 64.498712 -0.966718 -0.255843 0.000000 1.5843200949324314e-38
-49.556733 -14.033351 64.625345 -0.960122 -0.279583 0.000000 1.5843200949324314e-38
-48.114978 -15.487257 64.461449 -0.952942 -0.303153 0.000000 1.5843200949324314e-38
-47.998374 -17.045806 64.553403 -0.945184 -0.326539 0.000000 1.5843200949324314e-38
-50.700768 6.892954 65.601456 -0.990831 0.135105 0.000000 1.5843200949324314e-38
-50.910303 5.804843 65.083853 -0.993859 0.110653 0.000000 1.5843200949324314e-38
-50.774621 4.938322 65.384968 -0.996284 0.086133 0.000000 1.5843200949324314e-38
-50.975032 3.070991 65.497959 -0.998103 0.061561 0.000000 1.5843200949324314e-38
-51.362864 2.485291 65.682746 -0.999317 0.036951 0.000000 1.5843200949324314e-38
-51.286576 0.394008 65.585461 -0.999924 0.012320 0.000000 1.5843200949324314e-38
-51.735639 -0.313555 65.412855 -0.999924 -0.012320 0.000000 1.5843200949324314e-38
-50.937685 -1.757144 65.856600 -0.999317 -0.036951 0.000000 1.5843200949324314e-38
-50.844527 -2.922146 65.872730 -0.998103 -0.061561 0.000000 1.5843200949324314e-38
-50.998423 -3.755048 65.672872 -0.996284 -0.086133 0.000000 1.5843200949324314e-38
-50.783877 -5.905490 65.504896 -0.993859 -0.110653 0.000000 1.5843200949324314e-38
-50.500233 -6.873838 66.115245 -0.990831 -0.135105 0.000000 1.5843200949324314e-38
-50.552362 -7.943700 65.229346 -0.987202 -0.159476 0.000000 1.5843200949324314e-38
-49.564361 -9.745710 66.189296 -0.982973 -0.183750 0.000000 1.5843200949324314e-38
-50.013544 -11.292410 65.972622 -0.978148 -0.207912 0.000000 1.5843200949324314e-38
-49.671226 -11.986055 65.759515 -0.972728 -0.231948 0.000000 1.5843200949324314e-38
-49.189561 -12.946431 65.907522 -0.966718 -0.255843 0.000000 1.5843200949324314e-38
-48.976096 -14.088738 65.410481 -0.960122 -0.279583 0.000000 1.5843200949324314e-38
-48.455389 -15.643053 65.229648 -0.952942 -0.303153 0.000000 1.5843200949324314e-38
-48.350578 -16.765340 65.845335 -0.945184 -0.326539 0.000000 1.5843200949324314e-38
-48.298985 -17.539163 65.380118 -0.936852 -0.349727 0.000000 1.5843200949324314e-38
-48.147761 -19.403269 65.474750 -0.927951 -0.372702 0.000000 1.5843200949324314e-38
-50.680949 6.938591 66.403855 -0.990831 0.135105 0.000000 1.5843200949324314e-38
-50.900169 5.589523 66.019835 -0.993859 0.110653 0.000000 1.5843200949324314e-38
-51.255408 3.913062 66.434662 -0.996284 0.086133 0.000000 1.5843200949324314e-38
-51.306264 3.137290 66.553608 -0.998103 0.061561 0.000000 1.5843200949324314e-38
-51.135688 1.862325 66.676930 -0.999317 0.036951 0.000000 1.5843200949324314e-38
-51.312016 0.993873 66.159029 -0.999924 0.012320 0.000000 1.5843200949324314e-38
-50.935180 -0.817348 66.570447 -0.999924 -0.012320 0.000000 1.5843200949324314e-38
-51.414530 -2.162692 66.492011 -0.999317 -0.036951 0.000000 1.5843200949324314e-38
-50.977531 -3.111950 66.228816 -0.998103 -0.061561 0.000000 1.5843200949324314e-38
-50.935943 -4.262579 66.358747 -0.996284 -0.086133 0.000000 1.5843200949324314e-38
-50.959651 -5.493546 66.322835 -0.993859 -0.110653 0.000000 1.5843200949324314e-38
-50.772725 -7.137337 66.966781 -0.990831 -0.135105 0.000000 1.5843200949324314e-38
-50.952111 -7.873049 66.731063 -0.987202 -0.159476 0.000000 1.5843200949324314e-38
-50.639428 -9.648423 67.066329 -0.982973 -0.183750 0.000000 1.5843200949324314e-38
-50.424221 -10.353751 66.868150 -0.978148 -0.207912 0.000000 1.5843200949324314e-38
-50.344787 -11.897831 66.818182 -0.972728 -0.231948 0.000000 1.5843200949324314e-38
-50.046070 -13.129652 66.966778 -0.966718 -0.255843 0.000000 1.5843200949324314e-38
-48.943573 -14.025375 67.520834 -0.960122 -0.279583 0.000000 1.5843200949324314e-38
-48.913320 -15.394363 66.622253 -0.952942 -0.303153 0.000000 1.5843200949324314e-38
-47.950008 -17.028164 67.355895 -0.945184 -0.326539 0.000000 1.5843200949324314e-38
-47.574323 -18.186556 67.115022 -0.936852 -0.349727 0.000000 1.5843200949324314e-38
-47.493720 -19.253991 66.763381 -0.927951 -0.372702 0.000000 1.5843200949324314e-38
-47.065313 -20.189896 67.252381 -0.918487 -0.395451 0.000000 1.5843200949324314e-38
-51.031458 8.338191 68.230485 -0.987202 0.159476 0.000000 1.5843200949324314e-38
-51.339003 6.680178 68.064809 -0.990831 0.135105 0.000000 1.5843200949324314e-38
-51.711884 6.008406 67.974088 -0.993859 0.110653 0.000000 1.5843200949324314e-38
-51.726477 4.084842 68.135177 -0.996284 0.086133 0.000000 1.5843200949324314e-38
-51.383628 2.943997 68.007075 -0.998103 0.061561 0.000000 1.5843200949324314e-38
-51.870801 1.827963 68.483900 -0.999317 0.036951 0.000000 1.5843200949324314e-38
-50.924175 0.571763 68.170790 -0.999924 0.012320 0.000000 1.5843200949324314e-38
-51.445643 -1.151602 67.696280 -0.999924 -0.012320 0.000000 1.5843200949324314e-38
-52.226732 -1.770765 68.624852 -0.999317 -0.036951 0.000000 1.5843200949324314e-38
-51.149700 -3.161177 68.012292 -0.998103 -0.061561 0.000000 1.5843200949324314e-38
-51.481326 -4.123739 68.105934 -0.996284 -0.086133 0.000000 1.5843200949324314e-38
-51.231851 -6.037039 68.221560 -0.993859 -0.110653 0.000000 1.5843200949324314e-38
-51.139445 -6.847916 68.340960 -0.990831 -0.135105 0.000000 1.5843200949324314e-38
-51.397754 -8.312412 67.909052 -0.987202 -0.159476 0.000000 1.5843200949324314e-38
-50.847852 -9.810525 67.822981 -0.982973 -0.183750 0.000000 1.5843200949324314e-38
-50.769924 -10.473962 68.154462 -0.978148 -0.207912 0.000000 1.5843200949324314e-38
-50.068505 -12.538997 68.625890 -0.972728 -0.231948 0.000000 1.5843200949324314e-38
-49.973575 -12.669721 68.265977 -0.966718 -0.255843 0.000000 1.5843200949324314e-38
-49.580339 -13.804346 68.211451 -0.960122 -0.279583 0.000000 1.5843200949324314e-38
-49.209108 -15.750082 68.350823 -0.952942 -0.303153 0.000000 1.5843200949324314e-38
-48.901490 -16.952275 67.862152 -0.945184 -0.326539 0.000000 1.5843200949324314e-38
-48.537572 -18.242777 68.572974 -0.936852 -0.349727 0.000000 1.5843200949324314e-38
-47.549619 -19.148621 67.876988 -0.927951 -0.372702 0.000000 1.5843200949324314e-38
-47.529266 -20.502321 68.577923 -0.918487 -0.395451 0.000000 1.5843200949324314e-38
-46.759787 -21.328807 68.101188 -0.908465 -0.417960 0.000000 1.5843200949324314e-38
-46.567520 -22.669949 67.718487 -0.897892 -0.440216 0.000000 1.5843200949324314e-38
-51.783980 7.704340 68.870887 -0.987202 0.159476 0.000000 1.5843200949324314e-38
-51.555511 6.863173 69.258682 -0.990831 0.135105 0.000000 1.5843200949324314e-38
-51.495968 5.717663 69.621440 -0.993859 0.110653 0.000000 1.5843200949324314e-38
-52.114425 4.562212 69.377080 -0.996284 0.086133 0.000000 1.5843200949324314e-38
-52.084487 3.349233 69.390122 -0.998103 0.061561 0.000000 1.5843200949324314e-38
-51.781534 1.188925 69.567486 -0.999317 0.036951 0.000000 1.5843200949324314e-38
-51.732000 0.759280 68.261134 -0.999924 0.012320 0.000000 1.5843200949324314e-38
-51.959461 -1.068314 69.666377 -0.999924 -0.012320 0.000000 1.5843200949324314e-38
-52.100064 -1.470453 69.564205 -0.999317 -0.036951 0.000000 1.5843200949324314e-38
-51.639277 -2.848480 68.995025 -0.998103 -0.061561 0.000000 1.5843200949324314e-38
-51.840995 -4.185317 68.996407 -0.996284 -0.086133 0.000000 1.5843200949324314e-38
-51.883561 -5.828633 69.013708 -0.993859 -0.110653 0.000000 1.5843200949324314e-38
-50.769344 -6.766376 69.105555 -0.990831 -0.135105 0.000000 1.5843200949324314e-38
-51.441352 -8.159875 69.634614 -0.987202 -0.159476 0.000000 1.5843200949324314e-38
-50.834604 -9.804257 68.847340 -0.982973 -0.183750 0.000000 1.5843200949324314e-38
-50.785324 -10.675887 69.137205 -0.978148 -0.207912 0.000000 1.5843200949324314e-38
-50.088840 -11.857649 69.349555 -0.972728 -0.231948 0.000000 1.5843200949324314e-38
-49.927585 -13.670408 69.128881 -0.966718 -0.255843 0.000000 1.5843200949324314e-38
-50.050156 -14.368163 68.970847 -0.960122 -0.279583 0.000000 1.5843200949324314e-38
-49.341566 -15.753856 69.458348 -0.952942 -0.303153 0.000000 1.5843200949324314e-38
-49.323245 -16.780463 68.957507 -0.945184 -0.326539 0.000000 1.5843200949324314e-38
-48.821910 -18.159989 69.636649 -0.936852 -0.349727 0.000000 1.5843200949324314e-38
-48.324000 -19.840773 68.994768 -0.927951 -0.372702 0.000000 1.5843200949324314e-38
-47.696791 -19.925216 69.394850 -0.918487 -0.395451 0.000000 1.5843200949324314e-38
-47.288053 -21.694373 69.749641 -0.908465 -0.417960 0.000000 1.5843200949324314e-38
-46.586455 -22.873421 69.156719 -0.897892 -0.440216 0.000000 1.5843200949324314e-38
-45.729549 -24.101600 69.540036 -0.886774 -0.462204 0.000000 1.5843200949324314e-38
-52.515500 5.748339 70.534339 -0.993859 0.110653 0.000000 1.5843200949324314e-38
-51.786700 4.427257 70.256703 -0.996284 0.086133 0.000000 1.5843200949324314e-38
-52.013568 3.733109 70.502851 -0.998103 0.061561 0.000000 1.5843200949324314e-38
-51.807314 1.612790 70.428038 -0.999317 0.036951 0.000000 1.5843200949324314e-38
-52.334960 1.029201 70.048730 -0.999924 0.012320 0.000000 1.5843200949324314e-38
-51.923056 -0.538876 70.598245 -0.999924 -0.012320 0.000000 1.5843200949324314e-38
-52.706651 -2.529790 70.550581 -0.999317 -0.036951 0.000000 1.5843200949324314e-38
-52.216961 -3.396408 70.388102 -0.998103 -0.061561 0.000000 1.5843200949324314e-38
-52.161222 -4.849841 70.515447 -0.996284 -0.086133 0.000000 1.5843200949324314e-38
-52.290988 -5.909965 70.315240 -0.993859 -0.110653 0.000000 1.5843200949324314e-38
-51.568702 -6.314551 70.220879 -0.990831 -0.135105 0.000000 1.5843200949324314e-38
-51.250815 -8.232679 70.683433 -0.987202 -0.159476 0.000000 1.5843200949324314e-38
-51.216655 -9.129654 70.721053 -0.982973 -0.183750 0.000000 1.5843200949324314e-38
-50.691193 -11.243734 70.544366 -0.978148 -0.207912 0.000000 1.5843200949324314e-38
-50.772496 -12.328750 70.327525 -0.972728 -0.231948 0.000000 1.5843200949324314e-38
-50.323569 -13.176703 70.809945 -0.966718 -0.255843 0.000000 1.5843200949324314e-38
-49.683098 -14.461313 70.532151 -0.960122 -0.279583 0.000000 1.5843200949324314e-38
-49.687233 -15.849957 70.281376 -0.952942 -0.303153 0.000000 1.5843200949324314e-38
-49.314700 -16.886510 70.977570 -0.945184 -0.326539 0.000000 1.5843200949324314e-38
-48.797494 -18.441627 70.806240 -0.936852 -0.349727 0.000000 1.5843200949324314e-38
-48.890117 -19.081992 70.085612 -0.927951 -0.372702 0.000000 1.5843200949324314e-38
-47.599744 -20.721604 70.611737 -0.918487 -0.395451 0.000000 1.5843200949324314e-38
-46.650430 -22.001457 70.215299 -0.908465 -0.417960 0.000000 1.5843200949324314e-38
-46.701693 -22.450668 70.569213 -0.897892 -0.440216 0.000000 1.5843200949324314e-38
-46.133188 -24.001777 70.214062 -0.886774 -0.462204 0.000000 1.5843200949324314e-38
-45.486204 -25.299983 70.912202 -0.875117 -0.483911 0.000000 1.5843200949324314e-38
-52.015758 -3.064117 72.029340 -0.998103 -0.061561 0.000000 1.5843200949324314e-38
-52.078136 -4.862235 72.084876 -0.996284 -0.086133 0.000000 1.5843200949324314e-38
-52.170745 -6.009508 71.592990 -0.993859 -0.110653 0.000000 1.5843200949324314e-38
-52.315190 -7.127424 71.938379 -0.990831 -0.135105 0.000000 1.5843200949324314e-38
-51.732488 -7.934560 72.135438 -0.987202 -0.159476 0.000000 1.5843200949324314e-38
-51.114569 -10.185327 72.182691 -0.982973 -0.183750 0.000000 1.5843200949324314e-38
-51.200274 -10.364307 71.571357 -0.978148 -0.207912 0.000000 1.5843200949324314e-38
-50.887787 -12.097334 71.472872 -0.972728 -0.231948 0.000000 1.5843200949324314e-38
-51.017840 -14.092543 72.638422 -0.966718 -0.255843 0.000000 1.5843200949324314e-38
-50.687463 -15.110617 71.924176 -0.960122 -0.279583 0.000000 1.5843200949324314e-38
-50.238739 -16.329087 70.890267 -0.952942 -0.303153 0.000000 1.5843200949324314e-38
-49.318243 -17.389645 71.945594 -0.945184 -0.326539 0.000000 1.5843200949324314e-38
-48.993276 -18.255030 71.616549 -0.936852 -0.349727 0.000000 1.5843200949324314e-38
-48.588017 -19.750089 71.512554 -0.927951 -0.372702 0.000000 1.5843200949324314e-38
-48.339077 -20.216584 71.633740 -0.918487 -0.395451 0.000000 1.5843200949324314e-38
-48.166175 -21.769734 71.511455 -0.908465 -0.417960 0.000000 1.5843200949324314e-38
-46.947396 -23.091547 72.199630 -0.897892 -0.440216 0.000000 1.5843200949324314e-38
-46.467968 -23.915211 71.965727 -0.886774 -0.462204 0.000000 1.5843200949324314e-38
-51.686721 -12.006088 72.315400 -0.972728 -0.231948 0.000000 1.5843200949324314e-38
-50.966476 -13.455829 73.123353 -0.966718 -0.255843 0.000000 1.5843200949324314e-38
-50.336268 -14.693394 73.426938 -0.960122 -0.279583 0.000000 1.5843200949324314e-38
-49.426564 -15.913897 72.959665 -0.952942 -0.303153 0.000000 1.5843200949324314e-38
-49.671623 -17.327080 73.102448 -0.945184 -0.326539 0.000000 1.5843200949324314e-38
-48.804798 -19.108270 72.938792 -0.936852 -0.349727 0.000000 1.5843200949324314e-38
-48.272379 -19.449517 73.113829 -0.927951 -0.372702 0.000000 1.5843200949324314e-38
-48.702349 -20.551200 73.292429 -0.918487 -0.395451 0.000000 1.5843200949324314e-38
-47.635939 -22.140270 73.122537 -0.908465 -0.417960 0.000000 1.5843200949324314e-38
-47.452163 -23.463108 73.230331 -0.897892 -0.440216 0.000000 1.5843200949324314e-38
-46.228332 -24.489250 72.640092 -0.886774 -0.462204 0.000000 1.5843200949324314e-38
-49.149381 -19.133770 74.054256 -0.927951 -0.372702 0.000000 1.5843200949324314e-38
-48.391969 -21.249604 74.629447 -0.918487 -0.395451 0.000000 1.5843200949324314e-38
-47.993052 -22.175234 74.186774 -0.908465 -0.417960 0.000000 1.5843200949324314e-38
-46.591295 -23.079804 74.179766 -0.897892 -0.440216 0.000000 1.5843200949324314e-38
-47.623789 -23.965783 74.018337 -0.886774 -0.462204 0.000000 1.5843200949324314e-38
