# .PCD v0.7 - Point Cloud Data file format
VERSION 0.7
FIELDS x y z normal_x normal_y normal_z rgb
SIZE 4 4 4 4 4 4 4
TYPE F F F F F F F
COUNT 1 1 1 1 1 1 1
WIDTH 319
HEIGHT 1
VIEWPOINT 0 0 0 1 0 0 0
POINTS 319
DATA ascii
7.170693 45.275584 38.553822 0.165554 0.986201 0.000000 1.75027152803718e-38
6.696006 45.340722 38.044002 0.141206 0.989980 0.000000 1.75027152803718e-38
5.432517 45.264843 38.735797 0.116773 0.993159 0.000000 1.75027152803718e-38
7.990226 46.010632 40.119056 0.165554 0.986201 0.000000 1.75027152803718e-38
7.185286 45.626806 39.324148 0.141206 0.989980 0.000000 1.75027152803718e-38
5.942622 45.574877 39.279050 0.116773 0.993159 0.000000 1.75027152803718e-38
3.959272 45.943684 38.992316 0.092268 0.995734 0.000000 1.75027152803718e-38
2.696829 45.887422 39.228851 0.067708 0.997705 0.000000 1.75027152803718e-38
8.680601 45.846634 40.239637 0.189801 0.981823 0.000000 1.75027152803718e-38
7.823808 45.607917 40.253179 0.165554 0.986201 0.000000 1.75027152803718e-38
6.258327 45.915463 40.855186 0.141206 0.989980 0.000000 1.75027152803718e-38
5.639216 46.316134 40.360728 0.116773 0.993159 0.000000 1.75027152803718e-38
4.393682 46.411772 40.890419 0.092268 0.995734 0.000000 1.75027152803718e-38
3.291781 45.704890 40.527678 0.067708 0.997705 0.000000 1.75027152803718e-38
2.409574 46.264072 41.491673 0.043107 0.999070 0.000000 1.75027152803718e-38
0.473730 46.852316 40.641531 0.018479 0.999829 0.000000 1.75027152803718e-38
8.855684 45.916397 42.092889 0.189801 0.981823 0.000000 1.75027152803718e-38
7.560693 45.691288 42.538995 0.165554 0.986201 0.000000 1.75027152803718e-38
6.712605 46.388071 42.181575 0.141206 0.989980 0.000000 1.75027152803718e-38
5.735027 46.018261 42.086810 0.116773 0.993159 0.000000 1.75027152803718e-38
4.451896 46.794886 42.863778 0.092268 0.995734 0.000000 1.75027152803718e-38
3.277848 46.300615 41.703163 0.067708 0.997705 0.000000 1.75027152803718e-38
1.737574 46.330340 41.191531 0.043107 0.999070 0.000000 1.75027152803718e-38
0.658529 46.812962 42.084476 0.018479 0.999829 0.000000 1.75027152803718e-38
-0.364677 46.118427 42.376979 -0.006160 0.999981 0.000000 1.75027152803718e-38
-1.281687 46.579914 41.401100 -0.030795 0.999526 0.000000 1.75027152803718e-38
9.752872 45.486117 43.291889 0.213933 0.976848 0.000000 1.75027152803718e-38
8.961519 46.044106 43.079886 0.189801 0.981823 0.000000 1.75027152803718e-38
8.050106 46.338446 43.773362 0.165554 0.986201 0.000000 1.75027152803718e-38
6.865900 46.250221 43.690616 0.141206 0.989980 0.000000 1.75027152803718e-38
5.549870 46.743302 43.515098 0.116773 0.993159 0.000000 1.75027152803718e-38
4.283101 46.655486 43.259557 0.092268 0.995734 0.000000 1.75027152803718e-38
2.914492 46.073387 43.090827 0.067708 0.997705 0.000000 1.75027152803718e-38
2.078181 47.106401 43.537766 0.043107 0.999070 0.000000 1.75027152803718e-38
0.781377 46.612201 43.245007 0.018479 0.999829 0.000000 1.75027152803718e-38
-0.580937 46.188780 42.835426 -0.006160 0.999981 0.000000 1.75027152803718e-38
-1.029533 47.359227 43.525151 -0.030795 0.999526 0.000000 1.75027152803718e-38
-2.612046 46.334414 43.250629 -0.055411 0.998464 0.000000 1.75027152803718e-38
-3.562119 46.923157 43.505612 -0.079994 0.996795 0.000000 1.75027152803718e-38
-4.531596 47.150627 43.177462 -0.104528 0.994522 0.000000 1.75027152803718e-38
9.970833 45.930819 44.883473 0.213933 0.976848 0.000000 1.75027152803718e-38
9.080965 46.019516 44.491408 0.189801 0.981823 0.000000 1.75027152803718e-38
8.268467 46.304518 44.548047 0.165554 0.986201 0.000000 1.75027152803718e-38
6.842419 46.639099 44.424237 0.141206 0.989980 0.000000 1.75027152803718e-38
5.270654 46.721045 44.733488 0.116773 0.993159 0.000000 1.75027152803718e-38
4.737121 46.405636 45.064918 0.092268 0.995734 0.000000 1.75027152803718e-38
3.098863 47.215418 44.314822 0.067708 0.997705 0.000000 1.75027152803718e-38
1.544735 46.608318 44.436795 0.043107 0.999070 0.000000 1.75027152803718e-38
1.026585 47.047256 44.461012 0.018479 0.999829 0.000000 1.75027152803718e-38
0.045607 47.045635 44.620018 -0.006160 0.999981 0.000000 1.75027152803718e-38
-0.515474 47.021207 44.327329 -0.030795 0.999526 0.000000 1.75027152803718e-38
-2.462597 47.193877 44.626378 -0.055411 0.998464 0.000000 1.75027152803718e-38
-3.716330 47.339834 44.943257 -0.079994 0.996795 0.000000 1.75027152803718e-38
-4.952769 46.595161 44.664843 -0.104528 0.994522 0.000000 1.75027152803718e-38
-6.263658 46.918397 44.663299 -0.128999 0.991645 0.000000 1.75027152803718e-38
-6.415444 46.931155 44.212460 -0.153392 0.988165 0.000000 1.75027152803718e-38
10.115152 47.005537 46.126574 0.213933 0.976848 0.000000 1.75027152803718e-38
9.306198 47.019795 45.858326 0.189801 0.981823 0.000000 1.75027152803718e-38
7.795998 46.554355 45.871541 0.165554 0.986201 0.000000 1.75027152803718e-38
5.843879 46.797768 45.841233 0.141206 0.989980 0.000000 1.75027152803718e-38
5.473174 46.488046 45.728245 0.116773 0.993159 0.000000 1.75027152803718e-38
3.901481 47.601192 45.695991 0.092268 0.995734 0.000000 1.75027152803718e-38
2.581794 47.100282 46.041815 0.067708 0.997705 0.000000 1.75027152803718e-38
2.090500 46.952617 45.569721 0.043107 0.999070 0.000000 1.75027152803718e-38
0.787457 47.130742 45.395326 0.018479 0.999829 0.000000 1.75027152803718e-38
-0.311464 46.869696 46.057909 -0.006160 0.999981 0.000000 1.75027152803718e-38
-1.134373 46.947337 45.558203 -0.030795 0.999526 0.000000 1.75027152803718e-38
-2.746240 47.188631 45.850250 -0.055411 0.998464 0.000000 1.75027152803718e-38
-3.642469 47.251142 46.239356 -0.079994 0.996795 0.000000 1.75027152803718e-38
-4.923026 46.621015 45.290441 -0.104528 0.994522 0.000000 1.75027152803718e-38
-5.607149 47.028649 45.835132 -0.128999 0.991645 0.000000 1.75027152803718e-38
-7.116229 46.759367 45.903153 -0.153392 0.988165 0.000000 1.75027152803718e-38
-8.511355 46.835022 45.615736 -0.177691 0.984086 0.000000 1.75027152803718e-38
-9.814112 45.790145 45.701878 -0.201882 0.979410 0.000000 1.75027152803718e-38
10.624723 45.654365 47.348615 0.237935 0.971281 0.000000 1.75027152803718e-38
9.686450 46.803457 47.034624 0.213933 0.976848 0.000000 1.75027152803718e-38
9.229408 46.557916 47.167319 0.189801 0.981823 0.000000 1.75027152803718e-38
7.958507 46.831356 46.690678 0.165554 0.986201 0.000000 1.75027152803718e-38
6.814619 46.477326 47.289760 0.141206 0.989980 0.000000 1.75027152803718e-38
5.605610 47.312664 46.225237 0.116773 0.993159 0.000000 1.75027152803718e-38
4.044875 47.144007 47.212413 0.092268 0.995734 0.000000 1.75027152803718e-38
2.933176 48.153758 46.931315 0.067708 0.997705 0.000000 1.75027152803718e-38
1.742691 47.398151 46.725025 0.043107 0.999070 0.000000 1.75027152803718e-38
0.522415 47.793540 47.164281 0.018479 0.999829 0.000000 1.75027152803718e-38
-0.137744 47.880482 47.156311 -0.006160 0.999981 0.000000 1.75027152803718e-38
-1.782937 47.688422 46.672324 -0.030795 0.999526 0.000000 1.75027152803718e-38
-2.775366 47.411665 46.966155 -0.055411 0.998464 0.000000 1.75027152803718e-38
-4.336950 47.055859 47.003557 -0.079994 0.996795 0.000000 1.75027152803718e-38
-5.148136 47.576033 47.399555 -0.104528 0.994522 0.000000 1.75027152803718e-38
-6.463367 47.119420 47.485125 -0.128999 0.991645 0.000000 1.75027152803718e-38
-7.326117 46.814142 47.268376 -0.153392 0.988165 0.000000 1.75027152803718e-38
-8.522290 47.123745 46.831885 -0.177691 0.984086 0.000000 1.75027152803718e-38
-9.731459 46.757401 47.040472 -0.201882 0.979410 0.000000 1.75027152803718e-38
-10.699793 45.697183 46.904285 -0.225951 0.974139 0.000000 1.75027152803718e-38
-11.609820 45.756408 47.220510 -0.249883 0.968276 0.000000 1.75027152803718e-38
11.916746 46.472296 48.013181 0.237935 0.971281 0.000000 1.75027152803718e-38
9.907303 46.609407 47.843513 0.213933 0.976848 0.000000 1.75027152803718e-38
8.844338 46.787783 48.120857 0.189801 0.981823 0.000000 1.75027152803718e-38
8.119731 46.848657 47.506428 0.165554 0.986201 0.000000 1.75027152803718e-38
6.233844 47.245048 48.071382 0.141206 0.989980 0.000000 1.75027152803718e-38
5.202399 47.989632 48.496048 0.116773 0.993159 0.000000 1.75027152803718e-38
4.386314 47.595012 48.167880 0.092268 0.995734 0.000000 1.75027152803718e-38
2.855465 47.928312 48.502822 0.067708 0.997705 0.000000 1.75027152803718e-38
1.464216 47.752190 48.348472 0.043107 0.999070 0.000000 1.75027152803718e-38
0.785453 48.349654 48.844046 0.018479 0.999829 0.000000 1.75027152803718e-38
-0.407258 47.660873 48.145342 -0.006160 0.999981 0.000000 1.75027152803718e-38
-1.653205 47.429760 48.399480 -0.030795 0.999526 0.000000 1.75027152803718e-38
-2.056281 48.120319 48.484176 -0.055411 0.998464 0.000000 1.75027152803718e-38
-4.540149 47.016305 48.566672 -0.079994 0.996795 0.000000 1.75027152803718e-38
-4.503188 47.633282 48.155749 -0.104528 0.994522 0.000000 1.75027152803718e-38
-5.751265 47.555915 48.588656 -0.128999 0.991645 0.000000 1.75027152803718e-38
-7.878143 47.266781 48.779794 -0.153392 0.988165 0.000000 1.75027152803718e-38
-8.322711 47.253561 48.258335 -0.177691 0.984086 0.000000 1.75027152803718e-38
-9.603747 47.166639 48.046486 -0.201882 0.979410 0.000000 1.75027152803718e-38
-11.014636 46.350831 48.254457 -0.225951 0.974139 0.000000 1.75027152803718e-38
-12.409598 46.433801 48.198149 -0.249883 0.968276 0.000000 1.75027152803718e-38
-12.805451 45.270894 48.504680 -0.273663 0.961826 0.000000 1.75027152803718e-38
-13.787547 45.702441 48.256428 -0.297277 0.954791 0.000000 1.75027152803718e-38
13.133387 46.768197 49.431645 0.261793 0.965124 0.000000 1.75027152803718e-38
11.621639 47.199305 49.855605 0.237935 0.971281 0.000000 1.75027152803718e-38
10.168286 46.824503 48.969276 0.213933 0.976848 0.000000 1.75027152803718e-38
9.335534 47.462315 49.859448 0.189801 0.981823 0.000000 1.75027152803718e-38
8.150487 47.405149 49.185192 0.165554 0.986201 0.000000 1.75027152803718e-38
6.868340 47.291214 49.642090 0.141206 0.989980 0.000000 1.75027152803718e-38
5.371408 47.788800 49.881473 0.116773 0.993159 0.000000 1.75027152803718e-38
4.538454 47.855218 49.758444 0.092268 0.995734 0.000000 1.75027152803718e-38
3.778462 47.819027 49.640843 0.067708 0.997705 0.000000 1.75027152803718e-38
2.520814 48.117480 48.883823 0.043107 0.999070 0.000000 1.75027152803718e-38
0.671586 48.178398 49.364484 0.018479 0.999829 0.000000 1.75027152803718e-38
0.136668 48.517742 49.307463 -0.006160 0.999981 0.000000 1.75027152803718e-38
-1.786721 47.830173 49.358861 -0.030795 0.999526 0.000000 1.75027152803718e-38
-2.196778 47.576987 49.707265 -0.055411 0.998464 0.000000 1.75027152803718e-38
-3.420275 48.053340 49.615473 -0.079994 0.996795 0.000000 1.75027152803718e-38
-5.061982 48.253231 49.410959 -0.104528 0.994522 0.000000 1.75027152803718e-38
-5.902482 47.512923 48.932025 -0.128999 0.991645 0.000000 1.75027152803718e-38
-7.437752 47.346790 49.441518 -0.153392 0.988165 0.000000 1.75027152803718e-38
-8.720378 47.385766 49.705663 -0.177691 0.984086 0.000000 1.75027152803718e-38
-9.774283 46.879476 49.169330 -0.201882 0.979410 0.000000 1.75027152803718e-38
-10.760603 47.134305 49.898121 -0.225951 0.974139 0.000000 1.75027152803718e-38
-12.164451 47.037110 49.375885 -0.249883 0.968276 0.000000 1.75027152803718e-38
-13.430008 45.721830 49.161656 -0.273663 0.961826 0.000000 1.75027152803718e-38
-14.157652 45.715770 49.294934 -0.297277 0.954791 0.000000 1.75027152803718e-38
12.861940 46.896822 50.567871 0.261793 0.965124 0.000000 1.75027152803718e-38
11.545508 46.984703 50.844951 0.237935 0.971281 0.000000 1.75027152803718e-38
10.335375 46.876595 50.920386 0.213933 0.976848 0.000000 1.75027152803718e-38
9.035328 47.328577 50.774395 0.189801 0.981823 0.000000 1.75027152803718e-38
8.235842 48.109376 50.500314 0.165554 0.986201 0.000000 1.75027152803718e-38
6.821353 47.267823 51.166082 0.141206 0.989980 0.000000 1.75027152803718e-38
5.641139 47.776434 50.737317 0.116773 0.993159 0.000000 1.75027152803718e-38
4.477801 47.770915 51.078041 0.092268 0.995734 0.000000 1.75027152803718e-38
3.456681 48.320713 50.517647 0.067708 0.997705 0.000000 1.75027152803718e-38
1.857331 48.117198 50.961637 0.043107 0.999070 0.000000 1.75027152803718e-38
1.041119 47.954528 50.921978 0.018479 0.999829 0.000000 1.75027152803718e-38
-0.588521 47.996663 50.768966 -0.006160 0.999981 0.000000 1.75027152803718e-38
-1.835643 47.884146 51.187286 -0.030795 0.999526 0.000000 1.75027152803718e-38
-2.260735 48.808929 50.856821 -0.055411 0.998464 0.000000 1.75027152803718e-38
-3.661979 47.995123 50.616517 -0.079994 0.996795 0.000000 1.75027152803718e-38
-4.776286 48.340633 50.957646 -0.104528 0.994522 0.000000 1.75027152803718e-38
-6.469198 47.910857 50.490604 -0.128999 0.991645 0.000000 1.75027152803718e-38
-7.490224 48.116553 50.361775 -0.153392 0.988165 0.000000 1.75027152803718e-38
-7.913396 47.593947 50.581816 -0.177691 0.984086 0.000000 1.75027152803718e-38
-9.709472 46.998205 50.557575 -0.201882 0.979410 0.000000 1.75027152803718e-38
-10.867974 46.850969 50.441759 -0.225951 0.974139 0.000000 1.75027152803718e-38
-12.109799 46.272708 50.340105 -0.249883 0.968276 0.000000 1.75027152803718e-38
-13.574095 46.857607 50.843337 -0.273663 0.961826 0.000000 1.75027152803718e-38
-14.148817 46.020561 50.873534 -0.297277 0.954791 0.000000 1.75027152803718e-38
12.431161 46.560688 51.861157 0.261793 0.965124 0.000000 1.75027152803718e-38
11.630270 47.278313 51.314413 0.237935 0.971281 0.000000 1.75027152803718e-38
10.438158 47.457828 52.009505 0.213933 0.976848 0.000000 1.75027152803718e-38
9.071131 47.978303 52.362084 0.189801 0.981823 0.000000 1.75027152803718e-38
7.908365 47.739484 52.190315 0.165554 0.986201 0.000000 1.75027152803718e-38
7.223790 47.702800 51.644903 0.141206 0.989980 0.000000 1.75027152803718e-38
5.737871 47.764325 51.375264 0.116773 0.993159 0.000000 1.75027152803718e-38
4.222697 48.351287 52.424846 0.092268 0.995734 0.000000 1.75027152803718e-38
3.066655 48.284319 52.005426 0.067708 0.997705 0.000000 1.75027152803718e-38
1.893188 48.169575 52.059258 0.043107 0.999070 0.000000 1.75027152803718e-38
0.535755 48.194249 51.897987 0.018479 0.999829 0.000000 1.75027152803718e-38
-0.201605 47.977250 51.919518 -0.006160 0.999981 0.000000 1.75027152803718e-38
-1.878746 48.204512 52.195351 -0.030795 0.999526 0.000000 1.75027152803718e-38
-2.705883 48.859052 51.937104 -0.055411 0.998464 0.000000 1.75027152803718e-38
-3.583937 48.515964 51.954797 -0.079994 0.996795 0.000000 1.75027152803718e-38
-5.457296 48.135886 51.798932 -0.104528 0.994522 0.000000 1.75027152803718e-38
-6.419212 48.074819 51.523892 -0.128999 0.991645 0.000000 1.75027152803718e-38
-7.691332 47.555945 51.882496 -0.153392 0.988165 0.000000 1.75027152803718e-38
-8.836510 47.451272 51.999402 -0.177691 0.984086 0.000000 1.75027152803718e-38
-9.911424 47.436944 51.624053 -0.201882 0.979410 0.000000 1.75027152803718e-38
-11.191967 47.792453 51.749541 -0.225951 0.974139 0.000000 1.75027152803718e-38
-12.734447 46.998903 51.746372 -0.249883 0.968276 0.000000 1.75027152803718e-38
-13.181095 46.556994 52.123726 -0.273663 0.961826 0.000000 1.75027152803718e-38
-14.427820 46.175197 52.303139 -0.297277 0.954791 0.000000 1.75027152803718e-38
10.004590 46.977854 53.537082 0.213933 0.976848 0.000000 1.75027152803718e-38
9.510574 48.100323 53.159790 0.189801 0.981823 0.000000 1.75027152803718e-38
8.299488 48.307601 53.174938 0.165554 0.986201 0.000000 1.75027152803718e-38
6.765210 47.890509 53.323721 0.141206 0.989980 0.000000 1.75027152803718e-38
5.851216 48.216132 53.109254 0.116773 0.993159 0.000000 1.75027152803718e-38
4.425611 48.700818 52.783579 0.092268 0.995734 0.000000 1.75027152803718e-38
2.963845 48.233653 53.151317 0.067708 0.997705 0.000000 1.75027152803718e-38
2.192624 48.305164 53.468578 0.043107 0.999070 0.000000 1.75027152803718e-38
1.338183 48.786896 53.532713 0.018479 0.999829 0.000000 1.75027152803718e-38
-0.574363 48.402736 53.350263 -0.006160 0.999981 0.000000 1.75027152803718e-38
-1.510349 48.380018 53.623391 -0.030795 0.999526 0.000000 1.75027152803718e-38
-2.607299 48.806942 52.993601 -0.055411 0.998464 0.000000 1.75027152803718e-38
-3.389433 48.468314 53.501593 -0.079994 0.996795 0.000000 1.75027152803718e-38
-5.262360 48.455037 53.363227 -0.104528 0.994522 0.000000 1.75027152803718e-38
-5.679907 48.132488 53.256645 -0.128999 0.991645 0.000000 1.75027152803718e-38
-7.288179 47.670616 52.543574 -0.153392 0.988165 0.000000 1.75027152803718e-38
-8.947160 48.186687 53.710798 -0.177691 0.984086 0.000000 1.75027152803718e-38
-10.102728 47.303902 53.656300 -0.201882 0.979410 0.000000 1.75027152803718e-38
-11.166918 47.300828 53.633616 -0.225951 0.974139 0.000000 1.75027152803718e-38
-11.773662 47.407248 52.682435 -0.249883 0.968276 0.000000 1.75027152803718e-38
-13.697006 47.149233 53.291243 -0.273663 0.961826 0.000000 1.75027152803718e-38
-14.702102 46.367345 53.529172 -0.297277 0.954791 0.000000 1.75027152803718e-38
7.942244 48.617953 54.400739 0.165554 0.986201 0.000000 1.75027152803718e-38
6.893145 48.366656 54.544309 0.141206 0.989980 0.000000 1.75027152803718e-38
6.158718 48.264238 54.516333 0.116773 0.993159 0.000000 1.75027152803718e-38
4.042284 49.069103 54.400548 0.092268 0.995734 0.000000 1.75027152803718e-38
2.863178 48.415812 54.677157 0.067708 0.997705 0.000000 1.75027152803718e-38
1.608985 48.948809 54.304426 0.043107 0.999070 0.000000 1.75027152803718e-38
0.845390 48.700280 54.147135 0.018479 0.999829 0.000000 1.75027152803718e-38
-0.447519 49.081449 54.345215 -0.006160 0.999981 0.000000 1.75027152803718e-38
-1.379841 48.814916 54.616363 -0.030795 0.999526 0.000000 1.75027152803718e-38
-2.585736 48.673423 54.146886 -0.055411 0.998464 0.000000 1.75027152803718e-38
-3.625886 48.510026 54.583225 -0.079994 0.996795 0.000000 1.75027152803718e-38
-5.103241 48.503929 54.561830 -0.104528 0.994522 0.000000 1.75027152803718e-38
-5.899090 48.689775 54.471777 -0.128999 0.991645 0.000000 1.75027152803718e-38
-7.016062 47.829669 54.099328 -0.153392 0.988165 0.000000 1.75027152803718e-38
-8.830340 48.558233 54.715841 -0.177691 0.984086 0.000000 1.75027152803718e-38
-10.389113 47.772789 54.035842 -0.201882 0.979410 0.000000 1.75027152803718e-38
-11.063590 47.916434 54.725686 -0.225951 0.974139 0.000000 1.75027152803718e-38
-12.141571 47.231636 54.404370 -0.249883 0.968276 0.000000 1.75027152803718e-38
-13.180088 47.747839 54.077460 -0.273663 0.961826 0.000000 1.75027152803718e-38
-14.063390 46.772811 54.679066 -0.297277 0.954791 0.000000 1.75027152803718e-38
5.599185 48.458554 55.418205 0.116773 0.993159 0.000000 1.75027152803718e-38
4.713850 49.100964 55.621515 0.092268 0.995734 0.000000 1.75027152803718e-38
3.423962 48.876645 56.398101 0.067708 0.997705 0.000000 1.75027152803718e-38
2.209009 48.928862 55.932713 0.043107 0.999070 0.000000 1.75027152803718e-38
1.280324 48.910988 55.244535 0.018479 0.999829 0.000000 1.75027152803718e-38
-0.668908 48.949727 55.653822 -0.006160 0.999981 0.000000 1.75027152803718e-38
-2.002367 49.002861 55.607722 -0.030795 0.999526 0.000000 1.75027152803718e-38
-2.626107 49.259665 55.790566 -0.055411 0.998464 0.000000 1.75027152803718e-38
-3.394197 49.322368 55.736692 -0.079994 0.996795 0.000000 1.75027152803718e-38
-5.428892 48.679739 55.241503 -0.104528 0.994522 0.000000 1.75027152803718e-38
-6.294520 48.840378 55.937977 -0.128999 0.991645 0.000000 1.75027152803718e-38
-7.459257 48.886156 55.992453 -0.153392 0.988165 0.000000 1.75027152803718e-38
-9.042233 48.214045 55.666792 -0.177691 0.984086 0.000000 1.75027152803718e-38
-10.134675 48.066605 55.760481 -0.201882 0.979410 0.000000 1.75027152803718e-38
-11.142801 47.880609 55.387311 -0.225951 0.974139 0.000000 1.75027152803718e-38
-12.130228 47.722340 55.441353 -0.249883 0.968276 0.000000 1.75027152803718e-38
-13.838955 47.644387 56.194556 -0.273663 0.961826 0.000000 1.75027152803718e-38
4.292265 48.988470 56.707785 0.092268 0.995734 0.000000 1.75027152803718e-38
2.703209 49.302026 56.407394 0.067708 0.997705 0.000000 1.75027152803718e-38
2.152037 48.909654 56.545340 0.043107 0.999070 0.000000 1.75027152803718e-38
1.113321 49.392334 56.341764 0.018479 0.999829 0.000000 1.75027152803718e-38
-0.471900 49.471044 56.721429 -0.006160 0.999981 0.000000 1.75027152803718e-38
-1.624018 49.443192 56.920627 -0.030795 0.999526 0.000000 1.75027152803718e-38
-3.034638 49.324200 56.821013 -0.055411 0.998464 0.000000 1.75027152803718e-38
-3.433952 49.204182 56.947708 -0.079994 0.996795 0.000000 1.75027152803718e-38
-5.085080 49.026123 56.691240 -0.104528 0.994522 0.000000 1.75027152803718e-38
-6.233779 49.121084 57.531989 -0.128999 0.991645 0.000000 1.75027152803718e-38
-7.353810 49.036633 57.122537 -0.153392 0.988165 0.000000 1.75027152803718e-38
-8.983857 48.229975 56.606139 -0.177691 0.984086 0.000000 1.75027152803718e-38
-9.765266 48.802863 57.127417 -0.201882 0.979410 0.000000 1.75027152803718e-38
-11.210582 48.619017 56.774120 -0.225951 0.974139 0.000000 1.75027152803718e-38
-12.687016 47.902340 57.294775 -0.249883 0.968276 0.000000 1.75027152803718e-38
-13.770285 46.996397 56.918528 -0.273663 0.961826 0.000000 1.75027152803718e-38
2.210575 49.454474 58.431071 0.043107 0.999070 0.000000 1.75027152803718e-38
0.874468 49.500136 58.436306 0.018479 0.999829 0.000000 1.75027152803718e-38
-0.237303 49.867231 58.488928 -0.006160 0.999981 0.000000 1.75027152803718e-38
-1.616677 49.623716 58.397471 -0.030795 0.999526 0.000000 1.75027152803718e-38
-3.485589 49.528993 58.076870 -0.055411 0.998464 0.000000 1.75027152803718e-38
-3.858362 49.236384 58.472964 -0.079994 0.996795 0.000000 1.75027152803718e-38
-5.409681 49.226168 57.945007 -0.104528 0.994522 0.000000 1.75027152803718e-38
-6.034013 48.595388 58.680394 -0.128999 0.991645 0.000000 1.75027152803718e-38
-7.171704 48.878908 58.452407 -0.153392 0.988165 0.000000 1.75027152803718e-38
-8.780804 49.341770 58.429526 -0.177691 0.984086 0.000000 1.75027152803718e-38
-9.362648 48.145127 58.201734 -0.201882 0.979410 0.000000 1.75027152803718e-38
-11.732500 48.196518 58.819226 -0.225951 0.974139 0.000000 1.75027152803718e-38
-12.262678 48.356502 58.298511 -0.249883 0.968276 0.000000 1.75027152803718e-38
-13.448338 47.584265 57.931737 -0.273663 0.961826 0.000000 1.75027152803718e-38
-0.756034 49.324152 59.061661 -0.006160 0.999981 0.000000 1.75027152803718e-38
-1.591031 49.643133 59.713563 -0.030795 0.999526 0.000000 1.75027152803718e-38
-2.739128 49.655232 58.988472 -0.055411 0.998464 0.000000 1.75027152803718e-38
-3.922765 50.336377 59.170568 -0.079994 0.996795 0.000000 1.75027152803718e-38
-5.389394 49.287098 59.736697 -0.104528 0.994522 0.000000 1.75027152803718e-38
-6.156192 49.327920 59.201730 -0.128999 0.991645 0.000000 1.75027152803718e-38
-7.934110 49.201469 59.687407 -0.153392 0.988165 0.000000 1.75027152803718e-38
-8.850511 49.471096 59.165395 -0.177691 0.984086 0.000000 1.75027152803718e-38
-10.763417 49.633142 59.445818 -0.201882 0.979410 0.000000 1.75027152803718e-38
-11.036565 48.352368 58.972680 -0.225951 0.974139 0.000000 1.75027152803718e-38
-12.417377 47.698700 59.301325 -0.249883 0.968276 0.000000 1.75027152803718e-38
-13.343220 48.109012 59.457914 -0.273663 0.961826 0.000000 1.75027152803718e-38
-1.436389 49.923912 60.337335 -0.030795 0.999526 0.000000 1.75027152803718e-38
-3.045717 49.846913 60.482762 -0.055411 0.998464 0.000000 1.75027152803718e-38
-4.338882 49.827172 60.989397 -0.079994 0.996795 0.000000 1.75027152803718e-38
-5.327470 49.475223 59.941009 -0.104528 0.994522 0.000000 1.75027152803718e-38
-5.914712 50.044464 60.703938 -0.128999 0.991645 0.000000 1.75027152803718e-38
-7.339401 49.686563 60.595856 -0.153392 0.988165 0.000000 1.75027152803718e-38
-9.278185 49.896422 60.487444 -0.177691 0.984086 0.000000 1.75027152803718e-38
-10.233356 49.100673 60.634943 -0.201882 0.979410 0.000000 1.75027152803718e-38
-11.152594 48.963114 60.445498 -0.225951 0.974139 0.000000 1.75027152803718e-38
-12.516731 48.694321 60.419959 -0.249883 0.968276 0.000000 1.75027152803718e-38
-4.025929 50.627712 61.283597 -0.079994 0.996795 0.000000 1.75027152803718e-38
-4.865719 50.466428 61.857518 -0.104528 0.994522 0.000000 1.75027152803718e-38
-6.372959 49.832229 61.350095 -0.128999 0.991645 0.000000 1.75027152803718e-38
-7.551365 49.842154 61.935878 -0.153392 0.988165 0.000000 1.75027152803718e-38
-8.804578 49.381438 62.303650 -0.177691 0.984086 0.000000 1.75027152803718e-38
-10.165210 49.489719 61.774033 -0.201882 0.979410 0.000000 1.75027152803718e-38
-11.064793 49.092925 61.830134 -0.225951 0.974139 0.000000 1.75027152803718e-38
-12.222954 48.249603 61.771665 -0.249883 0.968276 0.000000 1.75027152803718e-38
-6.409887 49.963213 63.270134 -0.128999 0.991645 0.000000 1.75027152803718e-38
-7.808552 49.664090 63.005579 -0.153392 0.988165 0.000000 1.75027152803718e-38
-8.330570 49.119350 63.142686 -0.177691 0.984086 0.000000 1.75027152803718e-38
-10.519753 49.977665 63.337676 -0.201882 0.979410 0.000000 1.75027152803718e-38
-11.378854 49.573075 63.166155 -0.225951 0.974139 0.000000 1.75027152803718e-38
-12.643894 48.821504 62.984509 -0.249883 0.968276 0.000000 1.75027152803718e-38
-8.755588 49.751249 64.024645 -0.177691 0.984086 0.000000 1.75027152803718e-38
-10.594204 50.259359 64.056764 -0.201882 0.979410 0.000000 1.75027152803718e-38
-11.604922 49.263414 63.952445 -0.225951 0.974139 0.000000 1.75027152803718e-38
-12.606354 49.281246 63.662529 -0.249883 0.968276 0.000000 1.75027152803718e-38
