# .PCD v0.7 - Point Cloud Data file format
VERSION 0.7
FIELDS x y z normal_x normal_y normal_z rgb
SIZE 4 4 4 4 4 4 4
TYPE F F F F F F F
COUNT 1 1 1 1 1 1 1
WIDTH 246
HEIGHT 1
VIEWPOINT 0 0 0 1 0 0 0
POINTS 246
DATA ascii
-24.691030 -47.988605 85.066760 -0.456733 -0.889604 0.000000 1.7041734328458258e-38
-23.412835 -49.113283 85.244178 -0.434676 -0.900587 0.000000 1.7041734328458258e-38
-29.141827 -47.043282 86.649267 -0.521185 -0.853444 0.000000 1.7041734328458258e-38
-27.960176 -47.378372 86.173056 -0.500000 -0.866025 0.000000 1.7041734328458258e-38
-26.065300 -48.536306 86.730893 -0.478512 -0.878081 0.000000 1.7041734328458258e-38
-24.788790 -48.810115 86.573899 -0.456733 -0.889604 0.000000 1.7041734328458258e-38
-23.379196 -49.596627 86.437665 -0.434676 -0.900587 0.000000 1.7041734328458258e-38
-22.409285 -49.806968 86.525089 -0.412356 -0.911023 0.000000 1.7041734328458258e-38
-29.714824 -46.536917 87.445467 -0.542053 -0.840344 0.000000 1.7041734328458258e-38
-29.079161 -47.926954 87.809542 -0.521185 -0.853444 0.000000 1.7041734328458258e-38
-27.887393 -47.788220 88.141075 -0.500000 -0.866025 0.000000 1.7041734328458258e-38
-26.599207 -48.082576 87.360992 -0.478512 -0.878081 0.000000 1.7041734328458258e-38
-25.323222 -48.400888 87.706704 -0.456733 -0.889604 0.000000 1.7041734328458258e-38
-23.518410 -48.820570 87.709396 -0.434676 -0.900587 0.000000 1.7041734328458258e-38
-22.876993 -50.749188 87.922593 -0.412356 -0.911023 0.000000 1.7041734328458258e-38
-21.322248 -50.413393 88.252457 -0.389786 -0.920906 0.000000 1.7041734328458258e-38
-31.053300 -45.675791 88.870370 -0.562593 -0.826734 0.000000 1.7041734328458258e-38
-29.865161 -46.714511 89.222073 -0.542053 -0.840344 0.000000 1.7041734328458258e-38
-28.407420 -47.200954 89.202238 -0.521185 -0.853444 0.000000 1.7041734328458258e-38
-27.590636 -47.647683 89.360271 -0.500000 -0.866025 0.000000 1.7041734328458258e-38
-26.261491 -48.173194 89.243701 -0.478512 -0.878081 0.000000 1.7041734328458258e-38
-24.925301 -48.972170 89.186559 -0.456733 -0.889604 0.000000 1.7041734328458258e-38
-23.759858 -49.694717 89.222135 -0.434676 -0.900587 0.000000 1.7041734328458258e-38
-23.003318 -50.792578 89.114742 -0.412356 -0.911023 0.000000 1.7041734328458258e-38
-21.730447 -50.215198 88.846476 -0.389786 -0.920906 0.000000 1.7041734328458258e-38
-20.003868 -51.522899 89.078573 -0.366979 -0.930229 0.000000 1.7041734328458258e-38
-31.842726 -44.612829 89.917456 -0.582791 -0.812622 0.000000 1.7041734328458258e-38
-31.364038 -45.350401 90.508619 -0.562593 -0.826734 0.000000 1.7041734328458258e-38
-29.883873 -46.378977 90.421472 -0.542053 -0.840344 0.000000 1.7041734328458258e-38
-29.164980 -47.404149 90.608494 -0.521185 -0.853444 0.000000 1.7041734328458258e-38
-27.476157 -47.845900 90.114895 -0.500000 -0.866025 0.000000 1.7041734328458258e-38
-26.186966 -48.888330 90.753531 -0.478512 -0.878081 0.000000 1.7041734328458258e-38
-25.495963 -49.497546 90.318334 -0.456733 -0.889604 0.000000 1.7041734328458258e-38
-23.993844 -49.814816 89.912438 -0.434676 -0.900587 0.000000 1.7041734328458258e-38
-22.695836 -50.127715 90.284953 -0.412356 -0.911023 0.000000 1.7041734328458258e-38
-22.036962 -51.031891 89.969417 -0.389786 -0.920906 0.000000 1.7041734328458258e-38
-20.890342 -51.648997 90.796518 -0.366979 -0.930229 0.000000 1.7041734328458258e-38
-33.648910 -44.442101 91.201145 -0.602635 -0.798017 0.000000 1.7041734328458258e-38
-32.748069 -45.190293 91.125562 -0.582791 -0.812622 0.000000 1.7041734328458258e-38
-31.351076 -45.815945 91.659429 -0.562593 -0.826734 0.000000 1.7041734328458258e-38
-30.133530 -47.010020 91.422992 -0.542053 -0.840344 0.000000 1.7041734328458258e-38
-28.829275 -47.191532 91.464497 -0.521185 -0.853444 0.000000 1.7041734328458258e-38
-27.967968 -48.051259 91.440274 -0.500000 -0.866025 0.000000 1.7041734328458258e-38
-26.869430 -48.653358 91.551924 -0.478512 -0.878081 0.000000 1.7041734328458258e-38
-25.687140 -49.574492 91.489484 -0.456733 -0.889604 0.000000 1.7041734328458258e-38
-24.587659 -50.212884 91.735932 -0.434676 -0.900587 0.000000 1.7041734328458258e-38
-23.038349 -50.813682 91.871206 -0.412356 -0.911023 0.000000 1.7041734328458258e-38
-21.533560 -50.914166 91.310806 -0.389786 -0.920906 0.000000 1.7041734328458258e-38
-20.457635 -51.643614 91.614436 -0.366979 -0.930229 0.000000 1.7041734328458258e-38
-34.769512 -42.915331 92.863449 -0.622113 -0.782928 0.000000 1.7041734328458258e-38
-33.180740 -44.577038 92.961679 -0.602635 -0.798017 0.000000 1.7041734328458258e-38
-32.335612 -44.829198 92.840910 -0.582791 -0.812622 0.000000 1.7041734328458258e-38
-31.479639 -45.717124 92.569243 -0.562593 -0.826734 0.000000 1.7041734328458258e-38
-30.424211 -46.799663 92.685667 -0.542053 -0.840344 0.000000 1.7041734328458258e-38
-29.012132 -47.716161 93.119500 -0.521185 -0.853444 0.000000 1.7041734328458258e-38
-27.506020 -47.967072 93.003062 -0.500000 -0.866025 0.000000 1.7041734328458258e-38
-27.195711 -48.852587 93.040847 -0.478512 -0.878081 0.000000 1.7041734328458258e-38
-25.026540 -49.590178 93.174558 -0.456733 -0.889604 0.000000 1.7041734328458258e-38
-24.108552 -50.915371 92.753740 -0.434676 -0.900587 0.000000 1.7041734328458258e-38
-23.210125 -50.905139 93.099116 -0.412356 -0.911023 0.000000 1.7041734328458258e-38
-21.612223 -51.427257 92.580518 -0.389786 -0.920906 0.000000 1.7041734328458258e-38
-20.300257 -51.846146 92.992482 -0.366979 -0.930229 0.000000 1.7041734328458258e-38
-36.012115 -43.385567 94.438967 -0.641213 -0.767363 0.000000 1.7041734328458258e-38
-34.903775 -43.382469 93.982882 -0.622113 -0.782928 0.000000 1.7041734328458258e-38
-33.207982 -44.378880 94.054068 -0.602635 -0.798017 0.000000 1.7041734328458258e-38
-32.789773 -44.979922 93.958990 -0.582791 -0.812622 0.000000 1.7041734328458258e-38
-31.654669 -46.204692 94.006769 -0.562593 -0.826734 0.000000 1.7041734328458258e-38
-30.001217 -47.481999 94.735551 -0.542053 -0.840344 0.000000 1.7041734328458258e-38
-28.959342 -47.653510 94.153818 -0.521185 -0.853444 0.000000 1.7041734328458258e-38
-28.375011 -48.313977 94.215723 -0.500000 -0.866025 0.000000 1.7041734328458258e-38
-26.804221 -48.867203 94.258548 -0.478512 -0.878081 0.000000 1.7041734328458258e-38
-25.718441 -49.292975 94.002542 -0.456733 -0.889604 0.000000 1.7041734328458258e-38
-23.696524 -49.887956 94.142549 -0.434676 -0.900587 0.000000 1.7041734328458258e-38
-23.265870 -50.896894 94.322970 -0.412356 -0.911023 0.000000 1.7041734328458258e-38
-21.930077 -51.285167 94.184557 -0.389786 -0.920906 0.000000 1.7041734328458258e-38
-36.868967 -41.838303 95.401282 -0.659925 -0.751332 0.000000 1.7041734328458258e-38
-35.832453 -42.988615 95.400887 -0.641213 -0.767363 0.000000 1.7041734328458258e-38
-35.007198 -43.887603 95.361708 -0.622113 -0.782928 0.000000 1.7041734328458258e-38
-33.274821 -44.857254 94.992169 -0.602635 -0.798017 0.000000 1.7041734328458258e-38
-32.539533 -45.129130 95.501263 -0.582791 -0.812622 0.000000 1.7041734328458258e-38
-31.487848 -45.913569 94.714686 -0.562593 -0.826734 0.000000 1.7041734328458258e-38
-30.041160 -47.137407 95.446728 -0.542053 -0.840344 0.000000 1.7041734328458258e-38
-28.873963 -47.718370 95.278774 -0.521185 -0.853444 0.000000 1.7041734328458258e-38
-28.107859 -47.973363 95.361074 -0.500000 -0.866025 0.000000 1.7041734328458258e-38
-26.720768 -48.702876 95.106980 -0.478512 -0.878081 0.000000 1.7041734328458258e-38
-25.643200 -49.519534 95.790038 -0.456733 -0.889604 0.000000 1.7041734328458258e-38
-24.320183 -50.299608 94.781204 -0.434676 -0.900587 0.000000 1.7041734328458258e-38
-22.699381 -51.324744 95.095902 -0.412356 -0.911023 0.000000 1.7041734328458258e-38
-21.764012 -51.747757 94.675876 -0.389786 -0.920906 0.000000 1.7041734328458258e-38
-37.997385 -41.072801 96.463225 -0.678235 -0.734845 0.000000 1.7041734328458258e-38
-37.104370 -42.503746 96.484175 -0.659925 -0.751332 0.000000 1.7041734328458258e-38
-36.470144 -43.107592 96.512937 -0.641213 -0.767363 0.000000 1.7041734328458258e-38
-34.692032 -44.294096 96.596809 -0.622113 -0.782928 0.000000 1.7041734328458258e-38
-33.651493 -44.794718 96.629073 -0.602635 -0.798017 0.000000 1.7041734328458258e-38
-32.627708 -46.388008 96.218207 -0.582791 -0.812622 0.000000 1.7041734328458258e-38
-30.932257 -46.203008 96.314364 -0.562593 -0.826734 0.000000 1.7041734328458258e-38
-30.312338 -46.950368 96.957182 -0.542053 -0.840344 0.000000 1.7041734328458258e-38
-29.367895 -48.077680 96.345520 -0.521185 -0.853444 0.000000 1.7041734328458258e-38
-28.233531 -48.786509 96.551062 -0.500000 -0.866025 0.000000 1.7041734328458258e-38
-26.982407 -49.300256 97.056553 -0.478512 -0.878081 0.000000 1.7041734328458258e-38
-25.921134 -49.827288 96.154164 -0.456733 -0.889604 0.000000 1.7041734328458258e-38
-24.117775 -50.209038 96.234544 -0.434676 -0.900587 0.000000 1.7041734328458258e-38
-23.351940 -50.930428 96.412499 -0.412356 -0.911023 0.000000 1.7041734328458258e-38
-21.451284 -52.045660 96.817960 -0.389786 -0.920906 0.000000 1.7041734328458258e-38
-39.156567 -40.534684 97.772297 -0.696134 -0.717912 0.000000 1.7041734328458258e-38
-38.345552 -41.062144 97.747375 -0.678235 -0.734845 0.000000 1.7041734328458258e-38
-37.668085 -42.051425 97.970429 -0.659925 -0.751332 0.000000 1.7041734328458258e-38
-36.086638 -43.724565 98.002546 -0.641213 -0.767363 0.000000 1.7041734328458258e-38
-35.307425 -44.156845 97.559711 -0.622113 -0.782928 0.000000 1.7041734328458258e-38
-34.336812 -44.895576 97.792783 -0.602635 -0.798017 0.000000 1.7041734328458258e-38
-32.754486 -45.781917 97.508466 -0.582791 -0.812622 0.000000 1.7041734328458258e-38
-31.211420 -46.457464 97.451312 -0.562593 -0.826734 0.000000 1.7041734328458258e-38
-30.364442 -47.169447 97.916559 -0.542053 -0.840344 0.000000 1.7041734328458258e-38
-29.332158 -48.202569 97.321127 -0.521185 -0.853444 0.000000 1.7041734328458258e-38
-28.289694 -49.220537 97.822199 -0.500000 -0.866025 0.000000 1.7041734328458258e-38
-27.403487 -49.508550 97.950648 -0.478512 -0.878081 0.000000 1.7041734328458258e-38
-25.768956 -50.067927 97.865002 -0.456733 -0.889604 0.000000 1.7041734328458258e-38
-24.301430 -50.356726 97.900960 -0.434676 -0.900587 0.000000 1.7041734328458258e-38
-23.092320 -51.843672 97.804457 -0.412356 -0.911023 0.000000 1.7041734328458258e-38
-21.432254 -51.617037 98.022852 -0.389786 -0.920906 0.000000 1.7041734328458258e-38
-40.797980 -39.327509 98.442187 -0.713610 -0.700543 0.000000 1.7041734328458258e-38
-39.727751 -40.974588 98.368205 -0.696134 -0.717912 0.000000 1.7041734328458258e-38
-37.929570 -41.397612 99.586078 -0.678235 -0.734845 0.000000 1.7041734328458258e-38
-36.993813 -41.750396 98.775876 -0.659925 -0.751332 0.000000 1.7041734328458258e-38
-36.050336 -43.655074 98.885876 -0.641213 -0.767363 0.000000 1.7041734328458258e-38
-34.651578 -44.162719 98.898623 -0.622113 -0.782928 0.000000 1.7041734328458258e-38
-33.990196 -44.958422 99.012520 -0.602635 -0.798017 0.000000 1.7041734328458258e-38
-32.464591 -46.041410 98.907058 -0.582791 -0.812622 0.000000 1.7041734328458258e-38
-31.696139 -46.891931 98.835057 -0.562593 -0.826734 0.000000 1.7041734328458258e-38
-30.337343 -47.635599 99.801203 -0.542053 -0.840344 0.000000 1.7041734328458258e-38
-28.899479 -48.074009 99.141760 -0.521185 -0.853444 0.000000 1.7041734328458258e-38
-27.964652 -48.668573 98.997702 -0.500000 -0.866025 0.000000 1.7041734328458258e-38
-26.158488 -49.731933 98.852972 -0.478512 -0.878081 0.000000 1.7041734328458258e-38
-25.734099 -49.972708 99.572609 -0.456733 -0.889604 0.000000 1.7041734328458258e-38
-24.512605 -50.611988 99.084751 -0.434676 -0.900587 0.000000 1.7041734328458258e-38
-23.278245 -51.001524 99.097597 -0.412356 -0.911023 0.000000 1.7041734328458258e-38
-21.684067 -52.019293 98.806868 -0.389786 -0.920906 0.000000 1.7041734328458258e-38
-39.962889 -39.846308 100.278285 -0.713610 -0.700543 0.000000 1.7041734328458258e-38
-39.387240 -40.713182 100.502675 -0.696134 -0.717912 0.000000 1.7041734328458258e-38
-38.389935 -42.086306 100.337725 -0.678235 -0.734845 0.000000 1.7041734328458258e-38
-37.304179 -42.253836 100.083271 -0.659925 -0.751332 0.000000 1.7041734328458258e-38
-36.755232 -43.660071 99.931588 -0.641213 -0.767363 0.000000 1.7041734328458258e-38
-35.467208 -44.416218 100.424358 -0.622113 -0.782928 0.000000 1.7041734328458258e-38
-34.472471 -44.835303 99.825265 -0.602635 -0.798017 0.000000 1.7041734328458258e-38
-33.050944 -45.936319 100.116281 -0.582791 -0.812622 0.000000 1.7041734328458258e-38
-31.608557 -46.755683 100.159117 -0.562593 -0.826734 0.000000 1.7041734328458258e-38
-31.347245 -47.372103 100.769783 -0.542053 -0.840344 0.000000 1.7041734328458258e-38
-29.602519 -48.034519 99.959041 -0.521185 -0.853444 0.000000 1.7041734328458258e-38
-27.962049 -48.788033 100.096210 -0.500000 -0.866025 0.000000 1.7041734328458258e-38
-27.172981 -49.431455 100.218461 -0.478512 -0.878081 0.000000 1.7041734328458258e-38
-26.181811 -50.734688 100.382659 -0.456733 -0.889604 0.000000 1.7041734328458258e-38
-24.794811 -50.886379 100.382614 -0.434676 -0.900587 0.000000 1.7041734328458258e-38
-23.665196 -51.791017 100.692976 -0.412356 -0.911023 0.000000 1.7041734328458258e-38
-40.083283 -39.808168 101.473437 -0.713610 -0.700543 0.000000 1.7041734328458258e-38
-39.347709 -40.475051 101.404724 -0.696134 -0.717912 0.000000 1.7041734328458258e-38
-38.096767 -41.284850 101.358270 -0.678235 -0.734845 0.000000 1.7041734328458258e-38
-37.145265 -42.432826 102.241839 -0.659925 -0.751332 0.000000 1.7041734328458258e-38
-36.044473 -43.341575 101.272513 -0.641213 -0.767363 0.000000 1.7041734328458258e-38
-35.541970 -44.180601 100.930815 -0.622113 -0.782928 0.000000 1.7041734328458258e-38
-33.641356 -45.811297 101.134549 -0.602635 -0.798017 0.000000 1.7041734328458258e-38
-32.704718 -46.031230 101.498208 -0.582791 -0.812622 0.000000 1.7041734328458258e-38
-32.067119 -46.858068 101.648563 -0.562593 -0.826734 0.000000 1.7041734328458258e-38
-30.947361 -47.669165 101.444887 -0.542053 -0.840344 0.000000 1.7041734328458258e-38
-29.597093 -48.107159 101.581131 -0.521185 -0.853444 0.000000 1.7041734328458258e-38
-28.347495 -49.556739 101.797848 -0.500000 -0.866025 0.000000 1.7041734328458258e-38
-27.376294 -49.194871 101.189847 -0.478512 -0.878081 0.000000 1.7041734328458258e-38
-25.789539 -50.189469 101.384316 -0.456733 -0.889604 0.000000 1.7041734328458258e-38
-24.523103 -51.086979 102.010055 -0.434676 -0.900587 0.000000 1.7041734328458258e-38
-23.291991 -51.628152 101.516566 -0.412356 -0.911023 0.000000 1.7041734328458258e-38
-39.724431 -40.615109 102.479493 -0.696134 -0.717912 0.000000 1.7041734328458258e-38
-38.798422 -41.602202 102.715029 -0.678235 -0.734845 0.000000 1.7041734328458258e-38
-37.199045 -42.791257 102.226229 -0.659925 -0.751332 0.000000 1.7041734328458258e-38
-36.181000 -43.107730 102.507068 -0.641213 -0.767363 0.000000 1.7041734328458258e-38
-35.154169 -44.518499 103.260176 -0.622113 -0.782928 0.000000 1.7041734328458258e-38
-34.352553 -45.295031 102.073797 -0.602635 -0.798017 0.000000 1.7041734328458258e-38
-32.596859 -46.270239 103.069954 -0.582791 -0.812622 0.000000 1.7041734328458258e-38
-32.123752 -46.934281 102.446005 -0.562593 -0.826734 0.000000 1.7041734328458258e-38
-31.037657 -47.770845 102.638866 -0.542053 -0.840344 0.000000 1.7041734328458258e-38
-29.682595 -48.882794 102.765513 -0.521185 -0.853444 0.000000 1.7041734328458258e-38
-28.958103 -49.241500 102.206274 -0.500000 -0.866025 0.000000 1.7041734328458258e-38
-26.881678 -49.454571 102.857977 -0.478512 -0.878081 0.000000 1.7041734328458258e-38
-26.058859 -50.700496 102.604305 -0.456733 -0.889604 0.000000 1.7041734328458258e-38
-24.680920 -50.956426 102.799768 -0.434676 -0.900587 0.000000 1.7041734328458258e-38
-24.009472 -51.494729 102.796095 -0.412356 -0.911023 0.000000 1.7041734328458258e-38
-39.929420 -41.460286 104.144677 -0.696134 -0.717912 0.000000 1.7041734328458258e-38
-39.060018 -41.812772 103.982926 -0.678235 -0.734845 0.000000 1.7041734328458258e-38
-37.834138 -42.746421 104.013221 -0.659925 -0.751332 0.000000 1.7041734328458258e-38
-36.531768 -43.482605 103.784143 -0.641213 -0.767363 0.000000 1.7041734328458258e-38
-35.447334 -44.772145 103.876843 -0.622113 -0.782928 0.000000 1.7041734328458258e-38
-34.254938 -45.640433 104.046210 -0.602635 -0.798017 0.000000 1.7041734328458258e-38
-33.868366 -45.868909 103.492281 -0.582791 -0.812622 0.000000 1.7041734328458258e-38
-31.668449 -46.809549 104.221305 -0.562593 -0.826734 0.000000 1.7041734328458258e-38
-31.150871 -47.830428 104.005673 -0.542053 -0.840344 0.000000 1.7041734328458258e-38
-29.498362 -48.261958 104.112930 -0.521185 -0.853444 0.000000 1.7041734328458258e-38
-28.279765 -49.081795 104.122652 -0.500000 -0.866025 0.000000 1.7041734328458258e-38
-27.195030 -49.570755 103.894436 -0.478512 -0.878081 0.000000 1.7041734328458258e-38
-26.470355 -50.195916 104.057931 -0.456733 -0.889604 0.000000 1.7041734328458258e-38
-24.753866 -51.159621 104.369635 -0.434676 -0.900587 0.000000 1.7041734328458258e-38
-23.410371 -51.331355 104.059026 -0.412356 -0.911023 0.000000 1.7041734328458258e-38
-39.641768 -40.948793 105.144225 -0.696134 -0.717912 0.000000 1.7041734328458258e-38
-38.872812 -41.639336 105.728930 -0.678235 -0.734845 0.000000 1.7041734328458258e-38
-38.120087 -42.427679 105.227242 -0.659925 -0.751332 0.000000 1.7041734328458258e-38
-36.197781 -43.870247 105.100230 -0.641213 -0.767363 0.000000 1.7041734328458258e-38
-35.043854 -44.595202 105.402138 -0.622113 -0.782928 0.000000 1.7041734328458258e-38
-34.490947 -45.499123 105.307436 -0.602635 -0.798017 0.000000 1.7041734328458258e-38
-33.063081 -46.023188 105.052351 -0.582791 -0.812622 0.000000 1.7041734328458258e-38
-32.034408 -46.784041 105.587425 -0.562593 -0.826734 0.000000 1.7041734328458258e-38
-31.116577 -47.493337 104.924033 -0.542053 -0.840344 0.000000 1.7041734328458258e-38
-29.614275 -48.510996 105.008449 -0.521185 -0.853444 0.000000 1.7041734328458258e-38
-28.523595 -49.842814 105.372070 -0.500000 -0.866025 0.000000 1.7041734328458258e-38
-27.330042 -50.011085 104.982932 -0.478512 -0.878081 0.000000 1.7041734328458258e-38
-25.788242 -50.599051 104.809891 -0.456733 -0.889604 0.000000 1.7041734328458258e-38
-24.784496 -51.590517 105.160745 -0.434676 -0.900587 0.000000 1.7041734328458258e-38
-37.445516 -43.388715 105.990893 -0.641213 -0.767363 0.000000 1.7041734328458258e-38
-34.946145 -44.934437 106.093917 -0.622113 -0.782928 0.000000 1.7041734328458258e-38
-34.246149 -45.428738 106.526980 -0.602635 -0.798017 0.000000 1.7041734328458258e-38
-33.127440 -46.385245 106.281468 -0.582791 -0.812622 0.000000 1.7041734328458258e-38
-31.909447 -47.355359 106.427536 -0.562593 -0.826734 0.000000 1.7041734328458258e-38
-31.421180 -47.847821 106.421289 -0.542053 -0.840344 0.000000 1.7041734328458258e-38
-29.734966 -48.159232 106.840211 -0.521185 -0.853444 0.000000 1.7041734328458258e-38
-28.240194 -49.120864 106.423456 -0.500000 -0.866025 0.000000 1.7041734328458258e-38
-27.196840 -49.946335 106.572507 -0.478512 -0.878081 0.000000 1.7041734328458258e-38
-26.025609 -50.570648 106.411130 -0.456733 -0.889604 0.000000 1.7041734328458258e-38
-24.662701 -51.084317 106.194916 -0.434676 -0.900587 0.000000 1.7041734328458258e-38
-34.214495 -45.812135 108.007562 -0.602635 -0.798017 0.000000 1.7041734328458258e-38
-33.099457 -46.832022 107.670565 -0.582791 -0.812622 0.000000 1.7041734328458258e-38
-31.923639 -47.234637 107.653546 -0.562593 -0.826734 0.000000 1.7041734328458258e-38
-30.800725 -48.472401 107.578722 -0.542053 -0.840344 0.000000 1.7041734328458258e-38
-29.867223 -48.503557 107.469696 -0.521185 -0.853444 0.000000 1.7041734328458258e-38
-27.960841 -49.624938 107.300409 -0.500000 -0.866025 0.000000 1.7041734328458258e-38
-26.950139 -49.959573 107.752521 -0.478512 -0.878081 0.000000 1.7041734328458258e-38
-26.149222 -50.903899 107.773785 -0.456733 -0.889604 0.000000 1.7041734328458258e-38
-24.987576 -50.891622 107.707257 -0.434676 -0.900587 0.000000 1.7041734328458258e-38
-31.545130 -46.845467 109.247215 -0.562593 -0.826734 0.000000 1.7041734328458258e-38
-30.755596 -48.049179 108.644232 -0.542053 -0.840344 0.000000 1.7041734328458258e-38
-29.289722 -48.938444 108.754967 -0.521185 -0.853444 0.000000 1.7041734328458258e-38
-28.551106 -49.926368 108.789749 -0.500000 -0.866025 0.000000 1.7041734328458258e-38
-27.553938 -50.607224 108.524788 -0.478512 -0.878081 0.000000 1.7041734328458258e-38
-26.092648 -50.530751 108.871395 -0.456733 -0.889604 0.000000 1.7041734328458258e-38
-25.151990 -51.663928 109.001165 -0.434676 -0.900587 0.000000 1.7041734328458258e-38
-29.663820 -48.504573 110.196172 -0.521185 -0.853444 0.000000 1.7041734328458258e-38
-28.798853 -50.154345 110.601124 -0.500000 -0.866025 0.000000 1.7041734328458258e-38
-27.447056 -49.873248 110.595660 -0.478512 -0.878081 0.000000 1.7041734328458258e-38
-25.906683 -50.643106 110.365643 -0.456733 -0.889604 0.000000 1.7041734328458258e-38
-24.951419 -51.902785 110.342496 -0.434676 -0.900587 0.000000 1.7041734328458258e-38
-26.467817 -51.309951 111.327128 -0.456733 -0.889604 0.000000 1.7041734328458258e-38
