# .PCD v0.7 - Point Cloud Data file format
VERSION 0.7
FIELDS x y z normal_x normal_y normal_z rgb
SIZE 4 4 4 4 4 4 4
TYPE F F F F F F F
COUNT 1 1 1 1 1 1 1
WIDTH 166
HEIGHT 1
VIEWPOINT 0 0 0 1 0 0 0
POINTS 166
DATA ascii
42.128027 3.402552 0.233338 0.997269 0.073853 0.000000 1.6580765988230895e-38
42.313553 4.520184 0.140253 0.995147 0.098400 0.000000 1.6580765988230895e-38
41.920084 5.333378 -0.287665 0.992421 0.122888 0.000000 1.6580765988230895e-38
42.299928 6.245344 -0.055459 0.989092 0.147302 0.000000 1.6580765988230895e-38
41.665116 7.660854 -0.046359 0.985162 0.171626 0.000000 1.6580765988230895e-38
41.548479 8.217792 0.159693 0.980635 0.195845 0.000000 1.6580765988230895e-38
41.568892 9.471540 0.129246 0.975512 0.219946 0.000000 1.6580765988230895e-38
41.858864 10.244409 -0.153673 0.969797 0.243914 0.000000 1.6580765988230895e-38
40.704327 11.563446 0.338692 0.963493 0.267733 0.000000 1.6580765988230895e-38
40.621504 12.132017 -0.247344 0.956604 0.291390 0.000000 1.6580765988230895e-38
40.533413 13.604934 0.162946 0.949135 0.314870 0.000000 1.6580765988230895e-38
39.796640 14.441375 0.035006 0.941089 0.338158 0.000000 1.6580765988230895e-38
39.695676 15.614199 0.067079 0.932472 0.361242 0.000000 1.6580765988230895e-38
39.443461 16.344768 0.086736 0.923289 0.384106 0.000000 1.6580765988230895e-38
39.015068 16.849161 -0.095901 0.913545 0.406737 0.000000 1.6580765988230895e-38
38.246894 18.045963 -0.082543 0.903247 0.429121 0.000000 1.6580765988230895e-38
38.375507 18.918123 0.290484 0.892401 0.451244 0.000000 1.6580765988230895e-38
36.938157 20.006011 0.048826 0.881012 0.473094 0.000000 1.6580765988230895e-38
37.112147 21.236241 0.238004 0.869089 0.494656 0.000000 1.6580765988230895e-38
36.302501 21.787802 0.257393 0.856638 0.515918 0.000000 1.6580765988230895e-38
35.798462 22.434125 -0.339986 0.843667 0.536867 0.000000 1.6580765988230895e-38
35.006986 23.842449 0.042728 0.830184 0.557489 0.000000 1.6580765988230895e-38
34.895514 24.427212 0.047562 0.816197 0.577774 0.000000 1.6580765988230895e-38
34.260534 25.309763 0.137033 0.801714 0.597707 0.000000 1.6580765988230895e-38
33.238082 26.125408 -0.114521 0.786745 0.617278 0.000000 1.6580765988230895e-38
42.391478 3.199862 0.909072 0.997269 0.073853 0.000000 1.6580765988230895e-38
42.416755 4.200515 0.846318 0.995147 0.098400 0.000000 1.6580765988230895e-38
42.166416 5.199317 1.776382 0.992421 0.122888 0.000000 1.6580765988230895e-38
42.308548 6.264335 1.311750 0.989092 0.147302 0.000000 1.6580765988230895e-38
41.886534 7.233892 0.912385 0.985162 0.171626 0.000000 1.6580765988230895e-38
41.635519 8.100373 0.862019 0.980635 0.195845 0.000000 1.6580765988230895e-38
41.616462 9.465965 0.701101 0.975512 0.219946 0.000000 1.6580765988230895e-38
41.183379 10.666003 1.554881 0.969797 0.243914 0.000000 1.6580765988230895e-38
41.259999 11.391380 0.983600 0.963493 0.267733 0.000000 1.6580765988230895e-38
40.334341 12.488592 1.350897 0.956604 0.291390 0.000000 1.6580765988230895e-38
40.728168 13.713190 1.197445 0.949135 0.314870 0.000000 1.6580765988230895e-38
39.626733 14.277325 1.302283 0.941089 0.338158 0.000000 1.6580765988230895e-38
39.573112 15.180823 1.312979 0.932472 0.361242 0.000000 1.6580765988230895e-38
39.092231 16.137585 1.330549 0.923289 0.384106 0.000000 1.6580765988230895e-38
38.708677 17.361138 1.319075 0.913545 0.406737 0.000000 1.6580765988230895e-38
38.049730 18.094941 1.668446 0.903247 0.429121 0.000000 1.6580765988230895e-38
37.581911 18.544651 0.678560 0.892401 0.451244 0.000000 1.6580765988230895e-38
37.455216 20.117612 1.201830 0.881012 0.473094 0.000000 1.6580765988230895e-38
37.303955 20.222969 1.355894 0.869089 0.494656 0.000000 1.6580765988230895e-38
36.878919 21.590203 1.123171 0.856638 0.515918 0.000000 1.6580765988230895e-38
35.633305 22.550638 1.139235 0.843667 0.536867 0.000000 1.6580765988230895e-38
35.714332 24.246710 1.136332 0.830184 0.557489 0.000000 1.6580765988230895e-38
35.263097 24.568333 1.763221 0.816197 0.577774 0.000000 1.6580765988230895e-38
34.048021 25.444235 1.346756 0.801714 0.597707 0.000000 1.6580765988230895e-38
34.393410 26.492138 1.024934 0.786745 0.617278 0.000000 1.6580765988230895e-38
42.854536 3.061624 2.726204 0.997269 0.073853 0.000000 1.6580765988230895e-38
42.380483 4.152072 2.883382 0.995147 0.098400 0.000000 1.6580765988230895e-38
42.122484 4.690464 2.233255 0.992421 0.122888 0.000000 1.6580765988230895e-38
42.217308 6.381292 2.004109 0.989092 0.147302 0.000000 1.6580765988230895e-38
41.667588 7.122274 2.364586 0.985162 0.171626 0.000000 1.6580765988230895e-38
41.279628 8.138001 2.255644 0.980635 0.195845 0.000000 1.6580765988230895e-38
41.706062 9.593916 2.430484 0.975512 0.219946 0.000000 1.6580765988230895e-38
41.114012 10.412147 2.229254 0.969797 0.243914 0.000000 1.6580765988230895e-38
40.619564 11.100797 2.283783 0.963493 0.267733 0.000000 1.6580765988230895e-38
40.321692 12.437265 2.693142 0.956604 0.291390 0.000000 1.6580765988230895e-38
39.877034 13.394449 2.408246 0.949135 0.314870 0.000000 1.6580765988230895e-38
40.113548 14.373164 2.038147 0.941089 0.338158 0.000000 1.6580765988230895e-38
39.266020 15.367280 2.782861 0.932472 0.361242 0.000000 1.6580765988230895e-38
38.590053 16.434254 2.831113 0.923289 0.384106 0.000000 1.6580765988230895e-38
38.794143 17.457766 2.263306 0.913545 0.406737 0.000000 1.6580765988230895e-38
38.366403 17.758101 1.770924 0.903247 0.429121 0.000000 1.6580765988230895e-38
38.223891 18.889471 2.337568 0.892401 0.451244 0.000000 1.6580765988230895e-38
37.040943 19.690926 2.422075 0.881012 0.473094 0.000000 1.6580765988230895e-38
36.731077 21.144045 2.609988 0.869089 0.494656 0.000000 1.6580765988230895e-38
36.516847 22.006203 2.947557 0.856638 0.515918 0.000000 1.6580765988230895e-38
35.548846 22.808794 2.814034 0.843667 0.536867 0.000000 1.6580765988230895e-38
35.675241 23.275541 2.380520 0.830184 0.557489 0.000000 1.6580765988230895e-38
35.108643 24.716899 2.532806 0.816197 0.577774 0.000000 1.6580765988230895e-38
34.020162 25.296828 2.560693 0.801714 0.597707 0.000000 1.6580765988230895e-38
33.373322 26.231260 2.497806 0.786745 0.617278 0.000000 1.6580765988230895e-38
42.332959 4.572801 3.789766 0.995147 0.098400 0.000000 1.6580765988230895e-38
42.460900 5.310872 4.121976 0.992421 0.122888 0.000000 1.6580765988230895e-38
42.088164 6.414369 3.821240 0.989092 0.147302 0.000000 1.6580765988230895e-38
41.817759 7.421657 4.381656 0.985162 0.171626 0.000000 1.6580765988230895e-38
41.630548 8.456200 4.088674 0.980635 0.195845 0.000000 1.6580765988230895e-38
41.835843 9.359016 2.996324 0.975512 0.219946 0.000000 1.6580765988230895e-38
41.405687 9.709119 4.152321 0.969797 0.243914 0.000000 1.6580765988230895e-38
41.033384 11.688026 3.440707 0.963493 0.267733 0.000000 1.6580765988230895e-38
40.223775 12.472598 3.701259 0.956604 0.291390 0.000000 1.6580765988230895e-38
40.224348 13.418494 4.541571 0.949135 0.314870 0.000000 1.6580765988230895e-38
40.279941 14.698538 3.964521 0.941089 0.338158 0.000000 1.6580765988230895e-38
40.106894 15.308528 3.094912 0.932472 0.361242 0.000000 1.6580765988230895e-38
39.215872 16.581603 3.420400 0.923289 0.384106 0.000000 1.6580765988230895e-38
38.805088 17.093164 4.161949 0.913545 0.406737 0.000000 1.6580765988230895e-38
38.644795 18.448268 3.897821 0.903247 0.429121 0.000000 1.6580765988230895e-38
37.947418 19.253102 3.355785 0.892401 0.451244 0.000000 1.6580765988230895e-38
36.818251 20.168236 3.808537 0.881012 0.473094 0.000000 1.6580765988230895e-38
37.329803 21.511772 4.182340 0.869089 0.494656 0.000000 1.6580765988230895e-38
36.138014 21.839078 3.855440 0.856638 0.515918 0.000000 1.6580765988230895e-38
36.645269 23.279851 4.047159 0.843667 0.536867 0.000000 1.6580765988230895e-38
35.195852 23.448062 3.948013 0.830184 0.557489 0.000000 1.6580765988230895e-38
34.387043 24.504295 3.676907 0.816197 0.577774 0.000000 1.6580765988230895e-38
34.579091 25.317301 2.979565 0.801714 0.597707 0.000000 1.6580765988230895e-38
33.615824 26.046454 3.724130 0.786745 0.617278 0.000000 1.6580765988230895e-38
41.598671 7.373716 4.791730 0.985162 0.171626 0.000000 1.6580765988230895e-38
41.597363 8.557539 4.599934 0.980635 0.195845 0.000000 1.6580765988230895e-38
41.248959 9.407768 5.239277 0.975512 0.219946 0.000000 1.6580765988230895e-38
41.648769 10.182144 5.229667 0.969797 0.243914 0.000000 1.6580765988230895e-38
40.773771 11.943342 4.608322 0.963493 0.267733 0.000000 1.6580765988230895e-38
41.114353 12.205432 5.552428 0.956604 0.291390 0.000000 1.6580765988230895e-38
40.575284 13.096942 4.791782 0.949135 0.314870 0.000000 1.6580765988230895e-38
40.289794 14.708773 4.927239 0.941089 0.338158 0.000000 1.6580765988230895e-38
39.702072 15.602980 4.987993 0.932472 0.361242 0.000000 1.6580765988230895e-38
38.909764 16.104743 5.018990 0.923289 0.384106 0.000000 1.6580765988230895e-38
39.247742 17.796665 5.182312 0.913545 0.406737 0.000000 1.6580765988230895e-38
38.530962 18.489240 4.748428 0.903247 0.429121 0.000000 1.6580765988230895e-38
37.937142 18.958994 4.573831 0.892401 0.451244 0.000000 1.6580765988230895e-38
37.598454 20.191864 5.154749 0.881012 0.473094 0.000000 1.6580765988230895e-38
37.154735 21.126755 5.115439 0.869089 0.494656 0.000000 1.6580765988230895e-38
36.448152 22.082800 4.730610 0.856638 0.515918 0.000000 1.6580765988230895e-38
36.019789 23.051097 4.747549 0.843667 0.536867 0.000000 1.6580765988230895e-38
35.350547 23.541258 4.790502 0.830184 0.557489 0.000000 1.6580765988230895e-38
34.402187 24.971433 5.268159 0.816197 0.577774 0.000000 1.6580765988230895e-38
34.284474 26.031791 4.891680 0.801714 0.597707 0.000000 1.6580765988230895e-38
34.395635 26.204861 5.025012 0.786745 0.617278 0.000000 1.6580765988230895e-38
40.749884 10.045519 6.188668 0.969797 0.243914 0.000000 1.6580765988230895e-38
40.920549 11.523367 5.821167 0.963493 0.267733 0.000000 1.6580765988230895e-38
40.963788 12.057529 6.678387 0.956604 0.291390 0.000000 1.6580765988230895e-38
39.916641 13.085088 6.310778 0.949135 0.314870 0.000000 1.6580765988230895e-38
40.587907 14.499421 6.354424 0.941089 0.338158 0.000000 1.6580765988230895e-38
39.726829 15.080298 6.038526 0.932472 0.361242 0.000000 1.6580765988230895e-38
38.966812 15.978572 6.306092 0.923289 0.384106 0.000000 1.6580765988230895e-38
38.578370 17.422084 5.795020 0.913545 0.406737 0.000000 1.6580765988230895e-38
38.565552 18.133128 6.607552 0.903247 0.429121 0.000000 1.6580765988230895e-38
38.111707 19.592885 5.958873 0.892401 0.451244 0.000000 1.6580765988230895e-38
37.546310 19.858572 6.061485 0.881012 0.473094 0.000000 1.6580765988230895e-38
36.942928 20.853654 5.820916 0.869089 0.494656 0.000000 1.6580765988230895e-38
36.067120 21.275207 5.868663 0.856638 0.515918 0.000000 1.6580765988230895e-38
36.126887 22.389961 5.775130 0.843667 0.536867 0.000000 1.6580765988230895e-38
35.901552 23.557056 6.281881 0.830184 0.557489 0.000000 1.6580765988230895e-38
34.961153 24.810840 5.728873 0.816197 0.577774 0.000000 1.6580765988230895e-38
34.082207 24.975749 6.919462 0.801714 0.597707 0.000000 1.6580765988230895e-38
40.162217 12.898433 6.953142 0.949135 0.314870 0.000000 1.6580765988230895e-38
39.860207 14.066125 7.516651 0.941089 0.338158 0.000000 1.6580765988230895e-38
39.401880 14.460665 7.109507 0.932472 0.361242 0.000000 1.6580765988230895e-38
39.228564 16.197081 7.878538 0.923289 0.384106 0.000000 1.6580765988230895e-38
38.770579 17.608001 7.416986 0.913545 0.406737 0.000000 1.6580765988230895e-38
38.502820 18.047588 7.405046 0.903247 0.429121 0.000000 1.6580765988230895e-38
37.823470 19.292579 7.351806 0.892401 0.451244 0.000000 1.6580765988230895e-38
37.283997 20.470828 7.550733 0.881012 0.473094 0.000000 1.6580765988230895e-38
36.924545 21.136349 7.397534 0.869089 0.494656 0.000000 1.6580765988230895e-38
36.267767 22.020485 7.236377 0.856638 0.515918 0.000000 1.6580765988230895e-38
35.691469 22.405786 7.315098 0.843667 0.536867 0.000000 1.6580765988230895e-38
35.570104 23.563601 8.178893 0.830184 0.557489 0.000000 1.6580765988230895e-38
35.069292 25.028248 7.661253 0.816197 0.577774 0.000000 1.6580765988230895e-38
34.741889 25.250841 6.654459 0.801714 0.597707 0.000000 1.6580765988230895e-38
39.418473 16.469094 9.006519 0.923289 0.384106 0.000000 1.6580765988230895e-38
38.525434 17.373594 8.334223 0.913545 0.406737 0.000000 1.6580765988230895e-38
38.713007 18.553148 9.045945 0.903247 0.429121 0.000000 1.6580765988230895e-38
37.937786 19.542644 9.068064 0.892401 0.451244 0.000000 1.6580765988230895e-38
37.119129 20.380976 8.947347 0.881012 0.473094 0.000000 1.6580765988230895e-38
37.025459 20.754576 8.942681 0.869089 0.494656 0.000000 1.6580765988230895e-38
36.211673 21.972018 8.647757 0.856638 0.515918 0.000000 1.6580765988230895e-38
36.232433 22.731877 8.454419 0.843667 0.536867 0.000000 1.6580765988230895e-38
35.471826 24.102212 9.346029 0.830184 0.557489 0.000000 1.6580765988230895e-38
34.392770 24.760877 8.333833 0.816197 0.577774 0.000000 1.6580765988230895e-38
34.532366 25.235716 8.457399 0.801714 0.597707 0.000000 1.6580765988230895e-38
38.160679 18.508629 9.571419 0.892401 0.451244 0.000000 1.6580765988230895e-38
37.674507 20.478615 9.314513 0.881012 0.473094 0.000000 1.6580765988230895e-38
37.039505 21.449613 9.461471 0.869089 0.494656 0.000000 1.6580765988230895e-38
36.690327 22.075457 10.411221 0.856638 0.515918 0.000000 1.6580765988230895e-38
