# .PCD v0.7 - Point Cloud Data file format
VERSION 0.7
FIELDS x y z normal_x normal_y normal_z rgb
SIZE 4 4 4 4 4 4 4
TYPE F F F F F F F
COUNT 1 1 1 1 1 1 1
WIDTH 215
HEIGHT 1
VIEWPOINT 0 0 0 1 0 0 0
POINTS 215
DATA ascii
19.283306 -46.336835 61.770307 0.378411 -0.925638 0.000000 1.75027152803718e-38
20.538958 -46.546383 61.782024 0.401102 -0.916034 0.000000 1.75027152803718e-38
21.553633 -45.811647 62.128884 0.423549 -0.905873 0.000000 1.75027152803718e-38
22.540389 -45.021313 61.639650 0.445738 -0.895163 0.000000 1.75027152803718e-38
23.674521 -43.937656 61.908256 0.467658 -0.883910 0.000000 1.75027152803718e-38
24.809644 -43.712559 61.512346 0.489293 -0.872120 0.000000 1.75027152803718e-38
25.677767 -43.352053 61.218197 0.510631 -0.859800 0.000000 1.75027152803718e-38
27.013304 -42.935934 62.059560 0.531659 -0.846958 0.000000 1.75027152803718e-38
27.592021 -41.371097 61.772103 0.552365 -0.833602 0.000000 1.75027152803718e-38
29.421705 -41.337400 61.839629 0.572735 -0.819740 0.000000 1.75027152803718e-38
30.323749 -40.837649 61.870657 0.592758 -0.805381 0.000000 1.75027152803718e-38
31.005925 -39.693409 61.868577 0.612420 -0.790532 0.000000 1.75027152803718e-38
31.787332 -38.788608 61.908706 0.631711 -0.775204 0.000000 1.75027152803718e-38
33.057795 -38.129265 62.050732 0.650618 -0.759405 0.000000 1.75027152803718e-38
18.263091 -47.094395 62.766156 0.355491 -0.934680 0.000000 1.75027152803718e-38
19.344993 -46.247727 62.630982 0.378411 -0.925638 0.000000 1.75027152803718e-38
20.113856 -46.825707 63.377347 0.401102 -0.916034 0.000000 1.75027152803718e-38
21.405534 -45.962608 63.161009 0.423549 -0.905873 0.000000 1.75027152803718e-38
22.390224 -45.421663 63.175212 0.445738 -0.895163 0.000000 1.75027152803718e-38
23.483539 -44.872364 63.045827 0.467658 -0.883910 0.000000 1.75027152803718e-38
24.788855 -43.954513 63.267752 0.489293 -0.872120 0.000000 1.75027152803718e-38
25.391434 -43.089165 63.110519 0.510631 -0.859800 0.000000 1.75027152803718e-38
26.805981 -43.132740 63.689534 0.531659 -0.846958 0.000000 1.75027152803718e-38
28.661274 -41.625931 63.129208 0.552365 -0.833602 0.000000 1.75027152803718e-38
29.087412 -41.036971 63.020558 0.572735 -0.819740 0.000000 1.75027152803718e-38
30.159840 -40.689427 63.668414 0.592758 -0.805381 0.000000 1.75027152803718e-38
31.423405 -40.047552 63.550299 0.612420 -0.790532 0.000000 1.75027152803718e-38
31.967595 -39.394173 63.007183 0.631711 -0.775204 0.000000 1.75027152803718e-38
32.969806 -38.666418 62.937498 0.650618 -0.759405 0.000000 1.75027152803718e-38
33.429412 -37.854780 63.163148 0.669131 -0.743145 0.000000 1.75027152803718e-38
35.091356 -36.488126 63.221735 0.687237 -0.726434 0.000000 1.75027152803718e-38
35.215105 -36.152619 63.033551 0.704926 -0.709281 0.000000 1.75027152803718e-38
36.836253 -35.171565 62.726857 0.722186 -0.691698 0.000000 1.75027152803718e-38
37.833218 -34.313928 62.754422 0.739009 -0.673696 0.000000 1.75027152803718e-38
38.295555 -33.176712 62.942746 0.755383 -0.655284 0.000000 1.75027152803718e-38
39.032880 -32.487581 62.939309 0.771298 -0.636474 0.000000 1.75027152803718e-38
39.803650 -31.849111 63.379303 0.786745 -0.617278 0.000000 1.75027152803718e-38
40.160165 -30.529601 63.392830 0.801714 -0.597707 0.000000 1.75027152803718e-38
17.356825 -48.315889 64.116721 0.332355 -0.943154 0.000000 1.75027152803718e-38
18.253889 -47.302842 64.393364 0.355491 -0.934680 0.000000 1.75027152803718e-38
19.206563 -47.028255 63.877716 0.378411 -0.925638 0.000000 1.75027152803718e-38
20.425779 -46.134164 63.933852 0.401102 -0.916034 0.000000 1.75027152803718e-38
21.301529 -46.181236 64.229719 0.423549 -0.905873 0.000000 1.75027152803718e-38
23.217471 -45.797152 63.990383 0.445738 -0.895163 0.000000 1.75027152803718e-38
24.010940 -45.139411 64.566199 0.467658 -0.883910 0.000000 1.75027152803718e-38
24.820621 -44.208135 63.859534 0.489293 -0.872120 0.000000 1.75027152803718e-38
26.101452 -43.654068 64.253283 0.510631 -0.859800 0.000000 1.75027152803718e-38
26.664187 -43.001380 64.547111 0.531659 -0.846958 0.000000 1.75027152803718e-38
27.927503 -42.540756 64.568064 0.552365 -0.833602 0.000000 1.75027152803718e-38
29.635705 -41.400568 64.398736 0.572735 -0.819740 0.000000 1.75027152803718e-38
30.067780 -40.960544 63.932249 0.592758 -0.805381 0.000000 1.75027152803718e-38
31.094243 -39.861306 64.341787 0.612420 -0.790532 0.000000 1.75027152803718e-38
31.933815 -39.633246 64.320367 0.631711 -0.775204 0.000000 1.75027152803718e-38
32.712478 -38.887056 64.789742 0.650618 -0.759405 0.000000 1.75027152803718e-38
33.713360 -38.028153 64.417298 0.669131 -0.743145 0.000000 1.75027152803718e-38
34.812325 -36.911361 64.588760 0.687237 -0.726434 0.000000 1.75027152803718e-38
35.380179 -35.839513 64.155180 0.704926 -0.709281 0.000000 1.75027152803718e-38
36.636169 -34.595099 63.909110 0.722186 -0.691698 0.000000 1.75027152803718e-38
37.754598 -33.917906 64.124838 0.739009 -0.673696 0.000000 1.75027152803718e-38
38.209650 -33.430705 64.123060 0.755383 -0.655284 0.000000 1.75027152803718e-38
39.239173 -32.095885 64.220927 0.771298 -0.636474 0.000000 1.75027152803718e-38
40.283251 -30.967278 64.459215 0.786745 -0.617278 0.000000 1.75027152803718e-38
40.923497 -30.570627 63.543007 0.801714 -0.597707 0.000000 1.75027152803718e-38
18.066792 -47.845651 65.797044 0.355491 -0.934680 0.000000 1.75027152803718e-38
19.839413 -46.608102 65.610364 0.378411 -0.925638 0.000000 1.75027152803718e-38
20.407422 -46.923361 65.744371 0.401102 -0.916034 0.000000 1.75027152803718e-38
21.591869 -46.326180 65.541069 0.423549 -0.905873 0.000000 1.75027152803718e-38
22.489781 -46.432848 65.366239 0.445738 -0.895163 0.000000 1.75027152803718e-38
24.329503 -44.735110 65.848945 0.467658 -0.883910 0.000000 1.75027152803718e-38
24.849472 -44.793055 66.054389 0.489293 -0.872120 0.000000 1.75027152803718e-38
25.762807 -43.914679 66.073858 0.510631 -0.859800 0.000000 1.75027152803718e-38
27.199248 -43.358473 65.914962 0.531659 -0.846958 0.000000 1.75027152803718e-38
28.241496 -42.529240 66.021424 0.552365 -0.833602 0.000000 1.75027152803718e-38
28.497111 -41.772245 65.337114 0.572735 -0.819740 0.000000 1.75027152803718e-38
30.221353 -41.112391 65.364369 0.592758 -0.805381 0.000000 1.75027152803718e-38
31.356624 -40.272070 65.628047 0.612420 -0.790532 0.000000 1.75027152803718e-38
32.307043 -39.639842 65.537630 0.631711 -0.775204 0.000000 1.75027152803718e-38
33.263396 -39.080125 65.948045 0.650618 -0.759405 0.000000 1.75027152803718e-38
34.158023 -38.087698 65.685763 0.669131 -0.743145 0.000000 1.75027152803718e-38
35.075975 -36.740133 65.835415 0.687237 -0.726434 0.000000 1.75027152803718e-38
36.041974 -35.954950 65.637591 0.704926 -0.709281 0.000000 1.75027152803718e-38
36.549705 -35.071369 64.996877 0.722186 -0.691698 0.000000 1.75027152803718e-38
36.700328 -34.209182 65.700079 0.739009 -0.673696 0.000000 1.75027152803718e-38
38.704936 -33.061070 65.559595 0.755383 -0.655284 0.000000 1.75027152803718e-38
39.291532 -32.277977 65.352872 0.771298 -0.636474 0.000000 1.75027152803718e-38
40.122748 -31.460487 65.666773 0.786745 -0.617278 0.000000 1.75027152803718e-38
40.859045 -30.683548 65.231035 0.801714 -0.597707 0.000000 1.75027152803718e-38
20.487075 -47.481602 66.836006 0.401102 -0.916034 0.000000 1.75027152803718e-38
21.968963 -46.138197 66.078037 0.423549 -0.905873 0.000000 1.75027152803718e-38
22.660004 -46.359009 66.608429 0.445738 -0.895163 0.000000 1.75027152803718e-38
24.420931 -45.588307 66.661611 0.467658 -0.883910 0.000000 1.75027152803718e-38
24.866161 -44.277184 66.114194 0.489293 -0.872120 0.000000 1.75027152803718e-38
26.043244 -44.392290 66.287772 0.510631 -0.859800 0.000000 1.75027152803718e-38
27.620178 -44.014392 66.666290 0.531659 -0.846958 0.000000 1.75027152803718e-38
28.328685 -43.013197 66.283845 0.552365 -0.833602 0.000000 1.75027152803718e-38
29.347405 -42.304953 67.046718 0.572735 -0.819740 0.000000 1.75027152803718e-38
30.580448 -40.756060 66.837117 0.592758 -0.805381 0.000000 1.75027152803718e-38
31.611651 -40.684865 67.317643 0.612420 -0.790532 0.000000 1.75027152803718e-38
32.428132 -39.821159 66.966297 0.631711 -0.775204 0.000000 1.75027152803718e-38
33.202055 -39.129329 66.966081 0.650618 -0.759405 0.000000 1.75027152803718e-38
34.565430 -37.965711 66.780069 0.669131 -0.743145 0.000000 1.75027152803718e-38
35.356254 -36.998933 66.475931 0.687237 -0.726434 0.000000 1.75027152803718e-38
36.183494 -37.280073 67.026194 0.704926 -0.709281 0.000000 1.75027152803718e-38
36.834276 -35.730960 66.767554 0.722186 -0.691698 0.000000 1.75027152803718e-38
38.118270 -33.862528 66.338213 0.739009 -0.673696 0.000000 1.75027152803718e-38
38.518136 -33.566415 66.586106 0.755383 -0.655284 0.000000 1.75027152803718e-38
39.840682 -32.719882 67.069717 0.771298 -0.636474 0.000000 1.75027152803718e-38
40.308231 -31.520767 66.516985 0.786745 -0.617278 0.000000 1.75027152803718e-38
21.921103 -47.092542 68.187864 0.423549 -0.905873 0.000000 1.75027152803718e-38
23.299192 -46.063854 67.571370 0.445738 -0.895163 0.000000 1.75027152803718e-38
23.804802 -45.617938 67.966366 0.467658 -0.883910 0.000000 1.75027152803718e-38
25.162716 -45.052206 67.500033 0.489293 -0.872120 0.000000 1.75027152803718e-38
26.573546 -44.149343 68.197949 0.510631 -0.859800 0.000000 1.75027152803718e-38
27.545135 -43.760545 67.859116 0.531659 -0.846958 0.000000 1.75027152803718e-38
28.178662 -42.523710 68.035085 0.552365 -0.833602 0.000000 1.75027152803718e-38
29.036206 -42.280532 67.415959 0.572735 -0.819740 0.000000 1.75027152803718e-38
30.641286 -41.488391 67.878661 0.592758 -0.805381 0.000000 1.75027152803718e-38
31.298983 -40.596860 68.016332 0.612420 -0.790532 0.000000 1.75027152803718e-38
31.993095 -39.613976 67.759288 0.631711 -0.775204 0.000000 1.75027152803718e-38
33.155147 -38.752826 68.359112 0.650618 -0.759405 0.000000 1.75027152803718e-38
34.379077 -38.697686 67.768321 0.669131 -0.743145 0.000000 1.75027152803718e-38
35.307661 -37.095327 68.429735 0.687237 -0.726434 0.000000 1.75027152803718e-38
36.400870 -36.380656 67.978428 0.704926 -0.709281 0.000000 1.75027152803718e-38
36.979327 -36.119171 68.138112 0.722186 -0.691698 0.000000 1.75027152803718e-38
38.378775 -34.893831 68.397494 0.739009 -0.673696 0.000000 1.75027152803718e-38
38.837535 -33.766066 67.974916 0.755383 -0.655284 0.000000 1.75027152803718e-38
40.144659 -32.673429 68.023727 0.771298 -0.636474 0.000000 1.75027152803718e-38
40.593259 -32.188013 67.371204 0.786745 -0.617278 0.000000 1.75027152803718e-38
24.250564 -45.352073 69.284064 0.467658 -0.883910 0.000000 1.75027152803718e-38
25.198343 -44.538846 69.166865 0.489293 -0.872120 0.000000 1.75027152803718e-38
26.377986 -44.402836 69.191321 0.510631 -0.859800 0.000000 1.75027152803718e-38
27.775505 -43.741989 69.424009 0.531659 -0.846958 0.000000 1.75027152803718e-38
28.429687 -43.682605 69.028694 0.552365 -0.833602 0.000000 1.75027152803718e-38
29.446734 -42.377995 69.033826 0.572735 -0.819740 0.000000 1.75027152803718e-38
30.267588 -42.065881 69.394635 0.592758 -0.805381 0.000000 1.75027152803718e-38
31.932003 -41.104683 69.158329 0.612420 -0.790532 0.000000 1.75027152803718e-38
32.909310 -40.108972 69.634172 0.631711 -0.775204 0.000000 1.75027152803718e-38
33.657292 -39.589596 69.604274 0.650618 -0.759405 0.000000 1.75027152803718e-38
34.570211 -38.734453 69.546195 0.669131 -0.743145 0.000000 1.75027152803718e-38
36.036340 -37.577145 68.977065 0.687237 -0.726434 0.000000 1.75027152803718e-38
36.978353 -36.630548 69.344272 0.704926 -0.709281 0.000000 1.75027152803718e-38
37.290910 -35.493754 68.945811 0.722186 -0.691698 0.000000 1.75027152803718e-38
37.922453 -34.331735 69.019623 0.739009 -0.673696 0.000000 1.75027152803718e-38
39.419705 -33.532753 69.341400 0.755383 -0.655284 0.000000 1.75027152803718e-38
39.691966 -32.782938 69.695883 0.771298 -0.636474 0.000000 1.75027152803718e-38
40.859231 -32.201378 69.370171 0.786745 -0.617278 0.000000 1.75027152803718e-38
25.132182 -45.623293 70.469776 0.489293 -0.872120 0.000000 1.75027152803718e-38
26.991961 -45.196062 70.524382 0.510631 -0.859800 0.000000 1.75027152803718e-38
27.291451 -44.241529 70.794419 0.531659 -0.846958 0.000000 1.75027152803718e-38
28.489869 -43.458617 70.557771 0.552365 -0.833602 0.000000 1.75027152803718e-38
30.014760 -42.822618 70.893698 0.572735 -0.819740 0.000000 1.75027152803718e-38
30.712811 -41.765691 70.458490 0.592758 -0.805381 0.000000 1.75027152803718e-38
32.091838 -40.530047 70.432184 0.612420 -0.790532 0.000000 1.75027152803718e-38
32.868631 -40.470235 70.339680 0.631711 -0.775204 0.000000 1.75027152803718e-38
33.647558 -39.524058 70.282370 0.650618 -0.759405 0.000000 1.75027152803718e-38
34.596714 -39.621960 70.930949 0.669131 -0.743145 0.000000 1.75027152803718e-38
36.256062 -37.608050 70.253299 0.687237 -0.726434 0.000000 1.75027152803718e-38
36.304381 -37.379446 70.707212 0.704926 -0.709281 0.000000 1.75027152803718e-38
37.961252 -35.945279 70.772812 0.722186 -0.691698 0.000000 1.75027152803718e-38
38.590536 -35.289527 70.818304 0.739009 -0.673696 0.000000 1.75027152803718e-38
39.592826 -34.397282 70.757596 0.755383 -0.655284 0.000000 1.75027152803718e-38
40.093081 -33.199575 70.632646 0.771298 -0.636474 0.000000 1.75027152803718e-38
26.716309 -45.256890 71.933199 0.510631 -0.859800 0.000000 1.75027152803718e-38
28.137577 -44.013498 71.847088 0.531659 -0.846958 0.000000 1.75027152803718e-38
28.737896 -43.534861 71.713139 0.552365 -0.833602 0.000000 1.75027152803718e-38
29.974944 -42.568030 71.720171 0.572735 -0.819740 0.000000 1.75027152803718e-38
30.433056 -41.858504 71.871739 0.592758 -0.805381 0.000000 1.75027152803718e-38
32.057021 -41.674529 71.502882 0.612420 -0.790532 0.000000 1.75027152803718e-38
32.805787 -40.696089 71.605543 0.631711 -0.775204 0.000000 1.75027152803718e-38
33.654198 -39.049644 72.203205 0.650618 -0.759405 0.000000 1.75027152803718e-38
35.059527 -38.855299 72.300537 0.669131 -0.743145 0.000000 1.75027152803718e-38
36.409936 -38.193657 71.826880 0.687237 -0.726434 0.000000 1.75027152803718e-38
36.792707 -37.155915 71.702936 0.704926 -0.709281 0.000000 1.75027152803718e-38
37.723979 -36.092808 71.817498 0.722186 -0.691698 0.000000 1.75027152803718e-38
39.060467 -35.457065 72.042653 0.739009 -0.673696 0.000000 1.75027152803718e-38
39.162391 -34.181535 72.065582 0.755383 -0.655284 0.000000 1.75027152803718e-38
40.487514 -33.364295 71.838016 0.771298 -0.636474 0.000000 1.75027152803718e-38
28.890520 -43.847414 72.995276 0.552365 -0.833602 0.000000 1.75027152803718e-38
30.166808 -42.624910 72.787865 0.572735 -0.819740 0.000000 1.75027152803718e-38
31.079322 -42.521797 72.399241 0.592758 -0.805381 0.000000 1.75027152803718e-38
32.429109 -40.980015 73.219329 0.612420 -0.790532 0.000000 1.75027152803718e-38
33.234953 -40.143451 73.127354 0.631711 -0.775204 0.000000 1.75027152803718e-38
34.399354 -39.827714 73.077800 0.650618 -0.759405 0.000000 1.75027152803718e-38
35.090571 -38.766550 72.662306 0.669131 -0.743145 0.000000 1.75027152803718e-38
36.206833 -38.394870 73.142649 0.687237 -0.726434 0.000000 1.75027152803718e-38
37.727988 -37.028479 73.341868 0.704926 -0.709281 0.000000 1.75027152803718e-38
38.186718 -37.013033 72.950182 0.722186 -0.691698 0.000000 1.75027152803718e-38
38.933545 -35.996795 72.904531 0.739009 -0.673696 0.000000 1.75027152803718e-38
39.635062 -34.772956 72.698784 0.755383 -0.655284 0.000000 1.75027152803718e-38
40.895617 -34.490192 73.071131 0.771298 -0.636474 0.000000 1.75027152803718e-38
30.117552 -42.935254 74.309334 0.572735 -0.819740 0.000000 1.75027152803718e-38
31.227672 -42.193453 74.074430 0.592758 -0.805381 0.000000 1.75027152803718e-38
31.917021 -41.700137 74.237388 0.612420 -0.790532 0.000000 1.75027152803718e-38
33.242974 -40.518985 74.376952 0.631711 -0.775204 0.000000 1.75027152803718e-38
34.272120 -40.044533 74.250993 0.650618 -0.759405 0.000000 1.75027152803718e-38
35.440596 -39.169736 74.180465 0.669131 -0.743145 0.000000 1.75027152803718e-38
35.837239 -38.517263 74.309905 0.687237 -0.726434 0.000000 1.75027152803718e-38
37.226623 -37.845497 74.058229 0.704926 -0.709281 0.000000 1.75027152803718e-38
37.801451 -36.063375 74.302144 0.722186 -0.691698 0.000000 1.75027152803718e-38
39.096518 -35.543507 74.038906 0.739009 -0.673696 0.000000 1.75027152803718e-38
39.697161 -34.404833 74.148775 0.755383 -0.655284 0.000000 1.75027152803718e-38
33.078558 -42.149731 74.952489 0.612420 -0.790532 0.000000 1.75027152803718e-38
33.978905 -41.362455 75.921067 0.631711 -0.775204 0.000000 1.75027152803718e-38
34.253417 -40.301511 75.072384 0.650618 -0.759405 0.000000 1.75027152803718e-38
35.816419 -39.010520 75.265771 0.669131 -0.743145 0.000000 1.75027152803718e-38
36.369512 -38.268985 75.322493 0.687237 -0.726434 0.000000 1.75027152803718e-38
37.737942 -37.591086 75.308073 0.704926 -0.709281 0.000000 1.75027152803718e-38
37.767860 -37.016360 75.640482 0.722186 -0.691698 0.000000 1.75027152803718e-38
39.204163 -35.430212 75.295063 0.739009 -0.673696 0.000000 1.75027152803718e-38
33.385585 -40.786945 76.476833 0.631711 -0.775204 0.000000 1.75027152803718e-38
34.746636 -40.373963 77.074148 0.650618 -0.759405 0.000000 1.75027152803718e-38
35.340343 -39.345524 77.427355 0.669131 -0.743145 0.000000 1.75027152803718e-38
36.111843 -38.898827 77.326223 0.687237 -0.726434 0.000000 1.75027152803718e-38
37.444696 -37.682488 76.601351 0.704926 -0.709281 0.000000 1.75027152803718e-38
35.569617 -39.541907 77.592496 0.669131 -0.743145 0.000000 1.75027152803718e-38
