# .PCD v0.7 - Point Cloud Data file format
VERSION 0.7
FIELDS x y z normal_x normal_y normal_z rgb
SIZE 4 4 4 4 4 4 4
TYPE F F F F F F F
COUNT 1 1 1 1 1 1 1
WIDTH 267
HEIGHT 1
VIEWPOINT 0 0 0 1 0 0 0
POINTS 267
DATA ascii
30.679117 -32.562032 30.656282 0.687237 -0.726434 0.000000 1.7962614429870884e-38
31.453461 -32.018240 30.712648 0.704926 -0.709281 0.000000 1.7962614429870884e-38
32.071098 -31.151645 30.659426 0.722186 -0.691698 0.000000 1.7962614429870884e-38
28.810933 -35.086576 31.946659 0.631711 -0.775204 0.000000 1.7962614429870884e-38
29.052246 -34.681100 32.766293 0.650618 -0.759405 0.000000 1.7962614429870884e-38
29.979983 -33.703242 31.826916 0.669131 -0.743145 0.000000 1.7962614429870884e-38
30.813134 -32.902168 32.596370 0.687237 -0.726434 0.000000 1.7962614429870884e-38
31.351001 -32.383216 32.330484 0.704926 -0.709281 0.000000 1.7962614429870884e-38
32.470298 -31.197212 32.332839 0.722186 -0.691698 0.000000 1.7962614429870884e-38
33.300580 -30.334146 31.743255 0.739009 -0.673696 0.000000 1.7962614429870884e-38
26.685623 -36.462940 33.645652 0.592758 -0.805381 0.000000 1.7962614429870884e-38
27.794101 -35.758723 33.907990 0.612420 -0.790532 0.000000 1.7962614429870884e-38
28.768110 -35.155791 33.290686 0.631711 -0.775204 0.000000 1.7962614429870884e-38
29.637589 -34.256228 33.065714 0.650618 -0.759405 0.000000 1.7962614429870884e-38
30.506050 -33.205128 33.756479 0.669131 -0.743145 0.000000 1.7962614429870884e-38
31.518665 -32.206366 33.921050 0.687237 -0.726434 0.000000 1.7962614429870884e-38
31.957388 -32.114552 32.853181 0.704926 -0.709281 0.000000 1.7962614429870884e-38
32.638460 -31.101723 33.415128 0.722186 -0.691698 0.000000 1.7962614429870884e-38
32.828932 -30.529914 33.595661 0.739009 -0.673696 0.000000 1.7962614429870884e-38
33.827547 -29.562202 33.531550 0.755383 -0.655284 0.000000 1.7962614429870884e-38
24.075076 -38.215751 34.688826 0.531659 -0.846958 0.000000 1.7962614429870884e-38
24.842452 -38.039576 34.580642 0.552365 -0.833602 0.000000 1.7962614429870884e-38
26.080405 -37.209071 34.601828 0.572735 -0.819740 0.000000 1.7962614429870884e-38
26.912209 -36.557673 34.405060 0.592758 -0.805381 0.000000 1.7962614429870884e-38
28.122695 -36.017700 34.677941 0.612420 -0.790532 0.000000 1.7962614429870884e-38
28.047862 -35.241980 34.309299 0.631711 -0.775204 0.000000 1.7962614429870884e-38
29.230237 -33.733838 34.714033 0.650618 -0.759405 0.000000 1.7962614429870884e-38
30.731807 -33.466048 34.934148 0.669131 -0.743145 0.000000 1.7962614429870884e-38
31.125902 -32.482390 34.893181 0.687237 -0.726434 0.000000 1.7962614429870884e-38
32.000714 -32.106984 34.598156 0.704926 -0.709281 0.000000 1.7962614429870884e-38
32.787255 -31.401170 34.753635 0.722186 -0.691698 0.000000 1.7962614429870884e-38
34.056951 -30.932718 34.981882 0.739009 -0.673696 0.000000 1.7962614429870884e-38
34.167504 -29.354759 34.539142 0.755383 -0.655284 0.000000 1.7962614429870884e-38
35.124006 -28.929764 34.119998 0.771298 -0.636474 0.000000 1.7962614429870884e-38
22.501836 -39.297764 36.247560 0.489293 -0.872120 0.000000 1.7962614429870884e-38
22.945012 -38.942609 35.955896 0.510631 -0.859800 0.000000 1.7962614429870884e-38
24.170565 -39.129443 35.414240 0.531659 -0.846958 0.000000 1.7962614429870884e-38
25.063027 -38.428291 35.773162 0.552365 -0.833602 0.000000 1.7962614429870884e-38
26.314978 -37.531486 35.901327 0.572735 -0.819740 0.000000 1.7962614429870884e-38
26.692153 -36.613175 36.028729 0.592758 -0.805381 0.000000 1.7962614429870884e-38
27.482322 -36.251695 35.496138 0.612420 -0.790532 0.000000 1.7962614429870884e-38
28.941087 -35.278380 35.861375 0.631711 -0.775204 0.000000 1.7962614429870884e-38
29.611481 -34.510737 35.979144 0.650618 -0.759405 0.000000 1.7962614429870884e-38
30.344935 -34.057262 35.858590 0.669131 -0.743145 0.000000 1.7962614429870884e-38
31.261818 -32.486813 35.761120 0.687237 -0.726434 0.000000 1.7962614429870884e-38
32.211754 -32.183577 36.296446 0.704926 -0.709281 0.000000 1.7962614429870884e-38
32.668113 -31.120175 35.832070 0.722186 -0.691698 0.000000 1.7962614429870884e-38
34.428505 -30.592865 35.507610 0.739009 -0.673696 0.000000 1.7962614429870884e-38
34.365141 -29.461703 35.900751 0.755383 -0.655284 0.000000 1.7962614429870884e-38
35.131689 -28.789693 35.772789 0.771298 -0.636474 0.000000 1.7962614429870884e-38
19.359300 -41.446451 37.115615 0.423549 -0.905873 0.000000 1.7962614429870884e-38
20.923077 -40.773198 37.745747 0.445738 -0.895163 0.000000 1.7962614429870884e-38
21.273142 -40.221716 36.998378 0.467658 -0.883910 0.000000 1.7962614429870884e-38
22.226755 -39.273528 36.882958 0.489293 -0.872120 0.000000 1.7962614429870884e-38
22.702234 -39.565701 36.510905 0.510631 -0.859800 0.000000 1.7962614429870884e-38
24.048828 -39.023150 37.123987 0.531659 -0.846958 0.000000 1.7962614429870884e-38
24.667044 -37.795464 36.550671 0.552365 -0.833602 0.000000 1.7962614429870884e-38
26.175947 -37.617033 37.361007 0.572735 -0.819740 0.000000 1.7962614429870884e-38
27.236169 -36.506482 37.004966 0.592758 -0.805381 0.000000 1.7962614429870884e-38
27.891246 -36.059086 37.422163 0.612420 -0.790532 0.000000 1.7962614429870884e-38
29.161137 -35.384792 37.183201 0.631711 -0.775204 0.000000 1.7962614429870884e-38
29.768123 -34.635229 37.723882 0.650618 -0.759405 0.000000 1.7962614429870884e-38
30.553551 -34.123325 36.981085 0.669131 -0.743145 0.000000 1.7962614429870884e-38
31.571856 -33.885622 37.072884 0.687237 -0.726434 0.000000 1.7962614429870884e-38
32.528864 -32.621903 37.169413 0.704926 -0.709281 0.000000 1.7962614429870884e-38
33.687507 -31.559781 36.441634 0.722186 -0.691698 0.000000 1.7962614429870884e-38
33.401711 -30.910568 36.872254 0.739009 -0.673696 0.000000 1.7962614429870884e-38
34.605126 -30.080926 37.463224 0.755383 -0.655284 0.000000 1.7962614429870884e-38
34.975157 -29.193881 37.178580 0.771298 -0.636474 0.000000 1.7962614429870884e-38
17.249791 -42.216480 38.254044 0.378411 -0.925638 0.000000 1.7962614429870884e-38
18.473136 -42.172488 38.502733 0.401102 -0.916034 0.000000 1.7962614429870884e-38
19.784721 -41.395118 38.210515 0.423549 -0.905873 0.000000 1.7962614429870884e-38
20.854688 -41.428336 38.127771 0.445738 -0.895163 0.000000 1.7962614429870884e-38
21.461328 -40.322028 37.999470 0.467658 -0.883910 0.000000 1.7962614429870884e-38
22.761757 -40.110460 38.220395 0.489293 -0.872120 0.000000 1.7962614429870884e-38
23.804640 -39.768465 39.036218 0.510631 -0.859800 0.000000 1.7962614429870884e-38
24.389041 -38.892341 38.813387 0.531659 -0.846958 0.000000 1.7962614429870884e-38
25.446708 -37.966624 37.764568 0.552365 -0.833602 0.000000 1.7962614429870884e-38
26.197630 -37.566990 38.674941 0.572735 -0.819740 0.000000 1.7962614429870884e-38
27.481813 -36.823047 38.668833 0.592758 -0.805381 0.000000 1.7962614429870884e-38
28.297360 -36.986180 38.783176 0.612420 -0.790532 0.000000 1.7962614429870884e-38
28.790413 -35.544441 38.404817 0.631711 -0.775204 0.000000 1.7962614429870884e-38
29.925138 -35.244009 37.768907 0.650618 -0.759405 0.000000 1.7962614429870884e-38
30.461294 -33.916799 37.916529 0.669131 -0.743145 0.000000 1.7962614429870884e-38
31.330316 -33.270988 38.042288 0.687237 -0.726434 0.000000 1.7962614429870884e-38
32.244697 -32.583313 38.435308 0.704926 -0.709281 0.000000 1.7962614429870884e-38
32.886981 -31.757238 38.470172 0.722186 -0.691698 0.000000 1.7962614429870884e-38
33.592570 -30.907423 38.135540 0.739009 -0.673696 0.000000 1.7962614429870884e-38
34.764460 -29.908505 38.297638 0.755383 -0.655284 0.000000 1.7962614429870884e-38
35.732982 -29.023449 38.622864 0.771298 -0.636474 0.000000 1.7962614429870884e-38
36.290036 -28.047963 38.466044 0.786745 -0.617278 0.000000 1.7962614429870884e-38
17.375341 -42.879143 39.950874 0.378411 -0.925638 0.000000 1.7962614429870884e-38
18.261622 -42.133603 39.555502 0.401102 -0.916034 0.000000 1.7962614429870884e-38
19.125769 -41.998980 40.047118 0.423549 -0.905873 0.000000 1.7962614429870884e-38
20.532230 -41.066969 39.842945 0.445738 -0.895163 0.000000 1.7962614429870884e-38
21.461995 -41.204064 39.242083 0.467658 -0.883910 0.000000 1.7962614429870884e-38
23.031095 -40.229044 39.067483 0.489293 -0.872120 0.000000 1.7962614429870884e-38
23.831187 -40.241697 39.339792 0.510631 -0.859800 0.000000 1.7962614429870884e-38
24.576475 -38.356488 39.832429 0.531659 -0.846958 0.000000 1.7962614429870884e-38
25.363552 -38.487346 39.863542 0.552365 -0.833602 0.000000 1.7962614429870884e-38
26.875524 -37.929988 39.522044 0.572735 -0.819740 0.000000 1.7962614429870884e-38
27.124590 -36.993023 39.895420 0.592758 -0.805381 0.000000 1.7962614429870884e-38
27.700020 -36.625907 39.223595 0.612420 -0.790532 0.000000 1.7962614429870884e-38
29.217749 -36.170380 39.191587 0.631711 -0.775204 0.000000 1.7962614429870884e-38
30.382673 -35.119072 39.569657 0.650618 -0.759405 0.000000 1.7962614429870884e-38
31.030023 -34.027256 39.462051 0.669131 -0.743145 0.000000 1.7962614429870884e-38
31.617764 -33.664394 39.912082 0.687237 -0.726434 0.000000 1.7962614429870884e-38
32.533091 -32.842010 39.704898 0.704926 -0.709281 0.000000 1.7962614429870884e-38
33.900018 -31.920417 39.506795 0.722186 -0.691698 0.000000 1.7962614429870884e-38
34.710404 -30.712391 39.943076 0.739009 -0.673696 0.000000 1.7962614429870884e-38
34.733443 -30.441021 39.037383 0.755383 -0.655284 0.000000 1.7962614429870884e-38
35.908091 -29.369344 39.047363 0.771298 -0.636474 0.000000 1.7962614429870884e-38
36.692513 -28.607175 39.523405 0.786745 -0.617278 0.000000 1.7962614429870884e-38
17.331554 -42.591618 41.085301 0.378411 -0.925638 0.000000 1.7962614429870884e-38
18.462299 -42.290576 40.751171 0.401102 -0.916034 0.000000 1.7962614429870884e-38
19.547619 -42.039383 41.017712 0.423549 -0.905873 0.000000 1.7962614429870884e-38
20.410635 -41.376896 41.574089 0.445738 -0.895163 0.000000 1.7962614429870884e-38
21.750089 -40.994833 40.799492 0.467658 -0.883910 0.000000 1.7962614429870884e-38
22.842303 -40.941709 41.335068 0.489293 -0.872120 0.000000 1.7962614429870884e-38
23.983102 -40.080420 40.834206 0.510631 -0.859800 0.000000 1.7962614429870884e-38
24.497066 -39.201557 40.843148 0.531659 -0.846958 0.000000 1.7962614429870884e-38
25.693412 -38.980233 40.680279 0.552365 -0.833602 0.000000 1.7962614429870884e-38
26.913634 -38.188805 40.031694 0.572735 -0.819740 0.000000 1.7962614429870884e-38
27.453491 -36.639064 41.079406 0.592758 -0.805381 0.000000 1.7962614429870884e-38
28.235606 -36.688853 41.028700 0.612420 -0.790532 0.000000 1.7962614429870884e-38
28.778896 -36.219387 40.944246 0.631711 -0.775204 0.000000 1.7962614429870884e-38
30.661248 -35.361430 41.294847 0.650618 -0.759405 0.000000 1.7962614429870884e-38
30.815411 -35.490964 41.047886 0.669131 -0.743145 0.000000 1.7962614429870884e-38
32.043789 -33.479201 41.033874 0.687237 -0.726434 0.000000 1.7962614429870884e-38
32.759800 -32.981988 40.758536 0.704926 -0.709281 0.000000 1.7962614429870884e-38
33.364907 -32.208772 40.281432 0.722186 -0.691698 0.000000 1.7962614429870884e-38
33.919148 -31.302512 40.152482 0.739009 -0.673696 0.000000 1.7962614429870884e-38
34.440688 -30.499627 40.786243 0.755383 -0.655284 0.000000 1.7962614429870884e-38
35.687358 -30.240716 41.290461 0.771298 -0.636474 0.000000 1.7962614429870884e-38
36.067098 -28.881667 40.446212 0.786745 -0.617278 0.000000 1.7962614429870884e-38
18.189965 -43.215096 41.792731 0.378411 -0.925638 0.000000 1.7962614429870884e-38
18.952974 -42.103289 42.316475 0.401102 -0.916034 0.000000 1.7962614429870884e-38
19.252957 -41.992639 42.183118 0.423549 -0.905873 0.000000 1.7962614429870884e-38
20.487647 -41.333243 42.193361 0.445738 -0.895163 0.000000 1.7962614429870884e-38
22.190089 -41.513848 42.181489 0.467658 -0.883910 0.000000 1.7962614429870884e-38
22.535407 -40.571612 42.505023 0.489293 -0.872120 0.000000 1.7962614429870884e-38
23.370500 -40.482444 42.348498 0.510631 -0.859800 0.000000 1.7962614429870884e-38
24.774230 -39.121868 41.819670 0.531659 -0.846958 0.000000 1.7962614429870884e-38
25.758822 -38.644348 42.124916 0.552365 -0.833602 0.000000 1.7962614429870884e-38
26.156211 -37.357961 42.125553 0.572735 -0.819740 0.000000 1.7962614429870884e-38
27.223875 -37.441240 42.190599 0.592758 -0.805381 0.000000 1.7962614429870884e-38
28.840570 -36.565329 41.997702 0.612420 -0.790532 0.000000 1.7962614429870884e-38
28.924834 -35.990668 41.569131 0.631711 -0.775204 0.000000 1.7962614429870884e-38
30.687223 -35.612575 42.252344 0.650618 -0.759405 0.000000 1.7962614429870884e-38
30.988582 -34.782542 41.821565 0.669131 -0.743145 0.000000 1.7962614429870884e-38
32.244107 -34.042493 42.292415 0.687237 -0.726434 0.000000 1.7962614429870884e-38
32.675131 -33.126117 42.072525 0.704926 -0.709281 0.000000 1.7962614429870884e-38
33.704294 -32.514488 42.272998 0.722186 -0.691698 0.000000 1.7962614429870884e-38
34.360772 -31.235020 42.056987 0.739009 -0.673696 0.000000 1.7962614429870884e-38
35.381226 -30.663494 41.824976 0.755383 -0.655284 0.000000 1.7962614429870884e-38
36.075091 -29.811573 42.499492 0.771298 -0.636474 0.000000 1.7962614429870884e-38
36.687251 -29.180895 41.886216 0.786745 -0.617278 0.000000 1.7962614429870884e-38
37.064822 -27.534817 42.293918 0.801714 -0.597707 0.000000 1.7962614429870884e-38
18.706127 -43.109188 43.300852 0.401102 -0.916034 0.000000 1.7962614429870884e-38
19.777168 -42.359537 42.875773 0.423549 -0.905873 0.000000 1.7962614429870884e-38
20.878157 -41.536553 43.582184 0.445738 -0.895163 0.000000 1.7962614429870884e-38
21.904616 -40.619683 43.125763 0.467658 -0.883910 0.000000 1.7962614429870884e-38
22.884772 -41.271496 43.177878 0.489293 -0.872120 0.000000 1.7962614429870884e-38
24.446266 -40.369127 42.840620 0.510631 -0.859800 0.000000 1.7962614429870884e-38
25.156155 -39.541419 43.548163 0.531659 -0.846958 0.000000 1.7962614429870884e-38
25.774960 -39.334943 43.243882 0.552365 -0.833602 0.000000 1.7962614429870884e-38
26.984346 -38.405431 43.415356 0.572735 -0.819740 0.000000 1.7962614429870884e-38
27.594384 -37.583828 43.298065 0.592758 -0.805381 0.000000 1.7962614429870884e-38
28.464354 -36.974102 43.182961 0.612420 -0.790532 0.000000 1.7962614429870884e-38
29.764543 -36.036397 43.449430 0.631711 -0.775204 0.000000 1.7962614429870884e-38
29.974217 -35.847996 43.107996 0.650618 -0.759405 0.000000 1.7962614429870884e-38
31.092644 -34.960053 43.576544 0.669131 -0.743145 0.000000 1.7962614429870884e-38
32.388938 -34.141862 43.476507 0.687237 -0.726434 0.000000 1.7962614429870884e-38
33.106262 -33.221422 43.643436 0.704926 -0.709281 0.000000 1.7962614429870884e-38
33.617449 -32.372432 42.983711 0.722186 -0.691698 0.000000 1.7962614429870884e-38
34.302659 -31.953522 43.003212 0.739009 -0.673696 0.000000 1.7962614429870884e-38
35.395159 -30.773919 43.218008 0.755383 -0.655284 0.000000 1.7962614429870884e-38
36.025699 -29.270605 42.957815 0.771298 -0.636474 0.000000 1.7962614429870884e-38
36.465513 -29.157216 43.277401 0.786745 -0.617278 0.000000 1.7962614429870884e-38
37.694101 -27.801627 43.582361 0.801714 -0.597707 0.000000 1.7962614429870884e-38
19.186945 -42.841728 44.070432 0.401102 -0.916034 0.000000 1.7962614429870884e-38
19.870400 -42.541665 44.315650 0.423549 -0.905873 0.000000 1.7962614429870884e-38
20.472472 -42.499780 44.986015 0.445738 -0.895163 0.000000 1.7962614429870884e-38
21.643949 -41.570088 44.489182 0.467658 -0.883910 0.000000 1.7962614429870884e-38
22.973107 -41.125633 44.772824 0.489293 -0.872120 0.000000 1.7962614429870884e-38
24.033804 -40.637782 44.551486 0.510631 -0.859800 0.000000 1.7962614429870884e-38
24.629152 -39.703155 44.331792 0.531659 -0.846958 0.000000 1.7962614429870884e-38
25.799514 -39.063687 44.413888 0.552365 -0.833602 0.000000 1.7962614429870884e-38
26.839554 -38.215166 44.244126 0.572735 -0.819740 0.000000 1.7962614429870884e-38
28.036349 -37.605039 44.886152 0.592758 -0.805381 0.000000 1.7962614429870884e-38
29.464835 -37.383976 44.275702 0.612420 -0.790532 0.000000 1.7962614429870884e-38
29.964598 -36.188121 44.298862 0.631711 -0.775204 0.000000 1.7962614429870884e-38
30.754386 -34.909650 44.567482 0.650618 -0.759405 0.000000 1.7962614429870884e-38
31.756923 -34.488920 45.287206 0.669131 -0.743145 0.000000 1.7962614429870884e-38
32.405400 -33.799834 44.299534 0.687237 -0.726434 0.000000 1.7962614429870884e-38
33.171344 -33.502736 43.970480 0.704926 -0.709281 0.000000 1.7962614429870884e-38
33.495024 -32.412588 44.670989 0.722186 -0.691698 0.000000 1.7962614429870884e-38
34.454875 -31.227424 44.203088 0.739009 -0.673696 0.000000 1.7962614429870884e-38
35.614865 -30.953011 44.568167 0.755383 -0.655284 0.000000 1.7962614429870884e-38
36.555991 -29.716321 44.748435 0.771298 -0.636474 0.000000 1.7962614429870884e-38
37.187195 -29.422252 44.876441 0.786745 -0.617278 0.000000 1.7962614429870884e-38
37.399309 -28.151515 44.430684 0.801714 -0.597707 0.000000 1.7962614429870884e-38
19.131040 -43.502693 45.776209 0.401102 -0.916034 0.000000 1.7962614429870884e-38
19.688445 -42.494682 45.779446 0.423549 -0.905873 0.000000 1.7962614429870884e-38
21.274017 -42.679865 45.825523 0.445738 -0.895163 0.000000 1.7962614429870884e-38
22.278208 -42.396202 46.123625 0.467658 -0.883910 0.000000 1.7962614429870884e-38
22.754398 -41.162441 46.309507 0.489293 -0.872120 0.000000 1.7962614429870884e-38
24.424371 -41.090333 45.719785 0.510631 -0.859800 0.000000 1.7962614429870884e-38
25.501951 -40.281351 45.665232 0.531659 -0.846958 0.000000 1.7962614429870884e-38
25.994321 -39.233967 45.312098 0.552365 -0.833602 0.000000 1.7962614429870884e-38
27.261431 -38.936557 45.769795 0.572735 -0.819740 0.000000 1.7962614429870884e-38
27.952613 -37.891000 45.766884 0.592758 -0.805381 0.000000 1.7962614429870884e-38
29.381670 -37.072202 45.534599 0.612420 -0.790532 0.000000 1.7962614429870884e-38
30.271019 -36.548623 45.824161 0.631711 -0.775204 0.000000 1.7962614429870884e-38
31.009654 -36.209956 45.359364 0.650618 -0.759405 0.000000 1.7962614429870884e-38
31.637763 -35.310876 46.395311 0.669131 -0.743145 0.000000 1.7962614429870884e-38
32.256871 -34.326959 45.830785 0.687237 -0.726434 0.000000 1.7962614429870884e-38
33.691715 -33.826601 45.289576 0.704926 -0.709281 0.000000 1.7962614429870884e-38
34.556599 -32.672923 46.016119 0.722186 -0.691698 0.000000 1.7962614429870884e-38
35.190488 -31.537071 45.659837 0.739009 -0.673696 0.000000 1.7962614429870884e-38
35.512800 -31.574612 45.474725 0.755383 -0.655284 0.000000 1.7962614429870884e-38
36.478450 -30.297010 45.430926 0.771298 -0.636474 0.000000 1.7962614429870884e-38
37.205121 -28.776299 45.756391 0.786745 -0.617278 0.000000 1.7962614429870884e-38
37.557760 -27.872330 45.540961 0.801714 -0.597707 0.000000 1.7962614429870884e-38
20.148026 -43.003380 46.765470 0.423549 -0.905873 0.000000 1.7962614429870884e-38
20.621396 -42.456900 47.110096 0.445738 -0.895163 0.000000 1.7962614429870884e-38
22.331361 -42.281240 47.129341 0.467658 -0.883910 0.000000 1.7962614429870884e-38
23.187035 -41.164897 46.717863 0.489293 -0.872120 0.000000 1.7962614429870884e-38
24.599204 -40.386084 47.045133 0.510631 -0.859800 0.000000 1.7962614429870884e-38
25.374053 -39.993955 46.702599 0.531659 -0.846958 0.000000 1.7962614429870884e-38
26.090549 -39.539476 47.618378 0.552365 -0.833602 0.000000 1.7962614429870884e-38
26.845146 -38.445009 46.952341 0.572735 -0.819740 0.000000 1.7962614429870884e-38
28.144681 -37.888857 47.616744 0.592758 -0.805381 0.000000 1.7962614429870884e-38
29.215807 -37.199566 46.734217 0.612420 -0.790532 0.000000 1.7962614429870884e-38
29.846394 -37.226649 46.855633 0.631711 -0.775204 0.000000 1.7962614429870884e-38
31.072871 -36.006842 47.528440 0.650618 -0.759405 0.000000 1.7962614429870884e-38
32.399018 -35.339109 46.806404 0.669131 -0.743145 0.000000 1.7962614429870884e-38
32.990624 -34.125134 47.142684 0.687237 -0.726434 0.000000 1.7962614429870884e-38
33.694473 -33.524951 46.713682 0.704926 -0.709281 0.000000 1.7962614429870884e-38
33.937098 -32.869810 46.950035 0.722186 -0.691698 0.000000 1.7962614429870884e-38
35.184792 -32.038803 46.499330 0.739009 -0.673696 0.000000 1.7962614429870884e-38
20.092937 -43.044189 48.351132 0.423549 -0.905873 0.000000 1.7962614429870884e-38
20.941019 -42.693208 48.326010 0.445738 -0.895163 0.000000 1.7962614429870884e-38
22.386525 -42.483772 48.294133 0.467658 -0.883910 0.000000 1.7962614429870884e-38
23.628601 -41.463976 48.370867 0.489293 -0.872120 0.000000 1.7962614429870884e-38
24.864529 -40.986727 47.994850 0.510631 -0.859800 0.000000 1.7962614429870884e-38
25.123752 -40.371342 47.816160 0.531659 -0.846958 0.000000 1.7962614429870884e-38
26.270325 -39.647443 48.598766 0.552365 -0.833602 0.000000 1.7962614429870884e-38
26.872656 -39.095362 48.226952 0.572735 -0.819740 0.000000 1.7962614429870884e-38
28.302757 -38.397254 48.237923 0.592758 -0.805381 0.000000 1.7962614429870884e-38
29.647637 -37.357826 48.890409 0.612420 -0.790532 0.000000 1.7962614429870884e-38
30.147526 -37.122626 47.957094 0.631711 -0.775204 0.000000 1.7962614429870884e-38
30.897285 -36.030981 48.507980 0.650618 -0.759405 0.000000 1.7962614429870884e-38
32.139338 -35.668621 48.049700 0.669131 -0.743145 0.000000 1.7962614429870884e-38
20.356884 -43.433120 49.233735 0.423549 -0.905873 0.000000 1.7962614429870884e-38
21.232665 -42.917248 49.881710 0.445738 -0.895163 0.000000 1.7962614429870884e-38
22.529438 -42.562386 49.416009 0.467658 -0.883910 0.000000 1.7962614429870884e-38
23.698025 -41.323943 49.153153 0.489293 -0.872120 0.000000 1.7962614429870884e-38
24.824756 -41.330930 48.997268 0.510631 -0.859800 0.000000 1.7962614429870884e-38
24.952395 -40.220943 49.920543 0.531659 -0.846958 0.000000 1.7962614429870884e-38
26.321403 -40.044276 48.949828 0.552365 -0.833602 0.000000 1.7962614429870884e-38
27.697720 -39.324312 49.018853 0.572735 -0.819740 0.000000 1.7962614429870884e-38
28.490832 -39.043926 49.651785 0.592758 -0.805381 0.000000 1.7962614429870884e-38
21.473770 -43.504733 51.030795 0.445738 -0.895163 0.000000 1.7962614429870884e-38
22.152106 -42.375808 50.292082 0.467658 -0.883910 0.000000 1.7962614429870884e-38
23.576635 -41.491409 51.430139 0.489293 -0.872120 0.000000 1.7962614429870884e-38
24.124797 -41.650329 50.564851 0.510631 -0.859800 0.000000 1.7962614429870884e-38
