# .PCD v0.7 - Point Cloud Data file format
VERSION 0.7
FIELDS x y z normal_x normal_y normal_z rgb
SIZE 4 4 4 4 4 4 4
TYPE F F F F F F F
COUNT 1 1 1 1 1 1 1
WIDTH 165
HEIGHT 1
VIEWPOINT 0 0 0 1 0 0 0
POINTS 165
DATA ascii
37.725222 -43.778453 111.055185 0.650618 -0.759405 0.000000 1.75027152803718e-38
38.280892 -42.767363 111.312487 0.669131 -0.743145 0.000000 1.75027152803718e-38
39.740303 -41.490307 111.251260 0.687237 -0.726434 0.000000 1.75027152803718e-38
40.414105 -41.122310 110.754331 0.704926 -0.709281 0.000000 1.75027152803718e-38
41.750445 -39.868314 111.770369 0.722186 -0.691698 0.000000 1.75027152803718e-38
42.259236 -38.567914 111.589379 0.739009 -0.673696 0.000000 1.75027152803718e-38
43.573808 -37.707340 111.361533 0.755383 -0.655284 0.000000 1.75027152803718e-38
44.196147 -36.361607 111.398156 0.771298 -0.636474 0.000000 1.75027152803718e-38
44.867803 -35.330187 110.901210 0.786745 -0.617278 0.000000 1.75027152803718e-38
45.945623 -34.217945 111.046047 0.801714 -0.597707 0.000000 1.75027152803718e-38
46.690090 -33.265143 111.191857 0.816197 -0.577774 0.000000 1.75027152803718e-38
47.803544 -31.809944 111.628599 0.830184 -0.557489 0.000000 1.75027152803718e-38
28.195937 -50.647845 112.311168 0.489293 -0.872120 0.000000 1.75027152803718e-38
29.364175 -48.775216 112.709763 0.510631 -0.859800 0.000000 1.75027152803718e-38
30.660084 -48.730145 112.570768 0.531659 -0.846958 0.000000 1.75027152803718e-38
31.620827 -47.725260 112.946423 0.552365 -0.833602 0.000000 1.75027152803718e-38
32.743080 -47.014746 112.455993 0.572735 -0.819740 0.000000 1.75027152803718e-38
33.918822 -45.858724 112.708537 0.592758 -0.805381 0.000000 1.75027152803718e-38
35.220128 -45.384921 112.315321 0.612420 -0.790532 0.000000 1.75027152803718e-38
36.440145 -44.215942 112.838962 0.631711 -0.775204 0.000000 1.75027152803718e-38
37.311488 -43.794514 112.766999 0.650618 -0.759405 0.000000 1.75027152803718e-38
38.702091 -42.376583 112.340835 0.669131 -0.743145 0.000000 1.75027152803718e-38
39.529739 -42.253390 112.976967 0.687237 -0.726434 0.000000 1.75027152803718e-38
40.482760 -40.625862 113.039884 0.704926 -0.709281 0.000000 1.75027152803718e-38
41.245824 -39.640290 112.318575 0.722186 -0.691698 0.000000 1.75027152803718e-38
41.939527 -38.558748 112.647225 0.739009 -0.673696 0.000000 1.75027152803718e-38
42.690784 -37.367544 112.564682 0.755383 -0.655284 0.000000 1.75027152803718e-38
44.466439 -36.436891 112.891039 0.771298 -0.636474 0.000000 1.75027152803718e-38
45.474883 -35.346581 112.854178 0.786745 -0.617278 0.000000 1.75027152803718e-38
46.250111 -34.638335 112.312485 0.801714 -0.597707 0.000000 1.75027152803718e-38
46.513049 -32.941285 112.365099 0.816197 -0.577774 0.000000 1.75027152803718e-38
47.008686 -32.279601 112.462546 0.830184 -0.557489 0.000000 1.75027152803718e-38
27.614540 -50.109126 113.530588 0.489293 -0.872120 0.000000 1.75027152803718e-38
29.734441 -49.818736 114.513587 0.510631 -0.859800 0.000000 1.75027152803718e-38
30.409870 -48.786280 114.046215 0.531659 -0.846958 0.000000 1.75027152803718e-38
31.696509 -48.105360 113.585216 0.552365 -0.833602 0.000000 1.75027152803718e-38
32.726925 -47.262550 114.057534 0.572735 -0.819740 0.000000 1.75027152803718e-38
34.051201 -46.091551 113.688829 0.592758 -0.805381 0.000000 1.75027152803718e-38
35.347368 -45.586205 113.538115 0.612420 -0.790532 0.000000 1.75027152803718e-38
36.108602 -44.070784 113.641650 0.631711 -0.775204 0.000000 1.75027152803718e-38
37.187461 -43.525728 113.775247 0.650618 -0.759405 0.000000 1.75027152803718e-38
38.083126 -43.012304 114.039129 0.669131 -0.743145 0.000000 1.75027152803718e-38
39.092139 -41.433352 113.674312 0.687237 -0.726434 0.000000 1.75027152803718e-38
39.767110 -40.519979 114.054896 0.704926 -0.709281 0.000000 1.75027152803718e-38
41.629493 -39.844644 113.707786 0.722186 -0.691698 0.000000 1.75027152803718e-38
42.284002 -38.887686 113.898618 0.739009 -0.673696 0.000000 1.75027152803718e-38
43.298808 -37.753860 113.600851 0.755383 -0.655284 0.000000 1.75027152803718e-38
44.318253 -36.154511 113.850131 0.771298 -0.636474 0.000000 1.75027152803718e-38
44.754118 -35.440274 113.958815 0.786745 -0.617278 0.000000 1.75027152803718e-38
46.232844 -34.154752 113.854574 0.801714 -0.597707 0.000000 1.75027152803718e-38
47.664512 -33.522462 114.261367 0.816197 -0.577774 0.000000 1.75027152803718e-38
47.820184 -31.312768 113.379831 0.830184 -0.557489 0.000000 1.75027152803718e-38
26.918352 -50.975328 114.852268 0.467658 -0.883910 0.000000 1.75027152803718e-38
28.219626 -49.661107 115.845116 0.489293 -0.872120 0.000000 1.75027152803718e-38
29.238780 -49.491255 115.001928 0.510631 -0.859800 0.000000 1.75027152803718e-38
30.659580 -48.903264 114.642725 0.531659 -0.846958 0.000000 1.75027152803718e-38
31.656400 -47.786775 115.565824 0.552365 -0.833602 0.000000 1.75027152803718e-38
32.572457 -46.744735 115.020886 0.572735 -0.819740 0.000000 1.75027152803718e-38
33.973113 -46.724341 115.169121 0.592758 -0.805381 0.000000 1.75027152803718e-38
35.258149 -44.725600 114.974131 0.612420 -0.790532 0.000000 1.75027152803718e-38
36.749745 -44.616948 114.949026 0.631711 -0.775204 0.000000 1.75027152803718e-38
36.865532 -43.273121 115.092875 0.650618 -0.759405 0.000000 1.75027152803718e-38
38.431504 -42.771182 115.122190 0.669131 -0.743145 0.000000 1.75027152803718e-38
39.259571 -41.589364 114.765170 0.687237 -0.726434 0.000000 1.75027152803718e-38
40.448737 -40.589883 115.473831 0.704926 -0.709281 0.000000 1.75027152803718e-38
41.543288 -39.340194 115.047781 0.722186 -0.691698 0.000000 1.75027152803718e-38
42.166035 -38.070680 115.016879 0.739009 -0.673696 0.000000 1.75027152803718e-38
43.671068 -37.823865 115.207769 0.755383 -0.655284 0.000000 1.75027152803718e-38
44.404515 -36.557323 115.660258 0.771298 -0.636474 0.000000 1.75027152803718e-38
45.317014 -35.566015 115.523758 0.786745 -0.617278 0.000000 1.75027152803718e-38
45.504794 -34.768034 115.315560 0.801714 -0.597707 0.000000 1.75027152803718e-38
46.948050 -33.349605 115.169215 0.816197 -0.577774 0.000000 1.75027152803718e-38
48.003319 -32.337614 115.025278 0.830184 -0.557489 0.000000 1.75027152803718e-38
48.469386 -30.744210 115.244817 0.843667 -0.536867 0.000000 1.75027152803718e-38
26.879239 -50.853247 116.255995 0.467658 -0.883910 0.000000 1.75027152803718e-38
28.272025 -49.898408 115.650866 0.489293 -0.872120 0.000000 1.75027152803718e-38
29.398129 -49.502512 116.144127 0.510631 -0.859800 0.000000 1.75027152803718e-38
30.970401 -49.197163 116.272706 0.531659 -0.846958 0.000000 1.75027152803718e-38
32.173149 -47.881055 116.003695 0.552365 -0.833602 0.000000 1.75027152803718e-38
32.847095 -46.574743 116.640239 0.572735 -0.819740 0.000000 1.75027152803718e-38
33.907190 -45.820449 116.479836 0.592758 -0.805381 0.000000 1.75027152803718e-38
34.429798 -45.459494 116.836220 0.612420 -0.790532 0.000000 1.75027152803718e-38
36.254024 -44.090611 115.858310 0.631711 -0.775204 0.000000 1.75027152803718e-38
36.994872 -43.299148 116.544293 0.650618 -0.759405 0.000000 1.75027152803718e-38
38.443504 -42.443879 116.110861 0.669131 -0.743145 0.000000 1.75027152803718e-38
39.153896 -41.628226 116.202586 0.687237 -0.726434 0.000000 1.75027152803718e-38
40.633288 -40.696656 116.188115 0.704926 -0.709281 0.000000 1.75027152803718e-38
42.065439 -40.059503 116.334575 0.722186 -0.691698 0.000000 1.75027152803718e-38
42.438899 -38.621465 116.302657 0.739009 -0.673696 0.000000 1.75027152803718e-38
43.731703 -37.561844 116.093461 0.755383 -0.655284 0.000000 1.75027152803718e-38
44.014305 -36.805569 116.044681 0.771298 -0.636474 0.000000 1.75027152803718e-38
45.413583 -35.496439 116.407304 0.786745 -0.617278 0.000000 1.75027152803718e-38
45.656930 -34.441803 116.433601 0.801714 -0.597707 0.000000 1.75027152803718e-38
47.214451 -33.647161 116.759039 0.816197 -0.577774 0.000000 1.75027152803718e-38
48.138510 -31.730604 116.668286 0.830184 -0.557489 0.000000 1.75027152803718e-38
48.367521 -31.090133 116.314133 0.843667 -0.536867 0.000000 1.75027152803718e-38
26.809364 -50.780787 117.261551 0.467658 -0.883910 0.000000 1.75027152803718e-38
27.937725 -49.746048 117.681156 0.489293 -0.872120 0.000000 1.75027152803718e-38
29.480252 -49.914689 117.044499 0.510631 -0.859800 0.000000 1.75027152803718e-38
30.285245 -48.805581 117.494947 0.531659 -0.846958 0.000000 1.75027152803718e-38
31.847200 -47.612325 117.966844 0.552365 -0.833602 0.000000 1.75027152803718e-38
32.981576 -47.375958 117.744628 0.572735 -0.819740 0.000000 1.75027152803718e-38
34.129516 -46.156718 117.887582 0.592758 -0.805381 0.000000 1.75027152803718e-38
35.088257 -45.006332 117.098358 0.612420 -0.790532 0.000000 1.75027152803718e-38
36.531990 -44.757272 117.593157 0.631711 -0.775204 0.000000 1.75027152803718e-38
37.498964 -43.759065 117.333391 0.650618 -0.759405 0.000000 1.75027152803718e-38
38.209625 -42.633051 117.716062 0.669131 -0.743145 0.000000 1.75027152803718e-38
40.051481 -41.835259 117.065162 0.687237 -0.726434 0.000000 1.75027152803718e-38
40.663868 -41.294331 118.006290 0.704926 -0.709281 0.000000 1.75027152803718e-38
41.741760 -40.064323 117.050246 0.722186 -0.691698 0.000000 1.75027152803718e-38
42.222831 -38.567568 117.295004 0.739009 -0.673696 0.000000 1.75027152803718e-38
43.645640 -37.387104 117.354293 0.755383 -0.655284 0.000000 1.75027152803718e-38
44.602576 -36.224863 117.695497 0.771298 -0.636474 0.000000 1.75027152803718e-38
45.389040 -35.652480 118.134984 0.786745 -0.617278 0.000000 1.75027152803718e-38
45.791416 -34.491575 117.807339 0.801714 -0.597707 0.000000 1.75027152803718e-38
46.805649 -33.302938 117.117413 0.816197 -0.577774 0.000000 1.75027152803718e-38
47.581743 -31.322528 117.417858 0.830184 -0.557489 0.000000 1.75027152803718e-38
48.881294 -31.011136 117.206052 0.843667 -0.536867 0.000000 1.75027152803718e-38
25.632821 -51.090532 119.074253 0.445738 -0.895163 0.000000 1.75027152803718e-38
26.850729 -50.297591 119.050677 0.467658 -0.883910 0.000000 1.75027152803718e-38
28.156851 -50.012987 119.187058 0.489293 -0.872120 0.000000 1.75027152803718e-38
29.493557 -49.634924 118.409920 0.510631 -0.859800 0.000000 1.75027152803718e-38
30.488939 -48.900997 118.824144 0.531659 -0.846958 0.000000 1.75027152803718e-38
31.604253 -48.043920 119.126669 0.552365 -0.833602 0.000000 1.75027152803718e-38
33.426804 -47.365078 118.655144 0.572735 -0.819740 0.000000 1.75027152803718e-38
34.012267 -46.212100 118.866108 0.592758 -0.805381 0.000000 1.75027152803718e-38
35.059471 -45.299568 118.624341 0.612420 -0.790532 0.000000 1.75027152803718e-38
36.208884 -44.843912 119.073526 0.631711 -0.775204 0.000000 1.75027152803718e-38
37.680664 -43.558773 118.961767 0.650618 -0.759405 0.000000 1.75027152803718e-38
38.804932 -42.502301 118.981236 0.669131 -0.743145 0.000000 1.75027152803718e-38
39.384732 -42.218044 118.525734 0.687237 -0.726434 0.000000 1.75027152803718e-38
41.188929 -40.852100 119.243094 0.704926 -0.709281 0.000000 1.75027152803718e-38
41.685335 -39.778931 118.492200 0.722186 -0.691698 0.000000 1.75027152803718e-38
42.279128 -38.774373 118.722504 0.739009 -0.673696 0.000000 1.75027152803718e-38
43.595450 -37.879745 118.570343 0.755383 -0.655284 0.000000 1.75027152803718e-38
44.608329 -36.025185 118.788532 0.771298 -0.636474 0.000000 1.75027152803718e-38
45.367773 -35.535090 118.743622 0.786745 -0.617278 0.000000 1.75027152803718e-38
46.031887 -34.470755 118.929401 0.801714 -0.597707 0.000000 1.75027152803718e-38
47.113208 -33.292892 118.590616 0.816197 -0.577774 0.000000 1.75027152803718e-38
47.589145 -31.857936 118.522164 0.830184 -0.557489 0.000000 1.75027152803718e-38
48.202531 -30.783020 118.742821 0.843667 -0.536867 0.000000 1.75027152803718e-38
25.577157 -51.656696 120.162340 0.445738 -0.895163 0.000000 1.75027152803718e-38
27.032194 -50.927666 120.131440 0.467658 -0.883910 0.000000 1.75027152803718e-38
28.482377 -50.147737 119.650890 0.489293 -0.872120 0.000000 1.75027152803718e-38
29.498249 -49.805403 119.757343 0.510631 -0.859800 0.000000 1.75027152803718e-38
30.653275 -48.514496 120.028599 0.531659 -0.846958 0.000000 1.75027152803718e-38
31.457102 -47.096608 119.843479 0.552365 -0.833602 0.000000 1.75027152803718e-38
33.068756 -47.310330 119.718045 0.572735 -0.819740 0.000000 1.75027152803718e-38
34.099160 -46.442081 120.028575 0.592758 -0.805381 0.000000 1.75027152803718e-38
35.017385 -45.415207 119.774905 0.612420 -0.790532 0.000000 1.75027152803718e-38
36.646328 -44.484858 119.962383 0.631711 -0.775204 0.000000 1.75027152803718e-38
37.405609 -43.778874 120.035810 0.650618 -0.759405 0.000000 1.75027152803718e-38
38.924296 -42.902208 120.048123 0.669131 -0.743145 0.000000 1.75027152803718e-38
39.285844 -42.514503 120.183868 0.687237 -0.726434 0.000000 1.75027152803718e-38
40.856735 -40.652991 120.700402 0.704926 -0.709281 0.000000 1.75027152803718e-38
41.417799 -40.041316 120.355181 0.722186 -0.691698 0.000000 1.75027152803718e-38
42.866821 -38.408055 119.675769 0.739009 -0.673696 0.000000 1.75027152803718e-38
43.224857 -38.171609 120.591906 0.755383 -0.655284 0.000000 1.75027152803718e-38
44.073569 -36.959229 119.968731 0.771298 -0.636474 0.000000 1.75027152803718e-38
45.273040 -35.293625 119.960920 0.786745 -0.617278 0.000000 1.75027152803718e-38
45.894764 -34.486900 119.818938 0.801714 -0.597707 0.000000 1.75027152803718e-38
47.349397 -33.223893 120.190436 0.816197 -0.577774 0.000000 1.75027152803718e-38
47.672802 -32.603694 120.492893 0.830184 -0.557489 0.000000 1.75027152803718e-38
48.684998 -30.753481 119.363884 0.843667 -0.536867 0.000000 1.75027152803718e-38
49.214960 -29.202551 120.388697 0.856638 -0.515918 0.000000 1.75027152803718e-38
