# .PCD v0.7 - Point Cloud Data file format
VERSION 0.7
FIELDS x y z normal_x normal_y normal_z rgb
SIZE 4 4 4 4 4 4 4
TYPE F F F F F F F
COUNT 1 1 1 1 1 1 1
WIDTH 230
HEIGHT 1
VIEWPOINT 0 0 0 1 0 0 0
POINTS 230
DATA ascii
-38.475553 29.489754 53.476798 -0.794290 0.607539 0.000000 1.7962614429870884e-38
-37.982498 30.936275 54.565172 -0.779081 0.626924 0.000000 1.7962614429870884e-38
-38.871133 29.544541 54.710585 -0.794290 0.607539 0.000000 1.7962614429870884e-38
-39.829824 28.493377 54.838739 -0.809017 0.587785 0.000000 1.7962614429870884e-38
-38.535888 30.841702 55.671837 -0.779081 0.626924 0.000000 1.7962614429870884e-38
-39.131029 29.847229 55.530682 -0.794290 0.607539 0.000000 1.7962614429870884e-38
-38.941624 29.115515 55.533260 -0.809017 0.587785 0.000000 1.7962614429870884e-38
-40.109163 27.979154 55.687487 -0.823253 0.567675 0.000000 1.7962614429870884e-38
-41.193997 26.821732 55.304112 -0.836989 0.547220 0.000000 1.7962614429870884e-38
-37.929443 31.563045 57.191199 -0.763398 0.645928 0.000000 1.7962614429870884e-38
-38.040927 31.096224 57.148652 -0.779081 0.626924 0.000000 1.7962614429870884e-38
-39.144635 30.179040 56.272102 -0.794290 0.607539 0.000000 1.7962614429870884e-38
-39.865694 28.905048 56.895168 -0.809017 0.587785 0.000000 1.7962614429870884e-38
-40.595530 27.824702 56.584534 -0.823253 0.567675 0.000000 1.7962614429870884e-38
-41.565520 26.594532 56.560654 -0.836989 0.547220 0.000000 1.7962614429870884e-38
-42.300480 25.571748 57.065849 -0.850217 0.526432 0.000000 1.7962614429870884e-38
-38.171650 32.161142 57.906425 -0.763398 0.645928 0.000000 1.7962614429870884e-38
-38.956576 32.075794 58.726285 -0.779081 0.626924 0.000000 1.7962614429870884e-38
-39.382017 30.410976 58.450614 -0.794290 0.607539 0.000000 1.7962614429870884e-38
-40.178825 29.260008 58.065679 -0.809017 0.587785 0.000000 1.7962614429870884e-38
-40.486104 28.557809 58.612906 -0.823253 0.567675 0.000000 1.7962614429870884e-38
-41.464810 27.812012 58.121425 -0.836989 0.547220 0.000000 1.7962614429870884e-38
-41.587114 25.990883 57.755098 -0.850217 0.526432 0.000000 1.7962614429870884e-38
-42.223814 25.280324 58.300067 -0.862929 0.505325 0.000000 1.7962614429870884e-38
-43.545262 23.765778 57.919254 -0.875117 0.483911 0.000000 1.7962614429870884e-38
-38.087170 31.912217 59.655216 -0.763398 0.645928 0.000000 1.7962614429870884e-38
-38.048700 31.627009 59.348262 -0.779081 0.626924 0.000000 1.7962614429870884e-38
-39.654792 30.149095 59.221191 -0.794290 0.607539 0.000000 1.7962614429870884e-38
-40.065149 29.618389 59.030584 -0.809017 0.587785 0.000000 1.7962614429870884e-38
-40.952770 28.648130 59.276389 -0.823253 0.567675 0.000000 1.7962614429870884e-38
-41.811265 27.503313 59.598769 -0.836989 0.547220 0.000000 1.7962614429870884e-38
-42.278882 26.333943 59.498020 -0.850217 0.526432 0.000000 1.7962614429870884e-38
-43.124964 24.869574 58.914459 -0.862929 0.505325 0.000000 1.7962614429870884e-38
-43.470899 24.169260 59.518099 -0.875117 0.483911 0.000000 1.7962614429870884e-38
-44.479651 23.084836 59.405035 -0.886774 0.462204 0.000000 1.7962614429870884e-38
-37.431078 32.867045 61.150862 -0.747253 0.664540 0.000000 1.7962614429870884e-38
-38.376007 32.611477 61.039625 -0.763398 0.645928 0.000000 1.7962614429870884e-38
-39.395160 31.460734 60.701954 -0.779081 0.626924 0.000000 1.7962614429870884e-38
-39.888375 30.728938 60.418383 -0.794290 0.607539 0.000000 1.7962614429870884e-38
-40.532610 29.349380 61.316220 -0.809017 0.587785 0.000000 1.7962614429870884e-38
-41.461470 28.676163 61.157549 -0.823253 0.567675 0.000000 1.7962614429870884e-38
-42.226616 27.456036 60.322633 -0.836989 0.547220 0.000000 1.7962614429870884e-38
-43.217990 26.150037 60.447448 -0.850217 0.526432 0.000000 1.7962614429870884e-38
-43.404529 25.237737 60.620395 -0.862929 0.505325 0.000000 1.7962614429870884e-38
-44.221171 24.359827 60.982556 -0.875117 0.483911 0.000000 1.7962614429870884e-38
-44.047188 23.088276 60.886723 -0.886774 0.462204 0.000000 1.7962614429870884e-38
-45.207949 21.961241 60.738114 -0.897892 0.440216 0.000000 1.7962614429870884e-38
-45.634009 20.569606 60.868533 -0.908465 0.417960 0.000000 1.7962614429870884e-38
-39.008166 32.632105 61.582863 -0.763398 0.645928 0.000000 1.7962614429870884e-38
-39.330253 31.717291 62.010975 -0.779081 0.626924 0.000000 1.7962614429870884e-38
-40.439912 30.838808 61.844008 -0.794290 0.607539 0.000000 1.7962614429870884e-38
-40.365354 30.041833 62.337509 -0.809017 0.587785 0.000000 1.7962614429870884e-38
-41.889816 28.711178 61.382450 -0.823253 0.567675 0.000000 1.7962614429870884e-38
-41.763866 27.993415 62.149085 -0.836989 0.547220 0.000000 1.7962614429870884e-38
-42.947900 26.676618 61.689997 -0.850217 0.526432 0.000000 1.7962614429870884e-38
-43.456612 25.422644 61.256167 -0.862929 0.505325 0.000000 1.7962614429870884e-38
-44.317433 25.053078 61.829663 -0.875117 0.483911 0.000000 1.7962614429870884e-38
-44.613594 23.275935 61.732513 -0.886774 0.462204 0.000000 1.7962614429870884e-38
-45.210797 22.049018 61.170785 -0.897892 0.440216 0.000000 1.7962614429870884e-38
-45.518274 21.534106 61.506417 -0.908465 0.417960 0.000000 1.7962614429870884e-38
-46.382732 20.366577 61.624249 -0.918487 0.395451 0.000000 1.7962614429870884e-38
-38.440336 32.635311 63.062458 -0.763398 0.645928 0.000000 1.7962614429870884e-38
-40.194792 31.479917 63.142922 -0.779081 0.626924 0.000000 1.7962614429870884e-38
-40.425563 30.347553 63.236828 -0.794290 0.607539 0.000000 1.7962614429870884e-38
-40.549669 29.529396 63.355287 -0.809017 0.587785 0.000000 1.7962614429870884e-38
-41.444594 28.435044 62.874477 -0.823253 0.567675 0.000000 1.7962614429870884e-38
-41.816245 27.357816 62.910077 -0.836989 0.547220 0.000000 1.7962614429870884e-38
-42.436877 26.470283 63.498681 -0.850217 0.526432 0.000000 1.7962614429870884e-38
-43.976511 25.614271 63.418560 -0.862929 0.505325 0.000000 1.7962614429870884e-38
-44.426938 24.519034 63.316114 -0.875117 0.483911 0.000000 1.7962614429870884e-38
-45.147202 24.062675 63.404101 -0.886774 0.462204 0.000000 1.7962614429870884e-38
-45.546451 22.207377 63.666300 -0.897892 0.440216 0.000000 1.7962614429870884e-38
-46.080786 21.009906 63.436633 -0.908465 0.417960 0.000000 1.7962614429870884e-38
-46.901674 19.988943 63.118031 -0.918487 0.395451 0.000000 1.7962614429870884e-38
-47.171567 18.391502 63.113514 -0.927951 0.372702 0.000000 1.7962614429870884e-38
-47.204435 17.494754 62.738841 -0.936852 0.349727 0.000000 1.7962614429870884e-38
-38.520617 32.533367 64.033844 -0.763398 0.645928 0.000000 1.7962614429870884e-38
-39.792572 31.681332 63.993263 -0.779081 0.626924 0.000000 1.7962614429870884e-38
-41.101644 31.310794 64.583955 -0.794290 0.607539 0.000000 1.7962614429870884e-38
-41.157525 29.582264 64.685087 -0.809017 0.587785 0.000000 1.7962614429870884e-38
-41.895454 28.677444 63.821316 -0.823253 0.567675 0.000000 1.7962614429870884e-38
-42.413361 27.709594 64.392951 -0.836989 0.547220 0.000000 1.7962614429870884e-38
-43.196839 26.943638 64.379885 -0.850217 0.526432 0.000000 1.7962614429870884e-38
-43.985181 25.846190 64.600021 -0.862929 0.505325 0.000000 1.7962614429870884e-38
-44.049463 24.254830 64.648454 -0.875117 0.483911 0.000000 1.7962614429870884e-38
-45.582432 23.791602 64.137699 -0.886774 0.462204 0.000000 1.7962614429870884e-38
-45.418879 22.817037 64.383690 -0.897892 0.440216 0.000000 1.7962614429870884e-38
-46.208167 21.223076 64.188722 -0.908465 0.417960 0.000000 1.7962614429870884e-38
-46.366228 20.075709 63.677322 -0.918487 0.395451 0.000000 1.7962614429870884e-38
-46.919536 19.200775 64.342833 -0.927951 0.372702 0.000000 1.7962614429870884e-38
-47.873840 17.434953 64.094291 -0.936852 0.349727 0.000000 1.7962614429870884e-38
-48.001397 16.050894 64.457222 -0.945184 0.326539 0.000000 1.7962614429870884e-38
-39.611127 31.882013 65.644779 -0.779081 0.626924 0.000000 1.7962614429870884e-38
-40.405553 30.872144 65.826737 -0.794290 0.607539 0.000000 1.7962614429870884e-38
-41.252830 30.378884 65.273988 -0.809017 0.587785 0.000000 1.7962614429870884e-38
-42.581790 28.884229 65.574131 -0.823253 0.567675 0.000000 1.7962614429870884e-38
-43.301387 27.774479 65.952077 -0.836989 0.547220 0.000000 1.7962614429870884e-38
-43.276940 26.936474 65.250275 -0.850217 0.526432 0.000000 1.7962614429870884e-38
-43.711280 25.691463 65.595509 -0.862929 0.505325 0.000000 1.7962614429870884e-38
-44.586818 24.774030 66.014544 -0.875117 0.483911 0.000000 1.7962614429870884e-38
-45.132037 23.715136 65.541081 -0.886774 0.462204 0.000000 1.7962614429870884e-38
-45.743027 22.427277 65.623824 -0.897892 0.440216 0.000000 1.7962614429870884e-38
-46.515291 21.203436 65.292193 -0.908465 0.417960 0.000000 1.7962614429870884e-38
-47.006136 20.102253 66.115823 -0.918487 0.395451 0.000000 1.7962614429870884e-38
-47.110660 19.000844 65.440017 -0.927951 0.372702 0.000000 1.7962614429870884e-38
-47.678508 18.449936 65.805978 -0.936852 0.349727 0.000000 1.7962614429870884e-38
-48.804715 16.941556 65.879106 -0.945184 0.326539 0.000000 1.7962614429870884e-38
-48.025286 15.413328 65.608581 -0.952942 0.303153 0.000000 1.7962614429870884e-38
-48.916788 14.054462 65.310638 -0.960122 0.279583 0.000000 1.7962614429870884e-38
-39.956744 31.830164 66.576578 -0.779081 0.626924 0.000000 1.7962614429870884e-38
-40.532310 31.517219 66.887198 -0.794290 0.607539 0.000000 1.7962614429870884e-38
-41.611490 29.983965 66.965891 -0.809017 0.587785 0.000000 1.7962614429870884e-38
-42.351606 29.414175 67.095929 -0.823253 0.567675 0.000000 1.7962614429870884e-38
-42.838734 27.938909 66.678008 -0.836989 0.547220 0.000000 1.7962614429870884e-38
-44.133849 27.005404 66.779016 -0.850217 0.526432 0.000000 1.7962614429870884e-38
-44.706482 26.647048 66.970998 -0.862929 0.505325 0.000000 1.7962614429870884e-38
-45.170954 25.454914 66.655309 -0.875117 0.483911 0.000000 1.7962614429870884e-38
-45.268045 23.750722 66.665596 -0.886774 0.462204 0.000000 1.7962614429870884e-38
-46.188922 23.026800 67.066993 -0.897892 0.440216 0.000000 1.7962614429870884e-38
-46.667274 20.838361 66.895452 -0.908465 0.417960 0.000000 1.7962614429870884e-38
-47.518899 20.459666 66.589908 -0.918487 0.395451 0.000000 1.7962614429870884e-38
-47.813567 18.938970 67.110278 -0.927951 0.372702 0.000000 1.7962614429870884e-38
-48.617485 18.172417 66.906814 -0.936852 0.349727 0.000000 1.7962614429870884e-38
-48.537067 16.626469 66.950068 -0.945184 0.326539 0.000000 1.7962614429870884e-38
-49.045502 15.425782 66.823250 -0.952942 0.303153 0.000000 1.7962614429870884e-38
-48.766092 13.896815 66.954335 -0.960122 0.279583 0.000000 1.7962614429870884e-38
-49.663536 13.065958 66.346032 -0.966718 0.255843 0.000000 1.7962614429870884e-38
-40.829090 31.069984 67.729617 -0.794290 0.607539 0.000000 1.7962614429870884e-38
-41.557046 30.572325 67.855745 -0.809017 0.587785 0.000000 1.7962614429870884e-38
-42.270186 29.633240 67.932698 -0.823253 0.567675 0.000000 1.7962614429870884e-38
-43.592876 27.824474 67.838280 -0.836989 0.547220 0.000000 1.7962614429870884e-38
-43.977169 27.135821 68.036492 -0.850217 0.526432 0.000000 1.7962614429870884e-38
-44.580590 26.262004 67.813005 -0.862929 0.505325 0.000000 1.7962614429870884e-38
-44.747980 25.236004 68.301279 -0.875117 0.483911 0.000000 1.7962614429870884e-38
-45.926338 23.799659 68.258090 -0.886774 0.462204 0.000000 1.7962614429870884e-38
-46.361803 22.490973 67.819458 -0.897892 0.440216 0.000000 1.7962614429870884e-38
-47.054229 21.204787 68.902343 -0.908465 0.417960 0.000000 1.7962614429870884e-38
-47.949550 20.098097 68.220044 -0.918487 0.395451 0.000000 1.7962614429870884e-38
-48.056312 19.113706 68.159794 -0.927951 0.372702 0.000000 1.7962614429870884e-38
-48.001173 17.952411 68.317846 -0.936852 0.349727 0.000000 1.7962614429870884e-38
-49.249763 16.656913 68.189683 -0.945184 0.326539 0.000000 1.7962614429870884e-38
-48.548648 15.343134 67.698804 -0.952942 0.303153 0.000000 1.7962614429870884e-38
-49.408419 14.433262 67.825707 -0.960122 0.279583 0.000000 1.7962614429870884e-38
-50.216023 13.038942 68.197608 -0.966718 0.255843 0.000000 1.7962614429870884e-38
-50.260889 12.312252 68.000430 -0.972728 0.231948 0.000000 1.7962614429870884e-38
-41.037592 31.517492 69.972433 -0.794290 0.607539 0.000000 1.7962614429870884e-38
-41.771211 30.503773 69.217725 -0.809017 0.587785 0.000000 1.7962614429870884e-38
-42.540702 28.494209 69.586665 -0.823253 0.567675 0.000000 1.7962614429870884e-38
-43.740862 28.132703 68.858296 -0.836989 0.547220 0.000000 1.7962614429870884e-38
-44.265519 27.169161 69.545156 -0.850217 0.526432 0.000000 1.7962614429870884e-38
-44.316400 26.760165 69.309022 -0.862929 0.505325 0.000000 1.7962614429870884e-38
-45.400224 25.302387 69.022107 -0.875117 0.483911 0.000000 1.7962614429870884e-38
-46.228123 23.833817 69.268198 -0.886774 0.462204 0.000000 1.7962614429870884e-38
-47.134399 23.124993 69.350373 -0.897892 0.440216 0.000000 1.7962614429870884e-38
-46.822619 21.180846 69.078830 -0.908465 0.417960 0.000000 1.7962614429870884e-38
-47.795975 20.425107 69.268282 -0.918487 0.395451 0.000000 1.7962614429870884e-38
-47.810644 19.337058 69.055940 -0.927951 0.372702 0.000000 1.7962614429870884e-38
-47.876300 18.037539 69.006304 -0.936852 0.349727 0.000000 1.7962614429870884e-38
-49.529789 16.943114 69.485581 -0.945184 0.326539 0.000000 1.7962614429870884e-38
-49.708139 15.891999 69.303443 -0.952942 0.303153 0.000000 1.7962614429870884e-38
-50.270092 14.671185 69.198835 -0.960122 0.279583 0.000000 1.7962614429870884e-38
-50.417652 13.540734 69.559710 -0.966718 0.255843 0.000000 1.7962614429870884e-38
-50.735492 12.103837 69.339333 -0.972728 0.231948 0.000000 1.7962614429870884e-38
-50.692273 10.615947 69.233824 -0.978148 0.207912 0.000000 1.7962614429870884e-38
-50.640326 9.641694 68.699990 -0.982973 0.183750 0.000000 1.7962614429870884e-38
-41.334401 31.379637 70.232931 -0.794290 0.607539 0.000000 1.7962614429870884e-38
-41.574796 30.618587 70.180985 -0.809017 0.587785 0.000000 1.7962614429870884e-38
-42.686021 29.643934 70.416662 -0.823253 0.567675 0.000000 1.7962614429870884e-38
-43.825253 28.697276 70.799278 -0.836989 0.547220 0.000000 1.7962614429870884e-38
-44.147497 27.416322 70.280747 -0.850217 0.526432 0.000000 1.7962614429870884e-38
-44.761773 26.106071 70.133722 -0.862929 0.505325 0.000000 1.7962614429870884e-38
-45.202293 24.873164 69.946383 -0.875117 0.483911 0.000000 1.7962614429870884e-38
-45.753868 23.529169 70.398542 -0.886774 0.462204 0.000000 1.7962614429870884e-38
-47.053841 22.691126 71.182685 -0.897892 0.440216 0.000000 1.7962614429870884e-38
-47.305844 21.858095 70.752610 -0.908465 0.417960 0.000000 1.7962614429870884e-38
-47.990939 20.901319 70.628267 -0.918487 0.395451 0.000000 1.7962614429870884e-38
-48.063251 19.177507 70.648661 -0.927951 0.372702 0.000000 1.7962614429870884e-38
-48.755258 18.538248 70.353363 -0.936852 0.349727 0.000000 1.7962614429870884e-38
-48.576497 17.094275 70.477899 -0.945184 0.326539 0.000000 1.7962614429870884e-38
-49.662545 15.773625 70.326866 -0.952942 0.303153 0.000000 1.7962614429870884e-38
-49.763492 14.545547 71.098547 -0.960122 0.279583 0.000000 1.7962614429870884e-38
-50.436790 13.277538 70.385171 -0.966718 0.255843 0.000000 1.7962614429870884e-38
-50.058827 11.636541 70.543556 -0.972728 0.231948 0.000000 1.7962614429870884e-38
-42.561333 30.645201 72.061830 -0.809017 0.587785 0.000000 1.7962614429870884e-38
-42.780248 29.840677 72.040331 -0.823253 0.567675 0.000000 1.7962614429870884e-38
-43.860166 28.251923 71.705514 -0.836989 0.547220 0.000000 1.7962614429870884e-38
-44.465326 27.720055 71.906011 -0.850217 0.526432 0.000000 1.7962614429870884e-38
-44.803312 25.809570 71.513168 -0.862929 0.505325 0.000000 1.7962614429870884e-38
-45.770976 25.438522 72.380893 -0.875117 0.483911 0.000000 1.7962614429870884e-38
-46.646073 23.947083 71.625579 -0.886774 0.462204 0.000000 1.7962614429870884e-38
-47.157722 22.744211 71.766353 -0.897892 0.440216 0.000000 1.7962614429870884e-38
-47.191636 21.883167 71.494663 -0.908465 0.417960 0.000000 1.7962614429870884e-38
-48.069444 20.359201 72.047486 -0.918487 0.395451 0.000000 1.7962614429870884e-38
-48.063934 19.003105 71.821285 -0.927951 0.372702 0.000000 1.7962614429870884e-38
-49.203996 18.299549 71.726911 -0.936852 0.349727 0.000000 1.7962614429870884e-38
-49.808377 17.431273 71.707064 -0.945184 0.326539 0.000000 1.7962614429870884e-38
-49.952592 15.881100 71.491398 -0.952942 0.303153 0.000000 1.7962614429870884e-38
-50.241976 14.062971 71.045443 -0.960122 0.279583 0.000000 1.7962614429870884e-38
-42.387855 30.858374 72.706293 -0.809017 0.587785 0.000000 1.7962614429870884e-38
-43.009439 29.683122 73.250837 -0.823253 0.567675 0.000000 1.7962614429870884e-38
-43.463238 28.667851 73.416427 -0.836989 0.547220 0.000000 1.7962614429870884e-38
-44.550232 27.848151 72.623628 -0.850217 0.526432 0.000000 1.7962614429870884e-38
-45.480657 26.351675 73.424021 -0.862929 0.505325 0.000000 1.7962614429870884e-38
-46.019831 25.625184 72.997410 -0.875117 0.483911 0.000000 1.7962614429870884e-38
-46.633633 23.855346 72.447454 -0.886774 0.462204 0.000000 1.7962614429870884e-38
-47.211934 23.058392 72.756556 -0.897892 0.440216 0.000000 1.7962614429870884e-38
-47.621894 22.563199 73.468062 -0.908465 0.417960 0.000000 1.7962614429870884e-38
-48.196625 20.797704 73.200232 -0.918487 0.395451 0.000000 1.7962614429870884e-38
-48.626750 19.778530 73.090415 -0.927951 0.372702 0.000000 1.7962614429870884e-38
-49.140047 18.183593 73.112521 -0.936852 0.349727 0.000000 1.7962614429870884e-38
-42.576356 31.082323 74.521199 -0.809017 0.587785 0.000000 1.7962614429870884e-38
-43.144054 30.553293 74.052495 -0.823253 0.567675 0.000000 1.7962614429870884e-38
-44.027067 28.648213 74.505824 -0.836989 0.547220 0.000000 1.7962614429870884e-38
-45.109415 28.032505 74.005843 -0.850217 0.526432 0.000000 1.7962614429870884e-38
-45.271677 27.007376 73.760575 -0.862929 0.505325 0.000000 1.7962614429870884e-38
-46.548453 25.586777 74.265341 -0.875117 0.483911 0.000000 1.7962614429870884e-38
-46.846594 24.228803 73.970245 -0.886774 0.462204 0.000000 1.7962614429870884e-38
-47.245886 22.922935 74.336634 -0.897892 0.440216 0.000000 1.7962614429870884e-38
-48.075040 21.911945 74.591538 -0.908465 0.417960 0.000000 1.7962614429870884e-38
-48.144819 20.552790 73.964928 -0.918487 0.395451 0.000000 1.7962614429870884e-38
-44.146185 30.366735 75.906989 -0.823253 0.567675 0.000000 1.7962614429870884e-38
-44.876615 29.281109 75.968845 -0.836989 0.547220 0.000000 1.7962614429870884e-38
-45.561275 27.736546 75.209054 -0.850217 0.526432 0.000000 1.7962614429870884e-38
-45.403432 26.634618 75.327549 -0.862929 0.505325 0.000000 1.7962614429870884e-38
-46.214625 26.092964 75.445424 -0.875117 0.483911 0.000000 1.7962614429870884e-38
-47.099494 24.390270 75.661361 -0.886774 0.462204 0.000000 1.7962614429870884e-38
-44.125284 30.480627 76.178815 -0.823253 0.567675 0.000000 1.7962614429870884e-38
-44.498637 29.056786 76.188927 -0.836989 0.547220 0.000000 1.7962614429870884e-38
-44.884166 28.037716 76.422855 -0.850217 0.526432 0.000000 1.7962614429870884e-38
-45.788323 27.142197 76.170397 -0.862929 0.505325 0.000000 1.7962614429870884e-38
