# .PCD v0.7 - Point Cloud Data file format
VERSION 0.7
FIELDS x y z normal_x normal_y normal_z rgb
SIZE 4 4 4 4 4 4 4
TYPE F F F F F F F
COUNT 1 1 1 1 1 1 1
WIDTH 305
HEIGHT 1
VIEWPOINT 0 0 0 1 0 0 0
POINTS 305
DATA ascii
-10.327296 21.618037 94.103900 -0.319743 0.706411 0.631464 1.5197831540281055e-38
-10.283293 21.829891 94.521529 -0.337050 0.698319 0.631464 1.5197831540281055e-38
-10.970156 20.938626 94.267199 -0.354153 0.689803 0.631464 1.5197831540281055e-38
-11.060011 21.384644 94.161845 -0.371040 0.680869 0.631464 1.5197831540281055e-38
-11.360435 20.633826 94.500419 -0.387702 0.671520 0.631464 1.5197831540281055e-38
-12.815218 19.735197 93.667561 -0.404129 0.661765 0.631464 1.5197831540281055e-38
-13.138699 20.101891 93.740825 -0.420311 0.651607 0.631464 1.5197831540281055e-38
-13.419323 19.970167 94.126420 -0.436237 0.641054 0.631464 1.5197831540281055e-38
-9.218985 21.816611 95.329236 -0.296598 0.700739 0.648841 1.5197831540281055e-38
-9.469899 21.027949 95.383161 -0.313772 0.693219 0.648841 1.5197831540281055e-38
-9.912870 20.285527 95.126578 -0.330756 0.685278 0.648841 1.5197831540281055e-38
-10.345623 20.609769 95.689602 -0.347539 0.676921 0.648841 1.5197831540281055e-38
-11.088408 20.119595 95.059638 -0.364111 0.668153 0.648841 1.5197831540281055e-38
-11.114879 19.726511 95.081355 -0.380462 0.658980 0.648841 1.5197831540281055e-38
-11.909283 19.030060 95.420046 -0.396582 0.649406 0.648841 1.5197831540281055e-38
-12.498410 20.062439 95.072272 -0.412462 0.639438 0.648841 1.5197831540281055e-38
-12.955734 19.225862 95.492332 -0.428090 0.629082 0.648841 1.5197831540281055e-38
-8.830302 20.073107 96.028808 -0.296083 0.699524 0.650385 1.5197831540281055e-38
-8.805395 19.823948 96.486585 -0.313228 0.692017 0.650385 1.5197831540281055e-38
-9.986238 19.670589 96.423131 -0.330182 0.684090 0.650385 1.5197831540281055e-38
-10.255359 19.483281 96.375293 -0.346936 0.675748 0.650385 1.5197831540281055e-38
-10.355289 19.349949 96.169396 -0.363480 0.666995 0.650385 1.5197831540281055e-38
-10.880585 18.927777 96.867946 -0.379802 0.657837 0.650385 1.5197831540281055e-38
-11.122759 18.522234 96.367128 -0.395895 0.648280 0.650385 1.5197831540281055e-38
-11.785627 18.003737 96.202758 -0.411746 0.638330 0.650385 1.5197831540281055e-38
-12.419167 17.329292 96.197947 -0.427348 0.627991 0.650385 1.5197831540281055e-38
-12.819302 18.562588 96.301606 -0.442691 0.617272 0.650385 1.5197831540281055e-38
-7.911507 19.285866 97.764410 -0.283110 0.717637 0.636275 1.5197831540281055e-38
-8.211465 19.307801 97.499824 -0.300705 0.710444 0.636275 1.5197831540281055e-38
-8.843089 18.934086 97.800504 -0.318117 0.702820 0.636275 1.5197831540281055e-38
-8.639881 18.852319 97.944784 -0.335337 0.694769 0.636275 1.5197831540281055e-38
-9.595337 18.386305 97.541294 -0.352352 0.686296 0.636275 1.5197831540281055e-38
-9.889601 18.291988 97.761011 -0.369154 0.677407 0.636275 1.5197831540281055e-38
-10.451797 17.984976 98.229016 -0.385731 0.668106 0.636275 1.5197831540281055e-38
-10.748982 17.911320 97.872620 -0.402075 0.658400 0.636275 1.5197831540281055e-38
-11.317237 17.625120 97.738202 -0.418174 0.648294 0.636275 1.5197831540281055e-38
-12.066907 17.007024 98.330007 -0.434019 0.637794 0.636275 1.5197831540281055e-38
-11.761525 16.798284 97.934437 -0.449601 0.626908 0.636275 1.5197831540281055e-38
-7.665611 18.660255 99.162690 -0.292226 0.740744 0.604899 1.5197831540281055e-38
-8.028381 18.444897 98.629892 -0.310387 0.733319 0.604899 1.5197831540281055e-38
-8.381149 17.705675 98.831552 -0.328360 0.725449 0.604899 1.5197831540281055e-38
-8.436780 17.911341 98.724954 -0.346134 0.717139 0.604899 1.5197831540281055e-38
-8.985845 17.727570 99.255707 -0.363697 0.708394 0.604899 1.5197831540281055e-38
-9.366092 17.606115 98.988514 -0.381040 0.699218 0.604899 1.5197831540281055e-38
-10.143774 17.194661 99.333755 -0.398151 0.689618 0.604899 1.5197831540281055e-38
-9.938398 16.122580 99.157752 -0.415021 0.679599 0.604899 1.5197831540281055e-38
-10.880180 16.757845 98.559301 -0.431638 0.669168 0.604899 1.5197831540281055e-38
-11.267611 15.886959 98.839280 -0.447994 0.658330 0.604899 1.5197831540281055e-38
-11.356181 16.222323 99.612847 -0.464077 0.647093 0.604899 1.5197831540281055e-38
-12.085851 15.536155 99.384849 -0.479879 0.635463 0.604899 1.5197831540281055e-38
-6.954169 17.608564 99.943302 -0.286603 0.782432 0.552864 1.5197831540281055e-38
-6.860578 17.890875 99.439121 -0.305793 0.775133 0.552864 1.5197831540281055e-38
-7.864978 16.779921 99.929014 -0.324797 0.767364 0.552864 1.5197831540281055e-38
-7.809784 17.694126 99.789056 -0.343605 0.759129 0.552864 1.5197831540281055e-38
-7.529414 17.166099 100.348347 -0.362203 0.750433 0.552864 1.5197831540281055e-38
-8.451520 16.376012 100.001505 -0.380582 0.741282 0.552864 1.5197831540281055e-38
-9.385579 16.774559 99.905548 -0.398730 0.731680 0.552864 1.5197831540281055e-38
-9.551356 16.151558 100.604864 -0.416636 0.721634 0.552864 1.5197831540281055e-38
-10.071118 15.782815 100.320291 -0.434288 0.711150 0.552864 1.5197831540281055e-38
-10.302194 16.286224 100.268092 -0.451678 0.700235 0.552864 1.5197831540281055e-38
-10.589738 15.871360 100.314132 -0.468792 0.688894 0.552864 1.5197831540281055e-38
-10.816084 15.553469 100.077813 -0.485623 0.677135 0.552864 1.5197831540281055e-38
-11.789288 15.011695 99.574299 -0.502158 0.664965 0.552864 1.5197831540281055e-38
-6.698126 17.418362 101.640613 -0.302612 0.826137 0.475315 1.5197831540281055e-38
-5.739807 16.784917 101.708816 -0.322874 0.818430 0.475315 1.5197831540281055e-38
-7.258442 16.516472 102.188214 -0.342940 0.810227 0.475315 1.5197831540281055e-38
-8.065103 16.585170 102.009725 -0.362798 0.801532 0.475315 1.5197831540281055e-38
-8.316894 16.252568 101.758721 -0.382435 0.792350 0.475315 1.5197831540281055e-38
-8.615859 16.304173 101.248945 -0.401841 0.782688 0.475315 1.5197831540281055e-38
-8.249362 16.386786 101.342130 -0.421002 0.772550 0.475315 1.5197831540281055e-38
-9.902868 15.931608 101.792898 -0.439908 0.761943 0.475315 1.5197831540281055e-38
-9.268951 15.667460 101.565322 -0.458547 0.750873 0.475315 1.5197831540281055e-38
-9.908126 15.080302 101.495998 -0.476907 0.739348 0.475315 1.5197831540281055e-38
-10.252583 15.264460 101.224432 -0.494978 0.727374 0.475315 1.5197831540281055e-38
-10.681452 14.823301 101.248732 -0.512748 0.714958 0.475315 1.5197831540281055e-38
-11.333899 14.723501 101.082872 -0.530207 0.702108 0.475315 1.5197831540281055e-38
-5.685287 16.881076 102.858653 -0.298290 0.880961 0.367330 1.5197831540281055e-38
-6.210892 16.652478 102.631610 -0.319904 0.873344 0.367330 1.5197831540281055e-38
-6.674808 16.648805 102.727138 -0.341323 0.865197 0.367330 1.5197831540281055e-38
-6.702206 15.867339 102.524514 -0.362536 0.856525 0.367330 1.5197831540281055e-38
-7.006377 15.938633 102.613545 -0.383529 0.847334 0.367330 1.5197831540281055e-38
-7.963315 15.898356 102.356666 -0.404288 0.837627 0.367330 1.5197831540281055e-38
-7.923168 15.348277 102.617592 -0.424803 0.827412 0.367330 1.5197831540281055e-38
-7.943436 15.553210 102.576476 -0.445059 0.816695 0.367330 1.5197831540281055e-38
-8.536829 15.014391 102.384547 -0.465045 0.805482 0.367330 1.5197831540281055e-38
-9.275880 15.339761 102.993159 -0.484749 0.793780 0.367330 1.5197831540281055e-38
-9.682500 14.694581 102.806507 -0.504159 0.781596 0.367330 1.5197831540281055e-38
-9.166290 14.469119 103.095172 -0.523262 0.768938 0.367330 1.5197831540281055e-38
-10.175136 14.548181 102.984483 -0.542048 0.755812 0.367330 1.5197831540281055e-38
-10.546197 14.026829 102.618255 -0.560505 0.742228 0.367330 1.5197831540281055e-38
-5.266270 15.989108 103.587641 -0.312309 0.922364 0.227393 1.5197831540281055e-38
-5.676803 16.005580 103.565169 -0.334939 0.914390 0.227393 1.5197831540281055e-38
-6.250335 16.023548 103.860571 -0.357365 0.905860 0.227393 1.5197831540281055e-38
-6.227313 16.399842 104.205460 -0.379575 0.896781 0.227393 1.5197831540281055e-38
-6.962727 16.081511 103.964861 -0.401554 0.887157 0.227393 1.5197831540281055e-38
-7.533556 15.312924 103.682855 -0.423289 0.876994 0.227393 1.5197831540281055e-38
-7.576338 14.848573 103.739239 -0.444768 0.866299 0.227393 1.5197831540281055e-38
-8.335403 14.678750 103.800105 -0.465976 0.855078 0.227393 1.5197831540281055e-38
-8.570719 15.201814 103.765718 -0.486902 0.843338 0.227393 1.5197831540281055e-38
-8.932968 14.228989 103.552579 -0.507531 0.831086 0.227393 1.5197831540281055e-38
-9.893145 14.745640 103.819167 -0.527853 0.818330 0.227393 1.5197831540281055e-38
-9.609007 14.374965 104.160068 -0.547855 0.805076 0.227393 1.5197831540281055e-38
-9.421045 13.962827 103.704064 -0.567523 0.791334 0.227393 1.5197831540281055e-38
-10.154418 14.432919 103.755773 -0.586848 0.777112 0.227393 1.5197831540281055e-38
-5.223223 16.555860 105.558234 -0.296697 0.952929 0.062422 1.5197831540281055e-38
-5.210542 16.998179 105.379316 -0.320085 0.945330 0.062422 1.5197831540281055e-38
-5.507716 16.168095 105.115761 -0.343278 0.937157 0.062422 1.5197831540281055e-38
-6.596572 15.596078 104.926965 -0.366263 0.928415 0.062422 1.5197831540281055e-38
-6.994462 15.582231 105.155609 -0.389026 0.919110 0.062422 1.5197831540281055e-38
-6.658393 15.138515 105.422214 -0.411552 0.909246 0.062422 1.5197831540281055e-38
-7.315110 15.435479 105.125781 -0.433829 0.898830 0.062422 1.5197831540281055e-38
-7.143248 14.899791 104.987134 -0.455842 0.887869 0.062422 1.5197831540281055e-38
-8.106045 15.058293 105.222113 -0.477578 0.876369 0.062422 1.5197831540281055e-38
-8.521948 14.892425 105.335124 -0.499025 0.864337 0.062422 1.5197831540281055e-38
-8.878987 15.071458 105.287129 -0.520168 0.851779 0.062422 1.5197831540281055e-38
-9.305123 14.670594 104.545857 -0.540996 0.838705 0.062422 1.5197831540281055e-38
-9.909480 14.004819 104.801261 -0.561496 0.825122 0.062422 1.5197831540281055e-38
-9.674567 14.056681 105.643971 -0.581654 0.811038 0.062422 1.5197831540281055e-38
-10.426471 13.747661 105.538561 -0.601459 0.796461 0.062422 1.5197831540281055e-38
-5.306235 16.164925 106.232759 -0.296444 0.952118 -0.074785 1.5197831540281055e-38
-5.450719 16.095642 106.737869 -0.319812 0.944525 -0.074785 1.5197831540281055e-38
-6.085900 15.490000 106.243777 -0.342986 0.936359 -0.074785 1.5197831540281055e-38
-6.433534 16.283576 106.645369 -0.365951 0.927624 -0.074785 1.5197831540281055e-38
-6.248602 15.971576 105.800060 -0.388694 0.918327 -0.074785 1.5197831540281055e-38
-7.278094 15.064915 106.861884 -0.411202 0.908472 -0.074785 1.5197831540281055e-38
-7.150432 15.456267 106.221133 -0.433459 0.898065 -0.074785 1.5197831540281055e-38
-7.914792 14.891709 106.586714 -0.455454 0.887113 -0.074785 1.5197831540281055e-38
-8.117837 15.161655 106.517331 -0.477172 0.875622 -0.074785 1.5197831540281055e-38
-8.267218 14.903174 106.722382 -0.498600 0.863600 -0.074785 1.5197831540281055e-38
-8.653732 14.379667 106.538530 -0.519725 0.851054 -0.074785 1.5197831540281055e-38
-9.138257 14.253704 106.386574 -0.540535 0.837991 -0.074785 1.5197831540281055e-38
-9.278768 14.241358 106.670937 -0.561017 0.824419 -0.074785 1.5197831540281055e-38
-9.912728 14.183713 106.623803 -0.581159 0.810347 -0.074785 1.5197831540281055e-38
-10.504591 13.482645 106.136841 -0.600947 0.795783 -0.074785 1.5197831540281055e-38
-4.494641 16.671048 107.422105 -0.269005 0.945456 -0.183708 1.5197831540281055e-38
-4.856074 16.364757 107.582415 -0.292217 0.938542 -0.183708 1.5197831540281055e-38
-5.283476 16.552403 107.732634 -0.315252 0.931057 -0.183708 1.5197831540281055e-38
-5.351957 15.581354 107.918561 -0.338095 0.923008 -0.183708 1.5197831540281055e-38
-6.609185 15.988126 107.636219 -0.360733 0.914398 -0.183708 1.5197831540281055e-38
-6.716357 15.562114 107.224045 -0.383152 0.905233 -0.183708 1.5197831540281055e-38
-7.663774 15.603201 107.671967 -0.405338 0.895518 -0.183708 1.5197831540281055e-38
-7.292387 15.834561 107.883546 -0.427279 0.885260 -0.183708 1.5197831540281055e-38
-7.553491 14.997130 107.962726 -0.448959 0.874464 -0.183708 1.5197831540281055e-38
-8.112054 14.709454 107.952714 -0.470368 0.863137 -0.183708 1.5197831540281055e-38
-8.858396 14.581164 108.094230 -0.491490 0.851286 -0.183708 1.5197831540281055e-38
-8.886226 14.362770 107.470044 -0.512315 0.838919 -0.183708 1.5197831540281055e-38
-8.999474 14.090081 107.588852 -0.532828 0.826042 -0.183708 1.5197831540281055e-38
-9.712701 15.033016 107.194000 -0.553018 0.812664 -0.183708 1.5197831540281055e-38
-10.442234 13.803486 107.439229 -0.572872 0.798792 -0.183708 1.5197831540281055e-38
-10.348085 13.580996 107.885272 -0.592378 0.784436 -0.183708 1.5197831540281055e-38
-4.948022 16.995555 109.375747 -0.263166 0.924932 -0.274309 1.5197831540281055e-38
-5.016659 16.447908 108.885852 -0.285874 0.918167 -0.274309 1.5197831540281055e-38
-5.380001 16.614479 109.094974 -0.308408 0.910845 -0.274309 1.5197831540281055e-38
-6.200315 16.355204 108.968340 -0.330756 0.902970 -0.274309 1.5197831540281055e-38
-6.300628 16.076658 108.131075 -0.352902 0.894547 -0.274309 1.5197831540281055e-38
-7.680345 16.089450 108.920895 -0.374834 0.885581 -0.274309 1.5197831540281055e-38
-7.272812 15.941209 109.346295 -0.396539 0.876077 -0.274309 1.5197831540281055e-38
-7.749945 15.857692 109.371146 -0.418003 0.866042 -0.274309 1.5197831540281055e-38
-8.297578 16.087230 109.157317 -0.439213 0.855480 -0.274309 1.5197831540281055e-38
-8.460600 14.594141 109.283162 -0.460157 0.844399 -0.274309 1.5197831540281055e-38
-8.212210 14.935419 109.415912 -0.480821 0.832806 -0.274309 1.5197831540281055e-38
-9.620909 15.011310 108.812702 -0.501193 0.820707 -0.274309 1.5197831540281055e-38
-9.879803 14.619766 108.856725 -0.521261 0.808110 -0.274309 1.5197831540281055e-38
-10.194727 14.659304 108.661487 -0.541013 0.795022 -0.274309 1.5197831540281055e-38
-10.298777 14.644053 108.669642 -0.560436 0.781451 -0.274309 1.5197831540281055e-38
-11.216521 13.879124 108.898670 -0.579519 0.767407 -0.274309 1.5197831540281055e-38
-4.107430 17.238672 110.296655 -0.234889 0.910177 -0.341182 1.5197831540281055e-38
-5.358573 16.926587 110.047659 -0.257243 0.904114 -0.341182 1.5197831540281055e-38
-5.439438 17.830639 110.407866 -0.279439 0.897501 -0.341182 1.5197831540281055e-38
-5.440685 16.893757 109.685189 -0.301467 0.890344 -0.341182 1.5197831540281055e-38
-5.651263 16.312246 109.938029 -0.323311 0.882647 -0.341182 1.5197831540281055e-38
-6.393224 17.424314 110.625230 -0.344959 0.874413 -0.341182 1.5197831540281055e-38
-6.786382 17.119711 109.954960 -0.366398 0.865649 -0.341182 1.5197831540281055e-38
-7.241800 16.735901 109.682343 -0.387614 0.856359 -0.341182 1.5197831540281055e-38
-7.663499 16.244182 110.226333 -0.408595 0.846549 -0.341182 1.5197831540281055e-38
-8.483959 16.045833 110.191440 -0.429327 0.836225 -0.341182 1.5197831540281055e-38
-8.725446 15.942889 110.508280 -0.449800 0.825394 -0.341182 1.5197831540281055e-38
-9.155946 15.641733 110.517336 -0.469999 0.814062 -0.341182 1.5197831540281055e-38
-8.904198 15.221629 110.424733 -0.489912 0.802235 -0.341182 1.5197831540281055e-38
-9.770190 15.279024 109.881377 -0.509529 0.789921 -0.341182 1.5197831540281055e-38
-10.521284 14.950091 110.366996 -0.528836 0.777128 -0.341182 1.5197831540281055e-38
-10.214239 14.292608 109.361180 -0.547822 0.763863 -0.341182 1.5197831540281055e-38
-10.519060 14.714124 109.534677 -0.566475 0.750134 -0.341182 1.5197831540281055e-38
-4.704761 17.677603 111.370848 -0.230847 0.894515 -0.382823 1.5197831540281055e-38
-5.050303 17.617767 111.376774 -0.252816 0.888556 -0.382823 1.5197831540281055e-38
-5.734415 16.895785 111.337619 -0.274631 0.882057 -0.382823 1.5197831540281055e-38
-6.098917 17.539597 111.174622 -0.296279 0.875023 -0.382823 1.5197831540281055e-38
-6.888995 17.216787 111.655670 -0.317748 0.867458 -0.382823 1.5197831540281055e-38
-6.648927 16.665634 111.152583 -0.339023 0.859366 -0.382823 1.5197831540281055e-38
-7.310838 16.865325 111.164108 -0.360093 0.850753 -0.382823 1.5197831540281055e-38
-8.103391 16.697658 111.769905 -0.380944 0.841623 -0.382823 1.5197831540281055e-38
-8.182681 16.174084 111.767587 -0.401564 0.831982 -0.382823 1.5197831540281055e-38
-7.815614 16.223045 111.411509 -0.421940 0.821836 -0.382823 1.5197831540281055e-38
-8.725834 16.400290 111.005105 -0.442059 0.811191 -0.382823 1.5197831540281055e-38
-9.195839 15.585145 111.443801 -0.461911 0.800053 -0.382823 1.5197831540281055e-38
-9.122216 15.780969 111.085222 -0.481482 0.788430 -0.382823 1.5197831540281055e-38
-9.660849 15.256960 111.482242 -0.500761 0.776328 -0.382823 1.5197831540281055e-38
-10.569875 14.791655 111.112280 -0.519735 0.763755 -0.382823 1.5197831540281055e-38
-11.518831 14.605785 111.982603 -0.538395 0.750718 -0.382823 1.5197831540281055e-38
-11.918401 14.191363 111.862698 -0.556727 0.737226 -0.382823 1.5197831540281055e-38
-5.412238 18.466559 112.484612 -0.229073 0.887641 -0.399523 1.5197831540281055e-38
-4.820606 18.470100 112.281461 -0.250873 0.881728 -0.399523 1.5197831540281055e-38
-5.162474 17.482993 112.716780 -0.272521 0.875279 -0.399523 1.5197831540281055e-38
-5.634968 17.599684 113.210909 -0.294002 0.868299 -0.399523 1.5197831540281055e-38
-6.452990 17.861399 112.929671 -0.315306 0.860792 -0.399523 1.5197831540281055e-38
-6.811519 17.186545 111.612362 -0.336418 0.852763 -0.399523 1.5197831540281055e-38
-7.660865 17.141565 112.292800 -0.357326 0.844215 -0.399523 1.5197831540281055e-38
-7.984490 16.366651 112.219800 -0.378017 0.835155 -0.399523 1.5197831540281055e-38
-8.052743 17.336318 112.358717 -0.398478 0.825589 -0.399523 1.5197831540281055e-38
-8.426348 16.039252 112.658355 -0.418697 0.815520 -0.399523 1.5197831540281055e-38
-8.689836 16.752959 112.569365 -0.438663 0.804957 -0.399523 1.5197831540281055e-38
-10.216557 16.937504 113.159606 -0.458361 0.793905 -0.399523 1.5197831540281055e-38
-9.641623 16.532105 112.577942 -0.477782 0.782372 -0.399523 1.5197831540281055e-38
-10.017967 16.136682 112.558292 -0.496913 0.770363 -0.399523 1.5197831540281055e-38
-10.882661 15.890168 113.140929 -0.515742 0.757886 -0.399523 1.5197831540281055e-38
-10.643836 15.463156 112.656465 -0.534258 0.744950 -0.399523 1.5197831540281055e-38
-11.295138 14.399323 112.545395 -0.552449 0.731561 -0.399523 1.5197831540281055e-38
-5.888584 18.901027 114.058688 -0.251798 0.884978 -0.391678 1.5197831540281055e-38
-6.044786 18.648720 113.550193 -0.273525 0.878506 -0.391678 1.5197831540281055e-38
-6.152975 18.338743 113.807908 -0.295086 0.871500 -0.391678 1.5197831540281055e-38
-6.868351 18.072301 113.575479 -0.316468 0.863965 -0.391678 1.5197831540281055e-38
-6.947860 18.576268 114.490698 -0.337658 0.855906 -0.391678 1.5197831540281055e-38
-7.303253 17.893268 114.107023 -0.358643 0.847327 -0.391678 1.5197831540281055e-38
-7.916813 17.600201 114.400174 -0.379410 0.838234 -0.391678 1.5197831540281055e-38
-8.162001 17.278334 114.098331 -0.399947 0.828632 -0.391678 1.5197831540281055e-38
-8.710179 17.007380 113.832600 -0.420241 0.818527 -0.391678 1.5197831540281055e-38
-9.322953 16.286163 113.387951 -0.440280 0.807925 -0.391678 1.5197831540281055e-38
-9.395601 16.616320 113.989009 -0.460051 0.796832 -0.391678 1.5197831540281055e-38
-9.752463 15.968056 114.297143 -0.479543 0.785256 -0.391678 1.5197831540281055e-38
-10.588947 16.451216 114.395530 -0.498745 0.773203 -0.391678 1.5197831540281055e-38
-10.647264 16.017365 113.654144 -0.517643 0.760680 -0.391678 1.5197831540281055e-38
-11.463782 15.626811 114.193089 -0.536227 0.747696 -0.391678 1.5197831540281055e-38
-11.552694 15.575516 113.748658 -0.554486 0.734258 -0.391678 1.5197831540281055e-38
-5.074734 18.789078 115.156830 -0.255411 0.897678 -0.359081 1.5197831540281055e-38
-5.782669 19.018880 115.342609 -0.277450 0.891113 -0.359081 1.5197831540281055e-38
-6.383063 18.989677 114.839758 -0.299321 0.884007 -0.359081 1.5197831540281055e-38
-7.158977 18.419643 114.867640 -0.321010 0.876364 -0.359081 1.5197831540281055e-38
-7.703160 19.112237 114.959137 -0.342504 0.868189 -0.359081 1.5197831540281055e-38
-7.776380 18.021654 115.664864 -0.363790 0.859487 -0.359081 1.5197831540281055e-38
-8.300215 17.992131 114.902428 -0.384855 0.850263 -0.359081 1.5197831540281055e-38
-8.732219 17.869607 114.647761 -0.405686 0.840523 -0.359081 1.5197831540281055e-38
-8.850736 17.407558 115.294378 -0.426271 0.830273 -0.359081 1.5197831540281055e-38
-9.942257 17.563887 114.744237 -0.446598 0.819519 -0.359081 1.5197831540281055e-38
-10.190032 17.415795 115.405835 -0.466653 0.808267 -0.359081 1.5197831540281055e-38
-9.847431 17.132488 115.049911 -0.486425 0.796525 -0.359081 1.5197831540281055e-38
-11.099376 16.222497 115.237647 -0.505902 0.784298 -0.359081 1.5197831540281055e-38
-11.296024 16.490597 114.932090 -0.525071 0.771596 -0.359081 1.5197831540281055e-38
-11.838188 16.409440 115.563027 -0.543922 0.758426 -0.359081 1.5197831540281055e-38
-12.378530 15.352964 114.981058 -0.562443 0.744795 -0.359081 1.5197831540281055e-38
-6.181018 19.669662 116.311914 -0.283466 0.910434 -0.301258 1.5197831540281055e-38
-6.536623 19.760184 116.320054 -0.305811 0.903174 -0.301258 1.5197831540281055e-38
-7.416066 19.443241 116.351513 -0.327970 0.895365 -0.301258 1.5197831540281055e-38
-7.560577 18.670771 116.667020 -0.349930 0.887013 -0.301258 1.5197831540281055e-38
-7.436534 18.565825 116.377935 -0.371677 0.878123 -0.301258 1.5197831540281055e-38
-8.271894 18.043076 116.275551 -0.393199 0.868699 -0.301258 1.5197831540281055e-38
-9.380827 18.347980 116.967564 -0.414482 0.858748 -0.301258 1.5197831540281055e-38
-9.742703 18.692515 116.821574 -0.435514 0.848275 -0.301258 1.5197831540281055e-38
-9.753474 18.049357 116.203636 -0.456281 0.837288 -0.301258 1.5197831540281055e-38
-10.323877 17.710118 116.056237 -0.476771 0.825792 -0.301258 1.5197831540281055e-38
-10.479528 17.405164 115.968457 -0.496972 0.813795 -0.301258 1.5197831540281055e-38
-10.833888 17.346460 116.625562 -0.516871 0.801304 -0.301258 1.5197831540281055e-38
-11.609238 17.157068 116.938667 -0.536456 0.788326 -0.301258 1.5197831540281055e-38
-11.868046 16.596400 116.492260 -0.555716 0.774870 -0.301258 1.5197831540281055e-38
-12.931065 15.853317 116.123440 -0.574638 0.760943 -0.301258 1.5197831540281055e-38
-6.818647 19.982361 118.018092 -0.312938 0.924222 -0.218821 1.5197831540281055e-38
-7.304034 19.406763 117.940668 -0.335613 0.916232 -0.218821 1.5197831540281055e-38
-7.381590 19.093733 117.169682 -0.358085 0.907685 -0.218821 1.5197831540281055e-38
-8.277640 19.324057 117.069962 -0.380339 0.898587 -0.218821 1.5197831540281055e-38
-8.489326 18.754608 117.298076 -0.402363 0.888944 -0.218821 1.5197831540281055e-38
-9.158754 18.910652 117.677445 -0.424142 0.878761 -0.218821 1.5197831540281055e-38
-9.159098 18.176570 117.014084 -0.445664 0.868044 -0.218821 1.5197831540281055e-38
-9.865638 18.177862 117.370519 -0.466915 0.856801 -0.218821 1.5197831540281055e-38
-10.959953 18.190548 116.632262 -0.487882 0.845037 -0.218821 1.5197831540281055e-38
-10.591515 17.871126 117.698533 -0.508554 0.832761 -0.218821 1.5197831540281055e-38
-11.257217 16.717465 117.035457 -0.528917 0.819978 -0.218821 1.5197831540281055e-38
-11.913737 17.672210 117.803602 -0.548958 0.806698 -0.218821 1.5197831540281055e-38
-12.136235 16.641080 117.556657 -0.568667 0.792928 -0.218821 1.5197831540281055e-38
-12.238886 16.612726 117.099622 -0.588030 0.778677 -0.218821 1.5197831540281055e-38
-6.937040 19.634111 117.942336 -0.318562 0.940832 -0.115560 1.5197831540281055e-38
-7.351232 19.628719 118.990989 -0.341645 0.932698 -0.115560 1.5197831540281055e-38
-7.956257 19.317323 118.709994 -0.364520 0.923997 -0.115560 1.5197831540281055e-38
-7.927638 19.326327 118.875232 -0.387174 0.914736 -0.115560 1.5197831540281055e-38
-8.364986 19.216382 118.582048 -0.409594 0.904919 -0.115560 1.5197831540281055e-38
-8.583611 18.276560 119.032379 -0.431764 0.894553 -0.115560 1.5197831540281055e-38
-9.426310 18.990541 118.692938 -0.453673 0.883644 -0.115560 1.5197831540281055e-38
-10.162987 18.045532 118.443842 -0.475306 0.872199 -0.115560 1.5197831540281055e-38
-10.513901 17.871201 118.549455 -0.496650 0.860223 -0.115560 1.5197831540281055e-38
-11.225220 18.170703 118.546108 -0.517693 0.847726 -0.115560 1.5197831540281055e-38
-11.223360 17.548529 118.866992 -0.538422 0.834714 -0.115560 1.5197831540281055e-38
-11.852411 17.534026 118.946949 -0.558824 0.821195 -0.115560 1.5197831540281055e-38
-11.833590 16.807975 118.508854 -0.578886 0.807178 -0.115560 1.5197831540281055e-38
-12.728343 16.734620 118.920973 -0.598597 0.792671 -0.115560 1.5197831540281055e-38
-7.558022 19.937599 120.153705 -0.343949 0.938988 -0.000286 1.5197831540281055e-38
-7.719554 19.841331 119.977680 -0.366979 0.930229 -0.000286 1.5197831540281055e-38
-7.850206 19.781799 120.324765 -0.389786 0.920905 -0.000286 1.5197831540281055e-38
-8.536343 18.828570 120.133037 -0.412356 0.911023 -0.000286 1.5197831540281055e-38
-9.270412 19.128370 120.484589 -0.434676 0.900587 -0.000286 1.5197831540281055e-38
-9.618433 18.345768 120.210417 -0.456733 0.889604 -0.000286 1.5197831540281055e-38
-10.051242 18.900612 120.016236 -0.478512 0.878081 -0.000286 1.5197831540281055e-38
-10.521088 18.215301 120.092411 -0.500000 0.866025 -0.000286 1.5197831540281055e-38
-11.539380 17.678837 120.332107 -0.521185 0.853444 -0.000286 1.5197831540281055e-38
-11.578740 17.638496 119.931259 -0.542053 0.840344 -0.000286 1.5197831540281055e-38
-12.020500 17.313095 119.693487 -0.562593 0.826734 -0.000286 1.5197831540281055e-38
-12.682886 17.126887 120.483528 -0.582791 0.812622 -0.000286 1.5197831540281055e-38
-12.431184 16.988771 120.316302 -0.602635 0.798017 -0.000286 1.5197831540281055e-38
