# .PCD v0.7 - Point Cloud Data file format
VERSION 0.7
FIELDS x y z normal_x normal_y normal_z rgb
SIZE 4 4 4 4 4 4 4
TYPE F F F F F F F
COUNT 1 1 1 1 1 1 1
WIDTH 184
HEIGHT 1
VIEWPOINT 0 0 0 1 0 0 0
POINTS 184
DATA ascii
-8.146281 52.953774 83.158193 -0.153392 0.988165 0.000000 1.6580765988230895e-38
-9.670338 53.532367 83.140514 -0.177691 0.984086 0.000000 1.6580765988230895e-38
-9.828941 53.532690 82.526076 -0.201882 0.979410 0.000000 1.6580765988230895e-38
-5.863861 53.854971 83.917720 -0.104528 0.994522 0.000000 1.6580765988230895e-38
-7.418277 53.871457 84.069863 -0.128999 0.991645 0.000000 1.6580765988230895e-38
-8.073264 53.926177 84.497848 -0.153392 0.988165 0.000000 1.6580765988230895e-38
-9.637702 53.288535 84.645920 -0.177691 0.984086 0.000000 1.6580765988230895e-38
-11.083625 52.843649 84.189797 -0.201882 0.979410 0.000000 1.6580765988230895e-38
-12.775037 52.995043 83.981122 -0.225951 0.974139 0.000000 1.6580765988230895e-38
-3.616343 54.715868 84.811298 -0.055411 0.998464 0.000000 1.6580765988230895e-38
-3.876824 54.644180 84.807609 -0.079994 0.996795 0.000000 1.6580765988230895e-38
-5.823671 54.417678 84.764757 -0.104528 0.994522 0.000000 1.6580765988230895e-38
-7.059220 54.309813 84.740269 -0.128999 0.991645 0.000000 1.6580765988230895e-38
-8.154679 53.937872 85.635868 -0.153392 0.988165 0.000000 1.6580765988230895e-38
-9.776131 53.435358 85.014411 -0.177691 0.984086 0.000000 1.6580765988230895e-38
-11.120791 53.440417 85.680042 -0.201882 0.979410 0.000000 1.6580765988230895e-38
-12.425637 52.741023 85.223477 -0.225951 0.974139 0.000000 1.6580765988230895e-38
-14.106295 52.993878 85.534786 -0.249883 0.968276 0.000000 1.6580765988230895e-38
-0.409807 55.170556 86.646423 -0.006160 0.999981 0.000000 1.6580765988230895e-38
-1.908552 54.738179 87.108864 -0.030795 0.999526 0.000000 1.6580765988230895e-38
-2.820626 54.574322 86.879137 -0.055411 0.998464 0.000000 1.6580765988230895e-38
-4.170353 54.541924 86.373954 -0.079994 0.996795 0.000000 1.6580765988230895e-38
-6.062647 54.017021 86.401660 -0.104528 0.994522 0.000000 1.6580765988230895e-38
-7.123827 54.730650 86.845220 -0.128999 0.991645 0.000000 1.6580765988230895e-38
-8.348530 53.599762 86.686519 -0.153392 0.988165 0.000000 1.6580765988230895e-38
-10.232975 54.200284 86.868380 -0.177691 0.984086 0.000000 1.6580765988230895e-38
-11.050018 53.927054 86.902200 -0.201882 0.979410 0.000000 1.6580765988230895e-38
-12.351646 53.349617 86.199315 -0.225951 0.974139 0.000000 1.6580765988230895e-38
-13.802747 52.772776 86.295941 -0.249883 0.968276 0.000000 1.6580765988230895e-38
2.527989 54.600407 87.571480 0.043107 0.999070 0.000000 1.6580765988230895e-38
1.141063 54.749410 87.729286 0.018479 0.999829 0.000000 1.6580765988230895e-38
-0.333991 54.980745 87.544748 -0.006160 0.999981 0.000000 1.6580765988230895e-38
-1.594890 54.693015 88.330245 -0.030795 0.999526 0.000000 1.6580765988230895e-38
-3.167738 55.092239 88.054995 -0.055411 0.998464 0.000000 1.6580765988230895e-38
-4.505695 54.528000 88.053950 -0.079994 0.996795 0.000000 1.6580765988230895e-38
-6.175256 54.312163 88.017146 -0.104528 0.994522 0.000000 1.6580765988230895e-38
-7.154464 54.322802 87.685450 -0.128999 0.991645 0.000000 1.6580765988230895e-38
-8.674325 54.997875 88.140569 -0.153392 0.988165 0.000000 1.6580765988230895e-38
-10.019296 54.025408 88.014096 -0.177691 0.984086 0.000000 1.6580765988230895e-38
-11.395136 53.694400 87.745616 -0.201882 0.979410 0.000000 1.6580765988230895e-38
-12.690462 53.901054 87.620744 -0.225951 0.974139 0.000000 1.6580765988230895e-38
-13.777087 53.284729 88.310895 -0.249883 0.968276 0.000000 1.6580765988230895e-38
-15.075812 53.536076 87.726243 -0.273663 0.961826 0.000000 1.6580765988230895e-38
4.584396 54.652283 88.865994 0.092268 0.995734 0.000000 1.6580765988230895e-38
3.771680 54.707452 89.043535 0.067708 0.997705 0.000000 1.6580765988230895e-38
2.185205 55.080976 88.839766 0.043107 0.999070 0.000000 1.6580765988230895e-38
0.716064 55.249030 89.406059 0.018479 0.999829 0.000000 1.6580765988230895e-38
-0.095834 55.505690 89.441175 -0.006160 0.999981 0.000000 1.6580765988230895e-38
-1.747223 55.708036 89.299002 -0.030795 0.999526 0.000000 1.6580765988230895e-38
-3.342173 54.887561 89.117433 -0.055411 0.998464 0.000000 1.6580765988230895e-38
-4.149357 54.927461 88.780841 -0.079994 0.996795 0.000000 1.6580765988230895e-38
-5.529997 54.535621 89.163331 -0.104528 0.994522 0.000000 1.6580765988230895e-38
-7.104320 54.309206 89.605353 -0.128999 0.991645 0.000000 1.6580765988230895e-38
-8.458048 54.164191 89.086730 -0.153392 0.988165 0.000000 1.6580765988230895e-38
-10.322767 54.403252 89.330493 -0.177691 0.984086 0.000000 1.6580765988230895e-38
-10.327878 54.066262 88.874487 -0.201882 0.979410 0.000000 1.6580765988230895e-38
-12.404381 54.178184 89.222437 -0.225951 0.974139 0.000000 1.6580765988230895e-38
-13.536973 53.650641 89.224064 -0.249883 0.968276 0.000000 1.6580765988230895e-38
-15.519341 52.629845 88.598371 -0.273663 0.961826 0.000000 1.6580765988230895e-38
-16.760882 52.353924 89.630082 -0.297277 0.954791 0.000000 1.6580765988230895e-38
6.538473 55.198304 90.462745 0.116773 0.993159 0.000000 1.6580765988230895e-38
5.552124 55.463802 90.326818 0.092268 0.995734 0.000000 1.6580765988230895e-38
3.794837 55.286429 89.849134 0.067708 0.997705 0.000000 1.6580765988230895e-38
2.661778 55.470224 89.812016 0.043107 0.999070 0.000000 1.6580765988230895e-38
1.487601 55.208177 90.272009 0.018479 0.999829 0.000000 1.6580765988230895e-38
-0.383946 55.293455 91.027684 -0.006160 0.999981 0.000000 1.6580765988230895e-38
-1.782726 55.222485 90.315120 -0.030795 0.999526 0.000000 1.6580765988230895e-38
-3.321323 55.348587 90.062929 -0.055411 0.998464 0.000000 1.6580765988230895e-38
-4.277130 54.855814 90.133122 -0.079994 0.996795 0.000000 1.6580765988230895e-38
-6.086719 54.883258 89.773294 -0.104528 0.994522 0.000000 1.6580765988230895e-38
-7.873168 54.787012 89.848480 -0.128999 0.991645 0.000000 1.6580765988230895e-38
-7.969475 54.583373 90.521854 -0.153392 0.988165 0.000000 1.6580765988230895e-38
-9.741765 54.146504 90.183085 -0.177691 0.984086 0.000000 1.6580765988230895e-38
-10.951196 54.409132 90.569191 -0.201882 0.979410 0.000000 1.6580765988230895e-38
-12.702451 54.089980 90.127814 -0.225951 0.974139 0.000000 1.6580765988230895e-38
-13.526776 53.884271 89.897065 -0.249883 0.968276 0.000000 1.6580765988230895e-38
-15.063383 52.904651 90.557638 -0.273663 0.961826 0.000000 1.6580765988230895e-38
-16.791578 52.940718 90.530898 -0.297277 0.954791 0.000000 1.6580765988230895e-38
-17.729872 52.681031 90.397243 -0.320710 0.947177 0.000000 1.6580765988230895e-38
6.429005 54.792053 91.947374 0.116773 0.993159 0.000000 1.6580765988230895e-38
4.912550 55.291215 91.682588 0.092268 0.995734 0.000000 1.6580765988230895e-38
3.380083 55.132790 91.357388 0.067708 0.997705 0.000000 1.6580765988230895e-38
2.627745 56.011460 92.103172 0.043107 0.999070 0.000000 1.6580765988230895e-38
1.407823 55.132118 91.283460 0.018479 0.999829 0.000000 1.6580765988230895e-38
0.074278 55.970211 91.785106 -0.006160 0.999981 0.000000 1.6580765988230895e-38
-1.467805 55.358550 92.061233 -0.030795 0.999526 0.000000 1.6580765988230895e-38
-3.295403 54.945147 91.786780 -0.055411 0.998464 0.000000 1.6580765988230895e-38
-4.615603 54.946125 91.809793 -0.079994 0.996795 0.000000 1.6580765988230895e-38
-6.351235 55.345787 91.412406 -0.104528 0.994522 0.000000 1.6580765988230895e-38
-6.680802 55.186953 91.868543 -0.128999 0.991645 0.000000 1.6580765988230895e-38
-8.840636 54.348401 91.437705 -0.153392 0.988165 0.000000 1.6580765988230895e-38
-9.680748 54.651558 91.891622 -0.177691 0.984086 0.000000 1.6580765988230895e-38
-11.043291 54.055732 91.685785 -0.201882 0.979410 0.000000 1.6580765988230895e-38
-12.491787 54.459186 91.268583 -0.225951 0.974139 0.000000 1.6580765988230895e-38
-14.070877 53.871559 91.970528 -0.249883 0.968276 0.000000 1.6580765988230895e-38
-15.251819 53.573361 91.556958 -0.273663 0.961826 0.000000 1.6580765988230895e-38
-16.515640 53.349468 91.579350 -0.297277 0.954791 0.000000 1.6580765988230895e-38
-17.936547 52.430717 91.454266 -0.320710 0.947177 0.000000 1.6580765988230895e-38
-19.301455 52.055247 91.564045 -0.343949 0.938988 0.000000 1.6580765988230895e-38
6.545896 54.683808 92.662492 0.116773 0.993159 0.000000 1.6580765988230895e-38
4.107978 55.569205 92.934970 0.092268 0.995734 0.000000 1.6580765988230895e-38
3.705935 55.902074 93.022154 0.067708 0.997705 0.000000 1.6580765988230895e-38
2.162555 55.360363 93.048596 0.043107 0.999070 0.000000 1.6580765988230895e-38
1.234249 55.585124 92.255645 0.018479 0.999829 0.000000 1.6580765988230895e-38
-0.064177 55.694316 92.766121 -0.006160 0.999981 0.000000 1.6580765988230895e-38
-2.566274 55.808783 92.765194 -0.030795 0.999526 0.000000 1.6580765988230895e-38
-3.247101 55.338849 92.816760 -0.055411 0.998464 0.000000 1.6580765988230895e-38
-4.313318 55.382285 92.951298 -0.079994 0.996795 0.000000 1.6580765988230895e-38
-6.165348 55.174649 92.989388 -0.104528 0.994522 0.000000 1.6580765988230895e-38
-7.303415 55.725203 92.866588 -0.128999 0.991645 0.000000 1.6580765988230895e-38
-8.890539 54.545749 93.018825 -0.153392 0.988165 0.000000 1.6580765988230895e-38
-10.075152 55.064376 92.621423 -0.177691 0.984086 0.000000 1.6580765988230895e-38
-11.167279 54.428350 92.860148 -0.201882 0.979410 0.000000 1.6580765988230895e-38
-12.361111 54.241244 92.981806 -0.225951 0.974139 0.000000 1.6580765988230895e-38
-14.421908 54.033790 92.790409 -0.249883 0.968276 0.000000 1.6580765988230895e-38
-15.314916 52.832645 92.282917 -0.273663 0.961826 0.000000 1.6580765988230895e-38
-16.482786 53.264390 92.906311 -0.297277 0.954791 0.000000 1.6580765988230895e-38
-17.857823 52.374856 92.475092 -0.320710 0.947177 0.000000 1.6580765988230895e-38
-19.782217 52.315887 93.355209 -0.343949 0.938988 0.000000 1.6580765988230895e-38
-20.459240 51.562769 92.791190 -0.366979 0.930229 0.000000 1.6580765988230895e-38
5.294477 55.445798 94.345627 0.092268 0.995734 0.000000 1.6580765988230895e-38
4.037898 56.079838 93.736434 0.067708 0.997705 0.000000 1.6580765988230895e-38
2.000249 55.221698 94.823175 0.043107 0.999070 0.000000 1.6580765988230895e-38
1.303538 56.195096 93.590492 0.018479 0.999829 0.000000 1.6580765988230895e-38
-0.153270 55.313589 94.157155 -0.006160 0.999981 0.000000 1.6580765988230895e-38
-1.713182 55.715177 93.857995 -0.030795 0.999526 0.000000 1.6580765988230895e-38
-2.740950 55.588482 94.426628 -0.055411 0.998464 0.000000 1.6580765988230895e-38
-4.480378 55.764320 94.185702 -0.079994 0.996795 0.000000 1.6580765988230895e-38
-5.698043 55.593830 94.666399 -0.104528 0.994522 0.000000 1.6580765988230895e-38
-6.863535 54.597652 93.958153 -0.128999 0.991645 0.000000 1.6580765988230895e-38
-8.118213 54.926473 94.022012 -0.153392 0.988165 0.000000 1.6580765988230895e-38
-9.896889 55.420287 93.706605 -0.177691 0.984086 0.000000 1.6580765988230895e-38
-11.542306 54.833221 94.124029 -0.201882 0.979410 0.000000 1.6580765988230895e-38
-12.458499 54.483949 93.985068 -0.225951 0.974139 0.000000 1.6580765988230895e-38
-13.783162 54.121564 93.945890 -0.249883 0.968276 0.000000 1.6580765988230895e-38
-15.297938 53.537934 93.808240 -0.273663 0.961826 0.000000 1.6580765988230895e-38
-16.430033 52.915037 94.227284 -0.297277 0.954791 0.000000 1.6580765988230895e-38
-17.984767 52.851043 93.967441 -0.320710 0.947177 0.000000 1.6580765988230895e-38
-19.052091 52.868842 94.561683 -0.343949 0.938988 0.000000 1.6580765988230895e-38
5.209368 55.884634 95.342796 0.092268 0.995734 0.000000 1.6580765988230895e-38
3.532348 56.322834 95.631454 0.067708 0.997705 0.000000 1.6580765988230895e-38
2.541752 55.973896 95.482831 0.043107 0.999070 0.000000 1.6580765988230895e-38
1.412510 56.542479 95.095280 0.018479 0.999829 0.000000 1.6580765988230895e-38
-0.031094 55.953598 94.774984 -0.006160 0.999981 0.000000 1.6580765988230895e-38
-1.472513 56.394473 95.549640 -0.030795 0.999526 0.000000 1.6580765988230895e-38
-3.152707 56.011071 95.467388 -0.055411 0.998464 0.000000 1.6580765988230895e-38
-4.306256 56.170444 95.540627 -0.079994 0.996795 0.000000 1.6580765988230895e-38
-6.025238 55.682096 95.106300 -0.104528 0.994522 0.000000 1.6580765988230895e-38
-7.173114 54.952428 95.836208 -0.128999 0.991645 0.000000 1.6580765988230895e-38
-8.820896 55.164368 95.282556 -0.153392 0.988165 0.000000 1.6580765988230895e-38
-10.360594 54.989346 95.308313 -0.177691 0.984086 0.000000 1.6580765988230895e-38
-10.806947 54.870789 95.136039 -0.201882 0.979410 0.000000 1.6580765988230895e-38
-12.986629 55.174571 95.280740 -0.225951 0.974139 0.000000 1.6580765988230895e-38
-13.963929 53.793445 95.415153 -0.249883 0.968276 0.000000 1.6580765988230895e-38
-15.496300 54.285291 95.397048 -0.273663 0.961826 0.000000 1.6580765988230895e-38
5.016149 55.888295 96.269595 0.092268 0.995734 0.000000 1.6580765988230895e-38
4.591844 55.934872 96.877588 0.067708 0.997705 0.000000 1.6580765988230895e-38
2.466301 56.335887 96.490500 0.043107 0.999070 0.000000 1.6580765988230895e-38
1.314063 56.197539 97.006395 0.018479 0.999829 0.000000 1.6580765988230895e-38
-0.253864 55.906423 96.650277 -0.006160 0.999981 0.000000 1.6580765988230895e-38
-1.725573 55.801631 96.608616 -0.030795 0.999526 0.000000 1.6580765988230895e-38
-3.294966 55.967268 96.507171 -0.055411 0.998464 0.000000 1.6580765988230895e-38
-5.097816 55.814967 96.771989 -0.079994 0.996795 0.000000 1.6580765988230895e-38
-5.924263 55.246241 96.470341 -0.104528 0.994522 0.000000 1.6580765988230895e-38
-7.095093 55.565944 96.415202 -0.128999 0.991645 0.000000 1.6580765988230895e-38
-8.742879 55.646208 96.248224 -0.153392 0.988165 0.000000 1.6580765988230895e-38
-9.808889 55.150709 96.870787 -0.177691 0.984086 0.000000 1.6580765988230895e-38
-11.476088 54.635391 96.680496 -0.201882 0.979410 0.000000 1.6580765988230895e-38
5.201008 55.665064 97.873682 0.092268 0.995734 0.000000 1.6580765988230895e-38
4.084512 55.924494 97.938888 0.067708 0.997705 0.000000 1.6580765988230895e-38
2.501621 56.543789 98.225041 0.043107 0.999070 0.000000 1.6580765988230895e-38
1.274169 56.234719 98.093689 0.018479 0.999829 0.000000 1.6580765988230895e-38
-0.332373 56.180478 97.549027 -0.006160 0.999981 0.000000 1.6580765988230895e-38
-1.703239 56.536073 97.422514 -0.030795 0.999526 0.000000 1.6580765988230895e-38
-3.489563 55.808683 98.038523 -0.055411 0.998464 0.000000 1.6580765988230895e-38
-4.381103 56.523254 97.576260 -0.079994 0.996795 0.000000 1.6580765988230895e-38
-6.247710 56.420101 97.511324 -0.104528 0.994522 0.000000 1.6580765988230895e-38
3.416860 56.642504 99.008196 0.067708 0.997705 0.000000 1.6580765988230895e-38
2.154039 55.984610 98.457387 0.043107 0.999070 0.000000 1.6580765988230895e-38
1.211403 56.958734 98.819316 0.018479 0.999829 0.000000 1.6580765988230895e-38
-0.603562 56.753096 99.003122 -0.006160 0.999981 0.000000 1.6580765988230895e-38
-1.360274 56.072127 99.164847 -0.030795 0.999526 0.000000 1.6580765988230895e-38
3.741284 55.941687 100.142641 0.067708 0.997705 0.000000 1.6580765988230895e-38
1.970269 56.081835 100.531719 0.043107 0.999070 0.000000 1.6580765988230895e-38
