# .PCD v0.7 - Point Cloud Data file format
VERSION 0.7
FIELDS x y z normal_x normal_y normal_z rgb
SIZE 4 4 4 4 4 4 4
TYPE F F F F F F F
COUNT 1 1 1 1 1 1 1
WIDTH 246
HEIGHT 1
VIEWPOINT 0 0 0 1 0 0 0
POINTS 246
DATA ascii
-21.320839 7.422926 95.711513 -0.719213 0.248471 0.648841 1.7041734328458258e-38
-21.857722 6.784235 94.834455 -0.725117 0.230676 0.648841 1.7041734328458258e-38
-21.996116 6.716696 95.638286 -0.730580 0.212741 0.648841 1.7041734328458258e-38
-21.803596 6.005083 95.736752 -0.735600 0.194677 0.648841 1.7041734328458258e-38
-22.552528 5.663873 95.342104 -0.740173 0.176495 0.648841 1.7041734328458258e-38
-22.322777 4.331365 95.360135 -0.744296 0.158205 0.648841 1.7041734328458258e-38
-22.150178 3.566688 95.496397 -0.747968 0.139819 0.648841 1.7041734328458258e-38
-23.278687 3.224557 95.229441 -0.751186 0.121349 0.648841 1.7041734328458258e-38
-22.201414 3.053600 95.398722 -0.753948 0.102805 0.648841 1.7041734328458258e-38
-23.018479 2.474123 95.241268 -0.756252 0.084198 0.648841 1.7041734328458258e-38
-22.312246 1.747056 95.059979 -0.758096 0.065541 0.648841 1.7041734328458258e-38
-22.519608 1.334841 95.291683 -0.759481 0.046843 0.648841 1.7041734328458258e-38
-20.014399 7.925542 96.452735 -0.704876 0.283106 0.650385 1.7041734328458258e-38
-20.118833 7.731536 96.139009 -0.711637 0.265654 0.650385 1.7041734328458258e-38
-20.141736 7.039532 96.475962 -0.717966 0.248040 0.650385 1.7041734328458258e-38
-21.012167 6.281728 96.563953 -0.723860 0.230276 0.650385 1.7041734328458258e-38
-21.387434 6.077071 96.970465 -0.729313 0.212372 0.650385 1.7041734328458258e-38
-20.873616 5.644760 96.165354 -0.734324 0.194339 0.650385 1.7041734328458258e-38
-21.248373 4.823527 96.927512 -0.738889 0.176189 0.650385 1.7041734328458258e-38
-21.490623 4.301959 96.429533 -0.743006 0.157931 0.650385 1.7041734328458258e-38
-21.688275 4.081099 97.041227 -0.746671 0.139577 0.650385 1.7041734328458258e-38
-21.543902 3.203786 96.447439 -0.749883 0.121139 0.650385 1.7041734328458258e-38
-22.006534 3.810770 97.035112 -0.752640 0.102627 0.650385 1.7041734328458258e-38
-21.317245 2.640461 96.445199 -0.754940 0.084052 0.650385 1.7041734328458258e-38
-21.787291 1.813769 97.207903 -0.756782 0.065427 0.650385 1.7041734328458258e-38
-21.841627 1.174364 96.463482 -0.758164 0.046762 0.650385 1.7041734328458258e-38
-21.655380 -0.238231 96.612842 -0.759086 0.028069 0.650385 1.7041734328458258e-38
-18.703812 9.093272 97.920257 -0.692690 0.339610 0.636275 1.7041734328458258e-38
-18.888668 8.803827 97.624054 -0.700847 0.322441 0.636275 1.7041734328458258e-38
-18.636592 8.148382 97.503590 -0.708578 0.305076 0.636275 1.7041734328458258e-38
-19.180618 7.495023 97.802407 -0.715879 0.287526 0.636275 1.7041734328458258e-38
-18.975558 7.254582 97.325657 -0.722746 0.269801 0.636275 1.7041734328458258e-38
-19.767374 7.029873 97.764025 -0.729174 0.251912 0.636275 1.7041734328458258e-38
-19.593684 6.110326 97.608371 -0.735159 0.233871 0.636275 1.7041734328458258e-38
-19.763184 6.293563 97.615776 -0.740698 0.215687 0.636275 1.7041734328458258e-38
-20.079153 5.646904 97.771274 -0.745787 0.197373 0.636275 1.7041734328458258e-38
-20.023937 4.598299 97.733024 -0.750423 0.178939 0.636275 1.7041734328458258e-38
-20.514309 3.815156 97.466618 -0.754604 0.160396 0.636275 1.7041734328458258e-38
-20.293715 3.984235 97.962536 -0.758327 0.141756 0.636275 1.7041734328458258e-38
-20.363370 3.247630 97.182028 -0.761589 0.123030 0.636275 1.7041734328458258e-38
-20.934719 3.139185 97.479316 -0.764389 0.104229 0.636275 1.7041734328458258e-38
-20.676761 2.318413 97.316399 -0.766725 0.085364 0.636275 1.7041734328458258e-38
-20.605135 2.248352 97.726333 -0.768595 0.066448 0.636275 1.7041734328458258e-38
-20.823401 0.931843 97.649794 -0.769999 0.047492 0.636275 1.7041734328458258e-38
-20.605459 0.766016 97.600046 -0.770936 0.028507 0.636275 1.7041734328458258e-38
-20.478685 0.177555 97.603606 -0.771404 0.009504 0.636275 1.7041734328458258e-38
-17.893493 8.844597 99.203124 -0.706140 0.368054 0.604899 1.7041734328458258e-38
-17.623231 8.243149 99.125846 -0.714993 0.350545 0.604899 1.7041734328458258e-38
-17.734252 8.350773 98.472848 -0.723413 0.332823 0.604899 1.7041734328458258e-38
-18.585913 7.815291 99.533777 -0.731393 0.314899 0.604899 1.7041734328458258e-38
-18.533675 7.560631 98.775879 -0.738929 0.296783 0.604899 1.7041734328458258e-38
-18.038400 6.936550 98.605279 -0.746017 0.278488 0.604899 1.7041734328458258e-38
-18.958009 6.196133 99.003974 -0.752652 0.260023 0.604899 1.7041734328458258e-38
-19.075842 5.853448 99.552962 -0.758830 0.241401 0.604899 1.7041734328458258e-38
-19.185009 5.588289 98.887182 -0.764547 0.222632 0.604899 1.7041734328458258e-38
-19.154458 5.265390 98.309610 -0.769800 0.203728 0.604899 1.7041734328458258e-38
-19.213593 4.479396 99.021729 -0.774586 0.184700 0.604899 1.7041734328458258e-38
-19.426998 4.058047 99.057738 -0.778901 0.165561 0.604899 1.7041734328458258e-38
-19.626578 4.228116 98.680448 -0.782744 0.146320 0.604899 1.7041734328458258e-38
-19.113499 2.785028 98.889998 -0.786111 0.126991 0.604899 1.7041734328458258e-38
-19.523871 2.395061 98.668540 -0.789001 0.107585 0.604899 1.7041734328458258e-38
-19.761310 2.459504 98.993661 -0.791412 0.088113 0.604899 1.7041734328458258e-38
-19.156627 1.874716 98.831877 -0.793343 0.068588 0.604899 1.7041734328458258e-38
-20.569306 0.753568 98.889464 -0.794792 0.049021 0.604899 1.7041734328458258e-38
-20.254587 0.673804 99.036067 -0.795758 0.029425 0.604899 1.7041734328458258e-38
-19.884918 0.162521 99.556363 -0.796242 0.009810 0.604899 1.7041734328458258e-38
-19.777402 -0.285241 98.670783 -0.796242 -0.009810 0.604899 1.7041734328458258e-38
-16.889897 9.295045 100.043838 -0.738923 0.385141 0.552864 1.7041734328458258e-38
-16.696428 8.446239 99.763852 -0.748188 0.366819 0.552864 1.7041734328458258e-38
-17.028379 7.687876 100.904558 -0.756998 0.348274 0.552864 1.7041734328458258e-38
-17.632656 7.180963 99.529198 -0.765349 0.329518 0.552864 1.7041734328458258e-38
-17.804531 7.245425 99.874493 -0.773235 0.310562 0.552864 1.7041734328458258e-38
-17.588640 6.670392 99.891299 -0.780652 0.291417 0.552864 1.7041734328458258e-38
-17.936362 5.871924 100.441671 -0.787595 0.272095 0.552864 1.7041734328458258e-38
-18.593983 5.933177 99.967416 -0.794059 0.252608 0.552864 1.7041734328458258e-38
-18.148248 5.405954 100.226321 -0.800042 0.232968 0.552864 1.7041734328458258e-38
-17.689470 4.691825 99.773410 -0.805539 0.213186 0.552864 1.7041734328458258e-38
-17.769824 4.476592 100.230254 -0.810547 0.193275 0.552864 1.7041734328458258e-38
-17.851123 3.519167 100.160514 -0.815062 0.173247 0.552864 1.7041734328458258e-38
-18.939276 3.422837 99.756915 -0.819083 0.153113 0.552864 1.7041734328458258e-38
-18.665658 3.002515 100.176932 -0.822607 0.132887 0.552864 1.7041734328458258e-38
-19.441260 2.767476 100.118800 -0.825631 0.112579 0.552864 1.7041734328458258e-38
-18.028665 1.934302 99.998036 -0.828154 0.092204 0.552864 1.7041734328458258e-38
-18.813756 1.242126 100.557107 -0.830175 0.071772 0.552864 1.7041734328458258e-38
-19.176163 0.900145 100.443021 -0.831691 0.051297 0.552864 1.7041734328458258e-38
-18.838858 0.756768 99.798261 -0.832702 0.030791 0.552864 1.7041734328458258e-38
-18.622500 -0.076352 99.688672 -0.833208 0.010266 0.552864 1.7041734328458258e-38
-18.802991 -0.297494 100.134431 -0.833208 -0.010266 0.552864 1.7041734328458258e-38
-18.701669 -0.794861 99.681424 -0.832702 -0.030791 0.552864 1.7041734328458258e-38
-16.257364 8.914073 101.286594 -0.780197 0.406654 0.475315 1.7041734328458258e-38
-16.813516 7.944706 101.275391 -0.789979 0.387309 0.475315 1.7041734328458258e-38
-15.468162 7.467665 100.997445 -0.799282 0.367728 0.475315 1.7041734328458258e-38
-16.674904 7.135669 101.093602 -0.808099 0.347924 0.475315 1.7041734328458258e-38
-16.751328 6.941170 101.467630 -0.816426 0.327909 0.475315 1.7041734328458258e-38
-17.100952 6.243413 101.256292 -0.824257 0.307695 0.475315 1.7041734328458258e-38
-17.556700 6.378115 102.174575 -0.831588 0.287294 0.475315 1.7041734328458258e-38
-17.621326 5.326953 101.118804 -0.838413 0.266718 0.475315 1.7041734328458258e-38
-17.176485 4.774980 101.652828 -0.844730 0.245981 0.475315 1.7041734328458258e-38
-17.435160 4.602237 101.851263 -0.850534 0.225094 0.475315 1.7041734328458258e-38
-17.777665 4.214761 101.078274 -0.855822 0.204071 0.475315 1.7041734328458258e-38
-18.503585 4.095403 101.257807 -0.860590 0.182924 0.475315 1.7041734328458258e-38
-17.511915 3.232705 101.410644 -0.864835 0.161666 0.475315 1.7041734328458258e-38
-17.873867 2.735566 100.958710 -0.868556 0.140309 0.475315 1.7041734328458258e-38
-18.263023 2.169610 101.433239 -0.871749 0.118868 0.475315 1.7041734328458258e-38
-17.721533 1.792673 101.413424 -0.874413 0.097354 0.475315 1.7041734328458258e-38
-18.029041 1.326629 101.558902 -0.876546 0.075781 0.475315 1.7041734328458258e-38
-17.803597 1.236515 101.428231 -0.878147 0.054162 0.475315 1.7041734328458258e-38
-18.408080 0.635742 101.217443 -0.879215 0.032511 0.475315 1.7041734328458258e-38
-18.342819 0.187195 101.380851 -0.879749 0.010839 0.475315 1.7041734328458258e-38
-17.856892 -0.400208 101.559894 -0.879749 -0.010839 0.475315 1.7041734328458258e-38
-18.295167 -0.944638 101.625290 -0.879215 -0.032511 0.475315 1.7041734328458258e-38
-15.536008 7.977096 102.296463 -0.824780 0.429891 0.367330 1.7041734328458258e-38
-16.141298 7.508608 103.068889 -0.835121 0.409440 0.367330 1.7041734328458258e-38
-16.343543 7.397707 103.099913 -0.844955 0.388741 0.367330 1.7041734328458258e-38
-15.958893 7.381515 102.504509 -0.854276 0.367805 0.367330 1.7041734328458258e-38
-16.132131 6.900263 102.962764 -0.863078 0.346647 0.367330 1.7041734328458258e-38
-16.210146 5.792514 102.880531 -0.871357 0.325277 0.367330 1.7041734328458258e-38
-16.477333 5.697984 102.498937 -0.879107 0.303711 0.367330 1.7041734328458258e-38
-16.624975 5.035574 102.551022 -0.886322 0.281959 0.367330 1.7041734328458258e-38
-16.603740 5.229830 102.825040 -0.893000 0.260037 0.367330 1.7041734328458258e-38
-17.140342 4.166241 102.446581 -0.899136 0.237957 0.367330 1.7041734328458258e-38
-16.722421 4.137800 102.649836 -0.904725 0.215732 0.367330 1.7041734328458258e-38
-17.154378 3.862068 102.372435 -0.909766 0.193377 0.367330 1.7041734328458258e-38
-17.434196 3.425561 102.752345 -0.914254 0.170904 0.367330 1.7041734328458258e-38
-17.030828 3.030841 102.448791 -0.918187 0.148327 0.367330 1.7041734328458258e-38
-18.427756 2.437482 102.366828 -0.921563 0.125660 0.367330 1.7041734328458258e-38
-17.327469 2.423278 102.371518 -0.924379 0.102917 0.367330 1.7041734328458258e-38
-17.328453 1.775957 102.784127 -0.926634 0.080111 0.367330 1.7041734328458258e-38
-17.456029 0.459792 102.700075 -0.928326 0.057257 0.367330 1.7041734328458258e-38
-17.578344 0.964812 102.968396 -0.929455 0.034368 0.367330 1.7041734328458258e-38
-17.739521 -0.353309 102.201610 -0.930020 0.011458 0.367330 1.7041734328458258e-38
-17.163803 -0.239862 102.246421 -0.930020 -0.011458 0.367330 1.7041734328458258e-38
-15.513420 8.369434 104.261423 -0.863543 0.450096 0.227393 1.7041734328458258e-38
-15.330625 7.203762 104.564020 -0.874370 0.428683 0.227393 1.7041734328458258e-38
-15.538175 7.232448 103.951610 -0.884666 0.407011 0.227393 1.7041734328458258e-38
-15.630083 7.078928 103.909985 -0.894426 0.385092 0.227393 1.7041734328458258e-38
-16.331445 6.720092 103.672932 -0.903642 0.362938 0.227393 1.7041734328458258e-38
-16.413116 5.995380 103.780785 -0.912309 0.340565 0.227393 1.7041734328458258e-38
-16.140971 5.786745 103.776505 -0.920423 0.317984 0.227393 1.7041734328458258e-38
-16.352016 5.067927 104.147572 -0.927978 0.295211 0.227393 1.7041734328458258e-38
-16.364796 5.023419 103.832270 -0.934969 0.272258 0.227393 1.7041734328458258e-38
-16.547823 4.552920 104.142183 -0.941393 0.249141 0.227393 1.7041734328458258e-38
-16.529823 3.952117 103.572614 -0.947246 0.225871 0.227393 1.7041734328458258e-38
-16.671385 3.711209 103.587567 -0.952523 0.202465 0.227393 1.7041734328458258e-38
-16.650856 3.206927 103.878857 -0.957222 0.178936 0.227393 1.7041734328458258e-38
-16.913549 3.021937 104.385081 -0.961340 0.155298 0.227393 1.7041734328458258e-38
-17.056093 2.254383 104.099861 -0.964875 0.131566 0.227393 1.7041734328458258e-38
-17.494092 2.161667 103.511096 -0.967823 0.107754 0.227393 1.7041734328458258e-38
-17.546083 1.947276 103.292714 -0.970184 0.083877 0.227393 1.7041734328458258e-38
-16.772898 1.526623 104.019395 -0.971956 0.059948 0.227393 1.7041734328458258e-38
-17.004221 0.163251 103.769800 -0.973138 0.035983 0.227393 1.7041734328458258e-38
-17.088846 0.310666 104.050831 -0.973729 0.011997 0.227393 1.7041734328458258e-38
-17.097747 -0.205565 103.550987 -0.973729 -0.011997 0.227393 1.7041734328458258e-38
-14.801264 7.357051 105.291311 -0.885044 0.461303 0.062422 1.7041734328458258e-38
-15.533474 7.358452 105.260157 -0.896141 0.439357 0.062422 1.7041734328458258e-38
-15.196644 7.210469 104.737880 -0.906694 0.417145 0.062422 1.7041734328458258e-38
-15.607835 6.875015 104.922830 -0.916696 0.394680 0.062422 1.7041734328458258e-38
-16.041846 6.319695 105.326729 -0.926141 0.371975 0.062422 1.7041734328458258e-38
-16.109552 6.022353 104.776475 -0.935025 0.349044 0.062422 1.7041734328458258e-38
-16.000149 5.009284 105.247584 -0.943341 0.325902 0.062422 1.7041734328458258e-38
-15.948872 5.107750 105.321855 -0.951084 0.302561 0.062422 1.7041734328458258e-38
-16.261857 4.343661 104.800317 -0.958249 0.279037 0.062422 1.7041734328458258e-38
-16.556296 4.308320 104.919876 -0.964833 0.255344 0.062422 1.7041734328458258e-38
-16.916005 3.089447 105.656712 -0.970831 0.231495 0.062422 1.7041734328458258e-38
-16.130725 3.283909 104.722506 -0.976240 0.207506 0.062422 1.7041734328458258e-38
-16.287742 2.490387 105.463002 -0.981056 0.183391 0.062422 1.7041734328458258e-38
-16.605156 2.608429 105.572547 -0.985277 0.159165 0.062422 1.7041734328458258e-38
-17.055863 2.550822 105.079740 -0.988899 0.134842 0.062422 1.7041734328458258e-38
-17.274447 2.495506 104.942096 -0.991921 0.110437 0.062422 1.7041734328458258e-38
-17.079487 1.709476 105.526731 -0.994341 0.085965 0.062422 1.7041734328458258e-38
-17.377286 1.479648 105.152751 -0.996157 0.061441 0.062422 1.7041734328458258e-38
-17.028682 0.578460 105.149623 -0.997368 0.036879 0.062422 1.7041734328458258e-38
-17.480440 0.331577 105.215904 -0.997974 0.012296 0.062422 1.7041734328458258e-38
-17.122836 -0.147902 105.093104 -0.997974 -0.012296 0.062422 1.7041734328458258e-38
-14.606974 7.946908 106.427624 -0.884290 0.460910 -0.074785 1.7041734328458258e-38
-15.397319 7.658142 106.525556 -0.895378 0.438983 -0.074785 1.7041734328458258e-38
-15.591383 7.400419 106.330362 -0.905921 0.416790 -0.074785 1.7041734328458258e-38
-15.467568 6.336597 106.665831 -0.915915 0.394344 -0.074785 1.7041734328458258e-38
-16.018204 6.549651 106.776011 -0.925353 0.371658 -0.074785 1.7041734328458258e-38
-15.831358 6.301540 106.068229 -0.934228 0.348747 -0.074785 1.7041734328458258e-38
-16.121070 5.366543 106.193511 -0.942537 0.325624 -0.074785 1.7041734328458258e-38
-16.701797 5.186776 106.673964 -0.950273 0.302304 -0.074785 1.7041734328458258e-38
-15.970767 4.444255 106.247828 -0.957433 0.278800 -0.074785 1.7041734328458258e-38
-16.685204 4.114209 106.302766 -0.964011 0.255126 -0.074785 1.7041734328458258e-38
-16.559421 3.862977 105.973982 -0.970004 0.231298 -0.074785 1.7041734328458258e-38
-16.366906 3.594090 106.509828 -0.975408 0.207329 -0.074785 1.7041734328458258e-38
-16.604434 3.314147 106.437801 -0.980220 0.183235 -0.074785 1.7041734328458258e-38
-17.061792 3.170421 106.583291 -0.984437 0.159029 -0.074785 1.7041734328458258e-38
-17.142934 2.035784 106.988731 -0.988057 0.134727 -0.074785 1.7041734328458258e-38
-16.973917 1.681128 106.232639 -0.991076 0.110343 -0.074785 1.7041734328458258e-38
-16.831173 1.324152 106.431759 -0.993494 0.085892 -0.074785 1.7041734328458258e-38
-16.304666 0.577017 106.269962 -0.995308 0.061389 -0.074785 1.7041734328458258e-38
-16.999738 0.100080 106.546871 -0.996519 0.036848 -0.074785 1.7041734328458258e-38
-16.759885 -0.206726 106.367331 -0.997124 0.012285 -0.074785 1.7041734328458258e-38
-16.973537 -0.037386 107.192438 -0.997124 -0.012285 -0.074785 1.7041734328458258e-38
-15.360493 7.307088 107.475973 -0.893004 0.410847 -0.183708 1.7041734328458258e-38
-15.948746 6.766797 107.768945 -0.902855 0.388721 -0.183708 1.7041734328458258e-38
-15.772399 7.331770 107.825902 -0.912158 0.366359 -0.183708 1.7041734328458258e-38
-16.462482 6.424321 107.842139 -0.920907 0.343774 -0.183708 1.7041734328458258e-38
-16.264467 5.316399 107.580112 -0.929098 0.320981 -0.183708 1.7041734328458258e-38
-15.997480 5.396656 108.071057 -0.936724 0.297993 -0.183708 1.7041734328458258e-38
-16.080853 4.903610 106.719062 -0.943781 0.274824 -0.183708 1.7041734328458258e-38
-16.856363 3.971025 108.088943 -0.950266 0.251489 -0.183708 1.7041734328458258e-38
-16.534810 3.957520 107.506982 -0.956173 0.228000 -0.183708 1.7041734328458258e-38
-16.457534 3.339139 107.275763 -0.961500 0.204373 -0.183708 1.7041734328458258e-38
-17.278931 3.225355 107.418108 -0.966244 0.180622 -0.183708 1.7041734328458258e-38
-16.639924 2.770251 107.239760 -0.970401 0.156762 -0.183708 1.7041734328458258e-38
-17.079239 2.056762 107.616415 -0.973968 0.132806 -0.183708 1.7041734328458258e-38
-16.735935 1.879322 107.451031 -0.976945 0.108769 -0.183708 1.7041734328458258e-38
-16.973957 1.373998 107.810068 -0.979328 0.084667 -0.183708 1.7041734328458258e-38
-17.041296 0.762459 107.254930 -0.981117 0.060513 -0.183708 1.7041734328458258e-38
-17.272433 0.777796 108.167002 -0.982310 0.036323 -0.183708 1.7041734328458258e-38
-17.512585 -0.072981 107.937928 -0.982906 0.012110 -0.183708 1.7041734328458258e-38
-17.118613 -0.251214 107.844594 -0.982906 -0.012110 -0.183708 1.7041734328458258e-38
-16.548668 5.368837 108.358428 -0.908928 0.314013 -0.274309 1.7041734328458258e-38
-16.653711 5.221675 108.563381 -0.916389 0.291524 -0.274309 1.7041734328458258e-38
-16.909321 5.002559 108.798256 -0.923293 0.268858 -0.274309 1.7041734328458258e-38
-16.862583 4.422831 109.384993 -0.929637 0.246029 -0.274309 1.7041734328458258e-38
-16.610925 4.090842 108.620162 -0.935416 0.223050 -0.274309 1.7041734328458258e-38
-17.272572 3.248249 108.626731 -0.940627 0.199937 -0.274309 1.7041734328458258e-38
-16.988441 3.035057 108.813495 -0.945268 0.176701 -0.274309 1.7041734328458258e-38
-16.908346 2.954592 108.886625 -0.949334 0.153359 -0.274309 1.7041734328458258e-38
-17.360505 2.303110 109.145322 -0.952825 0.129923 -0.274309 1.7041734328458258e-38
-17.289821 1.857976 108.483839 -0.955736 0.106408 -0.274309 1.7041734328458258e-38
-17.276777 1.608919 108.391300 -0.958068 0.082829 -0.274309 1.7041734328458258e-38
-17.499773 1.176980 108.787574 -0.959818 0.059200 -0.274309 1.7041734328458258e-38
-16.930395 1.104271 108.487369 -0.960985 0.035534 -0.274309 1.7041734328458258e-38
-17.559715 0.506078 108.840954 -0.961569 0.011847 -0.274309 1.7041734328458258e-38
-17.404815 3.629215 109.912951 -0.914362 0.218030 -0.341182 1.7041734328458258e-38
-17.771201 3.944094 109.940194 -0.919456 0.195436 -0.341182 1.7041734328458258e-38
-17.751850 3.209038 109.844475 -0.923992 0.172724 -0.341182 1.7041734328458258e-38
-17.208447 3.189780 110.453884 -0.927967 0.149907 -0.341182 1.7041734328458258e-38
-18.095992 2.522664 110.339560 -0.931379 0.126999 -0.341182 1.7041734328458258e-38
-18.087974 1.627560 109.805479 -0.934225 0.104013 -0.341182 1.7041734328458258e-38
-18.262034 1.855151 110.389383 -0.936504 0.080965 -0.341182 1.7041734328458258e-38
-17.953177 1.082176 109.898717 -0.938215 0.057867 -0.341182 1.7041734328458258e-38
-17.183485 0.530371 109.944387 -0.939355 0.034734 -0.341182 1.7041734328458258e-38
-17.927039 -0.174050 110.183363 -0.939926 0.011580 -0.341182 1.7041734328458258e-38
-18.566095 2.765648 111.226075 -0.915352 0.124813 -0.382823 1.7041734328458258e-38
-17.726429 2.335724 111.498989 -0.918149 0.102223 -0.382823 1.7041734328458258e-38
-18.237571 1.919381 111.414990 -0.920389 0.079571 -0.382823 1.7041734328458258e-38
-18.990378 1.100588 111.511692 -0.922070 0.056871 -0.382823 1.7041734328458258e-38
-18.662449 1.456621 111.296267 -0.923191 0.034137 -0.382823 1.7041734328458258e-38
-18.203850 0.578034 111.521465 -0.923752 0.011381 -0.382823 1.7041734328458258e-38
-18.606716 0.611879 112.365676 -0.916097 0.033874 -0.399523 1.7041734328458258e-38
-18.575114 -0.219916 112.795687 -0.916653 0.011294 -0.399523 1.7041734328458258e-38
