# .PCD v0.7 - Point Cloud Data file format
VERSION 0.7
FIELDS x y z normal_x normal_y normal_z rgb
SIZE 4 4 4 4 4 4 4
TYPE F F F F F F F
COUNT 1 1 1 1 1 1 1
WIDTH 171
HEIGHT 1
VIEWPOINT 0 0 0 1 0 0 0
POINTS 171
DATA ascii
20.772759 1.382149 4.291955 0.453015 0.033548 -0.890872 1.75027152803718e-38
22.681142 1.956140 5.010779 0.520732 0.038563 -0.852849 1.75027152803718e-38
22.414603 2.494174 5.328741 0.519624 0.051381 -0.852849 1.75027152803718e-38
22.566078 2.823448 4.430847 0.518200 0.064167 -0.852849 1.75027152803718e-38
22.369033 3.701986 4.808529 0.516462 0.076915 -0.852849 1.75027152803718e-38
25.179538 1.156788 5.953135 0.764400 0.037700 -0.643639 1.75027152803718e-38
24.928571 1.898828 6.359013 0.763240 0.056522 -0.643639 1.75027152803718e-38
24.405691 2.321732 6.134691 0.761615 0.075309 -0.643639 1.75027152803718e-38
23.965306 2.992536 6.274377 0.759529 0.094050 -0.643639 1.75027152803718e-38
24.853487 3.644461 5.485314 0.756981 0.112734 -0.643639 1.75027152803718e-38
24.173623 5.038064 6.445477 0.753974 0.131350 -0.643639 1.75027152803718e-38
23.847328 4.988536 5.962963 0.750509 0.149886 -0.643639 1.75027152803718e-38
23.558604 5.298763 6.213025 0.746588 0.168331 -0.643639 1.75027152803718e-38
24.864274 1.330715 7.776839 0.998529 0.049247 -0.022677 1.75027152803718e-38
25.501386 2.069281 7.435922 0.997013 0.073834 -0.022677 1.75027152803718e-38
24.864964 2.627474 7.387979 0.994891 0.098375 -0.022677 1.75027152803718e-38
24.869911 2.755155 7.811798 0.992165 0.122857 -0.022677 1.75027152803718e-38
24.387733 3.553281 7.451958 0.988837 0.147264 -0.022677 1.75027152803718e-38
25.228840 4.164271 7.222876 0.984909 0.171582 -0.022677 1.75027152803718e-38
24.353101 5.394300 6.578976 0.980383 0.195795 -0.022677 1.75027152803718e-38
24.089442 6.318601 7.599945 0.975261 0.219890 -0.022677 1.75027152803718e-38
23.915577 6.085884 7.442917 0.969548 0.243851 -0.022677 1.75027152803718e-38
24.343600 7.245852 7.539246 0.963245 0.267664 -0.022677 1.75027152803718e-38
23.755590 7.521605 7.213205 0.956358 0.291315 -0.022677 1.75027152803718e-38
25.119192 1.813926 8.562617 0.987984 0.048727 -0.146677 1.75027152803718e-38
25.127333 2.452742 8.494789 0.986483 0.073054 -0.146677 1.75027152803718e-38
25.530936 2.472269 9.194363 0.984384 0.097336 -0.146677 1.75027152803718e-38
25.143138 3.177659 8.640105 0.981687 0.121559 -0.146677 1.75027152803718e-38
24.647282 3.721245 8.929002 0.978394 0.145709 -0.146677 1.75027152803718e-38
24.731901 4.214257 8.584559 0.974507 0.169769 -0.146677 1.75027152803718e-38
24.919900 5.284912 8.459649 0.970029 0.193727 -0.146677 1.75027152803718e-38
24.292955 5.636306 9.118053 0.964961 0.217568 -0.146677 1.75027152803718e-38
24.693834 5.748724 8.580571 0.959308 0.241276 -0.146677 1.75027152803718e-38
23.912577 6.642090 9.141117 0.953072 0.264837 -0.146677 1.75027152803718e-38
23.592013 6.830667 8.411228 0.946258 0.288238 -0.146677 1.75027152803718e-38
23.917440 8.092094 8.791028 0.938870 0.311464 -0.146677 1.75027152803718e-38
23.981938 7.961683 9.016295 0.930911 0.334501 -0.146677 1.75027152803718e-38
23.319245 9.289644 8.262766 0.922387 0.357335 -0.146677 1.75027152803718e-38
25.572368 1.396974 10.282706 0.963763 0.047533 -0.262492 1.75027152803718e-38
25.236118 1.831005 9.947921 0.962299 0.071263 -0.262492 1.75027152803718e-38
25.513097 2.055217 10.117724 0.960251 0.094950 -0.262492 1.75027152803718e-38
25.170214 2.799918 9.271525 0.957620 0.118579 -0.262492 1.75027152803718e-38
25.050971 4.171158 10.399313 0.954408 0.142136 -0.262492 1.75027152803718e-38
25.098843 4.942512 9.884025 0.950617 0.165607 -0.262492 1.75027152803718e-38
25.163365 4.832965 9.742528 0.946248 0.188978 -0.262492 1.75027152803718e-38
24.544163 4.961582 10.283035 0.941305 0.212234 -0.262492 1.75027152803718e-38
24.409943 5.947329 9.542916 0.935790 0.235361 -0.262492 1.75027152803718e-38
24.381207 7.321071 10.525041 0.929707 0.258345 -0.262492 1.75027152803718e-38
23.769497 7.285828 9.586600 0.923060 0.281172 -0.262492 1.75027152803718e-38
24.374768 8.073793 9.705936 0.915853 0.303828 -0.262492 1.75027152803718e-38
23.895930 8.435391 10.381181 0.908089 0.326300 -0.262492 1.75027152803718e-38
23.819644 9.365158 9.096832 0.899774 0.348574 -0.262492 1.75027152803718e-38
23.402556 10.369205 10.294746 0.890913 0.370637 -0.262492 1.75027152803718e-38
22.621282 10.224329 9.536451 0.881511 0.392474 -0.262492 1.75027152803718e-38
23.427487 10.959491 9.666569 0.871574 0.414073 -0.262492 1.75027152803718e-38
25.761325 0.933377 10.818668 0.930616 0.022935 -0.365277 1.75027152803718e-38
25.636413 0.855435 11.416435 0.929769 0.045856 -0.365277 1.75027152803718e-38
25.681946 1.648862 11.161700 0.928357 0.068749 -0.365277 1.75027152803718e-38
25.293862 2.226716 10.695981 0.926381 0.091601 -0.365277 1.75027152803718e-38
25.264621 3.575268 10.914085 0.923843 0.114397 -0.365277 1.75027152803718e-38
25.638703 3.546555 11.361881 0.920744 0.137123 -0.365277 1.75027152803718e-38
25.089712 4.436288 11.149876 0.917086 0.159766 -0.365277 1.75027152803718e-38
25.979159 5.238034 10.956149 0.912872 0.182312 -0.365277 1.75027152803718e-38
25.354266 6.311681 10.645130 0.908103 0.204748 -0.365277 1.75027152803718e-38
24.748673 6.217040 11.008894 0.902783 0.227059 -0.365277 1.75027152803718e-38
24.739079 6.510902 11.555207 0.896915 0.249232 -0.365277 1.75027152803718e-38
24.234532 7.451980 11.447770 0.890502 0.271254 -0.365277 1.75027152803718e-38
24.459695 7.823537 10.729418 0.883549 0.293112 -0.365277 1.75027152803718e-38
24.192333 8.490630 11.195590 0.876059 0.314791 -0.365277 1.75027152803718e-38
23.618750 9.556741 11.168685 0.868037 0.336279 -0.365277 1.75027152803718e-38
23.859394 10.334590 11.002682 0.859489 0.357564 -0.365277 1.75027152803718e-38
23.333507 10.321364 11.076263 0.850418 0.378631 -0.365277 1.75027152803718e-38
23.258473 10.813543 10.527095 0.840832 0.399468 -0.365277 1.75027152803718e-38
26.309729 0.838849 12.206288 0.891335 0.021967 -0.452813 1.75027152803718e-38
25.973107 1.173457 12.381217 0.890523 0.043920 -0.452813 1.75027152803718e-38
26.334801 1.708341 12.641568 0.889170 0.065847 -0.452813 1.75027152803718e-38
26.023256 2.330701 12.208417 0.887278 0.087734 -0.452813 1.75027152803718e-38
26.460320 3.196731 12.162780 0.884847 0.109568 -0.452813 1.75027152803718e-38
26.328025 4.522382 12.434039 0.881879 0.131335 -0.452813 1.75027152803718e-38
26.316856 4.831013 12.189442 0.878376 0.153022 -0.452813 1.75027152803718e-38
25.835451 4.773315 12.309651 0.874339 0.174617 -0.452813 1.75027152803718e-38
25.504682 5.671970 12.146166 0.869772 0.196105 -0.452813 1.75027152803718e-38
25.455891 6.583746 12.335286 0.864676 0.217475 -0.452813 1.75027152803718e-38
24.816682 6.827580 11.915314 0.859056 0.238712 -0.452813 1.75027152803718e-38
25.267780 7.825471 12.448098 0.852914 0.259805 -0.452813 1.75027152803718e-38
24.761613 8.366932 12.230100 0.846254 0.280739 -0.452813 1.75027152803718e-38
24.444464 9.128820 12.616542 0.839080 0.301504 -0.452813 1.75027152803718e-38
24.843649 9.331695 12.724943 0.831397 0.322085 -0.452813 1.75027152803718e-38
24.169045 10.312433 12.217860 0.823209 0.342471 -0.452813 1.75027152803718e-38
23.993302 9.986070 12.280560 0.814522 0.362649 -0.452813 1.75027152803718e-38
27.332830 0.793040 13.694640 0.850783 0.020967 -0.525098 1.75027152803718e-38
26.888990 1.401422 13.966103 0.850008 0.041922 -0.525098 1.75027152803718e-38
26.943923 2.155882 13.622155 0.848717 0.062852 -0.525098 1.75027152803718e-38
26.940196 3.177178 13.968766 0.846911 0.083743 -0.525098 1.75027152803718e-38
26.852930 3.386500 13.397686 0.844591 0.104583 -0.525098 1.75027152803718e-38
26.687224 4.074975 13.863431 0.841758 0.125360 -0.525098 1.75027152803718e-38
26.857655 4.306953 13.901342 0.838414 0.146061 -0.525098 1.75027152803718e-38
26.483861 4.998391 14.009163 0.834561 0.166673 -0.525098 1.75027152803718e-38
26.810987 6.025157 13.820886 0.830201 0.187183 -0.525098 1.75027152803718e-38
26.447737 7.012698 13.826668 0.825337 0.207581 -0.525098 1.75027152803718e-38
25.648779 7.840840 13.927944 0.819973 0.227852 -0.525098 1.75027152803718e-38
25.707999 7.568547 13.759691 0.814110 0.247985 -0.525098 1.75027152803718e-38
25.575448 8.611187 13.831269 0.807753 0.267967 -0.525098 1.75027152803718e-38
25.271486 8.806943 13.723993 0.800906 0.287787 -0.525098 1.75027152803718e-38
25.048450 9.809641 13.205249 0.793573 0.307432 -0.525098 1.75027152803718e-38
24.884555 10.598405 13.790027 0.785757 0.326890 -0.525098 1.75027152803718e-38
28.323538 0.454434 14.578414 0.811879 0.020009 -0.583482 1.75027152803718e-38
27.997347 1.185518 14.764787 0.811140 0.040005 -0.583482 1.75027152803718e-38
28.047774 1.894370 14.255733 0.809908 0.059978 -0.583482 1.75027152803718e-38
27.335399 2.744511 14.286334 0.808185 0.079913 -0.583482 1.75027152803718e-38
27.560616 3.006154 15.337343 0.805970 0.099801 -0.583482 1.75027152803718e-38
28.206561 3.786504 14.922388 0.803267 0.119628 -0.583482 1.75027152803718e-38
27.159421 4.688857 15.386402 0.800076 0.139382 -0.583482 1.75027152803718e-38
27.181396 5.370627 14.562602 0.796399 0.159051 -0.583482 1.75027152803718e-38
27.522533 5.148931 14.712522 0.792239 0.178624 -0.583482 1.75027152803718e-38
27.005685 6.597341 15.104424 0.787597 0.198089 -0.583482 1.75027152803718e-38
27.204429 7.035680 15.473407 0.782478 0.217433 -0.583482 1.75027152803718e-38
26.224917 8.504980 14.890309 0.776883 0.236645 -0.583482 1.75027152803718e-38
26.292678 8.649751 14.835307 0.770817 0.255714 -0.583482 1.75027152803718e-38
26.282153 9.145360 14.775179 0.764283 0.274627 -0.583482 1.75027152803718e-38
25.748347 9.700016 14.600167 0.757285 0.293374 -0.583482 1.75027152803718e-38
28.779004 -0.639805 15.967377 0.776696 0.000000 -0.629875 1.75027152803718e-38
29.149985 0.574366 16.032831 0.776461 0.019136 -0.629875 1.75027152803718e-38
29.085884 1.657725 16.389000 0.775754 0.038260 -0.629875 1.75027152803718e-38
27.897524 2.647598 16.273394 0.774575 0.057361 -0.629875 1.75027152803718e-38
29.406595 2.600013 15.553439 0.772927 0.076427 -0.629875 1.75027152803718e-38
28.591776 3.457549 16.278573 0.770809 0.095447 -0.629875 1.75027152803718e-38
28.816190 4.217273 16.010262 0.768224 0.114409 -0.629875 1.75027152803718e-38
28.537330 4.867287 15.980480 0.765172 0.133301 -0.629875 1.75027152803718e-38
28.561228 6.019842 16.407664 0.761656 0.152112 -0.629875 1.75027152803718e-38
28.052041 5.694269 16.038012 0.757677 0.170832 -0.629875 1.75027152803718e-38
27.710477 6.987739 15.881147 0.753238 0.189447 -0.629875 1.75027152803718e-38
27.750050 7.401059 15.698259 0.748342 0.207947 -0.629875 1.75027152803718e-38
27.924629 8.103447 16.082574 0.742991 0.226321 -0.629875 1.75027152803718e-38
27.628996 9.345042 16.320929 0.737190 0.244558 -0.629875 1.75027152803718e-38
27.201721 9.958851 16.494401 0.730941 0.262646 -0.629875 1.75027152803718e-38
26.990129 9.855475 15.923914 0.724248 0.280575 -0.629875 1.75027152803718e-38
29.917388 -0.157003 17.623814 0.745749 0.000000 -0.666227 1.75027152803718e-38
29.957177 0.911694 17.367307 0.745523 0.018373 -0.666227 1.75027152803718e-38
29.984340 1.608635 17.041165 0.744844 0.036736 -0.666227 1.75027152803718e-38
29.893651 2.442931 17.666130 0.743712 0.055075 -0.666227 1.75027152803718e-38
29.843187 2.648980 17.076192 0.742130 0.073382 -0.666227 1.75027152803718e-38
29.506391 3.726687 17.282917 0.740097 0.091644 -0.666227 1.75027152803718e-38
29.200404 4.059996 16.690031 0.737614 0.109850 -0.666227 1.75027152803718e-38
28.484337 5.085772 18.015657 0.734684 0.127990 -0.666227 1.75027152803718e-38
29.824008 5.555119 17.364559 0.731307 0.146052 -0.666227 1.75027152803718e-38
28.692617 6.174688 16.960346 0.727487 0.164025 -0.666227 1.75027152803718e-38
28.893672 7.229327 17.395398 0.723225 0.181898 -0.666227 1.75027152803718e-38
28.972034 7.894322 17.330448 0.718524 0.199662 -0.666227 1.75027152803718e-38
28.239206 8.298506 16.869896 0.713387 0.217304 -0.666227 1.75027152803718e-38
28.539061 9.301668 16.758252 0.707816 0.234814 -0.666227 1.75027152803718e-38
28.085089 9.723870 17.817701 0.701816 0.252181 -0.666227 1.75027152803718e-38
31.062942 1.877888 18.224367 0.717753 0.053153 -0.694266 1.75027152803718e-38
30.966420 3.351063 18.707494 0.716226 0.070821 -0.694266 1.75027152803718e-38
31.034926 3.923373 18.608450 0.714264 0.088445 -0.694266 1.75027152803718e-38
30.524341 4.812280 18.864165 0.711868 0.106016 -0.694266 1.75027152803718e-38
30.534650 5.287680 19.034123 0.709040 0.123522 -0.694266 1.75027152803718e-38
30.407045 6.096610 18.701969 0.705781 0.140954 -0.694266 1.75027152803718e-38
30.224952 6.575261 18.670091 0.702094 0.158299 -0.694266 1.75027152803718e-38
30.065423 8.117356 18.793236 0.697981 0.175549 -0.694266 1.75027152803718e-38
29.702900 8.522125 18.649061 0.693444 0.192692 -0.694266 1.75027152803718e-38
30.060727 8.879755 18.613304 0.688486 0.209719 -0.694266 1.75027152803718e-38
29.406515 9.782834 18.291141 0.683110 0.226618 -0.694266 1.75027152803718e-38
31.773940 5.541296 19.744253 0.688346 0.119917 -0.715402 1.75027152803718e-38
31.363394 6.415589 19.707192 0.685183 0.136840 -0.715402 1.75027152803718e-38
31.183994 7.396434 19.823517 0.681603 0.153679 -0.715402 1.75027152803718e-38
31.202723 8.267028 19.242990 0.677610 0.170426 -0.715402 1.75027152803718e-38
31.449733 8.369008 19.857274 0.673205 0.187069 -0.715402 1.75027152803718e-38
30.669340 9.118977 20.187980 0.668392 0.203598 -0.715402 1.75027152803718e-38
33.247526 7.663887 20.785543 0.662057 0.166514 -0.730721 1.75027152803718e-38
32.240528 9.658604 21.570329 0.657754 0.182775 -0.730721 1.75027152803718e-38
