# .PCD v0.7 - Point Cloud Data file format
VERSION 0.7
FIELDS x y z normal_x normal_y normal_z rgb
SIZE 4 4 4 4 4 4 4
TYPE F F F F F F F
COUNT 1 1 1 1 1 1 1
WIDTH 210
HEIGHT 1
VIEWPOINT 0 0 0 1 0 0 0
POINTS 210
DATA ascii
-35.291026 -25.252567 20.005369 -0.809017 -0.587785 0.000000 1.75027152803718e-38
-34.565504 -26.345530 19.545336 -0.794290 -0.607539 0.000000 1.75027152803718e-38
-36.472344 -24.169963 21.472230 -0.836989 -0.547220 0.000000 1.75027152803718e-38
-35.573682 -24.279555 21.102017 -0.823253 -0.567675 0.000000 1.75027152803718e-38
-35.290635 -25.421291 20.857685 -0.809017 -0.587785 0.000000 1.75027152803718e-38
-34.598673 -26.546489 20.592618 -0.794290 -0.607539 0.000000 1.75027152803718e-38
-33.936200 -27.471418 20.958162 -0.779081 -0.626924 0.000000 1.75027152803718e-38
-37.780455 -22.026497 22.747612 -0.862929 -0.505325 0.000000 1.75027152803718e-38
-37.667316 -22.762531 21.514394 -0.850217 -0.526432 0.000000 1.75027152803718e-38
-36.190777 -24.547581 22.998960 -0.836989 -0.547220 0.000000 1.75027152803718e-38
-36.125018 -24.442290 22.593288 -0.823253 -0.567675 0.000000 1.75027152803718e-38
-35.516371 -25.816940 22.016894 -0.809017 -0.587785 0.000000 1.75027152803718e-38
-34.505067 -26.700059 22.022346 -0.794290 -0.607539 0.000000 1.75027152803718e-38
-33.914859 -27.690041 22.169347 -0.779081 -0.626924 0.000000 1.75027152803718e-38
-33.357985 -28.444840 22.120577 -0.763398 -0.645928 0.000000 1.75027152803718e-38
-38.852772 -20.965453 23.614895 -0.875117 -0.483911 0.000000 1.75027152803718e-38
-37.844977 -21.834087 23.406350 -0.862929 -0.505325 0.000000 1.75027152803718e-38
-37.489290 -22.685855 24.057384 -0.850217 -0.526432 0.000000 1.75027152803718e-38
-36.931575 -24.043803 23.818667 -0.836989 -0.547220 0.000000 1.75027152803718e-38
-36.144303 -24.728790 23.739276 -0.823253 -0.567675 0.000000 1.75027152803718e-38
-35.664937 -25.663750 23.503297 -0.809017 -0.587785 0.000000 1.75027152803718e-38
-35.215143 -26.953136 23.309430 -0.794290 -0.607539 0.000000 1.75027152803718e-38
-33.904206 -27.218359 23.730129 -0.779081 -0.626924 0.000000 1.75027152803718e-38
-33.362656 -28.216745 23.588423 -0.763398 -0.645928 0.000000 1.75027152803718e-38
-32.664003 -29.014605 23.083828 -0.747253 -0.664540 0.000000 1.75027152803718e-38
-32.295045 -30.264810 23.837298 -0.730653 -0.682749 0.000000 1.75027152803718e-38
-38.057910 -20.937865 25.329195 -0.875117 -0.483911 0.000000 1.75027152803718e-38
-37.817678 -22.081068 24.596043 -0.862929 -0.505325 0.000000 1.75027152803718e-38
-37.178056 -23.369947 24.301131 -0.850217 -0.526432 0.000000 1.75027152803718e-38
-36.385676 -24.462910 24.873924 -0.836989 -0.547220 0.000000 1.75027152803718e-38
-36.503018 -24.650575 25.121153 -0.823253 -0.567675 0.000000 1.75027152803718e-38
-35.453510 -25.499915 24.744469 -0.809017 -0.587785 0.000000 1.75027152803718e-38
-34.293736 -26.519516 24.472103 -0.794290 -0.607539 0.000000 1.75027152803718e-38
-34.273605 -27.642422 24.667141 -0.779081 -0.626924 0.000000 1.75027152803718e-38
-34.101307 -28.317164 24.326542 -0.763398 -0.645928 0.000000 1.75027152803718e-38
-33.651065 -29.355717 24.515500 -0.747253 -0.664540 0.000000 1.75027152803718e-38
-32.421212 -30.984973 24.487015 -0.730653 -0.682749 0.000000 1.75027152803718e-38
-31.464626 -31.027575 24.858471 -0.713610 -0.700543 0.000000 1.75027152803718e-38
-38.031611 -22.260420 25.985347 -0.862929 -0.505325 0.000000 1.75027152803718e-38
-37.901047 -23.172481 25.820528 -0.850217 -0.526432 0.000000 1.75027152803718e-38
-37.264647 -23.790040 26.630298 -0.836989 -0.547220 0.000000 1.75027152803718e-38
-35.779357 -24.878507 25.899706 -0.823253 -0.567675 0.000000 1.75027152803718e-38
-35.754464 -25.840123 25.853307 -0.809017 -0.587785 0.000000 1.75027152803718e-38
-34.687235 -27.445020 25.890664 -0.794290 -0.607539 0.000000 1.75027152803718e-38
-34.170778 -27.944057 25.907337 -0.779081 -0.626924 0.000000 1.75027152803718e-38
-33.540338 -28.074424 25.591200 -0.763398 -0.645928 0.000000 1.75027152803718e-38
-33.415714 -29.635790 25.518121 -0.747253 -0.664540 0.000000 1.75027152803718e-38
-32.712028 -30.448036 26.349430 -0.730653 -0.682749 0.000000 1.75027152803718e-38
-31.612969 -30.932774 25.692742 -0.713610 -0.700543 0.000000 1.75027152803718e-38
-30.557381 -31.146621 25.713092 -0.696134 -0.717912 0.000000 1.75027152803718e-38
-29.439446 -32.347936 25.984440 -0.678235 -0.734845 0.000000 1.75027152803718e-38
-38.299039 -22.064000 26.926540 -0.862929 -0.505325 0.000000 1.75027152803718e-38
-36.998719 -23.616913 26.793781 -0.850217 -0.526432 0.000000 1.75027152803718e-38
-36.592761 -23.858940 27.161790 -0.836989 -0.547220 0.000000 1.75027152803718e-38
-36.376002 -25.040015 27.257509 -0.823253 -0.567675 0.000000 1.75027152803718e-38
-36.248342 -26.797968 26.963077 -0.809017 -0.587785 0.000000 1.75027152803718e-38
-34.661778 -26.372329 27.137944 -0.794290 -0.607539 0.000000 1.75027152803718e-38
-34.819866 -27.704744 27.348189 -0.779081 -0.626924 0.000000 1.75027152803718e-38
-33.657149 -29.388646 28.163822 -0.763398 -0.645928 0.000000 1.75027152803718e-38
-32.781968 -29.514873 27.000952 -0.747253 -0.664540 0.000000 1.75027152803718e-38
-32.089756 -30.113988 27.244139 -0.730653 -0.682749 0.000000 1.75027152803718e-38
-31.493023 -31.085144 27.337054 -0.713610 -0.700543 0.000000 1.75027152803718e-38
-30.637987 -31.718202 27.303771 -0.696134 -0.717912 0.000000 1.75027152803718e-38
-29.644679 -33.050881 26.977130 -0.678235 -0.734845 0.000000 1.75027152803718e-38
-29.242958 -33.521486 27.097685 -0.659925 -0.751332 0.000000 1.75027152803718e-38
-38.449360 -22.598191 28.296870 -0.862929 -0.505325 0.000000 1.75027152803718e-38
-37.382166 -23.211975 27.883898 -0.850217 -0.526432 0.000000 1.75027152803718e-38
-37.817570 -24.592846 28.522652 -0.836989 -0.547220 0.000000 1.75027152803718e-38
-36.633603 -25.099372 28.400975 -0.823253 -0.567675 0.000000 1.75027152803718e-38
-35.571030 -25.916818 28.476881 -0.809017 -0.587785 0.000000 1.75027152803718e-38
-34.991498 -27.521894 28.428086 -0.794290 -0.607539 0.000000 1.75027152803718e-38
-34.617238 -27.708974 27.939058 -0.779081 -0.626924 0.000000 1.75027152803718e-38
-34.038965 -28.614877 28.596757 -0.763398 -0.645928 0.000000 1.75027152803718e-38
-32.886738 -29.334550 28.435354 -0.747253 -0.664540 0.000000 1.75027152803718e-38
-32.301637 -30.433449 28.497640 -0.730653 -0.682749 0.000000 1.75027152803718e-38
-31.507508 -31.178229 28.562205 -0.713610 -0.700543 0.000000 1.75027152803718e-38
-30.680102 -31.723669 28.823650 -0.696134 -0.717912 0.000000 1.75027152803718e-38
-29.473706 -32.479730 28.315220 -0.678235 -0.734845 0.000000 1.75027152803718e-38
-29.204121 -33.283407 28.637661 -0.659925 -0.751332 0.000000 1.75027152803718e-38
-28.076768 -34.642438 28.907760 -0.641213 -0.767363 0.000000 1.75027152803718e-38
-37.916313 -22.748548 29.950740 -0.862929 -0.505325 0.000000 1.75027152803718e-38
-37.998179 -23.425858 29.611886 -0.850217 -0.526432 0.000000 1.75027152803718e-38
-37.117883 -24.539702 29.518838 -0.836989 -0.547220 0.000000 1.75027152803718e-38
-36.217480 -25.340094 29.488013 -0.823253 -0.567675 0.000000 1.75027152803718e-38
-36.572877 -25.687250 29.525144 -0.809017 -0.587785 0.000000 1.75027152803718e-38
-34.849616 -27.009347 29.733587 -0.794290 -0.607539 0.000000 1.75027152803718e-38
-34.738059 -27.329828 29.033056 -0.779081 -0.626924 0.000000 1.75027152803718e-38
-34.024433 -28.922790 29.626794 -0.763398 -0.645928 0.000000 1.75027152803718e-38
-33.322971 -29.754209 29.747161 -0.747253 -0.664540 0.000000 1.75027152803718e-38
-32.633609 -30.881489 29.805131 -0.730653 -0.682749 0.000000 1.75027152803718e-38
-31.650684 -31.444622 30.251090 -0.713610 -0.700543 0.000000 1.75027152803718e-38
-30.684447 -31.804405 29.940268 -0.696134 -0.717912 0.000000 1.75027152803718e-38
-30.276837 -32.471306 30.161948 -0.678235 -0.734845 0.000000 1.75027152803718e-38
-29.225819 -33.721009 29.678817 -0.659925 -0.751332 0.000000 1.75027152803718e-38
-28.460596 -34.014438 29.667478 -0.641213 -0.767363 0.000000 1.75027152803718e-38
-27.949827 -34.485535 29.369026 -0.622113 -0.782928 0.000000 1.75027152803718e-38
-27.192406 -36.032746 29.407656 -0.602635 -0.798017 0.000000 1.75027152803718e-38
-38.674918 -22.823252 30.819046 -0.862929 -0.505325 0.000000 1.75027152803718e-38
-38.304659 -23.941934 31.337631 -0.850217 -0.526432 0.000000 1.75027152803718e-38
-37.255077 -24.615729 31.033489 -0.836989 -0.547220 0.000000 1.75027152803718e-38
-36.787109 -24.744330 31.189606 -0.823253 -0.567675 0.000000 1.75027152803718e-38
-36.015432 -26.337297 30.797508 -0.809017 -0.587785 0.000000 1.75027152803718e-38
-35.190877 -27.038510 30.678972 -0.794290 -0.607539 0.000000 1.75027152803718e-38
-34.787741 -27.851943 30.299086 -0.779081 -0.626924 0.000000 1.75027152803718e-38
-34.497626 -28.846234 30.350497 -0.763398 -0.645928 0.000000 1.75027152803718e-38
-34.026982 -29.870529 31.075298 -0.747253 -0.664540 0.000000 1.75027152803718e-38
-32.591705 -30.130912 30.952514 -0.730653 -0.682749 0.000000 1.75027152803718e-38
-32.100849 -31.795501 30.812447 -0.713610 -0.700543 0.000000 1.75027152803718e-38
-30.993387 -31.956073 31.007221 -0.696134 -0.717912 0.000000 1.75027152803718e-38
-30.239160 -32.558033 30.950417 -0.678235 -0.734845 0.000000 1.75027152803718e-38
-29.172289 -33.898003 30.905848 -0.659925 -0.751332 0.000000 1.75027152803718e-38
-28.887965 -34.160810 30.623490 -0.641213 -0.767363 0.000000 1.75027152803718e-38
-27.984025 -35.654255 31.106148 -0.622113 -0.782928 0.000000 1.75027152803718e-38
-26.640309 -35.499563 31.171623 -0.602635 -0.798017 0.000000 1.75027152803718e-38
-25.872976 -36.217573 31.112154 -0.582791 -0.812622 0.000000 1.75027152803718e-38
-38.235463 -24.072634 32.263776 -0.850217 -0.526432 0.000000 1.75027152803718e-38
-37.762814 -25.224232 32.027650 -0.836989 -0.547220 0.000000 1.75027152803718e-38
-37.154539 -25.292711 32.250508 -0.823253 -0.567675 0.000000 1.75027152803718e-38
-35.976083 -26.297616 31.998760 -0.809017 -0.587785 0.000000 1.75027152803718e-38
-35.765029 -27.447091 32.311340 -0.794290 -0.607539 0.000000 1.75027152803718e-38
-35.045070 -28.403672 32.167529 -0.779081 -0.626924 0.000000 1.75027152803718e-38
-34.218871 -29.372330 32.260051 -0.763398 -0.645928 0.000000 1.75027152803718e-38
-34.104180 -29.576382 32.323103 -0.747253 -0.664540 0.000000 1.75027152803718e-38
-32.394724 -31.062525 32.504984 -0.730653 -0.682749 0.000000 1.75027152803718e-38
-31.835745 -31.583054 32.051955 -0.713610 -0.700543 0.000000 1.75027152803718e-38
-31.655495 -32.713825 31.939578 -0.696134 -0.717912 0.000000 1.75027152803718e-38
-30.901135 -32.593448 31.714333 -0.678235 -0.734845 0.000000 1.75027152803718e-38
-29.655655 -33.683458 32.272198 -0.659925 -0.751332 0.000000 1.75027152803718e-38
-28.724626 -34.251725 32.031172 -0.641213 -0.767363 0.000000 1.75027152803718e-38
-27.972318 -35.324223 32.555706 -0.622113 -0.782928 0.000000 1.75027152803718e-38
-26.491995 -36.273453 31.555618 -0.602635 -0.798017 0.000000 1.75027152803718e-38
-38.349173 -23.865387 33.121614 -0.850217 -0.526432 0.000000 1.75027152803718e-38
-38.299920 -24.541103 33.535981 -0.836989 -0.547220 0.000000 1.75027152803718e-38
-37.035308 -25.871375 33.453386 -0.823253 -0.567675 0.000000 1.75027152803718e-38
-36.971633 -26.857660 33.412182 -0.809017 -0.587785 0.000000 1.75027152803718e-38
-35.814808 -27.942989 33.084798 -0.794290 -0.607539 0.000000 1.75027152803718e-38
-35.315831 -28.042779 33.158131 -0.779081 -0.626924 0.000000 1.75027152803718e-38
-34.455367 -29.115509 33.327154 -0.763398 -0.645928 0.000000 1.75027152803718e-38
-33.687516 -30.433672 33.205326 -0.747253 -0.664540 0.000000 1.75027152803718e-38
-32.587497 -30.401608 33.654938 -0.730653 -0.682749 0.000000 1.75027152803718e-38
-31.917524 -32.204920 33.117453 -0.713610 -0.700543 0.000000 1.75027152803718e-38
-31.551233 -31.717344 33.308137 -0.696134 -0.717912 0.000000 1.75027152803718e-38
-30.425593 -33.093720 33.508899 -0.678235 -0.734845 0.000000 1.75027152803718e-38
-29.828678 -34.312276 32.591713 -0.659925 -0.751332 0.000000 1.75027152803718e-38
-28.591517 -34.861638 32.841928 -0.641213 -0.767363 0.000000 1.75027152803718e-38
-27.981540 -35.254422 33.632430 -0.622113 -0.782928 0.000000 1.75027152803718e-38
-38.262055 -23.820581 34.506629 -0.850217 -0.526432 0.000000 1.75027152803718e-38
-37.948388 -24.800801 34.658996 -0.836989 -0.547220 0.000000 1.75027152803718e-38
-37.304608 -26.072104 34.671137 -0.823253 -0.567675 0.000000 1.75027152803718e-38
-37.238379 -26.500001 34.308351 -0.809017 -0.587785 0.000000 1.75027152803718e-38
-35.690235 -28.302647 35.141503 -0.794290 -0.607539 0.000000 1.75027152803718e-38
-35.845108 -28.808708 34.728892 -0.779081 -0.626924 0.000000 1.75027152803718e-38
-34.456091 -29.396124 34.906957 -0.763398 -0.645928 0.000000 1.75027152803718e-38
-34.148006 -30.275602 34.548552 -0.747253 -0.664540 0.000000 1.75027152803718e-38
-33.317306 -31.562227 34.631775 -0.730653 -0.682749 0.000000 1.75027152803718e-38
-32.416908 -31.465988 34.253392 -0.713610 -0.700543 0.000000 1.75027152803718e-38
-31.781188 -32.216566 34.727162 -0.696134 -0.717912 0.000000 1.75027152803718e-38
-30.612334 -33.209975 34.776537 -0.678235 -0.734845 0.000000 1.75027152803718e-38
-29.399930 -34.066692 34.335772 -0.659925 -0.751332 0.000000 1.75027152803718e-38
-38.499010 -23.635281 35.560680 -0.850217 -0.526432 0.000000 1.75027152803718e-38
-38.296819 -24.802428 35.882127 -0.836989 -0.547220 0.000000 1.75027152803718e-38
-37.377358 -25.956234 36.435268 -0.823253 -0.567675 0.000000 1.75027152803718e-38
-37.069430 -25.979067 36.248866 -0.809017 -0.587785 0.000000 1.75027152803718e-38
-35.947730 -27.998897 36.149193 -0.794290 -0.607539 0.000000 1.75027152803718e-38
-35.323065 -29.206044 35.454909 -0.779081 -0.626924 0.000000 1.75027152803718e-38
-34.682285 -29.476212 35.721345 -0.763398 -0.645928 0.000000 1.75027152803718e-38
-33.730094 -30.549547 35.739716 -0.747253 -0.664540 0.000000 1.75027152803718e-38
-33.491421 -30.961168 35.360451 -0.730653 -0.682749 0.000000 1.75027152803718e-38
-32.669931 -32.441964 35.782426 -0.713610 -0.700543 0.000000 1.75027152803718e-38
-31.507289 -32.494400 35.658009 -0.696134 -0.717912 0.000000 1.75027152803718e-38
-30.748522 -33.543891 36.284614 -0.678235 -0.734845 0.000000 1.75027152803718e-38
-38.976063 -23.763370 36.563974 -0.850217 -0.526432 0.000000 1.75027152803718e-38
-38.418116 -24.653453 36.743763 -0.836989 -0.547220 0.000000 1.75027152803718e-38
-37.304383 -26.320993 36.838440 -0.823253 -0.567675 0.000000 1.75027152803718e-38
-37.073135 -26.341083 36.921400 -0.809017 -0.587785 0.000000 1.75027152803718e-38
-36.874793 -28.227834 37.392987 -0.794290 -0.607539 0.000000 1.75027152803718e-38
-36.065191 -28.338115 37.134339 -0.779081 -0.626924 0.000000 1.75027152803718e-38
-34.950667 -29.475144 36.873126 -0.763398 -0.645928 0.000000 1.75027152803718e-38
-34.160628 -30.774140 37.518069 -0.747253 -0.664540 0.000000 1.75027152803718e-38
-33.750418 -31.117971 36.802977 -0.730653 -0.682749 0.000000 1.75027152803718e-38
-32.822128 -32.176230 38.007806 -0.713610 -0.700543 0.000000 1.75027152803718e-38
-31.866609 -33.105519 36.980035 -0.696134 -0.717912 0.000000 1.75027152803718e-38
-38.589298 -25.576583 38.329222 -0.836989 -0.547220 0.000000 1.75027152803718e-38
-37.883180 -26.044691 38.509288 -0.823253 -0.567675 0.000000 1.75027152803718e-38
-37.053323 -27.252761 38.227267 -0.809017 -0.587785 0.000000 1.75027152803718e-38
-36.237631 -28.093403 38.231988 -0.794290 -0.607539 0.000000 1.75027152803718e-38
-36.268029 -28.830234 38.454097 -0.779081 -0.626924 0.000000 1.75027152803718e-38
-35.688433 -30.016390 37.923997 -0.763398 -0.645928 0.000000 1.75027152803718e-38
-34.117009 -31.124677 38.326910 -0.747253 -0.664540 0.000000 1.75027152803718e-38
-33.375030 -31.331734 38.218528 -0.730653 -0.682749 0.000000 1.75027152803718e-38
-38.748761 -25.375624 39.543182 -0.836989 -0.547220 0.000000 1.75027152803718e-38
-37.298820 -26.610401 39.912494 -0.823253 -0.567675 0.000000 1.75027152803718e-38
-37.190053 -26.682037 39.776349 -0.809017 -0.587785 0.000000 1.75027152803718e-38
-36.679377 -27.750200 39.656560 -0.794290 -0.607539 0.000000 1.75027152803718e-38
-35.751531 -28.522937 39.615385 -0.779081 -0.626924 0.000000 1.75027152803718e-38
-35.381124 -30.022165 39.722791 -0.763398 -0.645928 0.000000 1.75027152803718e-38
-34.771646 -30.793473 39.297358 -0.747253 -0.664540 0.000000 1.75027152803718e-38
-38.451999 -25.554556 40.721593 -0.836989 -0.547220 0.000000 1.75027152803718e-38
-37.876706 -25.937625 41.266529 -0.823253 -0.567675 0.000000 1.75027152803718e-38
-38.024127 -27.123133 40.905777 -0.809017 -0.587785 0.000000 1.75027152803718e-38
-36.863354 -28.164433 41.210474 -0.794290 -0.607539 0.000000 1.75027152803718e-38
-35.830832 -28.814614 40.886817 -0.779081 -0.626924 0.000000 1.75027152803718e-38
-34.733713 -30.085504 40.339954 -0.763398 -0.645928 0.000000 1.75027152803718e-38
-38.722605 -25.511194 42.397308 -0.836989 -0.547220 0.000000 1.75027152803718e-38
-38.545982 -26.817398 41.970429 -0.823253 -0.567675 0.000000 1.75027152803718e-38
-37.566215 -27.136119 42.499926 -0.809017 -0.587785 0.000000 1.75027152803718e-38
-36.931533 -28.088990 42.472489 -0.794290 -0.607539 0.000000 1.75027152803718e-38
-39.436080 -26.710203 43.768547 -0.823253 -0.567675 0.000000 1.75027152803718e-38
-37.979112 -28.097864 43.433769 -0.809017 -0.587785 0.000000 1.75027152803718e-38
-38.607554 -26.877141 44.302163 -0.823253 -0.567675 0.000000 1.75027152803718e-38
