# .PCD v0.7 - Point Cloud Data file format
VERSION 0.7
FIELDS x y z normal_x normal_y normal_z rgb
SIZE 4 4 4 4 4 4 4
TYPE F F F F F F F
COUNT 1 1 1 1 1 1 1
WIDTH 233
HEIGHT 1
VIEWPOINT 0 0 0 1 0 0 0
POINTS 233
DATA ascii
-27.926833 32.473140 14.924069 -0.659925 0.751332 0.000000 1.5843200949324314e-38
-29.166235 32.164020 14.415236 -0.678235 0.734845 0.000000 1.5843200949324314e-38
-29.423582 30.856968 14.423516 -0.696134 0.717912 0.000000 1.5843200949324314e-38
-26.709236 33.835672 16.674572 -0.622113 0.782928 0.000000 1.5843200949324314e-38
-27.669324 32.832745 16.067257 -0.641213 0.767363 0.000000 1.5843200949324314e-38
-28.577391 32.554149 16.090542 -0.659925 0.751332 0.000000 1.5843200949324314e-38
-29.647228 31.221520 16.161347 -0.678235 0.734845 0.000000 1.5843200949324314e-38
-29.626734 31.005302 16.326463 -0.696134 0.717912 0.000000 1.5843200949324314e-38
-30.492012 30.311980 15.838127 -0.713610 0.700543 0.000000 1.5843200949324314e-38
-25.882214 34.479938 17.265337 -0.602635 0.798017 0.000000 1.5843200949324314e-38
-27.200506 33.567253 17.871032 -0.622113 0.782928 0.000000 1.5843200949324314e-38
-27.175213 33.193675 17.404045 -0.641213 0.767363 0.000000 1.5843200949324314e-38
-28.841182 32.693784 17.847482 -0.659925 0.751332 0.000000 1.5843200949324314e-38
-29.797770 31.926987 17.481294 -0.678235 0.734845 0.000000 1.5843200949324314e-38
-29.954984 31.548180 17.930393 -0.696134 0.717912 0.000000 1.5843200949324314e-38
-30.939295 30.505946 17.344858 -0.713610 0.700543 0.000000 1.5843200949324314e-38
-31.796127 29.615500 17.521037 -0.730653 0.682749 0.000000 1.5843200949324314e-38
-25.231140 35.346734 18.010276 -0.582791 0.812622 0.000000 1.5843200949324314e-38
-26.047293 34.145114 18.069120 -0.602635 0.798017 0.000000 1.5843200949324314e-38
-26.921791 33.619612 18.554567 -0.622113 0.782928 0.000000 1.5843200949324314e-38
-27.766470 33.333734 18.285465 -0.641213 0.767363 0.000000 1.5843200949324314e-38
-28.349860 32.556828 18.689024 -0.659925 0.751332 0.000000 1.5843200949324314e-38
-29.772486 31.815099 18.885889 -0.678235 0.734845 0.000000 1.5843200949324314e-38
-29.898733 30.895061 18.393034 -0.696134 0.717912 0.000000 1.5843200949324314e-38
-31.244297 30.184075 18.136981 -0.713610 0.700543 0.000000 1.5843200949324314e-38
-31.728260 29.799246 18.321185 -0.730653 0.682749 0.000000 1.5843200949324314e-38
-32.433868 28.753485 18.873237 -0.747253 0.664540 0.000000 1.5843200949324314e-38
-33.290369 27.839904 18.302895 -0.763398 0.645928 0.000000 1.5843200949324314e-38
-24.482018 35.761878 19.647935 -0.562593 0.826734 0.000000 1.5843200949324314e-38
-25.783605 35.256485 19.837614 -0.582791 0.812622 0.000000 1.5843200949324314e-38
-25.690737 34.860005 19.534358 -0.602635 0.798017 0.000000 1.5843200949324314e-38
-27.484176 33.983377 20.037344 -0.622113 0.782928 0.000000 1.5843200949324314e-38
-27.949129 33.531102 19.739477 -0.641213 0.767363 0.000000 1.5843200949324314e-38
-28.481495 32.192236 20.275069 -0.659925 0.751332 0.000000 1.5843200949324314e-38
-29.826570 32.192605 19.712159 -0.678235 0.734845 0.000000 1.5843200949324314e-38
-30.305898 31.145827 19.870496 -0.696134 0.717912 0.000000 1.5843200949324314e-38
-30.893839 30.780386 20.216199 -0.713610 0.700543 0.000000 1.5843200949324314e-38
-31.672658 30.203205 19.821706 -0.730653 0.682749 0.000000 1.5843200949324314e-38
-32.170792 29.025921 19.629053 -0.747253 0.664540 0.000000 1.5843200949324314e-38
-33.141746 28.238915 19.784155 -0.763398 0.645928 0.000000 1.5843200949324314e-38
-24.056343 36.810745 21.116799 -0.542053 0.840344 0.000000 1.5843200949324314e-38
-24.502094 36.133753 20.845252 -0.562593 0.826734 0.000000 1.5843200949324314e-38
-25.359353 36.198692 21.383298 -0.582791 0.812622 0.000000 1.5843200949324314e-38
-26.366439 34.643222 20.172796 -0.602635 0.798017 0.000000 1.5843200949324314e-38
-26.808720 34.378182 20.867779 -0.622113 0.782928 0.000000 1.5843200949324314e-38
-28.391782 33.116858 21.164247 -0.641213 0.767363 0.000000 1.5843200949324314e-38
-28.805038 32.971840 21.056861 -0.659925 0.751332 0.000000 1.5843200949324314e-38
-29.286703 32.156267 21.279566 -0.678235 0.734845 0.000000 1.5843200949324314e-38
-30.984174 30.936668 20.921622 -0.696134 0.717912 0.000000 1.5843200949324314e-38
-30.795508 31.113702 20.981657 -0.713610 0.700543 0.000000 1.5843200949324314e-38
-32.046069 29.187077 21.289997 -0.730653 0.682749 0.000000 1.5843200949324314e-38
-32.751525 29.867017 20.809107 -0.747253 0.664540 0.000000 1.5843200949324314e-38
-32.658975 28.392383 20.722449 -0.763398 0.645928 0.000000 1.5843200949324314e-38
-33.904794 27.570542 20.963352 -0.779081 0.626924 0.000000 1.5843200949324314e-38
-23.813568 36.307089 21.956322 -0.542053 0.840344 0.000000 1.5843200949324314e-38
-24.444498 35.633967 21.833238 -0.562593 0.826734 0.000000 1.5843200949324314e-38
-25.329505 35.476354 22.059307 -0.582791 0.812622 0.000000 1.5843200949324314e-38
-26.506929 34.463063 22.413377 -0.602635 0.798017 0.000000 1.5843200949324314e-38
-27.452425 34.083580 22.372077 -0.622113 0.782928 0.000000 1.5843200949324314e-38
-28.122883 33.352119 21.671210 -0.641213 0.767363 0.000000 1.5843200949324314e-38
-28.754073 32.886045 22.112825 -0.659925 0.751332 0.000000 1.5843200949324314e-38
-29.976403 32.145058 22.412183 -0.678235 0.734845 0.000000 1.5843200949324314e-38
-30.418729 31.892018 22.479474 -0.696134 0.717912 0.000000 1.5843200949324314e-38
-31.244629 30.862388 22.282640 -0.713610 0.700543 0.000000 1.5843200949324314e-38
-31.944326 30.251518 21.998624 -0.730653 0.682749 0.000000 1.5843200949324314e-38
-32.676929 29.423096 22.360738 -0.747253 0.664540 0.000000 1.5843200949324314e-38
-33.500833 27.740264 21.586937 -0.763398 0.645928 0.000000 1.5843200949324314e-38
-33.453187 27.513442 22.092819 -0.779081 0.626924 0.000000 1.5843200949324314e-38
-22.885067 37.404588 23.316953 -0.521185 0.853444 0.000000 1.5843200949324314e-38
-24.491021 36.891887 23.292194 -0.542053 0.840344 0.000000 1.5843200949324314e-38
-25.006796 36.400258 23.069761 -0.562593 0.826734 0.000000 1.5843200949324314e-38
-25.328564 35.799514 23.385097 -0.582791 0.812622 0.000000 1.5843200949324314e-38
-26.460053 34.656556 23.730256 -0.602635 0.798017 0.000000 1.5843200949324314e-38
-27.239471 34.430109 23.655722 -0.622113 0.782928 0.000000 1.5843200949324314e-38
-28.326454 33.212913 23.792350 -0.641213 0.767363 0.000000 1.5843200949324314e-38
-28.748083 32.804659 23.627888 -0.659925 0.751332 0.000000 1.5843200949324314e-38
-29.380698 32.583501 23.335787 -0.678235 0.734845 0.000000 1.5843200949324314e-38
-30.990043 31.103776 23.411637 -0.696134 0.717912 0.000000 1.5843200949324314e-38
-30.871502 30.518333 23.326256 -0.713610 0.700543 0.000000 1.5843200949324314e-38
-32.243044 29.796614 23.501787 -0.730653 0.682749 0.000000 1.5843200949324314e-38
-33.170297 29.482522 23.461708 -0.747253 0.664540 0.000000 1.5843200949324314e-38
-32.750949 27.988521 23.982114 -0.763398 0.645928 0.000000 1.5843200949324314e-38
-21.925959 38.289857 24.823898 -0.500000 0.866025 0.000000 1.5843200949324314e-38
-22.939278 37.179828 24.433871 -0.521185 0.853444 0.000000 1.5843200949324314e-38
-24.266019 36.946705 24.811951 -0.542053 0.840344 0.000000 1.5843200949324314e-38
-25.199650 36.413938 24.479703 -0.562593 0.826734 0.000000 1.5843200949324314e-38
-25.974723 35.583365 24.406125 -0.582791 0.812622 0.000000 1.5843200949324314e-38
-26.345484 35.077662 24.986832 -0.602635 0.798017 0.000000 1.5843200949324314e-38
-27.517944 34.342125 25.304283 -0.622113 0.782928 0.000000 1.5843200949324314e-38
-28.712602 34.164020 25.238625 -0.641213 0.767363 0.000000 1.5843200949324314e-38
-28.819591 32.973872 25.170339 -0.659925 0.751332 0.000000 1.5843200949324314e-38
-29.951881 32.135536 24.625788 -0.678235 0.734845 0.000000 1.5843200949324314e-38
-30.814303 31.317906 25.075270 -0.696134 0.717912 0.000000 1.5843200949324314e-38
-31.644568 30.828435 24.309136 -0.713610 0.700543 0.000000 1.5843200949324314e-38
-32.153508 29.707266 24.388122 -0.730653 0.682749 0.000000 1.5843200949324314e-38
-32.926229 29.569605 24.874392 -0.747253 0.664540 0.000000 1.5843200949324314e-38
-33.451429 28.394248 24.641576 -0.763398 0.645928 0.000000 1.5843200949324314e-38
-21.191941 38.774456 26.587374 -0.478512 0.878081 0.000000 1.5843200949324314e-38
-21.714347 38.329341 26.012301 -0.500000 0.866025 0.000000 1.5843200949324314e-38
-22.930335 37.843921 25.855422 -0.521185 0.853444 0.000000 1.5843200949324314e-38
-24.195102 37.426704 25.985976 -0.542053 0.840344 0.000000 1.5843200949324314e-38
-24.564461 37.009752 26.135566 -0.562593 0.826734 0.000000 1.5843200949324314e-38
-25.633631 36.852675 26.041487 -0.582791 0.812622 0.000000 1.5843200949324314e-38
-26.944848 35.163142 26.444887 -0.602635 0.798017 0.000000 1.5843200949324314e-38
-27.866263 34.355281 26.311309 -0.622113 0.782928 0.000000 1.5843200949324314e-38
-28.403146 33.860460 26.301393 -0.641213 0.767363 0.000000 1.5843200949324314e-38
-29.363160 32.744891 25.562716 -0.659925 0.751332 0.000000 1.5843200949324314e-38
-29.782337 32.535003 25.771611 -0.678235 0.734845 0.000000 1.5843200949324314e-38
-31.095079 31.628178 26.314337 -0.696134 0.717912 0.000000 1.5843200949324314e-38
-31.770091 30.743381 25.622225 -0.713610 0.700543 0.000000 1.5843200949324314e-38
-32.382339 30.257661 26.613932 -0.730653 0.682749 0.000000 1.5843200949324314e-38
-32.939957 29.335878 26.238262 -0.747253 0.664540 0.000000 1.5843200949324314e-38
-33.509566 28.356607 26.669999 -0.763398 0.645928 0.000000 1.5843200949324314e-38
-20.480455 39.000083 27.545443 -0.456733 0.889604 0.000000 1.5843200949324314e-38
-20.938430 38.961822 27.105333 -0.478512 0.878081 0.000000 1.5843200949324314e-38
-22.601510 38.646496 27.572335 -0.500000 0.866025 0.000000 1.5843200949324314e-38
-23.305067 37.599821 27.588813 -0.521185 0.853444 0.000000 1.5843200949324314e-38
-24.218887 37.781678 27.183779 -0.542053 0.840344 0.000000 1.5843200949324314e-38
-25.052698 36.658239 27.100505 -0.562593 0.826734 0.000000 1.5843200949324314e-38
-25.494128 36.284948 27.542927 -0.582791 0.812622 0.000000 1.5843200949324314e-38
-26.656216 35.234931 27.213776 -0.602635 0.798017 0.000000 1.5843200949324314e-38
-27.702644 35.142974 27.517177 -0.622113 0.782928 0.000000 1.5843200949324314e-38
-28.449015 33.735143 27.678747 -0.641213 0.767363 0.000000 1.5843200949324314e-38
-29.209921 33.263476 27.681391 -0.659925 0.751332 0.000000 1.5843200949324314e-38
-30.215521 32.476071 27.147267 -0.678235 0.734845 0.000000 1.5843200949324314e-38
-31.250867 31.915918 26.987791 -0.696134 0.717912 0.000000 1.5843200949324314e-38
-31.801740 30.839997 27.040374 -0.713610 0.700543 0.000000 1.5843200949324314e-38
-32.637622 30.336771 27.169817 -0.730653 0.682749 0.000000 1.5843200949324314e-38
-33.107308 30.161650 27.169826 -0.747253 0.664540 0.000000 1.5843200949324314e-38
-33.655880 28.846163 27.197638 -0.763398 0.645928 0.000000 1.5843200949324314e-38
-19.911579 40.141610 28.329259 -0.456733 0.889604 0.000000 1.5843200949324314e-38
-21.338452 38.811616 28.643570 -0.478512 0.878081 0.000000 1.5843200949324314e-38
-21.784642 38.903161 28.444908 -0.500000 0.866025 0.000000 1.5843200949324314e-38
-23.437200 37.969103 28.867844 -0.521185 0.853444 0.000000 1.5843200949324314e-38
-24.234159 36.839256 28.345605 -0.542053 0.840344 0.000000 1.5843200949324314e-38
-25.111435 36.232039 28.523219 -0.562593 0.826734 0.000000 1.5843200949324314e-38
-25.774455 36.708613 28.053895 -0.582791 0.812622 0.000000 1.5843200949324314e-38
-26.589890 35.790966 28.609495 -0.602635 0.798017 0.000000 1.5843200949324314e-38
-27.977601 34.510154 28.482767 -0.622113 0.782928 0.000000 1.5843200949324314e-38
-28.498220 33.969375 28.841099 -0.641213 0.767363 0.000000 1.5843200949324314e-38
-29.477894 32.855942 28.386391 -0.659925 0.751332 0.000000 1.5843200949324314e-38
-30.028158 32.793197 28.553875 -0.678235 0.734845 0.000000 1.5843200949324314e-38
-30.520298 31.602881 28.326496 -0.696134 0.717912 0.000000 1.5843200949324314e-38
-31.282432 30.574434 28.437500 -0.713610 0.700543 0.000000 1.5843200949324314e-38
-32.135453 30.737245 28.651643 -0.730653 0.682749 0.000000 1.5843200949324314e-38
-33.036945 29.250695 28.865561 -0.747253 0.664540 0.000000 1.5843200949324314e-38
-34.320861 28.392892 28.569970 -0.763398 0.645928 0.000000 1.5843200949324314e-38
-19.352300 40.244197 29.454293 -0.434676 0.900587 0.000000 1.5843200949324314e-38
-20.600724 39.513871 29.210951 -0.456733 0.889604 0.000000 1.5843200949324314e-38
-21.324566 39.197609 29.919311 -0.478512 0.878081 0.000000 1.5843200949324314e-38
-21.948751 39.068729 30.116261 -0.500000 0.866025 0.000000 1.5843200949324314e-38
-23.500079 37.680035 29.969945 -0.521185 0.853444 0.000000 1.5843200949324314e-38
-23.790174 37.991466 29.836221 -0.542053 0.840344 0.000000 1.5843200949324314e-38
-25.720990 37.026615 29.857354 -0.562593 0.826734 0.000000 1.5843200949324314e-38
-25.648270 36.715674 29.963612 -0.582791 0.812622 0.000000 1.5843200949324314e-38
-27.086190 35.325873 29.850910 -0.602635 0.798017 0.000000 1.5843200949324314e-38
-28.017509 35.403338 29.179354 -0.622113 0.782928 0.000000 1.5843200949324314e-38
-28.462631 34.361622 29.628692 -0.641213 0.767363 0.000000 1.5843200949324314e-38
-29.745761 32.931391 29.531293 -0.659925 0.751332 0.000000 1.5843200949324314e-38
-30.440031 33.147239 29.455865 -0.678235 0.734845 0.000000 1.5843200949324314e-38
-30.949288 31.669919 29.834796 -0.696134 0.717912 0.000000 1.5843200949324314e-38
-32.536810 31.910591 29.648401 -0.713610 0.700543 0.000000 1.5843200949324314e-38
-33.464886 30.272097 29.428023 -0.730653 0.682749 0.000000 1.5843200949324314e-38
-33.564510 29.564940 29.491937 -0.747253 0.664540 0.000000 1.5843200949324314e-38
-34.333660 28.495624 29.937258 -0.763398 0.645928 0.000000 1.5843200949324314e-38
-18.865323 41.441331 31.059624 -0.412356 0.911023 0.000000 1.5843200949324314e-38
-19.513956 40.887265 30.537155 -0.434676 0.900587 0.000000 1.5843200949324314e-38
-20.515129 40.478245 30.884623 -0.456733 0.889604 0.000000 1.5843200949324314e-38
-20.716228 39.597492 31.319613 -0.478512 0.878081 0.000000 1.5843200949324314e-38
-22.013067 38.821864 30.781372 -0.500000 0.866025 0.000000 1.5843200949324314e-38
-23.397824 37.961307 30.908046 -0.521185 0.853444 0.000000 1.5843200949324314e-38
-24.299986 38.176934 31.105818 -0.542053 0.840344 0.000000 1.5843200949324314e-38
-24.510600 36.412209 30.562722 -0.562593 0.826734 0.000000 1.5843200949324314e-38
-26.231400 36.875230 30.894962 -0.582791 0.812622 0.000000 1.5843200949324314e-38
-27.454694 35.699238 30.568556 -0.602635 0.798017 0.000000 1.5843200949324314e-38
-28.305584 35.696000 30.822352 -0.622113 0.782928 0.000000 1.5843200949324314e-38
-28.691769 34.370735 30.852386 -0.641213 0.767363 0.000000 1.5843200949324314e-38
-29.834683 33.586818 31.029006 -0.659925 0.751332 0.000000 1.5843200949324314e-38
-29.977704 33.225179 30.562115 -0.678235 0.734845 0.000000 1.5843200949324314e-38
-30.909087 32.324521 30.740419 -0.696134 0.717912 0.000000 1.5843200949324314e-38
-31.934424 31.574979 30.941951 -0.713610 0.700543 0.000000 1.5843200949324314e-38
-32.608967 30.346747 31.525685 -0.730653 0.682749 0.000000 1.5843200949324314e-38
-34.075928 29.962746 31.037864 -0.747253 0.664540 0.000000 1.5843200949324314e-38
-18.434008 41.376052 31.675712 -0.412356 0.911023 0.000000 1.5843200949324314e-38
-19.351810 40.828258 32.445800 -0.434676 0.900587 0.000000 1.5843200949324314e-38
-20.677551 40.192779 31.932251 -0.456733 0.889604 0.000000 1.5843200949324314e-38
-21.623601 39.205724 31.937349 -0.478512 0.878081 0.000000 1.5843200949324314e-38
-22.575107 38.828743 31.937311 -0.500000 0.866025 0.000000 1.5843200949324314e-38
-23.846136 38.998110 32.014780 -0.521185 0.853444 0.000000 1.5843200949324314e-38
-24.296466 37.292528 32.572243 -0.542053 0.840344 0.000000 1.5843200949324314e-38
-25.269696 37.074535 32.034406 -0.562593 0.826734 0.000000 1.5843200949324314e-38
-25.968038 35.686658 31.917690 -0.582791 0.812622 0.000000 1.5843200949324314e-38
-27.157680 35.876089 32.916542 -0.602635 0.798017 0.000000 1.5843200949324314e-38
-28.099861 35.533223 32.708446 -0.622113 0.782928 0.000000 1.5843200949324314e-38
-28.657029 34.333501 31.779602 -0.641213 0.767363 0.000000 1.5843200949324314e-38
-29.476697 34.307677 32.328737 -0.659925 0.751332 0.000000 1.5843200949324314e-38
-30.154368 33.849749 32.416161 -0.678235 0.734845 0.000000 1.5843200949324314e-38
-31.660141 32.325401 32.576013 -0.696134 0.717912 0.000000 1.5843200949324314e-38
-32.191113 31.980096 32.144867 -0.713610 0.700543 0.000000 1.5843200949324314e-38
-18.905516 41.345325 33.473833 -0.412356 0.911023 0.000000 1.5843200949324314e-38
-19.772155 40.708131 33.335844 -0.434676 0.900587 0.000000 1.5843200949324314e-38
-20.296323 40.068402 33.592575 -0.456733 0.889604 0.000000 1.5843200949324314e-38
-21.835231 39.924270 33.713254 -0.478512 0.878081 0.000000 1.5843200949324314e-38
-22.269367 39.576507 33.489795 -0.500000 0.866025 0.000000 1.5843200949324314e-38
-23.180668 39.053900 33.065446 -0.521185 0.853444 0.000000 1.5843200949324314e-38
-24.676058 37.525966 33.720405 -0.542053 0.840344 0.000000 1.5843200949324314e-38
-25.875810 36.825700 33.072844 -0.562593 0.826734 0.000000 1.5843200949324314e-38
-26.857473 36.803596 33.076699 -0.582791 0.812622 0.000000 1.5843200949324314e-38
-27.739806 36.049388 33.407195 -0.602635 0.798017 0.000000 1.5843200949324314e-38
-28.673864 35.165949 33.379670 -0.622113 0.782928 0.000000 1.5843200949324314e-38
-29.083117 34.577844 33.755848 -0.641213 0.767363 0.000000 1.5843200949324314e-38
-29.177656 33.858277 33.005497 -0.659925 0.751332 0.000000 1.5843200949324314e-38
-19.325429 40.951641 34.044419 -0.434676 0.900587 0.000000 1.5843200949324314e-38
-21.031572 40.166121 34.771786 -0.456733 0.889604 0.000000 1.5843200949324314e-38
-22.029861 39.891668 34.238330 -0.478512 0.878081 0.000000 1.5843200949324314e-38
-22.687288 39.409757 35.077628 -0.500000 0.866025 0.000000 1.5843200949324314e-38
-23.576804 38.482797 35.087077 -0.521185 0.853444 0.000000 1.5843200949324314e-38
-24.652406 38.365444 34.455307 -0.542053 0.840344 0.000000 1.5843200949324314e-38
-25.502262 37.275400 34.735853 -0.562593 0.826734 0.000000 1.5843200949324314e-38
-26.204890 36.726971 34.473873 -0.582791 0.812622 0.000000 1.5843200949324314e-38
-27.239482 35.965150 34.183792 -0.602635 0.798017 0.000000 1.5843200949324314e-38
-19.936295 40.915821 35.964297 -0.434676 0.900587 0.000000 1.5843200949324314e-38
-20.813325 40.692909 35.844190 -0.456733 0.889604 0.000000 1.5843200949324314e-38
-21.980647 40.073288 35.601133 -0.478512 0.878081 0.000000 1.5843200949324314e-38
-22.615244 39.380855 35.937644 -0.500000 0.866025 0.000000 1.5843200949324314e-38
-23.685421 39.373589 35.990764 -0.521185 0.853444 0.000000 1.5843200949324314e-38
-24.680480 38.088434 36.117004 -0.542053 0.840344 0.000000 1.5843200949324314e-38
-25.719529 37.218271 35.817762 -0.562593 0.826734 0.000000 1.5843200949324314e-38
-20.184163 41.536523 36.475416 -0.434676 0.900587 0.000000 1.5843200949324314e-38
-21.045362 40.532686 37.013689 -0.456733 0.889604 0.000000 1.5843200949324314e-38
-21.823299 40.308932 37.305323 -0.478512 0.878081 0.000000 1.5843200949324314e-38
-22.658665 39.586804 37.746013 -0.500000 0.866025 0.000000 1.5843200949324314e-38
-20.952090 41.187088 38.267924 -0.456733 0.889604 0.000000 1.5843200949324314e-38
