# .PCD v0.7 - Point Cloud Data file format
VERSION 0.7
FIELDS x y z normal_x normal_y normal_z rgb
SIZE 4 4 4 4 4 4 4
TYPE F F F F F F F
COUNT 1 1 1 1 1 1 1
WIDTH 267
HEIGHT 1
VIEWPOINT 0 0 0 1 0 0 0
POINTS 267
DATA ascii
-17.581190 -33.474331 24.742712 -0.302932 -0.590038 -0.748390 1.6119787838914282e-38
-16.914288 -33.911134 24.380649 -0.288303 -0.597322 -0.748390 1.6119787838914282e-38
-15.526012 -33.928754 24.881188 -0.273499 -0.604244 -0.748390 1.6119787838914282e-38
-14.626290 -34.840426 24.762328 -0.258529 -0.610799 -0.748390 1.6119787838914282e-38
-13.651642 -34.893686 24.712502 -0.243402 -0.616983 -0.748390 1.6119787838914282e-38
-12.888088 -35.757775 24.521967 -0.228127 -0.622793 -0.748390 1.6119787838914282e-38
-18.912812 -33.785449 25.750339 -0.318743 -0.584901 -0.745851 1.6119787838914282e-38
-17.644298 -35.024695 26.281896 -0.304235 -0.592576 -0.745851 1.6119787838914282e-38
-17.181136 -35.459152 25.765679 -0.289543 -0.599892 -0.745851 1.6119787838914282e-38
-16.269701 -35.456344 26.000197 -0.274676 -0.606844 -0.745851 1.6119787838914282e-38
-15.550674 -35.972081 25.636331 -0.259641 -0.613427 -0.745851 1.6119787838914282e-38
-14.138386 -36.079744 25.972197 -0.244449 -0.619637 -0.745851 1.6119787838914282e-38
-13.350582 -36.144241 25.932101 -0.229109 -0.625472 -0.745851 1.6119787838914282e-38
-12.807826 -36.815921 25.639585 -0.213629 -0.630927 -0.745851 1.6119787838914282e-38
-11.672586 -37.466721 25.768835 -0.198020 -0.635998 -0.745851 1.6119787838914282e-38
-10.762260 -37.291764 26.311082 -0.182290 -0.640684 -0.745851 1.6119787838914282e-38
-9.480703 -37.712730 25.902066 -0.166450 -0.644981 -0.745851 1.6119787838914282e-38
-9.531319 -37.932286 25.295582 -0.150509 -0.648886 -0.745851 1.6119787838914282e-38
-8.461031 -38.296937 26.058755 -0.134476 -0.652397 -0.745851 1.6119787838914282e-38
-7.074609 -37.970409 26.118012 -0.118362 -0.655512 -0.745851 1.6119787838914282e-38
-6.065156 -38.174476 26.448915 -0.102176 -0.658229 -0.745851 1.6119787838914282e-38
-4.883979 -38.958819 25.814300 -0.085928 -0.660547 -0.745851 1.6119787838914282e-38
-4.516123 -38.851329 25.664369 -0.069628 -0.662463 -0.745851 1.6119787838914282e-38
-3.222701 -38.849207 25.384269 -0.053285 -0.663978 -0.745851 1.6119787838914282e-38
-2.543081 -39.144592 25.963623 -0.036910 -0.665089 -0.745851 1.6119787838914282e-38
-1.350792 -39.115171 25.767525 -0.020513 -0.665797 -0.745851 1.6119787838914282e-38
-0.675381 -39.212222 25.915431 -0.004103 -0.666100 -0.745851 1.6119787838914282e-38
0.628531 -39.012330 26.105050 0.012309 -0.665999 -0.745851 1.6119787838914282e-38
-19.119686 -35.472539 27.175445 -0.322345 -0.591511 -0.739059 1.6119787838914282e-38
-18.717857 -36.549162 27.643949 -0.307674 -0.599273 -0.739059 1.6119787838914282e-38
-17.634247 -36.535253 27.015001 -0.292816 -0.606672 -0.739059 1.6119787838914282e-38
-16.293227 -36.563861 26.926323 -0.277780 -0.613702 -0.739059 1.6119787838914282e-38
-15.407806 -37.271305 27.033332 -0.262576 -0.620359 -0.739059 1.6119787838914282e-38
-14.923272 -37.839689 26.820232 -0.247212 -0.626640 -0.739059 1.6119787838914282e-38
-13.671362 -38.024997 27.401658 -0.231698 -0.632541 -0.739059 1.6119787838914282e-38
-12.878609 -38.125265 26.602699 -0.216043 -0.638057 -0.739059 1.6119787838914282e-38
-12.277502 -38.426814 26.834046 -0.200258 -0.643186 -0.739059 1.6119787838914282e-38
-10.950960 -39.299199 27.221428 -0.184351 -0.647925 -0.739059 1.6119787838914282e-38
-9.618571 -38.910366 26.661273 -0.168331 -0.652270 -0.739059 1.6119787838914282e-38
-8.879613 -38.833070 28.055600 -0.152210 -0.656219 -0.739059 1.6119787838914282e-38
-8.018613 -40.002155 27.346898 -0.135996 -0.659770 -0.739059 1.6119787838914282e-38
-6.704382 -39.838007 27.529428 -0.119700 -0.662921 -0.739059 1.6119787838914282e-38
-6.452768 -39.835074 26.469621 -0.103331 -0.665668 -0.739059 1.6119787838914282e-38
-5.499919 -40.089265 27.107488 -0.086899 -0.668012 -0.739059 1.6119787838914282e-38
-4.615769 -40.353637 27.315391 -0.070415 -0.669950 -0.739059 1.6119787838914282e-38
-3.259651 -40.277362 27.436085 -0.053887 -0.671482 -0.739059 1.6119787838914282e-38
-2.342968 -39.955331 26.919714 -0.037327 -0.672606 -0.739059 1.6119787838914282e-38
-0.666495 -40.072109 27.109696 -0.020745 -0.673321 -0.739059 1.6119787838914282e-38
-0.335813 -40.362405 27.396096 -0.004150 -0.673628 -0.739059 1.6119787838914282e-38
1.075378 -40.820468 27.347728 0.012448 -0.673526 -0.739059 1.6119787838914282e-38
-21.073048 -35.752668 28.945751 -0.342965 -0.594033 -0.727667 1.6119787838914282e-38
-20.013073 -36.318585 28.948796 -0.328226 -0.602303 -0.727667 1.6119787838914282e-38
-19.083671 -37.112185 28.673693 -0.313287 -0.610207 -0.727667 1.6119787838914282e-38
-18.405458 -37.576734 29.096444 -0.298158 -0.617740 -0.727667 1.6119787838914282e-38
-17.370582 -37.789435 28.610750 -0.282848 -0.624898 -0.727667 1.6119787838914282e-38
-16.327134 -38.391809 28.979394 -0.267366 -0.631677 -0.727667 1.6119787838914282e-38
-15.159470 -38.634734 28.933867 -0.251722 -0.638073 -0.727667 1.6119787838914282e-38
-14.450612 -39.527545 28.984112 -0.235925 -0.644081 -0.727667 1.6119787838914282e-38
-13.352352 -39.287374 28.224909 -0.219985 -0.649698 -0.727667 1.6119787838914282e-38
-12.298140 -40.202504 28.472730 -0.203911 -0.654921 -0.727667 1.6119787838914282e-38
-11.622927 -40.430483 28.362671 -0.187714 -0.659746 -0.727667 1.6119787838914282e-38
-11.123481 -40.784536 28.688332 -0.171402 -0.664170 -0.727667 1.6119787838914282e-38
-9.331743 -41.003650 28.617970 -0.154987 -0.668192 -0.727667 1.6119787838914282e-38
-8.694356 -40.684936 28.418917 -0.138477 -0.671807 -0.727667 1.6119787838914282e-38
-7.518161 -41.124144 29.221467 -0.121884 -0.675015 -0.727667 1.6119787838914282e-38
-6.633491 -41.199208 28.688019 -0.105216 -0.677813 -0.727667 1.6119787838914282e-38
-5.675912 -41.890750 28.273279 -0.088485 -0.680200 -0.727667 1.6119787838914282e-38
-4.137416 -41.635229 28.384276 -0.071699 -0.682173 -0.727667 1.6119787838914282e-38
-3.067441 -41.869473 28.426982 -0.054871 -0.683733 -0.727667 1.6119787838914282e-38
-2.768213 -41.601024 28.522460 -0.038008 -0.684877 -0.727667 1.6119787838914282e-38
-1.047384 -42.085172 28.396042 -0.021123 -0.685605 -0.727667 1.6119787838914282e-38
-0.640789 -41.834441 28.898145 -0.004225 -0.685918 -0.727667 1.6119787838914282e-38
0.675479 -42.164047 28.249644 0.012675 -0.685814 -0.727667 1.6119787838914282e-38
1.316904 -42.111316 28.654904 0.029568 -0.685293 -0.727667 1.6119787838914282e-38
-21.492983 -37.184666 29.588384 -0.351550 -0.608903 -0.711090 1.6119787838914282e-38
-21.033622 -37.156963 29.761980 -0.336442 -0.617380 -0.711090 1.6119787838914282e-38
-19.522857 -38.419296 29.222118 -0.321129 -0.625481 -0.711090 1.6119787838914282e-38
-18.735426 -38.862284 29.903582 -0.305621 -0.633203 -0.711090 1.6119787838914282e-38
-17.477854 -38.985019 29.987203 -0.289928 -0.640541 -0.711090 1.6119787838914282e-38
-16.237044 -39.522975 30.020486 -0.274059 -0.647490 -0.711090 1.6119787838914282e-38
-15.648266 -40.611280 29.644366 -0.258023 -0.654045 -0.711090 1.6119787838914282e-38
-15.065428 -40.348868 29.453419 -0.241831 -0.660204 -0.711090 1.6119787838914282e-38
-13.623112 -40.476481 30.051793 -0.225492 -0.665961 -0.711090 1.6119787838914282e-38
-12.310359 -41.601336 29.331022 -0.209016 -0.671315 -0.711090 1.6119787838914282e-38
-10.901346 -41.098461 29.758056 -0.192413 -0.676261 -0.711090 1.6119787838914282e-38
-10.746481 -41.696030 29.110598 -0.175693 -0.680796 -0.711090 1.6119787838914282e-38
-9.957662 -41.964877 29.475964 -0.158867 -0.684918 -0.711090 1.6119787838914282e-38
-8.865471 -41.390599 29.615226 -0.141944 -0.688624 -0.711090 1.6119787838914282e-38
-7.565186 -42.286758 29.867559 -0.124935 -0.691912 -0.711090 1.6119787838914282e-38
-6.745854 -42.161009 29.823790 -0.107850 -0.694780 -0.711090 1.6119787838914282e-38
-5.938858 -42.717116 29.639077 -0.090699 -0.697226 -0.711090 1.6119787838914282e-38
-4.564827 -42.655923 29.881139 -0.073494 -0.699249 -0.711090 1.6119787838914282e-38
-3.288318 -42.804896 29.716413 -0.056244 -0.700848 -0.711090 1.6119787838914282e-38
-3.030522 -42.745013 29.837228 -0.038960 -0.702021 -0.711090 1.6119787838914282e-38
-1.620987 -42.939925 29.885103 -0.021652 -0.702768 -0.711090 1.6119787838914282e-38
0.086222 -42.890607 29.787202 -0.004331 -0.703088 -0.711090 1.6119787838914282e-38
1.079447 -43.129127 29.814323 0.012993 -0.702981 -0.711090 1.6119787838914282e-38
1.669166 -42.671415 29.207808 0.030308 -0.702447 -0.711090 1.6119787838914282e-38
-23.437387 -37.703187 31.199568 -0.377995 -0.618969 -0.688474 1.6119787838914282e-38
-22.126469 -37.499577 30.651906 -0.362630 -0.628094 -0.688474 1.6119787838914282e-38
-21.044743 -38.475237 31.247538 -0.347046 -0.636838 -0.688474 1.6119787838914282e-38
-20.017801 -39.051502 30.944453 -0.331250 -0.645195 -0.688474 1.6119787838914282e-38
-18.739281 -39.473708 30.672167 -0.315254 -0.653160 -0.688474 1.6119787838914282e-38
-18.153820 -40.784725 31.384372 -0.299066 -0.660729 -0.688474 1.6119787838914282e-38
-17.184086 -40.353306 30.895028 -0.282696 -0.667897 -0.688474 1.6119787838914282e-38
-16.798827 -40.379385 30.967162 -0.266155 -0.674659 -0.688474 1.6119787838914282e-38
-15.522741 -41.214529 31.538592 -0.249453 -0.681012 -0.688474 1.6119787838914282e-38
-14.254900 -41.950463 30.999249 -0.232599 -0.686951 -0.688474 1.6119787838914282e-38
-13.490332 -42.464874 31.462413 -0.215603 -0.692473 -0.688474 1.6119787838914282e-38
-12.151587 -42.820270 30.792222 -0.198477 -0.697575 -0.688474 1.6119787838914282e-38
-10.737610 -43.447257 31.004230 -0.181230 -0.702253 -0.688474 1.6119787838914282e-38
-9.261609 -42.504637 31.099796 -0.163874 -0.706505 -0.688474 1.6119787838914282e-38
-8.540089 -42.955202 30.890079 -0.146417 -0.710328 -0.688474 1.6119787838914282e-38
-7.586905 -43.017654 30.548706 -0.128872 -0.713719 -0.688474 1.6119787838914282e-38
-6.615896 -43.626322 30.958784 -0.111249 -0.716678 -0.688474 1.6119787838914282e-38
-5.704928 -43.819249 31.022507 -0.093558 -0.719201 -0.688474 1.6119787838914282e-38
-4.290693 -43.873137 30.874472 -0.075810 -0.721288 -0.688474 1.6119787838914282e-38
-3.792406 -44.258443 31.006185 -0.058017 -0.722937 -0.688474 1.6119787838914282e-38
-2.664252 -43.906782 31.056852 -0.040188 -0.724147 -0.688474 1.6119787838914282e-38
-1.019886 -44.429199 30.678515 -0.022334 -0.724917 -0.688474 1.6119787838914282e-38
0.068187 -44.218718 30.867080 -0.004468 -0.725247 -0.688474 1.6119787838914282e-38
1.027448 -44.052552 30.551106 0.013402 -0.725137 -0.688474 1.6119787838914282e-38
2.323226 -44.340527 31.437840 0.031263 -0.724587 -0.688474 1.6119787838914282e-38
-22.705614 -38.837308 31.937899 -0.376220 -0.651633 -0.658660 1.6119787838914282e-38
-21.479142 -39.759739 31.907689 -0.360051 -0.660704 -0.658660 1.6119787838914282e-38
-21.053328 -40.888065 32.310622 -0.343664 -0.669374 -0.658660 1.6119787838914282e-38
-19.748225 -41.123890 31.602117 -0.327068 -0.677638 -0.658660 1.6119787838914282e-38
-18.586365 -41.401946 31.950840 -0.310274 -0.685490 -0.658660 1.6119787838914282e-38
-17.980955 -41.869967 32.305947 -0.293291 -0.692927 -0.658660 1.6119787838914282e-38
-16.755562 -42.578144 32.147511 -0.276130 -0.699942 -0.658660 1.6119787838914282e-38
-15.297614 -42.607065 32.185476 -0.258801 -0.706533 -0.658660 1.6119787838914282e-38
-14.654214 -43.257730 31.888079 -0.241315 -0.712695 -0.658660 1.6119787838914282e-38
-13.991466 -42.982048 32.303685 -0.223683 -0.718424 -0.658660 1.6119787838914282e-38
-12.396369 -43.567017 32.266807 -0.205915 -0.723717 -0.658660 1.6119787838914282e-38
-11.562144 -44.046044 32.022686 -0.188022 -0.728570 -0.658660 1.6119787838914282e-38
-9.502132 -43.908497 32.215313 -0.170015 -0.732981 -0.658660 1.6119787838914282e-38
-8.753317 -44.081900 31.750791 -0.151905 -0.736948 -0.658660 1.6119787838914282e-38
-8.131958 -44.670966 32.348407 -0.133702 -0.740466 -0.658660 1.6119787838914282e-38
-7.029394 -44.880773 32.026544 -0.115418 -0.743536 -0.658660 1.6119787838914282e-38
-5.540383 -45.442132 32.036742 -0.097064 -0.746154 -0.658660 1.6119787838914282e-38
-5.297479 -45.448614 32.260102 -0.078651 -0.748319 -0.658660 1.6119787838914282e-38
-3.529962 -45.336866 32.502144 -0.060191 -0.750029 -0.658660 1.6119787838914282e-38
-2.108823 -45.339398 32.240078 -0.041694 -0.751284 -0.658660 1.6119787838914282e-38
-1.533501 -45.178771 31.806730 -0.023171 -0.752084 -0.658660 1.6119787838914282e-38
0.259161 -45.045507 31.805271 -0.004635 -0.752426 -0.658660 1.6119787838914282e-38
0.602022 -45.254239 32.063473 0.013904 -0.752312 -0.658660 1.6119787838914282e-38
2.119915 -45.453993 32.622392 0.032435 -0.751741 -0.658660 1.6119787838914282e-38
3.075648 -44.558039 32.345751 0.050946 -0.750714 -0.658660 1.6119787838914282e-38
-22.490414 -40.853696 33.560298 -0.375380 -0.688832 -0.620162 1.6119787838914282e-38
-20.969616 -40.971802 33.469078 -0.358295 -0.697871 -0.620162 1.6119787838914282e-38
-20.493927 -41.593152 33.618829 -0.340992 -0.706486 -0.620162 1.6119787838914282e-38
-19.686048 -41.863972 32.655939 -0.323483 -0.714673 -0.620162 1.6119787838914282e-38
-17.783495 -42.938572 33.613715 -0.305777 -0.722426 -0.620162 1.6119787838914282e-38
-16.882059 -43.192285 33.537388 -0.287885 -0.729740 -0.620162 1.6119787838914282e-38
-15.992008 -43.373558 34.057643 -0.269819 -0.736612 -0.620162 1.6119787838914282e-38
-15.289708 -44.924319 33.277360 -0.251589 -0.743036 -0.620162 1.6119787838914282e-38
-13.944769 -44.434585 33.124130 -0.233206 -0.749009 -0.620162 1.6119787838914282e-38
-12.441678 -45.062246 33.537294 -0.214681 -0.754527 -0.620162 1.6119787838914282e-38
-11.408003 -44.852334 33.548205 -0.196027 -0.759587 -0.620162 1.6119787838914282e-38
-10.203855 -45.203344 33.298113 -0.177253 -0.764186 -0.620162 1.6119787838914282e-38
-9.225449 -45.283990 33.668966 -0.158371 -0.768321 -0.620162 1.6119787838914282e-38
-8.762114 -45.736246 33.082451 -0.139394 -0.771990 -0.620162 1.6119787838914282e-38
-6.952135 -45.652527 33.319738 -0.120332 -0.775190 -0.620162 1.6119787838914282e-38
-6.206911 -45.852955 33.362089 -0.101196 -0.777919 -0.620162 1.6119787838914282e-38
-4.424260 -45.633718 33.702275 -0.082000 -0.780176 -0.620162 1.6119787838914282e-38
-3.643528 -45.723464 33.474278 -0.062753 -0.781960 -0.620162 1.6119787838914282e-38
-2.715953 -46.551180 33.191011 -0.043469 -0.783268 -0.620162 1.6119787838914282e-38
-1.431414 -46.258955 32.977515 -0.024158 -0.784102 -0.620162 1.6119787838914282e-38
-0.420622 -46.355161 33.595150 -0.004832 -0.784459 -0.620162 1.6119787838914282e-38
0.850012 -46.338618 33.030505 0.014496 -0.784340 -0.620162 1.6119787838914282e-38
1.727465 -46.395007 33.555227 0.033816 -0.783744 -0.620162 1.6119787838914282e-38
-21.913119 -41.484334 34.828219 -0.392771 -0.720746 -0.571188 1.6119787838914282e-38
-21.272367 -41.951962 34.613361 -0.374895 -0.730204 -0.571188 1.6119787838914282e-38
-20.602064 -42.739232 34.772439 -0.356791 -0.739219 -0.571188 1.6119787838914282e-38
-19.572164 -42.940596 34.336449 -0.338470 -0.747785 -0.571188 1.6119787838914282e-38
-18.408522 -43.130314 34.571788 -0.319944 -0.755897 -0.571188 1.6119787838914282e-38
-16.819982 -43.988224 34.622223 -0.301223 -0.763550 -0.571188 1.6119787838914282e-38
-16.247656 -44.545408 34.045008 -0.282320 -0.770739 -0.571188 1.6119787838914282e-38
-14.918463 -44.181837 34.783304 -0.263245 -0.777461 -0.571188 1.6119787838914282e-38
-13.910776 -45.254876 34.986512 -0.244010 -0.783711 -0.571188 1.6119787838914282e-38
-12.967067 -45.452939 34.169610 -0.224628 -0.789485 -0.571188 1.6119787838914282e-38
-11.988336 -45.728263 34.911339 -0.205109 -0.794779 -0.571188 1.6119787838914282e-38
-10.416118 -46.589758 34.195841 -0.185465 -0.799591 -0.571188 1.6119787838914282e-38
-9.381931 -46.589585 34.907553 -0.165709 -0.803918 -0.571188 1.6119787838914282e-38
-8.900993 -46.616456 34.628904 -0.145852 -0.807757 -0.571188 1.6119787838914282e-38
-7.117465 -47.089388 34.049146 -0.125907 -0.811105 -0.571188 1.6119787838914282e-38
-6.055479 -46.786819 34.941412 -0.105885 -0.813961 -0.571188 1.6119787838914282e-38
-5.055973 -46.848251 34.784907 -0.085799 -0.816322 -0.571188 1.6119787838914282e-38
-3.390230 -47.205196 34.120205 -0.065661 -0.818188 -0.571188 1.6119787838914282e-38
-2.643493 -47.241022 34.794634 -0.045483 -0.819558 -0.571188 1.6119787838914282e-38
-1.917652 -47.411451 34.899606 -0.025277 -0.820430 -0.571188 1.6119787838914282e-38
-0.322839 -47.431112 35.211073 -0.005056 -0.820803 -0.571188 1.6119787838914282e-38
0.553795 -46.962260 34.945550 0.015168 -0.820679 -0.571188 1.6119787838914282e-38
-22.269541 -42.668637 36.265656 -0.392933 -0.765338 -0.509767 1.6119787838914282e-38
-20.833895 -43.668179 35.641051 -0.373958 -0.774786 -0.509767 1.6119787838914282e-38
-19.441805 -44.248112 36.506821 -0.354755 -0.783764 -0.509767 1.6119787838914282e-38
-18.200731 -43.690203 35.990499 -0.335338 -0.792267 -0.509767 1.6119787838914282e-38
-17.768110 -44.672545 36.148864 -0.315717 -0.800288 -0.509767 1.6119787838914282e-38
-16.752272 -45.531454 35.791108 -0.295904 -0.807824 -0.509767 1.6119787838914282e-38
-15.670066 -45.223030 35.691360 -0.275911 -0.814869 -0.509767 1.6119787838914282e-38
-14.281643 -45.666905 36.260241 -0.255751 -0.821419 -0.509767 1.6119787838914282e-38
-13.111042 -46.185147 35.571191 -0.235436 -0.827471 -0.509767 1.6119787838914282e-38
-11.721969 -46.231889 35.315183 -0.214978 -0.833020 -0.509767 1.6119787838914282e-38
-10.347976 -47.103356 36.054678 -0.194389 -0.838064 -0.509767 1.6119787838914282e-38
-9.694962 -47.165015 35.814333 -0.173682 -0.842599 -0.509767 1.6119787838914282e-38
-8.851470 -47.214875 35.790475 -0.152870 -0.846622 -0.509767 1.6119787838914282e-38
-7.776806 -47.878886 35.488555 -0.131965 -0.850131 -0.509767 1.6119787838914282e-38
-6.367151 -47.590338 35.662953 -0.110980 -0.853125 -0.509767 1.6119787838914282e-38
-4.739167 -47.910135 35.789467 -0.089927 -0.855600 -0.509767 1.6119787838914282e-38
-3.845740 -47.565263 35.464887 -0.068820 -0.857556 -0.509767 1.6119787838914282e-38
-2.170492 -47.776069 35.869792 -0.047671 -0.858991 -0.509767 1.6119787838914282e-38
-1.127507 -48.211987 35.961992 -0.026493 -0.859905 -0.509767 1.6119787838914282e-38
-0.458952 -47.847220 35.664112 -0.005299 -0.860296 -0.509767 1.6119787838914282e-38
0.874129 -47.926115 36.190746 0.015898 -0.860166 -0.509767 1.6119787838914282e-38
-21.197353 -43.731496 37.103155 -0.391593 -0.811325 -0.434059 1.6119787838914282e-38
-20.130418 -44.425010 36.994358 -0.371485 -0.820726 -0.434059 1.6119787838914282e-38
-18.871529 -44.792688 37.359077 -0.351152 -0.829630 -0.434059 1.6119787838914282e-38
-17.717899 -44.798261 37.429191 -0.330606 -0.838029 -0.434059 1.6119787838914282e-38
-16.848023 -45.689823 37.537211 -0.309858 -0.845920 -0.434059 1.6119787838914282e-38
-15.936714 -45.621122 36.881010 -0.288923 -0.853297 -0.434059 1.6119787838914282e-38
-14.238013 -46.595001 37.098122 -0.267812 -0.860157 -0.434059 1.6119787838914282e-38
-13.746535 -46.668029 36.726895 -0.246539 -0.866494 -0.434059 1.6119787838914282e-38
-12.627949 -46.907169 37.650284 -0.225116 -0.872305 -0.434059 1.6119787838914282e-38
-11.227345 -47.240260 37.352360 -0.203556 -0.877586 -0.434059 1.6119787838914282e-38
-9.879986 -47.397698 37.064315 -0.181873 -0.882335 -0.434059 1.6119787838914282e-38
-8.516648 -48.402806 36.750093 -0.160079 -0.886548 -0.434059 1.6119787838914282e-38
-7.135308 -48.060389 37.070665 -0.138188 -0.890223 -0.434059 1.6119787838914282e-38
-5.723236 -47.826353 37.245152 -0.116213 -0.893357 -0.434059 1.6119787838914282e-38
-5.538032 -48.569445 36.863628 -0.094168 -0.895949 -0.434059 1.6119787838914282e-38
-3.877131 -48.927805 36.754534 -0.072066 -0.897998 -0.434059 1.6119787838914282e-38
-3.383048 -48.678156 36.423773 -0.049919 -0.899500 -0.434059 1.6119787838914282e-38
-1.598973 -48.571849 36.896773 -0.027743 -0.900457 -0.434059 1.6119787838914282e-38
-0.626074 -48.822743 36.864820 -0.005549 -0.900868 -0.434059 1.6119787838914282e-38
-20.194179 -45.152198 37.598420 -0.387349 -0.855773 -0.342947 1.6119787838914282e-38
-19.239143 -45.772293 38.543523 -0.366147 -0.865057 -0.342947 1.6119787838914282e-38
-18.666644 -46.107887 38.430819 -0.344723 -0.873815 -0.342947 1.6119787838914282e-38
-16.854506 -46.332383 38.910719 -0.323090 -0.882043 -0.342947 1.6119787838914282e-38
-15.349064 -46.927394 38.833338 -0.301261 -0.889736 -0.342947 1.6119787838914282e-38
-14.135328 -47.134847 38.364136 -0.279248 -0.896888 -0.342947 1.6119787838914282e-38
-13.514387 -47.638162 38.186815 -0.257067 -0.903495 -0.342947 1.6119787838914282e-38
-11.930361 -47.631633 38.184259 -0.234729 -0.909555 -0.342947 1.6119787838914282e-38
-11.423460 -48.279466 38.301359 -0.212248 -0.915062 -0.342947 1.6119787838914282e-38
-9.684447 -48.570072 38.621026 -0.189639 -0.920013 -0.342947 1.6119787838914282e-38
-8.706003 -48.499879 38.658254 -0.166915 -0.924406 -0.342947 1.6119787838914282e-38
-7.313452 -49.165302 38.025311 -0.144089 -0.928238 -0.342947 1.6119787838914282e-38
-6.432092 -48.808777 38.759888 -0.121176 -0.931506 -0.342947 1.6119787838914282e-38
-5.136630 -48.546385 38.138513 -0.098189 -0.934209 -0.342947 1.6119787838914282e-38
-4.107207 -49.261342 38.105347 -0.075143 -0.936344 -0.342947 1.6119787838914282e-38
-20.493929 -45.354461 40.005403 -0.400621 -0.885095 -0.236874 1.6119787838914282e-38
-19.387615 -46.188202 39.737219 -0.378693 -0.894697 -0.236874 1.6119787838914282e-38
-17.704762 -45.877734 39.256749 -0.356535 -0.903755 -0.236874 1.6119787838914282e-38
-17.176513 -46.681385 39.582064 -0.334160 -0.912265 -0.236874 1.6119787838914282e-38
-15.826533 -47.182442 39.312942 -0.311583 -0.920221 -0.236874 1.6119787838914282e-38
-14.490531 -47.794732 39.346994 -0.288816 -0.927618 -0.236874 1.6119787838914282e-38
-13.941284 -47.623638 39.619570 -0.265875 -0.934452 -0.236874 1.6119787838914282e-38
-12.155320 -48.363475 39.211725 -0.242771 -0.940719 -0.236874 1.6119787838914282e-38
-11.364022 -48.474063 39.650358 -0.219521 -0.946415 -0.236874 1.6119787838914282e-38
-10.539232 -48.537697 39.319357 -0.196137 -0.951536 -0.236874 1.6119787838914282e-38
-9.026310 -48.561651 38.932670 -0.172634 -0.956080 -0.236874 1.6119787838914282e-38
-19.910055 -45.945506 41.043621 -0.387032 -0.914400 -0.118656 1.6119787838914282e-38
-17.935367 -46.082220 41.083552 -0.364386 -0.923658 -0.118656 1.6119787838914282e-38
-17.422806 -47.135570 41.061080 -0.341519 -0.932355 -0.118656 1.6119787838914282e-38
-15.586577 -47.601635 41.212942 -0.318445 -0.940486 -0.118656 1.6119787838914282e-38
-15.419049 -47.555479 40.793600 -0.295177 -0.948046 -0.118656 1.6119787838914282e-38
-13.725171 -48.014296 40.568623 -0.271730 -0.955031 -0.118656 1.6119787838914282e-38
-18.465359 -46.365189 41.917560 -0.366977 -0.930224 0.003484 1.6119787838914282e-38
-16.960172 -46.493807 42.085120 -0.343947 -0.938983 0.003484 1.6119787838914282e-38
