# .PCD v0.7 - Point Cloud Data file format
VERSION 0.7
FIELDS x y z normal_x normal_y normal_z rgb
SIZE 4 4 4 4 4 4 4
TYPE F F F F F F F
COUNT 1 1 1 1 1 1 1
WIDTH 194
HEIGHT 1
VIEWPOINT 0 0 0 1 0 0 0
POINTS 194
DATA ascii
-20.833712 -35.886715 61.228254 -0.396052 -0.685982 0.610387 1.6580765988230895e-38
-26.052695 -30.914824 62.331092 -0.504352 -0.603576 0.617516 1.6580765988230895e-38
-25.267029 -31.979270 61.424618 -0.489328 -0.615818 0.617516 1.6580765988230895e-38
-24.277622 -32.676287 62.559934 -0.474007 -0.627687 0.617516 1.6580765988230895e-38
-22.831957 -33.062527 61.356170 -0.458399 -0.639175 0.617516 1.6580765988230895e-38
-22.649388 -32.942027 61.461987 -0.442512 -0.650275 0.617516 1.6580765988230895e-38
-21.442053 -34.679030 61.419410 -0.426357 -0.660980 0.617516 1.6580765988230895e-38
-21.071361 -34.351264 61.835738 -0.409942 -0.671284 0.617516 1.6580765988230895e-38
-20.168958 -34.835862 62.221726 -0.393279 -0.681180 0.617516 1.6580765988230895e-38
-31.121995 -24.600776 62.423317 -0.610269 -0.491082 0.621619 1.6580765988230895e-38
-30.417209 -25.414428 63.460159 -0.597985 -0.505968 0.621619 1.6580765988230895e-38
-29.472448 -26.537656 63.077504 -0.585338 -0.520547 0.621619 1.6580765988230895e-38
-28.868734 -26.589488 63.368963 -0.572335 -0.534811 0.621619 1.6580765988230895e-38
-28.002317 -27.743214 62.771488 -0.558985 -0.548749 0.621619 1.6580765988230895e-38
-28.009918 -28.541557 63.302613 -0.545295 -0.562355 0.621619 1.6580765988230895e-38
-27.029333 -28.950589 62.854378 -0.531275 -0.575619 0.621619 1.6580765988230895e-38
-26.345236 -29.353222 63.322845 -0.516932 -0.588533 0.621619 1.6580765988230895e-38
-25.503523 -30.660098 63.377458 -0.502275 -0.601090 0.621619 1.6580765988230895e-38
-24.391677 -30.836019 63.039435 -0.487313 -0.613283 0.621619 1.6580765988230895e-38
-24.211063 -31.630237 63.515063 -0.472056 -0.625103 0.621619 1.6580765988230895e-38
-23.368969 -32.190359 63.583521 -0.456511 -0.636543 0.621619 1.6580765988230895e-38
-22.387077 -32.802097 62.687663 -0.440690 -0.647597 0.621619 1.6580765988230895e-38
-21.294861 -33.525398 62.626402 -0.424601 -0.658258 0.621619 1.6580765988230895e-38
-20.940862 -33.759833 62.618752 -0.408254 -0.668519 0.621619 1.6580765988230895e-38
-20.230973 -34.153196 63.071068 -0.391660 -0.678375 0.621619 1.6580765988230895e-38
-32.772300 -20.242458 64.141812 -0.665211 -0.411881 0.622774 1.6580765988230895e-38
-32.163983 -21.269838 64.694870 -0.654862 -0.428145 0.622774 1.6580765988230895e-38
-31.302867 -22.182478 64.347864 -0.644114 -0.444150 0.622774 1.6580765988230895e-38
-30.974109 -22.633139 63.924140 -0.632976 -0.459884 0.622774 1.6580765988230895e-38
-30.437166 -23.661048 64.390038 -0.621454 -0.475339 0.622774 1.6580765988230895e-38
-30.407030 -23.990096 64.203584 -0.609554 -0.490506 0.622774 1.6580765988230895e-38
-29.232621 -25.027389 64.185527 -0.597284 -0.505375 0.622774 1.6580765988230895e-38
-28.755101 -26.004532 64.869367 -0.584652 -0.519937 0.622774 1.6580765988230895e-38
-28.181575 -26.555801 64.210095 -0.571664 -0.534184 0.622774 1.6580765988230895e-38
-27.573336 -26.774860 64.061542 -0.558330 -0.548106 0.622774 1.6580765988230895e-38
-27.013847 -27.759710 64.792638 -0.544656 -0.561695 0.622774 1.6580765988230895e-38
-25.911739 -27.922210 64.339208 -0.530652 -0.574944 0.622774 1.6580765988230895e-38
-25.074014 -28.656241 64.538925 -0.516326 -0.587843 0.622774 1.6580765988230895e-38
-24.547616 -29.834332 64.878388 -0.501686 -0.600386 0.622774 1.6580765988230895e-38
-24.116091 -30.089581 64.532906 -0.486742 -0.612564 0.622774 1.6580765988230895e-38
-23.701184 -30.855983 64.390909 -0.471502 -0.624370 0.622774 1.6580765988230895e-38
-22.556892 -31.416864 64.777702 -0.455976 -0.635797 0.622774 1.6580765988230895e-38
-21.990440 -32.331094 64.153950 -0.440173 -0.646838 0.622774 1.6580765988230895e-38
-20.725246 -32.223940 64.511699 -0.424103 -0.657486 0.622774 1.6580765988230895e-38
-19.868481 -32.905891 64.174493 -0.407776 -0.667736 0.622774 1.6580765988230895e-38
-19.606848 -33.847575 64.261746 -0.391201 -0.677580 0.622774 1.6580765988230895e-38
-31.938547 -19.715614 65.711844 -0.666407 -0.412622 0.621004 1.6580765988230895e-38
-30.970962 -20.901672 65.578968 -0.656038 -0.428915 0.621004 1.6580765988230895e-38
-30.790262 -21.167513 65.372666 -0.645272 -0.444948 0.621004 1.6580765988230895e-38
-30.652941 -22.275840 66.078047 -0.634114 -0.460711 0.621004 1.6580765988230895e-38
-30.209310 -22.979360 65.799646 -0.622571 -0.476194 0.621004 1.6580765988230895e-38
-29.669576 -23.534764 64.997151 -0.610649 -0.491388 0.621004 1.6580765988230895e-38
-28.694501 -24.312225 65.616093 -0.598357 -0.506283 0.621004 1.6580765988230895e-38
-28.404855 -24.960618 65.555296 -0.585702 -0.520872 0.621004 1.6580765988230895e-38
-27.129247 -25.523386 65.132316 -0.572692 -0.535144 0.621004 1.6580765988230895e-38
-27.126860 -26.569838 65.621126 -0.559333 -0.549091 0.621004 1.6580765988230895e-38
-26.269604 -27.091081 66.412330 -0.545635 -0.562705 0.621004 1.6580765988230895e-38
-25.698604 -27.259603 65.522802 -0.531606 -0.575977 0.621004 1.6580765988230895e-38
-25.508651 -28.240421 65.902780 -0.517254 -0.588900 0.621004 1.6580765988230895e-38
-23.960329 -28.824750 65.574128 -0.502588 -0.601465 0.621004 1.6580765988230895e-38
-23.579368 -29.218955 65.436749 -0.487617 -0.613665 0.621004 1.6580765988230895e-38
-22.889455 -29.932964 65.476988 -0.472350 -0.625492 0.621004 1.6580765988230895e-38
-21.565698 -30.466051 65.333619 -0.456796 -0.636940 0.621004 1.6580765988230895e-38
-21.532653 -31.309813 66.268397 -0.440965 -0.648001 0.621004 1.6580765988230895e-38
-20.486920 -31.422849 65.175316 -0.424866 -0.658668 0.621004 1.6580765988230895e-38
-19.954592 -32.200244 66.077340 -0.408509 -0.668936 0.621004 1.6580765988230895e-38
-19.218990 -32.806503 65.837519 -0.391904 -0.678797 0.621004 1.6580765988230895e-38
-31.718278 -18.690734 67.089510 -0.679585 -0.397960 0.616273 1.6580765988230895e-38
-30.842661 -19.601970 66.355149 -0.669574 -0.414582 0.616273 1.6580765988230895e-38
-30.737458 -20.418898 66.421007 -0.659156 -0.430953 0.616273 1.6580765988230895e-38
-30.516357 -20.513344 66.999239 -0.648338 -0.447062 0.616273 1.6580765988230895e-38
-28.944617 -21.757722 67.203074 -0.637127 -0.462900 0.616273 1.6580765988230895e-38
-28.993474 -22.456789 66.760121 -0.625529 -0.478457 0.616273 1.6580765988230895e-38
-28.751871 -22.923463 67.100134 -0.613551 -0.493723 0.616273 1.6580765988230895e-38
-28.118736 -23.443808 67.185493 -0.601201 -0.508689 0.616273 1.6580765988230895e-38
-26.967621 -24.733063 66.789378 -0.588486 -0.523347 0.616273 1.6580765988230895e-38
-26.593955 -25.375255 66.411251 -0.575413 -0.537687 0.616273 1.6580765988230895e-38
-26.189421 -25.825971 66.752420 -0.561991 -0.551700 0.616273 1.6580765988230895e-38
-25.681721 -25.691357 66.665629 -0.548228 -0.565379 0.616273 1.6580765988230895e-38
-24.707942 -26.804999 66.297479 -0.534132 -0.578714 0.616273 1.6580765988230895e-38
-23.772002 -27.377724 66.851209 -0.519712 -0.591698 0.616273 1.6580765988230895e-38
-23.208115 -28.167948 67.068703 -0.504976 -0.604323 0.616273 1.6580765988230895e-38
-23.387438 -28.479414 66.859214 -0.489934 -0.616581 0.616273 1.6580765988230895e-38
-22.050160 -29.530978 66.738475 -0.474594 -0.628464 0.616273 1.6580765988230895e-38
-21.456322 -30.155874 66.911614 -0.458967 -0.639966 0.616273 1.6580765988230895e-38
-20.168898 -30.758269 66.951197 -0.443060 -0.651080 0.616273 1.6580765988230895e-38
-20.013417 -30.991986 66.826553 -0.426885 -0.661798 0.616273 1.6580765988230895e-38
-19.094670 -31.256423 66.464864 -0.410450 -0.672115 0.616273 1.6580765988230895e-38
-18.017421 -31.749089 66.982271 -0.393766 -0.682023 0.616273 1.6580765988230895e-38
-31.623620 -18.151966 68.219525 -0.684785 -0.401005 0.608494 1.6580765988230895e-38
-30.566040 -18.641552 68.036390 -0.674697 -0.417755 0.608494 1.6580765988230895e-38
-29.579134 -19.772560 67.968772 -0.664200 -0.434251 0.608494 1.6580765988230895e-38
-29.855591 -20.310548 67.914771 -0.653300 -0.450483 0.608494 1.6580765988230895e-38
-28.618010 -21.188892 67.914118 -0.642003 -0.466442 0.608494 1.6580765988230895e-38
-28.582403 -21.699118 68.637792 -0.630316 -0.482118 0.608494 1.6580765988230895e-38
-28.885737 -22.414232 68.393554 -0.618246 -0.497501 0.608494 1.6580765988230895e-38
-27.430461 -22.920806 68.394450 -0.605801 -0.512582 0.608494 1.6580765988230895e-38
-26.782064 -23.939684 68.321861 -0.592989 -0.527352 0.608494 1.6580765988230895e-38
-25.957506 -24.413216 68.224611 -0.579816 -0.541801 0.608494 1.6580765988230895e-38
-25.209075 -25.046195 68.132874 -0.566292 -0.555922 0.608494 1.6580765988230895e-38
-24.716012 -25.789437 68.397629 -0.552423 -0.569705 0.608494 1.6580765988230895e-38
-24.542502 -26.295266 68.271489 -0.538219 -0.583143 0.608494 1.6580765988230895e-38
-23.895925 -26.583568 68.098325 -0.523689 -0.596226 0.608494 1.6580765988230895e-38
-22.512894 -27.233908 67.992404 -0.508840 -0.608947 0.608494 1.6580765988230895e-38
-22.158508 -27.893619 68.648221 -0.493683 -0.621299 0.608494 1.6580765988230895e-38
-21.506630 -28.554424 67.982596 -0.478226 -0.633274 0.608494 1.6580765988230895e-38
-20.766357 -29.375159 67.926408 -0.462479 -0.644864 0.608494 1.6580765988230895e-38
-20.404988 -29.803517 68.282467 -0.446450 -0.656062 0.608494 1.6580765988230895e-38
-19.359597 -30.247914 67.996153 -0.430151 -0.666862 0.608494 1.6580765988230895e-38
-18.695667 -30.477600 67.589106 -0.413591 -0.677258 0.608494 1.6580765988230895e-38
-18.192297 -31.375385 67.771359 -0.396779 -0.687242 0.608494 1.6580765988230895e-38
-30.444296 -17.649479 69.077779 -0.691943 -0.405197 0.597520 1.6580765988230895e-38
-29.816164 -18.388493 69.422121 -0.681750 -0.422122 0.597520 1.6580765988230895e-38
-29.309046 -19.452403 68.990727 -0.671143 -0.438790 0.597520 1.6580765988230895e-38
-28.137163 -19.587054 68.991030 -0.660129 -0.455192 0.597520 1.6580765988230895e-38
-27.762239 -20.523390 69.961758 -0.648713 -0.471318 0.597520 1.6580765988230895e-38
-27.557910 -20.969057 69.529537 -0.636904 -0.487157 0.597520 1.6580765988230895e-38
-26.661539 -21.944891 69.698216 -0.624709 -0.502701 0.597520 1.6580765988230895e-38
-26.748821 -22.582857 69.281027 -0.612134 -0.517940 0.597520 1.6580765988230895e-38
-25.723779 -23.221077 69.773567 -0.599187 -0.532864 0.597520 1.6580765988230895e-38
-25.024413 -23.743687 68.988535 -0.585877 -0.547465 0.597520 1.6580765988230895e-38
-24.529019 -25.003386 69.500739 -0.572211 -0.561733 0.597520 1.6580765988230895e-38
-24.468433 -24.602151 68.862606 -0.558198 -0.575660 0.597520 1.6580765988230895e-38
-23.797174 -25.436756 69.458834 -0.543845 -0.589238 0.597520 1.6580765988230895e-38
-23.149247 -26.241482 69.564141 -0.529163 -0.602458 0.597520 1.6580765988230895e-38
-22.008340 -26.805149 69.096211 -0.514159 -0.615313 0.597520 1.6580765988230895e-38
-22.056502 -27.165095 69.522139 -0.498844 -0.627794 0.597520 1.6580765988230895e-38
-20.922665 -28.043714 69.814306 -0.483225 -0.639893 0.597520 1.6580765988230895e-38
-20.908640 -28.010918 69.343364 -0.467313 -0.651604 0.597520 1.6580765988230895e-38
-19.434251 -29.001441 69.232626 -0.451117 -0.662920 0.597520 1.6580765988230895e-38
-18.772202 -29.264681 68.740222 -0.434648 -0.673833 0.597520 1.6580765988230895e-38
-17.620359 -29.499668 69.288728 -0.417914 -0.684337 0.597520 1.6580765988230895e-38
-17.367275 -29.627370 69.055532 -0.400927 -0.694426 0.597520 1.6580765988230895e-38
-29.003941 -17.521814 70.430524 -0.701011 -0.410507 0.583154 1.6580765988230895e-38
-28.654156 -18.134435 70.191682 -0.690684 -0.427653 0.583154 1.6580765988230895e-38
-28.502869 -18.441097 70.826610 -0.679938 -0.444540 0.583154 1.6580765988230895e-38
-27.829155 -18.498923 70.312436 -0.668779 -0.461157 0.583154 1.6580765988230895e-38
-27.194237 -20.251868 70.998757 -0.657215 -0.477494 0.583154 1.6580765988230895e-38
-26.509440 -20.375109 69.994564 -0.645251 -0.493541 0.583154 1.6580765988230895e-38
-26.191171 -21.491224 70.651551 -0.632895 -0.509289 0.583154 1.6580765988230895e-38
-26.306789 -21.808515 70.409398 -0.620156 -0.524727 0.583154 1.6580765988230895e-38
-25.556710 -22.342465 70.500074 -0.607039 -0.539847 0.583154 1.6580765988230895e-38
-24.822200 -22.916152 71.086651 -0.593555 -0.554639 0.583154 1.6580765988230895e-38
-24.100449 -24.282119 70.047980 -0.579710 -0.569094 0.583154 1.6580765988230895e-38
-23.570235 -24.020991 70.555876 -0.565513 -0.583204 0.583154 1.6580765988230895e-38
-22.830876 -24.920412 70.804093 -0.550972 -0.596960 0.583154 1.6580765988230895e-38
-22.178846 -25.767356 70.649804 -0.536098 -0.610353 0.583154 1.6580765988230895e-38
-22.192524 -25.870335 70.430713 -0.520897 -0.623376 0.583154 1.6580765988230895e-38
-21.034239 -26.435009 70.599955 -0.505381 -0.636021 0.583154 1.6580765988230895e-38
-19.997119 -27.033353 70.572139 -0.489557 -0.648279 0.583154 1.6580765988230895e-38
-19.350933 -26.969483 70.510151 -0.473437 -0.660143 0.583154 1.6580765988230895e-38
-19.219029 -28.155505 70.650681 -0.457029 -0.671607 0.583154 1.6580765988230895e-38
-18.430371 -29.002744 70.852379 -0.440343 -0.682663 0.583154 1.6580765988230895e-38
-17.417538 -28.577906 70.918702 -0.423391 -0.693305 0.583154 1.6580765988230895e-38
-16.887048 -29.270104 70.817461 -0.406181 -0.703526 0.583154 1.6580765988230895e-38
-29.306459 -15.922503 71.525079 -0.721965 -0.399223 0.565144 1.6580765988230895e-38
-28.856641 -17.047329 71.998971 -0.711910 -0.416889 0.565144 1.6580765988230895e-38
-27.281388 -17.624460 71.817300 -0.701423 -0.434302 0.565144 1.6580765988230895e-38
-27.544377 -18.228267 72.174858 -0.690510 -0.451452 0.565144 1.6580765988230895e-38
-26.524851 -18.924014 72.272895 -0.679177 -0.468327 0.565144 1.6580765988230895e-38
-26.877875 -19.699832 71.710777 -0.667433 -0.484918 0.565144 1.6580765988230895e-38
-25.966865 -20.092293 71.973915 -0.655283 -0.501215 0.565144 1.6580765988230895e-38
-25.657383 -20.295264 71.911773 -0.642735 -0.517207 0.565144 1.6580765988230895e-38
-24.748359 -21.585918 71.691541 -0.629798 -0.532886 0.565144 1.6580765988230895e-38
-24.674850 -22.199379 71.450447 -0.616478 -0.548241 0.565144 1.6580765988230895e-38
-24.011642 -22.344894 71.786368 -0.602783 -0.563263 0.565144 1.6580765988230895e-38
-23.245806 -23.463030 71.635259 -0.588723 -0.577943 0.565144 1.6580765988230895e-38
-23.340403 -23.663742 71.898938 -0.574305 -0.592272 0.565144 1.6580765988230895e-38
-21.992872 -24.617867 71.864304 -0.559539 -0.606241 0.565144 1.6580765988230895e-38
-21.359972 -25.109597 71.381703 -0.544433 -0.619843 0.565144 1.6580765988230895e-38
-21.615299 -25.151086 71.534934 -0.528996 -0.633068 0.565144 1.6580765988230895e-38
-20.398841 -25.917232 72.292848 -0.513238 -0.645909 0.565144 1.6580765988230895e-38
-19.662727 -26.591790 71.661950 -0.497169 -0.658358 0.565144 1.6580765988230895e-38
-28.438365 -15.520576 72.640430 -0.734754 -0.406295 0.543195 1.6580765988230895e-38
-27.397460 -16.408772 73.099578 -0.724521 -0.424274 0.543195 1.6580765988230895e-38
-27.596303 -16.773649 73.189456 -0.713848 -0.441996 0.543195 1.6580765988230895e-38
-27.450800 -17.822020 72.942704 -0.702742 -0.459449 0.543195 1.6580765988230895e-38
-26.662764 -18.015216 72.810533 -0.691209 -0.476623 0.543195 1.6580765988230895e-38
-25.832420 -18.778764 72.957308 -0.679256 -0.493508 0.543195 1.6580765988230895e-38
-25.345821 -20.021525 72.971183 -0.666891 -0.510094 0.543195 1.6580765988230895e-38
-25.315321 -20.216331 72.848869 -0.654121 -0.526369 0.543195 1.6580765988230895e-38
-24.560153 -20.793266 73.031317 -0.640954 -0.542326 0.543195 1.6580765988230895e-38
-24.004810 -21.223334 72.612071 -0.627398 -0.557952 0.543195 1.6580765988230895e-38
-23.371086 -22.435373 72.151382 -0.613461 -0.573240 0.543195 1.6580765988230895e-38
-22.383446 -22.836131 72.855279 -0.599152 -0.588181 0.543195 1.6580765988230895e-38
-22.971645 -23.250019 73.051729 -0.584479 -0.602764 0.543195 1.6580765988230895e-38
-21.763427 -24.020888 72.856595 -0.569451 -0.616981 0.543195 1.6580765988230895e-38
-26.964522 -16.433403 74.110879 -0.727786 -0.450626 0.516976 1.6580765988230895e-38
-26.770206 -17.219182 74.209765 -0.716463 -0.468420 0.516976 1.6580765988230895e-38
-26.243855 -18.425188 74.311588 -0.704705 -0.485930 0.516976 1.6580765988230895e-38
-25.504686 -18.533623 74.450554 -0.692519 -0.503144 0.516976 1.6580765988230895e-38
-25.539350 -19.071668 74.425578 -0.679912 -0.520053 0.516976 1.6580765988230895e-38
-24.534641 -20.123705 74.028555 -0.666893 -0.536647 0.516976 1.6580765988230895e-38
-24.122526 -20.769694 74.338216 -0.653469 -0.552914 0.516976 1.6580765988230895e-38
