# .PCD v0.7 - Point Cloud Data file format
VERSION 0.7
FIELDS x y z normal_x normal_y normal_z rgb
SIZE 4 4 4 4 4 4 4
TYPE F F F F F F F
COUNT 1 1 1 1 1 1 1
WIDTH 274
HEIGHT 1
VIEWPOINT 0 0 0 1 0 0 0
POINTS 274
DATA ascii
-1.736245 -57.213826 105.161279 -0.030795 -0.999526 0.000000 1.5658809689597668e-38
-3.377443 -56.856484 105.753857 -0.055411 -0.998464 0.000000 1.5658809689597668e-38
-1.614458 -57.098280 105.865447 -0.030795 -0.999526 0.000000 1.5658809689597668e-38
-0.242636 -56.878399 106.149737 -0.006160 -0.999981 0.000000 1.5658809689597668e-38
1.247752 -57.429103 105.703254 0.018479 -0.999829 0.000000 1.5658809689597668e-38
2.407364 -57.242112 106.017974 0.043107 -0.999070 0.000000 1.5658809689597668e-38
4.032515 -56.833746 106.883817 0.067708 -0.997705 0.000000 1.5658809689597668e-38
5.387076 -56.619946 106.129777 0.092268 -0.995734 0.000000 1.5658809689597668e-38
6.017381 -56.045520 106.539573 0.116773 -0.993159 0.000000 1.5658809689597668e-38
8.534005 -56.812133 106.693703 0.141206 -0.989980 0.000000 1.5658809689597668e-38
-3.594482 -56.879018 107.750340 -0.055411 -0.998464 0.000000 1.5658809689597668e-38
-2.005094 -57.112778 107.744954 -0.030795 -0.999526 0.000000 1.5658809689597668e-38
-0.559330 -57.322785 107.259947 -0.006160 -0.999981 0.000000 1.5658809689597668e-38
1.662036 -57.240396 107.261063 0.018479 -0.999829 0.000000 1.5658809689597668e-38
1.931386 -57.297817 107.708942 0.043107 -0.999070 0.000000 1.5658809689597668e-38
3.790171 -56.873825 107.843452 0.067708 -0.997705 0.000000 1.5658809689597668e-38
5.224177 -56.904713 108.098582 0.092268 -0.995734 0.000000 1.5658809689597668e-38
6.889890 -56.604009 107.525940 0.116773 -0.993159 0.000000 1.5658809689597668e-38
8.266922 -56.432143 107.723261 0.141206 -0.989980 0.000000 1.5658809689597668e-38
9.669960 -56.224170 107.173092 0.165554 -0.986201 0.000000 1.5658809689597668e-38
10.855956 -56.406473 107.818855 0.189801 -0.981823 0.000000 1.5658809689597668e-38
11.747201 -55.797194 107.646216 0.213933 -0.976848 0.000000 1.5658809689597668e-38
13.244402 -55.494251 107.859184 0.237935 -0.971281 0.000000 1.5658809689597668e-38
14.784008 -55.031449 107.781156 0.261793 -0.965124 0.000000 1.5658809689597668e-38
15.984227 -54.720821 107.565611 0.285492 -0.958381 0.000000 1.5658809689597668e-38
-5.040947 -57.082407 108.637262 -0.079994 -0.996795 0.000000 1.5658809689597668e-38
-3.254066 -57.031110 108.254135 -0.055411 -0.998464 0.000000 1.5658809689597668e-38
-1.410730 -56.213975 108.623570 -0.030795 -0.999526 0.000000 1.5658809689597668e-38
-0.488270 -57.388167 108.581811 -0.006160 -0.999981 0.000000 1.5658809689597668e-38
1.695010 -57.226671 109.115047 0.018479 -0.999829 0.000000 1.5658809689597668e-38
2.858572 -56.776165 109.242894 0.043107 -0.999070 0.000000 1.5658809689597668e-38
3.517492 -56.737967 108.790595 0.067708 -0.997705 0.000000 1.5658809689597668e-38
5.809792 -57.164026 108.548002 0.092268 -0.995734 0.000000 1.5658809689597668e-38
6.701976 -56.575362 108.352026 0.116773 -0.993159 0.000000 1.5658809689597668e-38
7.975769 -56.917002 109.165705 0.141206 -0.989980 0.000000 1.5658809689597668e-38
9.319840 -56.034102 108.673584 0.165554 -0.986201 0.000000 1.5658809689597668e-38
10.967189 -56.535956 108.855706 0.189801 -0.981823 0.000000 1.5658809689597668e-38
11.927256 -55.378875 109.210503 0.213933 -0.976848 0.000000 1.5658809689597668e-38
13.693299 -55.211829 108.738346 0.237935 -0.971281 0.000000 1.5658809689597668e-38
15.176109 -55.190787 109.042976 0.261793 -0.965124 0.000000 1.5658809689597668e-38
16.384790 -54.798103 108.345411 0.285492 -0.958381 0.000000 1.5658809689597668e-38
17.499474 -53.817974 108.853930 0.309017 -0.951057 0.000000 1.5658809689597668e-38
18.813866 -53.895458 108.432120 0.332355 -0.943154 0.000000 1.5658809689597668e-38
20.209590 -53.368870 109.037664 0.355491 -0.934680 0.000000 1.5658809689597668e-38
21.766473 -52.453583 108.687701 0.378411 -0.925638 0.000000 1.5658809689597668e-38
22.509358 -52.466295 108.720037 0.401102 -0.916034 0.000000 1.5658809689597668e-38
24.299286 -51.864365 108.932235 0.423549 -0.905873 0.000000 1.5658809689597668e-38
25.543009 -50.900010 108.884906 0.445738 -0.895163 0.000000 1.5658809689597668e-38
-4.417655 -57.147189 110.384716 -0.079994 -0.996795 0.000000 1.5658809689597668e-38
-3.094138 -57.140529 110.283324 -0.055411 -0.998464 0.000000 1.5658809689597668e-38
-1.641122 -56.822999 110.020373 -0.030795 -0.999526 0.000000 1.5658809689597668e-38
-0.425514 -57.189518 110.109491 -0.006160 -0.999981 0.000000 1.5658809689597668e-38
1.614975 -57.082559 109.886140 0.018479 -0.999829 0.000000 1.5658809689597668e-38
2.020516 -56.725128 109.990575 0.043107 -0.999070 0.000000 1.5658809689597668e-38
3.975449 -57.123850 110.345041 0.067708 -0.997705 0.000000 1.5658809689597668e-38
5.116428 -56.969781 109.939421 0.092268 -0.995734 0.000000 1.5658809689597668e-38
7.519669 -57.083801 110.271140 0.116773 -0.993159 0.000000 1.5658809689597668e-38
8.937624 -56.346443 110.096713 0.141206 -0.989980 0.000000 1.5658809689597668e-38
9.527990 -56.703476 110.607057 0.165554 -0.986201 0.000000 1.5658809689597668e-38
10.798307 -56.231054 109.839619 0.189801 -0.981823 0.000000 1.5658809689597668e-38
12.153894 -55.904630 110.429937 0.213933 -0.976848 0.000000 1.5658809689597668e-38
13.701586 -55.277025 109.417677 0.237935 -0.971281 0.000000 1.5658809689597668e-38
15.407757 -55.655448 110.333846 0.261793 -0.965124 0.000000 1.5658809689597668e-38
15.411814 -54.847287 110.387381 0.285492 -0.958381 0.000000 1.5658809689597668e-38
17.438718 -54.436893 110.381000 0.309017 -0.951057 0.000000 1.5658809689597668e-38
19.247490 -54.463152 110.402766 0.332355 -0.943154 0.000000 1.5658809689597668e-38
20.864328 -53.145577 109.733976 0.355491 -0.934680 0.000000 1.5658809689597668e-38
21.338243 -52.969608 110.278744 0.378411 -0.925638 0.000000 1.5658809689597668e-38
23.224201 -52.680176 110.080777 0.401102 -0.916034 0.000000 1.5658809689597668e-38
24.002542 -52.162962 110.225004 0.423549 -0.905873 0.000000 1.5658809689597668e-38
25.496341 -51.111159 109.931584 0.445738 -0.895163 0.000000 1.5658809689597668e-38
26.974138 -50.941787 109.966465 0.467658 -0.883910 0.000000 1.5658809689597668e-38
-5.625808 -56.430669 111.344843 -0.104528 -0.994522 0.000000 1.5658809689597668e-38
-4.731986 -57.184250 111.271071 -0.079994 -0.996795 0.000000 1.5658809689597668e-38
-3.352951 -57.669659 110.935904 -0.055411 -0.998464 0.000000 1.5658809689597668e-38
-1.559679 -57.055941 111.437812 -0.030795 -0.999526 0.000000 1.5658809689597668e-38
-0.425626 -57.458524 110.928487 -0.006160 -0.999981 0.000000 1.5658809689597668e-38
0.863553 -57.517897 110.915908 0.018479 -0.999829 0.000000 1.5658809689597668e-38
2.535661 -57.476473 111.352351 0.043107 -0.999070 0.000000 1.5658809689597668e-38
3.436439 -57.000295 111.468988 0.067708 -0.997705 0.000000 1.5658809689597668e-38
5.133704 -56.651595 111.315934 0.092268 -0.995734 0.000000 1.5658809689597668e-38
6.732742 -57.384609 111.105399 0.116773 -0.993159 0.000000 1.5658809689597668e-38
7.896987 -56.499260 111.629309 0.141206 -0.989980 0.000000 1.5658809689597668e-38
9.316518 -56.466171 111.597235 0.165554 -0.986201 0.000000 1.5658809689597668e-38
10.775146 -56.705015 111.553472 0.189801 -0.981823 0.000000 1.5658809689597668e-38
12.387555 -55.893979 111.628090 0.213933 -0.976848 0.000000 1.5658809689597668e-38
13.948171 -55.475904 110.988917 0.237935 -0.971281 0.000000 1.5658809689597668e-38
14.549015 -55.204252 111.359800 0.261793 -0.965124 0.000000 1.5658809689597668e-38
16.403076 -54.415714 111.615483 0.285492 -0.958381 0.000000 1.5658809689597668e-38
17.653902 -54.724070 111.533681 0.309017 -0.951057 0.000000 1.5658809689597668e-38
19.185346 -54.114923 110.519447 0.332355 -0.943154 0.000000 1.5658809689597668e-38
20.084959 -53.310500 110.952534 0.355491 -0.934680 0.000000 1.5658809689597668e-38
21.859738 -52.913413 111.042893 0.378411 -0.925638 0.000000 1.5658809689597668e-38
23.256327 -52.519979 111.295671 0.401102 -0.916034 0.000000 1.5658809689597668e-38
23.927877 -51.524585 110.982563 0.423549 -0.905873 0.000000 1.5658809689597668e-38
25.183353 -51.257634 111.046103 0.445738 -0.895163 0.000000 1.5658809689597668e-38
27.420954 -50.951576 111.578159 0.467658 -0.883910 0.000000 1.5658809689597668e-38
-6.097030 -57.287522 112.378096 -0.104528 -0.994522 0.000000 1.5658809689597668e-38
-4.616419 -57.035020 112.358659 -0.079994 -0.996795 0.000000 1.5658809689597668e-38
-3.368658 -57.057486 112.320398 -0.055411 -0.998464 0.000000 1.5658809689597668e-38
-2.036804 -56.672123 112.419286 -0.030795 -0.999526 0.000000 1.5658809689597668e-38
-0.900949 -57.729705 111.979389 -0.006160 -0.999981 0.000000 1.5658809689597668e-38
1.554782 -57.370729 112.265019 0.018479 -0.999829 0.000000 1.5658809689597668e-38
2.640879 -56.791837 112.526000 0.043107 -0.999070 0.000000 1.5658809689597668e-38
4.373553 -57.328072 112.224338 0.067708 -0.997705 0.000000 1.5658809689597668e-38
5.835388 -57.330527 112.407689 0.092268 -0.995734 0.000000 1.5658809689597668e-38
7.009670 -56.955778 112.544218 0.116773 -0.993159 0.000000 1.5658809689597668e-38
8.023066 -56.983949 112.631590 0.141206 -0.989980 0.000000 1.5658809689597668e-38
9.642200 -56.634304 112.747294 0.165554 -0.986201 0.000000 1.5658809689597668e-38
11.010442 -56.199994 112.492086 0.189801 -0.981823 0.000000 1.5658809689597668e-38
12.159517 -55.919720 112.217438 0.213933 -0.976848 0.000000 1.5658809689597668e-38
14.517578 -56.466062 112.409057 0.237935 -0.971281 0.000000 1.5658809689597668e-38
15.170376 -55.139416 112.323920 0.261793 -0.965124 0.000000 1.5658809689597668e-38
16.180387 -54.956661 112.169885 0.285492 -0.958381 0.000000 1.5658809689597668e-38
17.364173 -54.288504 112.822452 0.309017 -0.951057 0.000000 1.5658809689597668e-38
19.066990 -53.867297 112.605294 0.332355 -0.943154 0.000000 1.5658809689597668e-38
20.158332 -53.959682 112.764684 0.355491 -0.934680 0.000000 1.5658809689597668e-38
21.502853 -52.850806 112.485664 0.378411 -0.925638 0.000000 1.5658809689597668e-38
23.396492 -52.829583 112.235607 0.401102 -0.916034 0.000000 1.5658809689597668e-38
24.356075 -52.064287 112.621612 0.423549 -0.905873 0.000000 1.5658809689597668e-38
25.545109 -51.500134 112.496771 0.445738 -0.895163 0.000000 1.5658809689597668e-38
26.167410 -50.253045 112.384849 0.467658 -0.883910 0.000000 1.5658809689597668e-38
-6.195218 -57.046382 113.535025 -0.104528 -0.994522 0.000000 1.5658809689597668e-38
-4.496682 -56.848357 114.074678 -0.079994 -0.996795 0.000000 1.5658809689597668e-38
-3.202268 -56.899365 113.858627 -0.055411 -0.998464 0.000000 1.5658809689597668e-38
-1.820140 -57.419176 113.826146 -0.030795 -0.999526 0.000000 1.5658809689597668e-38
-0.237851 -57.683955 114.139524 -0.006160 -0.999981 0.000000 1.5658809689597668e-38
1.435032 -56.665598 113.284730 0.018479 -0.999829 0.000000 1.5658809689597668e-38
2.469932 -57.603612 113.994491 0.043107 -0.999070 0.000000 1.5658809689597668e-38
4.239161 -57.272050 113.709123 0.067708 -0.997705 0.000000 1.5658809689597668e-38
5.139043 -57.226747 113.915734 0.092268 -0.995734 0.000000 1.5658809689597668e-38
6.802345 -56.571361 113.755809 0.116773 -0.993159 0.000000 1.5658809689597668e-38
8.369578 -57.102019 113.426610 0.141206 -0.989980 0.000000 1.5658809689597668e-38
9.797958 -56.491890 113.652379 0.165554 -0.986201 0.000000 1.5658809689597668e-38
10.615421 -56.504214 113.876850 0.189801 -0.981823 0.000000 1.5658809689597668e-38
12.324570 -56.509359 113.431046 0.213933 -0.976848 0.000000 1.5658809689597668e-38
13.697055 -55.579579 113.576291 0.237935 -0.971281 0.000000 1.5658809689597668e-38
14.599852 -55.391204 113.152067 0.261793 -0.965124 0.000000 1.5658809689597668e-38
16.270628 -54.834792 113.740450 0.285492 -0.958381 0.000000 1.5658809689597668e-38
17.267794 -54.140626 113.816134 0.309017 -0.951057 0.000000 1.5658809689597668e-38
19.140269 -53.875419 113.759955 0.332355 -0.943154 0.000000 1.5658809689597668e-38
20.323194 -53.284276 113.568934 0.355491 -0.934680 0.000000 1.5658809689597668e-38
21.995909 -53.472491 113.595873 0.378411 -0.925638 0.000000 1.5658809689597668e-38
23.111359 -52.153547 113.858657 0.401102 -0.916034 0.000000 1.5658809689597668e-38
23.892436 -51.785512 113.576146 0.423549 -0.905873 0.000000 1.5658809689597668e-38
25.776132 -51.297806 113.364073 0.445738 -0.895163 0.000000 1.5658809689597668e-38
26.952498 -51.108521 114.220065 0.467658 -0.883910 0.000000 1.5658809689597668e-38
-7.392583 -56.882749 114.971398 -0.128999 -0.991645 0.000000 1.5658809689597668e-38
-5.869879 -56.658265 114.730816 -0.104528 -0.994522 0.000000 1.5658809689597668e-38
-4.489442 -57.793780 114.900912 -0.079994 -0.996795 0.000000 1.5658809689597668e-38
-3.228321 -57.280448 115.227682 -0.055411 -0.998464 0.000000 1.5658809689597668e-38
-1.402706 -57.856979 115.285630 -0.030795 -0.999526 0.000000 1.5658809689597668e-38
0.160572 -57.574955 114.875164 -0.006160 -0.999981 0.000000 1.5658809689597668e-38
1.097315 -57.472659 114.986142 0.018479 -0.999829 0.000000 1.5658809689597668e-38
2.906396 -56.670700 114.953918 0.043107 -0.999070 0.000000 1.5658809689597668e-38
4.582616 -57.412018 115.278545 0.067708 -0.997705 0.000000 1.5658809689597668e-38
4.985833 -57.457168 114.953920 0.092268 -0.995734 0.000000 1.5658809689597668e-38
6.956500 -56.981891 114.558127 0.116773 -0.993159 0.000000 1.5658809689597668e-38
7.710454 -57.380149 115.146693 0.141206 -0.989980 0.000000 1.5658809689597668e-38
9.553043 -56.606216 115.086720 0.165554 -0.986201 0.000000 1.5658809689597668e-38
10.673943 -56.342580 115.481353 0.189801 -0.981823 0.000000 1.5658809689597668e-38
12.458140 -56.458620 114.950878 0.213933 -0.976848 0.000000 1.5658809689597668e-38
13.477615 -55.523317 114.734141 0.237935 -0.971281 0.000000 1.5658809689597668e-38
15.090876 -55.537227 114.817915 0.261793 -0.965124 0.000000 1.5658809689597668e-38
16.459808 -55.113367 115.274617 0.285492 -0.958381 0.000000 1.5658809689597668e-38
17.602444 -54.980982 114.989340 0.309017 -0.951057 0.000000 1.5658809689597668e-38
19.164529 -53.988985 114.995654 0.332355 -0.943154 0.000000 1.5658809689597668e-38
20.671292 -54.087736 115.345466 0.355491 -0.934680 0.000000 1.5658809689597668e-38
21.905576 -53.299039 115.365999 0.378411 -0.925638 0.000000 1.5658809689597668e-38
23.131496 -52.231174 114.818473 0.401102 -0.916034 0.000000 1.5658809689597668e-38
24.122628 -51.865872 115.071736 0.423549 -0.905873 0.000000 1.5658809689597668e-38
25.170027 -50.854600 115.577096 0.445738 -0.895163 0.000000 1.5658809689597668e-38
-7.552808 -56.716039 116.503491 -0.128999 -0.991645 0.000000 1.5658809689597668e-38
-5.869779 -56.816845 116.273220 -0.104528 -0.994522 0.000000 1.5658809689597668e-38
-4.505950 -57.484822 116.866472 -0.079994 -0.996795 0.000000 1.5658809689597668e-38
-3.319233 -57.440229 116.351538 -0.055411 -0.998464 0.000000 1.5658809689597668e-38
-1.569479 -57.240308 115.475910 -0.030795 -0.999526 0.000000 1.5658809689597668e-38
0.176127 -56.980584 116.664373 -0.006160 -0.999981 0.000000 1.5658809689597668e-38
1.105843 -57.080504 116.367282 0.018479 -0.999829 0.000000 1.5658809689597668e-38
2.551981 -57.201756 116.451685 0.043107 -0.999070 0.000000 1.5658809689597668e-38
4.198019 -57.978270 116.262031 0.067708 -0.997705 0.000000 1.5658809689597668e-38
4.935886 -56.940207 116.014985 0.092268 -0.995734 0.000000 1.5658809689597668e-38
6.625419 -56.790614 116.681148 0.116773 -0.993159 0.000000 1.5658809689597668e-38
8.379229 -56.662933 115.932475 0.141206 -0.989980 0.000000 1.5658809689597668e-38
9.208351 -57.073774 115.971862 0.165554 -0.986201 0.000000 1.5658809689597668e-38
10.954305 -56.118407 116.589242 0.189801 -0.981823 0.000000 1.5658809689597668e-38
11.738118 -56.145125 116.206453 0.213933 -0.976848 0.000000 1.5658809689597668e-38
12.977685 -55.565338 116.529257 0.237935 -0.971281 0.000000 1.5658809689597668e-38
14.861521 -55.553352 116.332307 0.261793 -0.965124 0.000000 1.5658809689597668e-38
16.529805 -55.267629 116.030943 0.285492 -0.958381 0.000000 1.5658809689597668e-38
17.431787 -54.205429 116.654531 0.309017 -0.951057 0.000000 1.5658809689597668e-38
18.770928 -54.466756 115.970479 0.332355 -0.943154 0.000000 1.5658809689597668e-38
19.982648 -53.125707 116.068355 0.355491 -0.934680 0.000000 1.5658809689597668e-38
21.973117 -53.293004 116.222807 0.378411 -0.925638 0.000000 1.5658809689597668e-38
22.962464 -52.529279 116.233205 0.401102 -0.916034 0.000000 1.5658809689597668e-38
24.562682 -51.709031 116.102562 0.423549 -0.905873 0.000000 1.5658809689597668e-38
25.675448 -51.930321 116.132042 0.445738 -0.895163 0.000000 1.5658809689597668e-38
-8.742675 -56.927472 117.043035 -0.153392 -0.988165 0.000000 1.5658809689597668e-38
-7.208823 -56.924227 117.628597 -0.128999 -0.991645 0.000000 1.5658809689597668e-38
-6.343069 -56.711412 117.396916 -0.104528 -0.994522 0.000000 1.5658809689597668e-38
-4.169275 -57.932946 117.397848 -0.079994 -0.996795 0.000000 1.5658809689597668e-38
-2.728417 -57.438657 116.789137 -0.055411 -0.998464 0.000000 1.5658809689597668e-38
-2.058205 -57.372910 117.956456 -0.030795 -0.999526 0.000000 1.5658809689597668e-38
-0.440398 -57.154561 117.644253 -0.006160 -0.999981 0.000000 1.5658809689597668e-38
0.938690 -57.238348 117.813914 0.018479 -0.999829 0.000000 1.5658809689597668e-38
2.391724 -57.646670 117.040633 0.043107 -0.999070 0.000000 1.5658809689597668e-38
4.017475 -57.525254 117.682465 0.067708 -0.997705 0.000000 1.5658809689597668e-38
5.391806 -57.133408 117.476499 0.092268 -0.995734 0.000000 1.5658809689597668e-38
6.329935 -56.949167 117.777169 0.116773 -0.993159 0.000000 1.5658809689597668e-38
8.814662 -57.086480 117.211575 0.141206 -0.989980 0.000000 1.5658809689597668e-38
9.166506 -56.706036 117.766601 0.165554 -0.986201 0.000000 1.5658809689597668e-38
11.177835 -55.968691 117.641403 0.189801 -0.981823 0.000000 1.5658809689597668e-38
11.937935 -56.081471 116.896032 0.213933 -0.976848 0.000000 1.5658809689597668e-38
13.573633 -55.960745 117.663808 0.237935 -0.971281 0.000000 1.5658809689597668e-38
15.180921 -55.701271 117.312860 0.261793 -0.965124 0.000000 1.5658809689597668e-38
16.430612 -54.948916 117.746472 0.285492 -0.958381 0.000000 1.5658809689597668e-38
17.617899 -54.685535 117.213249 0.309017 -0.951057 0.000000 1.5658809689597668e-38
18.796580 -54.796476 117.335972 0.332355 -0.943154 0.000000 1.5658809689597668e-38
20.818787 -53.304306 117.695991 0.355491 -0.934680 0.000000 1.5658809689597668e-38
22.054364 -52.966604 117.577808 0.378411 -0.925638 0.000000 1.5658809689597668e-38
22.326214 -51.977839 117.463603 0.401102 -0.916034 0.000000 1.5658809689597668e-38
24.283689 -51.635247 117.573700 0.423549 -0.905873 0.000000 1.5658809689597668e-38
26.378385 -51.707117 117.836690 0.445738 -0.895163 0.000000 1.5658809689597668e-38
-8.679397 -56.983747 118.636006 -0.153392 -0.988165 0.000000 1.5658809689597668e-38
-7.262244 -56.762206 118.389163 -0.128999 -0.991645 0.000000 1.5658809689597668e-38
-6.084173 -57.227530 118.278233 -0.104528 -0.994522 0.000000 1.5658809689597668e-38
-4.383303 -57.244278 118.703967 -0.079994 -0.996795 0.000000 1.5658809689597668e-38
-3.112908 -57.211729 119.343091 -0.055411 -0.998464 0.000000 1.5658809689597668e-38
-1.574151 -57.812304 119.608902 -0.030795 -0.999526 0.000000 1.5658809689597668e-38
-0.690884 -57.378061 118.700820 -0.006160 -0.999981 0.000000 1.5658809689597668e-38
1.026916 -57.372494 118.899406 0.018479 -0.999829 0.000000 1.5658809689597668e-38
2.892572 -57.640096 118.882799 0.043107 -0.999070 0.000000 1.5658809689597668e-38
4.075277 -56.658108 118.912784 0.067708 -0.997705 0.000000 1.5658809689597668e-38
4.959988 -56.838472 118.629925 0.092268 -0.995734 0.000000 1.5658809689597668e-38
6.455655 -56.704761 118.802655 0.116773 -0.993159 0.000000 1.5658809689597668e-38
8.058982 -56.414197 118.609094 0.141206 -0.989980 0.000000 1.5658809689597668e-38
9.362734 -56.553695 118.085780 0.165554 -0.986201 0.000000 1.5658809689597668e-38
10.961153 -56.427080 118.506749 0.189801 -0.981823 0.000000 1.5658809689597668e-38
12.295184 -56.087113 118.749895 0.213933 -0.976848 0.000000 1.5658809689597668e-38
13.925223 -55.763874 118.712073 0.237935 -0.971281 0.000000 1.5658809689597668e-38
15.262481 -55.410322 119.663309 0.261793 -0.965124 0.000000 1.5658809689597668e-38
16.721628 -55.262000 118.247067 0.285492 -0.958381 0.000000 1.5658809689597668e-38
17.563872 -55.294643 118.962406 0.309017 -0.951057 0.000000 1.5658809689597668e-38
19.021811 -54.458270 118.942283 0.332355 -0.943154 0.000000 1.5658809689597668e-38
20.328517 -53.622177 118.683041 0.355491 -0.934680 0.000000 1.5658809689597668e-38
21.780230 -52.833424 119.037364 0.378411 -0.925638 0.000000 1.5658809689597668e-38
23.491637 -52.565052 118.219963 0.401102 -0.916034 0.000000 1.5658809689597668e-38
24.147054 -52.568784 119.038472 0.423549 -0.905873 0.000000 1.5658809689597668e-38
-10.227421 -56.558553 119.507476 -0.177691 -0.984086 0.000000 1.5658809689597668e-38
-8.702624 -56.877996 120.095197 -0.153392 -0.988165 0.000000 1.5658809689597668e-38
-8.062708 -56.259583 120.022055 -0.128999 -0.991645 0.000000 1.5658809689597668e-38
-5.871868 -57.068823 119.905196 -0.104528 -0.994522 0.000000 1.5658809689597668e-38
-4.473163 -56.959577 120.053493 -0.079994 -0.996795 0.000000 1.5658809689597668e-38
-2.928672 -57.180946 120.211920 -0.055411 -0.998464 0.000000 1.5658809689597668e-38
-1.215450 -57.366937 119.976949 -0.030795 -0.999526 0.000000 1.5658809689597668e-38
-0.366962 -57.376330 119.594340 -0.006160 -0.999981 0.000000 1.5658809689597668e-38
1.482371 -57.563336 119.972400 0.018479 -0.999829 0.000000 1.5658809689597668e-38
2.087663 -57.413713 119.593341 0.043107 -0.999070 0.000000 1.5658809689597668e-38
3.388466 -57.587096 119.926034 0.067708 -0.997705 0.000000 1.5658809689597668e-38
5.048147 -57.168967 120.367868 0.092268 -0.995734 0.000000 1.5658809689597668e-38
6.779896 -57.771569 119.994470 0.116773 -0.993159 0.000000 1.5658809689597668e-38
8.293581 -57.034937 120.094658 0.141206 -0.989980 0.000000 1.5658809689597668e-38
9.598805 -57.036464 120.361357 0.165554 -0.986201 0.000000 1.5658809689597668e-38
10.826704 -56.553453 120.135602 0.189801 -0.981823 0.000000 1.5658809689597668e-38
11.819630 -55.788979 119.705284 0.213933 -0.976848 0.000000 1.5658809689597668e-38
14.224039 -55.510716 119.696875 0.237935 -0.971281 0.000000 1.5658809689597668e-38
15.153074 -55.781437 119.671977 0.261793 -0.965124 0.000000 1.5658809689597668e-38
15.666405 -54.916632 119.863048 0.285492 -0.958381 0.000000 1.5658809689597668e-38
18.003985 -54.618101 119.634780 0.309017 -0.951057 0.000000 1.5658809689597668e-38
19.362711 -54.075604 119.856125 0.332355 -0.943154 0.000000 1.5658809689597668e-38
20.733263 -53.825226 119.764161 0.355491 -0.934680 0.000000 1.5658809689597668e-38
21.701427 -53.335075 119.554805 0.378411 -0.925638 0.000000 1.5658809689597668e-38
22.272383 -52.177878 120.339684 0.401102 -0.916034 0.000000 1.5658809689597668e-38
24.797468 -51.817135 119.875838 0.423549 -0.905873 0.000000 1.5658809689597668e-38
