# .PCD v0.7 - Point Cloud Data file format
VERSION 0.7
FIELDS x y z normal_x normal_y normal_z rgb
SIZE 4 4 4 4 4 4 4
TYPE F F F F F F F
COUNT 1 1 1 1 1 1 1
WIDTH 309
HEIGHT 1
VIEWPOINT 0 0 0 1 0 0 0
POINTS 309
DATA ascii
-48.781172 -24.254370 84.972057 -0.897892 -0.440216 0.000000 1.5197831540281055e-38
-50.281172 -21.829777 87.188378 -0.918487 -0.395451 0.000000 1.5197831540281055e-38
-50.031074 -22.519976 85.938572 -0.908465 -0.417960 0.000000 1.5197831540281055e-38
-49.296574 -24.230122 86.666553 -0.897892 -0.440216 0.000000 1.5197831540281055e-38
-48.713862 -24.917855 86.525245 -0.886774 -0.462204 0.000000 1.5197831540281055e-38
-50.561067 -20.444158 87.775892 -0.927951 -0.372702 0.000000 1.5197831540281055e-38
-50.450385 -21.967497 87.454868 -0.918487 -0.395451 0.000000 1.5197831540281055e-38
-50.254086 -23.129273 88.094902 -0.908465 -0.417960 0.000000 1.5197831540281055e-38
-49.813120 -24.501607 88.076640 -0.897892 -0.440216 0.000000 1.5197831540281055e-38
-48.874606 -25.478408 87.722617 -0.886774 -0.462204 0.000000 1.5197831540281055e-38
-47.546720 -26.444312 87.910638 -0.875117 -0.483911 0.000000 1.5197831540281055e-38
-51.956081 -18.865149 89.546741 -0.936852 -0.349727 0.000000 1.5197831540281055e-38
-50.924290 -20.416699 89.221096 -0.927951 -0.372702 0.000000 1.5197831540281055e-38
-50.576417 -22.230149 88.892568 -0.918487 -0.395451 0.000000 1.5197831540281055e-38
-50.153899 -23.369211 89.502625 -0.908465 -0.417960 0.000000 1.5197831540281055e-38
-49.389227 -23.753287 89.309207 -0.897892 -0.440216 0.000000 1.5197831540281055e-38
-49.344915 -25.109049 88.936969 -0.886774 -0.462204 0.000000 1.5197831540281055e-38
-47.873407 -26.246384 89.477672 -0.875117 -0.483911 0.000000 1.5197831540281055e-38
-47.288301 -27.750255 89.069068 -0.862929 -0.505325 0.000000 1.5197831540281055e-38
-52.233028 -17.860962 90.410485 -0.945184 -0.326539 0.000000 1.5197831540281055e-38
-51.466935 -19.615551 90.113132 -0.936852 -0.349727 0.000000 1.5197831540281055e-38
-51.625500 -20.876789 90.322008 -0.927951 -0.372702 0.000000 1.5197831540281055e-38
-51.153764 -21.799475 90.499103 -0.918487 -0.395451 0.000000 1.5197831540281055e-38
-50.646764 -23.321471 90.156141 -0.908465 -0.417960 0.000000 1.5197831540281055e-38
-49.760584 -24.413598 90.580880 -0.897892 -0.440216 0.000000 1.5197831540281055e-38
-48.785521 -25.823694 90.516784 -0.886774 -0.462204 0.000000 1.5197831540281055e-38
-48.021804 -26.419733 90.370740 -0.875117 -0.483911 0.000000 1.5197831540281055e-38
-47.776029 -28.388847 90.185349 -0.862929 -0.505325 0.000000 1.5197831540281055e-38
-47.504365 -28.793914 90.230153 -0.850217 -0.526432 0.000000 1.5197831540281055e-38
-53.479790 -15.358464 91.439317 -0.960122 -0.279583 0.000000 1.5197831540281055e-38
-52.887046 -16.705696 91.245196 -0.952942 -0.303153 0.000000 1.5197831540281055e-38
-52.770278 -17.867160 91.343182 -0.945184 -0.326539 0.000000 1.5197831540281055e-38
-51.624110 -19.947101 91.826995 -0.936852 -0.349727 0.000000 1.5197831540281055e-38
-51.511431 -20.718100 91.590603 -0.927951 -0.372702 0.000000 1.5197831540281055e-38
-51.422284 -21.616297 91.417304 -0.918487 -0.395451 0.000000 1.5197831540281055e-38
-50.682454 -22.553118 91.441728 -0.908465 -0.417960 0.000000 1.5197831540281055e-38
-50.104309 -24.194086 91.625435 -0.897892 -0.440216 0.000000 1.5197831540281055e-38
-48.925021 -25.633576 91.832932 -0.886774 -0.462204 0.000000 1.5197831540281055e-38
-47.965155 -27.091021 91.408728 -0.875117 -0.483911 0.000000 1.5197831540281055e-38
-48.385079 -27.938423 91.583930 -0.862929 -0.505325 0.000000 1.5197831540281055e-38
-46.819785 -29.232727 91.521128 -0.850217 -0.526432 0.000000 1.5197831540281055e-38
-46.405557 -30.448376 91.656803 -0.836989 -0.547220 0.000000 1.5197831540281055e-38
-54.421001 -14.364650 92.282589 -0.966718 -0.255843 0.000000 1.5197831540281055e-38
-53.863742 -15.430002 92.869162 -0.960122 -0.279583 0.000000 1.5197831540281055e-38
-53.237872 -16.388019 93.123814 -0.952942 -0.303153 0.000000 1.5197831540281055e-38
-52.638912 -18.722731 93.071163 -0.945184 -0.326539 0.000000 1.5197831540281055e-38
-52.304356 -19.383479 93.022816 -0.936852 -0.349727 0.000000 1.5197831540281055e-38
-51.784373 -20.366679 92.669653 -0.927951 -0.372702 0.000000 1.5197831540281055e-38
-50.975438 -21.790333 93.057199 -0.918487 -0.395451 0.000000 1.5197831540281055e-38
-50.055855 -23.516741 92.443655 -0.908465 -0.417960 0.000000 1.5197831540281055e-38
-50.086868 -23.596075 93.188678 -0.897892 -0.440216 0.000000 1.5197831540281055e-38
-49.536464 -25.837673 92.778970 -0.886774 -0.462204 0.000000 1.5197831540281055e-38
-48.640542 -26.749584 92.988372 -0.875117 -0.483911 0.000000 1.5197831540281055e-38
-47.684864 -27.533295 92.743443 -0.862929 -0.505325 0.000000 1.5197831540281055e-38
-47.400249 -29.418573 92.700454 -0.850217 -0.526432 0.000000 1.5197831540281055e-38
-46.488979 -30.275961 93.301360 -0.836989 -0.547220 0.000000 1.5197831540281055e-38
-46.047588 -31.497900 92.531306 -0.823253 -0.567675 0.000000 1.5197831540281055e-38
-54.419297 -12.862171 93.889346 -0.972728 -0.231948 0.000000 1.5197831540281055e-38
-54.592685 -14.130597 93.831213 -0.966718 -0.255843 0.000000 1.5197831540281055e-38
-53.923878 -15.877452 94.485968 -0.960122 -0.279583 0.000000 1.5197831540281055e-38
-52.814131 -17.252706 93.501081 -0.952942 -0.303153 0.000000 1.5197831540281055e-38
-52.501183 -17.613567 94.720426 -0.945184 -0.326539 0.000000 1.5197831540281055e-38
-52.730294 -19.118275 94.019011 -0.936852 -0.349727 0.000000 1.5197831540281055e-38
-52.387507 -21.066258 93.784886 -0.927951 -0.372702 0.000000 1.5197831540281055e-38
-51.137533 -22.488566 94.303823 -0.918487 -0.395451 0.000000 1.5197831540281055e-38
-50.578014 -23.029180 93.822559 -0.908465 -0.417960 0.000000 1.5197831540281055e-38
-50.011383 -24.888511 94.223629 -0.897892 -0.440216 0.000000 1.5197831540281055e-38
-49.580780 -25.847125 94.010801 -0.886774 -0.462204 0.000000 1.5197831540281055e-38
-49.381194 -26.660377 94.045478 -0.875117 -0.483911 0.000000 1.5197831540281055e-38
-47.820152 -27.876839 93.776633 -0.862929 -0.505325 0.000000 1.5197831540281055e-38
-47.549551 -29.856552 94.388407 -0.850217 -0.526432 0.000000 1.5197831540281055e-38
-46.632673 -30.491543 93.937799 -0.836989 -0.547220 0.000000 1.5197831540281055e-38
-46.254080 -31.309115 94.622263 -0.823253 -0.567675 0.000000 1.5197831540281055e-38
-44.771878 -32.866936 94.137668 -0.809017 -0.587785 0.000000 1.5197831540281055e-38
-55.064940 -11.861593 95.229562 -0.978148 -0.207912 0.000000 1.5197831540281055e-38
-54.839138 -12.993961 95.633650 -0.972728 -0.231948 0.000000 1.5197831540281055e-38
-54.153297 -14.852561 95.518066 -0.966718 -0.255843 0.000000 1.5197831540281055e-38
-53.415341 -15.302388 95.275430 -0.960122 -0.279583 0.000000 1.5197831540281055e-38
-52.647032 -16.749944 96.154671 -0.952942 -0.303153 0.000000 1.5197831540281055e-38
-52.506689 -17.920352 95.070936 -0.945184 -0.326539 0.000000 1.5197831540281055e-38
-52.730136 -19.543324 95.199974 -0.936852 -0.349727 0.000000 1.5197831540281055e-38
-52.108738 -20.903208 95.198320 -0.927951 -0.372702 0.000000 1.5197831540281055e-38
-51.609696 -21.940526 95.032229 -0.918487 -0.395451 0.000000 1.5197831540281055e-38
-50.869576 -23.762084 95.287758 -0.908465 -0.417960 0.000000 1.5197831540281055e-38
-50.204337 -24.932037 95.278873 -0.897892 -0.440216 0.000000 1.5197831540281055e-38
-49.671665 -26.012781 95.122337 -0.886774 -0.462204 0.000000 1.5197831540281055e-38
-48.855429 -27.081258 95.545025 -0.875117 -0.483911 0.000000 1.5197831540281055e-38
-48.618383 -28.344787 95.073409 -0.862929 -0.505325 0.000000 1.5197831540281055e-38
-47.577713 -29.389352 94.903158 -0.850217 -0.526432 0.000000 1.5197831540281055e-38
-46.677433 -29.984962 95.308918 -0.836989 -0.547220 0.000000 1.5197831540281055e-38
-46.346720 -31.866494 95.160480 -0.823253 -0.567675 0.000000 1.5197831540281055e-38
-45.489621 -32.687884 94.710787 -0.809017 -0.587785 0.000000 1.5197831540281055e-38
-44.383258 -33.623385 95.625532 -0.794290 -0.607539 0.000000 1.5197831540281055e-38
-55.394903 -10.344019 96.749868 -0.982973 -0.183750 0.000000 1.5197831540281055e-38
-54.169322 -12.030157 96.874874 -0.978148 -0.207912 0.000000 1.5197831540281055e-38
-54.478781 -13.498253 96.465537 -0.972728 -0.231948 0.000000 1.5197831540281055e-38
-54.310921 -14.359464 96.809179 -0.966718 -0.255843 0.000000 1.5197831540281055e-38
-53.293623 -15.302835 96.558688 -0.960122 -0.279583 0.000000 1.5197831540281055e-38
-53.385961 -16.390523 96.177232 -0.952942 -0.303153 0.000000 1.5197831540281055e-38
-52.675088 -18.670916 96.037203 -0.945184 -0.326539 0.000000 1.5197831540281055e-38
-52.390735 -20.125420 96.377000 -0.936852 -0.349727 0.000000 1.5197831540281055e-38
-51.668259 -21.191777 97.033880 -0.927951 -0.372702 0.000000 1.5197831540281055e-38
-52.226638 -21.881113 96.079608 -0.918487 -0.395451 0.000000 1.5197831540281055e-38
-51.045208 -23.392978 96.410155 -0.908465 -0.417960 0.000000 1.5197831540281055e-38
-50.470675 -25.142009 96.919339 -0.897892 -0.440216 0.000000 1.5197831540281055e-38
-50.138431 -26.310047 96.465675 -0.886774 -0.462204 0.000000 1.5197831540281055e-38
-49.324313 -26.907580 96.334775 -0.875117 -0.483911 0.000000 1.5197831540281055e-38
-48.431577 -28.326638 96.786985 -0.862929 -0.505325 0.000000 1.5197831540281055e-38
-47.876087 -30.047135 96.251957 -0.850217 -0.526432 0.000000 1.5197831540281055e-38
-46.634175 -30.607856 96.383722 -0.836989 -0.547220 0.000000 1.5197831540281055e-38
-46.186100 -31.939994 96.731153 -0.823253 -0.567675 0.000000 1.5197831540281055e-38
-45.304211 -33.072658 96.770143 -0.809017 -0.587785 0.000000 1.5197831540281055e-38
-44.225865 -34.373457 96.224528 -0.794290 -0.607539 0.000000 1.5197831540281055e-38
-43.004997 -34.997790 96.995646 -0.779081 -0.626924 0.000000 1.5197831540281055e-38
-56.097953 -7.966764 97.740737 -0.990831 -0.135105 0.000000 1.5197831540281055e-38
-55.897816 -8.972501 97.446015 -0.987202 -0.159476 0.000000 1.5197831540281055e-38
-55.068506 -10.225575 97.641923 -0.982973 -0.183750 0.000000 1.5197831540281055e-38
-54.988589 -11.524938 97.750303 -0.978148 -0.207912 0.000000 1.5197831540281055e-38
-54.684517 -13.681852 97.576452 -0.972728 -0.231948 0.000000 1.5197831540281055e-38
-54.622320 -14.078773 97.614834 -0.966718 -0.255843 0.000000 1.5197831540281055e-38
-54.220027 -15.555382 97.276261 -0.960122 -0.279583 0.000000 1.5197831540281055e-38
-53.639524 -17.648652 97.515877 -0.952942 -0.303153 0.000000 1.5197831540281055e-38
-53.316065 -17.934343 97.687286 -0.945184 -0.326539 0.000000 1.5197831540281055e-38
-52.975565 -19.716081 98.164149 -0.936852 -0.349727 0.000000 1.5197831540281055e-38
-52.824017 -20.736892 97.845754 -0.927951 -0.372702 0.000000 1.5197831540281055e-38
-51.710189 -22.341742 98.163092 -0.918487 -0.395451 0.000000 1.5197831540281055e-38
-50.895837 -23.826247 97.738661 -0.908465 -0.417960 0.000000 1.5197831540281055e-38
-50.142924 -24.605705 97.810666 -0.897892 -0.440216 0.000000 1.5197831540281055e-38
-50.281891 -25.310143 97.948389 -0.886774 -0.462204 0.000000 1.5197831540281055e-38
-48.700101 -27.135058 97.726488 -0.875117 -0.483911 0.000000 1.5197831540281055e-38
-48.742743 -28.137639 98.181236 -0.862929 -0.505325 0.000000 1.5197831540281055e-38
-47.521847 -28.941010 97.771276 -0.850217 -0.526432 0.000000 1.5197831540281055e-38
-47.276285 -30.710047 97.973182 -0.836989 -0.547220 0.000000 1.5197831540281055e-38
-46.396037 -31.951096 97.796108 -0.823253 -0.567675 0.000000 1.5197831540281055e-38
-45.368203 -33.029070 97.795234 -0.809017 -0.587785 0.000000 1.5197831540281055e-38
-44.496938 -33.950281 97.583458 -0.794290 -0.607539 0.000000 1.5197831540281055e-38
-44.382904 -35.582960 97.870271 -0.779081 -0.626924 0.000000 1.5197831540281055e-38
-43.168958 -36.261029 97.714785 -0.763398 -0.645928 0.000000 1.5197831540281055e-38
-42.021248 -37.240429 98.088957 -0.747253 -0.664540 0.000000 1.5197831540281055e-38
-55.261499 -10.174412 98.637383 -0.982973 -0.183750 0.000000 1.5197831540281055e-38
-55.021301 -11.672984 99.158452 -0.978148 -0.207912 0.000000 1.5197831540281055e-38
-54.490856 -12.835799 98.708561 -0.972728 -0.231948 0.000000 1.5197831540281055e-38
-54.555629 -14.674598 98.796324 -0.966718 -0.255843 0.000000 1.5197831540281055e-38
-53.996435 -15.584591 99.143682 -0.960122 -0.279583 0.000000 1.5197831540281055e-38
-53.651608 -16.963083 98.832655 -0.952942 -0.303153 0.000000 1.5197831540281055e-38
-52.895111 -18.213636 98.962765 -0.945184 -0.326539 0.000000 1.5197831540281055e-38
-52.492720 -19.876199 99.004944 -0.936852 -0.349727 0.000000 1.5197831540281055e-38
-52.060203 -21.382695 99.635876 -0.927951 -0.372702 0.000000 1.5197831540281055e-38
-51.971633 -22.435893 98.975105 -0.918487 -0.395451 0.000000 1.5197831540281055e-38
-51.007824 -23.318782 99.418818 -0.908465 -0.417960 0.000000 1.5197831540281055e-38
-50.652749 -24.725461 98.507617 -0.897892 -0.440216 0.000000 1.5197831540281055e-38
-50.327841 -26.091824 99.076431 -0.886774 -0.462204 0.000000 1.5197831540281055e-38
-49.363117 -27.131276 98.952042 -0.875117 -0.483911 0.000000 1.5197831540281055e-38
-48.732158 -27.776035 98.890113 -0.862929 -0.505325 0.000000 1.5197831540281055e-38
-47.641394 -30.078082 99.006054 -0.850217 -0.526432 0.000000 1.5197831540281055e-38
-47.401535 -30.264597 98.801793 -0.836989 -0.547220 0.000000 1.5197831540281055e-38
-46.433843 -32.259147 98.703978 -0.823253 -0.567675 0.000000 1.5197831540281055e-38
-45.644638 -33.037398 99.286359 -0.809017 -0.587785 0.000000 1.5197831540281055e-38
-44.965018 -34.438847 99.354607 -0.794290 -0.607539 0.000000 1.5197831540281055e-38
-43.455451 -35.378499 99.108782 -0.779081 -0.626924 0.000000 1.5197831540281055e-38
-42.548398 -35.630286 99.094730 -0.763398 -0.645928 0.000000 1.5197831540281055e-38
-41.912791 -37.434637 98.525030 -0.747253 -0.664540 0.000000 1.5197831540281055e-38
-41.098763 -38.089962 98.743126 -0.730653 -0.682749 0.000000 1.5197831540281055e-38
-55.327119 -11.502758 100.173811 -0.978148 -0.207912 0.000000 1.5197831540281055e-38
-54.809617 -13.502354 99.910090 -0.972728 -0.231948 0.000000 1.5197831540281055e-38
-54.498409 -13.951298 100.346084 -0.966718 -0.255843 0.000000 1.5197831540281055e-38
-54.256972 -15.350014 100.140761 -0.960122 -0.279583 0.000000 1.5197831540281055e-38
-54.094808 -17.130711 100.318014 -0.952942 -0.303153 0.000000 1.5197831540281055e-38
-53.797255 -18.415719 99.688900 -0.945184 -0.326539 0.000000 1.5197831540281055e-38
-53.036650 -19.811898 100.196514 -0.936852 -0.349727 0.000000 1.5197831540281055e-38
-53.030873 -21.033228 100.468362 -0.927951 -0.372702 0.000000 1.5197831540281055e-38
-51.486183 -21.913177 100.213800 -0.918487 -0.395451 0.000000 1.5197831540281055e-38
-50.598658 -23.849195 99.987674 -0.908465 -0.417960 0.000000 1.5197831540281055e-38
-50.739246 -24.630786 100.399167 -0.897892 -0.440216 0.000000 1.5197831540281055e-38
-50.826811 -26.410891 100.436342 -0.886774 -0.462204 0.000000 1.5197831540281055e-38
-49.724123 -27.387038 100.313917 -0.875117 -0.483911 0.000000 1.5197831540281055e-38
-48.623628 -28.300419 100.587521 -0.862929 -0.505325 0.000000 1.5197831540281055e-38
-47.860537 -30.119729 100.382117 -0.850217 -0.526432 0.000000 1.5197831540281055e-38
-46.978197 -30.790250 100.593104 -0.836989 -0.547220 0.000000 1.5197831540281055e-38
-46.455153 -32.120426 99.952079 -0.823253 -0.567675 0.000000 1.5197831540281055e-38
-45.111566 -33.532475 100.204750 -0.809017 -0.587785 0.000000 1.5197831540281055e-38
-44.996449 -34.735529 100.472637 -0.794290 -0.607539 0.000000 1.5197831540281055e-38
-43.880316 -35.357617 100.017972 -0.779081 -0.626924 0.000000 1.5197831540281055e-38
-42.974697 -36.583177 100.350494 -0.763398 -0.645928 0.000000 1.5197831540281055e-38
-41.800388 -38.289788 100.506824 -0.747253 -0.664540 0.000000 1.5197831540281055e-38
-40.581068 -38.069529 100.438082 -0.730653 -0.682749 0.000000 1.5197831540281055e-38
-54.673903 -14.705461 101.047205 -0.966718 -0.255843 0.000000 1.5197831540281055e-38
-54.312358 -15.861986 102.223137 -0.960122 -0.279583 0.000000 1.5197831540281055e-38
-53.742912 -17.421558 101.417983 -0.952942 -0.303153 0.000000 1.5197831540281055e-38
-53.638361 -18.504408 101.049860 -0.945184 -0.326539 0.000000 1.5197831540281055e-38
-52.783743 -19.924350 101.639594 -0.936852 -0.349727 0.000000 1.5197831540281055e-38
-52.733011 -21.226193 101.621285 -0.927951 -0.372702 0.000000 1.5197831540281055e-38
-52.637294 -22.099093 101.884250 -0.918487 -0.395451 0.000000 1.5197831540281055e-38
-51.013292 -23.880304 101.533819 -0.908465 -0.417960 0.000000 1.5197831540281055e-38
-50.983489 -25.376246 101.469915 -0.897892 -0.440216 0.000000 1.5197831540281055e-38
-50.656947 -25.995793 101.688933 -0.886774 -0.462204 0.000000 1.5197831540281055e-38
-49.172443 -27.251247 101.319201 -0.875117 -0.483911 0.000000 1.5197831540281055e-38
-48.926261 -28.580844 101.882157 -0.862929 -0.505325 0.000000 1.5197831540281055e-38
-47.707661 -29.838253 101.738165 -0.850217 -0.526432 0.000000 1.5197831540281055e-38
-47.555357 -30.859377 101.338465 -0.836989 -0.547220 0.000000 1.5197831540281055e-38
-46.549458 -32.395244 101.017180 -0.823253 -0.567675 0.000000 1.5197831540281055e-38
-46.190304 -33.112658 101.109021 -0.809017 -0.587785 0.000000 1.5197831540281055e-38
-45.084750 -34.139157 101.779404 -0.794290 -0.607539 0.000000 1.5197831540281055e-38
-44.414882 -36.224187 101.202227 -0.779081 -0.626924 0.000000 1.5197831540281055e-38
-43.172777 -36.378988 101.089371 -0.763398 -0.645928 0.000000 1.5197831540281055e-38
-42.848572 -37.906720 101.287546 -0.747253 -0.664540 0.000000 1.5197831540281055e-38
-40.752221 -38.632631 101.637890 -0.730653 -0.682749 0.000000 1.5197831540281055e-38
-54.234234 -17.080883 102.330110 -0.952942 -0.303153 0.000000 1.5197831540281055e-38
-53.232174 -17.941723 102.751488 -0.945184 -0.326539 0.000000 1.5197831540281055e-38
-52.976411 -20.329770 102.735434 -0.936852 -0.349727 0.000000 1.5197831540281055e-38
-53.075476 -21.665111 102.300604 -0.927951 -0.372702 0.000000 1.5197831540281055e-38
-52.163223 -22.450954 102.658572 -0.918487 -0.395451 0.000000 1.5197831540281055e-38
-51.897390 -23.684118 102.471799 -0.908465 -0.417960 0.000000 1.5197831540281055e-38
-50.909703 -25.049574 102.139616 -0.897892 -0.440216 0.000000 1.5197831540281055e-38
-50.521243 -26.063158 102.932013 -0.886774 -0.462204 0.000000 1.5197831540281055e-38
-50.025562 -27.687410 102.546235 -0.875117 -0.483911 0.000000 1.5197831540281055e-38
-48.612979 -28.532486 102.296428 -0.862929 -0.505325 0.000000 1.5197831540281055e-38
-48.095508 -29.490263 102.745333 -0.850217 -0.526432 0.000000 1.5197831540281055e-38
-47.725054 -30.795953 102.735909 -0.836989 -0.547220 0.000000 1.5197831540281055e-38
-46.788035 -31.943144 102.679241 -0.823253 -0.567675 0.000000 1.5197831540281055e-38
-45.881148 -33.094132 102.530121 -0.809017 -0.587785 0.000000 1.5197831540281055e-38
-45.416607 -34.375484 103.147460 -0.794290 -0.607539 0.000000 1.5197831540281055e-38
-44.889053 -35.352980 102.690846 -0.779081 -0.626924 0.000000 1.5197831540281055e-38
-43.477092 -36.845238 102.951300 -0.763398 -0.645928 0.000000 1.5197831540281055e-38
-42.196741 -38.018561 102.771799 -0.747253 -0.664540 0.000000 1.5197831540281055e-38
-41.047128 -38.531405 102.180047 -0.730653 -0.682749 0.000000 1.5197831540281055e-38
-40.297965 -40.124542 102.745837 -0.713610 -0.700543 0.000000 1.5197831540281055e-38
-53.949837 -18.569649 103.807841 -0.945184 -0.326539 0.000000 1.5197831540281055e-38
-53.009155 -20.006435 104.183650 -0.936852 -0.349727 0.000000 1.5197831540281055e-38
-52.857902 -21.179061 104.157499 -0.927951 -0.372702 0.000000 1.5197831540281055e-38
-52.243541 -22.607253 103.896768 -0.918487 -0.395451 0.000000 1.5197831540281055e-38
-51.373718 -23.659454 103.274137 -0.908465 -0.417960 0.000000 1.5197831540281055e-38
-51.257294 -25.238103 104.092579 -0.897892 -0.440216 0.000000 1.5197831540281055e-38
-50.983518 -26.190052 104.108332 -0.886774 -0.462204 0.000000 1.5197831540281055e-38
-49.555166 -27.533344 103.432754 -0.875117 -0.483911 0.000000 1.5197831540281055e-38
-49.130352 -28.283059 103.738765 -0.862929 -0.505325 0.000000 1.5197831540281055e-38
-47.676333 -29.681684 103.874620 -0.850217 -0.526432 0.000000 1.5197831540281055e-38
-47.510916 -30.994374 103.744377 -0.836989 -0.547220 0.000000 1.5197831540281055e-38
-46.921958 -31.671073 104.365040 -0.823253 -0.567675 0.000000 1.5197831540281055e-38
-46.101894 -33.646298 103.439577 -0.809017 -0.587785 0.000000 1.5197831540281055e-38
-44.504428 -34.228256 104.291455 -0.794290 -0.607539 0.000000 1.5197831540281055e-38
-44.449841 -35.820244 103.641076 -0.779081 -0.626924 0.000000 1.5197831540281055e-38
-44.343363 -36.980141 104.013403 -0.763398 -0.645928 0.000000 1.5197831540281055e-38
-42.403043 -37.960627 104.113922 -0.747253 -0.664540 0.000000 1.5197831540281055e-38
-41.736215 -38.580536 104.143977 -0.730653 -0.682749 0.000000 1.5197831540281055e-38
-40.319412 -39.800205 103.672675 -0.713610 -0.700543 0.000000 1.5197831540281055e-38
-52.483565 -20.931088 105.246857 -0.927951 -0.372702 0.000000 1.5197831540281055e-38
-52.276851 -22.789866 105.096907 -0.918487 -0.395451 0.000000 1.5197831540281055e-38
-51.049795 -24.086485 104.985876 -0.908465 -0.417960 0.000000 1.5197831540281055e-38
-51.541203 -25.290356 104.799697 -0.897892 -0.440216 0.000000 1.5197831540281055e-38
-50.861227 -26.221343 105.373772 -0.886774 -0.462204 0.000000 1.5197831540281055e-38
-49.723937 -27.860739 104.649423 -0.875117 -0.483911 0.000000 1.5197831540281055e-38
-49.749235 -29.139239 104.846846 -0.862929 -0.505325 0.000000 1.5197831540281055e-38
-48.549578 -29.896716 105.038607 -0.850217 -0.526432 0.000000 1.5197831540281055e-38
-47.183378 -30.467023 105.122711 -0.836989 -0.547220 0.000000 1.5197831540281055e-38
-47.450790 -32.484833 105.074605 -0.823253 -0.567675 0.000000 1.5197831540281055e-38
-45.860168 -33.869711 104.667716 -0.809017 -0.587785 0.000000 1.5197831540281055e-38
-45.148778 -34.757716 104.985855 -0.794290 -0.607539 0.000000 1.5197831540281055e-38
-44.625274 -35.818590 105.214365 -0.779081 -0.626924 0.000000 1.5197831540281055e-38
-44.189341 -36.774661 105.360919 -0.763398 -0.645928 0.000000 1.5197831540281055e-38
-42.414905 -37.207188 105.023388 -0.747253 -0.664540 0.000000 1.5197831540281055e-38
-41.631745 -38.494104 105.170851 -0.730653 -0.682749 0.000000 1.5197831540281055e-38
-40.181787 -39.644328 105.197794 -0.713610 -0.700543 0.000000 1.5197831540281055e-38
-52.331599 -23.423555 106.660384 -0.908465 -0.417960 0.000000 1.5197831540281055e-38
-51.456856 -24.875807 106.594126 -0.897892 -0.440216 0.000000 1.5197831540281055e-38
-50.548690 -26.216203 106.562764 -0.886774 -0.462204 0.000000 1.5197831540281055e-38
-49.791723 -27.551665 106.417481 -0.875117 -0.483911 0.000000 1.5197831540281055e-38
-49.382210 -28.545708 106.986183 -0.862929 -0.505325 0.000000 1.5197831540281055e-38
-48.823060 -30.011611 106.195693 -0.850217 -0.526432 0.000000 1.5197831540281055e-38
-47.567566 -31.079459 106.432162 -0.836989 -0.547220 0.000000 1.5197831540281055e-38
-47.126760 -32.515843 106.163561 -0.823253 -0.567675 0.000000 1.5197831540281055e-38
-46.653942 -33.152091 106.592350 -0.809017 -0.587785 0.000000 1.5197831540281055e-38
-44.910513 -34.752014 106.538765 -0.794290 -0.607539 0.000000 1.5197831540281055e-38
-44.684519 -35.923754 107.006566 -0.779081 -0.626924 0.000000 1.5197831540281055e-38
-43.647827 -36.552462 106.467102 -0.763398 -0.645928 0.000000 1.5197831540281055e-38
-43.033573 -37.938462 106.505091 -0.747253 -0.664540 0.000000 1.5197831540281055e-38
-41.455535 -39.472627 106.102145 -0.730653 -0.682749 0.000000 1.5197831540281055e-38
-51.688095 -25.110301 107.537355 -0.897892 -0.440216 0.000000 1.5197831540281055e-38
-50.556387 -27.026755 107.511315 -0.886774 -0.462204 0.000000 1.5197831540281055e-38
-49.701988 -28.110839 108.211360 -0.875117 -0.483911 0.000000 1.5197831540281055e-38
-49.153018 -28.881767 107.680992 -0.862929 -0.505325 0.000000 1.5197831540281055e-38
-48.792045 -29.619138 107.702074 -0.850217 -0.526432 0.000000 1.5197831540281055e-38
-47.761064 -30.931333 107.764648 -0.836989 -0.547220 0.000000 1.5197831540281055e-38
-47.200376 -32.410485 107.818676 -0.823253 -0.567675 0.000000 1.5197831540281055e-38
-46.165929 -33.953130 108.068238 -0.809017 -0.587785 0.000000 1.5197831540281055e-38
-45.294556 -34.795967 107.843208 -0.794290 -0.607539 0.000000 1.5197831540281055e-38
-44.622552 -36.244281 107.646318 -0.779081 -0.626924 0.000000 1.5197831540281055e-38
-43.378309 -36.951722 107.577752 -0.763398 -0.645928 0.000000 1.5197831540281055e-38
-42.713288 -37.964762 107.690871 -0.747253 -0.664540 0.000000 1.5197831540281055e-38
-50.031368 -27.090912 108.949750 -0.875117 -0.483911 0.000000 1.5197831540281055e-38
-49.250455 -29.584729 109.186895 -0.862929 -0.505325 0.000000 1.5197831540281055e-38
-48.411278 -29.910276 109.079278 -0.850217 -0.526432 0.000000 1.5197831540281055e-38
-48.115768 -31.348097 109.425577 -0.836989 -0.547220 0.000000 1.5197831540281055e-38
-47.465904 -32.832778 108.456169 -0.823253 -0.567675 0.000000 1.5197831540281055e-38
-46.286912 -33.102328 108.980299 -0.809017 -0.587785 0.000000 1.5197831540281055e-38
-45.063326 -35.310013 108.644425 -0.794290 -0.607539 0.000000 1.5197831540281055e-38
-44.724359 -35.338439 108.939843 -0.779081 -0.626924 0.000000 1.5197831540281055e-38
-43.637786 -36.846961 108.825728 -0.763398 -0.645928 0.000000 1.5197831540281055e-38
-48.801697 -30.509343 110.083660 -0.850217 -0.526432 0.000000 1.5197831540281055e-38
-47.769887 -30.938027 110.291809 -0.836989 -0.547220 0.000000 1.5197831540281055e-38
-46.853038 -32.724698 109.509653 -0.823253 -0.567675 0.000000 1.5197831540281055e-38
-46.823614 -33.737984 109.871185 -0.809017 -0.587785 0.000000 1.5197831540281055e-38
-45.509751 -34.561241 110.291363 -0.794290 -0.607539 0.000000 1.5197831540281055e-38
-45.305680 -35.117216 110.220493 -0.779081 -0.626924 0.000000 1.5197831540281055e-38
-47.613088 -31.036455 111.748655 -0.836989 -0.547220 0.000000 1.5197831540281055e-38
-47.156966 -32.447811 111.658237 -0.823253 -0.567675 0.000000 1.5197831540281055e-38
-46.208717 -33.424723 111.157872 -0.809017 -0.587785 0.000000 1.5197831540281055e-38
-45.099649 -34.966588 111.673877 -0.794290 -0.607539 0.000000 1.5197831540281055e-38
-46.601638 -33.782379 112.209061 -0.809017 -0.587785 0.000000 1.5197831540281055e-38
