# .PCD v0.7 - Point Cloud Data file format
VERSION 0.7
FIELDS x y z normal_x normal_y normal_z rgb
SIZE 4 4 4 4 4 4 4
TYPE F F F F F F F
COUNT 1 1 1 1 1 1 1
WIDTH 229
HEIGHT 1
VIEWPOINT 0 0 0 1 0 0 0
POINTS 229
DATA ascii
30.965651 33.757479 39.214809 0.669131 0.743145 0.000000 1.5658809689597668e-38
33.299765 32.810000 40.610958 0.722186 0.691698 0.000000 1.5658809689597668e-38
32.490659 33.066341 40.957211 0.704926 0.709281 0.000000 1.5658809689597668e-38
31.903214 33.945532 40.900531 0.687237 0.726434 0.000000 1.5658809689597668e-38
31.661431 34.459342 40.568394 0.669131 0.743145 0.000000 1.5658809689597668e-38
30.017389 35.371031 40.970528 0.650618 0.759405 0.000000 1.5658809689597668e-38
35.533499 30.767163 42.366336 0.755383 0.655284 0.000000 1.5658809689597668e-38
34.453282 31.375732 42.007228 0.739009 0.673696 0.000000 1.5658809689597668e-38
34.341847 32.074493 41.705982 0.722186 0.691698 0.000000 1.5658809689597668e-38
32.741711 32.896754 42.439810 0.704926 0.709281 0.000000 1.5658809689597668e-38
31.622485 33.687701 42.119013 0.687237 0.726434 0.000000 1.5658809689597668e-38
31.565920 34.848871 42.547561 0.669131 0.743145 0.000000 1.5658809689597668e-38
30.426388 35.331662 42.318523 0.650618 0.759405 0.000000 1.5658809689597668e-38
29.031310 35.616111 42.354735 0.631711 0.775204 0.000000 1.5658809689597668e-38
36.994401 28.623160 43.297178 0.801714 0.597707 0.000000 1.5658809689597668e-38
36.157507 29.199907 43.283912 0.786745 0.617278 0.000000 1.5658809689597668e-38
35.836050 30.081783 42.534349 0.771298 0.636474 0.000000 1.5658809689597668e-38
35.156001 30.593354 43.554625 0.755383 0.655284 0.000000 1.5658809689597668e-38
35.275613 31.471862 43.436952 0.739009 0.673696 0.000000 1.5658809689597668e-38
34.640355 32.389681 43.439429 0.722186 0.691698 0.000000 1.5658809689597668e-38
32.636404 33.799315 43.085076 0.704926 0.709281 0.000000 1.5658809689597668e-38
32.259913 34.086777 43.324571 0.687237 0.726434 0.000000 1.5658809689597668e-38
31.201244 34.869596 43.826173 0.669131 0.743145 0.000000 1.5658809689597668e-38
31.148994 35.506022 43.164130 0.650618 0.759405 0.000000 1.5658809689597668e-38
29.336764 37.104185 43.337620 0.631711 0.775204 0.000000 1.5658809689597668e-38
29.010629 37.225085 43.961490 0.612420 0.790532 0.000000 1.5658809689597668e-38
27.681120 37.379236 43.856805 0.592758 0.805381 0.000000 1.5658809689597668e-38
37.142481 28.065575 44.359689 0.801714 0.597707 0.000000 1.5658809689597668e-38
36.994977 28.391268 44.394408 0.786745 0.617278 0.000000 1.5658809689597668e-38
36.163035 29.885841 44.465220 0.771298 0.636474 0.000000 1.5658809689597668e-38
35.553360 31.284793 44.381578 0.755383 0.655284 0.000000 1.5658809689597668e-38
34.494016 31.176440 44.382749 0.739009 0.673696 0.000000 1.5658809689597668e-38
33.555559 32.829627 44.507251 0.722186 0.691698 0.000000 1.5658809689597668e-38
33.445719 33.808509 44.276565 0.704926 0.709281 0.000000 1.5658809689597668e-38
32.227482 34.575250 44.592848 0.687237 0.726434 0.000000 1.5658809689597668e-38
31.636326 35.271834 44.805037 0.669131 0.743145 0.000000 1.5658809689597668e-38
30.732052 36.145820 44.515606 0.650618 0.759405 0.000000 1.5658809689597668e-38
29.875257 36.417166 44.842248 0.631711 0.775204 0.000000 1.5658809689597668e-38
28.601650 36.686477 44.732560 0.612420 0.790532 0.000000 1.5658809689597668e-38
27.580792 37.554123 44.915561 0.592758 0.805381 0.000000 1.5658809689597668e-38
27.234742 38.462705 43.622444 0.572735 0.819740 0.000000 1.5658809689597668e-38
38.213785 28.202516 46.625827 0.801714 0.597707 0.000000 1.5658809689597668e-38
37.654980 28.981740 45.811176 0.786745 0.617278 0.000000 1.5658809689597668e-38
35.864061 30.094768 46.275304 0.771298 0.636474 0.000000 1.5658809689597668e-38
36.541872 30.939351 45.873661 0.755383 0.655284 0.000000 1.5658809689597668e-38
35.115072 32.439984 45.478304 0.739009 0.673696 0.000000 1.5658809689597668e-38
34.934922 32.601957 45.422150 0.722186 0.691698 0.000000 1.5658809689597668e-38
33.227755 33.285352 45.898973 0.704926 0.709281 0.000000 1.5658809689597668e-38
31.990450 34.381525 45.972387 0.687237 0.726434 0.000000 1.5658809689597668e-38
32.075131 35.333168 46.199578 0.669131 0.743145 0.000000 1.5658809689597668e-38
30.573491 36.015869 45.104428 0.650618 0.759405 0.000000 1.5658809689597668e-38
29.827233 36.760470 45.916366 0.631711 0.775204 0.000000 1.5658809689597668e-38
28.477316 37.251981 45.697968 0.612420 0.790532 0.000000 1.5658809689597668e-38
27.891352 38.288432 45.708148 0.592758 0.805381 0.000000 1.5658809689597668e-38
27.103397 38.602831 46.092643 0.572735 0.819740 0.000000 1.5658809689597668e-38
26.452456 39.312477 46.628373 0.552365 0.833602 0.000000 1.5658809689597668e-38
37.945941 28.605202 47.216798 0.801714 0.597707 0.000000 1.5658809689597668e-38
37.451871 28.659219 47.369724 0.786745 0.617278 0.000000 1.5658809689597668e-38
37.048264 30.280602 47.078883 0.771298 0.636474 0.000000 1.5658809689597668e-38
36.030357 31.563039 47.085476 0.755383 0.655284 0.000000 1.5658809689597668e-38
35.044357 32.113892 47.006976 0.739009 0.673696 0.000000 1.5658809689597668e-38
34.302745 32.324781 47.167159 0.722186 0.691698 0.000000 1.5658809689597668e-38
33.834242 33.995808 47.295607 0.704926 0.709281 0.000000 1.5658809689597668e-38
32.626713 34.548104 47.367730 0.687237 0.726434 0.000000 1.5658809689597668e-38
32.042811 35.744065 46.808494 0.669131 0.743145 0.000000 1.5658809689597668e-38
30.699613 35.970715 46.727399 0.650618 0.759405 0.000000 1.5658809689597668e-38
29.608798 36.961506 47.130474 0.631711 0.775204 0.000000 1.5658809689597668e-38
29.162821 37.655114 46.571196 0.612420 0.790532 0.000000 1.5658809689597668e-38
28.010996 38.166230 47.024861 0.592758 0.805381 0.000000 1.5658809689597668e-38
26.766049 38.657989 46.879366 0.572735 0.819740 0.000000 1.5658809689597668e-38
26.553914 39.673305 47.316779 0.552365 0.833602 0.000000 1.5658809689597668e-38
25.216222 40.229420 47.160032 0.531659 0.846958 0.000000 1.5658809689597668e-38
38.263399 28.415054 48.061863 0.801714 0.597707 0.000000 1.5658809689597668e-38
37.111703 29.201294 48.839028 0.786745 0.617278 0.000000 1.5658809689597668e-38
36.708150 30.614926 48.188503 0.771298 0.636474 0.000000 1.5658809689597668e-38
35.959744 31.084996 48.651112 0.755383 0.655284 0.000000 1.5658809689597668e-38
35.383801 31.917684 48.129190 0.739009 0.673696 0.000000 1.5658809689597668e-38
34.791738 32.162254 48.340573 0.722186 0.691698 0.000000 1.5658809689597668e-38
33.806407 33.628097 48.293801 0.704926 0.709281 0.000000 1.5658809689597668e-38
32.951555 34.302331 48.500003 0.687237 0.726434 0.000000 1.5658809689597668e-38
32.025885 35.423388 48.278901 0.669131 0.743145 0.000000 1.5658809689597668e-38
31.265274 36.940187 48.430407 0.650618 0.759405 0.000000 1.5658809689597668e-38
30.393872 37.057477 48.817918 0.631711 0.775204 0.000000 1.5658809689597668e-38
28.790176 37.209804 48.293332 0.612420 0.790532 0.000000 1.5658809689597668e-38
28.489548 37.667339 48.246392 0.592758 0.805381 0.000000 1.5658809689597668e-38
27.281713 39.348333 48.376043 0.572735 0.819740 0.000000 1.5658809689597668e-38
25.821154 39.462678 48.005386 0.552365 0.833602 0.000000 1.5658809689597668e-38
25.597059 40.536544 48.061205 0.531659 0.846958 0.000000 1.5658809689597668e-38
24.415089 40.719662 48.862314 0.510631 0.859800 0.000000 1.5658809689597668e-38
23.525585 41.860918 48.660466 0.489293 0.872120 0.000000 1.5658809689597668e-38
38.527818 28.614546 49.700016 0.801714 0.597707 0.000000 1.5658809689597668e-38
37.993113 28.925586 49.794176 0.786745 0.617278 0.000000 1.5658809689597668e-38
37.068092 30.366709 49.333497 0.771298 0.636474 0.000000 1.5658809689597668e-38
36.238643 31.277124 49.203435 0.755383 0.655284 0.000000 1.5658809689597668e-38
35.231470 31.999253 49.888507 0.739009 0.673696 0.000000 1.5658809689597668e-38
34.653754 33.850592 49.595859 0.722186 0.691698 0.000000 1.5658809689597668e-38
33.985800 33.699554 49.419073 0.704926 0.709281 0.000000 1.5658809689597668e-38
32.982555 34.649505 49.345096 0.687237 0.726434 0.000000 1.5658809689597668e-38
32.218401 35.774101 49.083452 0.669131 0.743145 0.000000 1.5658809689597668e-38
31.289605 36.587932 49.307453 0.650618 0.759405 0.000000 1.5658809689597668e-38
30.090091 37.312211 48.712610 0.631711 0.775204 0.000000 1.5658809689597668e-38
29.373079 38.405270 48.705628 0.612420 0.790532 0.000000 1.5658809689597668e-38
28.676272 38.790422 49.053106 0.592758 0.805381 0.000000 1.5658809689597668e-38
27.625254 39.616224 49.131551 0.572735 0.819740 0.000000 1.5658809689597668e-38
26.279961 39.988465 49.777837 0.552365 0.833602 0.000000 1.5658809689597668e-38
25.336730 40.608568 49.285068 0.531659 0.846958 0.000000 1.5658809689597668e-38
24.497890 41.551100 49.516305 0.510631 0.859800 0.000000 1.5658809689597668e-38
23.359874 41.818136 49.244348 0.489293 0.872120 0.000000 1.5658809689597668e-38
22.131137 42.754462 49.975849 0.467658 0.883910 0.000000 1.5658809689597668e-38
38.697388 28.746272 50.323103 0.801714 0.597707 0.000000 1.5658809689597668e-38
38.320006 30.278117 51.027110 0.786745 0.617278 0.000000 1.5658809689597668e-38
37.434175 31.205084 50.407400 0.771298 0.636474 0.000000 1.5658809689597668e-38
36.088623 31.457783 50.811006 0.755383 0.655284 0.000000 1.5658809689597668e-38
35.529533 32.163480 50.723346 0.739009 0.673696 0.000000 1.5658809689597668e-38
34.778230 33.589539 50.735012 0.722186 0.691698 0.000000 1.5658809689597668e-38
33.403268 34.300207 51.196185 0.704926 0.709281 0.000000 1.5658809689597668e-38
33.130781 35.307326 50.570112 0.687237 0.726434 0.000000 1.5658809689597668e-38
32.419185 35.593278 50.647700 0.669131 0.743145 0.000000 1.5658809689597668e-38
31.285652 36.743334 50.474402 0.650618 0.759405 0.000000 1.5658809689597668e-38
30.006518 37.502813 50.851407 0.631711 0.775204 0.000000 1.5658809689597668e-38
29.549989 38.380416 50.660858 0.612420 0.790532 0.000000 1.5658809689597668e-38
28.652987 38.711214 50.644066 0.592758 0.805381 0.000000 1.5658809689597668e-38
27.705644 40.188247 50.944339 0.572735 0.819740 0.000000 1.5658809689597668e-38
26.786400 40.408385 50.017316 0.552365 0.833602 0.000000 1.5658809689597668e-38
25.719646 41.093193 50.746977 0.531659 0.846958 0.000000 1.5658809689597668e-38
24.597460 41.156986 50.591626 0.510631 0.859800 0.000000 1.5658809689597668e-38
23.331944 42.332579 51.172150 0.489293 0.872120 0.000000 1.5658809689597668e-38
23.119775 42.345970 50.521126 0.467658 0.883910 0.000000 1.5658809689597668e-38
21.257925 42.837779 50.420924 0.445738 0.895163 0.000000 1.5658809689597668e-38
39.014490 28.860558 51.464836 0.801714 0.597707 0.000000 1.5658809689597668e-38
38.455474 29.761957 52.577457 0.786745 0.617278 0.000000 1.5658809689597668e-38
37.316357 30.866926 51.829237 0.771298 0.636474 0.000000 1.5658809689597668e-38
36.658281 32.780165 51.854072 0.755383 0.655284 0.000000 1.5658809689597668e-38
36.175128 32.656118 52.310901 0.739009 0.673696 0.000000 1.5658809689597668e-38
34.397905 34.084319 52.061071 0.722186 0.691698 0.000000 1.5658809689597668e-38
34.061151 34.623432 52.001936 0.704926 0.709281 0.000000 1.5658809689597668e-38
32.940395 34.456187 52.506581 0.687237 0.726434 0.000000 1.5658809689597668e-38
32.340976 35.808664 51.798198 0.669131 0.743145 0.000000 1.5658809689597668e-38
31.950570 36.633030 52.152073 0.650618 0.759405 0.000000 1.5658809689597668e-38
30.495108 37.168812 52.229148 0.631711 0.775204 0.000000 1.5658809689597668e-38
29.992092 38.083858 51.947436 0.612420 0.790532 0.000000 1.5658809689597668e-38
28.737979 39.140345 52.550150 0.592758 0.805381 0.000000 1.5658809689597668e-38
27.641973 39.603267 51.906168 0.572735 0.819740 0.000000 1.5658809689597668e-38
26.469887 39.857002 51.998892 0.552365 0.833602 0.000000 1.5658809689597668e-38
25.907910 41.021245 51.939951 0.531659 0.846958 0.000000 1.5658809689597668e-38
24.461650 41.718186 52.009721 0.510631 0.859800 0.000000 1.5658809689597668e-38
23.840266 42.336243 52.076908 0.489293 0.872120 0.000000 1.5658809689597668e-38
23.045575 42.981831 52.102946 0.467658 0.883910 0.000000 1.5658809689597668e-38
21.065578 43.671263 51.869406 0.445738 0.895163 0.000000 1.5658809689597668e-38
20.537380 43.492064 52.585725 0.423549 0.905873 0.000000 1.5658809689597668e-38
18.684183 44.812454 52.086311 0.401102 0.916034 0.000000 1.5658809689597668e-38
39.263859 29.059689 53.485607 0.801714 0.597707 0.000000 1.5658809689597668e-38
38.405513 29.759946 52.995718 0.786745 0.617278 0.000000 1.5658809689597668e-38
37.993070 31.346110 53.443100 0.771298 0.636474 0.000000 1.5658809689597668e-38
37.051931 32.032902 53.296408 0.755383 0.655284 0.000000 1.5658809689597668e-38
35.983267 33.299141 53.056479 0.739009 0.673696 0.000000 1.5658809689597668e-38
35.221676 33.153220 52.766661 0.722186 0.691698 0.000000 1.5658809689597668e-38
34.854028 34.706513 53.132067 0.704926 0.709281 0.000000 1.5658809689597668e-38
33.472041 34.948861 53.067440 0.687237 0.726434 0.000000 1.5658809689597668e-38
32.129860 36.081060 53.399972 0.669131 0.743145 0.000000 1.5658809689597668e-38
31.802278 37.437784 53.284296 0.650618 0.759405 0.000000 1.5658809689597668e-38
30.002504 38.315205 52.943668 0.631711 0.775204 0.000000 1.5658809689597668e-38
29.855776 38.506605 53.268146 0.612420 0.790532 0.000000 1.5658809689597668e-38
28.864563 39.218452 52.799385 0.592758 0.805381 0.000000 1.5658809689597668e-38
28.651726 40.093075 53.211441 0.572735 0.819740 0.000000 1.5658809689597668e-38
27.436753 40.250741 53.456393 0.552365 0.833602 0.000000 1.5658809689597668e-38
25.709884 41.343060 53.323212 0.531659 0.846958 0.000000 1.5658809689597668e-38
24.152021 41.417877 53.671808 0.510631 0.859800 0.000000 1.5658809689597668e-38
23.738759 43.047462 53.588914 0.489293 0.872120 0.000000 1.5658809689597668e-38
22.695312 42.928275 53.690401 0.467658 0.883910 0.000000 1.5658809689597668e-38
22.325468 43.482573 53.657326 0.445738 0.895163 0.000000 1.5658809689597668e-38
20.923564 44.450591 53.226220 0.423549 0.905873 0.000000 1.5658809689597668e-38
19.320315 44.268021 52.804596 0.401102 0.916034 0.000000 1.5658809689597668e-38
18.990936 45.055057 52.852444 0.378411 0.925638 0.000000 1.5658809689597668e-38
39.347703 28.976412 54.570212 0.801714 0.597707 0.000000 1.5658809689597668e-38
37.961777 30.219633 54.835643 0.786745 0.617278 0.000000 1.5658809689597668e-38
37.659212 30.837002 54.005448 0.771298 0.636474 0.000000 1.5658809689597668e-38
37.063520 32.328853 54.416161 0.755383 0.655284 0.000000 1.5658809689597668e-38
36.006400 32.371711 54.470198 0.739009 0.673696 0.000000 1.5658809689597668e-38
35.115927 33.641984 54.917914 0.722186 0.691698 0.000000 1.5658809689597668e-38
33.937980 34.191179 54.502387 0.704926 0.709281 0.000000 1.5658809689597668e-38
33.497693 35.374797 54.514785 0.687237 0.726434 0.000000 1.5658809689597668e-38
32.804476 36.055706 54.255480 0.669131 0.743145 0.000000 1.5658809689597668e-38
31.837120 37.193214 54.577966 0.650618 0.759405 0.000000 1.5658809689597668e-38
30.722532 38.019950 54.718094 0.631711 0.775204 0.000000 1.5658809689597668e-38
29.968011 38.634713 54.362327 0.612420 0.790532 0.000000 1.5658809689597668e-38
28.807024 39.110420 54.343548 0.592758 0.805381 0.000000 1.5658809689597668e-38
28.148165 39.827405 54.410370 0.572735 0.819740 0.000000 1.5658809689597668e-38
26.959174 41.305489 54.649823 0.552365 0.833602 0.000000 1.5658809689597668e-38
26.215852 41.701405 54.269281 0.531659 0.846958 0.000000 1.5658809689597668e-38
25.388400 42.101238 54.419590 0.510631 0.859800 0.000000 1.5658809689597668e-38
23.567282 42.535566 53.903208 0.489293 0.872120 0.000000 1.5658809689597668e-38
22.799045 43.059828 54.313484 0.467658 0.883910 0.000000 1.5658809689597668e-38
21.385627 43.994221 54.610749 0.445738 0.895163 0.000000 1.5658809689597668e-38
21.223024 44.805421 54.479851 0.423549 0.905873 0.000000 1.5658809689597668e-38
19.925212 44.882315 54.304784 0.401102 0.916034 0.000000 1.5658809689597668e-38
18.424946 45.465341 55.659367 0.378411 0.925638 0.000000 1.5658809689597668e-38
17.737398 45.789844 54.578127 0.355491 0.934680 0.000000 1.5658809689597668e-38
39.045373 29.253314 55.981365 0.801714 0.597707 0.000000 1.5658809689597668e-38
38.439511 30.463420 55.933736 0.786745 0.617278 0.000000 1.5658809689597668e-38
37.917896 31.024379 55.650932 0.771298 0.636474 0.000000 1.5658809689597668e-38
36.705487 32.061683 55.337934 0.755383 0.655284 0.000000 1.5658809689597668e-38
36.309432 32.732456 55.695129 0.739009 0.673696 0.000000 1.5658809689597668e-38
35.836514 34.356816 55.296470 0.722186 0.691698 0.000000 1.5658809689597668e-38
34.448422 35.118174 55.881316 0.704926 0.709281 0.000000 1.5658809689597668e-38
33.594254 35.559465 55.694783 0.687237 0.726434 0.000000 1.5658809689597668e-38
32.338883 36.684391 55.995025 0.669131 0.743145 0.000000 1.5658809689597668e-38
31.862227 36.900236 56.093887 0.650618 0.759405 0.000000 1.5658809689597668e-38
31.115465 38.315240 55.273763 0.631711 0.775204 0.000000 1.5658809689597668e-38
29.706217 38.980206 55.978373 0.612420 0.790532 0.000000 1.5658809689597668e-38
28.796241 39.555257 55.193936 0.592758 0.805381 0.000000 1.5658809689597668e-38
27.940407 40.214487 55.816745 0.572735 0.819740 0.000000 1.5658809689597668e-38
26.517915 41.369049 55.618938 0.552365 0.833602 0.000000 1.5658809689597668e-38
26.520254 41.839000 55.925793 0.531659 0.846958 0.000000 1.5658809689597668e-38
25.704453 42.026094 55.710736 0.510631 0.859800 0.000000 1.5658809689597668e-38
23.752340 42.835447 55.886131 0.489293 0.872120 0.000000 1.5658809689597668e-38
40.545692 29.858141 57.186900 0.801714 0.597707 0.000000 1.5658809689597668e-38
39.348368 30.517179 56.866716 0.786745 0.617278 0.000000 1.5658809689597668e-38
38.503764 31.842337 57.091773 0.771298 0.636474 0.000000 1.5658809689597668e-38
37.575668 31.995063 56.829976 0.755383 0.655284 0.000000 1.5658809689597668e-38
37.013305 33.517419 56.468610 0.739009 0.673696 0.000000 1.5658809689597668e-38
35.511911 34.627622 57.043782 0.722186 0.691698 0.000000 1.5658809689597668e-38
34.873234 35.097401 56.882148 0.704926 0.709281 0.000000 1.5658809689597668e-38
33.787681 35.630945 57.210314 0.687237 0.726434 0.000000 1.5658809689597668e-38
33.121897 36.918563 57.071223 0.669131 0.743145 0.000000 1.5658809689597668e-38
32.558863 37.645981 57.154299 0.650618 0.759405 0.000000 1.5658809689597668e-38
39.540619 29.178938 58.270223 0.801714 0.597707 0.000000 1.5658809689597668e-38
38.923539 30.844866 57.851653 0.786745 0.617278 0.000000 1.5658809689597668e-38
38.443421 31.765848 58.207869 0.771298 0.636474 0.000000 1.5658809689597668e-38
