# .PCD v0.7 - Point Cloud Data file format
VERSION 0.7
FIELDS x y z normal_x normal_y normal_z rgb
SIZE 4 4 4 4 4 4 4
TYPE F F F F F F F
COUNT 1 1 1 1 1 1 1
WIDTH 316
HEIGHT 1
VIEWPOINT 0 0 0 1 0 0 0
POINTS 316
DATA ascii
-39.320073 -16.151998 0.142409 -0.927951 -0.372702 0.000000 1.7962614429870884e-38
-39.075023 -17.355948 0.278489 -0.918487 -0.395451 0.000000 1.7962614429870884e-38
-38.791274 -17.923485 -0.320926 -0.908465 -0.417960 0.000000 1.7962614429870884e-38
-38.356696 -18.580802 -0.056773 -0.897892 -0.440216 0.000000 1.7962614429870884e-38
-37.589283 -19.535088 0.396198 -0.886774 -0.462204 0.000000 1.7962614429870884e-38
-37.295308 -21.009293 0.320167 -0.875117 -0.483911 0.000000 1.7962614429870884e-38
-36.773929 -21.141943 0.115013 -0.862929 -0.505325 0.000000 1.7962614429870884e-38
-36.173570 -22.268734 0.585304 -0.850217 -0.526432 0.000000 1.7962614429870884e-38
-34.948943 -23.236016 0.048057 -0.836989 -0.547220 0.000000 1.7962614429870884e-38
-34.665378 -24.379874 0.099921 -0.823253 -0.567675 0.000000 1.7962614429870884e-38
-34.390981 -24.886701 -0.250011 -0.809017 -0.587785 0.000000 1.7962614429870884e-38
-34.234191 -26.442300 -0.335215 -0.794290 -0.607539 0.000000 1.7962614429870884e-38
-33.248527 -26.732219 0.581169 -0.779081 -0.626924 0.000000 1.7962614429870884e-38
-32.112629 -27.740570 0.104313 -0.763398 -0.645928 0.000000 1.7962614429870884e-38
-31.880356 -28.328267 0.055598 -0.747253 -0.664540 0.000000 1.7962614429870884e-38
-30.867007 -29.118604 0.319155 -0.730653 -0.682749 0.000000 1.7962614429870884e-38
-30.671013 -29.771177 0.779302 -0.713610 -0.700543 0.000000 1.7962614429870884e-38
-29.518769 -30.081292 0.027456 -0.696134 -0.717912 0.000000 1.7962614429870884e-38
-28.650759 -31.247946 -0.051122 -0.678235 -0.734845 0.000000 1.7962614429870884e-38
-28.280637 -31.802515 -0.255461 -0.659925 -0.751332 0.000000 1.7962614429870884e-38
-27.051890 -32.287328 0.109959 -0.641213 -0.767363 0.000000 1.7962614429870884e-38
-39.517635 -14.941749 1.462150 -0.936852 -0.349727 0.000000 1.7962614429870884e-38
-38.861433 -15.253155 0.868713 -0.927951 -0.372702 0.000000 1.7962614429870884e-38
-39.317269 -16.362756 0.919629 -0.918487 -0.395451 0.000000 1.7962614429870884e-38
-39.010110 -17.910817 1.363181 -0.908465 -0.417960 0.000000 1.7962614429870884e-38
-38.194662 -18.906070 1.034850 -0.897892 -0.440216 0.000000 1.7962614429870884e-38
-37.905071 -19.909336 1.921603 -0.886774 -0.462204 0.000000 1.7962614429870884e-38
-37.106660 -20.302111 1.090390 -0.875117 -0.483911 0.000000 1.7962614429870884e-38
-36.733664 -21.692374 0.441601 -0.862929 -0.505325 0.000000 1.7962614429870884e-38
-36.550975 -22.918623 0.562178 -0.850217 -0.526432 0.000000 1.7962614429870884e-38
-35.933937 -22.861496 1.223783 -0.836989 -0.547220 0.000000 1.7962614429870884e-38
-34.604319 -24.005113 1.471881 -0.823253 -0.567675 0.000000 1.7962614429870884e-38
-34.656673 -24.826000 1.455728 -0.809017 -0.587785 0.000000 1.7962614429870884e-38
-33.933439 -25.654933 1.406970 -0.794290 -0.607539 0.000000 1.7962614429870884e-38
-33.278855 -26.983558 0.881875 -0.779081 -0.626924 0.000000 1.7962614429870884e-38
-32.421478 -27.356380 0.999356 -0.763398 -0.645928 0.000000 1.7962614429870884e-38
-31.753196 -28.074410 1.422571 -0.747253 -0.664540 0.000000 1.7962614429870884e-38
-30.590068 -28.636418 0.936726 -0.730653 -0.682749 0.000000 1.7962614429870884e-38
-29.826162 -29.935127 1.550575 -0.713610 -0.700543 0.000000 1.7962614429870884e-38
-29.568035 -30.637725 0.694804 -0.696134 -0.717912 0.000000 1.7962614429870884e-38
-28.879129 -31.701616 1.527303 -0.678235 -0.734845 0.000000 1.7962614429870884e-38
-27.594351 -32.173634 1.327705 -0.659925 -0.751332 0.000000 1.7962614429870884e-38
-39.558520 -15.229686 2.388317 -0.936852 -0.349727 0.000000 1.7962614429870884e-38
-39.628332 -15.796401 2.282080 -0.927951 -0.372702 0.000000 1.7962614429870884e-38
-39.131412 -16.883735 2.253910 -0.918487 -0.395451 0.000000 1.7962614429870884e-38
-38.478535 -17.698372 2.447643 -0.908465 -0.417960 0.000000 1.7962614429870884e-38
-38.303672 -18.477130 2.403477 -0.897892 -0.440216 0.000000 1.7962614429870884e-38
-37.793839 -19.619528 2.983203 -0.886774 -0.462204 0.000000 1.7962614429870884e-38
-37.608343 -20.342890 1.906275 -0.875117 -0.483911 0.000000 1.7962614429870884e-38
-36.622873 -21.011744 2.620827 -0.862929 -0.505325 0.000000 1.7962614429870884e-38
-36.096414 -22.549782 2.483541 -0.850217 -0.526432 0.000000 1.7962614429870884e-38
-35.660821 -23.501231 2.387264 -0.836989 -0.547220 0.000000 1.7962614429870884e-38
-34.941685 -24.365269 2.232342 -0.823253 -0.567675 0.000000 1.7962614429870884e-38
-34.804020 -24.872901 2.637824 -0.809017 -0.587785 0.000000 1.7962614429870884e-38
-33.700315 -25.540410 2.500587 -0.794290 -0.607539 0.000000 1.7962614429870884e-38
-33.005575 -26.562971 2.446765 -0.779081 -0.626924 0.000000 1.7962614429870884e-38
-32.615681 -26.797857 2.338642 -0.763398 -0.645928 0.000000 1.7962614429870884e-38
-31.969749 -28.123207 2.549783 -0.747253 -0.664540 0.000000 1.7962614429870884e-38
-31.485688 -28.690762 2.445968 -0.730653 -0.682749 0.000000 1.7962614429870884e-38
-30.672935 -29.427463 2.661929 -0.713610 -0.700543 0.000000 1.7962614429870884e-38
-29.976005 -29.989394 2.671866 -0.696134 -0.717912 0.000000 1.7962614429870884e-38
-28.838719 -30.765404 2.522016 -0.678235 -0.734845 0.000000 1.7962614429870884e-38
-28.065597 -32.141513 2.648782 -0.659925 -0.751332 0.000000 1.7962614429870884e-38
-39.462365 -15.396132 3.765234 -0.936852 -0.349727 0.000000 1.7962614429870884e-38
-39.646361 -15.964232 3.439898 -0.927951 -0.372702 0.000000 1.7962614429870884e-38
-39.119053 -16.268288 3.332011 -0.918487 -0.395451 0.000000 1.7962614429870884e-38
-38.992793 -18.168680 4.229566 -0.908465 -0.417960 0.000000 1.7962614429870884e-38
-38.330876 -18.732433 3.590505 -0.897892 -0.440216 0.000000 1.7962614429870884e-38
-38.002578 -19.730560 4.448813 -0.886774 -0.462204 0.000000 1.7962614429870884e-38
-36.805807 -20.839235 3.905612 -0.875117 -0.483911 0.000000 1.7962614429870884e-38
-36.954465 -22.027106 4.017193 -0.862929 -0.505325 0.000000 1.7962614429870884e-38
-35.816276 -22.078173 3.570381 -0.850217 -0.526432 0.000000 1.7962614429870884e-38
-35.651678 -23.051259 3.828789 -0.836989 -0.547220 0.000000 1.7962614429870884e-38
-35.135464 -24.631978 3.745503 -0.823253 -0.567675 0.000000 1.7962614429870884e-38
-34.088138 -25.360942 3.902968 -0.809017 -0.587785 0.000000 1.7962614429870884e-38
-33.685955 -25.616852 3.972933 -0.794290 -0.607539 0.000000 1.7962614429870884e-38
-33.346823 -27.151527 3.551284 -0.779081 -0.626924 0.000000 1.7962614429870884e-38
-32.204694 -27.637393 3.503127 -0.763398 -0.645928 0.000000 1.7962614429870884e-38
-32.331071 -27.740671 3.959054 -0.747253 -0.664540 0.000000 1.7962614429870884e-38
-30.847636 -28.750661 3.884353 -0.730653 -0.682749 0.000000 1.7962614429870884e-38
-30.426974 -29.846990 3.583071 -0.713610 -0.700543 0.000000 1.7962614429870884e-38
-28.819896 -30.369879 3.572200 -0.696134 -0.717912 0.000000 1.7962614429870884e-38
-28.709336 -31.560166 4.162692 -0.678235 -0.734845 0.000000 1.7962614429870884e-38
-39.655211 -14.805698 4.975306 -0.936852 -0.349727 0.000000 1.7962614429870884e-38
-39.567420 -16.226969 4.661860 -0.927951 -0.372702 0.000000 1.7962614429870884e-38
-39.178027 -16.759094 5.380697 -0.918487 -0.395451 0.000000 1.7962614429870884e-38
-38.679410 -17.488540 5.272248 -0.908465 -0.417960 0.000000 1.7962614429870884e-38
-38.286277 -18.558429 4.875395 -0.897892 -0.440216 0.000000 1.7962614429870884e-38
-37.346974 -19.481961 4.591308 -0.886774 -0.462204 0.000000 1.7962614429870884e-38
-37.199015 -20.102215 4.894084 -0.875117 -0.483911 0.000000 1.7962614429870884e-38
-36.594402 -21.344316 4.637467 -0.862929 -0.505325 0.000000 1.7962614429870884e-38
-36.034451 -22.824603 4.760766 -0.850217 -0.526432 0.000000 1.7962614429870884e-38
-35.301924 -23.184196 4.857110 -0.836989 -0.547220 0.000000 1.7962614429870884e-38
-34.906053 -24.179881 4.952227 -0.823253 -0.567675 0.000000 1.7962614429870884e-38
-34.237023 -25.236025 4.960555 -0.809017 -0.587785 0.000000 1.7962614429870884e-38
-33.900921 -26.334270 4.672317 -0.794290 -0.607539 0.000000 1.7962614429870884e-38
-32.689427 -26.568246 4.551377 -0.779081 -0.626924 0.000000 1.7962614429870884e-38
-32.954512 -27.526188 5.416810 -0.763398 -0.645928 0.000000 1.7962614429870884e-38
-31.861224 -27.892624 5.054033 -0.747253 -0.664540 0.000000 1.7962614429870884e-38
-30.957304 -29.460453 5.229710 -0.730653 -0.682749 0.000000 1.7962614429870884e-38
-30.473761 -29.558180 4.704203 -0.713610 -0.700543 0.000000 1.7962614429870884e-38
-29.576329 -30.450776 4.902244 -0.696134 -0.717912 0.000000 1.7962614429870884e-38
-40.451255 -13.470239 6.105254 -0.945184 -0.326539 0.000000 1.7962614429870884e-38
-40.038160 -14.752978 5.634614 -0.936852 -0.349727 0.000000 1.7962614429870884e-38
-39.766137 -15.582084 5.664340 -0.927951 -0.372702 0.000000 1.7962614429870884e-38
-38.790551 -16.392139 6.074730 -0.918487 -0.395451 0.000000 1.7962614429870884e-38
-38.611373 -17.468601 6.045530 -0.908465 -0.417960 0.000000 1.7962614429870884e-38
-37.988184 -18.953710 6.042286 -0.897892 -0.440216 0.000000 1.7962614429870884e-38
-38.014697 -19.586225 6.532958 -0.886774 -0.462204 0.000000 1.7962614429870884e-38
-37.333576 -20.995094 5.860755 -0.875117 -0.483911 0.000000 1.7962614429870884e-38
-36.640777 -20.972670 6.303685 -0.862929 -0.505325 0.000000 1.7962614429870884e-38
-36.333725 -22.195168 6.113717 -0.850217 -0.526432 0.000000 1.7962614429870884e-38
-35.767652 -23.598064 6.608102 -0.836989 -0.547220 0.000000 1.7962614429870884e-38
-35.830794 -23.942521 6.046444 -0.823253 -0.567675 0.000000 1.7962614429870884e-38
-34.585709 -24.530855 5.971328 -0.809017 -0.587785 0.000000 1.7962614429870884e-38
-34.039280 -25.919138 6.309721 -0.794290 -0.607539 0.000000 1.7962614429870884e-38
-33.319928 -27.177936 5.925858 -0.779081 -0.626924 0.000000 1.7962614429870884e-38
-32.134935 -27.492891 6.320893 -0.763398 -0.645928 0.000000 1.7962614429870884e-38
-31.909983 -28.506015 6.688838 -0.747253 -0.664540 0.000000 1.7962614429870884e-38
-31.180911 -29.216832 6.514410 -0.730653 -0.682749 0.000000 1.7962614429870884e-38
-30.615162 -30.020238 6.188641 -0.713610 -0.700543 0.000000 1.7962614429870884e-38
-29.653920 -30.503818 6.813068 -0.696134 -0.717912 0.000000 1.7962614429870884e-38
-39.801409 -13.818519 7.296908 -0.945184 -0.326539 0.000000 1.7962614429870884e-38
-40.228635 -15.065878 7.065509 -0.936852 -0.349727 0.000000 1.7962614429870884e-38
-39.303891 -16.125472 7.750741 -0.927951 -0.372702 0.000000 1.7962614429870884e-38
-39.285543 -17.175505 7.294790 -0.918487 -0.395451 0.000000 1.7962614429870884e-38
-39.525266 -17.858546 7.371645 -0.908465 -0.417960 0.000000 1.7962614429870884e-38
-38.039738 -19.337203 7.771240 -0.897892 -0.440216 0.000000 1.7962614429870884e-38
-37.566882 -19.333298 7.406864 -0.886774 -0.462204 0.000000 1.7962614429870884e-38
-37.011837 -21.075919 7.636595 -0.875117 -0.483911 0.000000 1.7962614429870884e-38
-37.027646 -22.043074 7.085438 -0.862929 -0.505325 0.000000 1.7962614429870884e-38
-36.252589 -22.694970 7.535502 -0.850217 -0.526432 0.000000 1.7962614429870884e-38
-36.232661 -23.972208 7.834397 -0.836989 -0.547220 0.000000 1.7962614429870884e-38
-34.833324 -24.521100 7.421781 -0.823253 -0.567675 0.000000 1.7962614429870884e-38
-34.191574 -24.938087 7.467147 -0.809017 -0.587785 0.000000 1.7962614429870884e-38
-33.540899 -26.125381 7.432034 -0.794290 -0.607539 0.000000 1.7962614429870884e-38
-33.226257 -26.814589 7.305739 -0.779081 -0.626924 0.000000 1.7962614429870884e-38
-32.530331 -27.532802 7.108152 -0.763398 -0.645928 0.000000 1.7962614429870884e-38
-31.623179 -28.629682 7.357210 -0.747253 -0.664540 0.000000 1.7962614429870884e-38
-31.244484 -29.005775 6.786949 -0.730653 -0.682749 0.000000 1.7962614429870884e-38
-30.161894 -30.075067 7.788669 -0.713610 -0.700543 0.000000 1.7962614429870884e-38
-39.958585 -14.120324 8.576299 -0.945184 -0.326539 0.000000 1.7962614429870884e-38
-40.457238 -15.285657 8.504454 -0.936852 -0.349727 0.000000 1.7962614429870884e-38
-39.632796 -15.380639 8.820592 -0.927951 -0.372702 0.000000 1.7962614429870884e-38
-39.485597 -17.100966 9.072218 -0.918487 -0.395451 0.000000 1.7962614429870884e-38
-38.446145 -17.835085 8.527036 -0.908465 -0.417960 0.000000 1.7962614429870884e-38
-37.995256 -19.091654 8.777403 -0.897892 -0.440216 0.000000 1.7962614429870884e-38
-37.176275 -19.670765 8.427111 -0.886774 -0.462204 0.000000 1.7962614429870884e-38
-37.237315 -20.800111 8.241559 -0.875117 -0.483911 0.000000 1.7962614429870884e-38
-36.629786 -21.237953 8.566522 -0.862929 -0.505325 0.000000 1.7962614429870884e-38
-36.410574 -22.762870 8.614813 -0.850217 -0.526432 0.000000 1.7962614429870884e-38
-35.901383 -23.665164 9.227444 -0.836989 -0.547220 0.000000 1.7962614429870884e-38
-35.006302 -24.063406 8.924814 -0.823253 -0.567675 0.000000 1.7962614429870884e-38
-34.307179 -25.217615 8.741560 -0.809017 -0.587785 0.000000 1.7962614429870884e-38
-33.990470 -25.805466 8.762301 -0.794290 -0.607539 0.000000 1.7962614429870884e-38
-33.375244 -27.163371 8.703665 -0.779081 -0.626924 0.000000 1.7962614429870884e-38
-32.652220 -28.143022 8.812092 -0.763398 -0.645928 0.000000 1.7962614429870884e-38
-31.612044 -27.611990 8.542435 -0.747253 -0.664540 0.000000 1.7962614429870884e-38
-31.354599 -29.480687 8.722386 -0.730653 -0.682749 0.000000 1.7962614429870884e-38
-41.206123 -12.764918 10.100728 -0.952942 -0.303153 0.000000 1.7962614429870884e-38
-40.090721 -14.089679 9.885032 -0.945184 -0.326539 0.000000 1.7962614429870884e-38
-40.059866 -14.444530 9.046634 -0.936852 -0.349727 0.000000 1.7962614429870884e-38
-39.957311 -15.931476 9.571236 -0.927951 -0.372702 0.000000 1.7962614429870884e-38
-39.343130 -16.943498 9.699601 -0.918487 -0.395451 0.000000 1.7962614429870884e-38
-38.817862 -17.679504 9.826027 -0.908465 -0.417960 0.000000 1.7962614429870884e-38
-38.521151 -18.869104 9.894676 -0.897892 -0.440216 0.000000 1.7962614429870884e-38
-38.431976 -19.620909 9.761607 -0.886774 -0.462204 0.000000 1.7962614429870884e-38
-37.033091 -20.510064 10.247927 -0.875117 -0.483911 0.000000 1.7962614429870884e-38
-37.193812 -21.714241 9.524170 -0.862929 -0.505325 0.000000 1.7962614429870884e-38
-36.558632 -22.129524 10.343154 -0.850217 -0.526432 0.000000 1.7962614429870884e-38
-36.126012 -23.531307 9.874049 -0.836989 -0.547220 0.000000 1.7962614429870884e-38
-35.018665 -24.796232 9.416007 -0.823253 -0.567675 0.000000 1.7962614429870884e-38
-34.438867 -25.712733 9.762868 -0.809017 -0.587785 0.000000 1.7962614429870884e-38
-33.907538 -25.847799 9.854392 -0.794290 -0.607539 0.000000 1.7962614429870884e-38
-33.415689 -26.547837 9.982469 -0.779081 -0.626924 0.000000 1.7962614429870884e-38
-32.829644 -27.602330 10.011858 -0.763398 -0.645928 0.000000 1.7962614429870884e-38
-31.429831 -28.173424 10.261274 -0.747253 -0.664540 0.000000 1.7962614429870884e-38
-31.418855 -29.345003 9.826293 -0.730653 -0.682749 0.000000 1.7962614429870884e-38
-40.933172 -12.882715 10.589592 -0.952942 -0.303153 0.000000 1.7962614429870884e-38
-40.688480 -14.065181 10.877186 -0.945184 -0.326539 0.000000 1.7962614429870884e-38
-39.623836 -14.968361 11.187052 -0.936852 -0.349727 0.000000 1.7962614429870884e-38
-39.876466 -15.962480 10.769445 -0.927951 -0.372702 0.000000 1.7962614429870884e-38
-39.377224 -17.212888 11.050800 -0.918487 -0.395451 0.000000 1.7962614429870884e-38
-39.665160 -18.233946 11.573199 -0.908465 -0.417960 0.000000 1.7962614429870884e-38
-38.195358 -18.452728 11.550337 -0.897892 -0.440216 0.000000 1.7962614429870884e-38
-37.766534 -19.925753 10.822845 -0.886774 -0.462204 0.000000 1.7962614429870884e-38
-37.125309 -20.699960 11.882227 -0.875117 -0.483911 0.000000 1.7962614429870884e-38
-37.057017 -21.044321 11.086983 -0.862929 -0.505325 0.000000 1.7962614429870884e-38
-36.002397 -22.030907 10.827136 -0.850217 -0.526432 0.000000 1.7962614429870884e-38
-35.982335 -23.739848 10.765037 -0.836989 -0.547220 0.000000 1.7962614429870884e-38
-35.048583 -24.364759 11.149731 -0.823253 -0.567675 0.000000 1.7962614429870884e-38
-34.472299 -25.724047 11.520050 -0.809017 -0.587785 0.000000 1.7962614429870884e-38
-34.113338 -25.852892 11.320234 -0.794290 -0.607539 0.000000 1.7962614429870884e-38
-32.946163 -26.874059 10.496929 -0.779081 -0.626924 0.000000 1.7962614429870884e-38
-32.668805 -27.596083 10.823742 -0.763398 -0.645928 0.000000 1.7962614429870884e-38
-31.950394 -28.561504 10.731194 -0.747253 -0.664540 0.000000 1.7962614429870884e-38
-40.382303 -12.789640 11.956528 -0.952942 -0.303153 0.000000 1.7962614429870884e-38
-40.479670 -13.363318 12.110551 -0.945184 -0.326539 0.000000 1.7962614429870884e-38
-40.199265 -14.575689 12.556274 -0.936852 -0.349727 0.000000 1.7962614429870884e-38
-39.055711 -16.205024 12.074207 -0.927951 -0.372702 0.000000 1.7962614429870884e-38
-39.026606 -17.319639 12.312104 -0.918487 -0.395451 0.000000 1.7962614429870884e-38
-38.983707 -17.615494 12.555414 -0.908465 -0.417960 0.000000 1.7962614429870884e-38
-38.373408 -19.001552 12.735635 -0.897892 -0.440216 0.000000 1.7962614429870884e-38
-36.825915 -19.616508 12.401036 -0.886774 -0.462204 0.000000 1.7962614429870884e-38
-37.923066 -20.946172 12.307021 -0.875117 -0.483911 0.000000 1.7962614429870884e-38
-37.171345 -21.678186 12.904539 -0.862929 -0.505325 0.000000 1.7962614429870884e-38
-36.091604 -22.626289 12.008650 -0.850217 -0.526432 0.000000 1.7962614429870884e-38
-35.497195 -23.484925 11.853184 -0.836989 -0.547220 0.000000 1.7962614429870884e-38
-35.095533 -24.039823 11.643361 -0.823253 -0.567675 0.000000 1.7962614429870884e-38
-34.946050 -25.243205 12.591487 -0.809017 -0.587785 0.000000 1.7962614429870884e-38
-34.221763 -26.306946 12.589285 -0.794290 -0.607539 0.000000 1.7962614429870884e-38
-33.555209 -26.726102 12.037679 -0.779081 -0.626924 0.000000 1.7962614429870884e-38
-33.147800 -27.477229 12.446890 -0.763398 -0.645928 0.000000 1.7962614429870884e-38
-31.772873 -28.661860 12.132602 -0.747253 -0.664540 0.000000 1.7962614429870884e-38
-41.443880 -12.986753 13.484137 -0.952942 -0.303153 0.000000 1.7962614429870884e-38
-41.066828 -13.873934 13.010798 -0.945184 -0.326539 0.000000 1.7962614429870884e-38
-40.568286 -15.200646 13.848914 -0.936852 -0.349727 0.000000 1.7962614429870884e-38
-39.486299 -15.684524 13.562265 -0.927951 -0.372702 0.000000 1.7962614429870884e-38
-40.196451 -16.875658 14.049420 -0.918487 -0.395451 0.000000 1.7962614429870884e-38
-38.667478 -17.821268 13.251397 -0.908465 -0.417960 0.000000 1.7962614429870884e-38
-38.740865 -18.336344 13.183229 -0.897892 -0.440216 0.000000 1.7962614429870884e-38
-38.449860 -19.578574 13.478900 -0.886774 -0.462204 0.000000 1.7962614429870884e-38
-37.959134 -20.335742 13.746564 -0.875117 -0.483911 0.000000 1.7962614429870884e-38
-37.195419 -22.058036 14.222469 -0.862929 -0.505325 0.000000 1.7962614429870884e-38
-36.541973 -22.202092 13.876337 -0.850217 -0.526432 0.000000 1.7962614429870884e-38
-36.122487 -23.668426 14.042142 -0.836989 -0.547220 0.000000 1.7962614429870884e-38
-34.937206 -24.956596 13.773182 -0.823253 -0.567675 0.000000 1.7962614429870884e-38
-34.800593 -25.567687 13.686771 -0.809017 -0.587785 0.000000 1.7962614429870884e-38
-34.536270 -26.246462 13.368705 -0.794290 -0.607539 0.000000 1.7962614429870884e-38
-33.627770 -26.960955 13.303577 -0.779081 -0.626924 0.000000 1.7962614429870884e-38
-32.331996 -27.608157 14.146616 -0.763398 -0.645928 0.000000 1.7962614429870884e-38
-41.475111 -12.180248 14.333128 -0.960122 -0.279583 0.000000 1.7962614429870884e-38
-41.045760 -12.856489 15.096220 -0.952942 -0.303153 0.000000 1.7962614429870884e-38
-40.666527 -13.773792 15.064730 -0.945184 -0.326539 0.000000 1.7962614429870884e-38
-40.006338 -14.763702 15.316354 -0.936852 -0.349727 0.000000 1.7962614429870884e-38
-40.007870 -16.446419 15.044476 -0.927951 -0.372702 0.000000 1.7962614429870884e-38
-39.315278 -16.556870 15.229748 -0.918487 -0.395451 0.000000 1.7962614429870884e-38
-38.534274 -17.811141 14.914004 -0.908465 -0.417960 0.000000 1.7962614429870884e-38
-39.078134 -18.862971 14.679610 -0.897892 -0.440216 0.000000 1.7962614429870884e-38
-38.120437 -19.885841 14.986881 -0.886774 -0.462204 0.000000 1.7962614429870884e-38
-37.711160 -20.556401 14.028415 -0.875117 -0.483911 0.000000 1.7962614429870884e-38
-37.100156 -21.398222 15.406375 -0.862929 -0.505325 0.000000 1.7962614429870884e-38
-36.390201 -22.162357 14.896042 -0.850217 -0.526432 0.000000 1.7962614429870884e-38
-36.039340 -23.404088 14.844403 -0.836989 -0.547220 0.000000 1.7962614429870884e-38
-35.683436 -24.598271 14.511715 -0.823253 -0.567675 0.000000 1.7962614429870884e-38
-34.677225 -25.306228 14.737275 -0.809017 -0.587785 0.000000 1.7962614429870884e-38
-34.371604 -26.008710 15.079495 -0.794290 -0.607539 0.000000 1.7962614429870884e-38
-33.885850 -27.381231 15.131714 -0.779081 -0.626924 0.000000 1.7962614429870884e-38
-41.690331 -12.021674 15.716542 -0.960122 -0.279583 0.000000 1.7962614429870884e-38
-40.619544 -13.069500 16.045530 -0.952942 -0.303153 0.000000 1.7962614429870884e-38
-40.311605 -14.096596 16.202565 -0.945184 -0.326539 0.000000 1.7962614429870884e-38
-40.655091 -15.503602 15.899366 -0.936852 -0.349727 0.000000 1.7962614429870884e-38
-39.389647 -15.894053 16.164835 -0.927951 -0.372702 0.000000 1.7962614429870884e-38
-39.930229 -16.792326 15.675166 -0.918487 -0.395451 0.000000 1.7962614429870884e-38
-39.674946 -18.204750 16.668822 -0.908465 -0.417960 0.000000 1.7962614429870884e-38
-38.179173 -19.132886 15.880215 -0.897892 -0.440216 0.000000 1.7962614429870884e-38
-38.760837 -19.923005 16.131078 -0.886774 -0.462204 0.000000 1.7962614429870884e-38
-37.528817 -20.609991 16.023248 -0.875117 -0.483911 0.000000 1.7962614429870884e-38
-37.072903 -22.017506 16.243587 -0.862929 -0.505325 0.000000 1.7962614429870884e-38
-36.843300 -22.580349 16.196025 -0.850217 -0.526432 0.000000 1.7962614429870884e-38
-36.099634 -23.376904 15.611355 -0.836989 -0.547220 0.000000 1.7962614429870884e-38
-35.846965 -24.579027 15.649495 -0.823253 -0.567675 0.000000 1.7962614429870884e-38
-35.035197 -25.478268 16.475379 -0.809017 -0.587785 0.000000 1.7962614429870884e-38
-34.234829 -25.909521 16.172977 -0.794290 -0.607539 0.000000 1.7962614429870884e-38
-33.781931 -27.014789 16.301302 -0.779081 -0.626924 0.000000 1.7962614429870884e-38
-41.719561 -13.574709 17.194172 -0.952942 -0.303153 0.000000 1.7962614429870884e-38
-41.282157 -14.229683 17.819070 -0.945184 -0.326539 0.000000 1.7962614429870884e-38
-40.939787 -15.213203 17.959279 -0.936852 -0.349727 0.000000 1.7962614429870884e-38
-40.018741 -16.232608 17.272523 -0.927951 -0.372702 0.000000 1.7962614429870884e-38
-39.602974 -16.597642 17.160332 -0.918487 -0.395451 0.000000 1.7962614429870884e-38
-39.525548 -18.493714 17.350516 -0.908465 -0.417960 0.000000 1.7962614429870884e-38
-39.262596 -19.181927 17.046983 -0.897892 -0.440216 0.000000 1.7962614429870884e-38
-38.037697 -20.146471 17.438667 -0.886774 -0.462204 0.000000 1.7962614429870884e-38
-38.336917 -20.893521 16.958640 -0.875117 -0.483911 0.000000 1.7962614429870884e-38
-37.456158 -21.195926 17.599240 -0.862929 -0.505325 0.000000 1.7962614429870884e-38
-36.817099 -21.812647 17.045035 -0.850217 -0.526432 0.000000 1.7962614429870884e-38
-35.856794 -24.131350 17.246411 -0.836989 -0.547220 0.000000 1.7962614429870884e-38
-36.016499 -24.479212 17.336379 -0.823253 -0.567675 0.000000 1.7962614429870884e-38
-35.088645 -25.098716 17.149458 -0.809017 -0.587785 0.000000 1.7962614429870884e-38
-34.261227 -26.034669 16.874621 -0.794290 -0.607539 0.000000 1.7962614429870884e-38
-41.405428 -13.297631 18.577608 -0.952942 -0.303153 0.000000 1.7962614429870884e-38
-40.659422 -14.402469 18.883600 -0.945184 -0.326539 0.000000 1.7962614429870884e-38
-40.598693 -14.469006 18.652350 -0.936852 -0.349727 0.000000 1.7962614429870884e-38
-40.272258 -15.990845 18.455557 -0.927951 -0.372702 0.000000 1.7962614429870884e-38
-40.371327 -17.221999 18.479813 -0.918487 -0.395451 0.000000 1.7962614429870884e-38
-39.875821 -18.147924 17.936568 -0.908465 -0.417960 0.000000 1.7962614429870884e-38
-39.043894 -19.018102 18.585800 -0.897892 -0.440216 0.000000 1.7962614429870884e-38
-38.580730 -20.070417 18.321482 -0.886774 -0.462204 0.000000 1.7962614429870884e-38
-37.948639 -20.968740 18.286626 -0.875117 -0.483911 0.000000 1.7962614429870884e-38
-37.343009 -21.836398 18.506838 -0.862929 -0.505325 0.000000 1.7962614429870884e-38
-36.145719 -22.872407 18.472931 -0.850217 -0.526432 0.000000 1.7962614429870884e-38
-36.425081 -24.022981 18.762470 -0.836989 -0.547220 0.000000 1.7962614429870884e-38
-35.908530 -24.789179 18.395229 -0.823253 -0.567675 0.000000 1.7962614429870884e-38
-35.380757 -26.016269 18.417819 -0.809017 -0.587785 0.000000 1.7962614429870884e-38
-40.637758 -14.285507 20.464234 -0.945184 -0.326539 0.000000 1.7962614429870884e-38
-40.892070 -15.511258 19.743906 -0.936852 -0.349727 0.000000 1.7962614429870884e-38
-40.426365 -16.449136 20.574407 -0.927951 -0.372702 0.000000 1.7962614429870884e-38
-39.844508 -17.056787 19.655251 -0.918487 -0.395451 0.000000 1.7962614429870884e-38
-39.677606 -17.867197 19.291062 -0.908465 -0.417960 0.000000 1.7962614429870884e-38
-39.387391 -19.216825 20.199129 -0.897892 -0.440216 0.000000 1.7962614429870884e-38
-38.673409 -19.973934 19.802133 -0.886774 -0.462204 0.000000 1.7962614429870884e-38
-37.665289 -21.518142 20.014603 -0.875117 -0.483911 0.000000 1.7962614429870884e-38
-37.583846 -21.696430 19.548030 -0.862929 -0.505325 0.000000 1.7962614429870884e-38
-36.964087 -22.922477 19.493084 -0.850217 -0.526432 0.000000 1.7962614429870884e-38
-36.780312 -23.969780 19.832794 -0.836989 -0.547220 0.000000 1.7962614429870884e-38
-36.025950 -24.784165 19.228075 -0.823253 -0.567675 0.000000 1.7962614429870884e-38
-39.990536 -17.135945 21.203586 -0.918487 -0.395451 0.000000 1.7962614429870884e-38
-39.167903 -18.102404 21.037797 -0.908465 -0.417960 0.000000 1.7962614429870884e-38
-38.811221 -18.524270 21.305449 -0.897892 -0.440216 0.000000 1.7962614429870884e-38
-38.608897 -20.026201 21.107741 -0.886774 -0.462204 0.000000 1.7962614429870884e-38
-38.156873 -20.453039 20.806212 -0.875117 -0.483911 0.000000 1.7962614429870884e-38
-37.284459 -22.074167 20.586802 -0.862929 -0.505325 0.000000 1.7962614429870884e-38
-37.133082 -23.120883 21.204201 -0.850217 -0.526432 0.000000 1.7962614429870884e-38
-39.344986 -19.309789 22.322625 -0.897892 -0.440216 0.000000 1.7962614429870884e-38
-39.110984 -20.622437 22.423959 -0.886774 -0.462204 0.000000 1.7962614429870884e-38
-38.736746 -21.235499 22.170218 -0.875117 -0.483911 0.000000 1.7962614429870884e-38
