# .PCD v0.7 - Point Cloud Data file format
VERSION 0.7
FIELDS x y z normal_x normal_y normal_z rgb
SIZE 4 4 4 4 4 4 4
TYPE F F F F F F F
COUNT 1 1 1 1 1 1 1
WIDTH 347
HEIGHT 1
VIEWPOINT 0 0 0 1 0 0 0
POINTS 347
DATA ascii
33.306038 -26.378055 0.237241 0.786745 -0.617278 0.000000 1.6119787838914282e-38
34.522369 -25.540219 -0.127432 0.801714 -0.597707 0.000000 1.6119787838914282e-38
34.782592 -24.629116 0.285616 0.816197 -0.577774 0.000000 1.6119787838914282e-38
34.607288 -23.941313 -0.234725 0.830184 -0.557489 0.000000 1.6119787838914282e-38
35.159747 -23.105922 -0.274547 0.843667 -0.536867 0.000000 1.6119787838914282e-38
33.261788 -26.334416 1.390083 0.786745 -0.617278 0.000000 1.6119787838914282e-38
34.044443 -25.523491 1.677268 0.801714 -0.597707 0.000000 1.6119787838914282e-38
34.657316 -23.867784 1.264336 0.816197 -0.577774 0.000000 1.6119787838914282e-38
35.821682 -23.588298 1.526002 0.830184 -0.557489 0.000000 1.6119787838914282e-38
35.641789 -23.075070 1.375025 0.843667 -0.536867 0.000000 1.6119787838914282e-38
36.707054 -21.916460 0.851195 0.856638 -0.515918 0.000000 1.6119787838914282e-38
33.086171 -26.672660 3.007723 0.771298 -0.636474 0.000000 1.6119787838914282e-38
33.189110 -26.239864 2.477610 0.786745 -0.617278 0.000000 1.6119787838914282e-38
34.056045 -25.606747 2.028558 0.801714 -0.597707 0.000000 1.6119787838914282e-38
34.729010 -24.794982 2.500025 0.816197 -0.577774 0.000000 1.6119787838914282e-38
35.057666 -24.031967 2.544516 0.830184 -0.557489 0.000000 1.6119787838914282e-38
35.914400 -22.651490 3.129986 0.843667 -0.536867 0.000000 1.6119787838914282e-38
36.503779 -21.789098 2.150958 0.856638 -0.515918 0.000000 1.6119787838914282e-38
32.572170 -27.110183 3.528311 0.771298 -0.636474 0.000000 1.6119787838914282e-38
34.154390 -26.283079 4.174910 0.786745 -0.617278 0.000000 1.6119787838914282e-38
34.042530 -25.345924 3.314931 0.801714 -0.597707 0.000000 1.6119787838914282e-38
34.583119 -24.512666 4.187141 0.816197 -0.577774 0.000000 1.6119787838914282e-38
35.378783 -23.297906 3.903559 0.830184 -0.557489 0.000000 1.6119787838914282e-38
36.373918 -22.853534 4.428407 0.843667 -0.536867 0.000000 1.6119787838914282e-38
36.291802 -22.174696 3.348324 0.856638 -0.515918 0.000000 1.6119787838914282e-38
37.666331 -20.794537 3.611104 0.869089 -0.494656 0.000000 1.6119787838914282e-38
31.949350 -28.032972 4.472206 0.755383 -0.655284 0.000000 1.6119787838914282e-38
32.601355 -27.602677 5.137995 0.771298 -0.636474 0.000000 1.6119787838914282e-38
34.326015 -26.383124 4.448426 0.786745 -0.617278 0.000000 1.6119787838914282e-38
34.393244 -25.658210 5.338258 0.801714 -0.597707 0.000000 1.6119787838914282e-38
34.655057 -24.781245 4.895066 0.816197 -0.577774 0.000000 1.6119787838914282e-38
35.562331 -23.796565 4.799436 0.830184 -0.557489 0.000000 1.6119787838914282e-38
35.849228 -23.232129 5.067563 0.843667 -0.536867 0.000000 1.6119787838914282e-38
35.924939 -22.092169 5.176269 0.856638 -0.515918 0.000000 1.6119787838914282e-38
37.081816 -20.876866 4.928940 0.869089 -0.494656 0.000000 1.6119787838914282e-38
31.033977 -28.372488 5.793267 0.739009 -0.673696 0.000000 1.6119787838914282e-38
32.416971 -28.124175 6.666038 0.755383 -0.655284 0.000000 1.6119787838914282e-38
33.080712 -27.415023 5.910442 0.771298 -0.636474 0.000000 1.6119787838914282e-38
33.695517 -26.373608 6.134764 0.786745 -0.617278 0.000000 1.6119787838914282e-38
34.533197 -25.685824 6.212955 0.801714 -0.597707 0.000000 1.6119787838914282e-38
35.054846 -24.369346 6.137683 0.816197 -0.577774 0.000000 1.6119787838914282e-38
35.277611 -24.269649 5.868694 0.830184 -0.557489 0.000000 1.6119787838914282e-38
36.034146 -22.910875 6.208045 0.843667 -0.536867 0.000000 1.6119787838914282e-38
36.802952 -22.333329 6.114713 0.856638 -0.515918 0.000000 1.6119787838914282e-38
37.078173 -21.282659 6.615010 0.869089 -0.494656 0.000000 1.6119787838914282e-38
37.802043 -20.065858 6.723837 0.881012 -0.473094 0.000000 1.6119787838914282e-38
31.480707 -29.179301 6.821670 0.739009 -0.673696 0.000000 1.6119787838914282e-38
32.432592 -28.168003 7.684430 0.755383 -0.655284 0.000000 1.6119787838914282e-38
33.221547 -27.325797 7.599774 0.771298 -0.636474 0.000000 1.6119787838914282e-38
33.349373 -26.875225 7.459673 0.786745 -0.617278 0.000000 1.6119787838914282e-38
34.044768 -25.618968 8.015283 0.801714 -0.597707 0.000000 1.6119787838914282e-38
34.345829 -24.522087 7.124238 0.816197 -0.577774 0.000000 1.6119787838914282e-38
35.672492 -23.682469 7.536484 0.830184 -0.557489 0.000000 1.6119787838914282e-38
35.691482 -23.122293 7.700856 0.843667 -0.536867 0.000000 1.6119787838914282e-38
37.059284 -21.855244 7.153454 0.856638 -0.515918 0.000000 1.6119787838914282e-38
37.160646 -20.364459 7.453407 0.869089 -0.494656 0.000000 1.6119787838914282e-38
38.005937 -20.395359 7.410055 0.881012 -0.473094 0.000000 1.6119787838914282e-38
38.238869 -19.122373 7.192764 0.892401 -0.451244 0.000000 1.6119787838914282e-38
30.638400 -29.273533 7.999117 0.722186 -0.691698 0.000000 1.6119787838914282e-38
31.653715 -28.275531 9.091777 0.739009 -0.673696 0.000000 1.6119787838914282e-38
32.365682 -28.065831 8.469053 0.755383 -0.655284 0.000000 1.6119787838914282e-38
32.837314 -27.009166 8.417621 0.771298 -0.636474 0.000000 1.6119787838914282e-38
33.814880 -25.712845 8.641229 0.786745 -0.617278 0.000000 1.6119787838914282e-38
33.823404 -25.920703 8.892763 0.801714 -0.597707 0.000000 1.6119787838914282e-38
34.827090 -24.403226 8.499704 0.816197 -0.577774 0.000000 1.6119787838914282e-38
35.691338 -23.847785 8.440043 0.830184 -0.557489 0.000000 1.6119787838914282e-38
35.897472 -23.278983 9.256602 0.843667 -0.536867 0.000000 1.6119787838914282e-38
36.542611 -21.832169 8.498733 0.856638 -0.515918 0.000000 1.6119787838914282e-38
36.787498 -21.187972 8.990152 0.869089 -0.494656 0.000000 1.6119787838914282e-38
37.455884 -20.458432 8.706433 0.881012 -0.473094 0.000000 1.6119787838914282e-38
38.248002 -18.771621 8.765919 0.892401 -0.451244 0.000000 1.6119787838914282e-38
29.948963 -30.098697 9.784287 0.704926 -0.709281 0.000000 1.6119787838914282e-38
30.980427 -29.787346 9.916458 0.722186 -0.691698 0.000000 1.6119787838914282e-38
32.169155 -28.905266 10.012236 0.739009 -0.673696 0.000000 1.6119787838914282e-38
31.823213 -27.557578 9.753745 0.755383 -0.655284 0.000000 1.6119787838914282e-38
33.288413 -27.246446 10.080381 0.771298 -0.636474 0.000000 1.6119787838914282e-38
33.834920 -26.524588 10.224479 0.786745 -0.617278 0.000000 1.6119787838914282e-38
34.045866 -25.318819 9.779846 0.801714 -0.597707 0.000000 1.6119787838914282e-38
34.997566 -24.838628 9.911900 0.816197 -0.577774 0.000000 1.6119787838914282e-38
35.168244 -23.758598 9.910164 0.830184 -0.557489 0.000000 1.6119787838914282e-38
35.905014 -22.967740 9.937109 0.843667 -0.536867 0.000000 1.6119787838914282e-38
36.436665 -22.094292 9.595242 0.856638 -0.515918 0.000000 1.6119787838914282e-38
37.857571 -20.828972 9.978835 0.869089 -0.494656 0.000000 1.6119787838914282e-38
38.015208 -20.818688 9.129603 0.881012 -0.473094 0.000000 1.6119787838914282e-38
38.030644 -19.704408 9.825926 0.892401 -0.451244 0.000000 1.6119787838914282e-38
38.675825 -18.068929 9.555428 0.903247 -0.429121 0.000000 1.6119787838914282e-38
30.408287 -30.320035 11.067902 0.704926 -0.709281 0.000000 1.6119787838914282e-38
31.380522 -29.759387 11.251415 0.722186 -0.691698 0.000000 1.6119787838914282e-38
31.765852 -29.028069 10.891674 0.739009 -0.673696 0.000000 1.6119787838914282e-38
32.236591 -28.204541 10.696581 0.755383 -0.655284 0.000000 1.6119787838914282e-38
32.828730 -27.171650 11.513804 0.771298 -0.636474 0.000000 1.6119787838914282e-38
33.851880 -27.209473 11.326412 0.786745 -0.617278 0.000000 1.6119787838914282e-38
34.159050 -25.455740 11.129780 0.801714 -0.597707 0.000000 1.6119787838914282e-38
34.888783 -24.768849 11.127293 0.816197 -0.577774 0.000000 1.6119787838914282e-38
35.948788 -23.875572 11.459681 0.830184 -0.557489 0.000000 1.6119787838914282e-38
36.404737 -22.786565 10.598035 0.843667 -0.536867 0.000000 1.6119787838914282e-38
37.013123 -22.227099 11.348739 0.856638 -0.515918 0.000000 1.6119787838914282e-38
36.919474 -21.534890 11.726937 0.869089 -0.494656 0.000000 1.6119787838914282e-38
37.434649 -19.912317 11.169547 0.881012 -0.473094 0.000000 1.6119787838914282e-38
38.083318 -19.334081 10.743692 0.892401 -0.451244 0.000000 1.6119787838914282e-38
38.669640 -18.698209 11.015387 0.903247 -0.429121 0.000000 1.6119787838914282e-38
29.619420 -31.886940 12.975756 0.687237 -0.726434 0.000000 1.6119787838914282e-38
30.392774 -30.211951 12.328072 0.704926 -0.709281 0.000000 1.6119787838914282e-38
30.417921 -29.464482 12.201578 0.722186 -0.691698 0.000000 1.6119787838914282e-38
31.859221 -28.960400 12.442546 0.739009 -0.673696 0.000000 1.6119787838914282e-38
32.165815 -27.845763 12.014620 0.755383 -0.655284 0.000000 1.6119787838914282e-38
33.754587 -26.626952 12.860944 0.771298 -0.636474 0.000000 1.6119787838914282e-38
34.126080 -26.500385 12.721098 0.786745 -0.617278 0.000000 1.6119787838914282e-38
34.356617 -26.101687 12.822094 0.801714 -0.597707 0.000000 1.6119787838914282e-38
35.345277 -24.790082 12.003579 0.816197 -0.577774 0.000000 1.6119787838914282e-38
35.430676 -24.457027 12.654658 0.830184 -0.557489 0.000000 1.6119787838914282e-38
35.703833 -22.940122 12.118026 0.843667 -0.536867 0.000000 1.6119787838914282e-38
36.313137 -22.056174 12.270994 0.856638 -0.515918 0.000000 1.6119787838914282e-38
37.526622 -21.596037 12.143940 0.869089 -0.494656 0.000000 1.6119787838914282e-38
37.070260 -20.946254 12.910592 0.881012 -0.473094 0.000000 1.6119787838914282e-38
38.900079 -19.326009 12.123985 0.892401 -0.451244 0.000000 1.6119787838914282e-38
38.650676 -18.142881 12.216817 0.903247 -0.429121 0.000000 1.6119787838914282e-38
39.253192 -17.448733 12.200490 0.913545 -0.406737 0.000000 1.6119787838914282e-38
29.449912 -31.300472 14.170487 0.687237 -0.726434 0.000000 1.6119787838914282e-38
30.173065 -30.375246 13.435183 0.704926 -0.709281 0.000000 1.6119787838914282e-38
30.856159 -30.234250 13.136838 0.722186 -0.691698 0.000000 1.6119787838914282e-38
31.393816 -28.894233 13.931100 0.739009 -0.673696 0.000000 1.6119787838914282e-38
31.923514 -28.322892 13.198180 0.755383 -0.655284 0.000000 1.6119787838914282e-38
33.064123 -27.027172 13.474183 0.771298 -0.636474 0.000000 1.6119787838914282e-38
33.792922 -26.088463 13.745618 0.786745 -0.617278 0.000000 1.6119787838914282e-38
34.222397 -25.636383 13.359983 0.801714 -0.597707 0.000000 1.6119787838914282e-38
35.198901 -24.672888 13.198100 0.816197 -0.577774 0.000000 1.6119787838914282e-38
35.726341 -23.991123 13.771651 0.830184 -0.557489 0.000000 1.6119787838914282e-38
36.502583 -22.926433 13.517289 0.843667 -0.536867 0.000000 1.6119787838914282e-38
37.090551 -22.431398 13.212091 0.856638 -0.515918 0.000000 1.6119787838914282e-38
36.386991 -21.276874 13.361783 0.869089 -0.494656 0.000000 1.6119787838914282e-38
37.977257 -20.920648 13.414094 0.881012 -0.473094 0.000000 1.6119787838914282e-38
38.488382 -19.699337 13.731024 0.892401 -0.451244 0.000000 1.6119787838914282e-38
38.646283 -18.449563 13.786795 0.903247 -0.429121 0.000000 1.6119787838914282e-38
39.541755 -17.450112 13.364044 0.913545 -0.406737 0.000000 1.6119787838914282e-38
28.974243 -32.208096 15.069498 0.669131 -0.743145 0.000000 1.6119787838914282e-38
29.986891 -31.336125 14.538367 0.687237 -0.726434 0.000000 1.6119787838914282e-38
30.348620 -30.436575 14.750705 0.704926 -0.709281 0.000000 1.6119787838914282e-38
30.927661 -29.615019 14.994634 0.722186 -0.691698 0.000000 1.6119787838914282e-38
31.717350 -29.505110 14.982274 0.739009 -0.673696 0.000000 1.6119787838914282e-38
32.296084 -28.151788 14.890708 0.755383 -0.655284 0.000000 1.6119787838914282e-38
32.644898 -27.381837 14.999721 0.771298 -0.636474 0.000000 1.6119787838914282e-38
34.067864 -26.544384 14.252205 0.786745 -0.617278 0.000000 1.6119787838914282e-38
34.904413 -25.613582 14.484365 0.801714 -0.597707 0.000000 1.6119787838914282e-38
34.908572 -24.809193 15.049296 0.816197 -0.577774 0.000000 1.6119787838914282e-38
35.600788 -23.757470 14.307531 0.830184 -0.557489 0.000000 1.6119787838914282e-38
36.015014 -23.736431 14.576139 0.843667 -0.536867 0.000000 1.6119787838914282e-38
37.338694 -21.597741 14.915738 0.856638 -0.515918 0.000000 1.6119787838914282e-38
37.230868 -21.366046 14.987363 0.869089 -0.494656 0.000000 1.6119787838914282e-38
37.466910 -20.542846 15.275829 0.881012 -0.473094 0.000000 1.6119787838914282e-38
38.112468 -19.654979 14.849319 0.892401 -0.451244 0.000000 1.6119787838914282e-38
38.978172 -18.665152 14.868450 0.903247 -0.429121 0.000000 1.6119787838914282e-38
39.519047 -16.925376 14.807488 0.913545 -0.406737 0.000000 1.6119787838914282e-38
39.743831 -16.081105 14.680611 0.923289 -0.384106 0.000000 1.6119787838914282e-38
28.336763 -32.480190 16.502007 0.650618 -0.759405 0.000000 1.6119787838914282e-38
29.004016 -32.103429 16.006611 0.669131 -0.743145 0.000000 1.6119787838914282e-38
29.137281 -30.947329 15.985905 0.687237 -0.726434 0.000000 1.6119787838914282e-38
30.572839 -30.405344 15.708880 0.704926 -0.709281 0.000000 1.6119787838914282e-38
30.888961 -29.386148 16.169605 0.722186 -0.691698 0.000000 1.6119787838914282e-38
31.717763 -29.111247 16.408345 0.739009 -0.673696 0.000000 1.6119787838914282e-38
32.878845 -28.718607 16.572759 0.755383 -0.655284 0.000000 1.6119787838914282e-38
33.575217 -27.512796 15.724957 0.771298 -0.636474 0.000000 1.6119787838914282e-38
34.268190 -26.495721 15.645135 0.786745 -0.617278 0.000000 1.6119787838914282e-38
34.528366 -24.856220 16.087425 0.801714 -0.597707 0.000000 1.6119787838914282e-38
35.000396 -25.236385 16.614104 0.816197 -0.577774 0.000000 1.6119787838914282e-38
36.080929 -23.636232 16.156930 0.830184 -0.557489 0.000000 1.6119787838914282e-38
36.784671 -23.422980 16.131252 0.843667 -0.536867 0.000000 1.6119787838914282e-38
37.054342 -21.849706 16.178127 0.856638 -0.515918 0.000000 1.6119787838914282e-38
37.317890 -21.327657 15.579550 0.869089 -0.494656 0.000000 1.6119787838914282e-38
37.323801 -20.166956 15.970051 0.881012 -0.473094 0.000000 1.6119787838914282e-38
38.433132 -19.224159 16.501577 0.892401 -0.451244 0.000000 1.6119787838914282e-38
39.139990 -17.940283 16.233281 0.903247 -0.429121 0.000000 1.6119787838914282e-38
39.514729 -17.480608 15.696826 0.913545 -0.406737 0.000000 1.6119787838914282e-38
40.131352 -17.309728 15.906598 0.923289 -0.384106 0.000000 1.6119787838914282e-38
27.946695 -33.130480 16.925410 0.650618 -0.759405 0.000000 1.6119787838914282e-38
29.269983 -32.254909 16.658920 0.669131 -0.743145 0.000000 1.6119787838914282e-38
29.541405 -31.149550 17.091180 0.687237 -0.726434 0.000000 1.6119787838914282e-38
30.942895 -30.938991 17.470610 0.704926 -0.709281 0.000000 1.6119787838914282e-38
31.551233 -29.786337 16.907239 0.722186 -0.691698 0.000000 1.6119787838914282e-38
31.685205 -28.791612 17.078204 0.739009 -0.673696 0.000000 1.6119787838914282e-38
32.968945 -28.475264 17.362019 0.755383 -0.655284 0.000000 1.6119787838914282e-38
32.948869 -27.714995 17.056996 0.771298 -0.636474 0.000000 1.6119787838914282e-38
34.100584 -26.674177 17.458383 0.786745 -0.617278 0.000000 1.6119787838914282e-38
34.533289 -26.134616 17.374406 0.801714 -0.597707 0.000000 1.6119787838914282e-38
34.998057 -24.669734 17.285231 0.816197 -0.577774 0.000000 1.6119787838914282e-38
35.814146 -23.977149 17.296678 0.830184 -0.557489 0.000000 1.6119787838914282e-38
35.997821 -23.542130 17.636900 0.843667 -0.536867 0.000000 1.6119787838914282e-38
37.081497 -22.821972 17.425221 0.856638 -0.515918 0.000000 1.6119787838914282e-38
37.427152 -21.660104 16.976126 0.869089 -0.494656 0.000000 1.6119787838914282e-38
38.410683 -21.054665 17.068328 0.881012 -0.473094 0.000000 1.6119787838914282e-38
38.639379 -19.046344 17.485745 0.892401 -0.451244 0.000000 1.6119787838914282e-38
38.818735 -18.104034 16.913051 0.903247 -0.429121 0.000000 1.6119787838914282e-38
39.597624 -17.448222 17.055253 0.913545 -0.406737 0.000000 1.6119787838914282e-38
40.148791 -16.769761 17.528130 0.923289 -0.384106 0.000000 1.6119787838914282e-38
39.784876 -15.526049 17.195956 0.932472 -0.361242 0.000000 1.6119787838914282e-38
27.978719 -32.901305 18.731960 0.650618 -0.759405 0.000000 1.6119787838914282e-38
28.955137 -32.831058 18.733812 0.669131 -0.743145 0.000000 1.6119787838914282e-38
29.839987 -31.801784 18.788682 0.687237 -0.726434 0.000000 1.6119787838914282e-38
30.151531 -30.446336 18.539491 0.704926 -0.709281 0.000000 1.6119787838914282e-38
30.638966 -29.943930 18.434843 0.722186 -0.691698 0.000000 1.6119787838914282e-38
31.882124 -29.438005 18.518536 0.739009 -0.673696 0.000000 1.6119787838914282e-38
32.613719 -28.975215 18.938321 0.755383 -0.655284 0.000000 1.6119787838914282e-38
33.376176 -27.822058 18.218174 0.771298 -0.636474 0.000000 1.6119787838914282e-38
34.350604 -27.159518 18.596897 0.786745 -0.617278 0.000000 1.6119787838914282e-38
34.593477 -26.078874 18.225633 0.801714 -0.597707 0.000000 1.6119787838914282e-38
35.210555 -25.054127 18.627295 0.816197 -0.577774 0.000000 1.6119787838914282e-38
35.767564 -24.204362 18.823237 0.830184 -0.557489 0.000000 1.6119787838914282e-38
36.089186 -23.284595 18.271466 0.843667 -0.536867 0.000000 1.6119787838914282e-38
36.834690 -22.295909 18.393126 0.856638 -0.515918 0.000000 1.6119787838914282e-38
37.325421 -21.054843 18.832728 0.869089 -0.494656 0.000000 1.6119787838914282e-38
37.627855 -20.959348 18.734738 0.881012 -0.473094 0.000000 1.6119787838914282e-38
38.615973 -19.119282 18.741602 0.892401 -0.451244 0.000000 1.6119787838914282e-38
39.261669 -18.916569 18.704133 0.903247 -0.429121 0.000000 1.6119787838914282e-38
39.235713 -17.247693 18.683343 0.913545 -0.406737 0.000000 1.6119787838914282e-38
39.793553 -16.416412 19.229158 0.923289 -0.384106 0.000000 1.6119787838914282e-38
40.373969 -15.501127 18.427152 0.932472 -0.361242 0.000000 1.6119787838914282e-38
28.196648 -33.154900 20.022473 0.650618 -0.759405 0.000000 1.6119787838914282e-38
28.565697 -31.843118 19.834473 0.669131 -0.743145 0.000000 1.6119787838914282e-38
30.067260 -31.371195 19.581397 0.687237 -0.726434 0.000000 1.6119787838914282e-38
30.379142 -31.152539 19.719694 0.704926 -0.709281 0.000000 1.6119787838914282e-38
31.613795 -30.253401 19.976194 0.722186 -0.691698 0.000000 1.6119787838914282e-38
31.425177 -29.411097 20.143956 0.739009 -0.673696 0.000000 1.6119787838914282e-38
32.796271 -28.743540 19.596761 0.755383 -0.655284 0.000000 1.6119787838914282e-38
32.631224 -27.980408 20.110987 0.771298 -0.636474 0.000000 1.6119787838914282e-38
34.036557 -26.981498 19.094271 0.786745 -0.617278 0.000000 1.6119787838914282e-38
34.373023 -25.634092 19.979003 0.801714 -0.597707 0.000000 1.6119787838914282e-38
35.102815 -25.313471 19.785063 0.816197 -0.577774 0.000000 1.6119787838914282e-38
35.741434 -24.843483 19.746051 0.830184 -0.557489 0.000000 1.6119787838914282e-38
36.858363 -23.167905 20.056386 0.843667 -0.536867 0.000000 1.6119787838914282e-38
36.784550 -22.417142 19.713279 0.856638 -0.515918 0.000000 1.6119787838914282e-38
37.765873 -21.573477 19.595680 0.869089 -0.494656 0.000000 1.6119787838914282e-38
37.405180 -20.223765 19.892811 0.881012 -0.473094 0.000000 1.6119787838914282e-38
38.360451 -19.480256 19.659623 0.892401 -0.451244 0.000000 1.6119787838914282e-38
39.151707 -18.890689 19.954894 0.903247 -0.429121 0.000000 1.6119787838914282e-38
39.485268 -18.015856 20.133338 0.913545 -0.406737 0.000000 1.6119787838914282e-38
40.095250 -16.746955 20.001554 0.923289 -0.384106 0.000000 1.6119787838914282e-38
40.347964 -15.848918 19.885529 0.932472 -0.361242 0.000000 1.6119787838914282e-38
29.667645 -32.722068 21.445759 0.669131 -0.743145 0.000000 1.6119787838914282e-38
30.130317 -31.971391 21.124527 0.687237 -0.726434 0.000000 1.6119787838914282e-38
31.380530 -30.469909 20.877114 0.704926 -0.709281 0.000000 1.6119787838914282e-38
31.279782 -30.133782 20.981274 0.722186 -0.691698 0.000000 1.6119787838914282e-38
32.586898 -29.156895 20.523255 0.739009 -0.673696 0.000000 1.6119787838914282e-38
33.078615 -28.629590 21.042060 0.755383 -0.655284 0.000000 1.6119787838914282e-38
33.709733 -27.395988 21.324266 0.771298 -0.636474 0.000000 1.6119787838914282e-38
34.083745 -26.936083 20.896371 0.786745 -0.617278 0.000000 1.6119787838914282e-38
34.456902 -26.097861 21.584354 0.801714 -0.597707 0.000000 1.6119787838914282e-38
35.079407 -25.202996 21.014086 0.816197 -0.577774 0.000000 1.6119787838914282e-38
36.289296 -24.600025 20.603395 0.830184 -0.557489 0.000000 1.6119787838914282e-38
36.377373 -23.012599 20.736122 0.843667 -0.536867 0.000000 1.6119787838914282e-38
37.206725 -21.866948 20.810651 0.856638 -0.515918 0.000000 1.6119787838914282e-38
38.002276 -21.251993 21.335644 0.869089 -0.494656 0.000000 1.6119787838914282e-38
38.020036 -20.844846 21.121637 0.881012 -0.473094 0.000000 1.6119787838914282e-38
39.494843 -19.906473 20.882844 0.892401 -0.451244 0.000000 1.6119787838914282e-38
39.515014 -18.527354 21.235004 0.903247 -0.429121 0.000000 1.6119787838914282e-38
39.584325 -17.896738 21.095578 0.913545 -0.406737 0.000000 1.6119787838914282e-38
40.641830 -16.821772 21.024237 0.923289 -0.384106 0.000000 1.6119787838914282e-38
29.032093 -32.544916 22.252745 0.669131 -0.743145 0.000000 1.6119787838914282e-38
30.386557 -31.741559 22.308112 0.687237 -0.726434 0.000000 1.6119787838914282e-38
30.336137 -31.293078 22.596827 0.704926 -0.709281 0.000000 1.6119787838914282e-38
30.964959 -29.851155 22.417941 0.722186 -0.691698 0.000000 1.6119787838914282e-38
32.099099 -29.716247 22.836828 0.739009 -0.673696 0.000000 1.6119787838914282e-38
33.462948 -28.697155 22.308419 0.755383 -0.655284 0.000000 1.6119787838914282e-38
33.541785 -27.798178 22.065870 0.771298 -0.636474 0.000000 1.6119787838914282e-38
34.387708 -26.455903 22.239357 0.786745 -0.617278 0.000000 1.6119787838914282e-38
34.751606 -26.552912 22.306177 0.801714 -0.597707 0.000000 1.6119787838914282e-38
35.471196 -25.197147 21.782190 0.816197 -0.577774 0.000000 1.6119787838914282e-38
36.518320 -24.701963 22.281930 0.830184 -0.557489 0.000000 1.6119787838914282e-38
36.799489 -22.966378 22.319488 0.843667 -0.536867 0.000000 1.6119787838914282e-38
38.051954 -22.397399 22.695663 0.856638 -0.515918 0.000000 1.6119787838914282e-38
37.950259 -21.531997 22.633634 0.869089 -0.494656 0.000000 1.6119787838914282e-38
38.805895 -20.533242 22.169661 0.881012 -0.473094 0.000000 1.6119787838914282e-38
38.984888 -19.395570 22.671815 0.892401 -0.451244 0.000000 1.6119787838914282e-38
39.329080 -18.992344 21.996801 0.903247 -0.429121 0.000000 1.6119787838914282e-38
29.546554 -32.823415 23.187869 0.669131 -0.743145 0.000000 1.6119787838914282e-38
30.564208 -32.365147 23.996479 0.687237 -0.726434 0.000000 1.6119787838914282e-38
30.355949 -31.295628 23.796711 0.704926 -0.709281 0.000000 1.6119787838914282e-38
31.686591 -30.743746 23.633083 0.722186 -0.691698 0.000000 1.6119787838914282e-38
32.444688 -29.623731 23.317978 0.739009 -0.673696 0.000000 1.6119787838914282e-38
33.132619 -28.925662 24.235514 0.755383 -0.655284 0.000000 1.6119787838914282e-38
33.769289 -28.037926 23.342664 0.771298 -0.636474 0.000000 1.6119787838914282e-38
35.052127 -27.575279 23.612984 0.786745 -0.617278 0.000000 1.6119787838914282e-38
35.104047 -26.651897 23.259432 0.801714 -0.597707 0.000000 1.6119787838914282e-38
35.906356 -25.609591 23.583024 0.816197 -0.577774 0.000000 1.6119787838914282e-38
36.943712 -24.409100 23.069101 0.830184 -0.557489 0.000000 1.6119787838914282e-38
36.762509 -23.641058 23.399484 0.843667 -0.536867 0.000000 1.6119787838914282e-38
37.631262 -22.542560 24.024313 0.856638 -0.515918 0.000000 1.6119787838914282e-38
38.130833 -22.049066 23.851296 0.869089 -0.494656 0.000000 1.6119787838914282e-38
39.033998 -20.687612 23.431236 0.881012 -0.473094 0.000000 1.6119787838914282e-38
39.341529 -19.862006 22.888442 0.892401 -0.451244 0.000000 1.6119787838914282e-38
30.174240 -31.447716 24.423930 0.687237 -0.726434 0.000000 1.6119787838914282e-38
31.129672 -31.549211 24.574906 0.704926 -0.709281 0.000000 1.6119787838914282e-38
31.873100 -30.511406 24.740471 0.722186 -0.691698 0.000000 1.6119787838914282e-38
32.630382 -29.803636 25.007512 0.739009 -0.673696 0.000000 1.6119787838914282e-38
33.159684 -28.874324 24.850661 0.755383 -0.655284 0.000000 1.6119787838914282e-38
34.020003 -27.823805 24.837357 0.771298 -0.636474 0.000000 1.6119787838914282e-38
34.772575 -27.269692 24.421637 0.786745 -0.617278 0.000000 1.6119787838914282e-38
34.862513 -26.811805 25.271086 0.801714 -0.597707 0.000000 1.6119787838914282e-38
35.264486 -25.075013 24.496007 0.816197 -0.577774 0.000000 1.6119787838914282e-38
36.899952 -25.200989 24.671740 0.830184 -0.557489 0.000000 1.6119787838914282e-38
37.573742 -23.418464 24.641088 0.843667 -0.536867 0.000000 1.6119787838914282e-38
37.125612 -23.107026 25.159012 0.856638 -0.515918 0.000000 1.6119787838914282e-38
38.152109 -21.795891 24.827329 0.869089 -0.494656 0.000000 1.6119787838914282e-38
38.390582 -20.703003 24.616383 0.881012 -0.473094 0.000000 1.6119787838914282e-38
30.076168 -33.025893 26.097997 0.687237 -0.726434 0.000000 1.6119787838914282e-38
30.869696 -31.141447 26.264463 0.704926 -0.709281 0.000000 1.6119787838914282e-38
32.232241 -30.028108 26.350289 0.722186 -0.691698 0.000000 1.6119787838914282e-38
33.166045 -29.342649 26.419247 0.739009 -0.673696 0.000000 1.6119787838914282e-38
33.352133 -29.329937 26.724063 0.755383 -0.655284 0.000000 1.6119787838914282e-38
34.086236 -27.743728 25.814299 0.771298 -0.636474 0.000000 1.6119787838914282e-38
35.038802 -27.997963 25.856248 0.786745 -0.617278 0.000000 1.6119787838914282e-38
35.381281 -26.261273 26.300989 0.801714 -0.597707 0.000000 1.6119787838914282e-38
35.722243 -25.321620 26.347382 0.816197 -0.577774 0.000000 1.6119787838914282e-38
37.372054 -24.411684 25.841530 0.830184 -0.557489 0.000000 1.6119787838914282e-38
36.882285 -23.164024 26.200584 0.843667 -0.536867 0.000000 1.6119787838914282e-38
37.830133 -23.273447 25.700026 0.856638 -0.515918 0.000000 1.6119787838914282e-38
31.969504 -31.596209 27.708479 0.704926 -0.709281 0.000000 1.6119787838914282e-38
32.444723 -30.508066 26.638655 0.722186 -0.691698 0.000000 1.6119787838914282e-38
32.765632 -30.015735 27.222522 0.739009 -0.673696 0.000000 1.6119787838914282e-38
33.163188 -28.818352 27.511990 0.755383 -0.655284 0.000000 1.6119787838914282e-38
34.538523 -28.326154 26.898667 0.771298 -0.636474 0.000000 1.6119787838914282e-38
34.977701 -26.833821 27.237312 0.786745 -0.617278 0.000000 1.6119787838914282e-38
35.671397 -26.563653 27.065454 0.801714 -0.597707 0.000000 1.6119787838914282e-38
36.375128 -25.641445 27.337552 0.816197 -0.577774 0.000000 1.6119787838914282e-38
36.949872 -24.606271 27.383851 0.830184 -0.557489 0.000000 1.6119787838914282e-38
37.139353 -24.070635 27.203708 0.843667 -0.536867 0.000000 1.6119787838914282e-38
31.524562 -31.288181 28.589021 0.704926 -0.709281 0.000000 1.6119787838914282e-38
32.293944 -30.990666 28.996714 0.722186 -0.691698 0.000000 1.6119787838914282e-38
32.505745 -29.877482 28.052578 0.739009 -0.673696 0.000000 1.6119787838914282e-38
33.574821 -29.322609 28.494335 0.755383 -0.655284 0.000000 1.6119787838914282e-38
34.414799 -28.601349 28.444784 0.771298 -0.636474 0.000000 1.6119787838914282e-38
35.417554 -27.854167 28.197392 0.786745 -0.617278 0.000000 1.6119787838914282e-38
35.923610 -26.566588 28.498955 0.801714 -0.597707 0.000000 1.6119787838914282e-38
36.616355 -25.941300 28.297808 0.816197 -0.577774 0.000000 1.6119787838914282e-38
36.739108 -24.905160 28.855465 0.830184 -0.557489 0.000000 1.6119787838914282e-38
32.264814 -30.764527 29.335318 0.722186 -0.691698 0.000000 1.6119787838914282e-38
33.243380 -29.431432 29.311872 0.739009 -0.673696 0.000000 1.6119787838914282e-38
33.837073 -29.496594 30.497603 0.755383 -0.655284 0.000000 1.6119787838914282e-38
34.813377 -28.336446 29.322361 0.771298 -0.636474 0.000000 1.6119787838914282e-38
34.835439 -27.340018 29.281974 0.786745 -0.617278 0.000000 1.6119787838914282e-38
35.400362 -26.687340 29.730747 0.801714 -0.597707 0.000000 1.6119787838914282e-38
36.560412 -25.931732 29.966766 0.816197 -0.577774 0.000000 1.6119787838914282e-38
33.303581 -30.139563 31.286250 0.739009 -0.673696 0.000000 1.6119787838914282e-38
34.427607 -29.171259 31.062711 0.755383 -0.655284 0.000000 1.6119787838914282e-38
34.797130 -28.391300 30.942895 0.771298 -0.636474 0.000000 1.6119787838914282e-38
35.258674 -27.977276 31.179511 0.786745 -0.617278 0.000000 1.6119787838914282e-38
33.496052 -29.701595 31.839639 0.755383 -0.655284 0.000000 1.6119787838914282e-38
34.793517 -29.184542 32.030800 0.771298 -0.636474 0.000000 1.6119787838914282e-38
