# .PCD v0.7 - Point Cloud Data file format
VERSION 0.7
FIELDS x y z normal_x normal_y normal_z rgb
SIZE 4 4 4 4 4 4 4
TYPE F F F F F F F
COUNT 1 1 1 1 1 1 1
WIDTH 219
HEIGHT 1
VIEWPOINT 0 0 0 1 0 0 0
POINTS 219
DATA ascii
-20.148481 -40.960245 54.255841 -0.370528 -0.767681 0.522853 1.5658809689597668e-38
-20.273621 -40.047752 55.457611 -0.382003 -0.744049 0.548147 1.5658809689597668e-38
-19.784333 -41.189063 55.559618 -0.363556 -0.753235 0.548147 1.5658809689597668e-38
-18.413199 -40.929025 55.854947 -0.344887 -0.761963 0.548147 1.5658809689597668e-38
-17.747640 -41.399865 55.917358 -0.326010 -0.770229 0.548147 1.5658809689597668e-38
-17.231717 -41.894681 56.294418 -0.306934 -0.778027 0.548147 1.5658809689597668e-38
-20.142166 -39.587121 56.799056 -0.375512 -0.731406 0.569242 1.5658809689597668e-38
-19.711241 -39.700606 56.505343 -0.357378 -0.740435 0.569242 1.5658809689597668e-38
-17.805559 -40.563956 57.147427 -0.339027 -0.749015 0.569242 1.5658809689597668e-38
-17.057214 -41.092492 56.734489 -0.320470 -0.757141 0.569242 1.5658809689597668e-38
-16.394732 -41.326917 56.517916 -0.301719 -0.764806 0.569242 1.5658809689597668e-38
-15.077095 -41.804680 56.872964 -0.282784 -0.772008 0.569242 1.5658809689597668e-38
-13.905855 -41.789296 56.720825 -0.263678 -0.778741 0.569242 1.5658809689597668e-38
-20.915717 -38.496341 57.875900 -0.387583 -0.711224 0.586464 1.5658809689597668e-38
-20.207072 -38.687543 57.878841 -0.369942 -0.720557 0.586464 1.5658809689597668e-38
-18.640295 -39.282617 58.396390 -0.352077 -0.729453 0.586464 1.5658809689597668e-38
-17.758817 -39.366808 58.413355 -0.333999 -0.737906 0.586464 1.5658809689597668e-38
-16.328156 -40.244315 58.398130 -0.315717 -0.745911 0.586464 1.5658809689597668e-38
-15.816337 -40.075510 58.177569 -0.297244 -0.753463 0.586464 1.5658809689597668e-38
-14.582915 -41.162330 57.843037 -0.278590 -0.760558 0.586464 1.5658809689597668e-38
-14.097359 -41.152875 58.158237 -0.259767 -0.767190 0.586464 1.5658809689597668e-38
-13.131027 -41.758343 57.947743 -0.240787 -0.773358 0.586464 1.5658809689597668e-38
-12.396398 -41.852982 58.126808 -0.221660 -0.779055 0.586464 1.5658809689597668e-38
-20.150721 -37.578872 59.288385 -0.382774 -0.702400 0.600099 1.5658809689597668e-38
-19.258974 -37.856404 59.234824 -0.365352 -0.711617 0.600099 1.5658809689597668e-38
-18.899653 -38.004447 59.270915 -0.347709 -0.720403 0.600099 1.5658809689597668e-38
-17.344560 -38.583367 59.708829 -0.329855 -0.728751 0.600099 1.5658809689597668e-38
-16.641149 -39.253618 59.048963 -0.311800 -0.736656 0.600099 1.5658809689597668e-38
-15.763705 -39.443324 59.136327 -0.293556 -0.744115 0.600099 1.5658809689597668e-38
-14.527133 -39.477848 59.247880 -0.275134 -0.751121 0.600099 1.5658809689597668e-38
-14.028263 -40.390185 58.954645 -0.256544 -0.757672 0.600099 1.5658809689597668e-38
-12.237491 -40.564392 59.162907 -0.237800 -0.763762 0.600099 1.5658809689597668e-38
-11.801849 -41.243522 59.684785 -0.218910 -0.769389 0.600099 1.5658809689597668e-38
-10.071804 -41.611334 59.694422 -0.199888 -0.774549 0.600099 1.5658809689597668e-38
-9.679339 -41.032087 58.831295 -0.180744 -0.779239 0.600099 1.5658809689597668e-38
-19.749418 -36.631188 60.440095 -0.379031 -0.695531 0.610387 1.5658809689597668e-38
-19.043837 -37.242751 60.660451 -0.361780 -0.704659 0.610387 1.5658809689597668e-38
-18.793068 -37.501158 60.578954 -0.344309 -0.713358 0.610387 1.5658809689597668e-38
-17.490035 -37.986270 60.954531 -0.326629 -0.721624 0.610387 1.5658809689597668e-38
-15.845962 -38.442404 60.775602 -0.308751 -0.729453 0.610387 1.5658809689597668e-38
-15.705026 -38.758904 60.687798 -0.290685 -0.736838 0.610387 1.5658809689597668e-38
-13.840035 -38.676333 60.681236 -0.272443 -0.743776 0.610387 1.5658809689597668e-38
-13.605527 -38.967040 60.516470 -0.254036 -0.750263 0.610387 1.5658809689597668e-38
-12.223387 -39.727869 61.216229 -0.235474 -0.756294 0.610387 1.5658809689597668e-38
-11.559308 -39.708654 60.592635 -0.216769 -0.761866 0.610387 1.5658809689597668e-38
-10.217018 -39.765673 60.017185 -0.197933 -0.766975 0.610387 1.5658809689597668e-38
-9.412515 -40.763605 60.752276 -0.178977 -0.771619 0.610387 1.5658809689597668e-38
-8.184945 -40.855654 60.461941 -0.159912 -0.775794 0.610387 1.5658809689597668e-38
-7.325553 -41.290879 60.718522 -0.140750 -0.779498 0.610387 1.5658809689597668e-38
-6.621874 -40.858395 60.223192 -0.121502 -0.782729 0.610387 1.5658809689597668e-38
-19.617881 -35.915781 62.171743 -0.376377 -0.690662 0.617516 1.5658809689597668e-38
-18.410537 -35.948035 61.657315 -0.359247 -0.699726 0.617516 1.5658809689597668e-38
-17.459735 -36.898982 61.929843 -0.341898 -0.708364 0.617516 1.5658809689597668e-38
-16.711256 -36.958811 62.090029 -0.324342 -0.716573 0.617516 1.5658809689597668e-38
-16.134317 -37.192656 61.861865 -0.306589 -0.724346 0.617516 1.5658809689597668e-38
-15.139582 -38.170895 62.422273 -0.288650 -0.731680 0.617516 1.5658809689597668e-38
-13.987764 -38.236524 61.512568 -0.270536 -0.738569 0.617516 1.5658809689597668e-38
-12.696666 -38.159244 62.101220 -0.252257 -0.745010 0.617516 1.5658809689597668e-38
-12.090000 -38.546376 61.608523 -0.233826 -0.750999 0.617516 1.5658809689597668e-38
-11.047504 -39.073697 61.935784 -0.215252 -0.756532 0.617516 1.5658809689597668e-38
-10.691089 -38.758429 62.341229 -0.196548 -0.761606 0.617516 1.5658809689597668e-38
-9.520342 -39.384191 61.409576 -0.177724 -0.766217 0.617516 1.5658809689597668e-38
-8.172794 -40.430167 61.768021 -0.158792 -0.770363 0.617516 1.5658809689597668e-38
-7.361926 -39.614330 62.356213 -0.139764 -0.774042 0.617516 1.5658809689597668e-38
-5.721566 -39.779519 61.880395 -0.120652 -0.777250 0.617516 1.5658809689597668e-38
-5.121855 -40.153248 61.501575 -0.101465 -0.779987 0.617516 1.5658809689597668e-38
-3.900869 -40.178098 62.076621 -0.082218 -0.782250 0.617516 1.5658809689597668e-38
-19.237828 -34.895140 63.614235 -0.374828 -0.687818 0.621619 1.5658809689597668e-38
-17.716003 -35.287643 63.337638 -0.357768 -0.696844 0.621619 1.5658809689597668e-38
-17.190124 -36.222920 62.506837 -0.340491 -0.705447 0.621619 1.5658809689597668e-38
-16.614669 -36.576969 63.174254 -0.323007 -0.713622 0.621619 1.5658809689597668e-38
-15.612374 -36.368307 63.224992 -0.305327 -0.721363 0.621619 1.5658809689597668e-38
-14.336529 -37.144598 63.247485 -0.287462 -0.728667 0.621619 1.5658809689597668e-38
-13.917491 -36.999135 63.459580 -0.269422 -0.735528 0.621619 1.5658809689597668e-38
-12.492947 -37.590194 63.262814 -0.251219 -0.741943 0.621619 1.5658809689597668e-38
-12.241198 -38.366427 63.232822 -0.232863 -0.747907 0.621619 1.5658809689597668e-38
-10.453069 -38.487023 63.097339 -0.214366 -0.753417 0.621619 1.5658809689597668e-38
-9.771318 -38.557587 62.990969 -0.195738 -0.758470 0.621619 1.5658809689597668e-38
-8.770580 -38.573101 63.126551 -0.176992 -0.763062 0.621619 1.5658809689597668e-38
-8.295381 -38.823800 62.973410 -0.158138 -0.767191 0.621619 1.5658809689597668e-38
-7.145289 -39.162211 63.084599 -0.139189 -0.770854 0.621619 1.5658809689597668e-38
-6.339465 -39.157821 62.983274 -0.120155 -0.774049 0.621619 1.5658809689597668e-38
-5.391926 -39.883909 63.377023 -0.101048 -0.776775 0.621619 1.5658809689597668e-38
-3.918618 -39.654812 63.297284 -0.081879 -0.779029 0.621619 1.5658809689597668e-38
-3.477645 -39.595592 62.933700 -0.062661 -0.780809 0.621619 1.5658809689597668e-38
-2.279259 -39.375714 62.972221 -0.043405 -0.782116 0.621619 1.5658809689597668e-38
-18.256343 -33.863783 64.336781 -0.374388 -0.687012 0.622774 1.5658809689597668e-38
-17.967777 -33.606392 64.082259 -0.357348 -0.696028 0.622774 1.5658809689597668e-38
-16.762583 -34.503711 64.342596 -0.340091 -0.704620 0.622774 1.5658809689597668e-38
-16.178252 -34.965332 63.928030 -0.322628 -0.712785 0.622774 1.5658809689597668e-38
-14.541285 -35.505199 64.253874 -0.304969 -0.720518 0.622774 1.5658809689597668e-38
-14.607398 -36.295795 64.314269 -0.287125 -0.727813 0.622774 1.5658809689597668e-38
-12.724633 -36.218817 64.434015 -0.269106 -0.734666 0.622774 1.5658809689597668e-38
-12.278529 -35.895974 64.197480 -0.250924 -0.741073 0.622774 1.5658809689597668e-38
-11.019100 -37.019014 64.118813 -0.232590 -0.747030 0.622774 1.5658809689597668e-38
-10.600028 -37.196656 64.498501 -0.214114 -0.752534 0.622774 1.5658809689597668e-38
-10.354324 -37.376221 64.150273 -0.195509 -0.757581 0.622774 1.5658809689597668e-38
-8.949435 -38.035880 64.220456 -0.176785 -0.762168 0.622774 1.5658809689597668e-38
-7.957051 -37.978849 63.838315 -0.157953 -0.766292 0.622774 1.5658809689597668e-38
-6.837707 -38.269082 63.839386 -0.139026 -0.769951 0.622774 1.5658809689597668e-38
-6.092515 -38.421460 64.342238 -0.120014 -0.773142 0.622774 1.5658809689597668e-38
-5.153835 -38.758560 64.063391 -0.100929 -0.775864 0.622774 1.5658809689597668e-38
-4.557665 -38.093753 64.719255 -0.081783 -0.778115 0.622774 1.5658809689597668e-38
-2.665832 -38.699706 64.719030 -0.062588 -0.779894 0.622774 1.5658809689597668e-38
-2.019366 -38.833872 64.141341 -0.043354 -0.781199 0.622774 1.5658809689597668e-38
-1.241719 -38.597537 64.438768 -0.024094 -0.782030 0.622774 1.5658809689597668e-38
-0.238597 -38.750425 64.735524 -0.004820 -0.782387 0.622774 1.5658809689597668e-38
-17.544663 -32.940427 65.769771 -0.375061 -0.688247 0.621004 1.5658809689597668e-38
-17.471244 -33.902512 65.223263 -0.357991 -0.697278 0.621004 1.5658809689597668e-38
-16.633460 -33.851602 65.201119 -0.340703 -0.705887 0.621004 1.5658809689597668e-38
-15.455678 -34.406894 65.398255 -0.323208 -0.714067 0.621004 1.5658809689597668e-38
-14.415204 -34.972271 65.997722 -0.305517 -0.721813 0.621004 1.5658809689597668e-38
-13.572467 -35.332759 65.927681 -0.287641 -0.729121 0.621004 1.5658809689597668e-38
-13.286805 -34.977702 65.666890 -0.269590 -0.735986 0.621004 1.5658809689597668e-38
-12.552820 -36.062666 65.445518 -0.251375 -0.742405 0.621004 1.5658809689597668e-38
-10.936160 -36.012028 65.508324 -0.233008 -0.748373 0.621004 1.5658809689597668e-38
-10.295066 -36.824284 65.814278 -0.214499 -0.753886 0.621004 1.5658809689597668e-38
-9.009580 -36.231895 65.439964 -0.195860 -0.758942 0.621004 1.5658809689597668e-38
-8.775638 -37.014089 65.227068 -0.177102 -0.763537 0.621004 1.5658809689597668e-38
-6.924237 -36.911686 65.838416 -0.158237 -0.767669 0.621004 1.5658809689597668e-38
-6.437580 -37.021392 65.287514 -0.139276 -0.771334 0.621004 1.5658809689597668e-38
-5.621665 -37.542567 65.747702 -0.120230 -0.774532 0.621004 1.5658809689597668e-38
-5.169630 -37.479698 65.435660 -0.101111 -0.777259 0.621004 1.5658809689597668e-38
-3.517226 -38.187444 66.266246 -0.081930 -0.779514 0.621004 1.5658809689597668e-38
-3.254638 -37.579849 65.691002 -0.062700 -0.781296 0.621004 1.5658809689597668e-38
-1.988708 -37.352585 65.750122 -0.043432 -0.782603 0.621004 1.5658809689597668e-38
-0.548752 -37.426198 65.531802 -0.024137 -0.783436 0.621004 1.5658809689597668e-38
-0.397909 -37.836481 65.954983 -0.004828 -0.783793 0.621004 1.5658809689597668e-38
1.222542 -37.355878 64.617684 0.014484 -0.783674 0.621004 1.5658809689597668e-38
0.949400 -37.630799 65.517003 0.033787 -0.783079 0.621004 1.5658809689597668e-38
-17.191634 -32.792081 66.993261 -0.376843 -0.691517 0.616273 1.5658809689597668e-38
-16.806226 -32.332838 66.563724 -0.359692 -0.700592 0.616273 1.5658809689597668e-38
-15.667151 -33.357944 66.924788 -0.342322 -0.709241 0.616273 1.5658809689597668e-38
-15.043580 -33.470952 66.494498 -0.324744 -0.717460 0.616273 1.5658809689597668e-38
-14.411384 -33.510056 67.250456 -0.306969 -0.725243 0.616273 1.5658809689597668e-38
-12.877762 -33.970956 66.879552 -0.289008 -0.732586 0.616273 1.5658809689597668e-38
-12.484395 -33.871798 66.960310 -0.270871 -0.739484 0.616273 1.5658809689597668e-38
-11.740312 -34.833389 66.756186 -0.252570 -0.745933 0.616273 1.5658809689597668e-38
-10.790810 -35.255577 66.616192 -0.234115 -0.751929 0.616273 1.5658809689597668e-38
-10.059512 -35.423800 66.983070 -0.215518 -0.757469 0.616273 1.5658809689597668e-38
-8.965729 -35.446129 66.951092 -0.196791 -0.762549 0.616273 1.5658809689597668e-38
-8.254603 -36.877651 66.541364 -0.177944 -0.767166 0.616273 1.5658809689597668e-38
-7.194619 -36.185011 67.060749 -0.158989 -0.771317 0.616273 1.5658809689597668e-38
-6.245779 -36.184592 66.626961 -0.139937 -0.775000 0.616273 1.5658809689597668e-38
-5.624878 -36.267806 66.992225 -0.120801 -0.778212 0.616273 1.5658809689597668e-38
-5.435159 -36.602472 66.500405 -0.101591 -0.780952 0.616273 1.5658809689597668e-38
-4.590514 -36.636256 66.354244 -0.082320 -0.783218 0.616273 1.5658809689597668e-38
-3.051138 -36.717609 66.940138 -0.062998 -0.785009 0.616273 1.5658809689597668e-38
-2.108030 -37.139867 66.908085 -0.043638 -0.786322 0.616273 1.5658809689597668e-38
-0.403867 -36.348872 67.007894 -0.024252 -0.787159 0.616273 1.5658809689597668e-38
-0.284638 -36.835373 66.636039 -0.004851 -0.787517 0.616273 1.5658809689597668e-38
0.750161 -37.023313 66.870228 0.014553 -0.787398 0.616273 1.5658809689597668e-38
1.382437 -37.169035 66.600801 0.033948 -0.786800 0.616273 1.5658809689597668e-38
2.859484 -36.563089 65.738372 0.053322 -0.785725 0.616273 1.5658809689597668e-38
-17.313957 -31.684064 68.270562 -0.379727 -0.696809 0.608494 1.5658809689597668e-38
-15.766998 -31.537732 67.871617 -0.362444 -0.705953 0.608494 1.5658809689597668e-38
-15.467862 -32.197740 67.858591 -0.344941 -0.714668 0.608494 1.5658809689597668e-38
-14.336009 -31.948527 67.600234 -0.327229 -0.722950 0.608494 1.5658809689597668e-38
-13.494906 -33.081099 67.962542 -0.309318 -0.730793 0.608494 1.5658809689597668e-38
-13.027289 -32.772645 68.125612 -0.291219 -0.738192 0.608494 1.5658809689597668e-38
-12.165502 -33.293891 68.344579 -0.272944 -0.745142 0.608494 1.5658809689597668e-38
-11.305584 -33.537290 67.861870 -0.254502 -0.751641 0.608494 1.5658809689597668e-38
-11.141998 -33.567039 67.729932 -0.235907 -0.757683 0.608494 1.5658809689597668e-38
-9.938088 -34.465332 67.890070 -0.217168 -0.763265 0.608494 1.5658809689597668e-38
-9.146123 -34.457270 68.183506 -0.198297 -0.768384 0.608494 1.5658809689597668e-38
-7.887222 -34.638654 67.916233 -0.179306 -0.773036 0.608494 1.5658809689597668e-38
-7.338723 -34.658394 67.884822 -0.160206 -0.777219 0.608494 1.5658809689597668e-38
-6.511245 -34.882396 68.035662 -0.141008 -0.780930 0.608494 1.5658809689597668e-38
-5.632179 -35.455677 68.378408 -0.121725 -0.784167 0.608494 1.5658809689597668e-38
-4.433314 -35.360343 67.691335 -0.102368 -0.786928 0.608494 1.5658809689597668e-38
-3.662549 -35.597944 67.767503 -0.082949 -0.789212 0.608494 1.5658809689597668e-38
-3.038660 -35.406488 68.413964 -0.063480 -0.791016 0.608494 1.5658809689597668e-38
-2.297066 -35.954323 68.249478 -0.043972 -0.792340 0.608494 1.5658809689597668e-38
-1.223060 -35.547066 67.914444 -0.024438 -0.793182 0.608494 1.5658809689597668e-38
-0.046996 -36.141279 68.206036 -0.004888 -0.793544 0.608494 1.5658809689597668e-38
-16.939803 -30.296939 69.417158 -0.383696 -0.704093 0.597520 1.5658809689597668e-38
-16.194523 -30.626281 69.366838 -0.366233 -0.713332 0.597520 1.5658809689597668e-38
-15.393521 -31.187920 69.380558 -0.348547 -0.722139 0.597520 1.5658809689597668e-38
-14.373941 -31.582833 69.466208 -0.330650 -0.730507 0.597520 1.5658809689597668e-38
-13.287954 -32.009802 69.197166 -0.312551 -0.738432 0.597520 1.5658809689597668e-38
-12.696943 -32.009139 69.467330 -0.294263 -0.745908 0.597520 1.5658809689597668e-38
-12.065378 -32.654469 69.778048 -0.275797 -0.752931 0.597520 1.5658809689597668e-38
-10.934006 -32.910549 69.620464 -0.257163 -0.759498 0.597520 1.5658809689597668e-38
-10.506379 -33.122342 69.841037 -0.238373 -0.765603 0.597520 1.5658809689597668e-38
-9.325766 -32.979510 69.253223 -0.219438 -0.771244 0.597520 1.5658809689597668e-38
-8.837291 -33.342135 68.729855 -0.200370 -0.776416 0.597520 1.5658809689597668e-38
-7.807693 -33.584920 69.447104 -0.181180 -0.781117 0.597520 1.5658809689597668e-38
-7.655047 -34.481386 69.244035 -0.161880 -0.785344 0.597520 1.5658809689597668e-38
-6.040121 -34.086065 69.276501 -0.142482 -0.789093 0.597520 1.5658809689597668e-38
-5.118038 -34.251165 69.239767 -0.122998 -0.792364 0.597520 1.5658809689597668e-38
-4.327119 -34.697530 69.469397 -0.103439 -0.795154 0.597520 1.5658809689597668e-38
-3.891035 -34.457165 69.417207 -0.083817 -0.797461 0.597520 1.5658809689597668e-38
-15.201386 -30.308895 70.301819 -0.371032 -0.722680 0.583154 1.5658809689597668e-38
-14.859806 -30.378610 70.494981 -0.353115 -0.731602 0.583154 1.5658809689597668e-38
-14.409342 -31.249230 70.556445 -0.334983 -0.740080 0.583154 1.5658809689597668e-38
-13.158273 -31.199797 70.374250 -0.316647 -0.748108 0.583154 1.5658809689597668e-38
-12.200053 -31.413347 70.615937 -0.298120 -0.755683 0.583154 1.5658809689597668e-38
-11.544781 -31.341648 70.208182 -0.279411 -0.762798 0.583154 1.5658809689597668e-38
-10.994698 -32.199288 70.892764 -0.260533 -0.769451 0.583154 1.5658809689597668e-38
-10.186382 -32.594148 70.483721 -0.241496 -0.775636 0.583154 1.5658809689597668e-38
-9.242646 -32.235878 70.401558 -0.222313 -0.781350 0.583154 1.5658809689597668e-38
-8.674386 -33.086341 70.412178 -0.202995 -0.786591 0.583154 1.5658809689597668e-38
-6.888045 -32.897335 70.694947 -0.183554 -0.791353 0.583154 1.5658809689597668e-38
-6.841572 -33.149477 70.751417 -0.164002 -0.795635 0.583154 1.5658809689597668e-38
-5.852870 -33.244427 70.520300 -0.144349 -0.799434 0.583154 1.5658809689597668e-38
-14.880729 -29.273667 72.120469 -0.376801 -0.733916 0.565144 1.5658809689597668e-38
-14.111845 -30.116329 72.152373 -0.358605 -0.742977 0.565144 1.5658809689597668e-38
-13.629854 -29.619696 71.904691 -0.340191 -0.751587 0.565144 1.5658809689597668e-38
-12.513322 -30.475821 71.297385 -0.321570 -0.759740 0.565144 1.5658809689597668e-38
-11.948580 -30.423254 71.585498 -0.302755 -0.767432 0.565144 1.5658809689597668e-38
-11.418236 -31.669840 71.705988 -0.283755 -0.774658 0.565144 1.5658809689597668e-38
-10.965035 -31.120770 71.853054 -0.264583 -0.781414 0.565144 1.5658809689597668e-38
-9.811566 -31.130556 71.824867 -0.245251 -0.787696 0.565144 1.5658809689597668e-38
-8.978356 -31.663139 71.577734 -0.225770 -0.793499 0.565144 1.5658809689597668e-38
-13.054201 -29.409667 73.175608 -0.364957 -0.756139 0.543195 1.5658809689597668e-38
-13.515053 -28.796699 72.830412 -0.346217 -0.764901 0.543195 1.5658809689597668e-38
-12.634816 -30.191833 73.614484 -0.327267 -0.773198 0.543195 1.5658809689597668e-38
-12.000527 -29.805335 72.991108 -0.308118 -0.781027 0.543195 1.5658809689597668e-38
-11.239116 -30.899704 72.921200 -0.288782 -0.788381 0.543195 1.5658809689597668e-38
