# .PCD v0.7 - Point Cloud Data file format
VERSION 0.7
FIELDS x y z normal_x normal_y normal_z rgb
SIZE 4 4 4 4 4 4 4
TYPE F F F F F F F
COUNT 1 1 1 1 1 1 1
WIDTH 179
HEIGHT 1
VIEWPOINT 0 0 0 1 0 0 0
POINTS 179
DATA ascii
-41.304159 11.852997 29.637362 -0.675062 0.196575 -0.711090 1.75027152803718e-38
-42.461019 11.937683 31.184527 -0.696339 0.202770 -0.688474 1.75027152803718e-38
-42.907529 10.902325 30.175641 -0.701123 0.185553 -0.688474 1.75027152803718e-38
-43.481955 13.828449 32.635055 -0.717032 0.228104 -0.658660 1.75027152803718e-38
-43.879514 12.734102 32.211755 -0.722434 0.210369 -0.658660 1.75027152803718e-38
-43.680559 11.967494 32.043726 -0.727398 0.192506 -0.658660 1.75027152803718e-38
-43.846990 10.926820 32.700136 -0.731920 0.174527 -0.658660 1.75027152803718e-38
-44.123668 15.065775 33.429418 -0.741472 0.256161 -0.620162 1.75027152803718e-38
-44.294461 13.846655 33.545908 -0.747558 0.237815 -0.620162 1.75027152803718e-38
-44.512238 13.096067 33.613575 -0.753190 0.219325 -0.620162 1.75027152803718e-38
-44.926126 11.825529 33.846798 -0.758365 0.200702 -0.620162 1.75027152803718e-38
-45.437151 10.204896 33.568723 -0.763080 0.181957 -0.620162 1.75027152803718e-38
-45.594316 9.328034 33.667633 -0.767331 0.163101 -0.620162 1.75027152803718e-38
-44.710131 15.784263 34.916445 -0.775825 0.268029 -0.571188 1.75027152803718e-38
-45.109114 14.679052 34.741713 -0.782193 0.248833 -0.571188 1.75027152803718e-38
-45.194701 12.927010 35.160741 -0.788086 0.229487 -0.571188 1.75027152803718e-38
-45.698666 11.287179 35.137033 -0.793501 0.210001 -0.571188 1.75027152803718e-38
-46.047722 10.861820 34.457470 -0.798434 0.190387 -0.571188 1.75027152803718e-38
-46.173941 9.576083 34.466103 -0.802882 0.170658 -0.571188 1.75027152803718e-38
-46.700095 8.611081 34.484613 -0.806843 0.150825 -0.571188 1.75027152803718e-38
-45.166246 16.993106 35.894257 -0.805986 0.300874 -0.509767 1.75027152803718e-38
-45.309004 15.977971 36.035546 -0.813154 0.280925 -0.509767 1.75027152803718e-38
-45.955393 14.749152 36.546934 -0.819828 0.260806 -0.509767 1.75027152803718e-38
-46.665373 13.604754 36.425890 -0.826005 0.240528 -0.509767 1.75027152803718e-38
-46.888341 12.616109 36.216704 -0.831680 0.220105 -0.509767 1.75027152803718e-38
-47.268321 11.379222 35.794894 -0.836850 0.199547 -0.509767 1.75027152803718e-38
-47.104277 9.910982 36.270095 -0.841513 0.178869 -0.509767 1.75027152803718e-38
-47.352070 8.706354 35.742376 -0.845664 0.158082 -0.509767 1.75027152803718e-38
-47.624294 7.352997 35.734648 -0.849302 0.137199 -0.509767 1.75027152803718e-38
-45.608698 17.361629 37.279889 -0.843995 0.315063 -0.434059 1.75027152803718e-38
-46.129929 15.310094 37.267520 -0.851502 0.294174 -0.434059 1.75027152803718e-38
-46.780305 14.768984 37.224716 -0.858491 0.273106 -0.434059 1.75027152803718e-38
-46.457210 14.197254 36.837037 -0.864959 0.251872 -0.434059 1.75027152803718e-38
-47.573821 12.583691 37.186130 -0.870902 0.230485 -0.434059 1.75027152803718e-38
-47.832927 11.314833 37.292664 -0.876316 0.208958 -0.434059 1.75027152803718e-38
-48.105890 9.848404 36.920154 -0.881198 0.187304 -0.434059 1.75027152803718e-38
-48.036023 9.175777 37.015458 -0.885545 0.165537 -0.434059 1.75027152803718e-38
-48.162127 8.456801 36.826509 -0.889355 0.143669 -0.434059 1.75027152803718e-38
-48.551747 6.797011 37.409815 -0.892625 0.121714 -0.434059 1.75027152803718e-38
-45.895477 18.768577 38.255791 -0.871675 0.350099 -0.342947 1.75027152803718e-38
-46.073475 16.550092 37.896435 -0.880036 0.328517 -0.342947 1.75027152803718e-38
-45.996072 16.122482 38.050977 -0.887863 0.306736 -0.342947 1.75027152803718e-38
-46.933592 14.637911 38.265503 -0.895151 0.284768 -0.342947 1.75027152803718e-38
-47.796394 13.554555 38.225614 -0.901895 0.262627 -0.342947 1.75027152803718e-38
-47.349802 12.759354 38.542073 -0.908092 0.240327 -0.342947 1.75027152803718e-38
-47.990197 11.688302 38.088460 -0.913737 0.217881 -0.342947 1.75027152803718e-38
-48.469599 10.378086 38.266771 -0.918828 0.195303 -0.342947 1.75027152803718e-38
-48.491972 9.014704 38.726551 -0.923360 0.172606 -0.342947 1.75027152803718e-38
-48.304747 7.678727 37.822555 -0.927333 0.149804 -0.342947 1.75027152803718e-38
-49.088892 6.395345 38.600040 -0.930742 0.126912 -0.342947 1.75027152803718e-38
-48.748653 5.148922 38.124164 -0.933586 0.103942 -0.342947 1.75027152803718e-38
-46.137683 19.834511 40.251969 -0.892347 0.384197 -0.236874 1.75027152803718e-38
-46.735564 18.290292 39.614337 -0.901542 0.362095 -0.236874 1.75027152803718e-38
-46.102333 17.146687 39.764869 -0.910189 0.339773 -0.236874 1.75027152803718e-38
-47.055151 17.012673 39.630991 -0.918284 0.317246 -0.236874 1.75027152803718e-38
-47.259036 15.093404 39.463223 -0.925822 0.294525 -0.236874 1.75027152803718e-38
-47.437644 13.548874 38.987040 -0.932797 0.271626 -0.236874 1.75027152803718e-38
-48.095553 12.961270 39.413396 -0.939206 0.248562 -0.236874 1.75027152803718e-38
-48.293267 11.162690 39.906428 -0.945045 0.225346 -0.236874 1.75027152803718e-38
-48.423007 10.340117 39.638248 -0.950310 0.201995 -0.236874 1.75027152803718e-38
-49.276503 8.728556 39.551031 -0.954998 0.178520 -0.236874 1.75027152803718e-38
-48.914499 8.096018 39.478749 -0.959106 0.154937 -0.236874 1.75027152803718e-38
-49.025405 7.141610 39.561029 -0.962633 0.131260 -0.236874 1.75027152803718e-38
-49.306619 5.437607 39.549737 -0.965574 0.107504 -0.236874 1.75027152803718e-38
-49.469159 4.792195 39.862212 -0.967930 0.083682 -0.236874 1.75027152803718e-38
-49.362919 2.923746 39.318176 -0.969698 0.059809 -0.236874 1.75027152803718e-38
-45.830974 19.530592 40.697290 -0.911998 0.392658 -0.118656 1.75027152803718e-38
-46.452427 18.535428 41.352430 -0.921395 0.370069 -0.118656 1.75027152803718e-38
-46.149666 16.643932 40.971195 -0.930233 0.347256 -0.118656 1.75027152803718e-38
-46.906271 16.239161 41.103169 -0.938506 0.324232 -0.118656 1.75027152803718e-38
-47.083869 14.724773 40.864871 -0.946210 0.301011 -0.118656 1.75027152803718e-38
-47.351573 13.588149 40.790173 -0.953339 0.277607 -0.118656 1.75027152803718e-38
-48.402491 13.089724 41.182116 -0.959889 0.254035 -0.118656 1.75027152803718e-38
-48.519344 11.590742 40.308998 -0.965856 0.230309 -0.118656 1.75027152803718e-38
-48.411727 10.275021 40.782045 -0.971237 0.206443 -0.118656 1.75027152803718e-38
-48.788084 9.233840 41.125895 -0.976029 0.182451 -0.118656 1.75027152803718e-38
-49.109681 8.023716 40.917875 -0.980228 0.158349 -0.118656 1.75027152803718e-38
-49.808751 6.701072 41.149956 -0.983831 0.134151 -0.118656 1.75027152803718e-38
-49.892693 5.310274 40.560855 -0.986838 0.109871 -0.118656 1.75027152803718e-38
-49.698142 4.721352 40.988890 -0.989245 0.085524 -0.118656 1.75027152803718e-38
-50.488101 3.268306 40.692115 -0.991052 0.061126 -0.118656 1.75027152803718e-38
-49.742798 1.800128 40.566605 -0.992257 0.036690 -0.118656 1.75027152803718e-38
-45.618441 21.214762 42.200768 -0.908460 0.417958 0.003484 1.75027152803718e-38
-46.433654 19.947862 41.831694 -0.918481 0.395449 0.003484 1.75027152803718e-38
-46.900234 18.745025 42.042256 -0.927945 0.372700 0.003484 1.75027152803718e-38
-46.421347 17.540804 42.295411 -0.936846 0.349724 0.003484 1.75027152803718e-38
-47.106447 16.633188 41.795933 -0.945178 0.326537 0.003484 1.75027152803718e-38
-47.587436 15.115380 42.257961 -0.952936 0.303151 0.003484 1.75027152803718e-38
-47.929235 13.794888 41.960476 -0.960116 0.279581 0.003484 1.75027152803718e-38
-47.841265 12.283806 42.274665 -0.966713 0.255841 0.003484 1.75027152803718e-38
-48.263875 11.771008 42.653158 -0.972722 0.231946 0.003484 1.75027152803718e-38
-48.625720 10.510799 41.921837 -0.978142 0.207910 0.003484 1.75027152803718e-38
-49.027749 9.391961 42.062906 -0.982967 0.183748 0.003484 1.75027152803718e-38
-49.582834 7.612506 42.117478 -0.987196 0.159475 0.003484 1.75027152803718e-38
-49.985551 6.613785 41.332334 -0.990825 0.135104 0.003484 1.75027152803718e-38
-49.442944 5.878836 42.085540 -0.993853 0.110652 0.003484 1.75027152803718e-38
-49.264638 4.710854 42.205791 -0.996278 0.086132 0.003484 1.75027152803718e-38
-49.939023 2.973219 42.230603 -0.998097 0.061561 0.003484 1.75027152803718e-38
-50.008113 2.012040 42.248592 -0.999311 0.036951 0.003484 1.75027152803718e-38
-50.064972 0.944717 41.993290 -0.999918 0.012320 0.003484 1.75027152803718e-38
-45.716758 20.145955 43.351239 -0.906050 0.416849 0.072865 1.75027152803718e-38
-45.997037 19.653544 43.607626 -0.916045 0.394400 0.072865 1.75027152803718e-38
-46.387113 19.185933 43.127039 -0.925484 0.371711 0.072865 1.75027152803718e-38
-47.089392 17.092428 43.515794 -0.934362 0.348797 0.072865 1.75027152803718e-38
-46.868864 16.133112 42.979774 -0.942671 0.325671 0.072865 1.75027152803718e-38
-47.142768 14.708118 43.602035 -0.950409 0.302347 0.072865 1.75027152803718e-38
-48.131786 14.084983 43.622046 -0.957569 0.278839 0.072865 1.75027152803718e-38
-48.147140 12.691414 43.717798 -0.964149 0.255163 0.072865 1.75027152803718e-38
-48.503494 12.691121 42.787423 -0.970143 0.231331 0.072865 1.75027152803718e-38
-49.376912 10.683990 43.289444 -0.975548 0.207359 0.072865 1.75027152803718e-38
-48.864197 8.849236 43.315209 -0.980360 0.183261 0.072865 1.75027152803718e-38
-49.176020 7.803104 43.368518 -0.984578 0.159052 0.072865 1.75027152803718e-38
-49.902972 6.867294 43.732603 -0.988197 0.134746 0.072865 1.75027152803718e-38
-50.017038 5.137994 43.655945 -0.991217 0.110359 0.072865 1.75027152803718e-38
-50.161566 4.554737 43.315574 -0.993635 0.085904 0.072865 1.75027152803718e-38
-49.983119 3.515080 43.577413 -0.995450 0.061397 0.072865 1.75027152803718e-38
-49.834487 1.200020 43.512645 -0.996661 0.036853 0.072865 1.75027152803718e-38
-50.269983 0.548983 43.301169 -0.997266 0.012287 0.072865 1.75027152803718e-38
-49.379542 -0.691371 42.872138 -0.997266 -0.012287 0.072865 1.75027152803718e-38
-46.046241 19.674510 44.153895 -0.909355 0.391520 0.140662 1.75027152803718e-38
-45.842101 18.600991 44.557127 -0.918725 0.368996 0.140662 1.75027152803718e-38
-47.022974 17.192439 43.869972 -0.927537 0.346249 0.140662 1.75027152803718e-38
-46.603110 15.842634 44.133511 -0.935786 0.323292 0.140662 1.75027152803718e-38
-47.051007 15.219141 44.572304 -0.943468 0.300139 0.140662 1.75027152803718e-38
-47.730564 14.214796 44.566045 -0.950576 0.276803 0.140662 1.75027152803718e-38
-48.624351 12.965880 44.662786 -0.957107 0.253299 0.140662 1.75027152803718e-38
-48.109233 11.180753 44.317280 -0.963057 0.229642 0.140662 1.75027152803718e-38
-48.613059 10.074674 43.830230 -0.968423 0.205845 0.140662 1.75027152803718e-38
-48.911890 9.422785 44.497403 -0.973200 0.181923 0.140662 1.75027152803718e-38
-49.017322 8.065992 44.539231 -0.977387 0.157890 0.140662 1.75027152803718e-38
-49.321789 7.135598 44.246807 -0.980980 0.133762 0.140662 1.75027152803718e-38
-49.281511 5.158382 44.297648 -0.983978 0.109553 0.140662 1.75027152803718e-38
-49.275437 3.928138 44.463605 -0.986378 0.085277 0.140662 1.75027152803718e-38
-49.016463 3.374590 44.314931 -0.988180 0.060949 0.140662 1.75027152803718e-38
-49.955083 1.789865 44.929666 -0.989382 0.036584 0.140662 1.75027152803718e-38
-50.116072 0.295107 44.750088 -0.989983 0.012197 0.140662 1.75027152803718e-38
-50.319919 -0.887081 44.510556 -0.989983 -0.012197 0.140662 1.75027152803718e-38
-49.795481 -2.250286 44.642205 -0.989382 -0.036584 0.140662 1.75027152803718e-38
-46.451820 16.357676 45.931930 -0.925007 0.319568 0.205519 1.75027152803718e-38
-47.009237 14.917716 45.956421 -0.932600 0.296681 0.205519 1.75027152803718e-38
-47.797318 13.773495 45.716241 -0.939626 0.273614 0.205519 1.75027152803718e-38
-48.114283 12.670355 45.696828 -0.946082 0.250381 0.205519 1.75027152803718e-38
-48.461022 11.462756 45.819776 -0.951963 0.226996 0.205519 1.75027152803718e-38
-48.847489 10.437956 45.625092 -0.957267 0.203473 0.205519 1.75027152803718e-38
-48.697420 8.914651 46.088344 -0.961990 0.179827 0.205519 1.75027152803718e-38
-48.679798 7.595412 45.930696 -0.966128 0.156071 0.205519 1.75027152803718e-38
-48.712775 6.416961 45.512510 -0.969680 0.132221 0.205519 1.75027152803718e-38
-49.076326 5.096379 45.539942 -0.972643 0.108291 0.205519 1.75027152803718e-38
-49.721503 4.496563 45.565467 -0.975016 0.084294 0.205519 1.75027152803718e-38
-49.592743 2.829012 46.117750 -0.976797 0.060247 0.205519 1.75027152803718e-38
-49.825381 1.410568 45.339158 -0.977985 0.036163 0.205519 1.75027152803718e-38
-49.389578 0.840832 46.147762 -0.978579 0.012057 0.205519 1.75027152803718e-38
-49.975968 -0.680436 46.501386 -0.978579 -0.012057 0.205519 1.75027152803718e-38
-47.694876 12.630811 47.248049 -0.931799 0.246601 0.266341 1.75027152803718e-38
-48.180755 11.761483 47.179837 -0.937592 0.223569 0.266341 1.75027152803718e-38
-48.222418 10.709506 46.622010 -0.942816 0.200402 0.266341 1.75027152803718e-38
-48.599050 8.854255 47.117737 -0.947467 0.177112 0.266341 1.75027152803718e-38
-48.314750 7.567318 48.001959 -0.951543 0.153715 0.266341 1.75027152803718e-38
-49.047232 6.768952 47.011115 -0.955041 0.130225 0.266341 1.75027152803718e-38
-48.983834 5.217501 47.330573 -0.957960 0.106656 0.266341 1.75027152803718e-38
-49.373387 3.715712 46.673710 -0.960297 0.083022 0.266341 1.75027152803718e-38
-48.773327 3.410120 46.408139 -0.962051 0.059337 0.266341 1.75027152803718e-38
-49.022640 1.227145 47.002141 -0.963221 0.035617 0.266341 1.75027152803718e-38
-49.659012 0.874599 47.176708 -0.963806 0.011875 0.266341 1.75027152803718e-38
-49.002813 -0.695936 46.952911 -0.963806 -0.011875 0.266341 1.75027152803718e-38
-48.013529 8.525016 48.546807 -0.930503 0.173941 0.322349 1.75027152803718e-38
-48.036432 7.203275 47.848227 -0.934506 0.150963 0.322349 1.75027152803718e-38
-48.761017 6.833668 48.022089 -0.937942 0.127893 0.322349 1.75027152803718e-38
-48.497821 5.358445 48.268774 -0.940808 0.104746 0.322349 1.75027152803718e-38
-48.588050 4.295206 48.241731 -0.943103 0.081535 0.322349 1.75027152803718e-38
-48.727723 3.076567 48.184523 -0.944826 0.058275 0.322349 1.75027152803718e-38
-49.014591 2.371750 48.114611 -0.945974 0.034979 0.322349 1.75027152803718e-38
-48.504818 0.397122 48.490475 -0.946549 0.011662 0.322349 1.75027152803718e-38
-47.861282 5.040969 48.973220 -0.922099 0.102663 0.373087 1.75027152803718e-38
-48.436471 4.211112 49.452518 -0.924348 0.079914 0.373087 1.75027152803718e-38
-48.412404 2.645268 49.189774 -0.926037 0.057116 0.373087 1.75027152803718e-38
-48.572375 1.620472 49.813962 -0.927163 0.034283 0.373087 1.75027152803718e-38
-48.376114 0.437229 49.813040 -0.927726 0.011430 0.373087 1.75027152803718e-38
-47.768056 1.917451 50.969983 -0.907650 0.033562 0.418385 1.75027152803718e-38
