# .PCD v0.7 - Point Cloud Data file format
VERSION 0.7
FIELDS x y z normal_x normal_y normal_z rgb
SIZE 4 4 4 4 4 4 4
TYPE F F F F F F F
COUNT 1 1 1 1 1 1 1
WIDTH 288
HEIGHT 1
VIEWPOINT 0 0 0 1 0 0 0
POINTS 288
DATA ascii
-26.525669 -33.138234 -0.092602 -0.622113 -0.782928 0.000000 1.6580765988230895e-38
-25.331308 -34.465154 -0.100682 -0.602635 -0.798017 0.000000 1.6580765988230895e-38
-25.365844 -34.984969 0.409159 -0.582791 -0.812622 0.000000 1.6580765988230895e-38
-23.641636 -35.352047 -0.450751 -0.562593 -0.826734 0.000000 1.6580765988230895e-38
-23.926626 -35.877672 0.726125 -0.542053 -0.840344 0.000000 1.6580765988230895e-38
-22.019892 -36.439233 0.139524 -0.521185 -0.853444 0.000000 1.6580765988230895e-38
-27.471705 -32.804478 1.469462 -0.641213 -0.767363 0.000000 1.6580765988230895e-38
-26.453803 -32.755608 1.092444 -0.622113 -0.782928 0.000000 1.6580765988230895e-38
-25.314541 -33.889647 1.475847 -0.602635 -0.798017 0.000000 1.6580765988230895e-38
-24.905040 -34.554515 1.202464 -0.582791 -0.812622 0.000000 1.6580765988230895e-38
-24.163222 -34.940830 1.432188 -0.562593 -0.826734 0.000000 1.6580765988230895e-38
-22.861333 -35.256839 1.671917 -0.542053 -0.840344 0.000000 1.6580765988230895e-38
-22.264891 -36.162803 1.050033 -0.521185 -0.853444 0.000000 1.6580765988230895e-38
-27.118671 -32.620580 2.237231 -0.641213 -0.767363 0.000000 1.6580765988230895e-38
-26.410601 -33.307678 2.074185 -0.622113 -0.782928 0.000000 1.6580765988230895e-38
-26.062994 -33.758738 1.693660 -0.602635 -0.798017 0.000000 1.6580765988230895e-38
-24.716144 -34.692657 2.866701 -0.582791 -0.812622 0.000000 1.6580765988230895e-38
-24.067081 -34.951361 2.355153 -0.562593 -0.826734 0.000000 1.6580765988230895e-38
-23.011669 -35.506790 2.335460 -0.542053 -0.840344 0.000000 1.6580765988230895e-38
-21.859589 -36.582894 2.562605 -0.521185 -0.853444 0.000000 1.6580765988230895e-38
-20.981072 -36.621690 3.049160 -0.500000 -0.866025 0.000000 1.6580765988230895e-38
-28.268458 -31.807858 4.031133 -0.659925 -0.751332 0.000000 1.6580765988230895e-38
-27.158818 -32.611718 3.714581 -0.641213 -0.767363 0.000000 1.6580765988230895e-38
-26.478734 -33.475129 3.576495 -0.622113 -0.782928 0.000000 1.6580765988230895e-38
-25.189413 -33.976522 3.475601 -0.602635 -0.798017 0.000000 1.6580765988230895e-38
-24.944106 -34.235086 3.914022 -0.582791 -0.812622 0.000000 1.6580765988230895e-38
-23.761995 -35.242704 3.883349 -0.562593 -0.826734 0.000000 1.6580765988230895e-38
-23.249511 -35.822234 4.002282 -0.542053 -0.840344 0.000000 1.6580765988230895e-38
-21.906511 -36.596124 3.454682 -0.521185 -0.853444 0.000000 1.6580765988230895e-38
-21.235077 -36.318875 3.136671 -0.500000 -0.866025 0.000000 1.6580765988230895e-38
-28.746255 -31.357015 4.753736 -0.678235 -0.734845 0.000000 1.6580765988230895e-38
-27.606623 -31.664140 4.720194 -0.659925 -0.751332 0.000000 1.6580765988230895e-38
-27.121332 -32.883946 4.593048 -0.641213 -0.767363 0.000000 1.6580765988230895e-38
-26.168751 -33.834860 5.226510 -0.622113 -0.782928 0.000000 1.6580765988230895e-38
-25.725664 -34.029351 5.071379 -0.602635 -0.798017 0.000000 1.6580765988230895e-38
-24.630869 -34.835426 5.163771 -0.582791 -0.812622 0.000000 1.6580765988230895e-38
-23.911539 -35.564978 4.897491 -0.562593 -0.826734 0.000000 1.6580765988230895e-38
-22.656952 -35.264460 5.163658 -0.542053 -0.840344 0.000000 1.6580765988230895e-38
-22.540217 -36.177818 5.203712 -0.521185 -0.853444 0.000000 1.6580765988230895e-38
-21.063712 -36.625022 5.057433 -0.500000 -0.866025 0.000000 1.6580765988230895e-38
-28.790670 -32.016434 6.283457 -0.678235 -0.734845 0.000000 1.6580765988230895e-38
-28.100184 -31.992295 6.259351 -0.659925 -0.751332 0.000000 1.6580765988230895e-38
-27.323088 -32.703995 6.369480 -0.641213 -0.767363 0.000000 1.6580765988230895e-38
-26.663464 -33.635554 7.092701 -0.622113 -0.782928 0.000000 1.6580765988230895e-38
-25.885863 -33.963994 5.736869 -0.602635 -0.798017 0.000000 1.6580765988230895e-38
-24.790846 -34.896157 6.052825 -0.582791 -0.812622 0.000000 1.6580765988230895e-38
-23.651877 -35.075723 6.356090 -0.562593 -0.826734 0.000000 1.6580765988230895e-38
-23.621818 -35.246013 5.828003 -0.542053 -0.840344 0.000000 1.6580765988230895e-38
-21.742930 -36.048642 6.358767 -0.521185 -0.853444 0.000000 1.6580765988230895e-38
-21.555558 -36.845581 6.044291 -0.500000 -0.866025 0.000000 1.6580765988230895e-38
-29.827411 -30.627253 7.996816 -0.696134 -0.717912 0.000000 1.6580765988230895e-38
-29.003936 -30.962990 7.434394 -0.678235 -0.734845 0.000000 1.6580765988230895e-38
-28.015324 -32.016678 7.677036 -0.659925 -0.751332 0.000000 1.6580765988230895e-38
-27.547741 -33.016452 7.231108 -0.641213 -0.767363 0.000000 1.6580765988230895e-38
-26.497701 -33.451190 7.635763 -0.622113 -0.782928 0.000000 1.6580765988230895e-38
-25.305623 -34.321135 7.202496 -0.602635 -0.798017 0.000000 1.6580765988230895e-38
-25.281741 -34.042052 7.514081 -0.582791 -0.812622 0.000000 1.6580765988230895e-38
-23.845669 -35.654970 7.422329 -0.562593 -0.826734 0.000000 1.6580765988230895e-38
-22.961011 -35.909076 7.745392 -0.542053 -0.840344 0.000000 1.6580765988230895e-38
-21.530381 -36.675956 7.116054 -0.521185 -0.853444 0.000000 1.6580765988230895e-38
-21.583909 -36.446471 7.735387 -0.500000 -0.866025 0.000000 1.6580765988230895e-38
-30.404693 -30.150917 8.607315 -0.713610 -0.700543 0.000000 1.6580765988230895e-38
-30.312895 -30.371126 8.428590 -0.696134 -0.717912 0.000000 1.6580765988230895e-38
-28.965557 -31.799951 8.485088 -0.678235 -0.734845 0.000000 1.6580765988230895e-38
-28.257323 -32.079189 8.803714 -0.659925 -0.751332 0.000000 1.6580765988230895e-38
-26.942906 -32.540374 8.948443 -0.641213 -0.767363 0.000000 1.6580765988230895e-38
-26.125360 -33.253771 8.648782 -0.622113 -0.782928 0.000000 1.6580765988230895e-38
-25.424897 -33.746986 8.854364 -0.602635 -0.798017 0.000000 1.6580765988230895e-38
-25.316839 -34.944848 8.577338 -0.582791 -0.812622 0.000000 1.6580765988230895e-38
-23.784279 -35.301274 9.000854 -0.562593 -0.826734 0.000000 1.6580765988230895e-38
-22.746728 -35.516152 9.021456 -0.542053 -0.840344 0.000000 1.6580765988230895e-38
-22.561482 -36.290365 8.477535 -0.521185 -0.853444 0.000000 1.6580765988230895e-38
-21.840680 -37.058530 9.057215 -0.500000 -0.866025 0.000000 1.6580765988230895e-38
-30.550151 -30.250863 10.276687 -0.713610 -0.700543 0.000000 1.6580765988230895e-38
-29.494960 -30.782685 10.089420 -0.696134 -0.717912 0.000000 1.6580765988230895e-38
-28.927915 -31.198926 9.493615 -0.678235 -0.734845 0.000000 1.6580765988230895e-38
-28.255699 -32.137108 10.084000 -0.659925 -0.751332 0.000000 1.6580765988230895e-38
-27.600621 -33.554998 9.572397 -0.641213 -0.767363 0.000000 1.6580765988230895e-38
-26.613851 -33.451259 10.402032 -0.622113 -0.782928 0.000000 1.6580765988230895e-38
-25.588014 -34.091052 9.887190 -0.602635 -0.798017 0.000000 1.6580765988230895e-38
-24.583243 -34.916919 9.854822 -0.582791 -0.812622 0.000000 1.6580765988230895e-38
-24.377811 -34.917498 10.014657 -0.562593 -0.826734 0.000000 1.6580765988230895e-38
-23.385224 -35.959334 10.049802 -0.542053 -0.840344 0.000000 1.6580765988230895e-38
-22.356049 -36.645357 9.700625 -0.521185 -0.853444 0.000000 1.6580765988230895e-38
-21.273483 -37.130300 9.760780 -0.500000 -0.866025 0.000000 1.6580765988230895e-38
-31.082469 -29.401945 11.012107 -0.730653 -0.682749 0.000000 1.6580765988230895e-38
-30.692970 -29.624066 11.121746 -0.713610 -0.700543 0.000000 1.6580765988230895e-38
-29.782199 -30.870573 11.272881 -0.696134 -0.717912 0.000000 1.6580765988230895e-38
-28.634770 -31.269036 11.340081 -0.678235 -0.734845 0.000000 1.6580765988230895e-38
-28.073704 -32.583377 10.871185 -0.659925 -0.751332 0.000000 1.6580765988230895e-38
-27.515923 -33.073444 10.814660 -0.641213 -0.767363 0.000000 1.6580765988230895e-38
-27.198265 -33.926077 11.057063 -0.622113 -0.782928 0.000000 1.6580765988230895e-38
-25.823456 -34.406117 11.157698 -0.602635 -0.798017 0.000000 1.6580765988230895e-38
-25.083128 -34.466368 11.085533 -0.582791 -0.812622 0.000000 1.6580765988230895e-38
-23.879280 -35.336792 10.713399 -0.562593 -0.826734 0.000000 1.6580765988230895e-38
-23.235955 -36.351170 11.101584 -0.542053 -0.840344 0.000000 1.6580765988230895e-38
-22.538784 -36.426777 10.731314 -0.521185 -0.853444 0.000000 1.6580765988230895e-38
-21.403774 -36.908340 11.406299 -0.500000 -0.866025 0.000000 1.6580765988230895e-38
-30.929447 -29.739939 12.746572 -0.730653 -0.682749 0.000000 1.6580765988230895e-38
-30.210539 -29.788216 12.164792 -0.713610 -0.700543 0.000000 1.6580765988230895e-38
-30.102094 -30.854210 11.982622 -0.696134 -0.717912 0.000000 1.6580765988230895e-38
-29.377966 -31.324030 12.565939 -0.678235 -0.734845 0.000000 1.6580765988230895e-38
-28.618990 -32.021736 12.507425 -0.659925 -0.751332 0.000000 1.6580765988230895e-38
-27.048629 -32.741392 12.688708 -0.641213 -0.767363 0.000000 1.6580765988230895e-38
-26.539253 -33.285733 11.984999 -0.622113 -0.782928 0.000000 1.6580765988230895e-38
-25.883481 -34.238599 12.298009 -0.602635 -0.798017 0.000000 1.6580765988230895e-38
-24.862683 -34.663004 12.488811 -0.582791 -0.812622 0.000000 1.6580765988230895e-38
-24.182648 -35.679291 12.700290 -0.562593 -0.826734 0.000000 1.6580765988230895e-38
-23.143711 -36.347884 12.313028 -0.542053 -0.840344 0.000000 1.6580765988230895e-38
-22.876574 -36.593535 12.311620 -0.521185 -0.853444 0.000000 1.6580765988230895e-38
-21.617306 -36.668390 12.024288 -0.500000 -0.866025 0.000000 1.6580765988230895e-38
-32.158175 -28.720560 14.135772 -0.747253 -0.664540 0.000000 1.6580765988230895e-38
-31.570277 -29.391854 13.824262 -0.730653 -0.682749 0.000000 1.6580765988230895e-38
-31.035824 -29.889611 13.783252 -0.713610 -0.700543 0.000000 1.6580765988230895e-38
-29.532739 -30.582344 13.998241 -0.696134 -0.717912 0.000000 1.6580765988230895e-38
-29.177534 -31.835787 14.241243 -0.678235 -0.734845 0.000000 1.6580765988230895e-38
-28.815593 -32.713399 13.777786 -0.659925 -0.751332 0.000000 1.6580765988230895e-38
-27.066049 -32.917438 13.908039 -0.641213 -0.767363 0.000000 1.6580765988230895e-38
-27.331519 -33.793006 13.046063 -0.622113 -0.782928 0.000000 1.6580765988230895e-38
-25.661659 -34.755728 13.224902 -0.602635 -0.798017 0.000000 1.6580765988230895e-38
-24.888858 -34.600608 13.560557 -0.582791 -0.812622 0.000000 1.6580765988230895e-38
-24.004093 -35.364216 13.543619 -0.562593 -0.826734 0.000000 1.6580765988230895e-38
-23.620959 -35.940915 13.792176 -0.542053 -0.840344 0.000000 1.6580765988230895e-38
-22.127602 -36.579671 13.257697 -0.521185 -0.853444 0.000000 1.6580765988230895e-38
-21.278373 -37.214348 13.463426 -0.500000 -0.866025 0.000000 1.6580765988230895e-38
-33.283967 -27.648991 15.330434 -0.763398 -0.645928 0.000000 1.6580765988230895e-38
-31.690431 -28.393300 15.058004 -0.747253 -0.664540 0.000000 1.6580765988230895e-38
-30.785870 -30.099034 14.706060 -0.730653 -0.682749 0.000000 1.6580765988230895e-38
-30.473035 -30.266107 15.217294 -0.713610 -0.700543 0.000000 1.6580765988230895e-38
-29.986875 -30.873291 14.762958 -0.696134 -0.717912 0.000000 1.6580765988230895e-38
-29.361110 -31.806073 14.926711 -0.678235 -0.734845 0.000000 1.6580765988230895e-38
-28.648285 -32.065894 15.041329 -0.659925 -0.751332 0.000000 1.6580765988230895e-38
-27.280398 -33.380809 14.335518 -0.641213 -0.767363 0.000000 1.6580765988230895e-38
-26.789024 -32.842707 15.225223 -0.622113 -0.782928 0.000000 1.6580765988230895e-38
-26.115384 -34.234742 15.063637 -0.602635 -0.798017 0.000000 1.6580765988230895e-38
-25.505095 -34.580096 14.795134 -0.582791 -0.812622 0.000000 1.6580765988230895e-38
-24.252077 -35.591493 15.188723 -0.562593 -0.826734 0.000000 1.6580765988230895e-38
-23.567015 -36.696753 14.942247 -0.542053 -0.840344 0.000000 1.6580765988230895e-38
-23.054975 -36.839058 15.201423 -0.521185 -0.853444 0.000000 1.6580765988230895e-38
-21.355942 -36.977776 15.031466 -0.500000 -0.866025 0.000000 1.6580765988230895e-38
-32.586441 -27.914726 15.588221 -0.763398 -0.645928 0.000000 1.6580765988230895e-38
-32.763033 -28.776163 15.381104 -0.747253 -0.664540 0.000000 1.6580765988230895e-38
-30.992813 -29.284955 15.891774 -0.730653 -0.682749 0.000000 1.6580765988230895e-38
-31.128749 -29.923507 15.748383 -0.713610 -0.700543 0.000000 1.6580765988230895e-38
-30.347137 -31.211281 16.116700 -0.696134 -0.717912 0.000000 1.6580765988230895e-38
-29.083005 -31.354441 16.395966 -0.678235 -0.734845 0.000000 1.6580765988230895e-38
-28.478819 -32.117580 15.881174 -0.659925 -0.751332 0.000000 1.6580765988230895e-38
-28.217828 -33.316885 15.840596 -0.641213 -0.767363 0.000000 1.6580765988230895e-38
-27.036882 -34.075063 15.944141 -0.622113 -0.782928 0.000000 1.6580765988230895e-38
-25.820700 -33.923866 15.564870 -0.602635 -0.798017 0.000000 1.6580765988230895e-38
-25.536655 -35.306162 16.312197 -0.582791 -0.812622 0.000000 1.6580765988230895e-38
-24.340181 -35.894956 16.297494 -0.562593 -0.826734 0.000000 1.6580765988230895e-38
-23.105402 -36.270686 15.837608 -0.542053 -0.840344 0.000000 1.6580765988230895e-38
-22.410656 -36.900358 16.010170 -0.521185 -0.853444 0.000000 1.6580765988230895e-38
-21.731226 -37.095841 16.157438 -0.500000 -0.866025 0.000000 1.6580765988230895e-38
-33.925884 -27.103225 17.508634 -0.779081 -0.626924 0.000000 1.6580765988230895e-38
-32.596606 -28.006231 17.224646 -0.763398 -0.645928 0.000000 1.6580765988230895e-38
-32.586326 -28.647592 17.230452 -0.747253 -0.664540 0.000000 1.6580765988230895e-38
-31.688702 -29.562422 17.485076 -0.730653 -0.682749 0.000000 1.6580765988230895e-38
-31.038369 -30.535641 17.449105 -0.713610 -0.700543 0.000000 1.6580765988230895e-38
-31.020984 -31.236438 16.974195 -0.696134 -0.717912 0.000000 1.6580765988230895e-38
-28.978024 -31.920102 17.151373 -0.678235 -0.734845 0.000000 1.6580765988230895e-38
-28.561511 -32.679623 17.198793 -0.659925 -0.751332 0.000000 1.6580765988230895e-38
-27.708384 -33.321081 17.190822 -0.641213 -0.767363 0.000000 1.6580765988230895e-38
-27.214318 -34.213910 17.337779 -0.622113 -0.782928 0.000000 1.6580765988230895e-38
-25.976706 -34.948966 17.547570 -0.602635 -0.798017 0.000000 1.6580765988230895e-38
-24.981061 -34.859900 17.409554 -0.582791 -0.812622 0.000000 1.6580765988230895e-38
-24.145435 -35.107245 17.229131 -0.562593 -0.826734 0.000000 1.6580765988230895e-38
-23.761777 -36.811706 17.846290 -0.542053 -0.840344 0.000000 1.6580765988230895e-38
-22.014708 -37.195534 17.101391 -0.521185 -0.853444 0.000000 1.6580765988230895e-38
-21.726128 -37.095130 16.933397 -0.500000 -0.866025 0.000000 1.6580765988230895e-38
-34.184592 -26.288524 19.024874 -0.794290 -0.607539 0.000000 1.6580765988230895e-38
-33.561711 -27.031107 19.121496 -0.779081 -0.626924 0.000000 1.6580765988230895e-38
-33.136035 -27.993546 18.553262 -0.763398 -0.645928 0.000000 1.6580765988230895e-38
-31.943550 -28.818880 18.362218 -0.747253 -0.664540 0.000000 1.6580765988230895e-38
-31.510504 -29.854183 18.716742 -0.730653 -0.682749 0.000000 1.6580765988230895e-38
-30.823539 -30.437820 18.726445 -0.713610 -0.700543 0.000000 1.6580765988230895e-38
-30.636123 -31.085360 18.417871 -0.696134 -0.717912 0.000000 1.6580765988230895e-38
-28.554875 -31.821850 18.377783 -0.678235 -0.734845 0.000000 1.6580765988230895e-38
-29.032955 -32.191977 18.451691 -0.659925 -0.751332 0.000000 1.6580765988230895e-38
-28.045406 -33.177929 18.751617 -0.641213 -0.767363 0.000000 1.6580765988230895e-38
-26.789468 -33.947910 18.604458 -0.622113 -0.782928 0.000000 1.6580765988230895e-38
-26.065318 -34.507320 18.684167 -0.602635 -0.798017 0.000000 1.6580765988230895e-38
-24.946001 -35.224707 18.311660 -0.582791 -0.812622 0.000000 1.6580765988230895e-38
-24.441688 -35.627495 18.020743 -0.562593 -0.826734 0.000000 1.6580765988230895e-38
-24.041878 -36.168377 19.012738 -0.542053 -0.840344 0.000000 1.6580765988230895e-38
-22.982193 -36.981828 18.436837 -0.521185 -0.853444 0.000000 1.6580765988230895e-38
-21.762141 -37.465943 18.168840 -0.500000 -0.866025 0.000000 1.6580765988230895e-38
-33.390724 -26.641241 19.843262 -0.779081 -0.626924 0.000000 1.6580765988230895e-38
-32.418911 -28.292018 19.418491 -0.763398 -0.645928 0.000000 1.6580765988230895e-38
-32.706911 -28.963152 20.487434 -0.747253 -0.664540 0.000000 1.6580765988230895e-38
-31.856552 -29.947000 19.524277 -0.730653 -0.682749 0.000000 1.6580765988230895e-38
-30.689090 -30.163687 19.648171 -0.713610 -0.700543 0.000000 1.6580765988230895e-38
-30.833885 -31.556735 20.310188 -0.696134 -0.717912 0.000000 1.6580765988230895e-38
-29.286182 -31.934847 20.354464 -0.678235 -0.734845 0.000000 1.6580765988230895e-38
-28.109097 -32.682195 19.788543 -0.659925 -0.751332 0.000000 1.6580765988230895e-38
-28.057558 -33.453888 19.347917 -0.641213 -0.767363 0.000000 1.6580765988230895e-38
-27.499481 -34.562140 20.119116 -0.622113 -0.782928 0.000000 1.6580765988230895e-38
-26.673784 -34.116521 19.574701 -0.602635 -0.798017 0.000000 1.6580765988230895e-38
-24.821247 -35.446125 19.323958 -0.582791 -0.812622 0.000000 1.6580765988230895e-38
-24.079022 -35.529696 19.521999 -0.562593 -0.826734 0.000000 1.6580765988230895e-38
-23.670503 -36.813817 19.757656 -0.542053 -0.840344 0.000000 1.6580765988230895e-38
-22.631200 -37.217130 19.248147 -0.521185 -0.853444 0.000000 1.6580765988230895e-38
-21.916595 -37.447766 19.731145 -0.500000 -0.866025 0.000000 1.6580765988230895e-38
-33.181422 -27.786112 20.776297 -0.763398 -0.645928 0.000000 1.6580765988230895e-38
-32.687435 -29.209041 20.781874 -0.747253 -0.664540 0.000000 1.6580765988230895e-38
-32.040966 -29.832502 21.206689 -0.730653 -0.682749 0.000000 1.6580765988230895e-38
-31.023245 -30.866600 21.419176 -0.713610 -0.700543 0.000000 1.6580765988230895e-38
-30.073946 -31.577327 21.398161 -0.696134 -0.717912 0.000000 1.6580765988230895e-38
-29.478649 -32.092331 21.138352 -0.678235 -0.734845 0.000000 1.6580765988230895e-38
-28.785967 -32.600838 21.087122 -0.659925 -0.751332 0.000000 1.6580765988230895e-38
-28.063498 -34.071187 21.189083 -0.641213 -0.767363 0.000000 1.6580765988230895e-38
-27.241425 -33.908816 21.175430 -0.622113 -0.782928 0.000000 1.6580765988230895e-38
-26.384216 -34.493337 21.092380 -0.602635 -0.798017 0.000000 1.6580765988230895e-38
-25.365457 -35.478573 21.535995 -0.582791 -0.812622 0.000000 1.6580765988230895e-38
-24.747735 -36.149335 20.659727 -0.562593 -0.826734 0.000000 1.6580765988230895e-38
-23.420046 -36.820683 20.889917 -0.542053 -0.840344 0.000000 1.6580765988230895e-38
-22.883106 -37.198480 20.655700 -0.521185 -0.853444 0.000000 1.6580765988230895e-38
-22.477160 -37.628648 20.396861 -0.500000 -0.866025 0.000000 1.6580765988230895e-38
-32.223426 -29.127454 22.160153 -0.747253 -0.664540 0.000000 1.6580765988230895e-38
-32.010421 -29.726272 21.957882 -0.730653 -0.682749 0.000000 1.6580765988230895e-38
-31.084280 -30.564158 21.731445 -0.713610 -0.700543 0.000000 1.6580765988230895e-38
-29.909780 -30.962354 22.027872 -0.696134 -0.717912 0.000000 1.6580765988230895e-38
-30.001911 -32.072814 21.840282 -0.678235 -0.734845 0.000000 1.6580765988230895e-38
-28.455015 -33.002884 22.754583 -0.659925 -0.751332 0.000000 1.6580765988230895e-38
-28.293215 -33.597175 22.648205 -0.641213 -0.767363 0.000000 1.6580765988230895e-38
-27.307433 -34.162679 22.595839 -0.622113 -0.782928 0.000000 1.6580765988230895e-38
-26.525324 -35.282829 21.830428 -0.602635 -0.798017 0.000000 1.6580765988230895e-38
-25.315526 -35.426485 22.586540 -0.582791 -0.812622 0.000000 1.6580765988230895e-38
-24.689339 -36.589573 21.562216 -0.562593 -0.826734 0.000000 1.6580765988230895e-38
-22.848369 -36.597556 22.309079 -0.542053 -0.840344 0.000000 1.6580765988230895e-38
-22.712404 -37.758000 22.029580 -0.521185 -0.853444 0.000000 1.6580765988230895e-38
-21.346396 -37.681399 22.038962 -0.500000 -0.866025 0.000000 1.6580765988230895e-38
-21.297561 -38.560919 22.173412 -0.478512 -0.878081 0.000000 1.6580765988230895e-38
-30.813967 -31.387581 23.974599 -0.713610 -0.700543 0.000000 1.6580765988230895e-38
-30.517398 -31.195124 23.657095 -0.696134 -0.717912 0.000000 1.6580765988230895e-38
-29.325971 -32.178968 23.096118 -0.678235 -0.734845 0.000000 1.6580765988230895e-38
-28.986401 -32.810570 23.440366 -0.659925 -0.751332 0.000000 1.6580765988230895e-38
-27.936410 -33.688340 23.326502 -0.641213 -0.767363 0.000000 1.6580765988230895e-38
-27.621474 -34.469098 23.566526 -0.622113 -0.782928 0.000000 1.6580765988230895e-38
-27.028878 -35.247645 22.906147 -0.602635 -0.798017 0.000000 1.6580765988230895e-38
-25.755510 -35.295240 23.149320 -0.582791 -0.812622 0.000000 1.6580765988230895e-38
-24.473244 -35.418953 23.941216 -0.562593 -0.826734 0.000000 1.6580765988230895e-38
-23.742956 -36.613215 23.094250 -0.542053 -0.840344 0.000000 1.6580765988230895e-38
-23.339414 -37.436897 23.624738 -0.521185 -0.853444 0.000000 1.6580765988230895e-38
-21.609565 -38.168162 23.563173 -0.500000 -0.866025 0.000000 1.6580765988230895e-38
-20.947331 -38.565911 23.483412 -0.478512 -0.878081 0.000000 1.6580765988230895e-38
-30.225447 -31.446983 25.050186 -0.696134 -0.717912 0.000000 1.6580765988230895e-38
-29.522615 -32.652930 24.874002 -0.678235 -0.734845 0.000000 1.6580765988230895e-38
-28.750789 -33.203801 24.505080 -0.659925 -0.751332 0.000000 1.6580765988230895e-38
-28.066562 -34.223164 24.415867 -0.641213 -0.767363 0.000000 1.6580765988230895e-38
-27.584922 -34.328676 24.807942 -0.622113 -0.782928 0.000000 1.6580765988230895e-38
-26.217771 -35.404624 24.449626 -0.602635 -0.798017 0.000000 1.6580765988230895e-38
-25.496790 -36.010570 24.561217 -0.582791 -0.812622 0.000000 1.6580765988230895e-38
-25.321900 -36.304906 25.204655 -0.562593 -0.826734 0.000000 1.6580765988230895e-38
-24.169530 -36.684745 24.724448 -0.542053 -0.840344 0.000000 1.6580765988230895e-38
-23.471755 -37.836313 24.455328 -0.521185 -0.853444 0.000000 1.6580765988230895e-38
-22.104548 -37.995873 25.296945 -0.500000 -0.866025 0.000000 1.6580765988230895e-38
-21.493030 -38.797849 24.473474 -0.478512 -0.878081 0.000000 1.6580765988230895e-38
-29.028076 -33.068314 26.536513 -0.659925 -0.751332 0.000000 1.6580765988230895e-38
-28.165594 -33.731201 25.852931 -0.641213 -0.767363 0.000000 1.6580765988230895e-38
-27.226290 -34.868073 26.012083 -0.622113 -0.782928 0.000000 1.6580765988230895e-38
-25.752699 -35.998767 26.049326 -0.602635 -0.798017 0.000000 1.6580765988230895e-38
-25.659709 -35.961029 25.918026 -0.582791 -0.812622 0.000000 1.6580765988230895e-38
-24.821657 -36.591506 26.045975 -0.562593 -0.826734 0.000000 1.6580765988230895e-38
-24.088161 -36.510320 25.903777 -0.542053 -0.840344 0.000000 1.6580765988230895e-38
-22.849258 -37.896349 26.259324 -0.521185 -0.853444 0.000000 1.6580765988230895e-38
-21.864389 -38.125575 25.671181 -0.500000 -0.866025 0.000000 1.6580765988230895e-38
-28.035236 -34.057777 26.667732 -0.641213 -0.767363 0.000000 1.6580765988230895e-38
-27.701938 -34.685561 27.228402 -0.622113 -0.782928 0.000000 1.6580765988230895e-38
-26.544760 -35.229521 27.174847 -0.602635 -0.798017 0.000000 1.6580765988230895e-38
-26.189904 -36.151547 27.029662 -0.582791 -0.812622 0.000000 1.6580765988230895e-38
-25.022260 -36.437356 27.337726 -0.562593 -0.826734 0.000000 1.6580765988230895e-38
-23.779126 -37.363185 27.669003 -0.542053 -0.840344 0.000000 1.6580765988230895e-38
-22.899488 -37.794931 27.397499 -0.521185 -0.853444 0.000000 1.6580765988230895e-38
-22.365055 -39.018903 27.034486 -0.500000 -0.866025 0.000000 1.6580765988230895e-38
-27.120436 -34.659211 28.631249 -0.622113 -0.782928 0.000000 1.6580765988230895e-38
-26.881540 -35.499018 28.662994 -0.602635 -0.798017 0.000000 1.6580765988230895e-38
-25.736191 -35.934433 28.641609 -0.582791 -0.812622 0.000000 1.6580765988230895e-38
-24.758210 -36.542434 28.146304 -0.562593 -0.826734 0.000000 1.6580765988230895e-38
-23.864323 -36.826308 28.445620 -0.542053 -0.840344 0.000000 1.6580765988230895e-38
-22.735796 -38.241833 28.444679 -0.521185 -0.853444 0.000000 1.6580765988230895e-38
-25.649689 -35.902535 29.668508 -0.582791 -0.812622 0.000000 1.6580765988230895e-38
-24.973085 -36.920084 29.333129 -0.562593 -0.826734 0.000000 1.6580765988230895e-38
-23.539382 -37.112246 29.797047 -0.542053 -0.840344 0.000000 1.6580765988230895e-38
-23.529722 -38.177103 29.482994 -0.521185 -0.853444 0.000000 1.6580765988230895e-38
-25.015712 -37.256777 30.867777 -0.562593 -0.826734 0.000000 1.6580765988230895e-38
-24.277592 -37.770875 30.457942 -0.542053 -0.840344 0.000000 1.6580765988230895e-38
