# .PCD v0.7 - Point Cloud Data file format
VERSION 0.7
FIELDS x y z normal_x normal_y normal_z rgb
SIZE 4 4 4 4 4 4 4
TYPE F F F F F F F
COUNT 1 1 1 1 1 1 1
WIDTH 321
HEIGHT 1
VIEWPOINT 0 0 0 1 0 0 0
POINTS 321
DATA ascii
-21.718288 -36.895277 0.029843 -0.500000 -0.866025 0.000000 1.5658809689597668e-38
-20.362572 -37.081211 0.103394 -0.478512 -0.878081 0.000000 1.5658809689597668e-38
-19.210639 -38.014682 0.269345 -0.456733 -0.889604 0.000000 1.5658809689597668e-38
-17.985067 -38.565980 -0.266309 -0.434676 -0.900587 0.000000 1.5658809689597668e-38
-17.124408 -38.775866 0.421146 -0.412356 -0.911023 0.000000 1.5658809689597668e-38
-16.698660 -38.701971 0.039446 -0.389786 -0.920906 0.000000 1.5658809689597668e-38
-15.519130 -39.065330 -0.108531 -0.366979 -0.930229 0.000000 1.5658809689597668e-38
-14.900166 -40.041575 0.135700 -0.343949 -0.938988 0.000000 1.5658809689597668e-38
-14.099913 -40.063796 -0.161631 -0.320710 -0.947177 0.000000 1.5658809689597668e-38
-12.289922 -41.296909 -0.235970 -0.297277 -0.954791 0.000000 1.5658809689597668e-38
-21.244960 -36.989411 1.723134 -0.500000 -0.866025 0.000000 1.5658809689597668e-38
-20.229514 -37.387315 1.595199 -0.478512 -0.878081 0.000000 1.5658809689597668e-38
-20.064118 -38.415900 1.475865 -0.456733 -0.889604 0.000000 1.5658809689597668e-38
-18.457317 -38.203343 0.839195 -0.434676 -0.900587 0.000000 1.5658809689597668e-38
-17.533735 -38.120993 1.484373 -0.412356 -0.911023 0.000000 1.5658809689597668e-38
-16.516521 -39.273823 1.118742 -0.389786 -0.920906 0.000000 1.5658809689597668e-38
-16.236801 -39.461112 1.490758 -0.366979 -0.930229 0.000000 1.5658809689597668e-38
-15.091868 -40.109124 0.889874 -0.343949 -0.938988 0.000000 1.5658809689597668e-38
-13.921052 -40.242719 0.611793 -0.320710 -0.947177 0.000000 1.5658809689597668e-38
-12.451154 -40.356230 1.161783 -0.297277 -0.954791 0.000000 1.5658809689597668e-38
-20.573300 -37.746009 2.175926 -0.478512 -0.878081 0.000000 1.5658809689597668e-38
-19.220188 -37.672786 2.504904 -0.456733 -0.889604 0.000000 1.5658809689597668e-38
-18.817472 -38.059040 2.106815 -0.434676 -0.900587 0.000000 1.5658809689597668e-38
-17.183944 -37.875560 2.584162 -0.412356 -0.911023 0.000000 1.5658809689597668e-38
-16.397098 -39.300827 1.931163 -0.389786 -0.920906 0.000000 1.5658809689597668e-38
-15.783187 -39.877246 2.040125 -0.366979 -0.930229 0.000000 1.5658809689597668e-38
-14.106531 -39.839916 2.588133 -0.343949 -0.938988 0.000000 1.5658809689597668e-38
-13.727936 -40.321797 2.763592 -0.320710 -0.947177 0.000000 1.5658809689597668e-38
-12.648643 -40.434441 2.415426 -0.297277 -0.954791 0.000000 1.5658809689597668e-38
-11.737627 -41.314792 1.880902 -0.273663 -0.961826 0.000000 1.5658809689597668e-38
-20.270169 -37.762328 3.521041 -0.478512 -0.878081 0.000000 1.5658809689597668e-38
-19.536622 -37.965792 3.551201 -0.456733 -0.889604 0.000000 1.5658809689597668e-38
-18.486962 -38.467369 3.272603 -0.434676 -0.900587 0.000000 1.5658809689597668e-38
-17.305769 -38.524828 3.964292 -0.412356 -0.911023 0.000000 1.5658809689597668e-38
-17.041908 -39.081385 3.914134 -0.389786 -0.920906 0.000000 1.5658809689597668e-38
-15.918941 -39.564900 3.676460 -0.366979 -0.930229 0.000000 1.5658809689597668e-38
-14.077351 -39.362873 3.212033 -0.343949 -0.938988 0.000000 1.5658809689597668e-38
-12.893352 -40.563111 4.005542 -0.320710 -0.947177 0.000000 1.5658809689597668e-38
-12.353633 -40.911113 3.859321 -0.297277 -0.954791 0.000000 1.5658809689597668e-38
-11.672618 -40.745315 3.780542 -0.273663 -0.961826 0.000000 1.5658809689597668e-38
-10.269965 -41.163364 3.660978 -0.249883 -0.968276 0.000000 1.5658809689597668e-38
-20.388539 -37.556150 4.379073 -0.478512 -0.878081 0.000000 1.5658809689597668e-38
-19.337950 -37.808266 5.115726 -0.456733 -0.889604 0.000000 1.5658809689597668e-38
-18.902330 -38.138031 5.564817 -0.434676 -0.900587 0.000000 1.5658809689597668e-38
-17.527525 -38.794219 5.041154 -0.412356 -0.911023 0.000000 1.5658809689597668e-38
-15.980696 -39.503457 5.009416 -0.389786 -0.920906 0.000000 1.5658809689597668e-38
-15.859560 -39.757311 4.933577 -0.366979 -0.930229 0.000000 1.5658809689597668e-38
-14.235249 -39.425723 5.082896 -0.343949 -0.938988 0.000000 1.5658809689597668e-38
-13.763320 -39.566745 4.820187 -0.320710 -0.947177 0.000000 1.5658809689597668e-38
-12.824291 -41.171122 5.367281 -0.297277 -0.954791 0.000000 1.5658809689597668e-38
-11.357403 -40.212698 4.531597 -0.273663 -0.961826 0.000000 1.5658809689597668e-38
-10.198281 -41.191546 5.190284 -0.249883 -0.968276 0.000000 1.5658809689597668e-38
-10.111464 -41.021690 5.184409 -0.225951 -0.974139 0.000000 1.5658809689597668e-38
-20.374984 -37.479576 5.573984 -0.478512 -0.878081 0.000000 1.5658809689597668e-38
-19.119419 -37.919795 6.040127 -0.456733 -0.889604 0.000000 1.5658809689597668e-38
-18.684499 -38.255767 5.917440 -0.434676 -0.900587 0.000000 1.5658809689597668e-38
-18.242158 -38.685717 6.341298 -0.412356 -0.911023 0.000000 1.5658809689597668e-38
-16.664037 -39.573219 6.212248 -0.389786 -0.920906 0.000000 1.5658809689597668e-38
-16.071968 -39.934193 5.960358 -0.366979 -0.930229 0.000000 1.5658809689597668e-38
-14.398397 -40.107927 6.051207 -0.343949 -0.938988 0.000000 1.5658809689597668e-38
-13.075247 -40.242240 6.287265 -0.320710 -0.947177 0.000000 1.5658809689597668e-38
-12.774347 -40.851231 5.529645 -0.297277 -0.954791 0.000000 1.5658809689597668e-38
-11.366908 -40.837476 6.131817 -0.273663 -0.961826 0.000000 1.5658809689597668e-38
-10.685715 -41.025900 5.719154 -0.249883 -0.968276 0.000000 1.5658809689597668e-38
-9.802065 -41.837368 6.717020 -0.225951 -0.974139 0.000000 1.5658809689597668e-38
-20.444948 -37.431438 7.177717 -0.478512 -0.878081 0.000000 1.5658809689597668e-38
-19.208603 -38.047721 7.344657 -0.456733 -0.889604 0.000000 1.5658809689597668e-38
-18.352472 -38.458463 7.352191 -0.434676 -0.900587 0.000000 1.5658809689597668e-38
-17.580181 -38.608459 7.916628 -0.412356 -0.911023 0.000000 1.5658809689597668e-38
-16.445277 -39.027489 7.362724 -0.389786 -0.920906 0.000000 1.5658809689597668e-38
-15.860742 -39.469864 7.474053 -0.366979 -0.930229 0.000000 1.5658809689597668e-38
-15.093171 -40.137977 7.397811 -0.343949 -0.938988 0.000000 1.5658809689597668e-38
-13.828595 -39.944224 7.566632 -0.320710 -0.947177 0.000000 1.5658809689597668e-38
-12.264278 -40.634386 7.447097 -0.297277 -0.954791 0.000000 1.5658809689597668e-38
-11.950288 -41.009786 7.426597 -0.273663 -0.961826 0.000000 1.5658809689597668e-38
-11.065436 -41.450275 7.325696 -0.249883 -0.968276 0.000000 1.5658809689597668e-38
-9.510782 -41.399999 7.248285 -0.225951 -0.974139 0.000000 1.5658809689597668e-38
-8.467840 -41.817796 6.561794 -0.201882 -0.979410 0.000000 1.5658809689597668e-38
-20.290356 -36.881633 8.712963 -0.478512 -0.878081 0.000000 1.5658809689597668e-38
-18.764453 -37.925648 8.666538 -0.456733 -0.889604 0.000000 1.5658809689597668e-38
-18.940989 -38.114608 8.509156 -0.434676 -0.900587 0.000000 1.5658809689597668e-38
-17.798398 -38.508938 9.007261 -0.412356 -0.911023 0.000000 1.5658809689597668e-38
-16.301092 -39.423883 8.644501 -0.389786 -0.920906 0.000000 1.5658809689597668e-38
-15.684986 -39.478521 9.125863 -0.366979 -0.930229 0.000000 1.5658809689597668e-38
-14.573396 -39.494750 8.928952 -0.343949 -0.938988 0.000000 1.5658809689597668e-38
-13.762176 -40.188208 9.171576 -0.320710 -0.947177 0.000000 1.5658809689597668e-38
-12.091833 -40.405808 8.667496 -0.297277 -0.954791 0.000000 1.5658809689597668e-38
-11.748207 -40.889364 9.161986 -0.273663 -0.961826 0.000000 1.5658809689597668e-38
-10.537854 -41.201205 8.675213 -0.249883 -0.968276 0.000000 1.5658809689597668e-38
-9.744662 -41.636489 8.700422 -0.225951 -0.974139 0.000000 1.5658809689597668e-38
-8.103318 -41.884799 8.675577 -0.201882 -0.979410 0.000000 1.5658809689597668e-38
-7.845582 -41.797547 9.069798 -0.177691 -0.984086 0.000000 1.5658809689597668e-38
-20.857353 -37.514983 9.842540 -0.478512 -0.878081 0.000000 1.5658809689597668e-38
-19.621972 -37.971246 10.121308 -0.456733 -0.889604 0.000000 1.5658809689597668e-38
-18.372097 -38.334572 9.824706 -0.434676 -0.900587 0.000000 1.5658809689597668e-38
-17.798474 -39.259706 9.718960 -0.412356 -0.911023 0.000000 1.5658809689597668e-38
-16.657585 -39.604913 9.925724 -0.389786 -0.920906 0.000000 1.5658809689597668e-38
-15.978106 -40.265920 10.142729 -0.366979 -0.930229 0.000000 1.5658809689597668e-38
-14.846259 -40.393185 9.568753 -0.343949 -0.938988 0.000000 1.5658809689597668e-38
-13.583562 -40.079685 9.775985 -0.320710 -0.947177 0.000000 1.5658809689597668e-38
-12.773357 -40.496168 9.353774 -0.297277 -0.954791 0.000000 1.5658809689597668e-38
-11.109126 -40.385147 9.085006 -0.273663 -0.961826 0.000000 1.5658809689597668e-38
-10.711835 -41.609818 9.817476 -0.249883 -0.968276 0.000000 1.5658809689597668e-38
-9.785011 -41.401232 9.863136 -0.225951 -0.974139 0.000000 1.5658809689597668e-38
-8.903815 -41.921760 10.051342 -0.201882 -0.979410 0.000000 1.5658809689597668e-38
-7.951466 -42.563899 10.494730 -0.177691 -0.984086 0.000000 1.5658809689597668e-38
-20.717379 -37.590926 11.189265 -0.478512 -0.878081 0.000000 1.5658809689597668e-38
-19.091496 -38.534014 10.860690 -0.456733 -0.889604 0.000000 1.5658809689597668e-38
-17.769928 -38.641783 10.566722 -0.434676 -0.900587 0.000000 1.5658809689597668e-38
-17.830366 -39.837345 11.206297 -0.412356 -0.911023 0.000000 1.5658809689597668e-38
-16.446281 -39.703330 10.992803 -0.389786 -0.920906 0.000000 1.5658809689597668e-38
-15.435604 -40.354107 10.737549 -0.366979 -0.930229 0.000000 1.5658809689597668e-38
-14.795079 -40.429774 11.045861 -0.343949 -0.938988 0.000000 1.5658809689597668e-38
-14.110773 -40.490402 11.089251 -0.320710 -0.947177 0.000000 1.5658809689597668e-38
-12.563559 -40.820579 11.196028 -0.297277 -0.954791 0.000000 1.5658809689597668e-38
-12.151148 -41.034105 11.034761 -0.273663 -0.961826 0.000000 1.5658809689597668e-38
-10.749062 -41.143586 10.918190 -0.249883 -0.968276 0.000000 1.5658809689597668e-38
-9.269059 -41.275736 11.359856 -0.225951 -0.974139 0.000000 1.5658809689597668e-38
-8.938058 -42.590659 11.457671 -0.201882 -0.979410 0.000000 1.5658809689597668e-38
-7.574667 -42.358564 11.486089 -0.177691 -0.984086 0.000000 1.5658809689597668e-38
-6.826142 -42.436905 11.291488 -0.153392 -0.988165 0.000000 1.5658809689597668e-38
-20.311410 -37.004832 12.694314 -0.478512 -0.878081 0.000000 1.5658809689597668e-38
-19.598693 -38.495275 11.962515 -0.456733 -0.889604 0.000000 1.5658809689597668e-38
-18.766707 -38.832202 12.155270 -0.434676 -0.900587 0.000000 1.5658809689597668e-38
-17.783828 -39.104373 12.516698 -0.412356 -0.911023 0.000000 1.5658809689597668e-38
-17.089228 -39.702247 12.323232 -0.389786 -0.920906 0.000000 1.5658809689597668e-38
-15.798341 -39.346544 12.440808 -0.366979 -0.930229 0.000000 1.5658809689597668e-38
-15.236022 -40.147692 12.534833 -0.343949 -0.938988 0.000000 1.5658809689597668e-38
-13.792778 -40.988391 12.898550 -0.320710 -0.947177 0.000000 1.5658809689597668e-38
-13.071149 -40.752703 12.431149 -0.297277 -0.954791 0.000000 1.5658809689597668e-38
-11.557144 -40.740578 12.539626 -0.273663 -0.961826 0.000000 1.5658809689597668e-38
-10.885063 -41.197495 12.181804 -0.249883 -0.968276 0.000000 1.5658809689597668e-38
-9.641968 -42.168663 12.061150 -0.225951 -0.974139 0.000000 1.5658809689597668e-38
-8.643307 -41.896391 11.860417 -0.201882 -0.979410 0.000000 1.5658809689597668e-38
-7.471967 -42.453224 12.755040 -0.177691 -0.984086 0.000000 1.5658809689597668e-38
-6.684547 -42.719436 12.393875 -0.153392 -0.988165 0.000000 1.5658809689597668e-38
-5.807638 -42.150889 12.371293 -0.128999 -0.991645 0.000000 1.5658809689597668e-38
-20.650487 -37.939062 13.874901 -0.478512 -0.878081 0.000000 1.5658809689597668e-38
-20.051670 -38.525175 13.509616 -0.456733 -0.889604 0.000000 1.5658809689597668e-38
-18.194333 -38.382782 13.115995 -0.434676 -0.900587 0.000000 1.5658809689597668e-38
-17.313938 -38.742682 13.256045 -0.412356 -0.911023 0.000000 1.5658809689597668e-38
-17.505907 -39.593851 13.944975 -0.389786 -0.920906 0.000000 1.5658809689597668e-38
-15.292049 -40.234085 14.133841 -0.366979 -0.930229 0.000000 1.5658809689597668e-38
-15.448191 -40.459637 13.483084 -0.343949 -0.938988 0.000000 1.5658809689597668e-38
-13.435522 -40.311620 13.894515 -0.320710 -0.947177 0.000000 1.5658809689597668e-38
-13.179434 -40.769504 13.760960 -0.297277 -0.954791 0.000000 1.5658809689597668e-38
-12.260929 -41.950665 13.919644 -0.273663 -0.961826 0.000000 1.5658809689597668e-38
-10.791739 -41.993296 13.545796 -0.249883 -0.968276 0.000000 1.5658809689597668e-38
-9.600129 -41.884516 13.142652 -0.225951 -0.974139 0.000000 1.5658809689597668e-38
-8.109412 -41.784902 13.507634 -0.201882 -0.979410 0.000000 1.5658809689597668e-38
-7.724078 -42.179278 13.269361 -0.177691 -0.984086 0.000000 1.5658809689597668e-38
-6.494582 -42.861629 13.587087 -0.153392 -0.988165 0.000000 1.5658809689597668e-38
-5.893790 -42.947340 14.101964 -0.128999 -0.991645 0.000000 1.5658809689597668e-38
-19.881292 -37.986072 14.964800 -0.478512 -0.878081 0.000000 1.5658809689597668e-38
-19.798042 -38.018722 14.826888 -0.456733 -0.889604 0.000000 1.5658809689597668e-38
-18.201227 -38.937915 15.267499 -0.434676 -0.900587 0.000000 1.5658809689597668e-38
-17.577849 -39.237773 15.008094 -0.412356 -0.911023 0.000000 1.5658809689597668e-38
-16.705543 -39.546798 14.783300 -0.389786 -0.920906 0.000000 1.5658809689597668e-38
-16.012341 -40.155582 14.340417 -0.366979 -0.930229 0.000000 1.5658809689597668e-38
-14.557629 -40.802769 14.780067 -0.343949 -0.938988 0.000000 1.5658809689597668e-38
-13.615158 -40.533014 14.312965 -0.320710 -0.947177 0.000000 1.5658809689597668e-38
-12.828100 -40.974762 14.860966 -0.297277 -0.954791 0.000000 1.5658809689597668e-38
-11.380525 -41.662120 14.230648 -0.273663 -0.961826 0.000000 1.5658809689597668e-38
-10.516699 -41.854454 14.317799 -0.249883 -0.968276 0.000000 1.5658809689597668e-38
-9.776867 -41.576599 14.466385 -0.225951 -0.974139 0.000000 1.5658809689597668e-38
-7.992125 -42.424103 14.871464 -0.201882 -0.979410 0.000000 1.5658809689597668e-38
-8.016996 -42.361626 14.805236 -0.177691 -0.984086 0.000000 1.5658809689597668e-38
-7.051792 -41.702006 14.696760 -0.153392 -0.988165 0.000000 1.5658809689597668e-38
-5.702960 -42.408856 15.389637 -0.128999 -0.991645 0.000000 1.5658809689597668e-38
-4.162996 -43.183811 14.909534 -0.104528 -0.994522 0.000000 1.5658809689597668e-38
-20.339462 -37.492709 16.220168 -0.478512 -0.878081 0.000000 1.5658809689597668e-38
-19.862245 -38.078774 16.222174 -0.456733 -0.889604 0.000000 1.5658809689597668e-38
-17.977456 -38.771799 16.291781 -0.434676 -0.900587 0.000000 1.5658809689597668e-38
-17.708115 -39.344923 16.004837 -0.412356 -0.911023 0.000000 1.5658809689597668e-38
-16.732941 -39.585336 16.428791 -0.389786 -0.920906 0.000000 1.5658809689597668e-38
-15.744319 -40.282923 15.984418 -0.366979 -0.930229 0.000000 1.5658809689597668e-38
-15.240001 -40.023689 15.920122 -0.343949 -0.938988 0.000000 1.5658809689597668e-38
-13.550022 -40.792485 16.173594 -0.320710 -0.947177 0.000000 1.5658809689597668e-38
-12.864220 -41.440370 15.791914 -0.297277 -0.954791 0.000000 1.5658809689597668e-38
-11.291390 -41.473408 16.420055 -0.273663 -0.961826 0.000000 1.5658809689597668e-38
-10.368231 -41.909218 16.209526 -0.249883 -0.968276 0.000000 1.5658809689597668e-38
-9.737427 -42.386127 16.026830 -0.225951 -0.974139 0.000000 1.5658809689597668e-38
-8.535986 -42.416149 15.985021 -0.201882 -0.979410 0.000000 1.5658809689597668e-38
-7.720266 -41.834799 15.532260 -0.177691 -0.984086 0.000000 1.5658809689597668e-38
-6.469126 -42.720294 15.890278 -0.153392 -0.988165 0.000000 1.5658809689597668e-38
-5.650325 -42.594226 16.299831 -0.128999 -0.991645 0.000000 1.5658809689597668e-38
-4.455122 -42.590782 16.463124 -0.104528 -0.994522 0.000000 1.5658809689597668e-38
-3.207240 -43.180572 16.230807 -0.079994 -0.996795 0.000000 1.5658809689597668e-38
-21.289373 -37.333663 17.413300 -0.478512 -0.878081 0.000000 1.5658809689597668e-38
-19.620953 -38.543899 17.459323 -0.456733 -0.889604 0.000000 1.5658809689597668e-38
-19.257434 -39.209731 17.351135 -0.434676 -0.900587 0.000000 1.5658809689597668e-38
-18.518920 -39.499647 17.210338 -0.412356 -0.911023 0.000000 1.5658809689597668e-38
-16.952111 -40.001728 17.020820 -0.389786 -0.920906 0.000000 1.5658809689597668e-38
-16.421327 -40.196307 17.229550 -0.366979 -0.930229 0.000000 1.5658809689597668e-38
-15.291079 -40.599869 17.231103 -0.343949 -0.938988 0.000000 1.5658809689597668e-38
-14.011546 -41.619936 17.524418 -0.320710 -0.947177 0.000000 1.5658809689597668e-38
-13.229476 -41.283250 17.077107 -0.297277 -0.954791 0.000000 1.5658809689597668e-38
-11.954694 -41.260833 17.479073 -0.273663 -0.961826 0.000000 1.5658809689597668e-38
-10.470392 -41.786436 17.438431 -0.249883 -0.968276 0.000000 1.5658809689597668e-38
-10.308511 -42.234411 17.252115 -0.225951 -0.974139 0.000000 1.5658809689597668e-38
-8.365902 -42.519041 17.399045 -0.201882 -0.979410 0.000000 1.5658809689597668e-38
-7.618804 -42.222168 17.279464 -0.177691 -0.984086 0.000000 1.5658809689597668e-38
-6.387059 -43.257385 16.835382 -0.153392 -0.988165 0.000000 1.5658809689597668e-38
-6.265234 -42.660634 17.521688 -0.128999 -0.991645 0.000000 1.5658809689597668e-38
-4.252630 -43.224099 17.150523 -0.104528 -0.994522 0.000000 1.5658809689597668e-38
-3.496695 -42.686125 17.827736 -0.079994 -0.996795 0.000000 1.5658809689597668e-38
-2.158839 -43.092095 17.720202 -0.055411 -0.998464 0.000000 1.5658809689597668e-38
-21.084152 -38.170813 18.513088 -0.478512 -0.878081 0.000000 1.5658809689597668e-38
-20.145269 -38.343260 18.431433 -0.456733 -0.889604 0.000000 1.5658809689597668e-38
-18.977498 -38.971652 18.518029 -0.434676 -0.900587 0.000000 1.5658809689597668e-38
-17.631737 -39.789060 18.137485 -0.412356 -0.911023 0.000000 1.5658809689597668e-38
-16.997086 -39.919561 18.184474 -0.389786 -0.920906 0.000000 1.5658809689597668e-38
-16.331383 -40.287294 18.329367 -0.366979 -0.930229 0.000000 1.5658809689597668e-38
-15.352056 -40.432242 18.367163 -0.343949 -0.938988 0.000000 1.5658809689597668e-38
-13.563549 -41.068442 18.645129 -0.320710 -0.947177 0.000000 1.5658809689597668e-38
-12.955688 -42.203732 18.215665 -0.297277 -0.954791 0.000000 1.5658809689597668e-38
-11.905870 -41.602828 18.019799 -0.273663 -0.961826 0.000000 1.5658809689597668e-38
-10.852952 -42.328665 18.627087 -0.249883 -0.968276 0.000000 1.5658809689597668e-38
-9.804827 -42.023182 18.876748 -0.225951 -0.974139 0.000000 1.5658809689597668e-38
-8.617496 -42.216713 18.451598 -0.201882 -0.979410 0.000000 1.5658809689597668e-38
-6.859128 -43.043289 18.398374 -0.177691 -0.984086 0.000000 1.5658809689597668e-38
-6.381849 -42.628730 18.702918 -0.153392 -0.988165 0.000000 1.5658809689597668e-38
-5.391815 -43.630500 19.033491 -0.128999 -0.991645 0.000000 1.5658809689597668e-38
-4.594335 -42.756442 17.946643 -0.104528 -0.994522 0.000000 1.5658809689597668e-38
-3.392203 -43.397855 18.728337 -0.079994 -0.996795 0.000000 1.5658809689597668e-38
-2.307952 -43.191339 18.239019 -0.055411 -0.998464 0.000000 1.5658809689597668e-38
-20.906146 -38.462299 19.610799 -0.478512 -0.878081 0.000000 1.5658809689597668e-38
-19.438180 -39.026063 20.010061 -0.456733 -0.889604 0.000000 1.5658809689597668e-38
-18.887641 -39.088265 19.574108 -0.434676 -0.900587 0.000000 1.5658809689597668e-38
-18.036708 -39.617228 19.637614 -0.412356 -0.911023 0.000000 1.5658809689597668e-38
-16.850277 -39.908033 20.445626 -0.389786 -0.920906 0.000000 1.5658809689597668e-38
-15.874492 -41.024380 20.142720 -0.366979 -0.930229 0.000000 1.5658809689597668e-38
-15.017664 -40.228014 20.235092 -0.343949 -0.938988 0.000000 1.5658809689597668e-38
-14.097556 -40.971116 19.615628 -0.320710 -0.947177 0.000000 1.5658809689597668e-38
-12.926176 -41.315983 20.127714 -0.297277 -0.954791 0.000000 1.5658809689597668e-38
-11.631581 -41.802166 20.538842 -0.273663 -0.961826 0.000000 1.5658809689597668e-38
-10.975583 -42.587317 19.369405 -0.249883 -0.968276 0.000000 1.5658809689597668e-38
-9.383213 -42.383084 19.841532 -0.225951 -0.974139 0.000000 1.5658809689597668e-38
-8.941545 -42.725113 19.557686 -0.201882 -0.979410 0.000000 1.5658809689597668e-38
-7.585487 -42.821876 19.924316 -0.177691 -0.984086 0.000000 1.5658809689597668e-38
-6.568353 -43.097805 19.356195 -0.153392 -0.988165 0.000000 1.5658809689597668e-38
-6.073227 -42.213339 20.237266 -0.128999 -0.991645 0.000000 1.5658809689597668e-38
-4.143330 -43.448830 19.796667 -0.104528 -0.994522 0.000000 1.5658809689597668e-38
-3.723132 -43.738932 19.617182 -0.079994 -0.996795 0.000000 1.5658809689597668e-38
-2.011694 -43.165629 19.502800 -0.055411 -0.998464 0.000000 1.5658809689597668e-38
-1.433558 -43.239301 19.622523 -0.030795 -0.999526 0.000000 1.5658809689597668e-38
-20.610870 -37.824137 20.981661 -0.478512 -0.878081 0.000000 1.5658809689597668e-38
-19.527520 -38.801461 21.510700 -0.456733 -0.889604 0.000000 1.5658809689597668e-38
-19.092397 -39.982586 21.006954 -0.434676 -0.900587 0.000000 1.5658809689597668e-38
-17.469799 -39.567726 20.876331 -0.412356 -0.911023 0.000000 1.5658809689597668e-38
-16.899258 -39.867855 21.005243 -0.389786 -0.920906 0.000000 1.5658809689597668e-38
-15.215431 -40.721013 21.331681 -0.366979 -0.930229 0.000000 1.5658809689597668e-38
-14.770472 -41.157704 20.903596 -0.343949 -0.938988 0.000000 1.5658809689597668e-38
-13.680222 -41.261428 21.132349 -0.320710 -0.947177 0.000000 1.5658809689597668e-38
-13.454550 -41.440097 21.117117 -0.297277 -0.954791 0.000000 1.5658809689597668e-38
-11.953171 -41.835385 20.908163 -0.273663 -0.961826 0.000000 1.5658809689597668e-38
-11.074562 -42.297509 20.891667 -0.249883 -0.968276 0.000000 1.5658809689597668e-38
-9.199209 -42.207039 20.740387 -0.225951 -0.974139 0.000000 1.5658809689597668e-38
-8.192875 -42.840324 21.039764 -0.201882 -0.979410 0.000000 1.5658809689597668e-38
-7.479589 -43.505401 20.959820 -0.177691 -0.984086 0.000000 1.5658809689597668e-38
-6.861161 -43.030765 21.141943 -0.153392 -0.988165 0.000000 1.5658809689597668e-38
-5.648624 -43.281107 21.350467 -0.128999 -0.991645 0.000000 1.5658809689597668e-38
-4.467871 -43.357055 21.075289 -0.104528 -0.994522 0.000000 1.5658809689597668e-38
-2.937653 -43.416821 20.876593 -0.079994 -0.996795 0.000000 1.5658809689597668e-38
-2.989104 -43.971555 20.890820 -0.055411 -0.998464 0.000000 1.5658809689597668e-38
-1.375435 -43.754378 21.136271 -0.030795 -0.999526 0.000000 1.5658809689597668e-38
-0.439178 -43.881893 21.214721 -0.006160 -0.999981 0.000000 1.5658809689597668e-38
-19.362189 -38.966683 21.911176 -0.456733 -0.889604 0.000000 1.5658809689597668e-38
-19.029801 -39.311271 21.883877 -0.434676 -0.900587 0.000000 1.5658809689597668e-38
-17.915317 -39.484353 22.309643 -0.412356 -0.911023 0.000000 1.5658809689597668e-38
-17.287882 -40.437954 21.770390 -0.389786 -0.920906 0.000000 1.5658809689597668e-38
-16.091359 -40.593870 21.999051 -0.366979 -0.930229 0.000000 1.5658809689597668e-38
-14.461999 -40.832530 21.730208 -0.343949 -0.938988 0.000000 1.5658809689597668e-38
-14.559156 -41.723598 22.739997 -0.320710 -0.947177 0.000000 1.5658809689597668e-38
-12.735253 -41.274303 22.271104 -0.297277 -0.954791 0.000000 1.5658809689597668e-38
-12.032535 -42.443342 22.372946 -0.273663 -0.961826 0.000000 1.5658809689597668e-38
-10.988430 -42.421624 22.753456 -0.249883 -0.968276 0.000000 1.5658809689597668e-38
-9.920739 -42.208349 21.791619 -0.225951 -0.974139 0.000000 1.5658809689597668e-38
-8.023659 -42.950179 22.480196 -0.201882 -0.979410 0.000000 1.5658809689597668e-38
-7.512106 -43.191952 22.513750 -0.177691 -0.984086 0.000000 1.5658809689597668e-38
-6.447864 -43.435105 22.057651 -0.153392 -0.988165 0.000000 1.5658809689597668e-38
-5.628678 -43.407987 22.685980 -0.128999 -0.991645 0.000000 1.5658809689597668e-38
-4.361148 -43.520311 22.449865 -0.104528 -0.994522 0.000000 1.5658809689597668e-38
-4.112848 -43.783214 22.354388 -0.079994 -0.996795 0.000000 1.5658809689597668e-38
-2.089021 -43.611659 22.705513 -0.055411 -0.998464 0.000000 1.5658809689597668e-38
-1.086557 -43.864544 22.226032 -0.030795 -0.999526 0.000000 1.5658809689597668e-38
-0.146902 -43.872550 22.727428 -0.006160 -0.999981 0.000000 1.5658809689597668e-38
-20.295909 -38.948151 23.563670 -0.456733 -0.889604 0.000000 1.5658809689597668e-38
-19.203767 -39.314205 23.813504 -0.434676 -0.900587 0.000000 1.5658809689597668e-38
-17.889239 -40.284556 23.535048 -0.412356 -0.911023 0.000000 1.5658809689597668e-38
-17.375586 -40.376475 23.232894 -0.389786 -0.920906 0.000000 1.5658809689597668e-38
-15.718329 -40.579530 23.851051 -0.366979 -0.930229 0.000000 1.5658809689597668e-38
-14.775508 -41.280020 23.377472 -0.343949 -0.938988 0.000000 1.5658809689597668e-38
-13.548892 -41.607674 23.098780 -0.320710 -0.947177 0.000000 1.5658809689597668e-38
-12.741011 -41.849074 23.956938 -0.297277 -0.954791 0.000000 1.5658809689597668e-38
-11.934284 -42.206844 23.962991 -0.273663 -0.961826 0.000000 1.5658809689597668e-38
-11.425349 -42.659468 23.238946 -0.249883 -0.968276 0.000000 1.5658809689597668e-38
-10.572311 -42.479131 23.337929 -0.225951 -0.974139 0.000000 1.5658809689597668e-38
-8.586136 -42.855634 23.687297 -0.201882 -0.979410 0.000000 1.5658809689597668e-38
-7.932948 -43.406823 23.532083 -0.177691 -0.984086 0.000000 1.5658809689597668e-38
-6.454427 -43.371638 23.294574 -0.153392 -0.988165 0.000000 1.5658809689597668e-38
-6.019646 -43.447928 23.338934 -0.128999 -0.991645 0.000000 1.5658809689597668e-38
-4.607789 -43.707050 23.371825 -0.104528 -0.994522 0.000000 1.5658809689597668e-38
-3.421669 -43.568814 24.094738 -0.079994 -0.996795 0.000000 1.5658809689597668e-38
-2.203831 -43.330257 23.259575 -0.055411 -0.998464 0.000000 1.5658809689597668e-38
-1.831440 -43.859292 23.762563 -0.030795 -0.999526 0.000000 1.5658809689597668e-38
-0.059924 -43.511526 22.744191 -0.006160 -0.999981 0.000000 1.5658809689597668e-38
-13.905133 -41.441360 24.770348 -0.320710 -0.947177 0.000000 1.5658809689597668e-38
-12.642193 -41.876724 24.672330 -0.297277 -0.954791 0.000000 1.5658809689597668e-38
-12.412346 -41.907155 24.973363 -0.273663 -0.961826 0.000000 1.5658809689597668e-38
-10.460151 -41.972662 24.356186 -0.249883 -0.968276 0.000000 1.5658809689597668e-38
-10.331490 -43.739741 25.017777 -0.225951 -0.974139 0.000000 1.5658809689597668e-38
-8.689753 -43.083480 24.374428 -0.201882 -0.979410 0.000000 1.5658809689597668e-38
-7.848521 -43.263261 24.977086 -0.177691 -0.984086 0.000000 1.5658809689597668e-38
-6.670279 -43.299092 24.705029 -0.153392 -0.988165 0.000000 1.5658809689597668e-38
-5.323995 -43.461866 24.386188 -0.128999 -0.991645 0.000000 1.5658809689597668e-38
-4.184491 -43.410366 24.881910 -0.104528 -0.994522 0.000000 1.5658809689597668e-38
-3.437066 -43.380528 24.252274 -0.079994 -0.996795 0.000000 1.5658809689597668e-38
-2.066800 -44.094410 25.070821 -0.055411 -0.998464 0.000000 1.5658809689597668e-38
-1.319460 -44.371179 24.593312 -0.030795 -0.999526 0.000000 1.5658809689597668e-38
0.035363 -44.081406 24.555822 -0.006160 -0.999981 0.000000 1.5658809689597668e-38
