# .PCD v0.7 - Point Cloud Data file format
VERSION 0.7
FIELDS x y z normal_x normal_y normal_z rgb
SIZE 4 4 4 4 4 4 4
TYPE F F F F F F F
COUNT 1 1 1 1 1 1 1
WIDTH 351
HEIGHT 1
VIEWPOINT 0 0 0 1 0 0 0
POINTS 351
DATA ascii
22.860369 14.153256 90.630266 0.750725 0.477723 0.456281 1.6580765988230895e-38
21.752384 14.746291 90.051821 0.738727 0.496074 0.456281 1.6580765988230895e-38
22.017953 12.776261 91.977361 0.721240 0.434373 0.539567 1.6580765988230895e-38
21.249826 13.708177 91.445201 0.710320 0.452011 0.539567 1.6580765988230895e-38
21.425476 14.092963 91.886821 0.698968 0.469374 0.539567 1.6580765988230895e-38
21.062778 14.870093 91.351308 0.687191 0.486453 0.539567 1.6580765988230895e-38
20.805879 15.807796 92.354884 0.674998 0.503236 0.539567 1.6580765988230895e-38
21.294936 12.397091 93.137693 0.697682 0.397097 0.596283 1.6580765988230895e-38
21.334969 12.542583 93.067029 0.687687 0.414165 0.596283 1.6580765988230895e-38
21.104625 13.335573 92.493175 0.677274 0.430983 0.596283 1.6580765988230895e-38
20.177897 14.549865 92.611549 0.666450 0.447538 0.596283 1.6580765988230895e-38
20.015023 14.473607 92.478076 0.655222 0.463822 0.596283 1.6580765988230895e-38
20.101917 15.280620 92.466144 0.643595 0.479824 0.596283 1.6580765988230895e-38
19.490303 15.491618 92.418067 0.631578 0.495535 0.596283 1.6580765988230895e-38
18.922230 15.805074 93.371729 0.619178 0.510945 0.596283 1.6580765988230895e-38
21.602161 10.556076 94.093494 0.691972 0.349897 0.631464 1.6580765988230895e-38
20.572815 11.141775 93.911314 0.683141 0.366839 0.631464 1.6580765988230895e-38
20.950280 11.656241 93.370857 0.673896 0.383559 0.631464 1.6580765988230895e-38
20.344352 12.226986 94.210540 0.664241 0.400045 0.631464 1.6580765988230895e-38
20.225593 12.612268 94.103732 0.654184 0.416289 0.631464 1.6580765988230895e-38
20.408746 13.686684 93.447773 0.643729 0.432280 0.631464 1.6580765988230895e-38
20.266598 14.175940 94.496236 0.632883 0.448009 0.631464 1.6580765988230895e-38
18.721666 14.173347 94.197171 0.621653 0.463465 0.631464 1.6580765988230895e-38
18.483077 14.924125 94.510597 0.610046 0.478641 0.631464 1.6580765988230895e-38
18.350089 15.735967 94.231367 0.598068 0.493525 0.631464 1.6580765988230895e-38
17.511737 15.414227 94.353096 0.585728 0.508110 0.631464 1.6580765988230895e-38
17.368004 16.439088 94.204094 0.573031 0.522387 0.631464 1.6580765988230895e-38
20.214863 9.649208 95.672128 0.687303 0.326528 0.648841 1.6580765988230895e-38
19.978042 10.656338 95.425717 0.679049 0.343363 0.648841 1.6580765988230895e-38
20.043010 11.052267 95.320317 0.670384 0.359988 0.648841 1.6580765988230895e-38
19.248791 11.199363 95.145160 0.661311 0.376396 0.648841 1.6580765988230895e-38
20.038573 11.687081 95.194473 0.651837 0.392574 0.648841 1.6580765988230895e-38
18.959850 12.267775 94.901065 0.641967 0.408515 0.648841 1.6580765988230895e-38
19.325457 12.632578 94.900346 0.631707 0.424207 0.648841 1.6580765988230895e-38
19.047187 12.831158 95.334337 0.621064 0.439642 0.648841 1.6580765988230895e-38
17.901899 13.767076 95.577998 0.610044 0.454810 0.648841 1.6580765988230895e-38
17.811031 13.773131 94.913130 0.598653 0.469702 0.648841 1.6580765988230895e-38
17.635364 15.144790 95.578120 0.586899 0.484309 0.648841 1.6580765988230895e-38
17.638881 14.675893 95.586807 0.574789 0.498621 0.648841 1.6580765988230895e-38
17.209125 15.509742 95.068266 0.562330 0.512631 0.648841 1.6580765988230895e-38
20.321689 9.277307 96.599608 0.693934 0.308959 0.650385 1.6580765988230895e-38
19.925329 9.279606 96.067725 0.686111 0.325962 0.650385 1.6580765988230895e-38
19.065026 9.849528 96.772347 0.677872 0.342767 0.650385 1.6580765988230895e-38
19.178180 10.508148 96.467933 0.669221 0.359364 0.650385 1.6580765988230895e-38
19.059507 11.027305 96.894101 0.660164 0.375743 0.650385 1.6580765988230895e-38
18.782053 11.841915 96.424916 0.650707 0.391894 0.650385 1.6580765988230895e-38
18.810465 11.892068 95.945667 0.640854 0.407807 0.650385 1.6580765988230895e-38
18.543170 11.891962 96.420190 0.630612 0.423472 0.650385 1.6580765988230895e-38
18.075750 12.386772 96.473523 0.619987 0.438880 0.650385 1.6580765988230895e-38
17.694880 12.798527 96.424093 0.608986 0.454022 0.650385 1.6580765988230895e-38
17.064975 13.761518 96.965341 0.597615 0.468888 0.650385 1.6580765988230895e-38
16.503855 13.914607 96.337608 0.585882 0.483469 0.650385 1.6580765988230895e-38
16.495821 14.831835 96.608793 0.573792 0.497757 0.650385 1.6580765988230895e-38
15.960236 14.293186 96.794573 0.561355 0.511743 0.650385 1.6580765988230895e-38
15.624236 14.863782 96.586044 0.548576 0.525418 0.650385 1.6580765988230895e-38
18.733232 7.812718 97.835410 0.712283 0.296323 0.636275 1.6580765988230895e-38
19.167614 8.517732 97.850031 0.704766 0.313782 0.636275 1.6580765988230895e-38
18.820567 8.823422 98.134168 0.696821 0.331050 0.636275 1.6580765988230895e-38
19.101302 9.362531 97.379380 0.688454 0.348118 0.636275 1.6580765988230895e-38
18.238746 9.857899 97.068964 0.679668 0.364974 0.636275 1.6580765988230895e-38
18.462976 10.088467 97.483925 0.670470 0.381608 0.636275 1.6580765988230895e-38
17.700812 10.579996 97.748963 0.660864 0.398011 0.636275 1.6580765988230895e-38
17.770014 11.539843 97.969120 0.650858 0.414172 0.636275 1.6580765988230895e-38
16.970077 11.553052 97.763360 0.640456 0.430082 0.636275 1.6580765988230895e-38
17.054392 12.154097 97.755297 0.629665 0.445731 0.636275 1.6580765988230895e-38
16.635323 12.694796 97.692122 0.618492 0.461109 0.636275 1.6580765988230895e-38
16.637240 13.072330 98.167780 0.606944 0.476207 0.636275 1.6580765988230895e-38
16.094464 13.660335 97.640910 0.595027 0.491016 0.636275 1.6580765988230895e-38
15.802073 13.847633 97.428758 0.582749 0.505527 0.636275 1.6580765988230895e-38
15.240275 13.800403 97.714680 0.570118 0.519731 0.636275 1.6580765988230895e-38
14.848690 14.406862 97.708577 0.557140 0.533619 0.636275 1.6580765988230895e-38
18.514388 7.016908 98.784371 0.742530 0.287658 0.604899 1.6580765988230895e-38
18.428703 7.646505 99.409623 0.735217 0.305864 0.604899 1.6580765988230895e-38
18.009247 7.775275 98.530741 0.727458 0.323885 0.604899 1.6580765988230895e-38
17.652609 8.064593 99.313349 0.719258 0.341710 0.604899 1.6580765988230895e-38
17.540771 8.703668 99.113002 0.710620 0.359327 0.604899 1.6580765988230895e-38
18.027554 9.238563 98.628858 0.701552 0.376725 0.604899 1.6580765988230895e-38
17.088086 9.235880 99.123475 0.692057 0.393895 0.604899 1.6580765988230895e-38
17.133337 10.082641 98.632944 0.682143 0.410826 0.604899 1.6580765988230895e-38
17.423544 10.260408 98.744015 0.671814 0.427508 0.604899 1.6580765988230895e-38
16.446742 11.295770 98.923868 0.661077 0.443930 0.604899 1.6580765988230895e-38
16.170191 11.622727 99.930781 0.649939 0.460083 0.604899 1.6580765988230895e-38
15.699090 11.680814 98.936783 0.638407 0.475956 0.604899 1.6580765988230895e-38
15.780172 12.978819 98.935860 0.626487 0.491540 0.604899 1.6580765988230895e-38
15.437046 11.953584 98.988457 0.614186 0.506826 0.604899 1.6580765988230895e-38
14.951312 13.279458 98.813876 0.601513 0.521804 0.604899 1.6580765988230895e-38
14.264645 13.407156 98.501350 0.588474 0.536465 0.604899 1.6580765988230895e-38
14.057188 13.711181 98.250055 0.575079 0.550801 0.604899 1.6580765988230895e-38
13.879849 14.516945 98.485783 0.561334 0.564802 0.604899 1.6580765988230895e-38
17.633543 7.129458 100.435477 0.784183 0.281778 0.552864 1.6580765988230895e-38
17.942029 6.966912 100.189250 0.777002 0.301012 0.552864 1.6580765988230895e-38
18.265543 7.630137 100.109962 0.769350 0.320064 0.552864 1.6580765988230895e-38
17.198406 7.760155 100.043938 0.761231 0.338922 0.552864 1.6580765988230895e-38
16.980931 7.661041 99.487566 0.752650 0.357574 0.552864 1.6580765988230895e-38
17.473128 8.383540 100.114985 0.743612 0.376009 0.552864 1.6580765988230895e-38
16.685347 9.157519 100.438955 0.734122 0.394215 0.552864 1.6580765988230895e-38
16.747839 9.529043 100.125793 0.724187 0.412183 0.552864 1.6580765988230895e-38
16.582974 9.705187 100.515675 0.713812 0.429900 0.552864 1.6580765988230895e-38
15.496293 10.545423 99.938723 0.703004 0.447356 0.552864 1.6580765988230895e-38
15.268197 10.155375 100.267043 0.691769 0.464540 0.552864 1.6580765988230895e-38
16.124413 10.869960 100.172492 0.680114 0.481442 0.552864 1.6580765988230895e-38
15.395216 11.133094 100.161298 0.668046 0.498053 0.552864 1.6580765988230895e-38
14.776979 12.266202 100.228873 0.655572 0.514360 0.552864 1.6580765988230895e-38
14.813949 11.825457 99.864498 0.642701 0.530356 0.552864 1.6580765988230895e-38
14.487481 12.470760 100.515210 0.629439 0.546029 0.552864 1.6580765988230895e-38
13.712566 12.715444 99.819693 0.615795 0.561371 0.552864 1.6580765988230895e-38
13.512065 12.650094 100.120876 0.601777 0.576373 0.552864 1.6580765988230895e-38
13.726252 13.158842 99.944966 0.587394 0.591024 0.552864 1.6580765988230895e-38
17.488299 5.596664 101.384774 0.835064 0.277027 0.475315 1.6580765988230895e-38
16.801944 6.689051 101.535241 0.827985 0.297517 0.475315 1.6580765988230895e-38
16.520318 6.311166 101.397228 0.820404 0.317826 0.475315 1.6580765988230895e-38
17.177123 6.921210 101.624485 0.812324 0.337942 0.475315 1.6580765988230895e-38
16.383094 7.582979 101.833662 0.803752 0.357853 0.475315 1.6580765988230895e-38
16.647287 7.059263 101.397527 0.794691 0.377547 0.475315 1.6580765988230895e-38
15.895999 8.399667 101.464373 0.785148 0.397012 0.475315 1.6580765988230895e-38
16.519907 8.495551 101.465148 0.775128 0.416235 0.475315 1.6580765988230895e-38
15.752826 9.202621 101.151820 0.764638 0.435206 0.475315 1.6580765988230895e-38
15.263539 9.204310 101.618728 0.753684 0.453913 0.475315 1.6580765988230895e-38
15.639647 9.725992 101.620763 0.742272 0.472344 0.475315 1.6580765988230895e-38
15.235338 10.111324 101.418912 0.730409 0.490488 0.475315 1.6580765988230895e-38
15.057589 11.071796 101.739704 0.718103 0.508334 0.475315 1.6580765988230895e-38
14.926566 11.471001 101.233876 0.705361 0.525872 0.475315 1.6580765988230895e-38
14.504175 11.651717 101.725058 0.692191 0.543091 0.475315 1.6580765988230895e-38
13.833376 11.324550 101.933214 0.678600 0.559980 0.475315 1.6580765988230895e-38
13.848653 11.997000 101.449147 0.664598 0.576529 0.475315 1.6580765988230895e-38
13.879486 12.532074 101.387486 0.650192 0.592728 0.475315 1.6580765988230895e-38
13.394255 12.620375 101.704851 0.635391 0.608567 0.475315 1.6580765988230895e-38
13.214090 13.257277 100.925575 0.620205 0.624037 0.475315 1.6580765988230895e-38
16.520573 5.644742 102.635141 0.889729 0.271019 0.367330 1.6580765988230895e-38
16.265958 5.813405 102.373112 0.882781 0.292857 0.367330 1.6580765988230895e-38
16.724628 6.389700 102.615282 0.875298 0.314518 0.367330 1.6580765988230895e-38
16.747416 6.573580 103.152397 0.867284 0.335987 0.367330 1.6580765988230895e-38
16.413134 6.596960 102.055517 0.858742 0.357253 0.367330 1.6580765988230895e-38
15.829594 7.002915 102.978212 0.849680 0.378302 0.367330 1.6580765988230895e-38
16.250338 7.218459 103.047288 0.840102 0.399121 0.367330 1.6580765988230895e-38
15.463300 7.686360 102.265333 0.830013 0.419698 0.367330 1.6580765988230895e-38
15.596352 8.144946 103.074318 0.819421 0.440020 0.367330 1.6580765988230895e-38
15.012884 8.919546 102.316713 0.808331 0.460075 0.367330 1.6580765988230895e-38
15.375903 9.108971 102.768302 0.796751 0.479850 0.367330 1.6580765988230895e-38
14.730684 9.317758 102.829444 0.784687 0.499335 0.367330 1.6580765988230895e-38
15.143624 9.490088 102.578222 0.772146 0.518516 0.367330 1.6580765988230895e-38
14.171289 9.708216 102.223109 0.759137 0.537382 0.367330 1.6580765988230895e-38
13.880597 10.393551 103.105240 0.745667 0.555922 0.367330 1.6580765988230895e-38
14.133869 10.610412 102.912264 0.731744 0.574125 0.367330 1.6580765988230895e-38
13.325594 11.167805 102.777547 0.717377 0.591979 0.367330 1.6580765988230895e-38
13.918486 11.605613 102.237011 0.702574 0.609473 0.367330 1.6580765988230895e-38
13.220765 12.189950 102.946989 0.687345 0.626598 0.367330 1.6580765988230895e-38
12.403369 12.202720 102.675036 0.671699 0.643342 0.367330 1.6580765988230895e-38
17.482287 4.525335 103.900920 0.938253 0.260719 0.227393 1.6580765988230895e-38
16.174959 5.031145 103.973369 0.931544 0.283756 0.227393 1.6580765988230895e-38
15.614024 5.598638 104.250406 0.924271 0.306621 0.227393 1.6580765988230895e-38
15.920208 5.688216 104.171987 0.916436 0.329300 0.227393 1.6580765988230895e-38
15.757605 6.435501 104.003347 0.908044 0.351778 0.227393 1.6580765988230895e-38
16.578904 6.567274 103.757383 0.899102 0.374043 0.227393 1.6580765988230895e-38
15.785009 7.029630 104.407110 0.889613 0.396081 0.227393 1.6580765988230895e-38
16.007601 7.161012 103.859860 0.879585 0.417879 0.227393 1.6580765988230895e-38
15.138842 7.498832 102.939303 0.869023 0.439423 0.227393 1.6580765988230895e-38
15.658022 7.935016 103.783693 0.857932 0.460700 0.227393 1.6580765988230895e-38
15.777367 8.314878 103.862603 0.846322 0.481697 0.227393 1.6580765988230895e-38
14.812339 8.974020 103.731924 0.834197 0.502402 0.227393 1.6580765988230895e-38
14.846109 9.281041 103.951225 0.821566 0.522802 0.227393 1.6580765988230895e-38
14.075123 9.548353 104.209939 0.808436 0.542885 0.227393 1.6580765988230895e-38
14.330101 9.807642 103.685324 0.794815 0.562638 0.227393 1.6580765988230895e-38
14.051189 10.369581 104.180578 0.780712 0.582049 0.227393 1.6580765988230895e-38
13.239520 10.609319 104.181324 0.766135 0.601107 0.227393 1.6580765988230895e-38
13.050906 11.512065 104.406594 0.751092 0.619801 0.227393 1.6580765988230895e-38
12.929681 11.210351 104.013878 0.735594 0.638117 0.227393 1.6580765988230895e-38
12.760237 11.950389 103.653276 0.719649 0.656047 0.227393 1.6580765988230895e-38
12.158871 11.976910 104.066008 0.703267 0.673578 0.227393 1.6580765988230895e-38
16.233540 4.031133 105.545426 0.961614 0.267211 0.062422 1.6580765988230895e-38
16.067141 4.876137 104.619699 0.954739 0.290821 0.062422 1.6580765988230895e-38
15.987981 5.658952 105.433923 0.947284 0.314256 0.062422 1.6580765988230895e-38
16.019210 5.565956 105.162386 0.939254 0.337499 0.062422 1.6580765988230895e-38
16.016724 5.697050 105.229820 0.930654 0.360537 0.062422 1.6580765988230895e-38
15.938729 6.517066 105.148796 0.921489 0.383357 0.062422 1.6580765988230895e-38
15.325086 7.009344 105.637114 0.911764 0.405943 0.062422 1.6580765988230895e-38
15.789682 7.128347 105.042275 0.901486 0.428284 0.062422 1.6580765988230895e-38
15.592906 7.855936 105.327097 0.890660 0.450364 0.062422 1.6580765988230895e-38
14.447009 8.323627 105.070498 0.879294 0.472171 0.062422 1.6580765988230895e-38
14.856666 8.204409 105.649518 0.867394 0.493691 0.062422 1.6580765988230895e-38
14.282300 9.363548 105.163238 0.854968 0.514912 0.062422 1.6580765988230895e-38
14.303888 8.869294 104.997820 0.842022 0.535820 0.062422 1.6580765988230895e-38
14.063703 9.525522 105.316480 0.828565 0.556402 0.062422 1.6580765988230895e-38
13.824141 9.991805 105.509470 0.814605 0.576647 0.062422 1.6580765988230895e-38
13.957930 10.357365 105.304733 0.800151 0.596542 0.062422 1.6580765988230895e-38
13.067545 10.565010 104.829219 0.785211 0.616074 0.062422 1.6580765988230895e-38
13.427908 10.915505 105.493548 0.769794 0.635233 0.062422 1.6580765988230895e-38
13.204619 11.281302 104.951739 0.753910 0.654006 0.062422 1.6580765988230895e-38
11.900685 11.625060 105.104214 0.737568 0.672382 0.062422 1.6580765988230895e-38
12.527336 11.977994 105.334158 0.720778 0.690350 0.062422 1.6580765988230895e-38
15.978347 5.227429 106.502599 0.953926 0.290574 -0.074785 1.6580765988230895e-38
15.873218 5.809566 106.029899 0.946477 0.313988 -0.074785 1.6580765988230895e-38
16.042054 6.008887 106.612052 0.938454 0.337211 -0.074785 1.6580765988230895e-38
15.692282 6.028173 106.105031 0.929861 0.360230 -0.074785 1.6580765988230895e-38
15.789031 6.787256 105.818946 0.920704 0.383030 -0.074785 1.6580765988230895e-38
15.724224 6.779048 106.363857 0.910987 0.405598 -0.074785 1.6580765988230895e-38
15.062637 7.122185 106.989449 0.900718 0.427919 -0.074785 1.6580765988230895e-38
15.095876 7.681313 106.117296 0.889902 0.449980 -0.074785 1.6580765988230895e-38
15.778284 8.196442 106.385302 0.878545 0.471769 -0.074785 1.6580765988230895e-38
15.076488 8.530365 106.340121 0.866655 0.493271 -0.074785 1.6580765988230895e-38
14.549857 8.324188 106.282086 0.854239 0.514473 -0.074785 1.6580765988230895e-38
14.215855 9.239028 106.328232 0.841305 0.535363 -0.074785 1.6580765988230895e-38
14.343576 9.523830 106.139382 0.827859 0.555928 -0.074785 1.6580765988230895e-38
14.346264 9.723366 106.558025 0.813911 0.576156 -0.074785 1.6580765988230895e-38
13.259680 10.409858 105.900974 0.799469 0.596034 -0.074785 1.6580765988230895e-38
13.979208 10.717517 106.326496 0.784542 0.615550 -0.074785 1.6580765988230895e-38
13.306439 10.458789 106.331065 0.769138 0.634692 -0.074785 1.6580765988230895e-38
13.087474 11.331243 106.389429 0.753267 0.653449 -0.074785 1.6580765988230895e-38
12.679815 11.797076 106.608658 0.736939 0.671809 -0.074785 1.6580765988230895e-38
16.136372 5.253242 107.861630 0.932982 0.309511 -0.183708 1.6580765988230895e-38
16.264034 5.688010 107.355668 0.925073 0.332403 -0.183708 1.6580765988230895e-38
15.581368 5.561784 108.067814 0.916602 0.355094 -0.183708 1.6580765988230895e-38
15.808903 6.337202 107.854322 0.907576 0.377569 -0.183708 1.6580765988230895e-38
15.472570 6.765003 107.985771 0.897998 0.399814 -0.183708 1.6580765988230895e-38
15.751756 7.432707 107.462598 0.887875 0.421817 -0.183708 1.6580765988230895e-38
15.412891 7.932269 107.706283 0.877213 0.443564 -0.183708 1.6580765988230895e-38
15.511337 7.833380 107.551437 0.866018 0.465042 -0.183708 1.6580765988230895e-38
15.109103 8.332689 107.914717 0.854298 0.486237 -0.183708 1.6580765988230895e-38
15.130786 8.887841 107.743711 0.842059 0.507137 -0.183708 1.6580765988230895e-38
14.442331 9.142412 108.013866 0.829309 0.527730 -0.183708 1.6580765988230895e-38
14.022290 9.832797 107.481002 0.816055 0.548001 -0.183708 1.6580765988230895e-38
13.779005 10.235914 107.837787 0.802306 0.567941 -0.183708 1.6580765988230895e-38
13.587673 10.225745 107.591511 0.788070 0.587535 -0.183708 1.6580765988230895e-38
13.596832 10.465877 108.149833 0.773355 0.606773 -0.183708 1.6580765988230895e-38
12.928126 10.487936 107.593744 0.758171 0.625642 -0.183708 1.6580765988230895e-38
12.390857 11.033094 107.438999 0.742527 0.644132 -0.183708 1.6580765988230895e-38
12.710140 11.523471 107.699669 0.726432 0.662230 -0.183708 1.6580765988230895e-38
16.183125 6.014670 109.039389 0.904991 0.325187 -0.274309 1.6580765988230895e-38
16.400744 6.230497 108.428311 0.896704 0.347385 -0.274309 1.6580765988230895e-38
16.480653 6.293424 108.465218 0.887873 0.369372 -0.274309 1.6580765988230895e-38
16.149159 7.001667 108.909078 0.878503 0.391135 -0.274309 1.6580765988230895e-38
15.409813 7.591306 109.116843 0.868600 0.412660 -0.274309 1.6580765988230895e-38
15.136666 7.966367 109.136672 0.858170 0.433935 -0.274309 1.6580765988230895e-38
15.005703 8.316219 108.881414 0.847218 0.454946 -0.274309 1.6580765988230895e-38
15.304412 8.568083 108.429008 0.835752 0.475682 -0.274309 1.6580765988230895e-38
14.860492 8.854937 108.845628 0.823779 0.496128 -0.274309 1.6580765988230895e-38
15.114384 8.942035 109.154177 0.811305 0.516273 -0.274309 1.6580765988230895e-38
15.047530 10.260677 109.403167 0.798339 0.536105 -0.274309 1.6580765988230895e-38
14.330280 10.124948 108.323509 0.784889 0.555611 -0.274309 1.6580765988230895e-38
13.954013 10.791645 108.439655 0.770962 0.574780 -0.274309 1.6580765988230895e-38
13.499463 10.826952 108.369737 0.756567 0.593600 -0.274309 1.6580765988230895e-38
14.034385 11.304868 108.968947 0.741712 0.612060 -0.274309 1.6580765988230895e-38
13.451799 11.357042 108.949972 0.726407 0.630148 -0.274309 1.6580765988230895e-38
12.629648 11.085650 108.856242 0.710662 0.647854 -0.274309 1.6580765988230895e-38
16.524805 6.247435 110.291334 0.884621 0.317868 -0.341182 1.6580765988230895e-38
16.270194 6.803613 109.988603 0.876521 0.339566 -0.341182 1.6580765988230895e-38
16.133000 6.706894 109.696461 0.867889 0.361058 -0.341182 1.6580765988230895e-38
16.125691 7.133033 110.257855 0.858730 0.382331 -0.341182 1.6580765988230895e-38
16.402881 7.995873 110.338947 0.849050 0.403372 -0.341182 1.6580765988230895e-38
15.394036 7.639279 110.432457 0.838854 0.424168 -0.341182 1.6580765988230895e-38
15.621456 8.422058 110.292866 0.828149 0.444707 -0.341182 1.6580765988230895e-38
15.935117 8.990398 109.845129 0.816941 0.464975 -0.341182 1.6580765988230895e-38
14.959137 8.908621 110.470459 0.805238 0.484961 -0.341182 1.6580765988230895e-38
15.351345 9.618338 109.675525 0.793045 0.504653 -0.341182 1.6580765988230895e-38
15.119555 10.030266 109.873105 0.780371 0.524039 -0.341182 1.6580765988230895e-38
14.585484 10.488461 109.969427 0.767223 0.543106 -0.341182 1.6580765988230895e-38
14.031793 10.749632 110.178696 0.753609 0.561843 -0.341182 1.6580765988230895e-38
13.506750 11.021492 109.850342 0.739538 0.580240 -0.341182 1.6580765988230895e-38
13.941507 10.875464 109.720966 0.725018 0.598284 -0.341182 1.6580765988230895e-38
12.810800 11.847496 109.653443 0.710058 0.615965 -0.341182 1.6580765988230895e-38
12.822986 12.025055 110.055286 0.694666 0.633272 -0.341182 1.6580765988230895e-38
17.528904 7.120203 111.611656 0.861438 0.333723 -0.382823 1.6580765988230895e-38
16.457383 7.494678 111.520432 0.852955 0.354845 -0.382823 1.6580765988230895e-38
17.114465 7.382885 111.336476 0.843953 0.375752 -0.382823 1.6580765988230895e-38
16.880998 8.488023 111.398289 0.834440 0.396431 -0.382823 1.6580765988230895e-38
16.022338 8.470075 111.284265 0.824419 0.416869 -0.382823 1.6580765988230895e-38
15.870771 8.652926 111.483335 0.813898 0.437054 -0.382823 1.6580765988230895e-38
16.284261 8.943788 111.208169 0.802883 0.456974 -0.382823 1.6580765988230895e-38
15.709164 10.006157 111.742862 0.791381 0.476616 -0.382823 1.6580765988230895e-38
15.670701 10.022322 111.245732 0.779398 0.495969 -0.382823 1.6580765988230895e-38
15.485262 9.945057 111.483956 0.766942 0.515021 -0.382823 1.6580765988230895e-38
14.387025 10.123742 110.759944 0.754021 0.533760 -0.382823 1.6580765988230895e-38
15.295064 10.934657 110.934437 0.740641 0.552175 -0.382823 1.6580765988230895e-38
15.186675 11.109183 111.497993 0.726812 0.570255 -0.382823 1.6580765988230895e-38
13.936647 11.932566 111.335728 0.712542 0.587989 -0.382823 1.6580765988230895e-38
13.655174 11.639317 111.127406 0.697839 0.605366 -0.382823 1.6580765988230895e-38
17.166948 7.498188 112.711652 0.846400 0.352119 -0.399523 1.6580765988230895e-38
17.790637 7.819296 112.045490 0.837468 0.372865 -0.399523 1.6580765988230895e-38
16.614288 8.046304 112.820010 0.828027 0.393385 -0.399523 1.6580765988230895e-38
16.965206 8.344769 112.072515 0.818084 0.413666 -0.399523 1.6580765988230895e-38
17.094319 9.369142 112.155139 0.807644 0.433696 -0.399523 1.6580765988230895e-38
16.627620 9.426992 112.782577 0.796714 0.453462 -0.399523 1.6580765988230895e-38
16.648307 10.179904 112.729227 0.785300 0.472954 -0.399523 1.6580765988230895e-38
15.874605 10.058493 112.511691 0.773409 0.492158 -0.399523 1.6580765988230895e-38
16.511846 10.551716 112.811246 0.761049 0.511063 -0.399523 1.6580765988230895e-38
15.553280 10.624787 112.720648 0.748226 0.529659 -0.399523 1.6580765988230895e-38
14.956020 11.014436 112.755587 0.734950 0.547932 -0.399523 1.6580765988230895e-38
14.492358 11.931593 112.748380 0.721227 0.565873 -0.399523 1.6580765988230895e-38
14.959226 12.175185 112.290640 0.707067 0.583471 -0.399523 1.6580765988230895e-38
14.613167 12.736495 112.845358 0.692477 0.600714 -0.399523 1.6580765988230895e-38
18.118188 8.088523 114.440792 0.840555 0.374239 -0.391678 1.6580765988230895e-38
17.339726 8.123176 113.929438 0.831080 0.394835 -0.391678 1.6580765988230895e-38
17.730710 9.203400 113.203823 0.821100 0.415191 -0.391678 1.6580765988230895e-38
17.159149 9.482226 114.091820 0.810621 0.435295 -0.391678 1.6580765988230895e-38
17.063700 9.590060 112.903848 0.799651 0.455134 -0.391678 1.6580765988230895e-38
17.269087 10.212561 113.549903 0.788195 0.474697 -0.391678 1.6580765988230895e-38
16.302907 10.514353 113.956990 0.776260 0.493972 -0.391678 1.6580765988230895e-38
15.721034 10.539772 113.964513 0.763854 0.512947 -0.391678 1.6580765988230895e-38
15.692959 10.697776 113.577007 0.750985 0.531611 -0.391678 1.6580765988230895e-38
15.580852 11.127153 114.304914 0.737659 0.549952 -0.391678 1.6580765988230895e-38
15.649997 12.274225 113.841686 0.723886 0.567959 -0.391678 1.6580765988230895e-38
14.622561 12.120669 114.211366 0.709673 0.585621 -0.391678 1.6580765988230895e-38
14.445814 12.728298 113.727562 0.695029 0.602928 -0.391678 1.6580765988230895e-38
18.293976 7.854467 114.879184 0.852618 0.379610 -0.359081 1.6580765988230895e-38
18.282878 8.486537 114.857687 0.843006 0.400501 -0.359081 1.6580765988230895e-38
17.502089 8.784759 114.889689 0.832883 0.421149 -0.359081 1.6580765988230895e-38
17.827765 9.425480 115.412803 0.822254 0.441541 -0.359081 1.6580765988230895e-38
16.982096 10.252384 115.006652 0.811126 0.461665 -0.359081 1.6580765988230895e-38
17.016446 10.217891 115.729425 0.799506 0.481509 -0.359081 1.6580765988230895e-38
16.682568 11.328187 115.310593 0.787400 0.501061 -0.359081 1.6580765988230895e-38
16.225133 10.829738 115.109153 0.774816 0.520308 -0.359081 1.6580765988230895e-38
16.308870 11.403268 114.890976 0.761762 0.539240 -0.359081 1.6580765988230895e-38
16.453543 11.966484 115.192626 0.748245 0.557844 -0.359081 1.6580765988230895e-38
15.725559 12.323623 115.697898 0.734274 0.576110 -0.359081 1.6580765988230895e-38
15.554228 13.482540 115.285054 0.719857 0.594025 -0.359081 1.6580765988230895e-38
18.087519 9.023319 116.921008 0.861285 0.409185 -0.301258 1.6580765988230895e-38
18.620777 8.989388 116.190209 0.850942 0.430280 -0.301258 1.6580765988230895e-38
17.434769 9.470397 116.126760 0.840083 0.451115 -0.301258 1.6580765988230895e-38
17.848810 9.739944 116.310317 0.828713 0.471675 -0.301258 1.6580765988230895e-38
17.520307 10.374361 116.540164 0.816841 0.491950 -0.301258 1.6580765988230895e-38
17.057861 11.038685 115.898950 0.804473 0.511925 -0.301258 1.6580765988230895e-38
16.685146 11.649417 115.787356 0.791616 0.531590 -0.301258 1.6580765988230895e-38
16.859439 11.676473 115.679092 0.778278 0.550932 -0.301258 1.6580765988230895e-38
16.205053 12.401206 116.980723 0.764469 0.569940 -0.301258 1.6580765988230895e-38
16.593124 12.300642 116.528400 0.750195 0.588601 -0.301258 1.6580765988230895e-38
15.584286 12.787564 116.590450 0.735465 0.606905 -0.301258 1.6580765988230895e-38
18.575246 9.828415 117.890950 0.870773 0.440308 -0.218821 1.6580765988230895e-38
18.119810 9.885362 117.630160 0.859661 0.461628 -0.218821 1.6580765988230895e-38
18.070216 9.656296 117.431636 0.848027 0.482668 -0.218821 1.6580765988230895e-38
17.982849 11.247269 117.645092 0.835877 0.503415 -0.218821 1.6580765988230895e-38
17.804970 11.386372 117.411797 0.823221 0.523856 -0.218821 1.6580765988230895e-38
16.797103 11.888250 118.081509 0.810064 0.543979 -0.218821 1.6580765988230895e-38
16.781352 12.326416 117.570893 0.796416 0.563771 -0.218821 1.6580765988230895e-38
16.194078 12.395941 117.355274 0.782285 0.583222 -0.218821 1.6580765988230895e-38
16.430755 12.907123 117.332257 0.767678 0.602318 -0.218821 1.6580765988230895e-38
15.585520 13.047526 117.990710 0.752606 0.621049 -0.218821 1.6580765988230895e-38
18.563385 10.595947 118.495562 0.875110 0.469924 -0.115560 1.6580765988230895e-38
17.670545 9.994590 118.788121 0.863266 0.491342 -0.115560 1.6580765988230895e-38
18.287044 10.849279 118.614913 0.850899 0.512461 -0.115560 1.6580765988230895e-38
18.105061 11.200618 118.350757 0.838015 0.533270 -0.115560 1.6580765988230895e-38
17.673376 11.860444 118.834165 0.824622 0.553755 -0.115560 1.6580765988230895e-38
17.567507 12.060118 118.846855 0.810729 0.573903 -0.115560 1.6580765988230895e-38
16.485241 12.297429 118.620728 0.796343 0.593703 -0.115560 1.6580765988230895e-38
16.672606 12.715317 118.733917 0.781474 0.613143 -0.115560 1.6580765988230895e-38
18.525141 10.151415 120.037921 0.869089 0.494656 -0.000286 1.6580765988230895e-38
18.281555 10.861915 120.081846 0.856638 0.515918 -0.000286 1.6580765988230895e-38
18.181866 11.964405 120.040845 0.843667 0.536867 -0.000286 1.6580765988230895e-38
17.306648 11.957269 119.766953 0.830184 0.557489 -0.000286 1.6580765988230895e-38
17.534050 11.969088 119.872999 0.816197 0.577774 -0.000286 1.6580765988230895e-38
16.528182 12.297096 120.354116 0.801714 0.597707 -0.000286 1.6580765988230895e-38
16.624384 12.947055 120.615103 0.786745 0.617278 -0.000286 1.6580765988230895e-38
