# .PCD v0.7 - Point Cloud Data file format
VERSION 0.7
FIELDS x y z normal_x normal_y normal_z rgb
SIZE 4 4 4 4 4 4 4
TYPE F F F F F F F
COUNT 1 1 1 1 1 1 1
WIDTH 233
HEIGHT 1
VIEWPOINT 0 0 0 1 0 0 0
POINTS 233
DATA ascii
15.831972 26.327911 18.355482 0.367511 0.618814 -0.694266 1.7962614429870884e-38
14.988685 26.626123 18.405438 0.352153 0.627681 -0.694266 1.7962614429870884e-38
14.179428 27.586666 18.754992 0.336582 0.636166 -0.694266 1.7962614429870884e-38
13.435930 27.673390 19.113519 0.320806 0.644266 -0.694266 1.7962614429870884e-38
12.841603 28.222532 18.588358 0.304836 0.651974 -0.694266 1.7962614429870884e-38
12.767533 28.498286 18.427312 0.288680 0.659286 -0.694266 1.7962614429870884e-38
17.337345 27.355194 19.963029 0.371478 0.591781 -0.715402 1.7962614429870884e-38
16.079276 27.629559 19.466356 0.356785 0.600754 -0.715402 1.7962614429870884e-38
16.000656 27.700004 19.515218 0.341875 0.609362 -0.715402 1.7962614429870884e-38
15.239938 28.312902 19.515297 0.326759 0.617599 -0.715402 1.7962614429870884e-38
14.644872 29.148900 20.010436 0.311443 0.625463 -0.715402 1.7962614429870884e-38
13.911957 29.140462 19.732437 0.295939 0.632946 -0.715402 1.7962614429870884e-38
12.739116 29.587870 19.635445 0.280255 0.640045 -0.715402 1.7962614429870884e-38
12.071964 30.027205 20.149176 0.264401 0.646755 -0.715402 1.7962614429870884e-38
11.582299 30.677093 19.582160 0.248386 0.653073 -0.715402 1.7962614429870884e-38
18.401211 27.405338 21.271144 0.390993 0.559617 -0.730721 1.7962614429870884e-38
18.571719 28.004421 20.921430 0.377087 0.569081 -0.730721 1.7962614429870884e-38
17.515144 28.403403 21.046556 0.362951 0.578198 -0.730721 1.7962614429870884e-38
17.312076 29.048202 21.056686 0.348596 0.586965 -0.730721 1.7962614429870884e-38
16.740247 29.139998 20.597720 0.334029 0.595375 -0.730721 1.7962614429870884e-38
15.829203 29.685854 21.180007 0.319259 0.603424 -0.730721 1.7962614429870884e-38
14.571540 30.562645 21.244079 0.304295 0.611107 -0.730721 1.7962614429870884e-38
14.120189 30.104007 21.354074 0.289147 0.618418 -0.730721 1.7962614429870884e-38
13.123144 31.403843 20.846966 0.273823 0.625354 -0.730721 1.7962614429870884e-38
13.208747 30.992229 21.505152 0.258332 0.631911 -0.730721 1.7962614429870884e-38
11.703349 31.356511 21.272353 0.242685 0.638084 -0.730721 1.7962614429870884e-38
11.346408 31.965345 20.884686 0.226891 0.643869 -0.730721 1.7962614429870884e-38
10.390435 32.274683 20.819351 0.210959 0.649264 -0.730721 1.7962614429870884e-38
18.948154 28.860047 22.547491 0.384587 0.550449 -0.741012 1.7962614429870884e-38
19.180490 29.379150 22.456431 0.370908 0.559757 -0.741012 1.7962614429870884e-38
18.342833 29.929988 21.887798 0.357005 0.568725 -0.741012 1.7962614429870884e-38
17.797679 29.949515 22.020410 0.342884 0.577348 -0.741012 1.7962614429870884e-38
17.161543 30.819534 22.642364 0.328556 0.585621 -0.741012 1.7962614429870884e-38
16.532693 30.328982 21.867256 0.314028 0.593538 -0.741012 1.7962614429870884e-38
15.600728 31.220102 22.118617 0.299309 0.601094 -0.741012 1.7962614429870884e-38
15.348317 31.635784 22.430765 0.284409 0.608286 -0.741012 1.7962614429870884e-38
14.289961 31.974981 23.045360 0.269336 0.615109 -0.741012 1.7962614429870884e-38
12.919857 32.111738 21.985194 0.254100 0.621558 -0.741012 1.7962614429870884e-38
12.871128 32.849645 22.104796 0.238709 0.627629 -0.741012 1.7962614429870884e-38
11.336000 33.320150 22.376548 0.223173 0.633320 -0.741012 1.7962614429870884e-38
11.204081 33.162325 22.421502 0.207502 0.638626 -0.741012 1.7962614429870884e-38
10.050272 33.248680 22.224798 0.191705 0.643545 -0.741012 1.7962614429870884e-38
8.778113 33.819390 22.496416 0.175792 0.648072 -0.741012 1.7962614429870884e-38
20.718898 29.498288 23.445433 0.380894 0.545164 -0.746804 1.7962614429870884e-38
19.996736 30.785163 23.427338 0.367347 0.554383 -0.746804 1.7962614429870884e-38
18.643768 31.134769 23.639932 0.353577 0.563265 -0.746804 1.7962614429870884e-38
18.479522 31.050799 23.221077 0.339592 0.571805 -0.746804 1.7962614429870884e-38
18.326374 31.644308 22.983829 0.325402 0.579998 -0.746804 1.7962614429870884e-38
17.058643 32.418196 23.552085 0.311013 0.587839 -0.746804 1.7962614429870884e-38
15.894909 32.167150 23.229959 0.296436 0.595323 -0.746804 1.7962614429870884e-38
15.817135 32.831393 23.001537 0.281679 0.602446 -0.746804 1.7962614429870884e-38
14.661804 33.263678 23.370486 0.266750 0.609203 -0.746804 1.7962614429870884e-38
13.417536 33.250504 23.831145 0.251660 0.615590 -0.746804 1.7962614429870884e-38
12.966675 34.041192 23.578582 0.236417 0.621604 -0.746804 1.7962614429870884e-38
12.151664 34.064427 23.443406 0.221031 0.627240 -0.746804 1.7962614429870884e-38
11.556450 34.915903 23.138527 0.205510 0.632495 -0.746804 1.7962614429870884e-38
10.291314 35.008954 24.069779 0.189865 0.637366 -0.746804 1.7962614429870884e-38
10.028908 34.762981 23.887668 0.174104 0.641850 -0.746804 1.7962614429870884e-38
8.646676 35.538325 23.741638 0.158237 0.645945 -0.746804 1.7962614429870884e-38
7.379423 35.591898 23.806864 0.142275 0.649648 -0.746804 1.7962614429870884e-38
21.248114 30.776477 25.095004 0.379872 0.543700 -0.748390 1.7962614429870884e-38
21.394290 31.095986 24.520624 0.366361 0.552894 -0.748390 1.7962614429870884e-38
20.136911 31.723578 24.514499 0.352628 0.561753 -0.748390 1.7962614429870884e-38
19.303986 32.845350 24.349423 0.338681 0.570270 -0.748390 1.7962614429870884e-38
18.876534 32.672059 24.846006 0.324528 0.578441 -0.748390 1.7962614429870884e-38
18.089491 33.386112 24.653021 0.310178 0.586261 -0.748390 1.7962614429870884e-38
17.002199 33.660381 24.898673 0.295640 0.593725 -0.748390 1.7962614429870884e-38
15.889660 34.374026 24.323999 0.280922 0.600829 -0.748390 1.7962614429870884e-38
14.801643 34.075639 24.725339 0.266034 0.607568 -0.748390 1.7962614429870884e-38
13.792302 34.652462 24.410015 0.250985 0.613938 -0.748390 1.7962614429870884e-38
13.831879 34.903338 24.356304 0.235783 0.619935 -0.748390 1.7962614429870884e-38
12.591162 36.025749 24.707448 0.220437 0.625556 -0.748390 1.7962614429870884e-38
11.626130 36.204527 25.005737 0.204958 0.630797 -0.748390 1.7962614429870884e-38
10.879391 35.918449 24.879055 0.189355 0.635655 -0.748390 1.7962614429870884e-38
9.451024 36.159989 25.171707 0.173636 0.640127 -0.748390 1.7962614429870884e-38
9.351365 36.710211 24.163462 0.157813 0.644211 -0.748390 1.7962614429870884e-38
7.694368 36.584791 24.690758 0.141893 0.647903 -0.748390 1.7962614429870884e-38
6.772888 36.902071 25.272457 0.125887 0.651203 -0.748390 1.7962614429870884e-38
6.355099 37.206498 24.437001 0.109805 0.654107 -0.748390 1.7962614429870884e-38
22.284362 32.447299 25.932481 0.381506 0.546039 -0.745851 1.7962614429870884e-38
21.753650 32.025755 25.873854 0.367937 0.555273 -0.745851 1.7962614429870884e-38
20.508743 33.818520 25.779342 0.354145 0.564169 -0.745851 1.7962614429870884e-38
19.963427 33.615339 25.502538 0.340138 0.572723 -0.745851 1.7962614429870884e-38
18.950319 34.179910 26.005098 0.325924 0.580930 -0.745851 1.7962614429870884e-38
17.573092 34.348820 26.285628 0.311513 0.588783 -0.745851 1.7962614429870884e-38
17.583681 35.323808 25.683687 0.296912 0.596279 -0.745851 1.7962614429870884e-38
16.924923 35.363334 26.457048 0.282131 0.603414 -0.745851 1.7962614429870884e-38
15.665024 35.159194 26.234158 0.267179 0.610181 -0.745851 1.7962614429870884e-38
14.644858 36.035630 25.543453 0.252064 0.616579 -0.745851 1.7962614429870884e-38
14.369479 36.345286 26.451892 0.236797 0.622602 -0.745851 1.7962614429870884e-38
12.849925 36.554250 26.375240 0.221386 0.628247 -0.745851 1.7962614429870884e-38
12.045897 37.122099 25.594894 0.205840 0.633511 -0.745851 1.7962614429870884e-38
11.011884 37.555827 25.589627 0.190170 0.638390 -0.745851 1.7962614429870884e-38
10.061949 37.564410 25.999314 0.174383 0.642881 -0.745851 1.7962614429870884e-38
9.735841 37.841003 25.772231 0.158492 0.646982 -0.745851 1.7962614429870884e-38
9.178541 38.018450 25.922184 0.142504 0.650691 -0.745851 1.7962614429870884e-38
7.304860 38.259632 26.002708 0.126429 0.654004 -0.745851 1.7962614429870884e-38
6.741538 38.634838 26.302510 0.110278 0.656921 -0.745851 1.7962614429870884e-38
5.827667 38.723805 26.092275 0.094059 0.659438 -0.745851 1.7962614429870884e-38
4.892891 38.452003 26.728845 0.077784 0.661555 -0.745851 1.7962614429870884e-38
23.288531 33.067728 26.979719 0.385818 0.552211 -0.739059 1.7962614429870884e-38
22.247983 34.161011 27.356678 0.372095 0.561548 -0.739059 1.7962614429870884e-38
21.105782 34.567064 26.949041 0.358147 0.570545 -0.739059 1.7962614429870884e-38
20.865372 34.923525 27.401388 0.343982 0.579196 -0.739059 1.7962614429870884e-38
20.335717 35.007007 27.399733 0.329608 0.587495 -0.739059 1.7962614429870884e-38
19.283025 35.539218 26.992769 0.315033 0.595438 -0.739059 1.7962614429870884e-38
17.932903 36.284569 26.793352 0.300267 0.603018 -0.739059 1.7962614429870884e-38
17.287451 36.197592 27.604494 0.285319 0.610233 -0.739059 1.7962614429870884e-38
16.368737 37.604777 27.417130 0.270198 0.617077 -0.739059 1.7962614429870884e-38
15.205912 37.179478 27.288162 0.254913 0.623547 -0.739059 1.7962614429870884e-38
14.361710 38.140452 26.937909 0.239473 0.629638 -0.739059 1.7962614429870884e-38
14.041778 38.509633 27.155438 0.223888 0.635347 -0.739059 1.7962614429870884e-38
13.031418 38.211705 27.278172 0.208166 0.640670 -0.739059 1.7962614429870884e-38
11.158111 39.296716 26.722279 0.192319 0.645605 -0.739059 1.7962614429870884e-38
10.150894 38.824914 27.613192 0.176354 0.650147 -0.739059 1.7962614429870884e-38
9.905030 39.300838 27.522173 0.160283 0.654294 -0.739059 1.7962614429870884e-38
8.613662 39.616011 27.712013 0.144114 0.658045 -0.739059 1.7962614429870884e-38
7.598760 39.460455 27.357606 0.127858 0.661396 -0.739059 1.7962614429870884e-38
6.914630 39.900490 27.517509 0.111524 0.664345 -0.739059 1.7962614429870884e-38
5.647908 40.058405 27.328867 0.095122 0.666891 -0.739059 1.7962614429870884e-38
4.806767 40.632612 27.327362 0.078663 0.669032 -0.739059 1.7962614429870884e-38
3.638796 40.411141 27.519150 0.062156 0.670767 -0.739059 1.7962614429870884e-38
24.158247 34.056551 28.791375 0.392857 0.562285 -0.727667 1.7962614429870884e-38
23.308490 34.869265 28.278130 0.378884 0.571793 -0.727667 1.7962614429870884e-38
22.234853 35.864708 28.125418 0.364682 0.580955 -0.727667 1.7962614429870884e-38
21.084735 35.718106 28.330362 0.350258 0.589763 -0.727667 1.7962614429870884e-38
20.428837 36.708505 28.592032 0.335621 0.598214 -0.727667 1.7962614429870884e-38
19.548289 36.996407 28.640806 0.320781 0.606301 -0.727667 1.7962614429870884e-38
18.110147 37.704749 28.205684 0.305746 0.614020 -0.727667 1.7962614429870884e-38
17.554926 37.932675 28.430986 0.290525 0.621366 -0.727667 1.7962614429870884e-38
16.896641 38.297396 28.366809 0.275128 0.628336 -0.727667 1.7962614429870884e-38
16.261603 38.868346 28.544243 0.259564 0.634923 -0.727667 1.7962614429870884e-38
15.053551 38.821938 29.106040 0.243842 0.641126 -0.727667 1.7962614429870884e-38
13.553311 39.421402 28.367680 0.227972 0.646939 -0.727667 1.7962614429870884e-38
12.807659 39.581176 28.222095 0.211964 0.652359 -0.727667 1.7962614429870884e-38
12.279032 39.661932 28.748677 0.195827 0.657383 -0.727667 1.7962614429870884e-38
11.127398 40.190667 28.613390 0.179572 0.662008 -0.727667 1.7962614429870884e-38
9.889138 40.231756 28.126478 0.163207 0.666231 -0.727667 1.7962614429870884e-38
9.130778 40.975626 28.526212 0.146743 0.670050 -0.727667 1.7962614429870884e-38
7.808905 40.945157 28.355942 0.130190 0.673462 -0.727667 1.7962614429870884e-38
6.389679 41.203502 28.610345 0.113558 0.676465 -0.727667 1.7962614429870884e-38
5.917249 41.873706 28.152240 0.096858 0.679058 -0.727667 1.7962614429870884e-38
4.678261 41.515604 28.526738 0.080098 0.681238 -0.727667 1.7962614429870884e-38
3.282893 41.764064 28.528103 0.063290 0.683005 -0.727667 1.7962614429870884e-38
23.016857 35.929582 29.868384 0.388368 0.586107 -0.711090 1.7962614429870884e-38
23.255848 36.270135 29.739076 0.373810 0.595497 -0.711090 1.7962614429870884e-38
22.175325 36.656951 29.965326 0.359025 0.604526 -0.711090 1.7962614429870884e-38
21.143679 37.358327 29.733136 0.344022 0.613188 -0.711090 1.7962614429870884e-38
20.088294 38.281487 29.582584 0.328811 0.621478 -0.711090 1.7962614429870884e-38
19.254718 38.345590 29.409369 0.313399 0.629390 -0.711090 1.7962614429870884e-38
18.282900 38.723851 29.930896 0.297797 0.636920 -0.711090 1.7962614429870884e-38
17.442891 39.200687 29.754856 0.282015 0.644064 -0.711090 1.7962614429870884e-38
16.057610 39.362330 29.511554 0.266061 0.650817 -0.711090 1.7962614429870884e-38
15.286835 40.389259 29.735566 0.249946 0.657174 -0.711090 1.7962614429870884e-38
14.578353 40.303275 29.577712 0.233679 0.663133 -0.711090 1.7962614429870884e-38
13.794797 40.358442 29.555135 0.217270 0.668689 -0.711090 1.7962614429870884e-38
11.967399 41.194435 29.560387 0.200729 0.673839 -0.711090 1.7962614429870884e-38
11.449393 41.619954 29.299036 0.184067 0.678580 -0.711090 1.7962614429870884e-38
10.065356 41.808285 29.912536 0.167292 0.682909 -0.711090 1.7962614429870884e-38
9.938533 42.258800 29.386972 0.150417 0.686823 -0.711090 1.7962614429870884e-38
8.141742 42.316368 29.534904 0.133449 0.690320 -0.711090 1.7962614429870884e-38
7.267264 41.769119 29.856667 0.116401 0.693399 -0.711090 1.7962614429870884e-38
5.935234 42.580306 30.130439 0.099282 0.696056 -0.711090 1.7962614429870884e-38
4.647969 42.831848 29.928898 0.082103 0.698291 -0.711090 1.7962614429870884e-38
23.279020 38.095385 31.187867 0.370341 0.623579 -0.688474 1.7962614429870884e-38
21.516940 38.135814 31.355580 0.354865 0.632514 -0.688474 1.7962614429870884e-38
20.360614 39.225208 31.060760 0.339174 0.641065 -0.688474 1.7962614429870884e-38
19.749916 39.383249 30.882945 0.323277 0.649227 -0.688474 1.7962614429870884e-38
18.460625 40.335392 31.099299 0.307183 0.656995 -0.688474 1.7962614429870884e-38
17.745749 40.371808 31.560030 0.290903 0.664363 -0.688474 1.7962614429870884e-38
16.357303 40.503991 30.903233 0.274447 0.671329 -0.688474 1.7962614429870884e-38
15.656092 41.696840 31.121670 0.257824 0.677887 -0.688474 1.7962614429870884e-38
14.718397 41.892743 31.072485 0.241044 0.684033 -0.688474 1.7962614429870884e-38
14.307709 42.168386 30.723512 0.224118 0.689764 -0.688474 1.7962614429870884e-38
12.694992 41.630953 30.918041 0.207056 0.695076 -0.688474 1.7962614429870884e-38
11.914465 42.895642 31.017402 0.189868 0.699967 -0.688474 1.7962614429870884e-38
10.725437 43.318461 31.355405 0.172565 0.704432 -0.688474 1.7962614429870884e-38
9.602604 43.139051 30.233778 0.155157 0.708470 -0.688474 1.7962614429870884e-38
8.693772 43.608598 30.973633 0.137655 0.712078 -0.688474 1.7962614429870884e-38
7.120758 43.937355 30.850664 0.120070 0.715253 -0.688474 1.7962614429870884e-38
6.239252 43.798286 31.062791 0.102411 0.717994 -0.688474 1.7962614429870884e-38
4.823600 44.124522 30.711569 0.084691 0.720299 -0.688474 1.7962614429870884e-38
22.293122 39.977520 32.281688 0.351885 0.665089 -0.658660 1.7962614429870884e-38
19.993091 40.969621 32.327102 0.335392 0.673557 -0.658660 1.7962614429870884e-38
18.965817 41.050927 32.606499 0.318695 0.681616 -0.658660 1.7962614429870884e-38
18.610855 41.182948 32.055158 0.301805 0.689261 -0.658660 1.7962614429870884e-38
17.751877 41.993026 32.249975 0.284732 0.696487 -0.658660 1.7962614429870884e-38
16.473227 42.053937 31.913039 0.267486 0.703291 -0.658660 1.7962614429870884e-38
15.017931 43.199624 32.500878 0.250077 0.709668 -0.658660 1.7962614429870884e-38
14.271706 43.155151 32.533819 0.232517 0.715613 -0.658660 1.7962614429870884e-38
12.942202 43.702746 32.468560 0.214815 0.721125 -0.658660 1.7962614429870884e-38
12.421395 43.818506 32.086165 0.196984 0.726198 -0.658660 1.7962614429870884e-38
11.218012 44.526413 32.031936 0.179032 0.730831 -0.658660 1.7962614429870884e-38
9.408563 44.733257 31.702430 0.160972 0.735020 -0.658660 1.7962614429870884e-38
8.136921 44.512831 32.195680 0.142814 0.738763 -0.658660 1.7962614429870884e-38
7.196234 44.828598 32.244889 0.124569 0.742057 -0.658660 1.7962614429870884e-38
6.265000 45.543621 32.293877 0.106249 0.744901 -0.658660 1.7962614429870884e-38
5.638669 44.640983 31.725496 0.087865 0.747293 -0.658660 1.7962614429870884e-38
18.369974 42.749943 33.273952 0.314654 0.718604 -0.620162 1.7962614429870884e-38
17.278350 42.713550 33.596906 0.296853 0.726138 -0.620162 1.7962614429870884e-38
16.477469 43.199577 33.309545 0.278873 0.733232 -0.620162 1.7962614429870884e-38
16.089640 44.147018 33.842649 0.260724 0.739880 -0.620162 1.7962614429870884e-38
13.818906 44.102615 33.208625 0.242416 0.746079 -0.620162 1.7962614429870884e-38
13.415642 44.805899 33.499990 0.223961 0.751825 -0.620162 1.7962614429870884e-38
11.890656 44.602656 33.588233 0.205370 0.757114 -0.620162 1.7962614429870884e-38
11.260949 45.129051 33.440999 0.186654 0.761944 -0.620162 1.7962614429870884e-38
9.945788 45.425927 33.616850 0.167825 0.766312 -0.620162 1.7962614429870884e-38
8.999597 45.583178 33.387347 0.148894 0.770214 -0.620162 1.7962614429870884e-38
7.658804 45.545238 33.164153 0.129873 0.773648 -0.620162 1.7962614429870884e-38
6.717962 45.740919 33.646242 0.110772 0.776613 -0.620162 1.7962614429870884e-38
17.116817 43.715911 34.345474 0.291794 0.767203 -0.571188 1.7962614429870884e-38
15.514360 44.714866 34.401251 0.272803 0.774159 -0.571188 1.7962614429870884e-38
15.086154 45.174258 34.432294 0.253647 0.780645 -0.571188 1.7962614429870884e-38
13.814540 45.252059 34.462044 0.234337 0.786657 -0.571188 1.7962614429870884e-38
12.662095 44.953407 34.859620 0.214885 0.792192 -0.571188 1.7962614429870884e-38
11.049993 45.766344 35.226616 0.195302 0.797246 -0.571188 1.7962614429870884e-38
9.968290 46.531057 34.722949 0.175600 0.801816 -0.571188 1.7962614429870884e-38
9.100136 46.404602 34.548361 0.155792 0.805899 -0.571188 1.7962614429870884e-38
8.295765 46.966168 34.489271 0.135890 0.809492 -0.571188 1.7962614429870884e-38
6.370977 46.690608 34.933624 0.115905 0.812595 -0.571188 1.7962614429870884e-38
14.801754 45.302381 35.559413 0.265851 0.818206 -0.509767 1.7962614429870884e-38
14.132316 46.447965 36.221685 0.245612 0.824508 -0.509767 1.7962614429870884e-38
12.167508 46.143900 35.978250 0.225224 0.830308 -0.509767 1.7962614429870884e-38
11.668338 46.515746 35.702612 0.204699 0.835605 -0.509767 1.7962614429870884e-38
9.958923 47.521072 35.733802 0.184049 0.840395 -0.509767 1.7962614429870884e-38
9.146047 47.288143 36.207975 0.163288 0.844674 -0.509767 1.7962614429870884e-38
7.683705 47.824285 35.492672 0.142428 0.848441 -0.509767 1.7962614429870884e-38
7.147109 47.141153 35.844922 0.121481 0.851693 -0.509767 1.7962614429870884e-38
11.291257 47.302066 37.500850 0.214352 0.875012 -0.434059 1.7962614429870884e-38
10.070922 47.308481 37.290795 0.192729 0.880028 -0.434059 1.7962614429870884e-38
9.138399 48.061844 37.410359 0.170989 0.884509 -0.434059 1.7962614429870884e-38
8.218038 47.940192 37.498282 0.149145 0.888453 -0.434059 1.7962614429870884e-38
9.474206 48.365402 38.522657 0.178291 0.922280 -0.342947 1.7962614429870884e-38
