# .PCD v0.7 - Point Cloud Data file format
VERSION 0.7
FIELDS x y z normal_x normal_y normal_z rgb
SIZE 4 4 4 4 4 4 4
TYPE F F F F F F F
COUNT 1 1 1 1 1 1 1
WIDTH 198
HEIGHT 1
VIEWPOINT 0 0 0 1 0 0 0
POINTS 198
DATA ascii
43.402736 26.776192 65.333850 0.856638 0.515918 0.000000 1.7041734328458258e-38
43.373171 27.507028 65.607907 0.843667 0.536867 0.000000 1.7041734328458258e-38
42.641553 27.839703 65.394953 0.830184 0.557489 0.000000 1.7041734328458258e-38
45.205102 24.101348 66.952226 0.881012 0.473094 0.000000 1.7041734328458258e-38
44.608026 25.686535 66.673939 0.869089 0.494656 0.000000 1.7041734328458258e-38
44.111875 26.410158 66.251380 0.856638 0.515918 0.000000 1.7041734328458258e-38
43.492946 27.032374 66.756278 0.843667 0.536867 0.000000 1.7041734328458258e-38
42.569300 28.612827 66.818317 0.830184 0.557489 0.000000 1.7041734328458258e-38
46.410899 22.143889 67.918350 0.903247 0.429121 0.000000 1.7041734328458258e-38
45.903113 23.619558 67.614219 0.892401 0.451244 0.000000 1.7041734328458258e-38
45.416299 24.471665 68.322667 0.881012 0.473094 0.000000 1.7041734328458258e-38
44.779946 25.798709 68.024848 0.869089 0.494656 0.000000 1.7041734328458258e-38
44.210339 26.628869 68.237820 0.856638 0.515918 0.000000 1.7041734328458258e-38
43.668120 27.350820 68.106344 0.843667 0.536867 0.000000 1.7041734328458258e-38
42.972512 29.186720 67.738640 0.830184 0.557489 0.000000 1.7041734328458258e-38
47.312919 21.033096 69.810061 0.913545 0.406737 0.000000 1.7041734328458258e-38
46.760810 22.644976 69.311786 0.903247 0.429121 0.000000 1.7041734328458258e-38
46.243613 23.269900 69.200023 0.892401 0.451244 0.000000 1.7041734328458258e-38
45.906815 24.288928 69.566272 0.881012 0.473094 0.000000 1.7041734328458258e-38
45.454491 25.447573 69.640742 0.869089 0.494656 0.000000 1.7041734328458258e-38
44.691697 26.987338 69.087532 0.856638 0.515918 0.000000 1.7041734328458258e-38
43.669458 27.775573 69.905554 0.843667 0.536867 0.000000 1.7041734328458258e-38
43.003783 28.825161 68.933970 0.830184 0.557489 0.000000 1.7041734328458258e-38
47.901030 19.693588 70.381584 0.923289 0.384106 0.000000 1.7041734328458258e-38
47.485271 21.509577 70.723599 0.913545 0.406737 0.000000 1.7041734328458258e-38
47.002849 22.901097 70.505029 0.903247 0.429121 0.000000 1.7041734328458258e-38
46.863522 23.848545 70.860656 0.892401 0.451244 0.000000 1.7041734328458258e-38
45.943100 24.654213 70.517010 0.881012 0.473094 0.000000 1.7041734328458258e-38
45.481328 25.504465 70.436577 0.869089 0.494656 0.000000 1.7041734328458258e-38
45.078443 27.034723 70.801697 0.856638 0.515918 0.000000 1.7041734328458258e-38
43.537017 27.808239 70.615614 0.843667 0.536867 0.000000 1.7041734328458258e-38
43.189277 28.643434 70.743391 0.830184 0.557489 0.000000 1.7041734328458258e-38
49.357427 17.593869 72.052373 0.941089 0.338158 0.000000 1.7041734328458258e-38
49.136919 19.393440 71.770097 0.932472 0.361242 0.000000 1.7041734328458258e-38
48.525707 19.922648 71.817742 0.923289 0.384106 0.000000 1.7041734328458258e-38
47.736247 21.228652 72.299752 0.913545 0.406737 0.000000 1.7041734328458258e-38
46.811350 22.429231 71.768708 0.903247 0.429121 0.000000 1.7041734328458258e-38
46.839996 23.257996 71.662882 0.892401 0.451244 0.000000 1.7041734328458258e-38
45.872989 24.053677 72.101321 0.881012 0.473094 0.000000 1.7041734328458258e-38
44.987495 25.375376 72.036866 0.869089 0.494656 0.000000 1.7041734328458258e-38
44.677194 26.877649 71.668211 0.856638 0.515918 0.000000 1.7041734328458258e-38
44.421954 27.897209 71.931097 0.843667 0.536867 0.000000 1.7041734328458258e-38
43.052508 29.239753 72.023385 0.830184 0.557489 0.000000 1.7041734328458258e-38
50.087268 16.449360 73.198913 0.949135 0.314870 0.000000 1.7041734328458258e-38
49.524198 17.831894 72.706465 0.941089 0.338158 0.000000 1.7041734328458258e-38
48.978806 19.042125 73.649894 0.932472 0.361242 0.000000 1.7041734328458258e-38
48.370392 20.385849 72.952527 0.923289 0.384106 0.000000 1.7041734328458258e-38
47.751962 21.615203 73.557166 0.913545 0.406737 0.000000 1.7041734328458258e-38
47.500564 22.324627 73.129938 0.903247 0.429121 0.000000 1.7041734328458258e-38
46.936325 24.356006 73.212342 0.892401 0.451244 0.000000 1.7041734328458258e-38
45.974512 25.220597 73.222299 0.881012 0.473094 0.000000 1.7041734328458258e-38
45.909217 26.103712 73.292181 0.869089 0.494656 0.000000 1.7041734328458258e-38
45.107094 27.010220 73.029956 0.856638 0.515918 0.000000 1.7041734328458258e-38
44.259126 28.288794 73.013523 0.843667 0.536867 0.000000 1.7041734328458258e-38
43.491651 29.214629 72.988611 0.830184 0.557489 0.000000 1.7041734328458258e-38
50.937300 14.589189 74.145663 0.956604 0.291390 0.000000 1.7041734328458258e-38
50.333645 16.607516 74.034014 0.949135 0.314870 0.000000 1.7041734328458258e-38
49.615037 18.126378 74.869837 0.941089 0.338158 0.000000 1.7041734328458258e-38
49.488248 18.896598 74.156942 0.932472 0.361242 0.000000 1.7041734328458258e-38
48.616745 19.993448 74.180285 0.923289 0.384106 0.000000 1.7041734328458258e-38
48.088459 21.086766 74.478243 0.913545 0.406737 0.000000 1.7041734328458258e-38
47.753858 22.434940 74.271144 0.903247 0.429121 0.000000 1.7041734328458258e-38
46.766281 23.628102 74.433107 0.892401 0.451244 0.000000 1.7041734328458258e-38
46.596459 24.791929 74.320243 0.881012 0.473094 0.000000 1.7041734328458258e-38
45.804128 25.783671 74.176632 0.869089 0.494656 0.000000 1.7041734328458258e-38
45.299525 27.295827 73.719019 0.856638 0.515918 0.000000 1.7041734328458258e-38
44.535797 28.316221 73.657320 0.843667 0.536867 0.000000 1.7041734328458258e-38
43.532600 29.543510 74.642245 0.830184 0.557489 0.000000 1.7041734328458258e-38
51.361530 13.680947 75.229661 0.963493 0.267733 0.000000 1.7041734328458258e-38
50.667606 15.221137 75.371008 0.956604 0.291390 0.000000 1.7041734328458258e-38
49.966059 16.611179 75.602841 0.949135 0.314870 0.000000 1.7041734328458258e-38
49.673839 17.643166 75.325642 0.941089 0.338158 0.000000 1.7041734328458258e-38
49.709358 19.457888 75.320485 0.932472 0.361242 0.000000 1.7041734328458258e-38
49.044400 20.334462 75.849132 0.923289 0.384106 0.000000 1.7041734328458258e-38
48.433418 21.477894 75.943881 0.913545 0.406737 0.000000 1.7041734328458258e-38
47.553473 22.819443 75.873739 0.903247 0.429121 0.000000 1.7041734328458258e-38
47.456089 23.666356 75.218917 0.892401 0.451244 0.000000 1.7041734328458258e-38
46.230633 25.497105 75.124050 0.881012 0.473094 0.000000 1.7041734328458258e-38
46.235816 25.766086 76.231045 0.869089 0.494656 0.000000 1.7041734328458258e-38
44.956602 27.332704 75.827536 0.856638 0.515918 0.000000 1.7041734328458258e-38
44.464686 28.598402 75.379368 0.843667 0.536867 0.000000 1.7041734328458258e-38
44.078079 29.845565 75.335406 0.830184 0.557489 0.000000 1.7041734328458258e-38
52.533007 11.357192 76.771448 0.975512 0.219946 0.000000 1.7041734328458258e-38
51.673716 12.874356 76.511282 0.969797 0.243914 0.000000 1.7041734328458258e-38
51.384103 14.357742 76.385108 0.963493 0.267733 0.000000 1.7041734328458258e-38
50.328879 15.347388 76.499001 0.956604 0.291390 0.000000 1.7041734328458258e-38
50.651782 16.466233 76.647746 0.949135 0.314870 0.000000 1.7041734328458258e-38
49.531055 17.516374 76.470185 0.941089 0.338158 0.000000 1.7041734328458258e-38
49.509752 18.963352 76.743851 0.932472 0.361242 0.000000 1.7041734328458258e-38
48.586212 20.360603 76.639993 0.923289 0.384106 0.000000 1.7041734328458258e-38
48.144111 21.697043 76.050323 0.913545 0.406737 0.000000 1.7041734328458258e-38
47.825287 23.055057 76.033514 0.903247 0.429121 0.000000 1.7041734328458258e-38
47.655375 23.645458 76.523897 0.892401 0.451244 0.000000 1.7041734328458258e-38
47.270453 24.969025 77.185161 0.881012 0.473094 0.000000 1.7041734328458258e-38
46.122877 26.278312 76.953709 0.869089 0.494656 0.000000 1.7041734328458258e-38
45.715593 27.480546 76.562034 0.856638 0.515918 0.000000 1.7041734328458258e-38
44.397374 28.097629 77.094980 0.843667 0.536867 0.000000 1.7041734328458258e-38
44.655491 29.683793 76.168924 0.830184 0.557489 0.000000 1.7041734328458258e-38
52.017630 10.678871 77.754598 0.980635 0.195845 0.000000 1.7041734328458258e-38
52.394570 11.144539 77.767281 0.975512 0.219946 0.000000 1.7041734328458258e-38
51.960590 13.171714 77.871802 0.969797 0.243914 0.000000 1.7041734328458258e-38
51.531048 14.337411 77.491433 0.963493 0.267733 0.000000 1.7041734328458258e-38
50.967948 15.626711 78.090010 0.956604 0.291390 0.000000 1.7041734328458258e-38
50.658672 16.646591 77.537795 0.949135 0.314870 0.000000 1.7041734328458258e-38
50.474450 18.248512 78.234314 0.941089 0.338158 0.000000 1.7041734328458258e-38
49.465007 19.324778 77.730464 0.932472 0.361242 0.000000 1.7041734328458258e-38
49.312128 21.380980 78.209238 0.923289 0.384106 0.000000 1.7041734328458258e-38
48.551249 21.641550 77.829520 0.913545 0.406737 0.000000 1.7041734328458258e-38
48.265246 22.455326 78.035255 0.903247 0.429121 0.000000 1.7041734328458258e-38
47.013645 23.591960 78.538647 0.892401 0.451244 0.000000 1.7041734328458258e-38
46.932627 25.688280 77.695095 0.881012 0.473094 0.000000 1.7041734328458258e-38
45.773772 26.096501 78.744544 0.869089 0.494656 0.000000 1.7041734328458258e-38
45.316217 28.079915 78.041708 0.856638 0.515918 0.000000 1.7041734328458258e-38
45.082801 28.440931 77.667781 0.843667 0.536867 0.000000 1.7041734328458258e-38
44.496160 30.162431 77.997032 0.830184 0.557489 0.000000 1.7041734328458258e-38
52.562237 10.215221 79.813424 0.980635 0.195845 0.000000 1.7041734328458258e-38
52.334493 11.629732 79.387016 0.975512 0.219946 0.000000 1.7041734328458258e-38
51.620125 12.862477 79.302395 0.969797 0.243914 0.000000 1.7041734328458258e-38
51.692416 14.667498 78.356381 0.963493 0.267733 0.000000 1.7041734328458258e-38
51.527943 15.458073 78.824181 0.956604 0.291390 0.000000 1.7041734328458258e-38
50.365132 16.713109 79.652251 0.949135 0.314870 0.000000 1.7041734328458258e-38
50.741488 18.618602 79.141109 0.941089 0.338158 0.000000 1.7041734328458258e-38
50.020841 18.891983 78.701419 0.932472 0.361242 0.000000 1.7041734328458258e-38
49.452543 20.178630 78.918095 0.923289 0.384106 0.000000 1.7041734328458258e-38
48.987143 22.186404 79.178211 0.913545 0.406737 0.000000 1.7041734328458258e-38
48.013988 22.458141 79.211230 0.903247 0.429121 0.000000 1.7041734328458258e-38
47.651884 24.225542 79.114006 0.892401 0.451244 0.000000 1.7041734328458258e-38
47.208957 25.722496 79.491347 0.881012 0.473094 0.000000 1.7041734328458258e-38
46.701551 26.249396 79.009884 0.869089 0.494656 0.000000 1.7041734328458258e-38
46.152395 28.048204 78.793141 0.856638 0.515918 0.000000 1.7041734328458258e-38
45.686321 28.546901 79.375894 0.843667 0.536867 0.000000 1.7041734328458258e-38
45.345566 29.409481 79.326819 0.830184 0.557489 0.000000 1.7041734328458258e-38
52.362741 12.944596 80.372549 0.969797 0.243914 0.000000 1.7041734328458258e-38
52.404561 14.912569 80.397887 0.963493 0.267733 0.000000 1.7041734328458258e-38
51.541864 15.024070 80.773559 0.956604 0.291390 0.000000 1.7041734328458258e-38
51.306038 17.049772 80.231654 0.949135 0.314870 0.000000 1.7041734328458258e-38
50.669256 18.639371 80.520957 0.941089 0.338158 0.000000 1.7041734328458258e-38
50.975064 19.685434 80.136739 0.932472 0.361242 0.000000 1.7041734328458258e-38
49.568088 20.459591 80.669683 0.923289 0.384106 0.000000 1.7041734328458258e-38
49.512992 22.405412 80.312660 0.913545 0.406737 0.000000 1.7041734328458258e-38
48.753078 23.479354 80.877321 0.903247 0.429121 0.000000 1.7041734328458258e-38
47.659753 24.471946 80.054460 0.892401 0.451244 0.000000 1.7041734328458258e-38
47.235459 25.069811 80.226088 0.881012 0.473094 0.000000 1.7041734328458258e-38
46.339371 26.267744 80.140999 0.869089 0.494656 0.000000 1.7041734328458258e-38
46.195106 27.776814 79.919167 0.856638 0.515918 0.000000 1.7041734328458258e-38
46.228501 28.747550 80.013592 0.843667 0.536867 0.000000 1.7041734328458258e-38
44.855189 30.002654 80.168579 0.830184 0.557489 0.000000 1.7041734328458258e-38
51.593698 15.830880 81.243615 0.956604 0.291390 0.000000 1.7041734328458258e-38
51.140711 16.771252 81.777755 0.949135 0.314870 0.000000 1.7041734328458258e-38
50.934898 17.960794 81.797157 0.941089 0.338158 0.000000 1.7041734328458258e-38
50.362878 19.754721 81.455644 0.932472 0.361242 0.000000 1.7041734328458258e-38
50.059583 21.011539 81.670161 0.923289 0.384106 0.000000 1.7041734328458258e-38
49.985383 22.122164 82.178326 0.913545 0.406737 0.000000 1.7041734328458258e-38
49.556202 22.682189 81.994981 0.903247 0.429121 0.000000 1.7041734328458258e-38
48.368540 24.452339 81.451227 0.892401 0.451244 0.000000 1.7041734328458258e-38
47.330967 25.243838 82.316474 0.881012 0.473094 0.000000 1.7041734328458258e-38
47.100398 26.316969 81.333700 0.869089 0.494656 0.000000 1.7041734328458258e-38
45.673965 28.230760 81.663070 0.856638 0.515918 0.000000 1.7041734328458258e-38
45.733475 29.005968 81.933825 0.843667 0.536867 0.000000 1.7041734328458258e-38
51.552064 17.320329 83.300395 0.949135 0.314870 0.000000 1.7041734328458258e-38
51.237201 18.510394 82.824838 0.941089 0.338158 0.000000 1.7041734328458258e-38
50.632626 19.141551 83.056173 0.932472 0.361242 0.000000 1.7041734328458258e-38
50.199186 21.404197 82.874688 0.923289 0.384106 0.000000 1.7041734328458258e-38
49.898657 21.914884 83.395708 0.913545 0.406737 0.000000 1.7041734328458258e-38
49.417649 23.610655 82.904666 0.903247 0.429121 0.000000 1.7041734328458258e-38
48.327925 24.359526 82.594780 0.892401 0.451244 0.000000 1.7041734328458258e-38
47.917300 25.581201 83.001402 0.881012 0.473094 0.000000 1.7041734328458258e-38
47.181364 26.502902 83.204982 0.869089 0.494656 0.000000 1.7041734328458258e-38
46.484035 28.236718 82.536983 0.856638 0.515918 0.000000 1.7041734328458258e-38
45.522623 28.996394 82.959470 0.843667 0.536867 0.000000 1.7041734328458258e-38
50.575567 19.796653 83.414621 0.932472 0.361242 0.000000 1.7041734328458258e-38
50.484583 20.736742 83.800348 0.923289 0.384106 0.000000 1.7041734328458258e-38
49.838920 22.570600 84.029807 0.913545 0.406737 0.000000 1.7041734328458258e-38
49.249596 23.492289 84.195712 0.903247 0.429121 0.000000 1.7041734328458258e-38
48.272586 24.627376 84.178961 0.892401 0.451244 0.000000 1.7041734328458258e-38
47.132838 26.006816 83.672614 0.881012 0.473094 0.000000 1.7041734328458258e-38
47.341262 27.378465 84.050565 0.869089 0.494656 0.000000 1.7041734328458258e-38
46.311279 28.248129 84.544280 0.856638 0.515918 0.000000 1.7041734328458258e-38
45.586549 28.512700 84.478513 0.843667 0.536867 0.000000 1.7041734328458258e-38
49.996591 22.250274 85.755096 0.913545 0.406737 0.000000 1.7041734328458258e-38
49.400486 23.012280 85.006232 0.903247 0.429121 0.000000 1.7041734328458258e-38
48.672713 24.864260 85.143249 0.892401 0.451244 0.000000 1.7041734328458258e-38
48.317794 25.611068 85.408457 0.881012 0.473094 0.000000 1.7041734328458258e-38
47.595487 26.675964 85.479515 0.869089 0.494656 0.000000 1.7041734328458258e-38
47.275705 28.121051 85.383758 0.856638 0.515918 0.000000 1.7041734328458258e-38
46.158559 29.351763 85.368039 0.843667 0.536867 0.000000 1.7041734328458258e-38
49.224054 23.260973 86.466615 0.903247 0.429121 0.000000 1.7041734328458258e-38
49.507651 24.575858 86.485005 0.892401 0.451244 0.000000 1.7041734328458258e-38
48.334856 25.534315 86.641711 0.881012 0.473094 0.000000 1.7041734328458258e-38
47.832266 27.557143 86.992093 0.869089 0.494656 0.000000 1.7041734328458258e-38
47.061747 28.210737 86.548277 0.856638 0.515918 0.000000 1.7041734328458258e-38
46.364125 29.411972 86.570718 0.843667 0.536867 0.000000 1.7041734328458258e-38
48.679994 25.009216 87.641809 0.881012 0.473094 0.000000 1.7041734328458258e-38
47.801415 27.353851 88.126656 0.869089 0.494656 0.000000 1.7041734328458258e-38
47.034458 28.255439 88.096508 0.856638 0.515918 0.000000 1.7041734328458258e-38
46.742403 29.746596 87.789140 0.843667 0.536867 0.000000 1.7041734328458258e-38
47.030799 28.575624 89.339351 0.856638 0.515918 0.000000 1.7041734328458258e-38
46.641789 29.698415 89.384899 0.843667 0.536867 0.000000 1.7041734328458258e-38
