# .PCD v0.7 - Point Cloud Data file format
VERSION 0.7
FIELDS x y z normal_x normal_y normal_z rgb
SIZE 4 4 4 4 4 4 4
TYPE F F F F F F F
COUNT 1 1 1 1 1 1 1
WIDTH 230
HEIGHT 1
VIEWPOINT 0 0 0 1 0 0 0
POINTS 230
DATA ascii
-41.276335 -27.210926 45.458718 -0.819122 -0.535538 0.205519 1.7962614429870884e-38
-40.785986 -28.133639 45.945277 -0.805679 -0.555557 0.205519 1.7962614429870884e-38
-40.272948 -29.178266 45.899699 -0.791747 -0.575238 0.205519 1.7962614429870884e-38
-40.708160 -26.888158 46.599971 -0.806756 -0.527453 0.266341 1.7962614429870884e-38
-40.776023 -27.681098 47.309916 -0.793516 -0.547170 0.266341 1.7962614429870884e-38
-39.978065 -28.436775 46.904119 -0.779794 -0.566554 0.266341 1.7962614429870884e-38
-39.020239 -29.821645 46.611168 -0.765599 -0.585594 0.266341 1.7962614429870884e-38
-38.442154 -30.193513 46.733629 -0.750939 -0.604279 0.266341 1.7962614429870884e-38
-37.448315 -32.190845 46.730503 -0.735823 -0.622596 0.266341 1.7962614429870884e-38
-41.054469 -26.385868 48.253888 -0.792311 -0.518009 0.322349 1.7962614429870884e-38
-40.310336 -27.759801 48.687418 -0.779308 -0.537373 0.322349 1.7962614429870884e-38
-39.484179 -28.378804 48.177035 -0.765832 -0.556410 0.322349 1.7962614429870884e-38
-38.528751 -29.648667 48.512195 -0.751891 -0.575109 0.322349 1.7962614429870884e-38
-37.821560 -30.950739 48.269010 -0.737494 -0.593459 0.322349 1.7962614429870884e-38
-37.057238 -31.262970 48.623453 -0.722649 -0.611449 0.322349 1.7962614429870884e-38
-36.523151 -32.046332 48.050261 -0.707365 -0.629068 0.322349 1.7962614429870884e-38
-36.190979 -33.482421 48.606175 -0.691652 -0.646304 0.322349 1.7962614429870884e-38
-35.234693 -34.710563 47.731270 -0.675518 -0.663149 0.322349 1.7962614429870884e-38
-33.833135 -35.553549 48.412132 -0.658975 -0.679590 0.322349 1.7962614429870884e-38
-40.932580 -26.722487 49.468562 -0.776555 -0.507708 0.373087 1.7962614429870884e-38
-39.973978 -27.481327 49.072085 -0.763811 -0.526686 0.373087 1.7962614429870884e-38
-39.549568 -28.250787 49.234533 -0.750603 -0.545345 0.373087 1.7962614429870884e-38
-38.693321 -29.412198 49.205180 -0.736939 -0.563672 0.373087 1.7962614429870884e-38
-37.421540 -30.757128 49.484993 -0.722828 -0.581658 0.373087 1.7962614429870884e-38
-37.218067 -31.254150 49.335297 -0.708278 -0.599290 0.373087 1.7962614429870884e-38
-36.218181 -31.836546 49.278302 -0.693298 -0.616558 0.373087 1.7962614429870884e-38
-35.615426 -33.180074 49.926742 -0.677897 -0.633452 0.373087 1.7962614429870884e-38
-34.607733 -33.577330 49.431463 -0.662085 -0.649961 0.373087 1.7962614429870884e-38
-33.377040 -34.667052 49.650906 -0.645870 -0.666076 0.373087 1.7962614429870884e-38
-33.297303 -36.085071 49.805597 -0.629264 -0.681786 0.373087 1.7962614429870884e-38
-31.661929 -35.682330 49.038750 -0.612275 -0.697083 0.373087 1.7962614429870884e-38
-30.926794 -37.492748 49.262356 -0.594915 -0.711956 0.373087 1.7962614429870884e-38
-40.400672 -26.337067 50.591128 -0.760212 -0.497023 0.418385 1.7962614429870884e-38
-39.769412 -27.173905 50.769101 -0.747736 -0.515602 0.418385 1.7962614429870884e-38
-38.633209 -28.415455 50.438449 -0.734806 -0.533868 0.418385 1.7962614429870884e-38
-38.101889 -29.189792 50.653898 -0.721430 -0.551809 0.418385 1.7962614429870884e-38
-37.549573 -29.946285 50.438906 -0.707615 -0.569416 0.418385 1.7962614429870884e-38
-36.622483 -31.047986 50.711612 -0.693372 -0.586677 0.418385 1.7962614429870884e-38
-35.456465 -32.242410 50.004252 -0.678707 -0.603582 0.418385 1.7962614429870884e-38
-35.194778 -33.066102 49.817905 -0.663630 -0.620120 0.418385 1.7962614429870884e-38
-33.675831 -33.405583 50.921797 -0.648151 -0.636282 0.418385 1.7962614429870884e-38
-33.447830 -34.279654 50.594857 -0.632278 -0.652058 0.418385 1.7962614429870884e-38
-32.260093 -35.160695 50.710692 -0.616021 -0.667438 0.418385 1.7962614429870884e-38
-31.615177 -35.567914 50.771849 -0.599390 -0.682412 0.418385 1.7962614429870884e-38
-31.039004 -36.674967 50.868362 -0.582395 -0.696972 0.418385 1.7962614429870884e-38
-29.858144 -37.537404 50.401785 -0.565046 -0.711110 0.418385 1.7962614429870884e-38
-28.852117 -38.609287 50.646417 -0.547355 -0.724815 0.418385 1.7962614429870884e-38
-28.131012 -38.650021 51.186632 -0.529331 -0.738080 0.418385 1.7962614429870884e-38
-27.305531 -39.622587 50.628542 -0.510986 -0.750898 0.418385 1.7962614429870884e-38
-39.867896 -26.112654 52.548690 -0.743917 -0.486370 0.458292 1.7962614429870884e-38
-38.312443 -26.818733 51.913615 -0.731709 -0.504550 0.458292 1.7962614429870884e-38
-38.012510 -27.982889 51.289605 -0.719056 -0.522425 0.458292 1.7962614429870884e-38
-38.414808 -28.771245 52.223326 -0.705966 -0.539982 0.458292 1.7962614429870884e-38
-36.861834 -29.423482 52.231713 -0.692448 -0.557211 0.458292 1.7962614429870884e-38
-35.708725 -30.509885 52.041525 -0.678510 -0.574102 0.458292 1.7962614429870884e-38
-35.371549 -31.524024 51.487154 -0.664159 -0.590644 0.458292 1.7962614429870884e-38
-34.223419 -32.423278 51.826448 -0.649406 -0.606828 0.458292 1.7962614429870884e-38
-33.931014 -33.552300 51.933100 -0.634258 -0.622644 0.458292 1.7962614429870884e-38
-32.786614 -34.183677 52.270043 -0.618725 -0.638081 0.458292 1.7962614429870884e-38
-32.205080 -35.233171 52.370872 -0.602817 -0.653131 0.458292 1.7962614429870884e-38
-31.168549 -35.294562 52.224821 -0.586542 -0.667785 0.458292 1.7962614429870884e-38
-30.626493 -36.468709 52.269049 -0.569911 -0.682033 0.458292 1.7962614429870884e-38
-28.888245 -37.029693 51.770606 -0.552935 -0.695867 0.458292 1.7962614429870884e-38
-28.012389 -37.950718 52.057454 -0.535623 -0.709279 0.458292 1.7962614429870884e-38
-27.706391 -38.373133 51.675127 -0.517985 -0.722260 0.458292 1.7962614429870884e-38
-26.734678 -39.309825 52.157434 -0.500033 -0.734803 0.458292 1.7962614429870884e-38
-25.601377 -39.501605 51.711035 -0.481778 -0.746899 0.458292 1.7962614429870884e-38
-24.725366 -40.198044 52.216373 -0.463230 -0.758542 0.458292 1.7962614429870884e-38
-24.094083 -40.885585 51.714788 -0.444401 -0.769725 0.458292 1.7962614429870884e-38
-38.937056 -25.749166 52.789259 -0.728198 -0.476092 0.493015 1.7962614429870884e-38
-38.366641 -26.637303 53.191766 -0.716247 -0.493889 0.493015 1.7962614429870884e-38
-38.546751 -27.688278 53.182359 -0.703862 -0.511385 0.493015 1.7962614429870884e-38
-37.509179 -28.786896 53.207507 -0.691049 -0.528571 0.493015 1.7962614429870884e-38
-36.134260 -29.514014 53.117238 -0.677816 -0.545437 0.493015 1.7962614429870884e-38
-35.684850 -30.601757 53.551042 -0.664172 -0.561971 0.493015 1.7962614429870884e-38
-34.914818 -31.053005 53.307771 -0.650125 -0.578164 0.493015 1.7962614429870884e-38
-34.553554 -31.574802 53.511060 -0.635683 -0.594006 0.493015 1.7962614429870884e-38
-33.248327 -32.542233 53.098052 -0.620856 -0.609487 0.493015 1.7962614429870884e-38
-32.216220 -33.738050 53.186157 -0.605651 -0.624598 0.493015 1.7962614429870884e-38
-31.632034 -34.292713 53.516614 -0.590079 -0.639330 0.493015 1.7962614429870884e-38
-30.129548 -35.083187 53.336984 -0.574148 -0.653674 0.493015 1.7962614429870884e-38
-30.153844 -35.488509 53.040631 -0.557869 -0.667621 0.493015 1.7962614429870884e-38
-28.078524 -37.025424 53.840110 -0.541251 -0.681163 0.493015 1.7962614429870884e-38
-27.816023 -37.564817 53.891711 -0.524305 -0.694292 0.493015 1.7962614429870884e-38
-27.466173 -38.003786 52.806899 -0.507040 -0.706998 0.493015 1.7962614429870884e-38
-26.289339 -38.583622 53.444885 -0.489467 -0.719276 0.493015 1.7962614429870884e-38
-24.555730 -39.356614 52.370087 -0.471598 -0.731117 0.493015 1.7962614429870884e-38
-24.119144 -39.978932 53.741412 -0.453442 -0.742514 0.493015 1.7962614429870884e-38
-23.335777 -40.628508 52.891986 -0.435010 -0.753460 0.493015 1.7962614429870884e-38
-22.136083 -41.045767 53.636188 -0.416315 -0.763949 0.493015 1.7962614429870884e-38
-21.370121 -41.076356 52.781836 -0.397367 -0.773974 0.493015 1.7962614429870884e-38
-38.548286 -25.022105 54.513509 -0.713469 -0.466462 0.522853 1.7962614429870884e-38
-38.380259 -25.956711 54.341990 -0.701760 -0.483899 0.522853 1.7962614429870884e-38
-37.274687 -27.329488 54.419372 -0.689625 -0.501042 0.522853 1.7962614429870884e-38
-36.631025 -27.516382 53.908160 -0.677071 -0.517880 0.522853 1.7962614429870884e-38
-36.064879 -29.098090 54.510587 -0.664106 -0.534404 0.522853 1.7962614429870884e-38
-34.703626 -29.510347 54.104596 -0.650738 -0.550604 0.522853 1.7962614429870884e-38
-34.442914 -30.758712 54.585309 -0.636975 -0.566469 0.522853 1.7962614429870884e-38
-33.686765 -31.775949 54.608402 -0.622825 -0.581991 0.522853 1.7962614429870884e-38
-32.390295 -32.222827 54.469110 -0.608298 -0.597159 0.522853 1.7962614429870884e-38
-32.418649 -33.584583 53.878265 -0.593400 -0.611964 0.522853 1.7962614429870884e-38
-31.158253 -33.836767 54.596859 -0.578143 -0.626399 0.522853 1.7962614429870884e-38
-30.363303 -34.205142 54.694670 -0.562535 -0.640452 0.522853 1.7962614429870884e-38
-29.541518 -35.538643 53.858141 -0.546585 -0.654117 0.522853 1.7962614429870884e-38
-28.137607 -36.235117 53.984060 -0.530303 -0.667385 0.522853 1.7962614429870884e-38
-27.634274 -37.091543 54.471645 -0.513700 -0.680248 0.522853 1.7962614429870884e-38
-26.862878 -37.038851 54.683999 -0.496784 -0.692698 0.522853 1.7962614429870884e-38
-25.503495 -37.902096 54.175488 -0.479567 -0.704727 0.522853 1.7962614429870884e-38
-25.202380 -38.748156 55.031272 -0.462059 -0.716328 0.522853 1.7962614429870884e-38
-24.007781 -39.142187 54.888568 -0.444270 -0.727495 0.522853 1.7962614429870884e-38
-22.883822 -39.992839 54.652037 -0.426211 -0.738220 0.522853 1.7962614429870884e-38
-22.101992 -40.235116 54.586637 -0.407894 -0.748496 0.522853 1.7962614429870884e-38
-21.121643 -40.795072 54.913004 -0.389329 -0.758319 0.522853 1.7962614429870884e-38
-37.946256 -24.533592 55.809277 -0.700043 -0.457685 0.548147 1.7962614429870884e-38
-36.842327 -25.471368 55.635491 -0.688554 -0.474793 0.548147 1.7962614429870884e-38
-36.617022 -26.393173 55.613011 -0.676647 -0.491613 0.548147 1.7962614429870884e-38
-35.836199 -27.268436 55.711670 -0.664330 -0.508135 0.548147 1.7962614429870884e-38
-35.071314 -28.533556 56.075015 -0.651609 -0.524348 0.548147 1.7962614429870884e-38
-34.788072 -29.022279 55.524351 -0.638493 -0.540243 0.548147 1.7962614429870884e-38
-33.402626 -29.728976 55.669488 -0.624989 -0.555809 0.548147 1.7962614429870884e-38
-32.511698 -30.872169 55.934611 -0.611105 -0.571039 0.548147 1.7962614429870884e-38
-32.426747 -31.497599 55.390365 -0.596851 -0.585922 0.548147 1.7962614429870884e-38
-31.414245 -32.418462 55.933671 -0.582234 -0.600449 0.548147 1.7962614429870884e-38
-30.813446 -32.245308 55.255477 -0.567264 -0.614611 0.548147 1.7962614429870884e-38
-29.715886 -33.825115 55.831531 -0.551949 -0.628401 0.548147 1.7962614429870884e-38
-29.095855 -34.562473 55.500769 -0.536299 -0.641808 0.548147 1.7962614429870884e-38
-27.517192 -35.528061 55.625697 -0.520324 -0.654827 0.548147 1.7962614429870884e-38
-27.398985 -36.258680 55.249777 -0.504033 -0.667447 0.548147 1.7962614429870884e-38
-26.102702 -36.879651 55.430958 -0.487436 -0.679663 0.548147 1.7962614429870884e-38
-25.681640 -37.223428 55.676605 -0.470542 -0.691466 0.548147 1.7962614429870884e-38
-24.457764 -38.157436 55.800673 -0.453364 -0.702849 0.548147 1.7962614429870884e-38
-23.722445 -38.499231 55.628183 -0.435910 -0.713805 0.548147 1.7962614429870884e-38
-23.074104 -38.479522 55.842539 -0.418191 -0.724328 0.548147 1.7962614429870884e-38
-21.543614 -39.530889 56.285802 -0.400219 -0.734411 0.548147 1.7962614429870884e-38
-37.277564 -24.242283 56.545452 -0.688147 -0.449907 0.569242 1.7962614429870884e-38
-36.582133 -25.141083 56.978713 -0.676854 -0.466725 0.569242 1.7962614429870884e-38
-35.571510 -26.736584 56.869456 -0.665149 -0.483259 0.569242 1.7962614429870884e-38
-35.240186 -26.933822 56.916899 -0.653041 -0.499500 0.569242 1.7962614429870884e-38
-34.763027 -28.237405 56.972348 -0.640537 -0.515438 0.569242 1.7962614429870884e-38
-34.117527 -28.494390 56.626056 -0.627643 -0.531063 0.569242 1.7962614429870884e-38
-32.896164 -29.456083 56.911704 -0.614369 -0.546365 0.569242 1.7962614429870884e-38
-32.442515 -30.368414 56.837321 -0.600721 -0.561336 0.569242 1.7962614429870884e-38
-31.259097 -31.495018 56.712776 -0.586709 -0.575965 0.569242 1.7962614429870884e-38
-30.522381 -31.558232 57.310276 -0.572340 -0.590246 0.569242 1.7962614429870884e-38
-30.064217 -32.949801 56.574864 -0.557624 -0.604167 0.569242 1.7962614429870884e-38
-29.324882 -33.056490 56.830813 -0.542570 -0.617722 0.569242 1.7962614429870884e-38
-28.505849 -33.875798 56.915533 -0.527186 -0.630902 0.569242 1.7962614429870884e-38
-27.692351 -34.984873 57.191302 -0.511482 -0.643699 0.569242 1.7962614429870884e-38
-26.382929 -35.670209 56.786434 -0.495468 -0.656106 0.569242 1.7962614429870884e-38
-25.618072 -36.341223 57.016770 -0.479153 -0.668114 0.569242 1.7962614429870884e-38
-25.021328 -36.990118 57.440419 -0.462547 -0.679716 0.569242 1.7962614429870884e-38
-24.115897 -37.070729 56.570865 -0.445660 -0.690906 0.569242 1.7962614429870884e-38
-22.623272 -37.224136 56.456563 -0.428502 -0.701676 0.569242 1.7962614429870884e-38
-22.199832 -37.967362 56.766687 -0.411085 -0.712020 0.569242 1.7962614429870884e-38
-21.075717 -39.403917 56.670726 -0.393418 -0.721932 0.569242 1.7962614429870884e-38
-36.568087 -23.888752 58.370006 -0.677941 -0.443234 0.586464 1.7962614429870884e-38
-35.481090 -24.603322 58.050643 -0.666815 -0.459803 0.586464 1.7962614429870884e-38
-35.073526 -25.607667 58.062456 -0.655284 -0.476092 0.586464 1.7962614429870884e-38
-33.903419 -26.524559 58.296666 -0.643355 -0.492092 0.586464 1.7962614429870884e-38
-33.785099 -27.591650 57.766024 -0.631036 -0.507793 0.586464 1.7962614429870884e-38
-33.174320 -28.634739 58.693452 -0.618334 -0.523186 0.586464 1.7962614429870884e-38
-32.557353 -28.990105 58.511249 -0.605256 -0.538261 0.586464 1.7962614429870884e-38
-31.770268 -29.452533 57.972555 -0.591811 -0.553010 0.586464 1.7962614429870884e-38
-30.974344 -30.130001 57.885786 -0.578007 -0.567423 0.586464 1.7962614429870884e-38
-30.070762 -31.899728 58.523981 -0.563851 -0.581491 0.586464 1.7962614429870884e-38
-29.618765 -31.935776 58.114944 -0.549354 -0.595206 0.586464 1.7962614429870884e-38
-28.949174 -32.941500 58.300733 -0.534523 -0.608560 0.586464 1.7962614429870884e-38
-27.673696 -33.587718 58.306649 -0.519367 -0.621545 0.586464 1.7962614429870884e-38
-26.847404 -34.111497 57.756281 -0.503896 -0.634152 0.586464 1.7962614429870884e-38
-26.180210 -34.543762 58.126670 -0.488119 -0.646374 0.586464 1.7962614429870884e-38
-25.484983 -35.147413 58.523927 -0.472046 -0.658204 0.586464 1.7962614429870884e-38
-24.661248 -35.989700 58.967273 -0.455686 -0.669634 0.586464 1.7962614429870884e-38
-23.450991 -36.871339 58.001055 -0.439050 -0.680658 0.586464 1.7962614429870884e-38
-22.859130 -36.946025 58.236648 -0.422147 -0.691269 0.586464 1.7962614429870884e-38
-21.903063 -37.049596 58.169870 -0.404988 -0.701459 0.586464 1.7962614429870884e-38
-34.960215 -23.409791 59.787161 -0.669529 -0.437735 0.600099 1.7962614429870884e-38
-35.177625 -24.561174 58.881317 -0.658542 -0.454098 0.600099 1.7962614429870884e-38
-34.301541 -24.639190 59.036137 -0.647154 -0.470185 0.600099 1.7962614429870884e-38
-34.029899 -25.711704 59.380681 -0.635373 -0.485986 0.600099 1.7962614429870884e-38
-33.295770 -27.035405 59.474166 -0.623207 -0.501493 0.600099 1.7962614429870884e-38
-32.257515 -27.312006 59.389397 -0.610662 -0.516695 0.600099 1.7962614429870884e-38
-32.083722 -28.156398 59.453392 -0.597747 -0.531583 0.600099 1.7962614429870884e-38
-31.455306 -29.115549 59.491372 -0.584468 -0.546149 0.600099 1.7962614429870884e-38
-30.360286 -30.369469 59.189337 -0.570835 -0.560383 0.600099 1.7962614429870884e-38
-29.805933 -30.351902 60.160958 -0.556856 -0.574276 0.600099 1.7962614429870884e-38
-28.792770 -31.598934 59.333291 -0.542538 -0.587822 0.600099 1.7962614429870884e-38
-28.051354 -31.713453 59.754080 -0.527891 -0.601010 0.600099 1.7962614429870884e-38
-26.841793 -32.460759 59.381206 -0.512923 -0.613833 0.600099 1.7962614429870884e-38
-26.002082 -33.387871 59.397787 -0.497644 -0.626284 0.600099 1.7962614429870884e-38
-25.692082 -34.564494 59.762970 -0.482063 -0.638355 0.600099 1.7962614429870884e-38
-24.572791 -35.257000 59.681970 -0.466189 -0.650038 0.600099 1.7962614429870884e-38
-24.007832 -34.849350 59.404180 -0.450033 -0.661326 0.600099 1.7962614429870884e-38
-23.450837 -35.716589 59.111908 -0.433603 -0.672213 0.600099 1.7962614429870884e-38
-22.523345 -36.021278 59.498907 -0.416909 -0.682692 0.600099 1.7962614429870884e-38
-20.806603 -36.934568 59.092572 -0.399963 -0.692756 0.600099 1.7962614429870884e-38
-34.168313 -23.002802 60.507630 -0.662982 -0.433455 0.610387 1.7962614429870884e-38
-34.189609 -23.740312 60.088506 -0.652102 -0.449657 0.610387 1.7962614429870884e-38
-33.390618 -24.378603 60.728616 -0.640825 -0.465587 0.610387 1.7962614429870884e-38
-33.061504 -24.801718 60.467195 -0.629160 -0.481234 0.610387 1.7962614429870884e-38
-32.709850 -25.562396 59.958971 -0.617113 -0.496589 0.610387 1.7962614429870884e-38
-31.780954 -26.874176 60.584191 -0.604691 -0.511642 0.610387 1.7962614429870884e-38
-31.528992 -27.980752 60.905954 -0.591901 -0.526385 0.610387 1.7962614429870884e-38
-29.957982 -28.507374 60.339358 -0.578753 -0.540808 0.610387 1.7962614429870884e-38
-30.200537 -28.839723 60.918451 -0.565253 -0.554903 0.610387 1.7962614429870884e-38
-29.781843 -30.571100 60.659602 -0.551410 -0.568661 0.610387 1.7962614429870884e-38
-28.114689 -30.691039 60.608672 -0.537233 -0.582073 0.610387 1.7962614429870884e-38
-27.507536 -31.225281 60.348284 -0.522729 -0.595133 0.610387 1.7962614429870884e-38
-26.659205 -32.101927 60.391243 -0.507907 -0.607831 0.610387 1.7962614429870884e-38
-26.421581 -32.599320 60.859449 -0.492778 -0.620160 0.610387 1.7962614429870884e-38
-25.149472 -33.279985 60.995272 -0.477349 -0.632112 0.610387 1.7962614429870884e-38
-23.919376 -33.260708 61.295682 -0.461631 -0.643681 0.610387 1.7962614429870884e-38
-23.369391 -34.714867 60.462215 -0.445632 -0.654859 0.610387 1.7962614429870884e-38
-22.361505 -34.501455 60.303898 -0.429362 -0.665640 0.610387 1.7962614429870884e-38
-21.589310 -35.715906 60.574560 -0.412832 -0.676016 0.610387 1.7962614429870884e-38
-33.663189 -22.213176 62.310372 -0.658341 -0.430420 0.617516 1.7962614429870884e-38
-33.799718 -23.072211 61.548204 -0.647537 -0.446509 0.617516 1.7962614429870884e-38
-32.479702 -23.742592 62.211679 -0.636339 -0.462328 0.617516 1.7962614429870884e-38
-32.675221 -24.851411 61.320485 -0.624756 -0.477865 0.617516 1.7962614429870884e-38
-31.528184 -25.586292 62.082346 -0.612792 -0.493112 0.617516 1.7962614429870884e-38
-30.990251 -26.868623 61.357557 -0.600457 -0.508060 0.617516 1.7962614429870884e-38
-30.319384 -26.845644 61.190785 -0.587758 -0.522700 0.617516 1.7962614429870884e-38
-29.695090 -28.029991 61.522606 -0.574701 -0.537022 0.617516 1.7962614429870884e-38
-29.174477 -28.410293 61.643707 -0.561296 -0.551018 0.617516 1.7962614429870884e-38
-28.864150 -29.117967 61.750461 -0.547550 -0.564680 0.617516 1.7962614429870884e-38
-27.822964 -29.932615 61.751314 -0.533472 -0.577999 0.617516 1.7962614429870884e-38
-26.784727 -30.584128 61.905293 -0.519069 -0.590967 0.617516 1.7962614429870884e-38
-33.683470 -21.638464 62.946728 -0.655630 -0.428648 0.621619 1.7962614429870884e-38
-32.577393 -21.914180 63.329604 -0.644870 -0.444671 0.621619 1.7962614429870884e-38
-31.888890 -23.307801 63.217126 -0.633719 -0.460424 0.621619 1.7962614429870884e-38
-31.694976 -23.910565 63.034773 -0.622183 -0.475897 0.621619 1.7962614429870884e-38
