# .PCD v0.7 - Point Cloud Data file format
VERSION 0.7
FIELDS x y z normal_x normal_y normal_z rgb
SIZE 4 4 4 4 4 4 4
TYPE F F F F F F F
COUNT 1 1 1 1 1 1 1
WIDTH 181
HEIGHT 1
VIEWPOINT 0 0 0 1 0 0 0
POINTS 181
DATA ascii
0.728917 -27.477565 84.290287 0.042760 -0.991028 0.126626 1.5197831540281055e-38
2.201726 -27.068520 83.775745 0.067163 -0.989674 0.126626 1.5197831540281055e-38
2.366613 -27.327193 84.124068 0.091526 -0.987719 0.126626 1.5197831540281055e-38
3.661269 -27.514545 84.724013 0.115833 -0.985164 0.126626 1.5197831540281055e-38
-1.620011 -27.279153 85.367124 -0.055317 -0.996761 0.058377 1.5197831540281055e-38
-1.334935 -27.271821 85.469862 -0.030743 -0.997821 0.058377 1.5197831540281055e-38
-0.216686 -27.771784 85.664824 -0.006149 -0.998276 0.058377 1.5197831540281055e-38
-0.035467 -27.991980 85.140376 0.018447 -0.998124 0.058377 1.5197831540281055e-38
1.277411 -27.914034 85.197406 0.043033 -0.997367 0.058377 1.5197831540281055e-38
1.761619 -27.364267 85.277782 0.067593 -0.996004 0.058377 1.5197831540281055e-38
2.458265 -27.624701 85.687533 0.092111 -0.994036 0.058377 1.5197831540281055e-38
3.412724 -27.154915 85.127418 0.116574 -0.991465 0.058377 1.5197831540281055e-38
-4.749948 -26.240640 86.829947 -0.177622 -0.983706 0.027806 1.5197831540281055e-38
-4.125483 -27.253910 86.667776 -0.153332 -0.987783 0.027806 1.5197831540281055e-38
-3.085984 -27.371522 86.956012 -0.128949 -0.991261 0.027806 1.5197831540281055e-38
-2.735008 -26.858637 86.924653 -0.104488 -0.994137 0.027806 1.5197831540281055e-38
-2.142760 -27.371607 86.503957 -0.079963 -0.996410 0.027806 1.5197831540281055e-38
-1.230587 -27.632063 86.632062 -0.055390 -0.998078 0.027806 1.5197831540281055e-38
-0.904805 -27.886573 86.664061 -0.030783 -0.999139 0.027806 1.5197831540281055e-38
-0.626984 -27.631186 86.798081 -0.006158 -0.999594 0.027806 1.5197831540281055e-38
0.558791 -27.446666 86.338523 0.018472 -0.999443 0.027806 1.5197831540281055e-38
1.499971 -27.737534 86.809845 0.043090 -0.998684 0.027806 1.5197831540281055e-38
2.251441 -27.893310 86.475994 0.067682 -0.997319 0.027806 1.5197831540281055e-38
2.387601 -27.298081 86.314908 0.092233 -0.995349 0.027806 1.5197831540281055e-38
2.861303 -27.325207 86.429601 0.116728 -0.992775 0.027806 1.5197831540281055e-38
-8.026102 -27.261770 88.086765 -0.268356 -0.943173 0.195984 1.5197831540281055e-38
-6.498134 -27.256601 87.960508 -0.245037 -0.949498 0.195984 1.5197831540281055e-38
-6.115937 -27.045689 88.104409 -0.221569 -0.955247 0.195984 1.5197831540281055e-38
-5.181223 -26.474856 88.358503 -0.197967 -0.960416 0.195984 1.5197831540281055e-38
-4.560874 -27.170038 87.840263 -0.174245 -0.965002 0.195984 1.5197831540281055e-38
-4.080540 -26.576500 87.759721 -0.150417 -0.969002 0.195984 1.5197831540281055e-38
-3.718590 -27.623549 88.096981 -0.126498 -0.972414 0.195984 1.5197831540281055e-38
-2.796724 -27.466033 88.066212 -0.102501 -0.975235 0.195984 1.5197831540281055e-38
-2.290366 -27.665688 88.234294 -0.078443 -0.977465 0.195984 1.5197831540281055e-38
-2.134761 -27.270764 87.801805 -0.054337 -0.979100 0.195984 1.5197831540281055e-38
-1.334054 -27.245334 87.627012 -0.030198 -0.980142 0.195984 1.5197831540281055e-38
0.336564 -27.054206 87.901398 -0.006040 -0.980588 0.195984 1.5197831540281055e-38
-0.242002 -27.517966 87.645224 0.018121 -0.980440 0.195984 1.5197831540281055e-38
1.542329 -27.277113 87.930121 0.042271 -0.979696 0.195984 1.5197831540281055e-38
2.157426 -26.803953 88.272698 0.066395 -0.978357 0.195984 1.5197831540281055e-38
2.687946 -27.320787 87.965533 0.090479 -0.976424 0.195984 1.5197831540281055e-38
3.184529 -26.932981 87.664718 0.114508 -0.973898 0.195984 1.5197831540281055e-38
-9.610449 -25.708044 89.171112 -0.323230 -0.882425 0.341830 1.5197831540281055e-38
-8.767090 -25.343703 89.459610 -0.301391 -0.890121 0.341830 1.5197831540281055e-38
-8.493493 -25.457384 88.783772 -0.279369 -0.897276 0.341830 1.5197831540281055e-38
-7.490493 -26.395738 88.660567 -0.257178 -0.903887 0.341830 1.5197831540281055e-38
-7.331928 -26.270722 89.090534 -0.234830 -0.909949 0.341830 1.5197831540281055e-38
-6.213510 -26.844894 88.485078 -0.212340 -0.915458 0.341830 1.5197831540281055e-38
-5.449025 -26.213347 89.146501 -0.189721 -0.920412 0.341830 1.5197831540281055e-38
-4.238371 -26.587787 89.166795 -0.166987 -0.924807 0.341830 1.5197831540281055e-38
-4.148817 -26.920972 89.022893 -0.144152 -0.928640 0.341830 1.5197831540281055e-38
-3.232216 -26.517203 89.179434 -0.121229 -0.931910 0.341830 1.5197831540281055e-38
-2.348227 -26.720929 89.170191 -0.098232 -0.934614 0.341830 1.5197831540281055e-38
-1.709674 -27.134081 89.500574 -0.075176 -0.936750 0.341830 1.5197831540281055e-38
-1.788633 -27.044432 88.521241 -0.052074 -0.938318 0.341830 1.5197831540281055e-38
-0.756282 -26.595627 88.790823 -0.028940 -0.939316 0.341830 1.5197831540281055e-38
-0.251201 -27.072101 89.007638 -0.005789 -0.939744 0.341830 1.5197831540281055e-38
0.184687 -26.990255 89.543168 0.017366 -0.939601 0.341830 1.5197831540281055e-38
1.013873 -26.911950 89.138827 0.040510 -0.938888 0.341830 1.5197831540281055e-38
1.709836 -26.860664 88.957913 0.063629 -0.937605 0.341830 1.5197831540281055e-38
2.617099 -26.912066 88.650437 0.086710 -0.935753 0.341830 1.5197831540281055e-38
-9.126369 -24.929506 90.522283 -0.306058 -0.835545 0.456281 1.5197831540281055e-38
-8.303331 -25.504035 90.870001 -0.285379 -0.842832 0.456281 1.5197831540281055e-38
-7.807233 -24.993768 90.130770 -0.264528 -0.849608 0.456281 1.5197831540281055e-38
-7.828253 -25.486978 89.978587 -0.243515 -0.855867 0.456281 1.5197831540281055e-38
-6.261084 -26.047704 90.317247 -0.222355 -0.861607 0.456281 1.5197831540281055e-38
-5.799324 -25.650193 90.158991 -0.201060 -0.866823 0.456281 1.5197831540281055e-38
-5.876255 -26.369327 90.082107 -0.179642 -0.871514 0.456281 1.5197831540281055e-38
-5.125114 -26.063615 90.080521 -0.158116 -0.875675 0.456281 1.5197831540281055e-38
-4.446901 -26.575723 89.831695 -0.136493 -0.879305 0.456281 1.5197831540281055e-38
-3.430515 -26.461155 90.317000 -0.114788 -0.882401 0.456281 1.5197831540281055e-38
-2.789254 -26.378118 90.503466 -0.093013 -0.884961 0.456281 1.5197831540281055e-38
-2.558810 -26.181478 90.427046 -0.071182 -0.886984 0.456281 1.5197831540281055e-38
-1.525636 -26.663824 90.321136 -0.049307 -0.888469 0.456281 1.5197831540281055e-38
-0.680320 -26.869561 90.492229 -0.027403 -0.889414 0.456281 1.5197831540281055e-38
0.358641 -26.481078 90.700249 -0.005481 -0.889819 0.456281 1.5197831540281055e-38
0.631476 -26.378522 90.099063 0.016443 -0.889684 0.456281 1.5197831540281055e-38
1.038377 -26.731736 90.592252 0.038358 -0.889009 0.456281 1.5197831540281055e-38
1.568332 -25.872754 90.440782 0.060249 -0.887794 0.456281 1.5197831540281055e-38
2.559828 -26.746264 90.508924 0.082104 -0.886040 0.456281 1.5197831540281055e-38
-7.570532 -23.871246 91.593614 -0.270020 -0.797469 0.539567 1.5197831540281055e-38
-7.309422 -24.543845 91.534703 -0.250290 -0.803880 0.539567 1.5197831540281055e-38
-6.793427 -24.498134 91.698529 -0.230409 -0.809802 0.539567 1.5197831540281055e-38
-6.483761 -25.074167 91.184354 -0.210387 -0.815233 0.539567 1.5197831540281055e-38
-5.768662 -25.009267 91.795518 -0.190238 -0.820169 0.539567 1.5197831540281055e-38
-5.635430 -25.184699 91.485642 -0.169973 -0.824607 0.539567 1.5197831540281055e-38
-4.592093 -24.962768 91.930881 -0.149606 -0.828544 0.539567 1.5197831540281055e-38
-3.644534 -25.413236 91.489570 -0.129147 -0.831979 0.539567 1.5197831540281055e-38
-2.960021 -25.017866 92.026035 -0.108610 -0.834908 0.539567 1.5197831540281055e-38
-2.544442 -25.593028 91.753898 -0.088007 -0.837331 0.539567 1.5197831540281055e-38
-1.832987 -25.783578 91.488696 -0.067351 -0.839245 0.539567 1.5197831540281055e-38
-0.512406 -25.826624 91.801969 -0.046653 -0.840649 0.539567 1.5197831540281055e-38
-0.947170 -25.771150 91.269822 -0.025928 -0.841544 0.539567 1.5197831540281055e-38
-0.434432 -25.560339 91.695880 -0.005186 -0.841927 0.539567 1.5197831540281055e-38
1.027878 -25.733851 91.593046 0.015558 -0.841799 0.539567 1.5197831540281055e-38
1.096959 -26.013937 91.723190 0.036293 -0.841160 0.539567 1.5197831540281055e-38
1.692460 -26.117649 91.878587 0.057006 -0.840011 0.539567 1.5197831540281055e-38
-7.540437 -24.009363 92.728528 -0.238646 -0.766482 0.596283 1.5197831540281055e-38
-6.832438 -23.571712 92.661799 -0.219690 -0.772129 0.596283 1.5197831540281055e-38
-6.184642 -24.659966 92.524075 -0.200600 -0.777307 0.596283 1.5197831540281055e-38
-5.297591 -24.500385 93.013788 -0.181388 -0.782013 0.596283 1.5197831540281055e-38
-5.301991 -24.426707 93.297973 -0.162066 -0.786245 0.596283 1.5197831540281055e-38
-4.198724 -25.076863 93.749914 -0.142646 -0.789999 0.596283 1.5197831540281055e-38
-4.129082 -24.032848 92.649635 -0.123139 -0.793274 0.596283 1.5197831540281055e-38
-3.579080 -24.814658 92.587510 -0.103557 -0.796067 0.596283 1.5197831540281055e-38
-2.765877 -24.733003 92.926918 -0.083913 -0.798376 0.596283 1.5197831540281055e-38
-1.564714 -24.743184 92.806753 -0.064217 -0.800201 0.596283 1.5197831540281055e-38
-1.595821 -24.933106 92.632269 -0.044483 -0.801541 0.596283 1.5197831540281055e-38
-1.178366 -24.110188 92.856225 -0.024721 -0.802393 0.596283 1.5197831540281055e-38
-0.076797 -24.521485 92.009040 -0.004945 -0.802759 0.596283 1.5197831540281055e-38
1.131508 -25.140682 92.518502 0.014834 -0.802637 0.596283 1.5197831540281055e-38
0.909942 -24.568834 93.426813 0.034605 -0.802028 0.596283 1.5197831540281055e-38
2.176931 -24.974727 92.244024 0.054354 -0.800932 0.596283 1.5197831540281055e-38
-6.023784 -22.897148 93.721883 -0.212200 -0.745804 0.631464 1.5197831540281055e-38
-5.696906 -22.791501 93.919507 -0.193761 -0.750806 0.631464 1.5197831540281055e-38
-5.647867 -23.963024 94.350854 -0.175204 -0.755352 0.631464 1.5197831540281055e-38
-5.355085 -23.442746 93.503059 -0.156541 -0.759439 0.631464 1.5197831540281055e-38
-3.710204 -23.139742 94.110660 -0.137782 -0.763065 0.631464 1.5197831540281055e-38
-3.354937 -23.677346 93.773196 -0.118941 -0.766228 0.631464 1.5197831540281055e-38
-3.588696 -23.483311 93.717803 -0.100027 -0.768926 0.631464 1.5197831540281055e-38
-1.742439 -24.123444 94.324240 -0.081052 -0.771157 0.631464 1.5197831540281055e-38
-1.530724 -24.246052 93.885721 -0.062028 -0.772920 0.631464 1.5197831540281055e-38
-1.394461 -22.839243 93.947012 -0.042966 -0.774214 0.631464 1.5197831540281055e-38
-1.078097 -23.761907 93.706364 -0.023879 -0.775037 0.631464 1.5197831540281055e-38
-0.165814 -24.056804 94.176022 -0.004776 -0.775390 0.631464 1.5197831540281055e-38
0.273666 -24.125530 94.344331 0.014329 -0.775273 0.631464 1.5197831540281055e-38
1.117861 -23.890069 93.443132 0.033425 -0.774684 0.631464 1.5197831540281055e-38
-6.286818 -21.884885 95.580587 -0.190142 -0.736785 0.648841 1.5197831540281055e-38
-5.754968 -22.418205 95.143708 -0.171932 -0.741246 0.648841 1.5197831540281055e-38
-4.886949 -22.640120 95.101008 -0.153617 -0.745257 0.648841 1.5197831540281055e-38
-3.883664 -22.147633 95.423278 -0.135209 -0.748815 0.648841 1.5197831540281055e-38
-3.784689 -22.377908 95.438931 -0.116719 -0.751919 0.648841 1.5197831540281055e-38
-3.832220 -22.322872 95.297791 -0.098159 -0.754567 0.648841 1.5197831540281055e-38
-2.341048 -23.283564 95.741907 -0.079538 -0.756756 0.648841 1.5197831540281055e-38
-1.729665 -22.580188 94.860595 -0.060870 -0.758486 0.648841 1.5197831540281055e-38
-1.114617 -22.691389 95.211063 -0.042164 -0.759755 0.648841 1.5197831540281055e-38
-1.092730 -22.893644 94.971214 -0.023433 -0.760563 0.648841 1.5197831540281055e-38
-0.350443 -22.537619 95.283756 -0.004687 -0.760910 0.648841 1.5197831540281055e-38
0.398647 -23.234791 95.243992 0.014061 -0.760794 0.648841 1.5197831540281055e-38
0.941484 -23.159281 95.583233 0.032801 -0.760217 0.648841 1.5197831540281055e-38
-4.934966 -21.362976 96.384855 -0.171634 -0.739961 0.650385 1.5197831540281055e-38
-4.666649 -21.752626 96.677953 -0.153351 -0.743965 0.650385 1.5197831540281055e-38
-3.798969 -21.719117 96.740826 -0.134975 -0.747517 0.650385 1.5197831540281055e-38
-3.900611 -21.689483 96.559451 -0.116517 -0.750615 0.650385 1.5197831540281055e-38
-2.483102 -21.809672 96.832056 -0.097988 -0.753258 0.650385 1.5197831540281055e-38
-2.476892 -21.459378 96.999494 -0.079400 -0.755444 0.650385 1.5197831540281055e-38
-2.045887 -21.710005 96.657031 -0.060764 -0.757171 0.650385 1.5197831540281055e-38
-1.582653 -21.662099 96.324921 -0.042091 -0.758438 0.650385 1.5197831540281055e-38
-0.924989 -21.942021 96.346019 -0.023392 -0.759245 0.650385 1.5197831540281055e-38
0.105763 -21.825236 97.188063 -0.004679 -0.759591 0.650385 1.5197831540281055e-38
0.242483 -21.679486 96.449646 0.014037 -0.759475 0.650385 1.5197831540281055e-38
-3.511114 -20.278599 97.816854 -0.137082 -0.759186 0.636275 1.5197831540281055e-38
-3.519726 -20.834160 97.703785 -0.118336 -0.762333 0.636275 1.5197831540281055e-38
-2.368302 -20.335488 97.612230 -0.099518 -0.765017 0.636275 1.5197831540281055e-38
-2.720377 -20.267609 98.104231 -0.080640 -0.767236 0.636275 1.5197831540281055e-38
-1.625266 -20.844427 97.639800 -0.061713 -0.768990 0.636275 1.5197831540281055e-38
-0.872223 -20.589034 97.603556 -0.042748 -0.770277 0.636275 1.5197831540281055e-38
0.020501 -21.231170 97.551483 -0.023757 -0.771097 0.636275 1.5197831540281055e-38
-0.301787 -20.749819 98.071671 -0.004752 -0.771448 0.636275 1.5197831540281055e-38
0.632630 -20.740474 97.333823 0.014256 -0.771331 0.636275 1.5197831540281055e-38
-2.666035 -19.171356 99.161012 -0.122146 -0.786878 0.604899 1.5197831540281055e-38
-1.940850 -20.027877 98.905783 -0.102722 -0.789649 0.604899 1.5197831540281055e-38
-2.174269 -19.477355 98.590890 -0.083236 -0.791940 0.604899 1.5197831540281055e-38
-1.383547 -20.168068 99.193431 -0.063700 -0.793750 0.604899 1.5197831540281055e-38
-0.750601 -20.107788 98.858924 -0.044124 -0.795079 0.604899 1.5197831540281055e-38
-0.252630 -19.371675 98.540774 -0.024522 -0.795924 0.604899 1.5197831540281055e-38
-0.008975 -19.602167 98.966297 -0.004905 -0.796287 0.604899 1.5197831540281055e-38
-2.506729 -18.194800 99.790147 -0.107491 -0.826309 0.552864 1.5197831540281055e-38
-2.307086 -19.486843 99.862153 -0.087101 -0.828707 0.552864 1.5197831540281055e-38
-1.702906 -18.415231 100.519920 -0.066657 -0.830601 0.552864 1.5197831540281055e-38
-0.976591 -18.979641 100.435603 -0.046173 -0.831991 0.552864 1.5197831540281055e-38
-0.200671 -19.100381 100.042018 -0.025661 -0.832876 0.552864 1.5197831540281055e-38
-0.245957 -19.435320 100.569466 -0.005133 -0.833256 0.552864 1.5197831540281055e-38
-1.601988 -18.332548 101.615542 -0.091966 -0.874996 0.475315 1.5197831540281055e-38
-0.964805 -18.040224 101.180448 -0.070380 -0.876996 0.475315 1.5197831540281055e-38
-1.446882 -17.693605 101.311543 -0.048752 -0.878464 0.475315 1.5197831540281055e-38
-0.631648 -17.401032 101.720180 -0.027094 -0.879398 0.475315 1.5197831540281055e-38
-1.556263 -17.042875 103.073293 -0.074402 -0.927110 0.367330 1.5197831540281055e-38
-1.416291 -17.559968 102.436047 -0.051538 -0.928662 0.367330 1.5197831540281055e-38
-0.915187 -18.538916 102.582777 -0.028642 -0.929649 0.367330 1.5197831540281055e-38
-0.909240 -16.826777 103.675514 -0.053960 -0.972307 0.227393 1.5197831540281055e-38
