# .PCD v0.7 - Point Cloud Data file format
VERSION 0.7
FIELDS x y z normal_x normal_y normal_z rgb
SIZE 4 4 4 4 4 4 4
TYPE F F F F F F F
COUNT 1 1 1 1 1 1 1
WIDTH 198
HEIGHT 1
VIEWPOINT 0 0 0 1 0 0 0
POINTS 198
DATA ascii
-15.569259 3.067583 -0.044259 -0.978144 0.207911 -0.002570 1.5197831540281055e-38
-15.773326 3.055010 0.299947 -0.982970 0.183749 -0.002570 1.5197831540281055e-38
-16.112790 2.514110 0.444437 -0.987199 0.159475 -0.002570 1.5197831540281055e-38
-16.076377 1.915009 0.060692 -0.990828 0.135105 -0.002570 1.5197831540281055e-38
-15.648431 1.773871 0.398688 -0.993856 0.110652 -0.002570 1.5197831540281055e-38
-15.683500 1.630673 0.166235 -0.996280 0.086133 -0.002570 1.5197831540281055e-38
-15.271357 0.923426 -0.601057 -0.998100 0.061561 -0.002570 1.5197831540281055e-38
-15.507797 0.453914 0.032364 -0.999314 0.036951 -0.002570 1.5197831540281055e-38
-15.605921 -0.283563 -0.375494 -0.999921 0.012320 -0.002570 1.5197831540281055e-38
-16.479169 -0.435355 0.131891 -0.999921 -0.012320 -0.002570 1.5197831540281055e-38
-15.831817 -0.508342 -0.423830 -0.999314 -0.036951 -0.002570 1.5197831540281055e-38
-16.662684 -0.968668 -0.141533 -0.998100 -0.061561 -0.002570 1.5197831540281055e-38
-15.802723 -1.167541 0.041472 -0.996280 -0.086133 -0.002570 1.5197831540281055e-38
-15.673706 -1.701679 0.159019 -0.993856 -0.110652 -0.002570 1.5197831540281055e-38
-16.064702 -2.215567 0.059033 -0.990828 -0.135105 -0.002570 1.5197831540281055e-38
-15.549071 -2.669735 0.156350 -0.987199 -0.159475 -0.002570 1.5197831540281055e-38
-15.807321 -2.975255 0.248856 -0.982970 -0.183749 -0.002570 1.5197831540281055e-38
-16.248280 -3.715529 -0.444656 -0.978144 -0.207911 -0.002570 1.5197831540281055e-38
-16.263737 -3.914642 0.224830 -0.972725 -0.231947 -0.002570 1.5197831540281055e-38
-15.552960 -4.034147 0.326765 -0.966715 -0.255842 -0.002570 1.5197831540281055e-38
-14.963640 -4.494063 0.406076 -0.960118 -0.279582 -0.002570 1.5197831540281055e-38
-15.219434 -5.101662 -0.178320 -0.952939 -0.303152 -0.002570 1.5197831540281055e-38
-15.567102 -5.491060 -0.107405 -0.945181 -0.326538 -0.002570 1.5197831540281055e-38
-14.748554 -5.079393 -0.414654 -0.936849 -0.349725 -0.002570 1.5197831540281055e-38
-16.437553 3.588963 1.207580 -0.691894 0.129337 -0.710320 1.5197831540281055e-38
-16.500041 2.024415 0.968851 -0.694871 0.112252 -0.710320 1.5197831540281055e-38
-16.566187 2.042373 1.651626 -0.697426 0.095098 -0.710320 1.5197831540281055e-38
-16.587129 2.227775 1.255625 -0.699557 0.077886 -0.710320 1.5197831540281055e-38
-16.566823 1.406599 1.238252 -0.701263 0.060627 -0.710320 1.5197831540281055e-38
-16.092632 0.328480 0.636650 -0.702544 0.043331 -0.710320 1.5197831540281055e-38
-16.791418 0.619225 1.444145 -0.703399 0.026009 -0.710320 1.5197831540281055e-38
-16.496642 0.089723 1.542827 -0.703826 0.008672 -0.710320 1.5197831540281055e-38
-16.329510 -0.149780 1.525911 -0.703826 -0.008672 -0.710320 1.5197831540281055e-38
-16.546673 -0.783312 1.446458 -0.703399 -0.026009 -0.710320 1.5197831540281055e-38
-16.575087 -1.023961 1.678999 -0.702544 -0.043331 -0.710320 1.5197831540281055e-38
-17.313253 -1.858543 0.880992 -0.701263 -0.060627 -0.710320 1.5197831540281055e-38
-16.646626 -1.917624 0.784916 -0.699557 -0.077886 -0.710320 1.5197831540281055e-38
-16.782812 -2.506381 1.974341 -0.697426 -0.095098 -0.710320 1.5197831540281055e-38
-15.886349 -2.777175 1.128038 -0.694871 -0.112252 -0.710320 1.5197831540281055e-38
-16.701268 -3.630000 1.202049 -0.691894 -0.129337 -0.710320 1.5197831540281055e-38
-16.575566 -3.485071 0.757052 -0.688498 -0.146345 -0.710320 1.5197831540281055e-38
-16.414626 -3.814981 1.346976 -0.684683 -0.163263 -0.710320 1.5197831540281055e-38
-15.960789 -4.653327 1.493519 -0.680453 -0.180082 -0.710320 1.5197831540281055e-38
-16.216325 -4.462350 1.233922 -0.675810 -0.196792 -0.710320 1.5197831540281055e-38
-16.269710 -5.139269 1.346723 -0.670756 -0.213383 -0.710320 1.5197831540281055e-38
-15.543810 -5.475845 1.696647 -0.665295 -0.229844 -0.710320 1.5197831540281055e-38
-17.757112 3.141880 2.133150 -0.491640 0.091904 -0.865935 1.5197831540281055e-38
-18.788986 2.850823 2.299749 -0.493755 0.079763 -0.865935 1.5197831540281055e-38
-18.674184 2.618786 2.339236 -0.495571 0.067574 -0.865935 1.5197831540281055e-38
-18.587244 1.867134 2.795618 -0.497085 0.055344 -0.865935 1.5197831540281055e-38
-18.128198 1.543890 2.659958 -0.498298 0.043080 -0.865935 1.5197831540281055e-38
-18.690794 1.141039 2.518424 -0.499208 0.030790 -0.865935 1.5197831540281055e-38
-18.505776 0.809709 2.240097 -0.499815 0.018482 -0.865935 1.5197831540281055e-38
-18.223035 0.391961 1.599079 -0.500119 0.006162 -0.865935 1.5197831540281055e-38
-18.018890 -1.140693 2.289412 -0.500119 -0.006162 -0.865935 1.5197831540281055e-38
-18.057221 -0.774258 2.034371 -0.499815 -0.018482 -0.865935 1.5197831540281055e-38
-18.670641 -0.823256 1.897775 -0.499208 -0.030790 -0.865935 1.5197831540281055e-38
-17.970382 -1.599428 2.116508 -0.498298 -0.043080 -0.865935 1.5197831540281055e-38
-18.439457 -2.338673 2.734094 -0.497085 -0.055344 -0.865935 1.5197831540281055e-38
-17.989150 -2.998628 2.353149 -0.495571 -0.067574 -0.865935 1.5197831540281055e-38
-18.401135 -2.542694 2.069197 -0.493755 -0.079763 -0.865935 1.5197831540281055e-38
-17.583197 -3.386822 2.125646 -0.491640 -0.091904 -0.865935 1.5197831540281055e-38
-18.178968 -4.061357 2.091841 -0.489227 -0.103988 -0.865935 1.5197831540281055e-38
-17.847745 -4.630964 1.820117 -0.486516 -0.116010 -0.865935 1.5197831540281055e-38
-17.879650 -5.242576 2.248579 -0.483511 -0.127961 -0.865935 1.5197831540281055e-38
-17.917247 -5.399359 3.074516 -0.480211 -0.139835 -0.865935 1.5197831540281055e-38
-17.495650 -5.497539 1.941307 -0.476620 -0.151624 -0.865935 1.5197831540281055e-38
-17.566187 -5.936334 2.166868 -0.472740 -0.163320 -0.865935 1.5197831540281055e-38
-20.507353 3.439049 3.408848 -0.448442 0.072443 -0.890872 1.5197831540281055e-38
-20.738592 2.694967 3.282696 -0.450090 0.061372 -0.890872 1.5197831540281055e-38
-20.718069 2.328200 3.591476 -0.451466 0.050265 -0.890872 1.5197831540281055e-38
-20.722946 1.778577 3.514617 -0.452567 0.039126 -0.890872 1.5197831540281055e-38
-20.471915 1.706245 3.572026 -0.453394 0.027964 -0.890872 1.5197831540281055e-38
-20.558821 0.693696 3.820986 -0.453945 0.016785 -0.890872 1.5197831540281055e-38
-20.247224 0.407843 3.179316 -0.454221 0.005596 -0.890872 1.5197831540281055e-38
-20.580759 0.114614 3.644861 -0.454221 -0.005596 -0.890872 1.5197831540281055e-38
-20.405690 -0.972615 3.265678 -0.453945 -0.016785 -0.890872 1.5197831540281055e-38
-20.636883 -1.802394 3.639409 -0.453394 -0.027964 -0.890872 1.5197831540281055e-38
-20.255480 -2.357477 3.327491 -0.452567 -0.039126 -0.890872 1.5197831540281055e-38
-20.900910 -2.311557 3.601625 -0.451466 -0.050265 -0.890872 1.5197831540281055e-38
-20.108826 -2.512878 3.859922 -0.450090 -0.061372 -0.890872 1.5197831540281055e-38
-20.409682 -3.186135 3.452745 -0.448442 -0.072443 -0.890872 1.5197831540281055e-38
-20.108595 -4.140633 3.961953 -0.446521 -0.083469 -0.890872 1.5197831540281055e-38
-19.909938 -4.244365 3.658476 -0.444329 -0.094445 -0.890872 1.5197831540281055e-38
-20.033407 -5.664070 3.802018 -0.441867 -0.105363 -0.890872 1.5197831540281055e-38
-20.062990 -5.315875 3.923300 -0.439137 -0.116218 -0.890872 1.5197831540281055e-38
-19.914740 -6.134602 3.668919 -0.436140 -0.127002 -0.890872 1.5197831540281055e-38
-19.723291 -6.246398 3.759916 -0.432879 -0.137709 -0.890872 1.5197831540281055e-38
-19.271009 -7.091212 3.764050 -0.429355 -0.148332 -0.890872 1.5197831540281055e-38
-22.996747 4.511885 5.061031 -0.515475 0.083272 -0.852849 1.5197831540281055e-38
-22.672433 3.264617 5.511595 -0.517371 0.070546 -0.852849 1.5197831540281055e-38
-22.618564 2.063223 5.369495 -0.518952 0.057778 -0.852849 1.5197831540281055e-38
-23.014343 2.012992 4.564677 -0.520218 0.044975 -0.852849 1.5197831540281055e-38
-22.796061 1.220337 4.978504 -0.521168 0.032145 -0.852849 1.5197831540281055e-38
-23.067065 1.427297 5.543132 -0.521802 0.019295 -0.852849 1.5197831540281055e-38
-22.981842 0.302515 4.836421 -0.522119 0.006433 -0.852849 1.5197831540281055e-38
-22.663994 -0.381998 4.822052 -0.522119 -0.006433 -0.852849 1.5197831540281055e-38
-22.688257 -1.011283 4.937127 -0.521802 -0.019295 -0.852849 1.5197831540281055e-38
-23.428315 -1.204492 5.530714 -0.521168 -0.032145 -0.852849 1.5197831540281055e-38
-22.695706 -1.542306 4.694623 -0.520218 -0.044975 -0.852849 1.5197831540281055e-38
-22.785419 -2.827688 4.880124 -0.518952 -0.057778 -0.852849 1.5197831540281055e-38
-22.555019 -3.076542 4.524661 -0.517371 -0.070546 -0.852849 1.5197831540281055e-38
-23.097723 -4.081900 5.095889 -0.515475 -0.083272 -0.852849 1.5197831540281055e-38
-21.986796 -3.817050 4.379658 -0.513267 -0.095946 -0.852849 1.5197831540281055e-38
-22.068667 -4.500537 4.484864 -0.510748 -0.108563 -0.852849 1.5197831540281055e-38
-22.461319 -5.005569 5.113584 -0.507918 -0.121113 -0.852849 1.5197831540281055e-38
-22.624875 -5.700532 4.307203 -0.504780 -0.133590 -0.852849 1.5197831540281055e-38
-22.147283 -6.088325 4.953972 -0.501335 -0.145986 -0.852849 1.5197831540281055e-38
-22.065004 -6.704962 5.240879 -0.497586 -0.158294 -0.852849 1.5197831540281055e-38
-21.343892 -7.247285 5.272866 -0.493535 -0.170505 -0.852849 1.5197831540281055e-38
-24.470196 4.554237 6.486529 -0.755535 0.122052 -0.643639 1.5197831540281055e-38
-24.094504 3.491927 5.884572 -0.758312 0.103400 -0.643639 1.5197831540281055e-38
-24.032210 2.465390 6.270553 -0.760630 0.084686 -0.643639 1.5197831540281055e-38
-24.966848 1.503712 6.281054 -0.762485 0.065920 -0.643639 1.5197831540281055e-38
-24.762463 0.915575 6.347750 -0.763878 0.047114 -0.643639 1.5197831540281055e-38
-23.913526 1.324631 6.108372 -0.764807 0.028280 -0.643639 1.5197831540281055e-38
-24.561810 0.568961 6.522205 -0.765271 0.009429 -0.643639 1.5197831540281055e-38
-24.667524 -0.292395 6.275751 -0.765271 -0.009429 -0.643639 1.5197831540281055e-38
-24.383387 -0.947686 6.149541 -0.764807 -0.028280 -0.643639 1.5197831540281055e-38
-24.105784 -1.149469 6.328790 -0.763878 -0.047114 -0.643639 1.5197831540281055e-38
-23.959298 -2.231904 6.672459 -0.762485 -0.065920 -0.643639 1.5197831540281055e-38
-24.252715 -1.737022 5.827822 -0.760630 -0.084686 -0.643639 1.5197831540281055e-38
-24.547889 -3.193400 6.304737 -0.758312 -0.103400 -0.643639 1.5197831540281055e-38
-23.666882 -4.118247 6.457043 -0.755535 -0.122052 -0.643639 1.5197831540281055e-38
-23.799300 -4.302657 5.897268 -0.752298 -0.140629 -0.643639 1.5197831540281055e-38
-23.607167 -4.738829 6.365442 -0.748605 -0.159121 -0.643639 1.5197831540281055e-38
-23.835057 -5.630269 6.161946 -0.744458 -0.177516 -0.643639 1.5197831540281055e-38
-23.556485 -6.275777 5.931010 -0.739858 -0.195804 -0.643639 1.5197831540281055e-38
-23.901240 -7.093928 6.252207 -0.734809 -0.213973 -0.643639 1.5197831540281055e-38
-23.418372 -7.382745 6.335811 -0.729315 -0.232012 -0.643639 1.5197831540281055e-38
-25.120215 2.567592 7.610653 -0.993604 0.110624 -0.022677 1.5197831540281055e-38
-24.833241 2.007108 7.227799 -0.996027 0.086111 -0.022677 1.5197831540281055e-38
-24.917353 1.416338 7.089909 -0.997847 0.061545 -0.022677 1.5197831540281055e-38
-25.085219 1.025759 7.369249 -0.999060 0.036942 -0.022677 1.5197831540281055e-38
-25.424681 0.604742 6.601037 -0.999667 0.012316 -0.022677 1.5197831540281055e-38
-25.134538 -0.494082 7.467134 -0.999667 -0.012316 -0.022677 1.5197831540281055e-38
-24.816952 -0.585851 7.208959 -0.999060 -0.036942 -0.022677 1.5197831540281055e-38
-24.779129 -1.480433 6.909219 -0.997847 -0.061545 -0.022677 1.5197831540281055e-38
-24.339445 -2.585174 7.548530 -0.996027 -0.086111 -0.022677 1.5197831540281055e-38
-24.732001 -2.683905 7.274307 -0.993604 -0.110624 -0.022677 1.5197831540281055e-38
-24.525108 -3.846083 7.402932 -0.990576 -0.135071 -0.022677 1.5197831540281055e-38
-24.851702 -4.190487 7.551305 -0.986948 -0.159435 -0.022677 1.5197831540281055e-38
-24.253567 -4.697179 7.656885 -0.982720 -0.183702 -0.022677 1.5197831540281055e-38
-24.441238 -5.466137 7.345295 -0.977896 -0.207858 -0.022677 1.5197831540281055e-38
-24.410509 -6.008275 7.551225 -0.972478 -0.231888 -0.022677 1.5197831540281055e-38
-24.100008 -6.873911 6.927223 -0.966470 -0.255777 -0.022677 1.5197831540281055e-38
-23.878061 -7.234857 7.513293 -0.959875 -0.279511 -0.022677 1.5197831540281055e-38
-23.591677 -7.960868 6.999219 -0.952697 -0.303075 -0.022677 1.5197831540281055e-38
-25.708031 1.555390 9.071017 -0.987308 0.060895 -0.146677 1.5197831540281055e-38
-25.078525 0.826955 8.102247 -0.988509 0.036552 -0.146677 1.5197831540281055e-38
-24.970805 0.507709 8.125274 -0.989109 0.012186 -0.146677 1.5197831540281055e-38
-24.766121 -0.079618 8.999489 -0.989109 -0.012186 -0.146677 1.5197831540281055e-38
-24.916182 -0.731688 8.816010 -0.988509 -0.036552 -0.146677 1.5197831540281055e-38
-24.800223 -2.091322 8.209476 -0.987308 -0.060895 -0.146677 1.5197831540281055e-38
-25.235878 -2.201605 8.776235 -0.985508 -0.085201 -0.146677 1.5197831540281055e-38
-24.856795 -2.443179 9.004342 -0.983110 -0.109456 -0.146677 1.5197831540281055e-38
-25.139890 -3.320702 8.405444 -0.980115 -0.133644 -0.146677 1.5197831540281055e-38
-24.843520 -3.907642 7.637180 -0.976525 -0.157751 -0.146677 1.5197831540281055e-38
-23.957495 -4.443731 8.481083 -0.972342 -0.181762 -0.146677 1.5197831540281055e-38
-23.981497 -5.324556 8.699550 -0.967568 -0.205663 -0.146677 1.5197831540281055e-38
-24.569772 -5.328234 8.628298 -0.962208 -0.229439 -0.146677 1.5197831540281055e-38
-24.227894 -6.062665 8.835336 -0.956263 -0.253076 -0.146677 1.5197831540281055e-38
-24.123410 -6.686751 9.421339 -0.949737 -0.276559 -0.146677 1.5197831540281055e-38
-23.831613 -7.576647 8.710982 -0.942635 -0.299874 -0.146677 1.5197831540281055e-38
-25.317798 -0.020411 9.729136 -0.964861 -0.011888 -0.262492 1.5197831540281055e-38
-25.319013 -1.131728 10.016303 -0.964275 -0.035656 -0.262492 1.5197831540281055e-38
-25.516101 -1.767795 10.020949 -0.963104 -0.059402 -0.262492 1.5197831540281055e-38
-25.315679 -2.763332 9.460240 -0.961348 -0.083113 -0.262492 1.5197831540281055e-38
-25.557038 -3.072000 10.021234 -0.959009 -0.106773 -0.262492 1.5197831540281055e-38
-25.070364 -3.107853 10.122748 -0.956087 -0.130368 -0.262492 1.5197831540281055e-38
-24.722401 -3.863166 9.959811 -0.952585 -0.153884 -0.262492 1.5197831540281055e-38
-24.606889 -4.385652 10.009736 -0.948504 -0.177306 -0.262492 1.5197831540281055e-38
-24.432957 -5.978174 9.809768 -0.943848 -0.200621 -0.262492 1.5197831540281055e-38
-24.768534 -5.538392 10.368326 -0.938619 -0.223814 -0.262492 1.5197831540281055e-38
-24.959389 -6.067034 9.545474 -0.932820 -0.246871 -0.262492 1.5197831540281055e-38
-24.699349 -7.162917 9.801445 -0.926454 -0.269779 -0.262492 1.5197831540281055e-38
-25.908124 -0.938461 11.058042 -0.929133 -0.057307 -0.365277 1.5197831540281055e-38
-25.906299 -1.874737 10.849718 -0.927439 -0.080181 -0.365277 1.5197831540281055e-38
-25.755969 -2.477917 11.146851 -0.925182 -0.103006 -0.365277 1.5197831540281055e-38
-26.012163 -3.319824 11.015081 -0.922364 -0.125769 -0.365277 1.5197831540281055e-38
-24.988162 -4.293151 11.449388 -0.918985 -0.148456 -0.365277 1.5197831540281055e-38
-24.808391 -4.992356 11.076057 -0.915049 -0.171052 -0.365277 1.5197831540281055e-38
-25.100111 -5.617178 11.215109 -0.910557 -0.193545 -0.365277 1.5197831540281055e-38
-25.144464 -6.053143 11.148702 -0.905512 -0.215920 -0.365277 1.5197831540281055e-38
-24.900674 -6.546477 10.954373 -0.899917 -0.238164 -0.365277 1.5197831540281055e-38
-24.918540 -7.243231 11.120593 -0.893776 -0.260263 -0.365277 1.5197831540281055e-38
-25.795112 -3.446038 12.635793 -0.883430 -0.120461 -0.452813 1.5197831540281055e-38
-25.935890 -4.033574 12.276438 -0.880194 -0.142189 -0.452813 1.5197831540281055e-38
-25.854303 -5.029213 12.750179 -0.876424 -0.163832 -0.452813 1.5197831540281055e-38
-25.305487 -5.061899 12.248701 -0.872122 -0.185375 -0.452813 1.5197831540281055e-38
-25.905356 -5.725827 12.534306 -0.867290 -0.206806 -0.452813 1.5197831540281055e-38
-25.362364 -6.928347 12.498833 -0.861931 -0.228111 -0.452813 1.5197831540281055e-38
-25.612780 -7.173286 12.784800 -0.856050 -0.249277 -0.452813 1.5197831540281055e-38
-26.473382 -5.392247 13.267509 -0.832444 -0.176941 -0.525098 1.5197831540281055e-38
-26.235498 -6.060623 13.073565 -0.827832 -0.197397 -0.525098 1.5197831540281055e-38
-25.928796 -7.418676 13.572969 -0.822718 -0.217733 -0.525098 1.5197831540281055e-38
-26.304958 -7.128865 13.261111 -0.817103 -0.237936 -0.525098 1.5197831540281055e-38
-27.055874 -7.152855 15.323729 -0.785097 -0.207777 -0.583482 1.5197831540281055e-38
