# .PCD v0.7 - Point Cloud Data file format
VERSION 0.7
FIELDS x y z normal_x normal_y normal_z rgb
SIZE 4 4 4 4 4 4 4
TYPE F F F F F F F
COUNT 1 1 1 1 1 1 1
WIDTH 195
HEIGHT 1
VIEWPOINT 0 0 0 1 0 0 0
POINTS 195
DATA ascii
-41.694735 33.306332 79.967393 -0.779081 0.626924 0.000000 1.5658809689597668e-38
-42.449165 33.050022 80.820302 -0.794290 0.607539 0.000000 1.5658809689597668e-38
-40.752060 36.132301 81.613882 -0.747253 0.664540 0.000000 1.5658809689597668e-38
-41.317277 34.680200 81.917855 -0.763398 0.645928 0.000000 1.5658809689597668e-38
-42.221730 34.317073 82.018355 -0.779081 0.626924 0.000000 1.5658809689597668e-38
-42.485431 33.113851 81.467604 -0.794290 0.607539 0.000000 1.5658809689597668e-38
-43.692946 31.695296 81.900935 -0.809017 0.587785 0.000000 1.5658809689597668e-38
-39.882889 36.809979 82.690043 -0.730653 0.682749 0.000000 1.5658809689597668e-38
-40.377604 36.137624 82.919885 -0.747253 0.664540 0.000000 1.5658809689597668e-38
-41.036008 35.946018 83.038832 -0.763398 0.645928 0.000000 1.5658809689597668e-38
-41.976870 34.081977 83.080979 -0.779081 0.626924 0.000000 1.5658809689597668e-38
-43.561389 32.135260 82.252392 -0.794290 0.607539 0.000000 1.5658809689597668e-38
-44.060108 32.285465 82.963206 -0.809017 0.587785 0.000000 1.5658809689597668e-38
-37.636412 39.435571 84.210192 -0.696134 0.717912 0.000000 1.5658809689597668e-38
-38.890851 37.859352 83.872521 -0.713610 0.700543 0.000000 1.5658809689597668e-38
-39.446713 36.936154 84.727507 -0.730653 0.682749 0.000000 1.5658809689597668e-38
-40.386590 36.271500 84.938078 -0.747253 0.664540 0.000000 1.5658809689597668e-38
-41.167536 35.027456 83.816617 -0.763398 0.645928 0.000000 1.5658809689597668e-38
-42.531009 34.091412 83.896210 -0.779081 0.626924 0.000000 1.5658809689597668e-38
-43.568960 33.137770 84.390174 -0.794290 0.607539 0.000000 1.5658809689597668e-38
-43.475881 32.014995 84.304462 -0.809017 0.587785 0.000000 1.5658809689597668e-38
-45.363380 31.154996 83.821060 -0.823253 0.567675 0.000000 1.5658809689597668e-38
-35.562708 41.072822 85.579509 -0.659925 0.751332 0.000000 1.5658809689597668e-38
-37.249252 40.588763 85.495682 -0.678235 0.734845 0.000000 1.5658809689597668e-38
-38.127633 39.192553 85.295307 -0.696134 0.717912 0.000000 1.5658809689597668e-38
-38.977118 38.327790 85.301793 -0.713610 0.700543 0.000000 1.5658809689597668e-38
-40.385937 37.825236 85.440714 -0.730653 0.682749 0.000000 1.5658809689597668e-38
-40.734845 36.283916 85.633239 -0.747253 0.664540 0.000000 1.5658809689597668e-38
-41.683659 35.188416 85.286723 -0.763398 0.645928 0.000000 1.5658809689597668e-38
-42.179323 34.304369 85.350287 -0.779081 0.626924 0.000000 1.5658809689597668e-38
-43.516110 33.088661 85.685016 -0.794290 0.607539 0.000000 1.5658809689597668e-38
-44.464794 32.306747 85.572810 -0.809017 0.587785 0.000000 1.5658809689597668e-38
-44.902798 30.950398 84.916217 -0.823253 0.567675 0.000000 1.5658809689597668e-38
-34.561352 42.646892 86.609135 -0.622113 0.782928 0.000000 1.5658809689597668e-38
-35.378090 42.128364 86.571056 -0.641213 0.767363 0.000000 1.5658809689597668e-38
-36.407286 40.951574 86.981305 -0.659925 0.751332 0.000000 1.5658809689597668e-38
-37.059210 40.351463 86.614397 -0.678235 0.734845 0.000000 1.5658809689597668e-38
-38.427720 39.179845 85.877721 -0.696134 0.717912 0.000000 1.5658809689597668e-38
-39.304326 38.211258 86.762518 -0.713610 0.700543 0.000000 1.5658809689597668e-38
-40.228449 37.657617 86.520019 -0.730653 0.682749 0.000000 1.5658809689597668e-38
-40.912770 36.414465 86.807875 -0.747253 0.664540 0.000000 1.5658809689597668e-38
-41.480426 35.107577 87.125767 -0.763398 0.645928 0.000000 1.5658809689597668e-38
-42.958875 34.306767 86.439256 -0.779081 0.626924 0.000000 1.5658809689597668e-38
-43.083149 32.981290 86.813201 -0.794290 0.607539 0.000000 1.5658809689597668e-38
-45.005185 32.460992 86.540551 -0.809017 0.587785 0.000000 1.5658809689597668e-38
-45.235303 30.907058 86.577959 -0.823253 0.567675 0.000000 1.5658809689597668e-38
-33.082144 43.497351 88.044006 -0.602635 0.798017 0.000000 1.5658809689597668e-38
-34.198382 43.095074 87.768645 -0.622113 0.782928 0.000000 1.5658809689597668e-38
-36.217656 42.364260 88.011458 -0.641213 0.767363 0.000000 1.5658809689597668e-38
-36.418561 40.873663 87.674427 -0.659925 0.751332 0.000000 1.5658809689597668e-38
-37.000611 40.289978 87.841808 -0.678235 0.734845 0.000000 1.5658809689597668e-38
-38.383513 39.575725 87.439998 -0.696134 0.717912 0.000000 1.5658809689597668e-38
-39.305212 38.854802 87.559930 -0.713610 0.700543 0.000000 1.5658809689597668e-38
-40.264247 37.863218 88.059062 -0.730653 0.682749 0.000000 1.5658809689597668e-38
-40.958962 36.662620 87.946958 -0.747253 0.664540 0.000000 1.5658809689597668e-38
-42.051743 35.853040 87.694493 -0.763398 0.645928 0.000000 1.5658809689597668e-38
-43.143327 34.062103 87.650061 -0.779081 0.626924 0.000000 1.5658809689597668e-38
-43.870280 33.197801 87.482369 -0.794290 0.607539 0.000000 1.5658809689597668e-38
-44.379167 32.040931 87.999588 -0.809017 0.587785 0.000000 1.5658809689597668e-38
-45.057971 31.990810 87.698671 -0.823253 0.567675 0.000000 1.5658809689597668e-38
-46.077587 29.870092 87.483585 -0.836989 0.547220 0.000000 1.5658809689597668e-38
-32.979736 43.970686 89.189001 -0.602635 0.798017 0.000000 1.5658809689597668e-38
-34.015932 42.773738 88.709629 -0.622113 0.782928 0.000000 1.5658809689597668e-38
-35.203090 42.584541 89.112816 -0.641213 0.767363 0.000000 1.5658809689597668e-38
-36.133982 41.344520 89.452307 -0.659925 0.751332 0.000000 1.5658809689597668e-38
-37.442004 40.309929 89.499626 -0.678235 0.734845 0.000000 1.5658809689597668e-38
-38.159688 39.474215 88.943083 -0.696134 0.717912 0.000000 1.5658809689597668e-38
-39.191699 38.350846 89.168324 -0.713610 0.700543 0.000000 1.5658809689597668e-38
-40.362890 37.733682 88.465769 -0.730653 0.682749 0.000000 1.5658809689597668e-38
-41.500218 36.740729 89.387950 -0.747253 0.664540 0.000000 1.5658809689597668e-38
-42.158265 35.854509 88.627695 -0.763398 0.645928 0.000000 1.5658809689597668e-38
-43.118735 34.673179 89.053455 -0.779081 0.626924 0.000000 1.5658809689597668e-38
-43.594514 33.442641 88.998029 -0.794290 0.607539 0.000000 1.5658809689597668e-38
-44.439748 32.268616 88.799867 -0.809017 0.587785 0.000000 1.5658809689597668e-38
-45.281820 31.031165 89.497727 -0.823253 0.567675 0.000000 1.5658809689597668e-38
-46.731767 30.102229 89.560153 -0.836989 0.547220 0.000000 1.5658809689597668e-38
-33.629845 44.440675 90.688571 -0.602635 0.798017 0.000000 1.5658809689597668e-38
-34.761528 43.276309 90.877270 -0.622113 0.782928 0.000000 1.5658809689597668e-38
-35.158812 41.986455 90.659388 -0.641213 0.767363 0.000000 1.5658809689597668e-38
-37.550534 41.767655 90.052243 -0.659925 0.751332 0.000000 1.5658809689597668e-38
-37.399664 40.744838 90.349435 -0.678235 0.734845 0.000000 1.5658809689597668e-38
-38.352571 39.584809 90.129611 -0.696134 0.717912 0.000000 1.5658809689597668e-38
-39.216349 38.774014 90.138405 -0.713610 0.700543 0.000000 1.5658809689597668e-38
-40.492200 37.708038 90.205522 -0.730653 0.682749 0.000000 1.5658809689597668e-38
-41.224554 36.518607 90.765504 -0.747253 0.664540 0.000000 1.5658809689597668e-38
-42.183940 35.198733 90.391796 -0.763398 0.645928 0.000000 1.5658809689597668e-38
-43.398144 34.689511 90.263536 -0.779081 0.626924 0.000000 1.5658809689597668e-38
-43.757487 33.824807 90.375689 -0.794290 0.607539 0.000000 1.5658809689597668e-38
-44.203029 32.314162 90.718977 -0.809017 0.587785 0.000000 1.5658809689597668e-38
-45.145792 31.519764 90.446909 -0.823253 0.567675 0.000000 1.5658809689597668e-38
-46.038839 30.191713 90.157438 -0.836989 0.547220 0.000000 1.5658809689597668e-38
-33.086266 45.223508 91.548053 -0.582791 0.812622 0.000000 1.5658809689597668e-38
-33.225657 44.338211 91.559706 -0.602635 0.798017 0.000000 1.5658809689597668e-38
-34.526521 43.130218 90.992882 -0.622113 0.782928 0.000000 1.5658809689597668e-38
-35.861746 42.268274 91.532652 -0.641213 0.767363 0.000000 1.5658809689597668e-38
-37.124692 41.566368 92.125229 -0.659925 0.751332 0.000000 1.5658809689597668e-38
-37.673644 40.808310 91.551042 -0.678235 0.734845 0.000000 1.5658809689597668e-38
-38.581317 39.695941 91.496848 -0.696134 0.717912 0.000000 1.5658809689597668e-38
-39.777661 38.441785 91.898288 -0.713610 0.700543 0.000000 1.5658809689597668e-38
-40.825833 38.382025 91.316961 -0.730653 0.682749 0.000000 1.5658809689597668e-38
-41.890246 37.471785 91.102498 -0.747253 0.664540 0.000000 1.5658809689597668e-38
-43.058372 35.423876 91.505030 -0.763398 0.645928 0.000000 1.5658809689597668e-38
-43.650897 34.634014 90.936361 -0.779081 0.626924 0.000000 1.5658809689597668e-38
-43.767649 33.852634 91.166635 -0.794290 0.607539 0.000000 1.5658809689597668e-38
-45.606101 32.358943 91.741445 -0.809017 0.587785 0.000000 1.5658809689597668e-38
-45.378718 31.442985 91.395957 -0.823253 0.567675 0.000000 1.5658809689597668e-38
-46.637850 30.469431 91.810847 -0.836989 0.547220 0.000000 1.5658809689597668e-38
-47.241556 29.111982 91.780615 -0.850217 0.526432 0.000000 1.5658809689597668e-38
-32.759396 45.026044 92.802808 -0.582791 0.812622 0.000000 1.5658809689597668e-38
-33.442344 44.914076 93.254175 -0.602635 0.798017 0.000000 1.5658809689597668e-38
-34.700919 43.430377 92.549019 -0.622113 0.782928 0.000000 1.5658809689597668e-38
-35.506431 43.047154 92.803988 -0.641213 0.767363 0.000000 1.5658809689597668e-38
-36.741892 42.464583 92.987503 -0.659925 0.751332 0.000000 1.5658809689597668e-38
-38.376845 40.902466 92.843946 -0.678235 0.734845 0.000000 1.5658809689597668e-38
-38.838330 40.348521 92.684572 -0.696134 0.717912 0.000000 1.5658809689597668e-38
-40.025894 38.789923 92.985855 -0.713610 0.700543 0.000000 1.5658809689597668e-38
-41.085834 37.864390 93.037664 -0.730653 0.682749 0.000000 1.5658809689597668e-38
-42.011649 36.687323 92.274977 -0.747253 0.664540 0.000000 1.5658809689597668e-38
-42.771130 35.805532 92.712327 -0.763398 0.645928 0.000000 1.5658809689597668e-38
-43.650599 34.789538 93.077407 -0.779081 0.626924 0.000000 1.5658809689597668e-38
-44.122187 34.465265 92.581602 -0.794290 0.607539 0.000000 1.5658809689597668e-38
-45.177059 32.771399 92.629163 -0.809017 0.587785 0.000000 1.5658809689597668e-38
-45.842869 31.030182 92.672296 -0.823253 0.567675 0.000000 1.5658809689597668e-38
-46.336341 31.037740 93.218142 -0.836989 0.547220 0.000000 1.5658809689597668e-38
-47.298369 29.453649 92.882655 -0.850217 0.526432 0.000000 1.5658809689597668e-38
-32.579193 45.730422 93.780486 -0.582791 0.812622 0.000000 1.5658809689597668e-38
-33.718139 44.389219 94.216451 -0.602635 0.798017 0.000000 1.5658809689597668e-38
-34.860914 43.831791 94.265518 -0.622113 0.782928 0.000000 1.5658809689597668e-38
-35.951733 42.363233 93.953051 -0.641213 0.767363 0.000000 1.5658809689597668e-38
-37.083026 41.754999 93.279269 -0.659925 0.751332 0.000000 1.5658809689597668e-38
-38.352764 41.267227 93.739392 -0.678235 0.734845 0.000000 1.5658809689597668e-38
-38.519172 39.867156 94.166510 -0.696134 0.717912 0.000000 1.5658809689597668e-38
-39.917631 39.307008 93.944579 -0.713610 0.700543 0.000000 1.5658809689597668e-38
-40.729221 38.487898 94.161936 -0.730653 0.682749 0.000000 1.5658809689597668e-38
-41.926424 36.540085 93.987935 -0.747253 0.664540 0.000000 1.5658809689597668e-38
-42.492307 36.109095 93.757267 -0.763398 0.645928 0.000000 1.5658809689597668e-38
-43.451458 35.199822 94.438682 -0.779081 0.626924 0.000000 1.5658809689597668e-38
-44.413901 34.656679 94.456595 -0.794290 0.607539 0.000000 1.5658809689597668e-38
-45.117859 32.895209 94.437296 -0.809017 0.587785 0.000000 1.5658809689597668e-38
-46.252127 31.453230 93.634232 -0.823253 0.567675 0.000000 1.5658809689597668e-38
-46.806601 30.293887 93.914132 -0.836989 0.547220 0.000000 1.5658809689597668e-38
-47.478998 28.977773 94.430487 -0.850217 0.526432 0.000000 1.5658809689597668e-38
-32.314322 45.407346 94.913639 -0.582791 0.812622 0.000000 1.5658809689597668e-38
-32.935530 44.828558 95.325443 -0.602635 0.798017 0.000000 1.5658809689597668e-38
-34.584639 43.437967 95.120801 -0.622113 0.782928 0.000000 1.5658809689597668e-38
-36.208548 43.007667 94.844295 -0.641213 0.767363 0.000000 1.5658809689597668e-38
-36.740987 42.415237 95.601753 -0.659925 0.751332 0.000000 1.5658809689597668e-38
-37.836034 41.194892 95.132336 -0.678235 0.734845 0.000000 1.5658809689597668e-38
-38.835586 40.156356 94.696840 -0.696134 0.717912 0.000000 1.5658809689597668e-38
-40.133505 39.454666 94.920012 -0.713610 0.700543 0.000000 1.5658809689597668e-38
-41.246179 38.160933 94.607060 -0.730653 0.682749 0.000000 1.5658809689597668e-38
-41.612931 37.393859 95.541884 -0.747253 0.664540 0.000000 1.5658809689597668e-38
-42.669291 35.903718 94.888714 -0.763398 0.645928 0.000000 1.5658809689597668e-38
-43.448283 35.310341 94.922702 -0.779081 0.626924 0.000000 1.5658809689597668e-38
-44.840203 34.004819 95.298712 -0.794290 0.607539 0.000000 1.5658809689597668e-38
-45.008974 33.103416 95.233722 -0.809017 0.587785 0.000000 1.5658809689597668e-38
-45.775723 31.674034 95.165166 -0.823253 0.567675 0.000000 1.5658809689597668e-38
-46.600859 30.921068 95.552850 -0.836989 0.547220 0.000000 1.5658809689597668e-38
-47.649701 29.491589 94.997826 -0.850217 0.526432 0.000000 1.5658809689597668e-38
-48.037490 28.111127 94.658763 -0.862929 0.505325 0.000000 1.5658809689597668e-38
-33.624336 44.728676 96.626834 -0.602635 0.798017 0.000000 1.5658809689597668e-38
-35.240355 43.477519 96.908051 -0.622113 0.782928 0.000000 1.5658809689597668e-38
-36.386624 43.512725 96.383544 -0.641213 0.767363 0.000000 1.5658809689597668e-38
-37.285874 42.013001 96.975498 -0.659925 0.751332 0.000000 1.5658809689597668e-38
-38.274973 41.127978 96.787419 -0.678235 0.734845 0.000000 1.5658809689597668e-38
-38.927855 40.915496 96.844437 -0.696134 0.717912 0.000000 1.5658809689597668e-38
-40.259700 39.708207 95.918184 -0.713610 0.700543 0.000000 1.5658809689597668e-38
-40.776273 38.122351 96.673530 -0.730653 0.682749 0.000000 1.5658809689597668e-38
-41.349913 36.795684 96.771720 -0.747253 0.664540 0.000000 1.5658809689597668e-38
-42.593099 36.450288 96.200789 -0.763398 0.645928 0.000000 1.5658809689597668e-38
-43.752146 34.896698 96.623845 -0.779081 0.626924 0.000000 1.5658809689597668e-38
-44.970201 33.966471 96.683875 -0.794290 0.607539 0.000000 1.5658809689597668e-38
-45.625278 32.870113 96.222890 -0.809017 0.587785 0.000000 1.5658809689597668e-38
-46.127426 31.819010 96.275053 -0.823253 0.567675 0.000000 1.5658809689597668e-38
-47.164574 30.759702 96.177379 -0.836989 0.547220 0.000000 1.5658809689597668e-38
-47.731067 29.555555 96.541683 -0.850217 0.526432 0.000000 1.5658809689597668e-38
-48.590308 28.542511 96.783327 -0.862929 0.505325 0.000000 1.5658809689597668e-38
-33.839347 45.420248 97.693082 -0.602635 0.798017 0.000000 1.5658809689597668e-38
-34.933478 43.809335 97.691640 -0.622113 0.782928 0.000000 1.5658809689597668e-38
-36.897786 43.250666 98.033017 -0.641213 0.767363 0.000000 1.5658809689597668e-38
-36.620483 42.415133 97.622341 -0.659925 0.751332 0.000000 1.5658809689597668e-38
-38.404761 41.200675 97.252412 -0.678235 0.734845 0.000000 1.5658809689597668e-38
-39.240888 40.022901 97.552791 -0.696134 0.717912 0.000000 1.5658809689597668e-38
-40.209873 39.512210 97.236620 -0.713610 0.700543 0.000000 1.5658809689597668e-38
-41.210363 38.618084 98.151883 -0.730653 0.682749 0.000000 1.5658809689597668e-38
-42.063632 38.046993 97.942046 -0.747253 0.664540 0.000000 1.5658809689597668e-38
-42.931210 36.713722 97.579831 -0.763398 0.645928 0.000000 1.5658809689597668e-38
-44.146377 35.550154 97.891160 -0.779081 0.626924 0.000000 1.5658809689597668e-38
-44.374440 34.487219 98.335052 -0.794290 0.607539 0.000000 1.5658809689597668e-38
-45.951706 32.963161 97.645595 -0.809017 0.587785 0.000000 1.5658809689597668e-38
-45.967195 32.049890 98.083136 -0.823253 0.567675 0.000000 1.5658809689597668e-38
-47.005079 30.781691 97.936174 -0.836989 0.547220 0.000000 1.5658809689597668e-38
-47.755860 29.734638 97.927526 -0.850217 0.526432 0.000000 1.5658809689597668e-38
-48.419306 28.725030 97.747500 -0.862929 0.505325 0.000000 1.5658809689597668e-38
-49.184259 26.925170 98.026881 -0.875117 0.483911 0.000000 1.5658809689597668e-38
