# .PCD v0.7 - Point Cloud Data file format
VERSION 0.7
FIELDS x y z normal_x normal_y normal_z rgb
SIZE 4 4 4 4 4 4 4
TYPE F F F F F F F
COUNT 1 1 1 1 1 1 1
WIDTH 187
HEIGHT 1
VIEWPOINT 0 0 0 1 0 0 0
POINTS 187
DATA ascii
47.739588 2.876134 50.707226 0.907167 0.044741 0.418385 1.6580765988230895e-38
47.058197 3.378742 50.421214 0.905790 0.067078 0.418385 1.6580765988230895e-38
47.636761 2.624625 51.894726 0.887723 0.043782 0.458292 1.6580765988230895e-38
47.279079 3.352156 51.610114 0.886375 0.065640 0.458292 1.6580765988230895e-38
47.750214 4.493803 52.047261 0.884488 0.087458 0.458292 1.6580765988230895e-38
46.507424 6.036095 51.597006 0.882065 0.109223 0.458292 1.6580765988230895e-38
47.307890 7.509642 52.128455 0.879106 0.130922 0.458292 1.6580765988230895e-38
46.653026 8.065222 51.944500 0.875614 0.152541 0.458292 1.6580765988230895e-38
46.536342 1.618068 53.495141 0.869757 0.021435 0.493015 1.6580765988230895e-38
46.067762 1.991258 53.155004 0.868965 0.042857 0.493015 1.6580765988230895e-38
46.368274 2.992782 53.230618 0.867645 0.064253 0.493015 1.6580765988230895e-38
45.860965 4.628478 53.414869 0.865798 0.085610 0.493015 1.6580765988230895e-38
46.559035 5.689543 53.649121 0.863426 0.106915 0.493015 1.6580765988230895e-38
46.241406 7.125490 52.974997 0.860530 0.128156 0.493015 1.6580765988230895e-38
46.415100 8.005588 53.668908 0.857112 0.149318 0.493015 1.6580765988230895e-38
46.154846 9.213640 53.317582 0.853173 0.170390 0.493015 1.6580765988230895e-38
45.454436 10.014919 53.374436 0.848716 0.191358 0.493015 1.6580765988230895e-38
45.405019 10.893169 53.171043 0.843743 0.212210 0.493015 1.6580765988230895e-38
45.759770 1.234914 54.779363 0.852164 0.021002 0.522853 1.6580765988230895e-38
45.934358 2.231007 54.226816 0.851388 0.041990 0.522853 1.6580765988230895e-38
46.571840 3.124059 54.137982 0.850095 0.062954 0.522853 1.6580765988230895e-38
45.746786 4.458003 54.739978 0.848286 0.083879 0.522853 1.6580765988230895e-38
45.889493 5.278792 54.206320 0.845962 0.104753 0.522853 1.6580765988230895e-38
45.156871 6.999513 54.561492 0.843124 0.125563 0.522853 1.6580765988230895e-38
45.127609 7.946042 54.095111 0.839775 0.146298 0.522853 1.6580765988230895e-38
44.808388 8.603299 54.476637 0.835915 0.166943 0.522853 1.6580765988230895e-38
44.838421 9.804717 54.559352 0.831549 0.187487 0.522853 1.6580765988230895e-38
44.850610 10.891474 54.335093 0.826677 0.207918 0.522853 1.6580765988230895e-38
44.398089 12.292500 54.021378 0.821304 0.228222 0.522853 1.6580765988230895e-38
43.795433 13.238544 54.381864 0.815431 0.248387 0.522853 1.6580765988230895e-38
43.546318 14.928744 54.370438 0.809064 0.268402 0.522853 1.6580765988230895e-38
42.699782 15.555707 54.957315 0.802206 0.288254 0.522853 1.6580765988230895e-38
45.387521 1.145167 56.263053 0.836128 0.020606 0.548147 1.6580765988230895e-38
45.084284 2.628065 55.962992 0.835367 0.041200 0.548147 1.6580765988230895e-38
45.469451 3.924974 55.141702 0.834098 0.061769 0.548147 1.6580765988230895e-38
44.995621 4.407747 55.703533 0.832323 0.082300 0.548147 1.6580765988230895e-38
44.673795 5.383540 55.340227 0.830043 0.102782 0.548147 1.6580765988230895e-38
44.671980 6.928684 55.521994 0.827258 0.123201 0.548147 1.6580765988230895e-38
44.366860 7.536923 55.371798 0.823972 0.143545 0.548147 1.6580765988230895e-38
44.190221 8.942473 56.047307 0.820185 0.163802 0.548147 1.6580765988230895e-38
43.672215 9.918189 56.023544 0.815901 0.183959 0.548147 1.6580765988230895e-38
43.418246 11.389179 55.538417 0.811121 0.204005 0.548147 1.6580765988230895e-38
43.700777 12.018740 55.807728 0.805848 0.223927 0.548147 1.6580765988230895e-38
43.659164 13.115486 55.969053 0.800087 0.243713 0.548147 1.6580765988230895e-38
42.921707 13.975870 55.626427 0.793839 0.263351 0.548147 1.6580765988230895e-38
42.413742 14.839270 55.807815 0.787110 0.282830 0.548147 1.6580765988230895e-38
42.284634 16.548402 56.099040 0.779903 0.302136 0.548147 1.6580765988230895e-38
41.958939 17.155750 55.553043 0.772222 0.321259 0.548147 1.6580765988230895e-38
41.484608 18.475018 55.664755 0.764073 0.340187 0.548147 1.6580765988230895e-38
40.505751 19.209193 55.844946 0.755460 0.358909 0.548147 1.6580765988230895e-38
44.563868 1.369588 57.095698 0.821920 0.020256 0.569242 1.6580765988230895e-38
44.024020 1.861020 57.068006 0.821172 0.040500 0.569242 1.6580765988230895e-38
43.914103 3.179343 57.779170 0.819925 0.060719 0.569242 1.6580765988230895e-38
44.724616 4.597031 56.708536 0.818180 0.080902 0.569242 1.6580765988230895e-38
43.748452 5.658802 57.356314 0.815938 0.101035 0.569242 1.6580765988230895e-38
43.664185 6.388562 56.933530 0.813201 0.121107 0.569242 1.6580765988230895e-38
43.226911 7.195660 56.554415 0.809971 0.141105 0.569242 1.6580765988230895e-38
43.606847 8.757734 57.248302 0.806248 0.161018 0.569242 1.6580765988230895e-38
42.694926 9.288754 57.043933 0.802037 0.180833 0.569242 1.6580765988230895e-38
42.701295 10.565775 57.211042 0.797338 0.200539 0.569242 1.6580765988230895e-38
42.517756 11.730046 56.832189 0.792155 0.220122 0.569242 1.6580765988230895e-38
42.321637 13.114317 56.544215 0.786491 0.239572 0.569242 1.6580765988230895e-38
41.991123 14.297726 57.547042 0.780350 0.258876 0.569242 1.6580765988230895e-38
41.284135 15.080027 56.850183 0.773735 0.278024 0.569242 1.6580765988230895e-38
41.279746 15.766466 57.133958 0.766651 0.297002 0.569242 1.6580765988230895e-38
41.113912 17.773104 56.510893 0.759100 0.315800 0.569242 1.6580765988230895e-38
39.946538 18.635230 56.891649 0.751090 0.334407 0.569242 1.6580765988230895e-38
39.877649 19.066913 56.488761 0.742623 0.352810 0.569242 1.6580765988230895e-38
39.646932 19.966452 57.229350 0.733705 0.370999 0.569242 1.6580765988230895e-38
39.286761 21.240583 56.964467 0.724342 0.388963 0.569242 1.6580765988230895e-38
38.982750 22.086589 56.747280 0.714539 0.406691 0.569242 1.6580765988230895e-38
43.262590 1.225278 57.864422 0.809730 0.019956 0.586464 1.6580765988230895e-38
43.231693 2.268781 58.106858 0.808992 0.039899 0.586464 1.6580765988230895e-38
42.729553 3.202432 57.903798 0.807764 0.059819 0.586464 1.6580765988230895e-38
43.567921 4.564290 57.459451 0.806045 0.079702 0.586464 1.6580765988230895e-38
43.335549 5.453120 57.699117 0.803836 0.099537 0.586464 1.6580765988230895e-38
43.214042 6.012498 58.487943 0.801140 0.119311 0.586464 1.6580765988230895e-38
42.586058 6.997299 58.780554 0.797957 0.139013 0.586464 1.6580765988230895e-38
42.119414 8.262632 57.961354 0.794290 0.158630 0.586464 1.6580765988230895e-38
42.224159 9.760636 58.161703 0.790141 0.178151 0.586464 1.6580765988230895e-38
42.413979 10.703341 57.642430 0.785512 0.197564 0.586464 1.6580765988230895e-38
42.003908 11.696242 57.956941 0.780406 0.216857 0.586464 1.6580765988230895e-38
42.161931 12.835881 58.426848 0.774826 0.236019 0.586464 1.6580765988230895e-38
41.508429 13.546954 58.334345 0.768776 0.255037 0.586464 1.6580765988230895e-38
40.960887 14.517156 57.777855 0.762259 0.273900 0.586464 1.6580765988230895e-38
40.499161 15.862721 58.149203 0.755280 0.292597 0.586464 1.6580765988230895e-38
40.038428 16.687705 58.058236 0.747842 0.311116 0.586464 1.6580765988230895e-38
40.134807 17.743299 57.998391 0.739949 0.329447 0.586464 1.6580765988230895e-38
38.680409 18.575071 57.971283 0.731608 0.347577 0.586464 1.6580765988230895e-38
38.567623 19.877711 58.168251 0.722823 0.365497 0.586464 1.6580765988230895e-38
37.752545 20.729374 57.669719 0.713598 0.383194 0.586464 1.6580765988230895e-38
37.947517 21.337528 58.170402 0.703941 0.400659 0.586464 1.6580765988230895e-38
37.191380 22.358898 58.207187 0.693856 0.417881 0.586464 1.6580765988230895e-38
36.660164 23.873939 58.211514 0.683350 0.434849 0.586464 1.6580765988230895e-38
36.124261 23.995695 58.258598 0.672429 0.451553 0.586464 1.6580765988230895e-38
35.135648 25.434424 57.699025 0.661099 0.467983 0.586464 1.6580765988230895e-38
42.455502 1.371050 59.435018 0.799683 0.019708 0.600099 1.6580765988230895e-38
41.980615 1.550265 59.933676 0.798955 0.039404 0.600099 1.6580765988230895e-38
41.881537 3.089436 59.646378 0.797742 0.059077 0.600099 1.6580765988230895e-38
41.776052 3.858700 59.007421 0.796044 0.078713 0.600099 1.6580765988230895e-38
42.729868 5.829642 59.161192 0.793863 0.098302 0.600099 1.6580765988230895e-38
42.221862 6.354471 59.297205 0.791200 0.117830 0.600099 1.6580765988230895e-38
41.392935 7.988347 58.836639 0.788057 0.137288 0.600099 1.6580765988230895e-38
41.752129 8.131454 59.683862 0.784435 0.156662 0.600099 1.6580765988230895e-38
41.724502 9.056660 59.144405 0.780337 0.175941 0.600099 1.6580765988230895e-38
40.762717 10.427639 59.594706 0.775766 0.195113 0.600099 1.6580765988230895e-38
40.827278 11.308356 59.953797 0.770723 0.214167 0.600099 1.6580765988230895e-38
40.947796 12.791817 58.708830 0.765213 0.233090 0.600099 1.6580765988230895e-38
40.513542 13.461068 59.005848 0.759238 0.251872 0.600099 1.6580765988230895e-38
39.694179 14.310168 58.978845 0.752802 0.270502 0.600099 1.6580765988230895e-38
39.401413 15.218536 59.553499 0.745909 0.288967 0.600099 1.6580765988230895e-38
39.038591 16.194835 59.688744 0.738563 0.307256 0.600099 1.6580765988230895e-38
38.307136 17.359271 59.498264 0.730769 0.325359 0.600099 1.6580765988230895e-38
38.523665 18.092260 59.061984 0.722531 0.343265 0.600099 1.6580765988230895e-38
38.393362 18.926225 59.046334 0.713854 0.360962 0.600099 1.6580765988230895e-38
37.459428 19.890297 59.696684 0.704745 0.378440 0.600099 1.6580765988230895e-38
36.866937 21.382826 59.516076 0.695207 0.395688 0.600099 1.6580765988230895e-38
36.300718 22.266773 59.186192 0.685247 0.412696 0.600099 1.6580765988230895e-38
35.769721 22.981885 59.449431 0.674871 0.429454 0.600099 1.6580765988230895e-38
35.090468 23.238945 59.375850 0.664086 0.445950 0.600099 1.6580765988230895e-38
34.479821 24.571069 59.255151 0.652897 0.462176 0.600099 1.6580765988230895e-38
41.159490 5.743100 61.065765 0.786100 0.097340 0.610387 1.6580765988230895e-38
41.152024 6.055003 60.563155 0.783463 0.116678 0.610387 1.6580765988230895e-38
40.773447 7.172124 60.824821 0.780351 0.135945 0.610387 1.6580765988230895e-38
40.360591 8.334219 60.898622 0.776764 0.155130 0.610387 1.6580765988230895e-38
40.724130 9.104287 60.777746 0.772707 0.174220 0.610387 1.6580765988230895e-38
40.704685 10.122146 60.625640 0.768180 0.193205 0.610387 1.6580765988230895e-38
40.692613 11.221956 60.316369 0.763186 0.212072 0.610387 1.6580765988230895e-38
40.028373 12.233787 60.421932 0.757730 0.230811 0.610387 1.6580765988230895e-38
39.124787 13.160852 60.600526 0.751813 0.249409 0.610387 1.6580765988230895e-38
38.748234 14.030852 60.573125 0.745440 0.267856 0.610387 1.6580765988230895e-38
38.744571 15.164458 60.089989 0.738615 0.286141 0.610387 1.6580765988230895e-38
38.047911 15.821368 61.016410 0.731341 0.304252 0.610387 1.6580765988230895e-38
38.686836 16.909681 60.632220 0.723623 0.322178 0.610387 1.6580765988230895e-38
36.815388 18.110078 60.753450 0.715465 0.339908 0.610387 1.6580765988230895e-38
37.182440 18.384557 61.212523 0.706874 0.357432 0.610387 1.6580765988230895e-38
37.080242 19.755021 60.916155 0.697853 0.374739 0.610387 1.6580765988230895e-38
36.143757 20.809392 60.226381 0.688409 0.391819 0.610387 1.6580765988230895e-38
34.928723 21.066092 60.376612 0.678546 0.408660 0.610387 1.6580765988230895e-38
34.878559 22.452223 60.541355 0.668272 0.425254 0.610387 1.6580765988230895e-38
34.502529 22.819707 60.237207 0.657592 0.441589 0.610387 1.6580765988230895e-38
33.942009 23.855690 60.619926 0.646513 0.457657 0.610387 1.6580765988230895e-38
39.833514 7.846362 62.152763 0.771327 0.154044 0.617516 1.6580765988230895e-38
39.390245 8.909803 61.508650 0.767297 0.173001 0.617516 1.6580765988230895e-38
39.600598 10.274500 61.575006 0.762802 0.191852 0.617516 1.6580765988230895e-38
39.078935 10.727966 62.178268 0.757844 0.210588 0.617516 1.6580765988230895e-38
39.270470 11.688901 60.928318 0.752425 0.229195 0.617516 1.6580765988230895e-38
38.887902 12.799617 61.870356 0.746550 0.247663 0.617516 1.6580765988230895e-38
38.504460 13.622580 61.666587 0.740222 0.265981 0.617516 1.6580765988230895e-38
37.758717 14.815871 62.119360 0.733444 0.284138 0.617516 1.6580765988230895e-38
37.982471 15.718618 61.812282 0.726221 0.302122 0.617516 1.6580765988230895e-38
37.362717 16.225208 62.281487 0.718557 0.319922 0.617516 1.6580765988230895e-38
36.742085 17.356937 61.565263 0.710457 0.337528 0.617516 1.6580765988230895e-38
36.426299 18.239739 61.827385 0.701925 0.354930 0.617516 1.6580765988230895e-38
35.274404 19.080775 61.685121 0.692968 0.372116 0.617516 1.6580765988230895e-38
35.417157 20.006477 61.061008 0.683589 0.389076 0.617516 1.6580765988230895e-38
34.661485 20.513823 61.542817 0.673796 0.405800 0.617516 1.6580765988230895e-38
34.560436 21.294152 61.944123 0.663594 0.422277 0.617516 1.6580765988230895e-38
33.559588 22.428280 61.561873 0.652988 0.438498 0.617516 1.6580765988230895e-38
38.318281 9.793908 63.284611 0.754723 0.209721 0.621619 1.6580765988230895e-38
37.948831 11.625539 63.446662 0.749327 0.228251 0.621619 1.6580765988230895e-38
37.078762 12.101778 63.071712 0.743476 0.246644 0.621619 1.6580765988230895e-38
36.599383 13.337871 63.346603 0.737174 0.264886 0.621619 1.6580765988230895e-38
37.073291 14.339870 63.022966 0.730424 0.282968 0.621619 1.6580765988230895e-38
36.462007 15.076642 63.161401 0.723231 0.300878 0.621619 1.6580765988230895e-38
35.738955 16.558093 62.871492 0.715598 0.318605 0.621619 1.6580765988230895e-38
35.963402 17.030354 62.746692 0.707531 0.336139 0.621619 1.6580765988230895e-38
35.754041 18.207447 62.621585 0.699035 0.353468 0.621619 1.6580765988230895e-38
34.892844 18.811123 62.471382 0.690114 0.370584 0.621619 1.6580765988230895e-38
33.806228 19.353338 62.698817 0.680775 0.387474 0.621619 1.6580765988230895e-38
33.635901 20.052142 63.056065 0.671021 0.404129 0.621619 1.6580765988230895e-38
33.167231 21.610458 63.146865 0.660861 0.420538 0.621619 1.6580765988230895e-38
33.138866 21.587080 62.904316 0.650300 0.436692 0.621619 1.6580765988230895e-38
35.520871 14.716662 64.301659 0.729568 0.282636 0.622774 1.6580765988230895e-38
35.373183 14.970447 63.591325 0.722383 0.300525 0.622774 1.6580765988230895e-38
35.205357 15.657387 63.950035 0.714759 0.318231 0.622774 1.6580765988230895e-38
34.717901 17.041860 64.384872 0.706702 0.335745 0.622774 1.6580765988230895e-38
34.608090 17.203002 63.932877 0.698216 0.353054 0.622774 1.6580765988230895e-38
33.975810 17.546172 64.000853 0.689305 0.370149 0.622774 1.6580765988230895e-38
33.211585 18.505138 64.524662 0.679977 0.387019 0.622774 1.6580765988230895e-38
33.066999 19.752570 64.531202 0.670235 0.403655 0.622774 1.6580765988230895e-38
32.111587 20.344996 64.665095 0.660086 0.420045 0.622774 1.6580765988230895e-38
32.768214 21.750340 64.471368 0.649537 0.436181 0.622774 1.6580765988230895e-38
34.149751 16.242251 65.794334 0.707972 0.336348 0.621004 1.6580765988230895e-38
33.393906 17.093797 65.485864 0.699470 0.353689 0.621004 1.6580765988230895e-38
32.980629 17.921195 65.612846 0.690544 0.370814 0.621004 1.6580765988230895e-38
33.047982 18.638587 65.748181 0.681199 0.387715 0.621004 1.6580765988230895e-38
