# .PCD v0.7 - Point Cloud Data file format
VERSION 0.7
FIELDS x y z normal_x normal_y normal_z rgb
SIZE 4 4 4 4 4 4 4
TYPE F F F F F F F
COUNT 1 1 1 1 1 1 1
WIDTH 242
HEIGHT 1
VIEWPOINT 0 0 0 1 0 0 0
POINTS 242
DATA ascii
-18.408111 -52.101384 91.871537 -0.343949 -0.938988 0.000000 1.7962614429870884e-38
-19.397373 -52.392674 92.447637 -0.343949 -0.938988 0.000000 1.7962614429870884e-38
-18.021705 -52.081094 92.562569 -0.320710 -0.947177 0.000000 1.7962614429870884e-38
-20.522584 -52.182268 94.499895 -0.366979 -0.930229 0.000000 1.7962614429870884e-38
-19.060541 -52.515346 93.783565 -0.343949 -0.938988 0.000000 1.7962614429870884e-38
-17.636063 -52.902815 94.313855 -0.320710 -0.947177 0.000000 1.7962614429870884e-38
-16.873952 -53.216307 93.876680 -0.297277 -0.954791 0.000000 1.7962614429870884e-38
-20.914487 -52.045467 95.706617 -0.366979 -0.930229 0.000000 1.7962614429870884e-38
-18.829802 -52.450733 95.304748 -0.343949 -0.938988 0.000000 1.7962614429870884e-38
-17.714328 -52.626067 95.292850 -0.320710 -0.947177 0.000000 1.7962614429870884e-38
-16.596377 -53.388938 95.560613 -0.297277 -0.954791 0.000000 1.7962614429870884e-38
-15.730422 -53.838873 95.377912 -0.273663 -0.961826 0.000000 1.7962614429870884e-38
-19.925143 -52.090776 96.303778 -0.366979 -0.930229 0.000000 1.7962614429870884e-38
-19.536998 -52.748603 96.697664 -0.343949 -0.938988 0.000000 1.7962614429870884e-38
-18.447689 -53.252532 96.534330 -0.320710 -0.947177 0.000000 1.7962614429870884e-38
-16.218185 -53.028415 96.455364 -0.297277 -0.954791 0.000000 1.7962614429870884e-38
-15.691633 -53.939678 96.547633 -0.273663 -0.961826 0.000000 1.7962614429870884e-38
-13.668652 -54.476851 96.198144 -0.249883 -0.968276 0.000000 1.7962614429870884e-38
-20.848955 -52.356485 97.901330 -0.366979 -0.930229 0.000000 1.7962614429870884e-38
-19.218075 -52.591590 97.391662 -0.343949 -0.938988 0.000000 1.7962614429870884e-38
-18.281476 -53.677483 97.809554 -0.320710 -0.947177 0.000000 1.7962614429870884e-38
-16.781342 -53.776088 97.527762 -0.297277 -0.954791 0.000000 1.7962614429870884e-38
-15.649647 -54.112920 98.064167 -0.273663 -0.961826 0.000000 1.7962614429870884e-38
-13.588499 -54.005106 97.591432 -0.249883 -0.968276 0.000000 1.7962614429870884e-38
-13.067199 -54.541107 98.114344 -0.225951 -0.974139 0.000000 1.7962614429870884e-38
-11.232866 -55.109667 97.543897 -0.201882 -0.979410 0.000000 1.7962614429870884e-38
-20.797484 -52.367456 99.304380 -0.366979 -0.930229 0.000000 1.7962614429870884e-38
-18.766828 -52.898584 99.528058 -0.343949 -0.938988 0.000000 1.7962614429870884e-38
-17.897508 -53.613392 99.004743 -0.320710 -0.947177 0.000000 1.7962614429870884e-38
-16.533144 -53.588248 98.825187 -0.297277 -0.954791 0.000000 1.7962614429870884e-38
-15.539123 -54.339462 98.909786 -0.273663 -0.961826 0.000000 1.7962614429870884e-38
-13.999696 -54.036239 98.842724 -0.249883 -0.968276 0.000000 1.7962614429870884e-38
-13.233634 -55.444441 99.214117 -0.225951 -0.974139 0.000000 1.7962614429870884e-38
-11.548018 -55.149624 98.756804 -0.201882 -0.979410 0.000000 1.7962614429870884e-38
-10.064752 -55.591744 98.763026 -0.177691 -0.984086 0.000000 1.7962614429870884e-38
-22.152567 -51.739586 100.958366 -0.389786 -0.920906 0.000000 1.7962614429870884e-38
-20.668173 -52.830834 100.244294 -0.366979 -0.930229 0.000000 1.7962614429870884e-38
-19.495024 -53.047104 100.421313 -0.343949 -0.938988 0.000000 1.7962614429870884e-38
-17.875564 -54.131477 100.563171 -0.320710 -0.947177 0.000000 1.7962614429870884e-38
-16.718610 -54.132422 100.426431 -0.297277 -0.954791 0.000000 1.7962614429870884e-38
-15.781296 -54.659062 100.523879 -0.273663 -0.961826 0.000000 1.7962614429870884e-38
-14.102114 -54.252141 100.000343 -0.249883 -0.968276 0.000000 1.7962614429870884e-38
-12.682312 -54.937550 100.327952 -0.225951 -0.974139 0.000000 1.7962614429870884e-38
-11.223227 -55.213790 100.211939 -0.201882 -0.979410 0.000000 1.7962614429870884e-38
-10.624748 -55.356720 99.494043 -0.177691 -0.984086 0.000000 1.7962614429870884e-38
-9.039093 -56.057912 100.477143 -0.153392 -0.988165 0.000000 1.7962614429870884e-38
-21.734770 -52.035793 101.498323 -0.389786 -0.920906 0.000000 1.7962614429870884e-38
-21.213216 -52.334343 101.548382 -0.366979 -0.930229 0.000000 1.7962614429870884e-38
-19.612203 -53.078977 101.860566 -0.343949 -0.938988 0.000000 1.7962614429870884e-38
-17.948014 -53.050187 101.705605 -0.320710 -0.947177 0.000000 1.7962614429870884e-38
-17.414263 -53.693667 100.920335 -0.297277 -0.954791 0.000000 1.7962614429870884e-38
-15.092860 -54.204785 101.947288 -0.273663 -0.961826 0.000000 1.7962614429870884e-38
-14.018561 -54.749754 101.814895 -0.249883 -0.968276 0.000000 1.7962614429870884e-38
-13.149163 -55.155535 101.374296 -0.225951 -0.974139 0.000000 1.7962614429870884e-38
-11.561893 -55.637355 101.490715 -0.201882 -0.979410 0.000000 1.7962614429870884e-38
-9.847542 -55.284799 101.357860 -0.177691 -0.984086 0.000000 1.7962614429870884e-38
-8.797167 -56.808297 101.882652 -0.153392 -0.988165 0.000000 1.7962614429870884e-38
-7.712919 -56.014909 101.531070 -0.128999 -0.991645 0.000000 1.7962614429870884e-38
-22.351832 -52.544400 102.698901 -0.389786 -0.920906 0.000000 1.7962614429870884e-38
-20.769138 -53.113805 102.697893 -0.366979 -0.930229 0.000000 1.7962614429870884e-38
-19.461045 -53.022793 102.647106 -0.343949 -0.938988 0.000000 1.7962614429870884e-38
-18.806187 -53.669257 102.173211 -0.320710 -0.947177 0.000000 1.7962614429870884e-38
-17.123111 -54.582132 102.828573 -0.297277 -0.954791 0.000000 1.7962614429870884e-38
-15.854073 -54.276246 102.333035 -0.273663 -0.961826 0.000000 1.7962614429870884e-38
-14.782958 -55.046428 102.282041 -0.249883 -0.968276 0.000000 1.7962614429870884e-38
-12.425985 -55.478571 103.026674 -0.225951 -0.974139 0.000000 1.7962614429870884e-38
-11.547012 -55.466950 102.521604 -0.201882 -0.979410 0.000000 1.7962614429870884e-38
-9.369421 -56.183816 101.764751 -0.177691 -0.984086 0.000000 1.7962614429870884e-38
-8.625711 -56.378104 102.741702 -0.153392 -0.988165 0.000000 1.7962614429870884e-38
-7.340485 -56.426861 102.558328 -0.128999 -0.991645 0.000000 1.7962614429870884e-38
-5.808394 -56.539679 102.634585 -0.104528 -0.994522 0.000000 1.7962614429870884e-38
-22.266224 -52.741786 103.944937 -0.389786 -0.920906 0.000000 1.7962614429870884e-38
-20.466664 -53.049423 104.027499 -0.366979 -0.930229 0.000000 1.7962614429870884e-38
-19.091255 -53.908641 104.036792 -0.343949 -0.938988 0.000000 1.7962614429870884e-38
-18.064556 -53.735459 103.406342 -0.320710 -0.947177 0.000000 1.7962614429870884e-38
-17.126477 -54.900850 103.522226 -0.297277 -0.954791 0.000000 1.7962614429870884e-38
-15.303259 -54.773963 104.163299 -0.273663 -0.961826 0.000000 1.7962614429870884e-38
-13.975232 -55.378729 103.968308 -0.249883 -0.968276 0.000000 1.7962614429870884e-38
-13.320077 -55.292483 104.044645 -0.225951 -0.974139 0.000000 1.7962614429870884e-38
-11.544230 -56.179167 103.471216 -0.201882 -0.979410 0.000000 1.7962614429870884e-38
-9.338054 -55.753958 103.833874 -0.177691 -0.984086 0.000000 1.7962614429870884e-38
-8.431573 -55.730763 104.280685 -0.153392 -0.988165 0.000000 1.7962614429870884e-38
-7.391007 -56.470193 104.156290 -0.128999 -0.991645 0.000000 1.7962614429870884e-38
-6.012546 -56.173989 103.951154 -0.104528 -0.994522 0.000000 1.7962614429870884e-38
-4.309226 -56.350950 103.527846 -0.079994 -0.996795 0.000000 1.7962614429870884e-38
-23.275010 -51.816429 105.284945 -0.412356 -0.911023 0.000000 1.7962614429870884e-38
-21.877532 -52.682566 105.023048 -0.389786 -0.920906 0.000000 1.7962614429870884e-38
-21.435960 -53.081717 104.970648 -0.366979 -0.930229 0.000000 1.7962614429870884e-38
-19.388475 -53.328212 105.604900 -0.343949 -0.938988 0.000000 1.7962614429870884e-38
-18.411877 -53.813922 105.376735 -0.320710 -0.947177 0.000000 1.7962614429870884e-38
-16.239747 -54.235779 105.140224 -0.297277 -0.954791 0.000000 1.7962614429870884e-38
-15.544860 -54.627394 105.566653 -0.273663 -0.961826 0.000000 1.7962614429870884e-38
-14.356152 -55.347553 105.941212 -0.249883 -0.968276 0.000000 1.7962614429870884e-38
-13.203860 -55.211403 105.279511 -0.225951 -0.974139 0.000000 1.7962614429870884e-38
-11.398724 -56.136525 105.967360 -0.201882 -0.979410 0.000000 1.7962614429870884e-38
-10.064902 -56.189066 104.755735 -0.177691 -0.984086 0.000000 1.7962614429870884e-38
-9.337476 -56.055550 104.903353 -0.153392 -0.988165 0.000000 1.7962614429870884e-38
-7.425734 -56.645624 105.315983 -0.128999 -0.991645 0.000000 1.7962614429870884e-38
-5.835058 -56.403112 105.391707 -0.104528 -0.994522 0.000000 1.7962614429870884e-38
-4.769721 -57.162181 105.110098 -0.079994 -0.996795 0.000000 1.7962614429870884e-38
-2.999963 -56.820696 104.593849 -0.055411 -0.998464 0.000000 1.7962614429870884e-38
-23.476589 -51.931986 106.086284 -0.412356 -0.911023 0.000000 1.7962614429870884e-38
-21.811789 -52.766034 106.821536 -0.389786 -0.920906 0.000000 1.7962614429870884e-38
-21.331168 -53.499063 106.290922 -0.366979 -0.930229 0.000000 1.7962614429870884e-38
-19.495741 -53.431944 106.779645 -0.343949 -0.938988 0.000000 1.7962614429870884e-38
-18.520794 -53.738813 105.894232 -0.320710 -0.947177 0.000000 1.7962614429870884e-38
-17.243491 -54.529815 106.061655 -0.297277 -0.954791 0.000000 1.7962614429870884e-38
-15.442607 -55.047304 106.692673 -0.273663 -0.961826 0.000000 1.7962614429870884e-38
-13.990013 -55.422413 106.286096 -0.249883 -0.968276 0.000000 1.7962614429870884e-38
-12.912590 -55.147888 106.109016 -0.225951 -0.974139 0.000000 1.7962614429870884e-38
-12.225280 -55.981861 106.115879 -0.201882 -0.979410 0.000000 1.7962614429870884e-38
-10.593026 -56.132564 106.039747 -0.177691 -0.984086 0.000000 1.7962614429870884e-38
-8.646431 -56.714979 107.277732 -0.153392 -0.988165 0.000000 1.7962614429870884e-38
-7.038938 -56.772451 106.160386 -0.128999 -0.991645 0.000000 1.7962614429870884e-38
-6.018175 -56.495812 106.257401 -0.104528 -0.994522 0.000000 1.7962614429870884e-38
-4.910488 -57.281607 106.386126 -0.079994 -0.996795 0.000000 1.7962614429870884e-38
-23.623970 -52.145797 107.270451 -0.412356 -0.911023 0.000000 1.7962614429870884e-38
-22.041785 -52.823387 107.590214 -0.389786 -0.920906 0.000000 1.7962614429870884e-38
-20.193950 -53.666561 107.599064 -0.366979 -0.930229 0.000000 1.7962614429870884e-38
-20.053485 -53.786866 107.586158 -0.343949 -0.938988 0.000000 1.7962614429870884e-38
-18.706890 -53.970627 108.069392 -0.320710 -0.947177 0.000000 1.7962614429870884e-38
-16.877643 -54.276124 108.116138 -0.297277 -0.954791 0.000000 1.7962614429870884e-38
-15.446767 -55.636583 107.682590 -0.273663 -0.961826 0.000000 1.7962614429870884e-38
-15.021541 -55.515009 107.179177 -0.249883 -0.968276 0.000000 1.7962614429870884e-38
-12.822219 -55.902304 107.718982 -0.225951 -0.974139 0.000000 1.7962614429870884e-38
-11.295151 -56.221648 107.704242 -0.201882 -0.979410 0.000000 1.7962614429870884e-38
-10.933636 -56.649004 108.009146 -0.177691 -0.984086 0.000000 1.7962614429870884e-38
-9.024803 -56.591733 107.383527 -0.153392 -0.988165 0.000000 1.7962614429870884e-38
-7.887124 -56.943077 107.627131 -0.128999 -0.991645 0.000000 1.7962614429870884e-38
-6.085213 -56.475236 107.443294 -0.104528 -0.994522 0.000000 1.7962614429870884e-38
-4.572084 -57.090253 107.909052 -0.079994 -0.996795 0.000000 1.7962614429870884e-38
-23.203471 -51.775310 108.970762 -0.412356 -0.911023 0.000000 1.7962614429870884e-38
-21.802021 -52.786832 108.546043 -0.389786 -0.920906 0.000000 1.7962614429870884e-38
-21.038152 -52.782682 109.108792 -0.366979 -0.930229 0.000000 1.7962614429870884e-38
-19.308167 -53.688344 108.942943 -0.343949 -0.938988 0.000000 1.7962614429870884e-38
-18.369206 -54.387063 108.911329 -0.320710 -0.947177 0.000000 1.7962614429870884e-38
-17.031168 -54.708132 109.083062 -0.297277 -0.954791 0.000000 1.7962614429870884e-38
-15.575048 -54.559708 108.641650 -0.273663 -0.961826 0.000000 1.7962614429870884e-38
-14.375611 -55.865079 108.604087 -0.249883 -0.968276 0.000000 1.7962614429870884e-38
-12.696431 -55.425135 109.109457 -0.225951 -0.974139 0.000000 1.7962614429870884e-38
-11.119337 -55.807239 108.921342 -0.201882 -0.979410 0.000000 1.7962614429870884e-38
-9.923704 -56.464018 108.410833 -0.177691 -0.984086 0.000000 1.7962614429870884e-38
-8.851385 -56.551095 108.937774 -0.153392 -0.988165 0.000000 1.7962614429870884e-38
-7.577561 -56.847687 109.141301 -0.128999 -0.991645 0.000000 1.7962614429870884e-38
-6.303818 -56.860124 108.719837 -0.104528 -0.994522 0.000000 1.7962614429870884e-38
-24.066150 -52.273561 109.911215 -0.412356 -0.911023 0.000000 1.7962614429870884e-38
-22.143193 -52.651684 109.910601 -0.389786 -0.920906 0.000000 1.7962614429870884e-38
-21.135858 -52.667825 109.867717 -0.366979 -0.930229 0.000000 1.7962614429870884e-38
-19.745952 -53.583060 110.124216 -0.343949 -0.938988 0.000000 1.7962614429870884e-38
-18.177836 -53.895982 110.534878 -0.320710 -0.947177 0.000000 1.7962614429870884e-38
-17.005463 -54.539891 110.166134 -0.297277 -0.954791 0.000000 1.7962614429870884e-38
-15.935686 -55.005681 109.608881 -0.273663 -0.961826 0.000000 1.7962614429870884e-38
-14.193234 -56.073092 109.806269 -0.249883 -0.968276 0.000000 1.7962614429870884e-38
-12.679019 -55.629547 110.097941 -0.225951 -0.974139 0.000000 1.7962614429870884e-38
-11.692847 -56.330213 109.931727 -0.201882 -0.979410 0.000000 1.7962614429870884e-38
-9.967186 -56.414803 109.477653 -0.177691 -0.984086 0.000000 1.7962614429870884e-38
-9.151067 -56.815717 110.023798 -0.153392 -0.988165 0.000000 1.7962614429870884e-38
-7.473214 -57.088086 110.287562 -0.128999 -0.991645 0.000000 1.7962614429870884e-38
-6.578172 -57.159879 110.338484 -0.104528 -0.994522 0.000000 1.7962614429870884e-38
-24.499383 -51.493161 111.054543 -0.434676 -0.900587 0.000000 1.7962614429870884e-38
-23.166849 -52.359357 111.816337 -0.412356 -0.911023 0.000000 1.7962614429870884e-38
-22.360126 -52.695488 111.230515 -0.389786 -0.920906 0.000000 1.7962614429870884e-38
-21.120451 -52.894977 111.286345 -0.366979 -0.930229 0.000000 1.7962614429870884e-38
-19.428186 -53.797441 111.305476 -0.343949 -0.938988 0.000000 1.7962614429870884e-38
-18.192103 -54.316368 111.103863 -0.320710 -0.947177 0.000000 1.7962614429870884e-38
-17.263917 -54.543547 110.677386 -0.297277 -0.954791 0.000000 1.7962614429870884e-38
-15.570248 -55.551696 111.392683 -0.273663 -0.961826 0.000000 1.7962614429870884e-38
-13.918737 -55.755261 111.497409 -0.249883 -0.968276 0.000000 1.7962614429870884e-38
-12.611575 -55.998752 111.146082 -0.225951 -0.974139 0.000000 1.7962614429870884e-38
-11.456980 -55.753100 112.024928 -0.201882 -0.979410 0.000000 1.7962614429870884e-38
-10.405261 -56.201811 111.196112 -0.177691 -0.984086 0.000000 1.7962614429870884e-38
-9.129278 -56.700019 111.270985 -0.153392 -0.988165 0.000000 1.7962614429870884e-38
-7.366770 -56.703638 111.409978 -0.128999 -0.991645 0.000000 1.7962614429870884e-38
-24.628597 -51.814121 112.561827 -0.434676 -0.900587 0.000000 1.7962614429870884e-38
-23.823519 -52.317453 112.960199 -0.412356 -0.911023 0.000000 1.7962614429870884e-38
-22.332367 -52.185614 112.766044 -0.389786 -0.920906 0.000000 1.7962614429870884e-38
-20.839057 -53.418135 112.559313 -0.366979 -0.930229 0.000000 1.7962614429870884e-38
-19.418773 -53.503120 112.657246 -0.343949 -0.938988 0.000000 1.7962614429870884e-38
-18.228524 -54.370995 112.643318 -0.320710 -0.947177 0.000000 1.7962614429870884e-38
-17.025288 -54.753870 112.877866 -0.297277 -0.954791 0.000000 1.7962614429870884e-38
-15.712012 -55.357922 112.496502 -0.273663 -0.961826 0.000000 1.7962614429870884e-38
-14.418883 -55.406897 112.409886 -0.249883 -0.968276 0.000000 1.7962614429870884e-38
-12.622680 -55.956256 113.048067 -0.225951 -0.974139 0.000000 1.7962614429870884e-38
-11.571934 -56.019308 112.875432 -0.201882 -0.979410 0.000000 1.7962614429870884e-38
-9.825068 -56.257921 113.363819 -0.177691 -0.984086 0.000000 1.7962614429870884e-38
-8.797332 -57.132743 112.566908 -0.153392 -0.988165 0.000000 1.7962614429870884e-38
-7.160818 -56.743122 112.271858 -0.128999 -0.991645 0.000000 1.7962614429870884e-38
-23.503053 -52.480481 114.151234 -0.412356 -0.911023 0.000000 1.7962614429870884e-38
-22.587730 -52.724860 114.480385 -0.389786 -0.920906 0.000000 1.7962614429870884e-38
-21.246781 -53.251157 114.408288 -0.366979 -0.930229 0.000000 1.7962614429870884e-38
-19.455804 -53.693337 113.217431 -0.343949 -0.938988 0.000000 1.7962614429870884e-38
-18.705866 -54.117312 113.713865 -0.320710 -0.947177 0.000000 1.7962614429870884e-38
-17.220196 -54.461467 114.005270 -0.297277 -0.954791 0.000000 1.7962614429870884e-38
-15.962989 -54.989769 113.518160 -0.273663 -0.961826 0.000000 1.7962614429870884e-38
-14.828793 -55.494294 113.433583 -0.249883 -0.968276 0.000000 1.7962614429870884e-38
-13.356025 -56.233307 113.853335 -0.225951 -0.974139 0.000000 1.7962614429870884e-38
-11.363595 -56.319216 113.441479 -0.201882 -0.979410 0.000000 1.7962614429870884e-38
-10.549620 -56.966597 114.017177 -0.177691 -0.984086 0.000000 1.7962614429870884e-38
-9.088279 -56.667422 113.259556 -0.153392 -0.988165 0.000000 1.7962614429870884e-38
-7.036788 -56.939409 113.330246 -0.128999 -0.991645 0.000000 1.7962614429870884e-38
-22.526848 -52.084639 115.003708 -0.389786 -0.920906 0.000000 1.7962614429870884e-38
-21.087721 -53.704295 114.726528 -0.366979 -0.930229 0.000000 1.7962614429870884e-38
-20.270782 -54.049769 114.969502 -0.343949 -0.938988 0.000000 1.7962614429870884e-38
-18.112696 -54.500554 114.906552 -0.320710 -0.947177 0.000000 1.7962614429870884e-38
-17.028272 -54.898567 115.311402 -0.297277 -0.954791 0.000000 1.7962614429870884e-38
-15.315803 -55.284854 114.730359 -0.273663 -0.961826 0.000000 1.7962614429870884e-38
-14.426242 -55.581779 114.616400 -0.249883 -0.968276 0.000000 1.7962614429870884e-38
-13.095877 -56.431796 115.146410 -0.225951 -0.974139 0.000000 1.7962614429870884e-38
-11.958272 -56.382325 114.974995 -0.201882 -0.979410 0.000000 1.7962614429870884e-38
-10.622531 -56.539903 114.697914 -0.177691 -0.984086 0.000000 1.7962614429870884e-38
-8.393809 -56.386217 115.376542 -0.153392 -0.988165 0.000000 1.7962614429870884e-38
-20.442977 -53.115131 116.794743 -0.366979 -0.930229 0.000000 1.7962614429870884e-38
-20.038221 -53.947126 116.372684 -0.343949 -0.938988 0.000000 1.7962614429870884e-38
-18.549902 -54.384025 116.359071 -0.320710 -0.947177 0.000000 1.7962614429870884e-38
-17.450939 -54.652176 116.478462 -0.297277 -0.954791 0.000000 1.7962614429870884e-38
-15.936760 -55.668207 116.319955 -0.273663 -0.961826 0.000000 1.7962614429870884e-38
-14.612714 -55.560963 116.050646 -0.249883 -0.968276 0.000000 1.7962614429870884e-38
-12.534939 -56.184747 116.020490 -0.225951 -0.974139 0.000000 1.7962614429870884e-38
-11.593903 -56.761005 116.028914 -0.201882 -0.979410 0.000000 1.7962614429870884e-38
-10.707776 -56.486471 116.566964 -0.177691 -0.984086 0.000000 1.7962614429870884e-38
-8.943499 -56.408261 116.033600 -0.153392 -0.988165 0.000000 1.7962614429870884e-38
-19.568713 -54.403240 117.114300 -0.343949 -0.938988 0.000000 1.7962614429870884e-38
-17.983224 -54.121276 118.000576 -0.320710 -0.947177 0.000000 1.7962614429870884e-38
-17.134874 -55.178784 117.469694 -0.297277 -0.954791 0.000000 1.7962614429870884e-38
-15.149918 -55.541399 117.473742 -0.273663 -0.961826 0.000000 1.7962614429870884e-38
-13.999026 -55.636501 117.409423 -0.249883 -0.968276 0.000000 1.7962614429870884e-38
-12.761980 -56.140740 117.668969 -0.225951 -0.974139 0.000000 1.7962614429870884e-38
-12.329328 -56.826071 117.455665 -0.201882 -0.979410 0.000000 1.7962614429870884e-38
-9.814165 -56.618645 117.510134 -0.177691 -0.984086 0.000000 1.7962614429870884e-38
-18.729419 -54.687594 118.621000 -0.320710 -0.947177 0.000000 1.7962614429870884e-38
-17.325665 -54.914465 118.557730 -0.297277 -0.954791 0.000000 1.7962614429870884e-38
-15.243512 -55.153701 118.990338 -0.273663 -0.961826 0.000000 1.7962614429870884e-38
-14.409002 -56.273637 119.014690 -0.249883 -0.968276 0.000000 1.7962614429870884e-38
-13.024189 -55.884180 118.741499 -0.225951 -0.974139 0.000000 1.7962614429870884e-38
-12.275441 -56.441330 118.514968 -0.201882 -0.979410 0.000000 1.7962614429870884e-38
-10.154245 -56.443625 119.409292 -0.177691 -0.984086 0.000000 1.7962614429870884e-38
-18.144130 -53.932747 120.333778 -0.320710 -0.947177 0.000000 1.7962614429870884e-38
-17.389644 -54.888192 120.226434 -0.297277 -0.954791 0.000000 1.7962614429870884e-38
-15.745074 -55.173016 120.152920 -0.273663 -0.961826 0.000000 1.7962614429870884e-38
-14.664251 -55.298269 120.027474 -0.249883 -0.968276 0.000000 1.7962614429870884e-38
-13.005640 -56.282835 119.927428 -0.225951 -0.974139 0.000000 1.7962614429870884e-38
-11.327215 -56.244142 120.212288 -0.201882 -0.979410 0.000000 1.7962614429870884e-38
