# .PCD v0.7 - Point Cloud Data file format
VERSION 0.7
FIELDS x y z normal_x normal_y normal_z rgb
SIZE 4 4 4 4 4 4 4
TYPE F F F F F F F
COUNT 1 1 1 1 1 1 1
WIDTH 272
HEIGHT 1
VIEWPOINT 0 0 0 1 0 0 0
POINTS 272
DATA ascii
23.324341 43.330940 55.308667 0.467658 0.883910 0.000000 1.6119787838914282e-38
21.930766 43.743099 55.496739 0.445738 0.895163 0.000000 1.6119787838914282e-38
21.019626 44.670859 55.920364 0.423549 0.905873 0.000000 1.6119787838914282e-38
19.613635 45.327252 55.674408 0.401102 0.916034 0.000000 1.6119787838914282e-38
18.514279 45.166974 55.043123 0.378411 0.925638 0.000000 1.6119787838914282e-38
31.252537 38.005724 56.839531 0.631711 0.775204 0.000000 1.6119787838914282e-38
30.426490 39.250383 57.342525 0.612420 0.790532 0.000000 1.6119787838914282e-38
29.140335 39.848299 56.868470 0.592758 0.805381 0.000000 1.6119787838914282e-38
28.776628 40.602701 57.025895 0.572735 0.819740 0.000000 1.6119787838914282e-38
27.272484 41.106933 56.472616 0.552365 0.833602 0.000000 1.6119787838914282e-38
25.882106 41.887796 56.923461 0.531659 0.846958 0.000000 1.6119787838914282e-38
25.277136 42.750852 56.935098 0.510631 0.859800 0.000000 1.6119787838914282e-38
24.063346 43.013952 56.980389 0.489293 0.872120 0.000000 1.6119787838914282e-38
22.985196 43.978621 56.903834 0.467658 0.883910 0.000000 1.6119787838914282e-38
22.092030 43.970185 57.226679 0.445738 0.895163 0.000000 1.6119787838914282e-38
21.352189 44.335221 57.027483 0.423549 0.905873 0.000000 1.6119787838914282e-38
19.779394 45.331222 57.042845 0.401102 0.916034 0.000000 1.6119787838914282e-38
18.020520 45.948234 57.240936 0.378411 0.925638 0.000000 1.6119787838914282e-38
37.503276 32.566687 57.871122 0.755383 0.655284 0.000000 1.6119787838914282e-38
36.358706 33.602573 58.033723 0.739009 0.673696 0.000000 1.6119787838914282e-38
35.982308 34.798290 58.007183 0.722186 0.691698 0.000000 1.6119787838914282e-38
34.809505 35.108448 58.156021 0.704926 0.709281 0.000000 1.6119787838914282e-38
34.295773 36.048583 58.767894 0.687237 0.726434 0.000000 1.6119787838914282e-38
33.339077 37.120823 58.133272 0.669131 0.743145 0.000000 1.6119787838914282e-38
32.597498 37.632076 57.951063 0.650618 0.759405 0.000000 1.6119787838914282e-38
31.627074 38.460670 58.217909 0.631711 0.775204 0.000000 1.6119787838914282e-38
30.692521 39.280391 58.099555 0.612420 0.790532 0.000000 1.6119787838914282e-38
29.261369 40.294217 58.041812 0.592758 0.805381 0.000000 1.6119787838914282e-38
28.412827 40.774533 58.229165 0.572735 0.819740 0.000000 1.6119787838914282e-38
27.721178 41.355562 58.557245 0.552365 0.833602 0.000000 1.6119787838914282e-38
26.314707 42.150663 58.089198 0.531659 0.846958 0.000000 1.6119787838914282e-38
25.973521 42.571648 58.066270 0.510631 0.859800 0.000000 1.6119787838914282e-38
24.320860 43.208303 58.238676 0.489293 0.872120 0.000000 1.6119787838914282e-38
23.581277 43.917742 58.199611 0.467658 0.883910 0.000000 1.6119787838914282e-38
22.055827 44.280609 58.173289 0.445738 0.895163 0.000000 1.6119787838914282e-38
21.025442 45.315715 57.856607 0.423549 0.905873 0.000000 1.6119787838914282e-38
20.345349 45.424001 58.188890 0.401102 0.916034 0.000000 1.6119787838914282e-38
18.463278 46.113331 57.856187 0.378411 0.925638 0.000000 1.6119787838914282e-38
39.773077 29.732336 59.359416 0.801714 0.597707 0.000000 1.6119787838914282e-38
39.450201 30.915901 60.009770 0.786745 0.617278 0.000000 1.6119787838914282e-38
38.513656 31.544534 59.331555 0.771298 0.636474 0.000000 1.6119787838914282e-38
37.847894 32.985637 59.783884 0.755383 0.655284 0.000000 1.6119787838914282e-38
36.555593 33.987165 59.367637 0.739009 0.673696 0.000000 1.6119787838914282e-38
35.743529 34.439783 59.744670 0.722186 0.691698 0.000000 1.6119787838914282e-38
35.297848 35.014312 59.020080 0.704926 0.709281 0.000000 1.6119787838914282e-38
33.908682 36.013993 59.404678 0.687237 0.726434 0.000000 1.6119787838914282e-38
33.037411 36.938490 59.802054 0.669131 0.743145 0.000000 1.6119787838914282e-38
32.937241 38.343160 58.842972 0.650618 0.759405 0.000000 1.6119787838914282e-38
32.010947 38.693561 59.404834 0.631711 0.775204 0.000000 1.6119787838914282e-38
30.855304 39.641650 58.820840 0.612420 0.790532 0.000000 1.6119787838914282e-38
29.382151 40.061413 58.982363 0.592758 0.805381 0.000000 1.6119787838914282e-38
28.866347 41.319147 59.378275 0.572735 0.819740 0.000000 1.6119787838914282e-38
27.640743 41.575495 59.411189 0.552365 0.833602 0.000000 1.6119787838914282e-38
26.853709 41.715400 59.527274 0.531659 0.846958 0.000000 1.6119787838914282e-38
25.473101 42.671530 59.230438 0.510631 0.859800 0.000000 1.6119787838914282e-38
24.954933 43.101808 59.330876 0.489293 0.872120 0.000000 1.6119787838914282e-38
23.814930 43.707098 59.244594 0.467658 0.883910 0.000000 1.6119787838914282e-38
22.245477 44.773247 59.357350 0.445738 0.895163 0.000000 1.6119787838914282e-38
20.857377 45.317875 59.351262 0.423549 0.905873 0.000000 1.6119787838914282e-38
20.194691 45.967538 58.935571 0.401102 0.916034 0.000000 1.6119787838914282e-38
19.184534 46.093077 59.629007 0.378411 0.925638 0.000000 1.6119787838914282e-38
40.346401 30.449809 60.612421 0.801714 0.597707 0.000000 1.6119787838914282e-38
39.976799 31.060761 60.825408 0.786745 0.617278 0.000000 1.6119787838914282e-38
38.974496 32.116934 60.378045 0.771298 0.636474 0.000000 1.6119787838914282e-38
38.185793 32.731551 60.709063 0.755383 0.655284 0.000000 1.6119787838914282e-38
37.080052 34.109830 60.736477 0.739009 0.673696 0.000000 1.6119787838914282e-38
35.781182 35.296424 60.869037 0.722186 0.691698 0.000000 1.6119787838914282e-38
35.166741 35.209016 60.903338 0.704926 0.709281 0.000000 1.6119787838914282e-38
34.139578 36.650118 60.939282 0.687237 0.726434 0.000000 1.6119787838914282e-38
33.342865 37.025799 60.477491 0.669131 0.743145 0.000000 1.6119787838914282e-38
32.313267 38.131345 60.730240 0.650618 0.759405 0.000000 1.6119787838914282e-38
31.880518 38.604349 60.870545 0.631711 0.775204 0.000000 1.6119787838914282e-38
30.399085 39.874447 60.172559 0.612420 0.790532 0.000000 1.6119787838914282e-38
30.180191 40.210403 60.798283 0.592758 0.805381 0.000000 1.6119787838914282e-38
28.909853 40.705720 60.869097 0.572735 0.819740 0.000000 1.6119787838914282e-38
27.520108 41.689537 60.417490 0.552365 0.833602 0.000000 1.6119787838914282e-38
27.131680 42.099780 60.747643 0.531659 0.846958 0.000000 1.6119787838914282e-38
25.406476 43.421735 61.314963 0.510631 0.859800 0.000000 1.6119787838914282e-38
24.334966 43.753910 60.502996 0.489293 0.872120 0.000000 1.6119787838914282e-38
23.751097 44.228224 60.890213 0.467658 0.883910 0.000000 1.6119787838914282e-38
22.221733 45.540002 59.961099 0.445738 0.895163 0.000000 1.6119787838914282e-38
21.341924 45.400525 60.604536 0.423549 0.905873 0.000000 1.6119787838914282e-38
20.189408 45.930461 60.684268 0.401102 0.916034 0.000000 1.6119787838914282e-38
19.088940 46.918994 59.788883 0.378411 0.925638 0.000000 1.6119787838914282e-38
41.202975 29.228668 61.338125 0.816197 0.577774 0.000000 1.6119787838914282e-38
40.722869 29.747189 61.972253 0.801714 0.597707 0.000000 1.6119787838914282e-38
39.269502 30.951015 61.472030 0.786745 0.617278 0.000000 1.6119787838914282e-38
38.687196 31.995234 61.510875 0.771298 0.636474 0.000000 1.6119787838914282e-38
38.138592 33.136487 62.667479 0.755383 0.655284 0.000000 1.6119787838914282e-38
37.498214 34.283079 61.324965 0.739009 0.673696 0.000000 1.6119787838914282e-38
35.784815 34.747753 62.391715 0.722186 0.691698 0.000000 1.6119787838914282e-38
36.245332 35.516137 61.679803 0.704926 0.709281 0.000000 1.6119787838914282e-38
34.775306 36.527110 61.804090 0.687237 0.726434 0.000000 1.6119787838914282e-38
33.890709 38.242562 62.247042 0.669131 0.743145 0.000000 1.6119787838914282e-38
33.328619 37.693593 62.178105 0.650618 0.759405 0.000000 1.6119787838914282e-38
31.530669 39.545476 62.262868 0.631711 0.775204 0.000000 1.6119787838914282e-38
31.025208 39.591678 61.710525 0.612420 0.790532 0.000000 1.6119787838914282e-38
29.732900 40.791079 61.976836 0.592758 0.805381 0.000000 1.6119787838914282e-38
29.271366 41.768833 61.602063 0.572735 0.819740 0.000000 1.6119787838914282e-38
27.961988 42.122642 61.827163 0.552365 0.833602 0.000000 1.6119787838914282e-38
27.059142 42.803679 61.683303 0.531659 0.846958 0.000000 1.6119787838914282e-38
25.674905 43.198380 61.637415 0.510631 0.859800 0.000000 1.6119787838914282e-38
24.617258 43.534539 61.997835 0.489293 0.872120 0.000000 1.6119787838914282e-38
23.974444 44.532562 62.139598 0.467658 0.883910 0.000000 1.6119787838914282e-38
22.495862 44.777566 62.457790 0.445738 0.895163 0.000000 1.6119787838914282e-38
20.604960 45.626698 61.625104 0.423549 0.905873 0.000000 1.6119787838914282e-38
20.675673 46.200105 62.622313 0.401102 0.916034 0.000000 1.6119787838914282e-38
19.069178 46.390763 61.342589 0.378411 0.925638 0.000000 1.6119787838914282e-38
41.345818 29.375065 62.898475 0.816197 0.577774 0.000000 1.6119787838914282e-38
40.421698 30.130483 63.003424 0.801714 0.597707 0.000000 1.6119787838914282e-38
40.463748 31.332327 63.104746 0.786745 0.617278 0.000000 1.6119787838914282e-38
38.655067 31.839195 63.028821 0.771298 0.636474 0.000000 1.6119787838914282e-38
38.566467 33.101948 63.045890 0.755383 0.655284 0.000000 1.6119787838914282e-38
37.175457 33.570946 63.223852 0.739009 0.673696 0.000000 1.6119787838914282e-38
36.471098 35.138318 63.139173 0.722186 0.691698 0.000000 1.6119787838914282e-38
35.384657 35.961941 62.705468 0.704926 0.709281 0.000000 1.6119787838914282e-38
34.843977 36.743485 63.554963 0.687237 0.726434 0.000000 1.6119787838914282e-38
33.602360 37.209969 62.968835 0.669131 0.743145 0.000000 1.6119787838914282e-38
33.108308 37.591586 63.355443 0.650618 0.759405 0.000000 1.6119787838914282e-38
31.906164 38.887867 62.982430 0.631711 0.775204 0.000000 1.6119787838914282e-38
30.770184 39.638629 62.511202 0.612420 0.790532 0.000000 1.6119787838914282e-38
30.216593 40.589749 62.975341 0.592758 0.805381 0.000000 1.6119787838914282e-38
29.237613 41.501041 62.624958 0.572735 0.819740 0.000000 1.6119787838914282e-38
28.155154 42.630936 63.243712 0.552365 0.833602 0.000000 1.6119787838914282e-38
26.645976 42.419843 62.822366 0.531659 0.846958 0.000000 1.6119787838914282e-38
25.872220 43.939427 62.864976 0.510631 0.859800 0.000000 1.6119787838914282e-38
24.566779 44.441439 62.962580 0.489293 0.872120 0.000000 1.6119787838914282e-38
24.180756 44.687237 63.443115 0.467658 0.883910 0.000000 1.6119787838914282e-38
22.672139 45.513301 63.039663 0.445738 0.895163 0.000000 1.6119787838914282e-38
21.400853 45.968853 63.332225 0.423549 0.905873 0.000000 1.6119787838914282e-38
20.456205 45.827115 63.170088 0.401102 0.916034 0.000000 1.6119787838914282e-38
18.953122 46.679614 63.230034 0.378411 0.925638 0.000000 1.6119787838914282e-38
41.327712 29.211189 64.398078 0.816197 0.577774 0.000000 1.6119787838914282e-38
41.177721 30.520403 64.617284 0.801714 0.597707 0.000000 1.6119787838914282e-38
39.729816 31.572659 64.128494 0.786745 0.617278 0.000000 1.6119787838914282e-38
39.261277 32.548413 64.170527 0.771298 0.636474 0.000000 1.6119787838914282e-38
38.104845 33.428884 64.289465 0.755383 0.655284 0.000000 1.6119787838914282e-38
37.618226 34.453458 64.722083 0.739009 0.673696 0.000000 1.6119787838914282e-38
36.920972 35.331309 64.179784 0.722186 0.691698 0.000000 1.6119787838914282e-38
35.740251 36.202138 64.220922 0.704926 0.709281 0.000000 1.6119787838914282e-38
35.079962 36.693266 64.908702 0.687237 0.726434 0.000000 1.6119787838914282e-38
34.082293 37.826092 64.185115 0.669131 0.743145 0.000000 1.6119787838914282e-38
33.656776 38.238503 64.118992 0.650618 0.759405 0.000000 1.6119787838914282e-38
32.377542 39.489743 64.156867 0.631711 0.775204 0.000000 1.6119787838914282e-38
30.976133 40.110004 64.360539 0.612420 0.790532 0.000000 1.6119787838914282e-38
30.606838 41.133842 64.636897 0.592758 0.805381 0.000000 1.6119787838914282e-38
28.992357 41.837173 63.863460 0.572735 0.819740 0.000000 1.6119787838914282e-38
28.141491 42.422697 64.876322 0.552365 0.833602 0.000000 1.6119787838914282e-38
27.501284 42.988899 64.084755 0.531659 0.846958 0.000000 1.6119787838914282e-38
25.727848 43.631013 64.720419 0.510631 0.859800 0.000000 1.6119787838914282e-38
25.004212 44.501244 64.573259 0.489293 0.872120 0.000000 1.6119787838914282e-38
23.481372 44.732636 64.485967 0.467658 0.883910 0.000000 1.6119787838914282e-38
22.431385 45.059657 64.005122 0.445738 0.895163 0.000000 1.6119787838914282e-38
21.853053 45.949948 64.397652 0.423549 0.905873 0.000000 1.6119787838914282e-38
20.085595 46.692622 64.249019 0.401102 0.916034 0.000000 1.6119787838914282e-38
19.375438 46.923787 64.481182 0.378411 0.925638 0.000000 1.6119787838914282e-38
40.527019 31.550762 65.183993 0.786745 0.617278 0.000000 1.6119787838914282e-38
39.694056 32.687464 65.357282 0.771298 0.636474 0.000000 1.6119787838914282e-38
38.807872 33.313953 65.477548 0.755383 0.655284 0.000000 1.6119787838914282e-38
37.596478 34.325599 65.839038 0.739009 0.673696 0.000000 1.6119787838914282e-38
36.360203 35.669569 65.619908 0.722186 0.691698 0.000000 1.6119787838914282e-38
35.897067 36.242854 65.294318 0.704926 0.709281 0.000000 1.6119787838914282e-38
34.620865 36.848687 64.998364 0.687237 0.726434 0.000000 1.6119787838914282e-38
33.779564 37.479860 65.934156 0.669131 0.743145 0.000000 1.6119787838914282e-38
32.854314 38.785027 65.902031 0.650618 0.759405 0.000000 1.6119787838914282e-38
32.528646 39.516021 65.479837 0.631711 0.775204 0.000000 1.6119787838914282e-38
31.342112 41.021348 65.690924 0.612420 0.790532 0.000000 1.6119787838914282e-38
30.483986 41.826197 65.650358 0.592758 0.805381 0.000000 1.6119787838914282e-38
29.604946 42.023215 65.705958 0.572735 0.819740 0.000000 1.6119787838914282e-38
27.930891 42.249345 65.413315 0.552365 0.833602 0.000000 1.6119787838914282e-38
27.426645 43.520769 65.966966 0.531659 0.846958 0.000000 1.6119787838914282e-38
26.084415 44.087821 65.729609 0.510631 0.859800 0.000000 1.6119787838914282e-38
24.965342 44.459440 65.121511 0.489293 0.872120 0.000000 1.6119787838914282e-38
23.846499 45.127052 65.907327 0.467658 0.883910 0.000000 1.6119787838914282e-38
23.142320 45.776903 66.186025 0.445738 0.895163 0.000000 1.6119787838914282e-38
21.695757 46.590237 65.536988 0.423549 0.905873 0.000000 1.6119787838914282e-38
20.149917 46.671871 66.009226 0.401102 0.916034 0.000000 1.6119787838914282e-38
39.172202 33.351837 66.930736 0.755383 0.655284 0.000000 1.6119787838914282e-38
37.141455 34.356655 66.984866 0.739009 0.673696 0.000000 1.6119787838914282e-38
36.975368 35.802351 66.134167 0.722186 0.691698 0.000000 1.6119787838914282e-38
35.962583 36.542476 66.936182 0.704926 0.709281 0.000000 1.6119787838914282e-38
35.430206 37.349313 66.460886 0.687237 0.726434 0.000000 1.6119787838914282e-38
34.112025 38.839746 66.426311 0.669131 0.743145 0.000000 1.6119787838914282e-38
32.970871 39.183411 66.486343 0.650618 0.759405 0.000000 1.6119787838914282e-38
32.962716 40.610726 66.731842 0.631711 0.775204 0.000000 1.6119787838914282e-38
31.527711 40.029788 67.113605 0.612420 0.790532 0.000000 1.6119787838914282e-38
29.754024 40.937482 66.839701 0.592758 0.805381 0.000000 1.6119787838914282e-38
29.562180 41.631234 66.641364 0.572735 0.819740 0.000000 1.6119787838914282e-38
27.853833 42.692812 66.563897 0.552365 0.833602 0.000000 1.6119787838914282e-38
27.098804 43.668826 66.888594 0.531659 0.846958 0.000000 1.6119787838914282e-38
26.378510 44.093848 67.019203 0.510631 0.859800 0.000000 1.6119787838914282e-38
25.104354 44.617548 66.975295 0.489293 0.872120 0.000000 1.6119787838914282e-38
23.877338 45.271295 67.124605 0.467658 0.883910 0.000000 1.6119787838914282e-38
23.171500 45.858635 67.065981 0.445738 0.895163 0.000000 1.6119787838914282e-38
21.356841 46.410114 66.578583 0.423549 0.905873 0.000000 1.6119787838914282e-38
20.587588 47.239403 66.970827 0.401102 0.916034 0.000000 1.6119787838914282e-38
37.655058 35.281747 67.981043 0.722186 0.691698 0.000000 1.6119787838914282e-38
35.693017 36.165441 67.830001 0.704926 0.709281 0.000000 1.6119787838914282e-38
35.698414 37.315919 67.954548 0.687237 0.726434 0.000000 1.6119787838914282e-38
34.595239 38.120772 67.442834 0.669131 0.743145 0.000000 1.6119787838914282e-38
33.326823 39.124211 68.181776 0.650618 0.759405 0.000000 1.6119787838914282e-38
32.513687 40.110693 68.318649 0.631711 0.775204 0.000000 1.6119787838914282e-38
31.916999 40.817281 67.700089 0.612420 0.790532 0.000000 1.6119787838914282e-38
30.193379 41.185724 67.718771 0.592758 0.805381 0.000000 1.6119787838914282e-38
29.564202 42.838001 68.104809 0.572735 0.819740 0.000000 1.6119787838914282e-38
28.458748 43.275155 67.792668 0.552365 0.833602 0.000000 1.6119787838914282e-38
27.728831 43.965686 68.058936 0.531659 0.846958 0.000000 1.6119787838914282e-38
26.959974 44.672089 68.054854 0.510631 0.859800 0.000000 1.6119787838914282e-38
25.188398 44.843237 68.002015 0.489293 0.872120 0.000000 1.6119787838914282e-38
24.085280 45.484952 67.977046 0.467658 0.883910 0.000000 1.6119787838914282e-38
22.627756 45.990674 67.562059 0.445738 0.895163 0.000000 1.6119787838914282e-38
21.965565 46.737425 68.004461 0.423549 0.905873 0.000000 1.6119787838914282e-38
20.949576 46.978277 67.827988 0.401102 0.916034 0.000000 1.6119787838914282e-38
35.435395 37.704430 69.529748 0.687237 0.726434 0.000000 1.6119787838914282e-38
34.721444 39.100419 69.120840 0.669131 0.743145 0.000000 1.6119787838914282e-38
33.108276 39.423563 69.114895 0.650618 0.759405 0.000000 1.6119787838914282e-38
32.399412 40.069358 69.043327 0.631711 0.775204 0.000000 1.6119787838914282e-38
31.520341 41.409443 69.315648 0.612420 0.790532 0.000000 1.6119787838914282e-38
30.627569 42.201187 69.189708 0.592758 0.805381 0.000000 1.6119787838914282e-38
29.300897 42.067847 69.254352 0.572735 0.819740 0.000000 1.6119787838914282e-38
28.122005 42.832149 69.163974 0.552365 0.833602 0.000000 1.6119787838914282e-38
27.881635 44.263314 69.476245 0.531659 0.846958 0.000000 1.6119787838914282e-38
26.451544 44.369896 69.394858 0.510631 0.859800 0.000000 1.6119787838914282e-38
25.881889 45.221649 69.139750 0.489293 0.872120 0.000000 1.6119787838914282e-38
24.179205 45.709995 69.442978 0.467658 0.883910 0.000000 1.6119787838914282e-38
22.861900 46.494838 69.448799 0.445738 0.895163 0.000000 1.6119787838914282e-38
22.044695 46.601937 69.233509 0.423549 0.905873 0.000000 1.6119787838914282e-38
20.620600 47.431991 69.078367 0.401102 0.916034 0.000000 1.6119787838914282e-38
33.567266 39.137650 70.484670 0.650618 0.759405 0.000000 1.6119787838914282e-38
32.476394 40.267997 70.536618 0.631711 0.775204 0.000000 1.6119787838914282e-38
31.960913 41.240340 70.281243 0.612420 0.790532 0.000000 1.6119787838914282e-38
30.867518 42.295162 69.886332 0.592758 0.805381 0.000000 1.6119787838914282e-38
29.902116 42.304754 70.936632 0.572735 0.819740 0.000000 1.6119787838914282e-38
28.989472 43.615150 70.259449 0.552365 0.833602 0.000000 1.6119787838914282e-38
27.746029 44.187180 69.804105 0.531659 0.846958 0.000000 1.6119787838914282e-38
26.616549 44.926869 70.091248 0.510631 0.859800 0.000000 1.6119787838914282e-38
25.642775 45.413883 70.929844 0.489293 0.872120 0.000000 1.6119787838914282e-38
24.212375 46.050829 70.617845 0.467658 0.883910 0.000000 1.6119787838914282e-38
22.353391 46.476784 70.541353 0.445738 0.895163 0.000000 1.6119787838914282e-38
21.333974 47.342763 70.541225 0.423549 0.905873 0.000000 1.6119787838914282e-38
20.896881 47.885578 70.392213 0.401102 0.916034 0.000000 1.6119787838914282e-38
32.103544 41.175567 72.196599 0.612420 0.790532 0.000000 1.6119787838914282e-38
31.132409 42.149477 72.060880 0.592758 0.805381 0.000000 1.6119787838914282e-38
30.034319 43.586048 71.753134 0.572735 0.819740 0.000000 1.6119787838914282e-38
29.217773 43.706140 71.884183 0.552365 0.833602 0.000000 1.6119787838914282e-38
27.681949 44.164536 71.901567 0.531659 0.846958 0.000000 1.6119787838914282e-38
26.430916 44.770256 71.757167 0.510631 0.859800 0.000000 1.6119787838914282e-38
25.948126 45.611046 71.771985 0.489293 0.872120 0.000000 1.6119787838914282e-38
24.127521 46.711883 72.084712 0.467658 0.883910 0.000000 1.6119787838914282e-38
23.665268 46.355620 71.858043 0.445738 0.895163 0.000000 1.6119787838914282e-38
21.857987 47.582739 71.849085 0.423549 0.905873 0.000000 1.6119787838914282e-38
21.121778 47.667353 71.440624 0.401102 0.916034 0.000000 1.6119787838914282e-38
29.789549 43.272215 73.263674 0.572735 0.819740 0.000000 1.6119787838914282e-38
29.127245 43.625859 72.800785 0.552365 0.833602 0.000000 1.6119787838914282e-38
27.813550 44.448949 72.472063 0.531659 0.846958 0.000000 1.6119787838914282e-38
26.514032 45.516166 73.051919 0.510631 0.859800 0.000000 1.6119787838914282e-38
26.056776 46.092410 72.895955 0.489293 0.872120 0.000000 1.6119787838914282e-38
24.463587 46.696681 73.217286 0.467658 0.883910 0.000000 1.6119787838914282e-38
23.698221 46.993485 73.032465 0.445738 0.895163 0.000000 1.6119787838914282e-38
22.160325 47.543803 72.783998 0.423549 0.905873 0.000000 1.6119787838914282e-38
21.036054 48.045267 72.852069 0.401102 0.916034 0.000000 1.6119787838914282e-38
28.105123 44.776592 73.666103 0.531659 0.846958 0.000000 1.6119787838914282e-38
26.697142 45.309816 74.358477 0.510631 0.859800 0.000000 1.6119787838914282e-38
25.838375 46.233097 73.803249 0.489293 0.872120 0.000000 1.6119787838914282e-38
24.783806 47.223317 74.241120 0.467658 0.883910 0.000000 1.6119787838914282e-38
23.530008 47.357100 74.063203 0.445738 0.895163 0.000000 1.6119787838914282e-38
22.049355 47.783466 73.730602 0.423549 0.905873 0.000000 1.6119787838914282e-38
21.268588 48.471156 73.745655 0.401102 0.916034 0.000000 1.6119787838914282e-38
25.645407 46.565916 75.611683 0.489293 0.872120 0.000000 1.6119787838914282e-38
24.806029 46.636507 75.983464 0.467658 0.883910 0.000000 1.6119787838914282e-38
23.343227 47.444451 75.614460 0.445738 0.895163 0.000000 1.6119787838914282e-38
22.036905 47.742139 75.326654 0.423549 0.905873 0.000000 1.6119787838914282e-38
