# .PCD v0.7 - Point Cloud Data file format
VERSION 0.7
FIELDS x y z normal_x normal_y normal_z rgb
SIZE 4 4 4 4 4 4 4
TYPE F F F F F F F
COUNT 1 1 1 1 1 1 1
WIDTH 256
HEIGHT 1
VIEWPOINT 0 0 0 1 0 0 0
POINTS 256
DATA ascii
-33.594013 28.375324 31.278594 -0.553663 0.468466 -0.688474 1.5658809689597668e-38
-33.062846 30.883631 32.212809 -0.549773 0.513728 -0.658660 1.5658809689597668e-38
-33.852836 29.679829 32.032470 -0.562263 0.500027 -0.658660 1.5658809689597668e-38
-35.019361 29.195485 31.926399 -0.574412 0.486022 -0.658660 1.5658809689597668e-38
-31.553979 34.169715 33.386078 -0.532058 0.576466 -0.620162 1.5658809689597668e-38
-32.131259 33.988970 32.888126 -0.546099 0.563183 -0.620162 1.5658809689597668e-38
-33.277834 32.981478 33.245448 -0.559808 0.549558 -0.620162 1.5658809689597668e-38
-33.679995 31.882402 33.773126 -0.573178 0.535598 -0.620162 1.5658809689597668e-38
-34.113384 30.947808 32.878313 -0.586200 0.521314 -0.620162 1.5658809689597668e-38
-35.646992 30.639730 32.977803 -0.598866 0.506713 -0.620162 1.5658809689597668e-38
-36.015798 28.347386 32.996694 -0.611168 0.491805 -0.620162 1.5658809689597668e-38
-29.345042 37.031711 34.600517 -0.510642 0.642642 -0.571188 1.5658809689597668e-38
-30.198903 36.525397 34.590875 -0.526320 0.629866 -0.571188 1.5658809689597668e-38
-31.577820 35.376694 34.814664 -0.541679 0.616707 -0.571188 1.5658809689597668e-38
-32.066926 34.622846 34.403859 -0.556708 0.603175 -0.571188 1.5658809689597668e-38
-32.769836 33.919663 34.864990 -0.571400 0.589276 -0.571188 1.5658809689597668e-38
-33.518711 33.070059 34.924070 -0.585745 0.575019 -0.571188 1.5658809689597668e-38
-34.547808 32.401856 33.982551 -0.599734 0.560413 -0.571188 1.5658809689597668e-38
-35.666428 31.184517 34.543579 -0.613359 0.545467 -0.571188 1.5658809689597668e-38
-36.105191 30.624997 34.724899 -0.626612 0.530190 -0.571188 1.5658809689597668e-38
-37.087384 29.886164 35.181962 -0.639484 0.514591 -0.571188 1.5658809689597668e-38
-27.996971 38.872526 35.840835 -0.501382 0.699109 -0.509767 1.5658809689597668e-38
-29.031117 38.398242 36.246681 -0.518454 0.686544 -0.509767 1.5658809689597668e-38
-30.340782 38.298770 35.866438 -0.535212 0.673563 -0.509767 1.5658809689597668e-38
-30.692712 36.977714 35.358482 -0.551644 0.660172 -0.509767 1.5658809689597668e-38
-32.084471 36.010389 36.174405 -0.567741 0.646380 -0.509767 1.5658809689597668e-38
-33.064230 35.117302 35.925744 -0.583494 0.632196 -0.509767 1.5658809689597668e-38
-33.368692 34.691715 35.581087 -0.598893 0.617629 -0.509767 1.5658809689597668e-38
-34.831217 33.884512 36.306226 -0.613928 0.602686 -0.509767 1.5658809689597668e-38
-35.275827 32.522810 35.747325 -0.628590 0.587378 -0.509767 1.5658809689597668e-38
-35.853081 31.919743 36.298447 -0.642871 0.571712 -0.509767 1.5658809689597668e-38
-36.471033 31.149036 35.289992 -0.656761 0.555700 -0.509767 1.5658809689597668e-38
-37.711119 30.014499 35.652304 -0.670253 0.539351 -0.509767 1.5658809689597668e-38
-38.178341 29.309189 35.374066 -0.683338 0.522673 -0.509767 1.5658809689597668e-38
-25.019423 41.557290 37.072340 -0.469527 0.768854 -0.434059 1.5658809689597668e-38
-26.553915 41.120566 36.821821 -0.488328 0.757053 -0.434059 1.5658809689597668e-38
-27.693252 39.697158 36.993804 -0.506831 0.744792 -0.434059 1.5658809689597668e-38
-28.122685 39.613035 37.084553 -0.525027 0.732079 -0.434059 1.5658809689597668e-38
-29.327120 38.645214 37.120988 -0.542904 0.718921 -0.434059 1.5658809689597668e-38
-30.094069 38.301431 37.406851 -0.560452 0.705327 -0.434059 1.5658809689597668e-38
-30.914095 37.648619 36.899392 -0.577659 0.691305 -0.434059 1.5658809689597668e-38
-32.309745 37.246933 37.207653 -0.594516 0.676863 -0.434059 1.5658809689597668e-38
-33.045835 35.604882 37.085964 -0.611012 0.662011 -0.434059 1.5658809689597668e-38
-33.758732 35.040935 36.957589 -0.627136 0.646756 -0.434059 1.5658809689597668e-38
-34.912757 34.546370 37.313736 -0.642880 0.631108 -0.434059 1.5658809689597668e-38
-35.498083 33.452672 36.758493 -0.658234 0.615078 -0.434059 1.5658809689597668e-38
-36.386696 32.752166 37.035126 -0.673188 0.598674 -0.434059 1.5658809689597668e-38
-36.963138 31.686998 37.361704 -0.687734 0.581907 -0.434059 1.5658809689597668e-38
-38.006433 30.861935 36.673998 -0.701862 0.564786 -0.434059 1.5658809689597668e-38
-38.754036 29.863819 37.202292 -0.715564 0.547322 -0.434059 1.5658809689597668e-38
-24.236442 43.467814 38.027015 -0.449492 0.824830 -0.342947 1.5658809689597668e-38
-24.441295 42.718658 38.633448 -0.469677 0.813505 -0.342947 1.5658809689597668e-38
-25.993363 41.937867 38.248505 -0.489577 0.801686 -0.342947 1.5658809689597668e-38
-27.182939 41.785680 37.862889 -0.509180 0.789381 -0.342947 1.5658809689597668e-38
-27.422222 40.908229 38.290855 -0.528474 0.776597 -0.342947 1.5658809689597668e-38
-28.644195 40.180126 38.230387 -0.547447 0.763341 -0.342947 1.5658809689597668e-38
-29.637146 39.583723 38.067111 -0.566088 0.749621 -0.342947 1.5658809689597668e-38
-30.583546 37.832134 37.771635 -0.584385 0.735447 -0.342947 1.5658809689597668e-38
-31.460231 37.726900 38.094484 -0.602327 0.720826 -0.342947 1.5658809689597668e-38
-32.568478 36.942701 38.053933 -0.619903 0.705767 -0.342947 1.5658809689597668e-38
-33.947504 35.657777 38.572153 -0.637103 0.690280 -0.342947 1.5658809689597668e-38
-34.465448 35.703821 38.220720 -0.653917 0.674374 -0.342947 1.5658809689597668e-38
-35.094268 34.518567 38.363849 -0.670333 0.658058 -0.342947 1.5658809689597668e-38
-36.013540 33.544730 37.981629 -0.686342 0.641343 -0.342947 1.5658809689597668e-38
-36.630422 33.258314 38.848280 -0.701935 0.624239 -0.342947 1.5658809689597668e-38
-37.822675 31.642205 38.184231 -0.717102 0.606756 -0.342947 1.5658809689597668e-38
-38.483017 30.908981 38.051137 -0.731833 0.588904 -0.342947 1.5658809689597668e-38
-39.624427 29.983492 37.291393 -0.746120 0.570695 -0.342947 1.5658809689597668e-38
-39.937158 28.710680 38.584562 -0.759954 0.552139 -0.342947 1.5658809689597668e-38
-22.610959 44.264879 39.665007 -0.443734 0.864286 -0.236874 1.5658809689597668e-38
-23.944830 44.075979 39.145824 -0.464893 0.853091 -0.236874 1.5658809689597668e-38
-25.029514 42.722443 39.524937 -0.485770 0.841379 -0.236874 1.5658809689597668e-38
-25.531394 42.333883 39.618072 -0.506352 0.829155 -0.236874 1.5658809689597668e-38
-26.743353 41.668496 39.702417 -0.526627 0.816428 -0.236874 1.5658809689597668e-38
-27.888304 40.753371 39.448334 -0.546582 0.803206 -0.236874 1.5658809689597668e-38
-28.861084 40.775848 39.972007 -0.566205 0.789495 -0.236874 1.5658809689597668e-38
-29.325157 39.810883 39.463634 -0.585484 0.775306 -0.236874 1.5658809689597668e-38
-30.941147 38.881090 39.465265 -0.604408 0.760646 -0.236874 1.5658809689597668e-38
-31.756460 38.270415 39.235502 -0.622965 0.745524 -0.236874 1.5658809689597668e-38
-32.474932 36.793721 39.520884 -0.641143 0.729949 -0.236874 1.5658809689597668e-38
-33.366711 36.707502 39.480537 -0.658933 0.713932 -0.236874 1.5658809689597668e-38
-34.010516 35.551609 38.987044 -0.676322 0.697480 -0.236874 1.5658809689597668e-38
-35.333991 34.286761 39.338194 -0.693301 0.680606 -0.236874 1.5658809689597668e-38
-36.130105 33.797603 39.761812 -0.709859 0.663318 -0.236874 1.5658809689597668e-38
-37.489429 33.288346 39.080345 -0.725986 0.645628 -0.236874 1.5658809689597668e-38
-37.548930 31.963085 40.046976 -0.741672 0.627545 -0.236874 1.5658809689597668e-38
-38.976158 31.738520 39.300331 -0.756908 0.609082 -0.236874 1.5658809689597668e-38
-40.018164 30.210501 39.957826 -0.771685 0.590249 -0.236874 1.5658809689597668e-38
-39.974750 29.564609 39.830785 -0.785993 0.571057 -0.236874 1.5658809689597668e-38
-21.883065 44.726003 41.010015 -0.431606 0.894224 -0.118656 1.5658809689597668e-38
-22.336408 44.310630 40.608038 -0.453506 0.883319 -0.118656 1.5658809689597668e-38
-24.336996 43.915751 41.193523 -0.475131 0.871878 -0.118656 1.5658809689597668e-38
-24.581058 43.653931 40.949364 -0.496468 0.859907 -0.118656 1.5658809689597668e-38
-25.995555 42.996879 40.491724 -0.517503 0.847415 -0.118656 1.5658809689597668e-38
-27.196822 42.471392 40.502361 -0.538224 0.834407 -0.118656 1.5658809689597668e-38
-28.100432 41.467999 40.849552 -0.558618 0.820894 -0.118656 1.5658809689597668e-38
-28.753742 41.031705 40.968642 -0.578673 0.806882 -0.118656 1.5658809689597668e-38
-29.672355 39.566168 40.777480 -0.598377 0.792380 -0.118656 1.5658809689597668e-38
-30.340357 39.674229 40.441661 -0.617718 0.777397 -0.118656 1.5658809689597668e-38
-32.019425 38.355020 40.949700 -0.636683 0.761942 -0.118656 1.5658809689597668e-38
-32.567629 38.065533 40.835967 -0.655262 0.746024 -0.118656 1.5658809689597668e-38
-33.527488 36.885057 40.818403 -0.673444 0.729654 -0.118656 1.5658809689597668e-38
-35.267215 36.150678 41.006300 -0.691216 0.712840 -0.118656 1.5658809689597668e-38
-35.513473 34.683532 41.412483 -0.708569 0.695594 -0.118656 1.5658809689597668e-38
-36.435559 33.747041 40.434046 -0.725491 0.677926 -0.118656 1.5658809689597668e-38
-37.106862 33.392475 40.685839 -0.741973 0.659845 -0.118656 1.5658809689597668e-38
-37.977469 32.451284 40.866720 -0.758005 0.641365 -0.118656 1.5658809689597668e-38
-39.109671 31.590532 41.076032 -0.773577 0.622495 -0.118656 1.5658809689597668e-38
-39.488362 30.084125 40.425433 -0.788679 0.603247 -0.118656 1.5658809689597668e-38
-40.371029 29.626820 41.136854 -0.803302 0.583633 -0.118656 1.5658809689597668e-38
-40.929468 28.208699 40.583480 -0.817437 0.563664 -0.118656 1.5658809689597668e-38
-21.830511 45.355632 41.850709 -0.434674 0.900581 0.003484 1.5658809689597668e-38
-23.063596 44.878514 41.874053 -0.456730 0.889599 0.003484 1.5658809689597668e-38
-24.395897 43.591986 42.318868 -0.478509 0.878076 0.003484 1.5658809689597668e-38
-24.771760 43.072427 41.872340 -0.499997 0.866020 0.003484 1.5658809689597668e-38
-25.857283 43.066874 42.041216 -0.521182 0.853439 0.003484 1.5658809689597668e-38
-26.936338 42.279143 42.707757 -0.542050 0.840339 0.003484 1.5658809689597668e-38
-28.476292 41.136003 41.909914 -0.562589 0.826729 0.003484 1.5658809689597668e-38
-28.891210 40.555456 42.155529 -0.582787 0.812617 0.003484 1.5658809689597668e-38
-30.095114 39.901297 42.094075 -0.602631 0.798012 0.003484 1.5658809689597668e-38
-30.796604 38.855120 42.017319 -0.622109 0.782923 0.003484 1.5658809689597668e-38
-32.425180 38.436018 42.003197 -0.641209 0.767358 0.003484 1.5658809689597668e-38
-32.675383 37.565067 41.928704 -0.659921 0.751327 0.003484 1.5658809689597668e-38
-33.985696 37.259196 41.590831 -0.678231 0.734841 0.003484 1.5658809689597668e-38
-34.994877 35.906321 41.870928 -0.696130 0.717908 0.003484 1.5658809689597668e-38
-35.533226 35.010131 42.138651 -0.713606 0.700539 0.003484 1.5658809689597668e-38
-36.497229 34.106456 41.674609 -0.730649 0.682745 0.003484 1.5658809689597668e-38
-37.309718 32.697915 41.860267 -0.747248 0.664536 0.003484 1.5658809689597668e-38
-38.023070 32.653240 42.766681 -0.763394 0.645924 0.003484 1.5658809689597668e-38
-39.082421 31.086585 42.218541 -0.779076 0.626920 0.003484 1.5658809689597668e-38
-39.153418 30.836705 41.751332 -0.794285 0.607535 0.003484 1.5658809689597668e-38
-40.492915 29.644309 42.337769 -0.809012 0.587782 0.003484 1.5658809689597668e-38
-40.985000 28.249050 42.236745 -0.823248 0.567671 0.003484 1.5658809689597668e-38
-21.101246 45.303068 42.697388 -0.433521 0.898193 0.072865 1.5658809689597668e-38
-23.124031 44.290491 43.550399 -0.455519 0.887239 0.072865 1.5658809689597668e-38
-24.616693 43.826634 43.533284 -0.477240 0.875747 0.072865 1.5658809689597668e-38
-25.826492 43.484175 43.559052 -0.498671 0.863723 0.072865 1.5658809689597668e-38
-26.288492 42.285679 43.040281 -0.519799 0.851175 0.072865 1.5658809689597668e-38
-27.878558 41.879444 43.364848 -0.540612 0.838110 0.072865 1.5658809689597668e-38
-28.468724 41.589067 43.329739 -0.561097 0.824537 0.072865 1.5658809689597668e-38
-29.033851 40.471933 43.521882 -0.581241 0.810462 0.072865 1.5658809689597668e-38
-29.715948 39.740713 43.527279 -0.601033 0.795896 0.072865 1.5658809689597668e-38
-30.844492 39.234565 43.802085 -0.620459 0.780846 0.072865 1.5658809689597668e-38
-32.248165 38.205232 43.065881 -0.639509 0.765323 0.072865 1.5658809689597668e-38
-32.747384 37.449172 43.090244 -0.658170 0.749335 0.072865 1.5658809689597668e-38
-33.380606 37.250207 43.200361 -0.676432 0.732892 0.072865 1.5658809689597668e-38
-35.183864 36.420562 43.440188 -0.694284 0.716004 0.072865 1.5658809689597668e-38
-35.520406 35.025388 43.058874 -0.711713 0.698681 0.072865 1.5658809689597668e-38
-36.621948 34.308339 43.164701 -0.728711 0.680934 0.072865 1.5658809689597668e-38
-37.197249 33.199464 42.981903 -0.745266 0.662774 0.072865 1.5658809689597668e-38
-37.647326 32.443942 43.398163 -0.761369 0.644211 0.072865 1.5658809689597668e-38
-38.750528 30.778554 43.151015 -0.777010 0.625257 0.072865 1.5658809689597668e-38
-40.134969 30.385505 43.396743 -0.792179 0.605924 0.072865 1.5658809689597668e-38
-40.370033 29.714929 42.849763 -0.806866 0.586223 0.072865 1.5658809689597668e-38
-41.363331 28.481085 43.378150 -0.821065 0.566166 0.072865 1.5658809689597668e-38
-42.204341 27.693952 43.761936 -0.834764 0.545765 0.072865 1.5658809689597668e-38
-23.702014 43.389545 44.658734 -0.473754 0.869351 0.140662 1.5658809689597668e-38
-24.567746 42.996723 44.536356 -0.495029 0.857415 0.140662 1.5658809689597668e-38
-26.585661 42.248912 44.617239 -0.516003 0.844959 0.140662 1.5658809689597668e-38
-26.718110 41.685619 45.336898 -0.536664 0.831989 0.140662 1.5658809689597668e-38
-27.933843 40.805359 44.922237 -0.556999 0.818515 0.140662 1.5658809689597668e-38
-29.410137 40.582853 44.257310 -0.576996 0.804543 0.140662 1.5658809689597668e-38
-30.430101 40.045352 44.458149 -0.596643 0.790083 0.140662 1.5658809689597668e-38
-30.475560 38.699571 44.068190 -0.615928 0.775143 0.140662 1.5658809689597668e-38
-32.088736 39.096669 44.786257 -0.634838 0.759733 0.140662 1.5658809689597668e-38
-32.710849 37.606955 44.390629 -0.653363 0.743862 0.140662 1.5658809689597668e-38
-32.970433 36.746931 44.645377 -0.671492 0.727539 0.140662 1.5658809689597668e-38
-34.385488 35.383939 44.272278 -0.689213 0.710774 0.140662 1.5658809689597668e-38
-35.625254 35.198003 44.146667 -0.706515 0.693578 0.140662 1.5658809689597668e-38
-36.420877 33.951455 44.063767 -0.723389 0.675961 0.140662 1.5658809689597668e-38
-37.380321 33.269641 44.091102 -0.739823 0.657933 0.140662 1.5658809689597668e-38
-37.608612 32.320135 44.639884 -0.755808 0.639506 0.140662 1.5658809689597668e-38
-38.810838 30.905245 44.341173 -0.771335 0.620691 0.140662 1.5658809689597668e-38
-39.462456 30.071704 44.592707 -0.786393 0.601499 0.140662 1.5658809689597668e-38
-40.574372 29.418513 44.693907 -0.800973 0.581941 0.140662 1.5658809689597668e-38
-41.502240 28.301383 44.079582 -0.815068 0.562031 0.140662 1.5658809689597668e-38
-42.256573 27.083959 45.375158 -0.828667 0.541779 0.140662 1.5658809689597668e-38
-25.759081 42.523723 45.466478 -0.510059 0.835225 0.205519 1.5658809689597668e-38
-26.593342 41.680887 46.098657 -0.530482 0.822405 0.205519 1.5658809689597668e-38
-27.614935 41.213095 45.739858 -0.550583 0.809086 0.205519 1.5658809689597668e-38
-28.694382 40.640475 45.955216 -0.570350 0.795275 0.205519 1.5658809689597668e-38
-29.830766 39.796358 45.615485 -0.589770 0.780982 0.205519 1.5658809689597668e-38
-30.403495 38.329789 45.783517 -0.608833 0.766214 0.205519 1.5658809689597668e-38
-31.926891 37.870026 45.864755 -0.627525 0.750982 0.205519 1.5658809689597668e-38
-33.070850 37.912723 45.367564 -0.645837 0.735293 0.205519 1.5658809689597668e-38
-33.926819 36.135663 45.832745 -0.663757 0.719158 0.205519 1.5658809689597668e-38
-34.224883 35.767267 46.214899 -0.681274 0.702587 0.205519 1.5658809689597668e-38
-35.644272 34.945560 45.682135 -0.698377 0.685589 0.205519 1.5658809689597668e-38
-36.173025 34.197931 45.265515 -0.715056 0.668174 0.205519 1.5658809689597668e-38
-36.467499 32.918576 45.291208 -0.731301 0.650354 0.205519 1.5658809689597668e-38
-38.073508 32.069654 45.565273 -0.747102 0.632139 0.205519 1.5658809689597668e-38
-39.257886 31.125363 45.556671 -0.762450 0.613541 0.205519 1.5658809689597668e-38
-39.202580 29.814290 46.451655 -0.777334 0.594570 0.205519 1.5658809689597668e-38
-39.974319 29.214033 45.960133 -0.791747 0.575238 0.205519 1.5658809689597668e-38
-41.380985 28.008396 46.308102 -0.805679 0.555557 0.205519 1.5658809689597668e-38
-41.611905 27.124030 45.633246 -0.819122 0.535538 0.205519 1.5658809689597668e-38
-27.996961 41.412297 46.684548 -0.542271 0.796872 0.266341 1.5658809689597668e-38
-28.862658 39.493229 46.756550 -0.561740 0.783270 0.266341 1.5658809689597668e-38
-30.008416 39.141504 47.100274 -0.580867 0.769192 0.266341 1.5658809689597668e-38
-30.508118 38.296624 46.773409 -0.599641 0.754647 0.266341 1.5658809689597668e-38
-31.287038 38.342897 47.387084 -0.618052 0.739645 0.266341 1.5658809689597668e-38
-33.028462 37.397806 47.566416 -0.636087 0.724193 0.266341 1.5658809689597668e-38
-33.946067 36.552982 47.077874 -0.653737 0.708302 0.266341 1.5658809689597668e-38
-34.417843 35.425220 47.143287 -0.670989 0.691980 0.266341 1.5658809689597668e-38
-34.834011 34.868876 46.558231 -0.687834 0.675239 0.266341 1.5658809689597668e-38
-36.216114 33.687881 47.481975 -0.704261 0.658087 0.266341 1.5658809689597668e-38
-37.658118 32.578865 46.551942 -0.720261 0.640536 0.266341 1.5658809689597668e-38
-38.046676 32.140251 46.850744 -0.735823 0.622596 0.266341 1.5658809689597668e-38
-39.109115 30.860081 47.621067 -0.750939 0.604279 0.266341 1.5658809689597668e-38
-39.700839 30.111812 47.480620 -0.765599 0.585594 0.266341 1.5658809689597668e-38
-39.899711 29.556465 46.812366 -0.779794 0.566554 0.266341 1.5658809689597668e-38
-40.152941 28.349588 47.000549 -0.793516 0.547170 0.266341 1.5658809689597668e-38
-41.710083 26.677639 46.307053 -0.806756 0.527453 0.266341 1.5658809689597668e-38
-29.359311 38.698314 48.019255 -0.570467 0.755420 0.322349 1.5658809689597668e-38
-30.654262 38.307350 48.645269 -0.588905 0.741136 0.322349 1.5658809689597668e-38
-31.237300 37.268228 48.273623 -0.606986 0.726402 0.322349 1.5658809689597668e-38
-32.306794 36.648867 48.242798 -0.624698 0.711227 0.322349 1.5658809689597668e-38
-32.949219 35.731631 48.143655 -0.642032 0.695620 0.322349 1.5658809689597668e-38
-33.759282 35.259956 48.631156 -0.658975 0.679590 0.322349 1.5658809689597668e-38
-34.478076 33.861443 48.333912 -0.675518 0.663149 0.322349 1.5658809689597668e-38
-35.894937 33.039522 48.010665 -0.691652 0.646304 0.322349 1.5658809689597668e-38
-36.644800 32.420038 48.065356 -0.707365 0.629068 0.322349 1.5658809689597668e-38
-37.348490 32.331909 47.729857 -0.722649 0.611449 0.322349 1.5658809689597668e-38
-37.770401 30.662741 48.116059 -0.737494 0.593459 0.322349 1.5658809689597668e-38
-39.461036 29.948801 47.815132 -0.751891 0.575109 0.322349 1.5658809689597668e-38
-39.327634 29.276048 47.862582 -0.765832 0.556410 0.322349 1.5658809689597668e-38
-39.921898 27.777501 47.619161 -0.779308 0.537373 0.322349 1.5658809689597668e-38
-31.262509 37.198780 49.347395 -0.594915 0.711956 0.373087 1.5658809689597668e-38
-31.981007 36.576191 49.024478 -0.612275 0.697083 0.373087 1.5658809689597668e-38
-33.094028 35.599719 49.954140 -0.629264 0.681786 0.373087 1.5658809689597668e-38
-33.480331 34.788194 49.605229 -0.645870 0.666076 0.373087 1.5658809689597668e-38
-34.611261 34.270758 49.614662 -0.662085 0.649961 0.373087 1.5658809689597668e-38
-35.023055 32.678702 49.242679 -0.677897 0.633452 0.373087 1.5658809689597668e-38
-36.128714 32.350983 50.204638 -0.693298 0.616558 0.373087 1.5658809689597668e-38
-37.535815 31.291083 49.461159 -0.708278 0.599290 0.373087 1.5658809689597668e-38
-37.682087 30.900057 49.747419 -0.722828 0.581658 0.373087 1.5658809689597668e-38
-38.971671 29.900837 49.936295 -0.736939 0.563672 0.373087 1.5658809689597668e-38
-39.125205 27.998136 49.439050 -0.750603 0.545345 0.373087 1.5658809689597668e-38
-32.999121 35.258941 50.970976 -0.616021 0.667438 0.418385 1.5658809689597668e-38
-33.446320 34.499379 51.357571 -0.632278 0.652058 0.418385 1.5658809689597668e-38
-34.138041 34.468242 51.101039 -0.648151 0.636282 0.418385 1.5658809689597668e-38
-35.001060 32.808171 50.625819 -0.663630 0.620120 0.418385 1.5658809689597668e-38
-35.737173 32.016528 50.600405 -0.678707 0.603582 0.418385 1.5658809689597668e-38
-36.999822 31.352459 51.013694 -0.693372 0.586677 0.418385 1.5658809689597668e-38
-37.762531 30.096594 51.029771 -0.707615 0.569416 0.418385 1.5658809689597668e-38
-37.789191 28.908087 51.016285 -0.721430 0.551809 0.418385 1.5658809689597668e-38
-38.767576 28.286187 50.445802 -0.734806 0.533868 0.418385 1.5658809689597668e-38
-33.353791 32.873552 52.389259 -0.634258 0.622644 0.458292 1.5658809689597668e-38
-34.586096 32.014637 52.048302 -0.649406 0.606828 0.458292 1.5658809689597668e-38
-35.382138 31.024399 51.628448 -0.664159 0.590644 0.458292 1.5658809689597668e-38
-35.633343 30.649337 52.403301 -0.678510 0.574102 0.458292 1.5658809689597668e-38
-36.991606 29.425981 51.453769 -0.692448 0.557211 0.458292 1.5658809689597668e-38
-37.295956 28.872355 51.836499 -0.705966 0.539982 0.458292 1.5658809689597668e-38
-34.635588 30.765413 53.351052 -0.650125 0.578164 0.493015 1.5658809689597668e-38
-36.029982 29.934019 53.594147 -0.664172 0.561971 0.493015 1.5658809689597668e-38
-36.239280 29.327858 53.491967 -0.677816 0.545437 0.493015 1.5658809689597668e-38
