# .PCD v0.7 - Point Cloud Data file format
VERSION 0.7
FIELDS x y z normal_x normal_y normal_z rgb
SIZE 4 4 4 4 4 4 4
TYPE F F F F F F F
COUNT 1 1 1 1 1 1 1
WIDTH 200
HEIGHT 1
VIEWPOINT 0 0 0 1 0 0 0
POINTS 200
DATA ascii
-50.701103 26.696826 108.196188 -0.886774 0.462204 0.000000 1.7962614429870884e-38
-51.533787 25.481546 107.604712 -0.897892 0.440216 0.000000 1.7962614429870884e-38
-50.411772 27.166479 108.309537 -0.875117 0.483911 0.000000 1.7962614429870884e-38
-50.572119 26.740874 109.151905 -0.886774 0.462204 0.000000 1.7962614429870884e-38
-51.495181 25.212162 108.191928 -0.897892 0.440216 0.000000 1.7962614429870884e-38
-51.463974 24.247536 109.137167 -0.908465 0.417960 0.000000 1.7962614429870884e-38
-52.791721 22.504269 108.808933 -0.918487 0.395451 0.000000 1.7962614429870884e-38
-52.553523 21.612452 108.809887 -0.927951 0.372702 0.000000 1.7962614429870884e-38
-53.397210 19.725124 108.450531 -0.936852 0.349727 0.000000 1.7962614429870884e-38
-50.138857 27.322453 110.080487 -0.875117 0.483911 0.000000 1.7962614429870884e-38
-50.416153 26.358292 110.134320 -0.886774 0.462204 0.000000 1.7962614429870884e-38
-52.004374 24.945530 110.315432 -0.897892 0.440216 0.000000 1.7962614429870884e-38
-51.691745 23.991375 110.278234 -0.908465 0.417960 0.000000 1.7962614429870884e-38
-52.703188 22.645571 109.784902 -0.918487 0.395451 0.000000 1.7962614429870884e-38
-53.272100 21.328563 109.634066 -0.927951 0.372702 0.000000 1.7962614429870884e-38
-52.916149 19.810376 110.166169 -0.936852 0.349727 0.000000 1.7962614429870884e-38
-54.486584 17.787193 110.616820 -0.945184 0.326539 0.000000 1.7962614429870884e-38
-54.538703 16.703177 109.795234 -0.952942 0.303153 0.000000 1.7962614429870884e-38
-54.346080 16.150695 109.328972 -0.960122 0.279583 0.000000 1.7962614429870884e-38
-55.497908 14.592035 110.260662 -0.966718 0.255843 0.000000 1.7962614429870884e-38
-49.602023 29.357796 111.414418 -0.862929 0.505325 0.000000 1.7962614429870884e-38
-50.061204 27.648991 111.096161 -0.875117 0.483911 0.000000 1.7962614429870884e-38
-50.797261 26.855485 111.109369 -0.886774 0.462204 0.000000 1.7962614429870884e-38
-51.060531 25.398729 110.731129 -0.897892 0.440216 0.000000 1.7962614429870884e-38
-52.337085 24.639020 111.303794 -0.908465 0.417960 0.000000 1.7962614429870884e-38
-52.907929 22.400918 111.299393 -0.918487 0.395451 0.000000 1.7962614429870884e-38
-52.903656 21.257529 111.107549 -0.927951 0.372702 0.000000 1.7962614429870884e-38
-54.368832 19.769194 111.130726 -0.936852 0.349727 0.000000 1.7962614429870884e-38
-54.070244 18.834959 111.771855 -0.945184 0.326539 0.000000 1.7962614429870884e-38
-54.968389 17.413143 111.388369 -0.952942 0.303153 0.000000 1.7962614429870884e-38
-55.322711 16.296201 111.851476 -0.960122 0.279583 0.000000 1.7962614429870884e-38
-55.393620 14.518632 111.788369 -0.966718 0.255843 0.000000 1.7962614429870884e-38
-55.614173 12.927949 111.282041 -0.972728 0.231948 0.000000 1.7962614429870884e-38
-56.164359 11.661270 111.100443 -0.978148 0.207912 0.000000 1.7962614429870884e-38
-56.533128 10.773544 111.251898 -0.982973 0.183750 0.000000 1.7962614429870884e-38
-56.548831 9.429523 111.250558 -0.987202 0.159476 0.000000 1.7962614429870884e-38
-49.566975 29.077003 112.113866 -0.862929 0.505325 0.000000 1.7962614429870884e-38
-50.114293 27.494291 112.597691 -0.875117 0.483911 0.000000 1.7962614429870884e-38
-50.105466 26.416271 112.235805 -0.886774 0.462204 0.000000 1.7962614429870884e-38
-51.507416 25.193225 112.473649 -0.897892 0.440216 0.000000 1.7962614429870884e-38
-52.098230 23.918269 112.206022 -0.908465 0.417960 0.000000 1.7962614429870884e-38
-52.436030 23.076675 112.465682 -0.918487 0.395451 0.000000 1.7962614429870884e-38
-53.120993 20.764085 112.571817 -0.927951 0.372702 0.000000 1.7962614429870884e-38
-53.159699 20.299905 112.623531 -0.936852 0.349727 0.000000 1.7962614429870884e-38
-54.227920 18.640193 112.703249 -0.945184 0.326539 0.000000 1.7962614429870884e-38
-54.351112 17.237994 112.802657 -0.952942 0.303153 0.000000 1.7962614429870884e-38
-55.314024 15.905390 112.243862 -0.960122 0.279583 0.000000 1.7962614429870884e-38
-55.401760 14.699887 112.696278 -0.966718 0.255843 0.000000 1.7962614429870884e-38
-55.701994 13.521194 113.202786 -0.972728 0.231948 0.000000 1.7962614429870884e-38
-55.885522 11.333605 112.502940 -0.978148 0.207912 0.000000 1.7962614429870884e-38
-56.392765 10.064272 112.826337 -0.982973 0.183750 0.000000 1.7962614429870884e-38
-56.088173 8.887364 112.956267 -0.987202 0.159476 0.000000 1.7962614429870884e-38
-56.510943 7.831752 112.826510 -0.990831 0.135105 0.000000 1.7962614429870884e-38
-57.235955 6.692172 112.957128 -0.993859 0.110653 0.000000 1.7962614429870884e-38
-57.002543 5.032127 112.339320 -0.996284 0.086133 0.000000 1.7962614429870884e-38
-56.966141 3.535352 112.536381 -0.998103 0.061561 0.000000 1.7962614429870884e-38
-49.214579 30.347911 113.720865 -0.850217 0.526432 0.000000 1.7962614429870884e-38
-49.291150 28.593834 113.781975 -0.862929 0.505325 0.000000 1.7962614429870884e-38
-49.731613 27.688217 113.639405 -0.875117 0.483911 0.000000 1.7962614429870884e-38
-50.628848 26.896947 113.623874 -0.886774 0.462204 0.000000 1.7962614429870884e-38
-51.709216 25.528810 113.904442 -0.897892 0.440216 0.000000 1.7962614429870884e-38
-52.050839 24.062710 113.799245 -0.908465 0.417960 0.000000 1.7962614429870884e-38
-52.422098 23.116207 113.505500 -0.918487 0.395451 0.000000 1.7962614429870884e-38
-52.999996 21.380620 113.428649 -0.927951 0.372702 0.000000 1.7962614429870884e-38
-54.054345 19.952116 114.131878 -0.936852 0.349727 0.000000 1.7962614429870884e-38
-54.565585 18.203730 113.734991 -0.945184 0.326539 0.000000 1.7962614429870884e-38
-54.843882 17.722722 113.891508 -0.952942 0.303153 0.000000 1.7962614429870884e-38
-54.899044 15.930546 113.449124 -0.960122 0.279583 0.000000 1.7962614429870884e-38
-55.097799 14.508907 114.008654 -0.966718 0.255843 0.000000 1.7962614429870884e-38
-55.946837 13.511508 113.905043 -0.972728 0.231948 0.000000 1.7962614429870884e-38
-56.109063 12.058504 113.742112 -0.978148 0.207912 0.000000 1.7962614429870884e-38
-56.935956 10.634237 114.158070 -0.982973 0.183750 0.000000 1.7962614429870884e-38
-56.680540 9.060141 113.892767 -0.987202 0.159476 0.000000 1.7962614429870884e-38
-56.581801 7.670978 113.366060 -0.990831 0.135105 0.000000 1.7962614429870884e-38
-57.001994 6.461046 113.866667 -0.993859 0.110653 0.000000 1.7962614429870884e-38
-57.336932 5.044528 113.745185 -0.996284 0.086133 0.000000 1.7962614429870884e-38
-57.424144 3.447985 113.866343 -0.998103 0.061561 0.000000 1.7962614429870884e-38
-57.278431 1.966981 113.874147 -0.999317 0.036951 0.000000 1.7962614429870884e-38
-57.282967 0.874396 113.958994 -0.999924 0.012320 0.000000 1.7962614429870884e-38
-49.075606 30.052196 115.004463 -0.850217 0.526432 0.000000 1.7962614429870884e-38
-49.704284 29.197138 115.006445 -0.862929 0.505325 0.000000 1.7962614429870884e-38
-50.128831 27.678157 115.243584 -0.875117 0.483911 0.000000 1.7962614429870884e-38
-50.668589 25.953725 115.164989 -0.886774 0.462204 0.000000 1.7962614429870884e-38
-51.780747 25.153101 115.145446 -0.897892 0.440216 0.000000 1.7962614429870884e-38
-52.142922 23.936365 115.249924 -0.908465 0.417960 0.000000 1.7962614429870884e-38
-52.701497 22.486087 115.381154 -0.918487 0.395451 0.000000 1.7962614429870884e-38
-52.979515 21.410933 114.884025 -0.927951 0.372702 0.000000 1.7962614429870884e-38
-54.041521 20.589164 114.996265 -0.936852 0.349727 0.000000 1.7962614429870884e-38
-54.244989 18.882124 114.222827 -0.945184 0.326539 0.000000 1.7962614429870884e-38
-55.009041 18.072699 114.212489 -0.952942 0.303153 0.000000 1.7962614429870884e-38
-55.595573 15.923564 114.753897 -0.960122 0.279583 0.000000 1.7962614429870884e-38
-55.750822 14.348343 114.999967 -0.966718 0.255843 0.000000 1.7962614429870884e-38
-55.763595 13.442594 114.804979 -0.972728 0.231948 0.000000 1.7962614429870884e-38
-55.890242 11.984757 115.372881 -0.978148 0.207912 0.000000 1.7962614429870884e-38
-56.372700 10.475578 114.980484 -0.982973 0.183750 0.000000 1.7962614429870884e-38
-56.596379 9.538563 115.089085 -0.987202 0.159476 0.000000 1.7962614429870884e-38
-56.847826 7.929598 114.519037 -0.990831 0.135105 0.000000 1.7962614429870884e-38
-57.513550 6.420921 114.764679 -0.993859 0.110653 0.000000 1.7962614429870884e-38
-57.302932 4.943219 115.775353 -0.996284 0.086133 0.000000 1.7962614429870884e-38
-57.381229 2.901601 115.112720 -0.998103 0.061561 0.000000 1.7962614429870884e-38
-57.092677 2.282103 115.190959 -0.999317 0.036951 0.000000 1.7962614429870884e-38
-57.653831 0.581476 114.796821 -0.999924 0.012320 0.000000 1.7962614429870884e-38
-48.157731 30.820715 116.376293 -0.836989 0.547220 0.000000 1.7962614429870884e-38
-49.234353 30.614086 115.775067 -0.850217 0.526432 0.000000 1.7962614429870884e-38
-49.477011 28.440954 116.094968 -0.862929 0.505325 0.000000 1.7962614429870884e-38
-50.169615 28.083002 116.548763 -0.875117 0.483911 0.000000 1.7962614429870884e-38
-50.751933 26.799843 116.553487 -0.886774 0.462204 0.000000 1.7962614429870884e-38
-51.766836 25.180352 116.489544 -0.897892 0.440216 0.000000 1.7962614429870884e-38
-51.878497 23.967197 116.121599 -0.908465 0.417960 0.000000 1.7962614429870884e-38
-52.957616 22.468613 116.421916 -0.918487 0.395451 0.000000 1.7962614429870884e-38
-52.992101 21.554942 116.275455 -0.927951 0.372702 0.000000 1.7962614429870884e-38
-53.268247 20.091295 116.699489 -0.936852 0.349727 0.000000 1.7962614429870884e-38
-54.644069 18.827040 115.991867 -0.945184 0.326539 0.000000 1.7962614429870884e-38
-55.038628 17.176353 116.306981 -0.952942 0.303153 0.000000 1.7962614429870884e-38
-55.312254 15.444825 116.157859 -0.960122 0.279583 0.000000 1.7962614429870884e-38
-55.739887 14.177210 116.424474 -0.966718 0.255843 0.000000 1.7962614429870884e-38
-55.697917 13.513795 116.799624 -0.972728 0.231948 0.000000 1.7962614429870884e-38
-56.545501 11.618342 116.278336 -0.978148 0.207912 0.000000 1.7962614429870884e-38
-56.521900 10.599171 116.539447 -0.982973 0.183750 0.000000 1.7962614429870884e-38
-56.805934 9.474073 116.057264 -0.987202 0.159476 0.000000 1.7962614429870884e-38
-57.089843 7.430443 115.265215 -0.990831 0.135105 0.000000 1.7962614429870884e-38
-57.636789 6.627097 116.619424 -0.993859 0.110653 0.000000 1.7962614429870884e-38
-57.634800 5.229032 115.560135 -0.996284 0.086133 0.000000 1.7962614429870884e-38
-57.665082 3.397300 116.604776 -0.998103 0.061561 0.000000 1.7962614429870884e-38
-56.883453 1.984466 116.268131 -0.999317 0.036951 0.000000 1.7962614429870884e-38
-57.148051 1.382288 116.645043 -0.999924 0.012320 0.000000 1.7962614429870884e-38
-48.181488 31.119328 117.333604 -0.836989 0.547220 0.000000 1.7962614429870884e-38
-49.107221 30.450512 117.206126 -0.850217 0.526432 0.000000 1.7962614429870884e-38
-49.770622 29.056220 117.068537 -0.862929 0.505325 0.000000 1.7962614429870884e-38
-50.442180 27.824175 117.572081 -0.875117 0.483911 0.000000 1.7962614429870884e-38
-50.874150 26.337480 117.194303 -0.886774 0.462204 0.000000 1.7962614429870884e-38
-51.758474 25.360332 117.435251 -0.897892 0.440216 0.000000 1.7962614429870884e-38
-52.560861 24.687246 117.285338 -0.908465 0.417960 0.000000 1.7962614429870884e-38
-53.199733 22.520785 117.784769 -0.918487 0.395451 0.000000 1.7962614429870884e-38
-53.171748 21.959765 117.222278 -0.927951 0.372702 0.000000 1.7962614429870884e-38
-53.944960 20.407679 117.210940 -0.936852 0.349727 0.000000 1.7962614429870884e-38
-53.985358 18.781243 117.286206 -0.945184 0.326539 0.000000 1.7962614429870884e-38
-55.293979 17.583198 117.968672 -0.952942 0.303153 0.000000 1.7962614429870884e-38
-55.089881 16.190575 117.604856 -0.960122 0.279583 0.000000 1.7962614429870884e-38
-55.294409 15.074890 116.660425 -0.966718 0.255843 0.000000 1.7962614429870884e-38
-56.012553 13.147831 117.582391 -0.972728 0.231948 0.000000 1.7962614429870884e-38
-56.347030 12.085221 117.625946 -0.978148 0.207912 0.000000 1.7962614429870884e-38
-57.080312 9.909736 117.752666 -0.982973 0.183750 0.000000 1.7962614429870884e-38
-56.997903 9.682956 117.781483 -0.987202 0.159476 0.000000 1.7962614429870884e-38
-57.493500 7.527220 117.597678 -0.990831 0.135105 0.000000 1.7962614429870884e-38
-57.265142 6.308822 117.193372 -0.993859 0.110653 0.000000 1.7962614429870884e-38
-57.166998 4.957171 117.752475 -0.996284 0.086133 0.000000 1.7962614429870884e-38
-57.389734 3.350161 117.566883 -0.998103 0.061561 0.000000 1.7962614429870884e-38
-57.336145 2.124711 117.894226 -0.999317 0.036951 0.000000 1.7962614429870884e-38
-57.805627 0.980768 117.159950 -0.999924 0.012320 0.000000 1.7962614429870884e-38
-47.512004 32.700038 118.874927 -0.823253 0.567675 0.000000 1.7962614429870884e-38
-48.278092 31.071883 118.562916 -0.836989 0.547220 0.000000 1.7962614429870884e-38
-48.919926 29.799275 118.817774 -0.850217 0.526432 0.000000 1.7962614429870884e-38
-49.131394 28.813229 119.398671 -0.862929 0.505325 0.000000 1.7962614429870884e-38
-50.527154 27.756129 118.907858 -0.875117 0.483911 0.000000 1.7962614429870884e-38
-50.999891 26.066310 118.837972 -0.886774 0.462204 0.000000 1.7962614429870884e-38
-51.601936 25.231817 118.784393 -0.897892 0.440216 0.000000 1.7962614429870884e-38
-52.100506 23.765046 118.923656 -0.908465 0.417960 0.000000 1.7962614429870884e-38
-52.992183 23.197488 119.074931 -0.918487 0.395451 0.000000 1.7962614429870884e-38
-53.652517 21.797889 118.885118 -0.927951 0.372702 0.000000 1.7962614429870884e-38
-53.706240 20.053466 118.660038 -0.936852 0.349727 0.000000 1.7962614429870884e-38
-54.425485 18.488762 118.201589 -0.945184 0.326539 0.000000 1.7962614429870884e-38
-54.981778 17.237281 118.435926 -0.952942 0.303153 0.000000 1.7962614429870884e-38
-55.028606 16.148123 118.585141 -0.960122 0.279583 0.000000 1.7962614429870884e-38
-55.675947 14.776881 118.544825 -0.966718 0.255843 0.000000 1.7962614429870884e-38
-56.694329 13.695005 118.728507 -0.972728 0.231948 0.000000 1.7962614429870884e-38
-56.158566 12.005713 118.329996 -0.978148 0.207912 0.000000 1.7962614429870884e-38
-56.723179 10.560874 118.703133 -0.982973 0.183750 0.000000 1.7962614429870884e-38
-57.100568 9.272003 118.933668 -0.987202 0.159476 0.000000 1.7962614429870884e-38
-57.083105 8.068767 118.922753 -0.990831 0.135105 0.000000 1.7962614429870884e-38
-57.027025 6.212257 118.711968 -0.993859 0.110653 0.000000 1.7962614429870884e-38
-57.032409 4.517511 118.347569 -0.996284 0.086133 0.000000 1.7962614429870884e-38
-57.509349 3.533444 118.733633 -0.998103 0.061561 0.000000 1.7962614429870884e-38
-57.300182 2.197039 118.769149 -0.999317 0.036951 0.000000 1.7962614429870884e-38
-57.582236 0.953351 119.122936 -0.999924 0.012320 0.000000 1.7962614429870884e-38
-47.474119 32.662733 120.149791 -0.823253 0.567675 0.000000 1.7962614429870884e-38
-47.861380 31.925485 120.080580 -0.836989 0.547220 0.000000 1.7962614429870884e-38
-49.239254 29.810695 120.180859 -0.850217 0.526432 0.000000 1.7962614429870884e-38
-50.052657 29.300921 119.821102 -0.862929 0.505325 0.000000 1.7962614429870884e-38
-50.683788 27.978884 119.693109 -0.875117 0.483911 0.000000 1.7962614429870884e-38
-50.847851 26.631513 119.429569 -0.886774 0.462204 0.000000 1.7962614429870884e-38
-51.203951 25.700510 120.285472 -0.897892 0.440216 0.000000 1.7962614429870884e-38
-51.944890 23.814109 120.347746 -0.908465 0.417960 0.000000 1.7962614429870884e-38
-52.585604 22.110808 119.710368 -0.918487 0.395451 0.000000 1.7962614429870884e-38
-53.584582 21.873700 119.710256 -0.927951 0.372702 0.000000 1.7962614429870884e-38
-54.044969 19.724074 119.856744 -0.936852 0.349727 0.000000 1.7962614429870884e-38
-54.037752 18.348966 120.141554 -0.945184 0.326539 0.000000 1.7962614429870884e-38
-55.057249 17.996346 120.034472 -0.952942 0.303153 0.000000 1.7962614429870884e-38
-55.232215 15.901727 120.064485 -0.960122 0.279583 0.000000 1.7962614429870884e-38
-56.027584 14.740170 119.823965 -0.966718 0.255843 0.000000 1.7962614429870884e-38
-56.120909 13.954909 120.421179 -0.972728 0.231948 0.000000 1.7962614429870884e-38
-55.805412 12.210001 120.122408 -0.978148 0.207912 0.000000 1.7962614429870884e-38
-56.080626 10.664031 120.185487 -0.982973 0.183750 0.000000 1.7962614429870884e-38
-56.348057 9.414696 120.133026 -0.987202 0.159476 0.000000 1.7962614429870884e-38
-56.734105 7.801853 120.152362 -0.990831 0.135105 0.000000 1.7962614429870884e-38
-56.965672 5.992188 119.779100 -0.993859 0.110653 0.000000 1.7962614429870884e-38
-57.067936 4.992189 119.994698 -0.996284 0.086133 0.000000 1.7962614429870884e-38
-57.302881 2.944936 119.949173 -0.998103 0.061561 0.000000 1.7962614429870884e-38
-57.508980 2.178712 120.256485 -0.999317 0.036951 0.000000 1.7962614429870884e-38
-57.605203 1.111672 119.707965 -0.999924 0.012320 0.000000 1.7962614429870884e-38
