# .PCD v0.7 - Point Cloud Data file format
VERSION 0.7
FIELDS x y z normal_x normal_y normal_z rgb
SIZE 4 4 4 4 4 4 4
TYPE F F F F F F F
COUNT 1 1 1 1 1 1 1
WIDTH 234
HEIGHT 1
VIEWPOINT 0 0 0 1 0 0 0
POINTS 234
DATA ascii
11.982016 10.329680 -0.140821 0.771295 0.636472 -0.002570 1.5658809689597668e-38
12.089872 10.628766 0.133959 0.755380 0.655282 -0.002570 1.5658809689597668e-38
12.023758 10.749585 -0.126989 0.739006 0.673693 -0.002570 1.5658809689597668e-38
11.531068 10.560975 -0.434134 0.722184 0.691696 -0.002570 1.5658809689597668e-38
10.881999 11.049327 0.119932 0.704923 0.709279 -0.002570 1.5658809689597668e-38
10.724143 11.509488 0.389768 0.687234 0.726431 -0.002570 1.5658809689597668e-38
10.599211 12.111572 -0.280085 0.669128 0.743142 -0.002570 1.5658809689597668e-38
10.348262 11.865472 -0.101710 0.650616 0.759402 -0.002570 1.5658809689597668e-38
10.359469 11.885067 0.130327 0.631709 0.775201 -0.002570 1.5658809689597668e-38
9.870044 12.470274 -0.433817 0.612418 0.790530 -0.002570 1.5658809689597668e-38
9.505760 12.727247 0.069803 0.592756 0.805378 -0.002570 1.5658809689597668e-38
9.170318 13.596381 -0.071807 0.572733 0.819738 -0.002570 1.5658809689597668e-38
8.530790 13.391421 0.065999 0.552363 0.833600 -0.002570 1.5658809689597668e-38
8.914308 13.801865 0.107061 0.531658 0.846955 -0.002570 1.5658809689597668e-38
8.609090 13.400169 -0.191925 0.510630 0.859797 -0.002570 1.5658809689597668e-38
13.124967 10.482274 1.090188 0.542901 0.448001 -0.710320 1.5658809689597668e-38
12.842022 10.913138 1.320686 0.531698 0.461241 -0.710320 1.5658809689597668e-38
12.301179 11.311157 1.364603 0.520173 0.474200 -0.710320 1.5658809689597668e-38
11.435970 11.709717 0.942508 0.508332 0.486872 -0.710320 1.5658809689597668e-38
11.297152 11.784798 1.262308 0.496183 0.499248 -0.710320 1.5658809689597668e-38
11.227451 12.337042 0.834461 0.483732 0.511322 -0.710320 1.5658809689597668e-38
11.012137 12.190342 1.223137 0.470987 0.523084 -0.710320 1.5658809689597668e-38
10.909838 12.334002 1.454398 0.457957 0.534529 -0.710320 1.5658809689597668e-38
10.530465 12.331679 0.649536 0.444648 0.545650 -0.710320 1.5658809689597668e-38
10.186873 13.088036 1.206087 0.431070 0.556439 -0.710320 1.5658809689597668e-38
9.854992 13.469070 1.521408 0.417230 0.566891 -0.710320 1.5658809689597668e-38
9.196885 13.288752 0.909116 0.403136 0.576998 -0.710320 1.5658809689597668e-38
9.277935 14.244487 1.107712 0.388798 0.586755 -0.710320 1.5658809689597668e-38
8.096214 13.582044 0.987202 0.374224 0.596156 -0.710320 1.5658809689597668e-38
8.329498 14.184408 1.248688 0.359423 0.605195 -0.710320 1.5658809689597668e-38
13.971011 11.856365 3.348500 0.385770 0.318337 -0.865935 1.5658809689597668e-38
13.348856 12.139601 2.246170 0.377810 0.327744 -0.865935 1.5658809689597668e-38
13.754265 12.394725 2.702783 0.369620 0.336953 -0.865935 1.5658809689597668e-38
13.624544 12.769329 2.813842 0.361206 0.345957 -0.865935 1.5658809689597668e-38
12.251392 13.511865 2.586745 0.352573 0.354752 -0.865935 1.5658809689597668e-38
12.952960 12.983980 2.224996 0.343726 0.363330 -0.865935 1.5658809689597668e-38
12.340646 13.651940 2.559147 0.334670 0.371689 -0.865935 1.5658809689597668e-38
12.282012 13.426304 2.766373 0.325411 0.379821 -0.865935 1.5658809689597668e-38
11.611675 14.185080 2.032892 0.315954 0.387723 -0.865935 1.5658809689597668e-38
11.405591 13.803679 2.668745 0.306306 0.395390 -0.865935 1.5658809689597668e-38
10.445698 14.816825 2.438476 0.296472 0.402817 -0.865935 1.5658809689597668e-38
10.876230 15.011082 2.265985 0.286457 0.409999 -0.865935 1.5658809689597668e-38
9.999038 15.701289 2.635116 0.276269 0.416932 -0.865935 1.5658809689597668e-38
9.654817 15.493935 2.004074 0.265913 0.423612 -0.865935 1.5658809689597668e-38
9.500604 15.272920 2.699766 0.255396 0.430034 -0.865935 1.5658809689597668e-38
15.954149 13.104699 3.948442 0.350366 0.289122 -0.890872 1.5658809689597668e-38
15.190560 13.421414 3.916552 0.343137 0.297666 -0.890872 1.5658809689597668e-38
15.126953 13.475341 3.911907 0.335699 0.306030 -0.890872 1.5658809689597668e-38
15.299570 14.317476 3.123087 0.328057 0.314208 -0.890872 1.5658809689597668e-38
14.816812 14.197300 3.803980 0.320216 0.322195 -0.890872 1.5658809689597668e-38
13.972295 14.702684 3.578767 0.312181 0.329986 -0.890872 1.5658809689597668e-38
13.808413 15.203606 3.887951 0.303956 0.337577 -0.890872 1.5658809689597668e-38
13.346034 16.027811 3.795692 0.295547 0.344964 -0.890872 1.5658809689597668e-38
12.878856 15.801305 3.217091 0.286958 0.352140 -0.890872 1.5658809689597668e-38
12.775666 16.272293 2.999682 0.278195 0.359103 -0.890872 1.5658809689597668e-38
12.120352 16.415999 4.184043 0.269263 0.365848 -0.890872 1.5658809689597668e-38
11.355397 16.551413 4.044331 0.260168 0.372371 -0.890872 1.5658809689597668e-38
11.851219 17.047521 3.521714 0.250915 0.378668 -0.890872 1.5658809689597668e-38
11.200073 16.849599 3.152982 0.241509 0.384735 -0.890872 1.5658809689597668e-38
10.495308 18.278756 3.580621 0.231957 0.390569 -0.890872 1.5658809689597668e-38
17.618623 14.749040 5.199138 0.402739 0.332340 -0.852849 1.5658809689597668e-38
17.337770 15.602933 5.020198 0.394429 0.342162 -0.852849 1.5658809689597668e-38
17.076533 15.220644 5.074003 0.385880 0.351776 -0.852849 1.5658809689597668e-38
16.568304 15.724891 4.715511 0.377096 0.361176 -0.852849 1.5658809689597668e-38
17.013083 16.232683 4.511358 0.368083 0.370357 -0.852849 1.5658809689597668e-38
15.595287 16.690715 5.112454 0.358846 0.379313 -0.852849 1.5658809689597668e-38
15.554797 17.293488 4.754996 0.349392 0.388039 -0.852849 1.5658809689597668e-38
15.064753 17.201628 4.762561 0.339726 0.396529 -0.852849 1.5658809689597668e-38
14.252487 17.471268 5.267716 0.329853 0.404779 -0.852849 1.5658809689597668e-38
14.290742 18.473301 4.960248 0.319780 0.412783 -0.852849 1.5658809689597668e-38
13.865009 17.993394 5.207380 0.309513 0.420536 -0.852849 1.5658809689597668e-38
13.224636 19.040148 5.062461 0.299058 0.428034 -0.852849 1.5658809689597668e-38
12.406919 18.721393 4.734837 0.288422 0.435272 -0.852849 1.5658809689597668e-38
12.396336 19.684983 4.538071 0.277610 0.442246 -0.852849 1.5658809689597668e-38
11.448932 19.556312 4.841262 0.266630 0.448951 -0.852849 1.5658809689597668e-38
18.848971 14.849907 5.873387 0.602119 0.472421 -0.643639 1.5658809689597668e-38
18.498960 16.041613 6.912301 0.590297 0.487113 -0.643639 1.5658809689597668e-38
18.414255 15.701791 5.514489 0.578117 0.501508 -0.643639 1.5658809689597668e-38
18.081503 16.455318 5.990178 0.565585 0.515599 -0.643639 1.5658809689597668e-38
17.807882 17.111042 6.282492 0.552711 0.529377 -0.643639 1.5658809689597668e-38
17.222594 17.093950 6.385317 0.539500 0.542834 -0.643639 1.5658809689597668e-38
16.886636 18.112312 6.422590 0.525963 0.555961 -0.643639 1.5658809689597668e-38
16.011553 17.826073 5.958905 0.512105 0.568751 -0.643639 1.5658809689597668e-38
15.666423 18.882366 6.290960 0.497937 0.581195 -0.643639 1.5658809689597668e-38
15.848575 19.162861 6.248162 0.483467 0.593287 -0.643639 1.5658809689597668e-38
15.404834 19.561396 6.205997 0.468703 0.605018 -0.643639 1.5658809689597668e-38
15.006013 19.819806 6.094265 0.453655 0.616382 -0.643639 1.5658809689597668e-38
13.818652 20.348921 6.556682 0.438331 0.627372 -0.643639 1.5658809689597668e-38
13.554403 20.870924 5.594563 0.422741 0.637981 -0.643639 1.5658809689597668e-38
13.044285 20.794624 5.967469 0.406895 0.648202 -0.643639 1.5658809689597668e-38
13.259491 21.102267 6.063248 0.390801 0.658030 -0.643639 1.5658809689597668e-38
19.536773 15.600980 7.468136 0.786543 0.617119 -0.022677 1.5658809689597668e-38
19.367039 16.309736 7.537298 0.771100 0.636311 -0.022677 1.5658809689597668e-38
19.126150 16.101882 7.094062 0.755188 0.655115 -0.022677 1.5658809689597668e-38
18.961324 16.874363 7.235712 0.738819 0.673522 -0.022677 1.5658809689597668e-38
17.870067 17.099471 7.209993 0.722001 0.691521 -0.022677 1.5658809689597668e-38
17.239975 17.283698 7.364179 0.704744 0.709099 -0.022677 1.5658809689597668e-38
17.004775 18.494822 7.510603 0.687060 0.726247 -0.022677 1.5658809689597668e-38
16.809550 18.357561 7.386372 0.668959 0.742954 -0.022677 1.5658809689597668e-38
16.375401 19.201900 7.394513 0.650451 0.759210 -0.022677 1.5658809689597668e-38
16.118108 19.384454 7.660535 0.631549 0.775005 -0.022677 1.5658809689597668e-38
15.165096 19.221530 7.503188 0.612263 0.790329 -0.022677 1.5658809689597668e-38
15.038034 20.309161 7.549336 0.592605 0.805174 -0.022677 1.5658809689597668e-38
14.215249 20.253559 7.588199 0.572588 0.819530 -0.022677 1.5658809689597668e-38
13.938454 20.673895 7.755508 0.552223 0.833388 -0.022677 1.5658809689597668e-38
13.027970 21.001037 7.913608 0.531523 0.846740 -0.022677 1.5658809689597668e-38
13.027644 21.389765 7.508895 0.510500 0.859579 -0.022677 1.5658809689597668e-38
19.577115 15.476001 8.756753 0.778236 0.610602 -0.146677 1.5658809689597668e-38
19.511158 15.979111 8.260827 0.762956 0.629590 -0.146677 1.5658809689597668e-38
19.184778 16.437233 9.008314 0.747213 0.648197 -0.146677 1.5658809689597668e-38
18.343000 16.434728 8.649586 0.731016 0.666409 -0.146677 1.5658809689597668e-38
18.521722 17.415714 8.599893 0.714376 0.684217 -0.146677 1.5658809689597668e-38
17.438439 18.336239 8.350913 0.697301 0.701610 -0.146677 1.5658809689597668e-38
17.037786 18.410585 8.102988 0.679804 0.718577 -0.146677 1.5658809689597668e-38
17.183167 18.846426 8.929563 0.661894 0.735107 -0.146677 1.5658809689597668e-38
16.503411 19.019095 8.340849 0.643581 0.751192 -0.146677 1.5658809689597668e-38
15.819222 19.171550 8.805640 0.624879 0.766820 -0.146677 1.5658809689597668e-38
15.618917 20.292036 8.771324 0.605797 0.781982 -0.146677 1.5658809689597668e-38
15.160560 20.132672 8.516311 0.586347 0.796670 -0.146677 1.5658809689597668e-38
14.522557 20.466419 8.740550 0.566541 0.810875 -0.146677 1.5658809689597668e-38
13.550636 20.665923 8.850417 0.546391 0.824587 -0.146677 1.5658809689597668e-38
13.615118 20.970057 8.860978 0.525909 0.837798 -0.146677 1.5658809689597668e-38
12.661305 21.593139 9.084877 0.505108 0.850501 -0.146677 1.5658809689597668e-38
19.709242 15.703061 9.838959 0.759157 0.595633 -0.262492 1.5658809689597668e-38
19.547882 15.657291 10.320136 0.744252 0.614156 -0.262492 1.5658809689597668e-38
18.930730 16.931484 9.710494 0.728895 0.632306 -0.262492 1.5658809689597668e-38
18.560003 17.454682 10.195073 0.713095 0.650072 -0.262492 1.5658809689597668e-38
18.383491 17.775797 9.810341 0.696862 0.667443 -0.262492 1.5658809689597668e-38
17.880495 17.795018 10.168127 0.680207 0.684410 -0.262492 1.5658809689597668e-38
17.226239 18.874182 9.802157 0.663138 0.700961 -0.262492 1.5658809689597668e-38
16.981089 19.080195 9.904067 0.645667 0.717086 -0.262492 1.5658809689597668e-38
16.415931 19.256066 10.165053 0.627804 0.732776 -0.262492 1.5658809689597668e-38
15.826796 19.628002 9.899993 0.609560 0.748021 -0.262492 1.5658809689597668e-38
15.795646 20.024782 10.439397 0.590945 0.762812 -0.262492 1.5658809689597668e-38
14.990495 20.360117 9.845598 0.571972 0.777140 -0.262492 1.5658809689597668e-38
14.134521 20.484686 9.737707 0.552652 0.790996 -0.262492 1.5658809689597668e-38
14.353499 21.137424 9.751514 0.532996 0.804371 -0.262492 1.5658809689597668e-38
13.855440 21.951534 10.273522 0.513016 0.817259 -0.262492 1.5658809689597668e-38
12.698094 21.663382 10.441028 0.492726 0.829650 -0.262492 1.5658809689597668e-38
20.715631 15.540945 11.853234 0.732380 0.574624 -0.365277 1.5658809689597668e-38
20.210237 16.471101 11.561544 0.718000 0.592493 -0.365277 1.5658809689597668e-38
19.123218 16.806669 11.567296 0.703185 0.610003 -0.365277 1.5658809689597668e-38
18.491572 17.536048 11.293673 0.687943 0.627143 -0.365277 1.5658809689597668e-38
19.208774 17.357137 11.616910 0.672283 0.643901 -0.365277 1.5658809689597668e-38
18.005178 18.151208 10.767419 0.656214 0.660269 -0.365277 1.5658809689597668e-38
17.390644 18.848554 10.800321 0.639748 0.676236 -0.365277 1.5658809689597668e-38
17.472309 18.959424 10.770110 0.622893 0.691793 -0.365277 1.5658809689597668e-38
16.614633 19.678512 11.050815 0.605660 0.706929 -0.365277 1.5658809689597668e-38
16.295807 20.193663 11.458747 0.588059 0.721637 -0.365277 1.5658809689597668e-38
15.695198 20.066702 11.156849 0.570101 0.735906 -0.365277 1.5658809689597668e-38
15.422518 20.324546 10.866838 0.551797 0.749728 -0.365277 1.5658809689597668e-38
14.549387 21.070608 10.905710 0.533159 0.763096 -0.365277 1.5658809689597668e-38
14.452111 21.008775 10.660105 0.514196 0.776000 -0.365277 1.5658809689597668e-38
13.606043 21.781933 10.697627 0.494921 0.788432 -0.365277 1.5658809689597668e-38
12.982075 22.045374 11.016031 0.475346 0.800387 -0.365277 1.5658809689597668e-38
20.766085 16.469927 12.694665 0.687693 0.567484 -0.452813 1.5658809689597668e-38
19.763942 17.250842 12.539687 0.673503 0.584255 -0.452813 1.5658809689597668e-38
19.284074 17.913825 11.757205 0.658904 0.600671 -0.452813 1.5658809689597668e-38
19.152493 17.477044 12.303080 0.643905 0.616722 -0.452813 1.5658809689597668e-38
18.822244 18.867380 11.981611 0.628515 0.632399 -0.452813 1.5658809689597668e-38
17.749192 18.925837 12.426999 0.612744 0.647692 -0.452813 1.5658809689597668e-38
17.013642 19.568604 12.464563 0.596600 0.662592 -0.452813 1.5658809689597668e-38
17.050744 20.158418 12.438251 0.580095 0.677089 -0.452813 1.5658809689597668e-38
16.475188 19.836072 12.411158 0.563237 0.691176 -0.452813 1.5658809689597668e-38
15.843690 20.647139 12.514871 0.546037 0.704843 -0.452813 1.5658809689597668e-38
16.036949 21.200296 12.537353 0.528506 0.718082 -0.452813 1.5658809689597668e-38
14.651064 21.663566 12.353162 0.510654 0.730885 -0.452813 1.5658809689597668e-38
14.916677 21.792859 12.298643 0.492492 0.743244 -0.452813 1.5658809689597668e-38
14.320222 22.279146 12.038482 0.474030 0.755152 -0.452813 1.5658809689597668e-38
14.214235 22.321394 12.351724 0.455281 0.766602 -0.452813 1.5658809689597668e-38
21.092852 17.216998 13.671163 0.656407 0.541666 -0.525098 1.5658809689597668e-38
20.194974 17.280502 13.270208 0.642862 0.557674 -0.525098 1.5658809689597668e-38
19.993316 18.125099 13.167415 0.628927 0.573343 -0.525098 1.5658809689597668e-38
19.512401 18.603855 13.256393 0.614611 0.588664 -0.525098 1.5658809689597668e-38
18.945912 19.078434 13.423256 0.599921 0.603628 -0.525098 1.5658809689597668e-38
18.856766 19.067544 13.012508 0.584867 0.618225 -0.525098 1.5658809689597668e-38
18.090271 20.119025 13.729512 0.569458 0.632447 -0.525098 1.5658809689597668e-38
17.427131 20.254385 13.606053 0.553703 0.646285 -0.525098 1.5658809689597668e-38
16.945210 21.422196 13.510979 0.537612 0.659731 -0.525098 1.5658809689597668e-38
16.540220 22.113889 13.549819 0.521195 0.672776 -0.525098 1.5658809689597668e-38
16.191464 21.966571 13.827668 0.504461 0.685413 -0.525098 1.5658809689597668e-38
15.570175 22.219027 13.638348 0.487421 0.697633 -0.525098 1.5658809689597668e-38
14.759844 22.633273 14.216841 0.470086 0.709430 -0.525098 1.5658809689597668e-38
14.736093 22.987854 13.864996 0.452464 0.720797 -0.525098 1.5658809689597668e-38
13.543657 23.165686 13.892602 0.434568 0.731725 -0.525098 1.5658809689597668e-38
21.027996 17.916484 14.833734 0.613466 0.532173 -0.583482 1.5658809689597668e-38
20.567362 18.711059 14.592638 0.600168 0.547126 -0.583482 1.5658809689597668e-38
20.250587 19.176165 15.176460 0.586506 0.561746 -0.583482 1.5658809689597668e-38
19.585774 19.471847 14.339048 0.572488 0.576026 -0.583482 1.5658809689597668e-38
19.095425 19.858358 14.440372 0.558123 0.589956 -0.583482 1.5658809689597668e-38
18.800842 20.171410 15.269019 0.543418 0.603527 -0.583482 1.5658809689597668e-38
18.174750 21.144579 14.534931 0.528384 0.616732 -0.583482 1.5658809689597668e-38
17.829372 21.597037 14.639532 0.513029 0.629563 -0.583482 1.5658809689597668e-38
17.122548 21.520137 14.354763 0.497362 0.642012 -0.583482 1.5658809689597668e-38
16.178726 22.543525 14.844383 0.481394 0.654071 -0.583482 1.5658809689597668e-38
16.271631 22.562740 15.017761 0.465133 0.665732 -0.583482 1.5658809689597668e-38
15.355244 22.942029 14.960953 0.448590 0.676990 -0.583482 1.5658809689597668e-38
14.792727 23.408313 14.857961 0.431774 0.687837 -0.583482 1.5658809689597668e-38
14.187804 23.908722 14.721583 0.414697 0.698266 -0.583482 1.5658809689597668e-38
20.512420 19.954519 16.458271 0.560920 0.537240 -0.629875 1.5658809689597668e-38
20.769365 20.584240 16.724856 0.547513 0.550896 -0.629875 1.5658809689597668e-38
19.690975 20.437313 16.398428 0.533774 0.564218 -0.629875 1.5658809689597668e-38
18.724709 21.181985 16.238508 0.519711 0.577198 -0.629875 1.5658809689597668e-38
18.712271 21.819620 15.728237 0.505333 0.589827 -0.629875 1.5658809689597668e-38
18.195065 22.633144 16.088465 0.490648 0.602098 -0.629875 1.5658809689597668e-38
17.393509 22.399364 15.839596 0.475665 0.614004 -0.629875 1.5658809689597668e-38
17.193837 23.304462 15.842322 0.460393 0.625537 -0.629875 1.5658809689597668e-38
15.836103 23.741055 15.813162 0.444841 0.636690 -0.629875 1.5658809689597668e-38
16.119227 23.787551 15.786104 0.429020 0.647456 -0.629875 1.5658809689597668e-38
15.361976 25.106448 16.307183 0.412938 0.657829 -0.629875 1.5658809689597668e-38
14.751109 24.876735 15.557139 0.396605 0.667803 -0.629875 1.5658809689597668e-38
20.569658 21.765659 17.152593 0.512506 0.541737 -0.666227 1.5658809689597668e-38
19.939197 22.840332 17.955718 0.499003 0.554199 -0.666227 1.5658809689597668e-38
19.113372 22.403990 17.001767 0.485198 0.566325 -0.666227 1.5658809689597668e-38
19.182081 23.030578 17.391490 0.471098 0.578108 -0.666227 1.5658809689597668e-38
18.887969 23.604754 17.531462 0.456712 0.589539 -0.666227 1.5658809689597668e-38
17.857815 23.874854 17.637336 0.442048 0.600612 -0.666227 1.5658809689597668e-38
16.848842 24.882107 17.143352 0.427117 0.611321 -0.666227 1.5658809689597668e-38
16.352042 24.567558 17.042310 0.411926 0.621658 -0.666227 1.5658809689597668e-38
15.749068 24.563549 17.249588 0.396484 0.631618 -0.666227 1.5658809689597668e-38
15.096732 25.913450 17.446482 0.380803 0.641195 -0.666227 1.5658809689597668e-38
19.903908 23.683578 18.061934 0.468262 0.546558 -0.694266 1.5658809689597668e-38
20.117546 24.279881 18.748438 0.454654 0.557929 -0.694266 1.5658809689597668e-38
18.472460 24.279624 18.973505 0.440770 0.568961 -0.694266 1.5658809689597668e-38
19.629014 25.336298 18.867784 0.426619 0.579648 -0.694266 1.5658809689597668e-38
17.920162 25.168985 18.855253 0.412208 0.589983 -0.694266 1.5658809689597668e-38
16.800552 25.489968 18.174642 0.397547 0.599959 -0.694266 1.5658809689597668e-38
16.781476 26.250134 18.586958 0.382645 0.609572 -0.694266 1.5658809689597668e-38
20.236826 24.581171 19.438078 0.441385 0.541645 -0.715402 1.5658809689597668e-38
19.665865 25.109038 19.885930 0.427906 0.552356 -0.715402 1.5658809689597668e-38
18.974762 26.025061 19.840359 0.414168 0.562730 -0.715402 1.5658809689597668e-38
18.583914 26.582419 19.690644 0.400178 0.572764 -0.715402 1.5658809689597668e-38
17.866228 26.950355 19.065147 0.385945 0.582449 -0.715402 1.5658809689597668e-38
19.498115 27.170984 21.154926 0.404662 0.549815 -0.730721 1.5658809689597668e-38
