# .PCD v0.7 - Point Cloud Data file format
VERSION 0.7
FIELDS x y z normal_x normal_y normal_z rgb
SIZE 4 4 4 4 4 4 4
TYPE F F F F F F F
COUNT 1 1 1 1 1 1 1
WIDTH 184
HEIGHT 1
VIEWPOINT 0 0 0 1 0 0 0
POINTS 184
DATA ascii
15.020118 -8.227666 102.302511 0.830013 -0.419698 0.367330 1.6119787838914282e-38
14.858918 -8.608190 103.990476 0.846322 -0.481697 0.227393 1.6119787838914282e-38
15.480851 -8.102670 104.042857 0.857932 -0.460700 0.227393 1.6119787838914282e-38
15.724482 -7.403592 103.202203 0.869023 -0.439423 0.227393 1.6119787838914282e-38
15.772983 -7.142546 103.838864 0.879585 -0.417879 0.227393 1.6119787838914282e-38
14.638091 -8.590151 105.862621 0.854968 -0.514912 0.062422 1.6119787838914282e-38
14.668982 -8.108621 105.348617 0.867394 -0.493691 0.062422 1.6119787838914282e-38
15.026277 -8.439587 105.571601 0.879294 -0.472171 0.062422 1.6119787838914282e-38
15.257895 -7.854705 104.889320 0.890660 -0.450364 0.062422 1.6119787838914282e-38
15.446088 -7.582394 104.984029 0.901486 -0.428284 0.062422 1.6119787838914282e-38
15.365588 -6.906339 105.334786 0.911764 -0.405943 0.062422 1.6119787838914282e-38
15.613471 -6.598924 105.187119 0.921489 -0.383357 0.062422 1.6119787838914282e-38
14.657959 -9.291918 106.106856 0.854239 -0.514473 -0.074785 1.6119787838914282e-38
14.865408 -8.489174 106.578040 0.866655 -0.493271 -0.074785 1.6119787838914282e-38
15.590154 -8.430039 107.086010 0.878545 -0.471769 -0.074785 1.6119787838914282e-38
15.761723 -8.202332 106.033615 0.889902 -0.449980 -0.074785 1.6119787838914282e-38
15.260932 -7.593848 106.566349 0.900718 -0.427919 -0.074785 1.6119787838914282e-38
15.747958 -6.884171 106.503954 0.910987 -0.405598 -0.074785 1.6119787838914282e-38
15.683233 -6.422236 106.965598 0.920704 -0.383030 -0.074785 1.6119787838914282e-38
15.163724 -6.146488 106.531182 0.929861 -0.360230 -0.074785 1.6119787838914282e-38
14.838678 -9.464694 108.716967 0.829309 -0.527730 -0.183708 1.6119787838914282e-38
14.793974 -9.097267 108.342553 0.842059 -0.507137 -0.183708 1.6119787838914282e-38
15.166309 -8.443661 107.725924 0.854298 -0.486237 -0.183708 1.6119787838914282e-38
15.531731 -8.058110 107.111455 0.866018 -0.465042 -0.183708 1.6119787838914282e-38
15.337411 -7.488251 107.614530 0.877213 -0.443564 -0.183708 1.6119787838914282e-38
15.233753 -7.388669 107.888142 0.887875 -0.421817 -0.183708 1.6119787838914282e-38
16.089151 -7.325672 107.275643 0.897998 -0.399814 -0.183708 1.6119787838914282e-38
15.856201 -6.811691 107.455411 0.907576 -0.377569 -0.183708 1.6119787838914282e-38
15.951131 -5.980911 107.375716 0.916602 -0.355094 -0.183708 1.6119787838914282e-38
15.830032 -6.035585 107.175004 0.925073 -0.332403 -0.183708 1.6119787838914282e-38
15.201373 -9.193019 108.931460 0.811305 -0.516273 -0.274309 1.6119787838914282e-38
15.225743 -8.844007 109.342945 0.823779 -0.496128 -0.274309 1.6119787838914282e-38
14.886394 -8.622189 109.111052 0.835752 -0.475682 -0.274309 1.6119787838914282e-38
15.851004 -7.669328 108.446491 0.847218 -0.454946 -0.274309 1.6119787838914282e-38
15.407642 -7.893426 108.512341 0.858170 -0.433935 -0.274309 1.6119787838914282e-38
16.312792 -7.448271 109.236482 0.868600 -0.412660 -0.274309 1.6119787838914282e-38
15.940192 -6.971399 108.475374 0.878503 -0.391135 -0.274309 1.6119787838914282e-38
15.846020 -7.010180 108.370760 0.887873 -0.369372 -0.274309 1.6119787838914282e-38
16.632152 -6.302755 109.201694 0.896704 -0.347385 -0.274309 1.6119787838914282e-38
16.440072 -5.556865 109.170408 0.904991 -0.325187 -0.274309 1.6119787838914282e-38
16.578899 -5.428092 108.990068 0.912728 -0.302792 -0.274309 1.6119787838914282e-38
15.244570 -10.008458 109.925060 0.780371 -0.524039 -0.341182 1.6119787838914282e-38
14.895620 -9.599238 110.179184 0.793045 -0.504653 -0.341182 1.6119787838914282e-38
15.488526 -9.483812 110.143414 0.805238 -0.484961 -0.341182 1.6119787838914282e-38
15.242207 -8.888233 110.521778 0.816941 -0.464975 -0.341182 1.6119787838914282e-38
15.692886 -8.728988 110.208245 0.828149 -0.444707 -0.341182 1.6119787838914282e-38
16.233369 -8.303387 109.696590 0.838854 -0.424168 -0.341182 1.6119787838914282e-38
15.915481 -7.808867 110.558535 0.849050 -0.403372 -0.341182 1.6119787838914282e-38
15.922100 -7.784764 110.184667 0.858730 -0.382331 -0.341182 1.6119787838914282e-38
16.304088 -7.169072 110.298008 0.867889 -0.361058 -0.341182 1.6119787838914282e-38
16.709267 -6.161006 110.323451 0.876521 -0.339566 -0.341182 1.6119787838914282e-38
16.473609 -6.553422 110.438827 0.884621 -0.317868 -0.341182 1.6119787838914282e-38
16.942719 -4.728582 110.393194 0.892184 -0.295977 -0.341182 1.6119787838914282e-38
17.525006 -5.496251 110.077955 0.899206 -0.273906 -0.341182 1.6119787838914282e-38
16.124820 -9.535046 110.879357 0.779398 -0.495969 -0.382823 1.6119787838914282e-38
15.542999 -9.076725 111.221737 0.791381 -0.476616 -0.382823 1.6119787838914282e-38
15.830023 -8.988448 111.254806 0.802883 -0.456974 -0.382823 1.6119787838914282e-38
16.700320 -8.740913 112.063750 0.813898 -0.437054 -0.382823 1.6119787838914282e-38
16.228743 -8.488192 111.089629 0.824419 -0.416869 -0.382823 1.6119787838914282e-38
16.359950 -7.667521 110.937027 0.834440 -0.396431 -0.382823 1.6119787838914282e-38
16.483958 -7.317393 110.689225 0.843953 -0.375752 -0.382823 1.6119787838914282e-38
16.522517 -7.073059 111.462627 0.852955 -0.354845 -0.382823 1.6119787838914282e-38
17.032153 -6.506679 111.082023 0.861438 -0.333723 -0.382823 1.6119787838914282e-38
17.745514 -5.939943 111.095927 0.869399 -0.312398 -0.382823 1.6119787838914282e-38
17.382641 -6.374648 111.619100 0.876832 -0.290883 -0.382823 1.6119787838914282e-38
17.192607 -5.515514 111.252304 0.883732 -0.269192 -0.382823 1.6119787838914282e-38
17.290057 -5.169148 111.451932 0.890096 -0.247338 -0.382823 1.6119787838914282e-38
16.085630 -9.760490 112.863034 0.773409 -0.492158 -0.399523 1.6119787838914282e-38
16.246361 -10.000408 111.975994 0.785300 -0.472954 -0.399523 1.6119787838914282e-38
16.282171 -9.436346 112.607332 0.796714 -0.453462 -0.399523 1.6119787838914282e-38
16.922109 -8.741429 112.605356 0.807644 -0.433696 -0.399523 1.6119787838914282e-38
16.749386 -8.986692 112.337164 0.818084 -0.413666 -0.399523 1.6119787838914282e-38
16.784528 -7.333825 113.175776 0.828027 -0.393385 -0.399523 1.6119787838914282e-38
16.890990 -7.570660 112.172026 0.837468 -0.372865 -0.399523 1.6119787838914282e-38
17.519912 -7.407883 112.534748 0.846400 -0.352119 -0.399523 1.6119787838914282e-38
17.941850 -6.716776 112.838298 0.854819 -0.331159 -0.399523 1.6119787838914282e-38
17.940067 -6.611873 112.183984 0.862718 -0.309997 -0.399523 1.6119787838914282e-38
17.851530 -6.042349 112.420500 0.870094 -0.288648 -0.399523 1.6119787838914282e-38
17.871220 -5.488133 112.973697 0.876941 -0.267124 -0.399523 1.6119787838914282e-38
17.582799 -5.433771 112.655728 0.883256 -0.245437 -0.399523 1.6119787838914282e-38
17.774728 -5.043676 113.211998 0.889035 -0.223601 -0.399523 1.6119787838914282e-38
18.608685 -3.356799 112.064924 0.894274 -0.201630 -0.399523 1.6119787838914282e-38
16.861112 -9.944747 113.767269 0.776260 -0.493972 -0.391678 1.6119787838914282e-38
16.397124 -9.392036 113.567183 0.788195 -0.474697 -0.391678 1.6119787838914282e-38
17.208248 -9.167065 113.766244 0.799651 -0.455134 -0.391678 1.6119787838914282e-38
17.075807 -8.666877 113.722247 0.810621 -0.435295 -0.391678 1.6119787838914282e-38
17.180129 -9.581382 114.150902 0.821100 -0.415191 -0.391678 1.6119787838914282e-38
17.446209 -8.106832 113.770288 0.831080 -0.394835 -0.391678 1.6119787838914282e-38
18.159070 -7.494020 113.515797 0.840555 -0.374239 -0.391678 1.6119787838914282e-38
17.808652 -7.292298 114.236603 0.849521 -0.353417 -0.391678 1.6119787838914282e-38
18.160246 -6.957906 113.918991 0.857970 -0.332379 -0.391678 1.6119787838914282e-38
18.031130 -6.709505 113.758865 0.865898 -0.311140 -0.391678 1.6119787838914282e-38
18.750535 -5.582281 113.541413 0.873301 -0.289712 -0.391678 1.6119787838914282e-38
18.811928 -5.598835 113.663921 0.880174 -0.268108 -0.391678 1.6119787838914282e-38
18.441443 -5.135879 113.638946 0.886512 -0.246342 -0.391678 1.6119787838914282e-38
18.963807 -5.042099 113.483286 0.892312 -0.224426 -0.391678 1.6119787838914282e-38
19.285565 -4.216946 113.866056 0.897571 -0.202373 -0.391678 1.6119787838914282e-38
18.910778 -3.579554 113.759630 0.902284 -0.180198 -0.391678 1.6119787838914282e-38
16.493864 -10.128298 114.478965 0.799506 -0.481509 -0.359081 1.6119787838914282e-38
17.321474 -10.181689 115.110523 0.811126 -0.461665 -0.359081 1.6119787838914282e-38
17.770054 -9.417934 114.855594 0.822254 -0.441541 -0.359081 1.6119787838914282e-38
17.402719 -9.010428 114.929417 0.832883 -0.421149 -0.359081 1.6119787838914282e-38
18.114759 -8.687314 115.472187 0.843006 -0.400501 -0.359081 1.6119787838914282e-38
18.233197 -7.835877 114.901815 0.852618 -0.379610 -0.359081 1.6119787838914282e-38
18.634031 -7.473193 114.847341 0.861712 -0.358488 -0.359081 1.6119787838914282e-38
18.147414 -6.823905 114.925564 0.870282 -0.337149 -0.359081 1.6119787838914282e-38
18.574678 -6.834119 114.767533 0.878325 -0.315605 -0.359081 1.6119787838914282e-38
19.117970 -6.282256 115.067250 0.885834 -0.293870 -0.359081 1.6119787838914282e-38
19.419456 -5.781372 115.524217 0.892805 -0.271956 -0.359081 1.6119787838914282e-38
19.209377 -5.791269 114.785573 0.899234 -0.249877 -0.359081 1.6119787838914282e-38
19.122847 -4.830632 115.508172 0.905118 -0.227646 -0.359081 1.6119787838914282e-38
19.511606 -4.455045 114.960583 0.910452 -0.205277 -0.359081 1.6119787838914282e-38
19.720814 -3.781177 115.290857 0.915233 -0.182784 -0.359081 1.6119787838914282e-38
19.436366 -2.747552 114.948193 0.919458 -0.160179 -0.359081 1.6119787838914282e-38
17.548127 -10.701676 116.465440 0.816841 -0.491950 -0.301258 1.6119787838914282e-38
18.134420 -9.812193 116.302828 0.828713 -0.471675 -0.301258 1.6119787838914282e-38
17.222410 -10.102163 116.260454 0.840083 -0.451115 -0.301258 1.6119787838914282e-38
18.379262 -9.622740 116.317427 0.850942 -0.430280 -0.301258 1.6119787838914282e-38
18.621086 -8.764703 116.102297 0.861285 -0.409185 -0.301258 1.6119787838914282e-38
18.172779 -8.057304 116.092324 0.871104 -0.387841 -0.301258 1.6119787838914282e-38
19.310016 -7.774744 116.399434 0.880395 -0.366261 -0.301258 1.6119787838914282e-38
19.253065 -7.471228 116.429630 0.889152 -0.344459 -0.301258 1.6119787838914282e-38
18.985211 -7.131660 116.015229 0.897369 -0.322448 -0.301258 1.6119787838914282e-38
19.196081 -5.799324 116.017531 0.905041 -0.300242 -0.301258 1.6119787838914282e-38
19.679204 -6.006457 115.947855 0.912163 -0.277853 -0.301258 1.6119787838914282e-38
19.872890 -5.607281 116.154772 0.918732 -0.255295 -0.301258 1.6119787838914282e-38
20.088843 -5.049461 116.355828 0.924743 -0.232582 -0.301258 1.6119787838914282e-38
19.872063 -4.510567 115.892767 0.930192 -0.209728 -0.301258 1.6119787838914282e-38
20.242176 -3.924626 116.532795 0.935077 -0.186747 -0.301258 1.6119787838914282e-38
20.111659 -3.180796 116.334144 0.939394 -0.163652 -0.301258 1.6119787838914282e-38
20.568802 -3.273587 116.051481 0.943141 -0.140458 -0.301258 1.6119787838914282e-38
17.511992 -10.469983 116.871027 0.835877 -0.503415 -0.218821 1.6119787838914282e-38
18.515116 -10.103955 117.413624 0.848027 -0.482668 -0.218821 1.6119787838914282e-38
18.012669 -9.956932 117.870966 0.859661 -0.461628 -0.218821 1.6119787838914282e-38
18.013305 -9.364344 117.864482 0.870773 -0.440308 -0.218821 1.6119787838914282e-38
18.103530 -9.077992 117.071733 0.881357 -0.418721 -0.218821 1.6119787838914282e-38
18.538024 -8.360846 117.720538 0.891406 -0.396879 -0.218821 1.6119787838914282e-38
19.003550 -8.406798 117.266050 0.900913 -0.374797 -0.218821 1.6119787838914282e-38
19.435830 -7.494038 117.171691 0.909874 -0.352487 -0.218821 1.6119787838914282e-38
19.348881 -6.771211 117.586037 0.918282 -0.329963 -0.218821 1.6119787838914282e-38
19.348311 -6.446113 117.357195 0.926133 -0.307239 -0.218821 1.6119787838914282e-38
19.622876 -5.996713 117.196340 0.933421 -0.284328 -0.218821 1.6119787838914282e-38
19.827267 -5.232157 118.266655 0.940143 -0.261244 -0.218821 1.6119787838914282e-38
19.575958 -5.316218 117.864855 0.946294 -0.238002 -0.218821 1.6119787838914282e-38
19.831683 -4.594671 118.064905 0.951870 -0.214616 -0.218821 1.6119787838914282e-38
20.096091 -4.132461 117.139481 0.956869 -0.191099 -0.218821 1.6119787838914282e-38
20.614143 -4.092003 117.318385 0.961287 -0.167466 -0.218821 1.6119787838914282e-38
20.100375 -3.147831 118.082452 0.965121 -0.143732 -0.218821 1.6119787838914282e-38
20.674431 -2.474104 117.614460 0.968369 -0.119910 -0.218821 1.6119787838914282e-38
17.885667 -10.546919 118.747371 0.850899 -0.512461 -0.115560 1.6119787838914282e-38
17.991520 -10.300733 118.567232 0.863266 -0.491342 -0.115560 1.6119787838914282e-38
18.703018 -9.893966 118.454288 0.875110 -0.469924 -0.115560 1.6119787838914282e-38
18.722469 -9.681972 119.071123 0.886422 -0.448221 -0.115560 1.6119787838914282e-38
18.873143 -8.791587 118.577431 0.897196 -0.426246 -0.115560 1.6119787838914282e-38
19.060279 -8.387644 118.715688 0.907425 -0.404012 -0.115560 1.6119787838914282e-38
19.054691 -7.823028 118.847650 0.917103 -0.381532 -0.115560 1.6119787838914282e-38
19.191876 -7.668737 118.516911 0.926225 -0.358822 -0.115560 1.6119787838914282e-38
19.548997 -7.212346 118.691668 0.934784 -0.335893 -0.115560 1.6119787838914282e-38
19.437384 -6.714209 119.051906 0.942776 -0.312760 -0.115560 1.6119787838914282e-38
20.536663 -6.440243 119.086473 0.950196 -0.289438 -0.115560 1.6119787838914282e-38
20.834368 -5.661879 118.916121 0.957038 -0.265939 -0.115560 1.6119787838914282e-38
20.599947 -5.235274 119.048055 0.963300 -0.242280 -0.115560 1.6119787838914282e-38
20.357806 -4.315596 119.217915 0.968976 -0.218473 -0.115560 1.6119787838914282e-38
20.899888 -4.192686 118.942466 0.974065 -0.194533 -0.115560 1.6119787838914282e-38
20.476516 -3.933628 118.696553 0.978562 -0.170476 -0.115560 1.6119787838914282e-38
20.944677 -3.164278 119.199635 0.982465 -0.146315 -0.115560 1.6119787838914282e-38
20.792273 -2.892821 118.680681 0.985772 -0.122065 -0.115560 1.6119787838914282e-38
18.185571 -10.021964 120.471071 0.869089 -0.494656 -0.000286 1.6119787838914282e-38
18.454897 -9.539558 120.381932 0.881012 -0.473094 -0.000286 1.6119787838914282e-38
18.992063 -9.195415 119.738042 0.892401 -0.451244 -0.000286 1.6119787838914282e-38
19.203661 -9.049200 119.728744 0.903247 -0.429121 -0.000286 1.6119787838914282e-38
19.640648 -8.576822 120.070346 0.913545 -0.406737 -0.000286 1.6119787838914282e-38
19.431347 -8.533186 119.911304 0.923289 -0.384106 -0.000286 1.6119787838914282e-38
19.814006 -7.581762 119.894119 0.932472 -0.361242 -0.000286 1.6119787838914282e-38
19.862928 -6.779099 119.509694 0.941089 -0.338158 -0.000286 1.6119787838914282e-38
19.900436 -6.606480 120.530831 0.949135 -0.314870 -0.000286 1.6119787838914282e-38
20.450619 -6.533342 120.401945 0.956604 -0.291390 -0.000286 1.6119787838914282e-38
20.188129 -6.105228 119.597026 0.963493 -0.267733 -0.000286 1.6119787838914282e-38
20.775323 -4.985826 119.705089 0.969797 -0.243914 -0.000286 1.6119787838914282e-38
20.960635 -4.405920 119.923184 0.975512 -0.219946 -0.000286 1.6119787838914282e-38
20.683030 -4.375827 120.599736 0.980635 -0.195845 -0.000286 1.6119787838914282e-38
20.332530 -3.990650 120.058404 0.985162 -0.171626 -0.000286 1.6119787838914282e-38
21.635159 -3.515064 120.244579 0.989092 -0.147302 -0.000286 1.6119787838914282e-38
20.861767 -2.460825 120.342618 0.992420 -0.122888 -0.000286 1.6119787838914282e-38
