# .PCD v0.7 - Point Cloud Data file format
VERSION 0.7
FIELDS x y z normal_x normal_y normal_z rgb
SIZE 4 4 4 4 4 4 4
TYPE F F F F F F F
COUNT 1 1 1 1 1 1 1
WIDTH 237
HEIGHT 1
VIEWPOINT 0 0 0 1 0 0 0
POINTS 237
DATA ascii
13.322795 -41.059452 4.540149 0.309017 -0.951057 0.000000 1.75027152803718e-38
14.738024 -40.457503 5.131706 0.332355 -0.943154 0.000000 1.75027152803718e-38
12.733791 -40.570881 6.058693 0.285492 -0.958381 0.000000 1.75027152803718e-38
13.408965 -40.932523 5.896825 0.309017 -0.951057 0.000000 1.75027152803718e-38
14.257634 -40.824085 6.174419 0.332355 -0.943154 0.000000 1.75027152803718e-38
14.837164 -39.785213 5.862246 0.355491 -0.934680 0.000000 1.75027152803718e-38
12.107804 -40.790787 7.279181 0.285492 -0.958381 0.000000 1.75027152803718e-38
12.896124 -40.910616 6.927327 0.309017 -0.951057 0.000000 1.75027152803718e-38
14.101510 -40.658102 7.122523 0.332355 -0.943154 0.000000 1.75027152803718e-38
15.040372 -40.256608 7.536606 0.355491 -0.934680 0.000000 1.75027152803718e-38
16.357954 -39.635095 7.291572 0.378411 -0.925638 0.000000 1.75027152803718e-38
10.755633 -40.724520 8.639591 0.261793 -0.965124 0.000000 1.75027152803718e-38
12.760475 -40.548728 8.420350 0.285492 -0.958381 0.000000 1.75027152803718e-38
13.167032 -40.566118 9.117685 0.309017 -0.951057 0.000000 1.75027152803718e-38
14.320120 -40.212187 8.599830 0.332355 -0.943154 0.000000 1.75027152803718e-38
15.161419 -39.511897 8.660905 0.355491 -0.934680 0.000000 1.75027152803718e-38
16.036595 -39.686602 8.493664 0.378411 -0.925638 0.000000 1.75027152803718e-38
16.703166 -39.332347 9.109320 0.401102 -0.916034 0.000000 1.75027152803718e-38
9.752749 -41.384649 9.201679 0.237935 -0.971281 0.000000 1.75027152803718e-38
11.524781 -41.323463 10.446297 0.261793 -0.965124 0.000000 1.75027152803718e-38
11.686774 -40.695682 9.866755 0.285492 -0.958381 0.000000 1.75027152803718e-38
13.111268 -41.068946 10.075632 0.309017 -0.951057 0.000000 1.75027152803718e-38
14.411123 -39.784638 10.199322 0.332355 -0.943154 0.000000 1.75027152803718e-38
15.019187 -40.259040 9.486360 0.355491 -0.934680 0.000000 1.75027152803718e-38
16.619170 -39.804780 10.340976 0.378411 -0.925638 0.000000 1.75027152803718e-38
17.304750 -39.061780 9.804847 0.401102 -0.916034 0.000000 1.75027152803718e-38
18.305046 -38.731041 9.786143 0.423549 -0.905873 0.000000 1.75027152803718e-38
9.261320 -41.685512 11.422727 0.213933 -0.976848 0.000000 1.75027152803718e-38
10.124444 -41.636425 10.734385 0.237935 -0.971281 0.000000 1.75027152803718e-38
11.147663 -41.701583 10.579660 0.261793 -0.965124 0.000000 1.75027152803718e-38
11.898160 -40.581799 11.052852 0.285492 -0.958381 0.000000 1.75027152803718e-38
13.296949 -40.874837 10.596855 0.309017 -0.951057 0.000000 1.75027152803718e-38
14.511060 -41.034109 10.967583 0.332355 -0.943154 0.000000 1.75027152803718e-38
15.204443 -39.950448 10.916080 0.355491 -0.934680 0.000000 1.75027152803718e-38
15.650799 -39.872773 10.909393 0.378411 -0.925638 0.000000 1.75027152803718e-38
16.941784 -38.930216 10.769940 0.401102 -0.916034 0.000000 1.75027152803718e-38
18.225104 -38.738723 11.422157 0.423549 -0.905873 0.000000 1.75027152803718e-38
19.044959 -38.090303 11.082355 0.445738 -0.895163 0.000000 1.75027152803718e-38
7.799509 -41.717619 12.427112 0.189801 -0.981823 0.000000 1.75027152803718e-38
8.974738 -41.946996 12.213023 0.213933 -0.976848 0.000000 1.75027152803718e-38
10.598525 -41.718849 12.417744 0.237935 -0.971281 0.000000 1.75027152803718e-38
11.400396 -41.616336 12.429247 0.261793 -0.965124 0.000000 1.75027152803718e-38
12.327045 -41.571128 12.446943 0.285492 -0.958381 0.000000 1.75027152803718e-38
13.239989 -40.751759 12.381823 0.309017 -0.951057 0.000000 1.75027152803718e-38
14.332425 -40.050626 12.017282 0.332355 -0.943154 0.000000 1.75027152803718e-38
15.144332 -39.888365 12.515412 0.355491 -0.934680 0.000000 1.75027152803718e-38
16.367846 -38.874462 12.555375 0.378411 -0.925638 0.000000 1.75027152803718e-38
17.542499 -39.380740 12.073260 0.401102 -0.916034 0.000000 1.75027152803718e-38
18.071671 -38.639261 12.493182 0.423549 -0.905873 0.000000 1.75027152803718e-38
19.238663 -38.457795 12.258993 0.445738 -0.895163 0.000000 1.75027152803718e-38
20.003845 -37.693484 12.623352 0.467658 -0.883910 0.000000 1.75027152803718e-38
6.608668 -41.911524 13.299490 0.165554 -0.986201 0.000000 1.75027152803718e-38
8.044683 -41.993250 14.052934 0.189801 -0.981823 0.000000 1.75027152803718e-38
9.133032 -42.097500 13.629734 0.213933 -0.976848 0.000000 1.75027152803718e-38
10.036010 -41.909014 13.731811 0.237935 -0.971281 0.000000 1.75027152803718e-38
11.305075 -40.832817 13.739902 0.261793 -0.965124 0.000000 1.75027152803718e-38
12.613188 -41.503937 13.765795 0.285492 -0.958381 0.000000 1.75027152803718e-38
13.061859 -40.749166 13.814802 0.309017 -0.951057 0.000000 1.75027152803718e-38
14.296562 -39.806044 14.036641 0.332355 -0.943154 0.000000 1.75027152803718e-38
15.628952 -39.934791 14.137256 0.355491 -0.934680 0.000000 1.75027152803718e-38
15.829591 -39.364444 13.310874 0.378411 -0.925638 0.000000 1.75027152803718e-38
17.066412 -39.194416 13.978213 0.401102 -0.916034 0.000000 1.75027152803718e-38
17.854209 -39.080005 13.637507 0.423549 -0.905873 0.000000 1.75027152803718e-38
19.097891 -38.209807 14.639026 0.445738 -0.895163 0.000000 1.75027152803718e-38
20.221487 -38.202999 13.219295 0.467658 -0.883910 0.000000 1.75027152803718e-38
20.927805 -37.757879 13.748512 0.489293 -0.872120 0.000000 1.75027152803718e-38
6.435061 -42.770205 15.001744 0.141206 -0.989980 0.000000 1.75027152803718e-38
7.063511 -42.392582 14.501183 0.165554 -0.986201 0.000000 1.75027152803718e-38
8.359458 -42.768988 14.296382 0.189801 -0.981823 0.000000 1.75027152803718e-38
9.175239 -42.125818 14.927051 0.213933 -0.976848 0.000000 1.75027152803718e-38
10.050480 -41.257013 14.893542 0.237935 -0.971281 0.000000 1.75027152803718e-38
11.342492 -41.498437 15.146234 0.261793 -0.965124 0.000000 1.75027152803718e-38
12.465885 -41.134658 15.066156 0.285492 -0.958381 0.000000 1.75027152803718e-38
12.758684 -41.487921 14.822543 0.309017 -0.951057 0.000000 1.75027152803718e-38
14.251676 -40.437665 14.851366 0.332355 -0.943154 0.000000 1.75027152803718e-38
15.481760 -40.620373 14.842137 0.355491 -0.934680 0.000000 1.75027152803718e-38
15.891813 -39.741290 14.281875 0.378411 -0.925638 0.000000 1.75027152803718e-38
17.375661 -39.884503 14.730302 0.401102 -0.916034 0.000000 1.75027152803718e-38
18.506198 -38.938098 14.351663 0.423549 -0.905873 0.000000 1.75027152803718e-38
18.991482 -38.995555 14.336933 0.445738 -0.895163 0.000000 1.75027152803718e-38
20.172327 -37.892480 14.977543 0.467658 -0.883910 0.000000 1.75027152803718e-38
21.249418 -37.556464 14.763344 0.489293 -0.872120 0.000000 1.75027152803718e-38
21.665522 -37.154439 14.448956 0.510631 -0.859800 0.000000 1.75027152803718e-38
4.402080 -42.819335 16.511292 0.116773 -0.993159 0.000000 1.75027152803718e-38
5.826662 -42.770368 15.961564 0.141206 -0.989980 0.000000 1.75027152803718e-38
6.939349 -42.486118 15.693848 0.165554 -0.986201 0.000000 1.75027152803718e-38
8.157578 -42.215766 16.017946 0.189801 -0.981823 0.000000 1.75027152803718e-38
8.932223 -41.846845 16.301551 0.213933 -0.976848 0.000000 1.75027152803718e-38
9.955740 -42.303877 15.796897 0.237935 -0.971281 0.000000 1.75027152803718e-38
11.461256 -41.567269 16.319499 0.261793 -0.965124 0.000000 1.75027152803718e-38
12.222548 -41.636373 16.358128 0.285492 -0.958381 0.000000 1.75027152803718e-38
13.169597 -40.986891 15.617497 0.309017 -0.951057 0.000000 1.75027152803718e-38
14.171832 -40.399022 15.867592 0.332355 -0.943154 0.000000 1.75027152803718e-38
15.585562 -41.035422 15.914657 0.355491 -0.934680 0.000000 1.75027152803718e-38
16.278927 -39.423142 15.731755 0.378411 -0.925638 0.000000 1.75027152803718e-38
17.510839 -39.214361 15.866027 0.401102 -0.916034 0.000000 1.75027152803718e-38
18.166184 -39.050489 15.638029 0.423549 -0.905873 0.000000 1.75027152803718e-38
19.099313 -38.247949 16.239271 0.445738 -0.895163 0.000000 1.75027152803718e-38
20.134743 -38.111212 16.256746 0.467658 -0.883910 0.000000 1.75027152803718e-38
21.347165 -37.803252 16.542891 0.489293 -0.872120 0.000000 1.75027152803718e-38
22.431200 -36.901495 15.829586 0.510631 -0.859800 0.000000 1.75027152803718e-38
22.637703 -36.648473 16.100704 0.531659 -0.846958 0.000000 1.75027152803718e-38
4.638557 -42.622132 17.559179 0.116773 -0.993159 0.000000 1.75027152803718e-38
6.514011 -42.705382 16.526957 0.141206 -0.989980 0.000000 1.75027152803718e-38
6.788132 -42.521474 17.208673 0.165554 -0.986201 0.000000 1.75027152803718e-38
8.042737 -42.802513 17.603864 0.189801 -0.981823 0.000000 1.75027152803718e-38
9.391146 -42.106012 17.129507 0.213933 -0.976848 0.000000 1.75027152803718e-38
10.345454 -42.416870 17.280639 0.237935 -0.971281 0.000000 1.75027152803718e-38
10.566220 -42.219639 17.222894 0.261793 -0.965124 0.000000 1.75027152803718e-38
13.062291 -41.997745 16.946513 0.285492 -0.958381 0.000000 1.75027152803718e-38
13.432447 -40.609845 17.380239 0.309017 -0.951057 0.000000 1.75027152803718e-38
14.587601 -40.900125 17.166401 0.332355 -0.943154 0.000000 1.75027152803718e-38
15.402429 -40.629735 17.536868 0.355491 -0.934680 0.000000 1.75027152803718e-38
15.887371 -39.774110 17.331382 0.378411 -0.925638 0.000000 1.75027152803718e-38
17.286379 -40.118550 17.025651 0.401102 -0.916034 0.000000 1.75027152803718e-38
18.681399 -39.248727 17.403107 0.423549 -0.905873 0.000000 1.75027152803718e-38
19.017829 -38.731566 16.907942 0.445738 -0.895163 0.000000 1.75027152803718e-38
20.259832 -38.124852 17.415772 0.467658 -0.883910 0.000000 1.75027152803718e-38
20.894690 -37.828641 17.480746 0.489293 -0.872120 0.000000 1.75027152803718e-38
4.167131 -43.527325 18.913308 0.092268 -0.995734 0.000000 1.75027152803718e-38
5.047375 -43.351598 18.894006 0.116773 -0.993159 0.000000 1.75027152803718e-38
5.660259 -43.099811 18.385199 0.141206 -0.989980 0.000000 1.75027152803718e-38
7.822887 -42.974847 17.910211 0.165554 -0.986201 0.000000 1.75027152803718e-38
8.056708 -42.442804 18.791926 0.189801 -0.981823 0.000000 1.75027152803718e-38
9.960766 -41.941677 18.613078 0.213933 -0.976848 0.000000 1.75027152803718e-38
10.051297 -41.635098 18.446132 0.237935 -0.971281 0.000000 1.75027152803718e-38
11.155929 -41.980415 18.181015 0.261793 -0.965124 0.000000 1.75027152803718e-38
12.241631 -41.632802 18.775898 0.285492 -0.958381 0.000000 1.75027152803718e-38
13.284956 -41.625451 18.075569 0.309017 -0.951057 0.000000 1.75027152803718e-38
14.476362 -40.880730 18.390407 0.332355 -0.943154 0.000000 1.75027152803718e-38
15.276613 -40.418444 18.973865 0.355491 -0.934680 0.000000 1.75027152803718e-38
16.176805 -40.116183 18.844182 0.378411 -0.925638 0.000000 1.75027152803718e-38
17.162050 -39.731037 18.545302 0.401102 -0.916034 0.000000 1.75027152803718e-38
17.974972 -39.235173 18.566164 0.423549 -0.905873 0.000000 1.75027152803718e-38
19.497210 -39.177314 18.559692 0.445738 -0.895163 0.000000 1.75027152803718e-38
20.695794 -37.709955 18.940740 0.467658 -0.883910 0.000000 1.75027152803718e-38
3.189137 -43.798957 19.875706 0.067708 -0.997705 0.000000 1.75027152803718e-38
4.247648 -43.850184 19.712640 0.092268 -0.995734 0.000000 1.75027152803718e-38
5.571685 -43.021587 19.232677 0.116773 -0.993159 0.000000 1.75027152803718e-38
6.337804 -43.273276 20.001207 0.141206 -0.989980 0.000000 1.75027152803718e-38
6.992030 -42.900516 19.632552 0.165554 -0.986201 0.000000 1.75027152803718e-38
8.254384 -42.864406 19.726753 0.189801 -0.981823 0.000000 1.75027152803718e-38
8.950126 -42.330721 19.846400 0.213933 -0.976848 0.000000 1.75027152803718e-38
9.861572 -41.937952 19.740928 0.237935 -0.971281 0.000000 1.75027152803718e-38
11.432503 -41.738726 19.892287 0.261793 -0.965124 0.000000 1.75027152803718e-38
12.764066 -41.762872 20.104143 0.285492 -0.958381 0.000000 1.75027152803718e-38
13.474377 -41.204081 19.914903 0.309017 -0.951057 0.000000 1.75027152803718e-38
14.824555 -40.796328 19.660931 0.332355 -0.943154 0.000000 1.75027152803718e-38
15.266019 -40.659160 19.565784 0.355491 -0.934680 0.000000 1.75027152803718e-38
16.139419 -40.889456 19.329036 0.378411 -0.925638 0.000000 1.75027152803718e-38
18.037387 -40.030362 20.364853 0.401102 -0.916034 0.000000 1.75027152803718e-38
18.538810 -39.406527 19.343633 0.423549 -0.905873 0.000000 1.75027152803718e-38
1.308305 -44.010200 20.854298 0.043107 -0.999070 0.000000 1.75027152803718e-38
3.293109 -43.741912 20.786098 0.067708 -0.997705 0.000000 1.75027152803718e-38
4.034499 -43.411223 20.795388 0.092268 -0.995734 0.000000 1.75027152803718e-38
5.688134 -43.389643 21.065003 0.116773 -0.993159 0.000000 1.75027152803718e-38
6.037237 -43.039436 21.401415 0.141206 -0.989980 0.000000 1.75027152803718e-38
7.718634 -43.235291 21.361166 0.165554 -0.986201 0.000000 1.75027152803718e-38
8.441821 -42.523324 21.003364 0.189801 -0.981823 0.000000 1.75027152803718e-38
9.273162 -42.318052 21.317336 0.213933 -0.976848 0.000000 1.75027152803718e-38
10.845683 -42.296422 20.998853 0.237935 -0.971281 0.000000 1.75027152803718e-38
10.678405 -42.570870 20.912652 0.261793 -0.965124 0.000000 1.75027152803718e-38
12.119506 -41.549207 20.637922 0.285492 -0.958381 0.000000 1.75027152803718e-38
13.325337 -41.612636 21.392351 0.309017 -0.951057 0.000000 1.75027152803718e-38
14.310981 -40.993708 21.089640 0.332355 -0.943154 0.000000 1.75027152803718e-38
15.773364 -40.504800 21.020896 0.355491 -0.934680 0.000000 1.75027152803718e-38
15.993002 -40.435075 21.024941 0.378411 -0.925638 0.000000 1.75027152803718e-38
17.577188 -40.168002 21.373198 0.401102 -0.916034 0.000000 1.75027152803718e-38
0.475627 -43.636489 22.488675 0.018479 -0.999829 0.000000 1.75027152803718e-38
1.791394 -43.859773 22.245217 0.043107 -0.999070 0.000000 1.75027152803718e-38
3.205066 -43.788371 21.947365 0.067708 -0.997705 0.000000 1.75027152803718e-38
4.380882 -43.432419 22.570398 0.092268 -0.995734 0.000000 1.75027152803718e-38
5.335296 -42.785591 22.602533 0.116773 -0.993159 0.000000 1.75027152803718e-38
5.958962 -43.159456 22.100795 0.141206 -0.989980 0.000000 1.75027152803718e-38
7.104888 -43.558977 22.182207 0.165554 -0.986201 0.000000 1.75027152803718e-38
8.465180 -42.963537 21.938231 0.189801 -0.981823 0.000000 1.75027152803718e-38
8.900268 -42.092609 22.365589 0.213933 -0.976848 0.000000 1.75027152803718e-38
10.159777 -42.344122 22.924797 0.237935 -0.971281 0.000000 1.75027152803718e-38
11.636641 -43.049480 23.063729 0.261793 -0.965124 0.000000 1.75027152803718e-38
11.932282 -41.980238 21.928020 0.285492 -0.958381 0.000000 1.75027152803718e-38
13.294029 -41.512738 21.646734 0.309017 -0.951057 0.000000 1.75027152803718e-38
14.509723 -40.908231 22.015069 0.332355 -0.943154 0.000000 1.75027152803718e-38
15.131653 -40.923553 22.166539 0.355491 -0.934680 0.000000 1.75027152803718e-38
1.186669 -43.767642 23.041951 0.018479 -0.999829 0.000000 1.75027152803718e-38
2.108391 -43.784144 23.619523 0.043107 -0.999070 0.000000 1.75027152803718e-38
3.270474 -43.646003 23.063307 0.067708 -0.997705 0.000000 1.75027152803718e-38
4.005438 -44.173900 23.699873 0.092268 -0.995734 0.000000 1.75027152803718e-38
5.542884 -43.948039 23.303716 0.116773 -0.993159 0.000000 1.75027152803718e-38
5.930818 -43.572318 23.628882 0.141206 -0.989980 0.000000 1.75027152803718e-38
7.130883 -43.074561 23.824769 0.165554 -0.986201 0.000000 1.75027152803718e-38
8.658197 -43.413678 23.920933 0.189801 -0.981823 0.000000 1.75027152803718e-38
9.826301 -42.394171 23.457810 0.213933 -0.976848 0.000000 1.75027152803718e-38
10.214038 -42.910978 23.174621 0.237935 -0.971281 0.000000 1.75027152803718e-38
11.489871 -42.091209 23.897122 0.261793 -0.965124 0.000000 1.75027152803718e-38
12.380497 -42.061323 23.473898 0.285492 -0.958381 0.000000 1.75027152803718e-38
13.367775 -41.507615 23.614009 0.309017 -0.951057 0.000000 1.75027152803718e-38
14.624871 -41.274138 23.689790 0.332355 -0.943154 0.000000 1.75027152803718e-38
0.624975 -43.818988 25.267459 0.018479 -0.999829 0.000000 1.75027152803718e-38
1.255249 -43.138057 24.803392 0.043107 -0.999070 0.000000 1.75027152803718e-38
3.154518 -44.049041 24.741214 0.067708 -0.997705 0.000000 1.75027152803718e-38
4.119331 -44.146130 24.500564 0.092268 -0.995734 0.000000 1.75027152803718e-38
5.495609 -44.183733 24.874580 0.116773 -0.993159 0.000000 1.75027152803718e-38
6.104624 -43.866328 25.333848 0.141206 -0.989980 0.000000 1.75027152803718e-38
7.001195 -43.750778 24.686176 0.165554 -0.986201 0.000000 1.75027152803718e-38
8.124321 -43.217109 24.788888 0.189801 -0.981823 0.000000 1.75027152803718e-38
9.487556 -43.037228 24.531620 0.213933 -0.976848 0.000000 1.75027152803718e-38
10.666733 -42.788501 24.593583 0.237935 -0.971281 0.000000 1.75027152803718e-38
11.967905 -42.520363 25.069864 0.261793 -0.965124 0.000000 1.75027152803718e-38
12.935157 -41.800852 24.949615 0.285492 -0.958381 0.000000 1.75027152803718e-38
2.108484 -44.317868 25.506642 0.043107 -0.999070 0.000000 1.75027152803718e-38
3.372064 -43.951865 25.692983 0.067708 -0.997705 0.000000 1.75027152803718e-38
4.158700 -43.660043 26.498134 0.092268 -0.995734 0.000000 1.75027152803718e-38
5.232900 -43.548783 25.616501 0.116773 -0.993159 0.000000 1.75027152803718e-38
6.226144 -43.826800 26.082152 0.141206 -0.989980 0.000000 1.75027152803718e-38
7.795684 -43.484394 25.698074 0.165554 -0.986201 0.000000 1.75027152803718e-38
8.004266 -42.872248 26.133519 0.189801 -0.981823 0.000000 1.75027152803718e-38
9.583604 -43.249394 26.059740 0.213933 -0.976848 0.000000 1.75027152803718e-38
10.213238 -42.784215 25.626920 0.237935 -0.971281 0.000000 1.75027152803718e-38
1.275728 -44.336643 27.652669 0.043107 -0.999070 0.000000 1.75027152803718e-38
2.575851 -44.702708 27.282733 0.067708 -0.997705 0.000000 1.75027152803718e-38
4.505992 -44.037954 26.645109 0.092268 -0.995734 0.000000 1.75027152803718e-38
4.670971 -43.992090 26.862722 0.116773 -0.993159 0.000000 1.75027152803718e-38
6.299920 -43.821732 27.069568 0.141206 -0.989980 0.000000 1.75027152803718e-38
7.882545 -43.535867 27.579972 0.165554 -0.986201 0.000000 1.75027152803718e-38
8.689042 -43.563967 27.158161 0.189801 -0.981823 0.000000 1.75027152803718e-38
9.393224 -43.094133 27.021385 0.213933 -0.976848 0.000000 1.75027152803718e-38
2.578200 -44.290615 28.461331 0.067708 -0.997705 0.000000 1.75027152803718e-38
3.945229 -44.228426 28.172310 0.092268 -0.995734 0.000000 1.75027152803718e-38
5.447051 -44.391558 28.337698 0.116773 -0.993159 0.000000 1.75027152803718e-38
6.130148 -43.833816 28.616941 0.141206 -0.989980 0.000000 1.75027152803718e-38
6.578386 -43.796250 27.930230 0.165554 -0.986201 0.000000 1.75027152803718e-38
3.268450 -44.546148 29.980338 0.067708 -0.997705 0.000000 1.75027152803718e-38
3.885982 -44.436452 29.708911 0.092268 -0.995734 0.000000 1.75027152803718e-38
5.344525 -44.662709 29.881586 0.116773 -0.993159 0.000000 1.75027152803718e-38
5.751642 -44.406863 29.221903 0.141206 -0.989980 0.000000 1.75027152803718e-38
2.635087 -44.628982 30.872149 0.067708 -0.997705 0.000000 1.75027152803718e-38
3.543550 -44.438385 30.350654 0.092268 -0.995734 0.000000 1.75027152803718e-38
