# .PCD v0.7 - Point Cloud Data file format
VERSION 0.7
FIELDS x y z normal_x normal_y normal_z rgb
SIZE 4 4 4 4 4 4 4
TYPE F F F F F F F
COUNT 1 1 1 1 1 1 1
WIDTH 252
HEIGHT 1
VIEWPOINT 0 0 0 1 0 0 0
POINTS 252
DATA ascii
7.695801 -53.993562 86.112719 0.141206 -0.989980 0.000000 1.5843200949324314e-38
9.039969 -54.231508 86.605037 0.165554 -0.986201 0.000000 1.5843200949324314e-38
8.036581 -54.429378 87.950866 0.141206 -0.989980 0.000000 1.5843200949324314e-38
8.745649 -54.317568 87.969010 0.165554 -0.986201 0.000000 1.5843200949324314e-38
10.383302 -54.698746 87.464840 0.189801 -0.981823 0.000000 1.5843200949324314e-38
11.867658 -53.269868 87.765275 0.213933 -0.976848 0.000000 1.5843200949324314e-38
5.902976 -55.436857 88.949119 0.116773 -0.993159 0.000000 1.5843200949324314e-38
8.039962 -54.839126 88.998093 0.141206 -0.989980 0.000000 1.5843200949324314e-38
8.937942 -54.662075 89.732945 0.165554 -0.986201 0.000000 1.5843200949324314e-38
10.232462 -54.575695 88.803681 0.189801 -0.981823 0.000000 1.5843200949324314e-38
11.825742 -54.067623 89.157943 0.213933 -0.976848 0.000000 1.5843200949324314e-38
12.908493 -53.764811 88.859959 0.237935 -0.971281 0.000000 1.5843200949324314e-38
6.396812 -55.136652 90.112503 0.116773 -0.993159 0.000000 1.5843200949324314e-38
7.442843 -54.788543 90.259186 0.141206 -0.989980 0.000000 1.5843200949324314e-38
8.768675 -54.427904 90.947823 0.165554 -0.986201 0.000000 1.5843200949324314e-38
10.077538 -54.373989 90.806773 0.189801 -0.981823 0.000000 1.5843200949324314e-38
11.607142 -53.932809 90.427030 0.213933 -0.976848 0.000000 1.5843200949324314e-38
13.366253 -53.206793 89.772324 0.237935 -0.971281 0.000000 1.5843200949324314e-38
14.546469 -53.566118 90.297347 0.261793 -0.965124 0.000000 1.5843200949324314e-38
15.814348 -53.130872 89.983092 0.285492 -0.958381 0.000000 1.5843200949324314e-38
4.949802 -55.177609 91.656226 0.092268 -0.995734 0.000000 1.5843200949324314e-38
6.545531 -55.435111 91.965246 0.116773 -0.993159 0.000000 1.5843200949324314e-38
7.620260 -55.694219 91.800952 0.141206 -0.989980 0.000000 1.5843200949324314e-38
9.435229 -55.106002 91.544706 0.165554 -0.986201 0.000000 1.5843200949324314e-38
10.860552 -54.080922 91.730137 0.189801 -0.981823 0.000000 1.5843200949324314e-38
12.124264 -54.013305 91.505241 0.213933 -0.976848 0.000000 1.5843200949324314e-38
12.881945 -53.997665 91.883666 0.237935 -0.971281 0.000000 1.5843200949324314e-38
14.867505 -53.516481 91.446363 0.261793 -0.965124 0.000000 1.5843200949324314e-38
16.369075 -53.165986 91.737605 0.285492 -0.958381 0.000000 1.5843200949324314e-38
16.792684 -52.813382 91.872254 0.309017 -0.951057 0.000000 1.5843200949324314e-38
18.039377 -52.369502 91.669070 0.332355 -0.943154 0.000000 1.5843200949324314e-38
5.012767 -55.629705 92.290055 0.092268 -0.995734 0.000000 1.5843200949324314e-38
6.676217 -55.293126 92.933673 0.116773 -0.993159 0.000000 1.5843200949324314e-38
8.081207 -54.912074 92.764188 0.141206 -0.989980 0.000000 1.5843200949324314e-38
9.709256 -55.054068 92.591948 0.165554 -0.986201 0.000000 1.5843200949324314e-38
10.497712 -54.501914 92.988188 0.189801 -0.981823 0.000000 1.5843200949324314e-38
11.808712 -54.482207 93.174931 0.213933 -0.976848 0.000000 1.5843200949324314e-38
12.854827 -53.252287 92.693308 0.237935 -0.971281 0.000000 1.5843200949324314e-38
14.514077 -53.622683 92.943103 0.261793 -0.965124 0.000000 1.5843200949324314e-38
15.698370 -53.256692 92.503406 0.285492 -0.958381 0.000000 1.5843200949324314e-38
17.024966 -53.431836 92.825729 0.309017 -0.951057 0.000000 1.5843200949324314e-38
18.451077 -53.114570 92.579210 0.332355 -0.943154 0.000000 1.5843200949324314e-38
19.783450 -51.780821 92.398944 0.355491 -0.934680 0.000000 1.5843200949324314e-38
20.977872 -51.865249 93.001055 0.378411 -0.925638 0.000000 1.5843200949324314e-38
3.966765 -55.844219 94.104142 0.067708 -0.997705 0.000000 1.5843200949324314e-38
4.598160 -55.509810 94.078552 0.092268 -0.995734 0.000000 1.5843200949324314e-38
6.450691 -55.714991 94.370432 0.116773 -0.993159 0.000000 1.5843200949324314e-38
7.659739 -54.998666 94.334766 0.141206 -0.989980 0.000000 1.5843200949324314e-38
8.993396 -54.836297 93.891707 0.165554 -0.986201 0.000000 1.5843200949324314e-38
10.788369 -55.097043 93.986089 0.189801 -0.981823 0.000000 1.5843200949324314e-38
11.967246 -54.547376 94.134980 0.213933 -0.976848 0.000000 1.5843200949324314e-38
13.041557 -54.393437 94.234771 0.237935 -0.971281 0.000000 1.5843200949324314e-38
14.492491 -54.033161 93.768072 0.261793 -0.965124 0.000000 1.5843200949324314e-38
15.801309 -53.815634 94.239409 0.285492 -0.958381 0.000000 1.5843200949324314e-38
17.118053 -53.423672 93.959668 0.309017 -0.951057 0.000000 1.5843200949324314e-38
18.136803 -52.914121 94.426966 0.332355 -0.943154 0.000000 1.5843200949324314e-38
19.521019 -52.227268 94.682537 0.355491 -0.934680 0.000000 1.5843200949324314e-38
21.201897 -51.832645 93.424318 0.378411 -0.925638 0.000000 1.5843200949324314e-38
22.444033 -51.373512 94.187959 0.401102 -0.916034 0.000000 1.5843200949324314e-38
23.444322 -50.492798 94.454531 0.423549 -0.905873 0.000000 1.5843200949324314e-38
4.101488 -56.084703 95.376481 0.067708 -0.997705 0.000000 1.5843200949324314e-38
4.609442 -55.646545 95.492135 0.092268 -0.995734 0.000000 1.5843200949324314e-38
6.200198 -55.593332 95.296014 0.116773 -0.993159 0.000000 1.5843200949324314e-38
8.771574 -54.645662 95.354308 0.141206 -0.989980 0.000000 1.5843200949324314e-38
9.068734 -55.134990 95.595612 0.165554 -0.986201 0.000000 1.5843200949324314e-38
10.123032 -55.590665 94.913943 0.189801 -0.981823 0.000000 1.5843200949324314e-38
12.204853 -54.438580 95.390420 0.213933 -0.976848 0.000000 1.5843200949324314e-38
13.653034 -54.427585 95.176446 0.237935 -0.971281 0.000000 1.5843200949324314e-38
14.770909 -53.515053 95.381076 0.261793 -0.965124 0.000000 1.5843200949324314e-38
15.953329 -53.530117 95.684593 0.285492 -0.958381 0.000000 1.5843200949324314e-38
17.191079 -53.375303 95.115521 0.309017 -0.951057 0.000000 1.5843200949324314e-38
18.850076 -53.032335 95.449931 0.332355 -0.943154 0.000000 1.5843200949324314e-38
19.459338 -52.402050 95.240255 0.355491 -0.934680 0.000000 1.5843200949324314e-38
21.720124 -51.526867 95.150948 0.378411 -0.925638 0.000000 1.5843200949324314e-38
22.298416 -51.482575 94.921064 0.401102 -0.916034 0.000000 1.5843200949324314e-38
24.195312 -50.938356 95.773988 0.423549 -0.905873 0.000000 1.5843200949324314e-38
24.982584 -50.136723 95.287010 0.445738 -0.895163 0.000000 1.5843200949324314e-38
2.036468 -55.594927 96.530716 0.043107 -0.999070 0.000000 1.5843200949324314e-38
3.565771 -55.875476 96.804869 0.067708 -0.997705 0.000000 1.5843200949324314e-38
4.923832 -55.869707 96.806947 0.092268 -0.995734 0.000000 1.5843200949324314e-38
6.603301 -55.574011 96.415628 0.116773 -0.993159 0.000000 1.5843200949324314e-38
7.453221 -55.637411 96.326656 0.141206 -0.989980 0.000000 1.5843200949324314e-38
9.258881 -55.514658 96.545933 0.165554 -0.986201 0.000000 1.5843200949324314e-38
10.548425 -54.861378 96.679546 0.189801 -0.981823 0.000000 1.5843200949324314e-38
11.729498 -54.447889 96.277866 0.213933 -0.976848 0.000000 1.5843200949324314e-38
13.016633 -54.195791 96.317154 0.237935 -0.971281 0.000000 1.5843200949324314e-38
14.722270 -54.553190 96.385036 0.261793 -0.965124 0.000000 1.5843200949324314e-38
15.988384 -53.906169 96.340703 0.285492 -0.958381 0.000000 1.5843200949324314e-38
17.355632 -53.080302 96.212359 0.309017 -0.951057 0.000000 1.5843200949324314e-38
17.894915 -52.561958 96.297351 0.332355 -0.943154 0.000000 1.5843200949324314e-38
19.779709 -52.621791 96.096339 0.355491 -0.934680 0.000000 1.5843200949324314e-38
21.119556 -52.034641 96.625420 0.378411 -0.925638 0.000000 1.5843200949324314e-38
22.347211 -52.144091 96.093638 0.401102 -0.916034 0.000000 1.5843200949324314e-38
24.105979 -51.093492 96.658590 0.423549 -0.905873 0.000000 1.5843200949324314e-38
24.802686 -49.996499 96.524571 0.445738 -0.895163 0.000000 1.5843200949324314e-38
2.711773 -56.549484 97.611413 0.043107 -0.999070 0.000000 1.5843200949324314e-38
3.786670 -56.374342 97.483872 0.067708 -0.997705 0.000000 1.5843200949324314e-38
5.457168 -55.584948 97.709766 0.092268 -0.995734 0.000000 1.5843200949324314e-38
6.036066 -55.792147 97.523118 0.116773 -0.993159 0.000000 1.5843200949324314e-38
8.052604 -55.608839 97.167479 0.141206 -0.989980 0.000000 1.5843200949324314e-38
9.197148 -55.299940 97.704003 0.165554 -0.986201 0.000000 1.5843200949324314e-38
10.349529 -55.041636 97.232318 0.189801 -0.981823 0.000000 1.5843200949324314e-38
12.106345 -55.120384 97.862175 0.213933 -0.976848 0.000000 1.5843200949324314e-38
13.318083 -54.499594 98.140294 0.237935 -0.971281 0.000000 1.5843200949324314e-38
14.937048 -54.096224 97.906834 0.261793 -0.965124 0.000000 1.5843200949324314e-38
15.547074 -53.895529 97.812874 0.285492 -0.958381 0.000000 1.5843200949324314e-38
17.551532 -53.532948 97.946628 0.309017 -0.951057 0.000000 1.5843200949324314e-38
18.411046 -52.465169 97.899429 0.332355 -0.943154 0.000000 1.5843200949324314e-38
19.724245 -52.179574 97.397165 0.355491 -0.934680 0.000000 1.5843200949324314e-38
21.292698 -52.042892 97.608986 0.378411 -0.925638 0.000000 1.5843200949324314e-38
22.529831 -51.518183 97.409964 0.401102 -0.916034 0.000000 1.5843200949324314e-38
23.911362 -50.964637 98.315137 0.423549 -0.905873 0.000000 1.5843200949324314e-38
25.522950 -50.582923 97.689651 0.445738 -0.895163 0.000000 1.5843200949324314e-38
1.472879 -56.546078 98.844604 0.018479 -0.999829 0.000000 1.5843200949324314e-38
2.233097 -56.265542 98.888488 0.043107 -0.999070 0.000000 1.5843200949324314e-38
4.079852 -56.366475 98.919337 0.067708 -0.997705 0.000000 1.5843200949324314e-38
5.279019 -56.384310 99.289925 0.092268 -0.995734 0.000000 1.5843200949324314e-38
6.806692 -55.793923 98.678949 0.116773 -0.993159 0.000000 1.5843200949324314e-38
8.442606 -56.365989 99.207335 0.141206 -0.989980 0.000000 1.5843200949324314e-38
9.394086 -55.396867 98.920941 0.165554 -0.986201 0.000000 1.5843200949324314e-38
10.745093 -55.140041 98.985434 0.189801 -0.981823 0.000000 1.5843200949324314e-38
12.145387 -54.994957 99.644110 0.213933 -0.976848 0.000000 1.5843200949324314e-38
12.955112 -54.366360 99.121744 0.237935 -0.971281 0.000000 1.5843200949324314e-38
14.878354 -54.789618 99.331729 0.261793 -0.965124 0.000000 1.5843200949324314e-38
15.776146 -53.586038 98.822780 0.285492 -0.958381 0.000000 1.5843200949324314e-38
17.884595 -53.827662 98.705738 0.309017 -0.951057 0.000000 1.5843200949324314e-38
18.729291 -53.392507 98.914294 0.332355 -0.943154 0.000000 1.5843200949324314e-38
20.568698 -52.858124 99.037311 0.355491 -0.934680 0.000000 1.5843200949324314e-38
21.832720 -52.110715 99.322789 0.378411 -0.925638 0.000000 1.5843200949324314e-38
22.801648 -51.340973 98.964827 0.401102 -0.916034 0.000000 1.5843200949324314e-38
24.075014 -50.525376 98.885665 0.423549 -0.905873 0.000000 1.5843200949324314e-38
25.277233 -50.667514 99.295876 0.445738 -0.895163 0.000000 1.5843200949324314e-38
0.869318 -56.592492 100.642980 0.018479 -0.999829 0.000000 1.5843200949324314e-38
2.274301 -56.082985 99.681731 0.043107 -0.999070 0.000000 1.5843200949324314e-38
3.994974 -56.519286 99.732366 0.067708 -0.997705 0.000000 1.5843200949324314e-38
4.873925 -56.232133 99.918197 0.092268 -0.995734 0.000000 1.5843200949324314e-38
6.714350 -56.352298 99.720355 0.116773 -0.993159 0.000000 1.5843200949324314e-38
8.271256 -55.860748 99.665283 0.141206 -0.989980 0.000000 1.5843200949324314e-38
9.552247 -55.698810 100.076711 0.165554 -0.986201 0.000000 1.5843200949324314e-38
10.609094 -55.085908 100.301920 0.189801 -0.981823 0.000000 1.5843200949324314e-38
12.507249 -55.064179 100.276638 0.213933 -0.976848 0.000000 1.5843200949324314e-38
13.219801 -54.844938 100.512486 0.237935 -0.971281 0.000000 1.5843200949324314e-38
14.819677 -53.963397 100.512037 0.261793 -0.965124 0.000000 1.5843200949324314e-38
15.775181 -54.308709 100.408186 0.285492 -0.958381 0.000000 1.5843200949324314e-38
17.006116 -53.784217 99.926391 0.309017 -0.951057 0.000000 1.5843200949324314e-38
18.795355 -53.580083 100.522211 0.332355 -0.943154 0.000000 1.5843200949324314e-38
19.937927 -52.624350 99.758123 0.355491 -0.934680 0.000000 1.5843200949324314e-38
21.294624 -52.696591 100.564199 0.378411 -0.925638 0.000000 1.5843200949324314e-38
22.436071 -51.796127 100.311759 0.401102 -0.916034 0.000000 1.5843200949324314e-38
23.713051 -51.555838 100.261865 0.423549 -0.905873 0.000000 1.5843200949324314e-38
24.611373 -50.187918 100.165181 0.445738 -0.895163 0.000000 1.5843200949324314e-38
-0.005154 -56.138661 100.975308 -0.006160 -0.999981 0.000000 1.5843200949324314e-38
1.506918 -56.121279 101.309454 0.018479 -0.999829 0.000000 1.5843200949324314e-38
2.666820 -56.289315 101.230950 0.043107 -0.999070 0.000000 1.5843200949324314e-38
4.108810 -56.692826 102.220914 0.067708 -0.997705 0.000000 1.5843200949324314e-38
5.273861 -56.220507 100.955026 0.092268 -0.995734 0.000000 1.5843200949324314e-38
6.731897 -55.878780 101.174920 0.116773 -0.993159 0.000000 1.5843200949324314e-38
7.840143 -56.278035 101.097034 0.141206 -0.989980 0.000000 1.5843200949324314e-38
8.987077 -55.541959 101.063593 0.165554 -0.986201 0.000000 1.5843200949324314e-38
10.213762 -55.762432 101.458352 0.189801 -0.981823 0.000000 1.5843200949324314e-38
12.289605 -55.587302 101.266826 0.213933 -0.976848 0.000000 1.5843200949324314e-38
13.637074 -54.734444 101.816346 0.237935 -0.971281 0.000000 1.5843200949324314e-38
14.969770 -55.154437 101.180744 0.261793 -0.965124 0.000000 1.5843200949324314e-38
16.544210 -53.744016 101.416992 0.285492 -0.958381 0.000000 1.5843200949324314e-38
17.447614 -54.160726 101.869395 0.309017 -0.951057 0.000000 1.5843200949324314e-38
18.504488 -52.824409 101.418803 0.332355 -0.943154 0.000000 1.5843200949324314e-38
19.874258 -53.467919 101.362162 0.355491 -0.934680 0.000000 1.5843200949324314e-38
21.392382 -52.516549 101.444812 0.378411 -0.925638 0.000000 1.5843200949324314e-38
23.130952 -51.691364 101.501737 0.401102 -0.916034 0.000000 1.5843200949324314e-38
24.328996 -51.576504 101.657308 0.423549 -0.905873 0.000000 1.5843200949324314e-38
25.451456 -50.245172 101.032112 0.445738 -0.895163 0.000000 1.5843200949324314e-38
-0.424125 -56.334291 102.994643 -0.006160 -0.999981 0.000000 1.5843200949324314e-38
1.196082 -56.511079 102.935926 0.018479 -0.999829 0.000000 1.5843200949324314e-38
2.592237 -56.273968 102.299539 0.043107 -0.999070 0.000000 1.5843200949324314e-38
3.695673 -56.800514 102.514972 0.067708 -0.997705 0.000000 1.5843200949324314e-38
5.190016 -56.010313 102.949016 0.092268 -0.995734 0.000000 1.5843200949324314e-38
6.992870 -56.377325 102.643451 0.116773 -0.993159 0.000000 1.5843200949324314e-38
8.185850 -56.043979 102.809846 0.141206 -0.989980 0.000000 1.5843200949324314e-38
10.089401 -55.783383 102.444279 0.165554 -0.986201 0.000000 1.5843200949324314e-38
10.558547 -55.458154 102.909547 0.189801 -0.981823 0.000000 1.5843200949324314e-38
12.432640 -55.272197 102.368384 0.213933 -0.976848 0.000000 1.5843200949324314e-38
13.961957 -54.709699 102.564727 0.237935 -0.971281 0.000000 1.5843200949324314e-38
14.964636 -54.707463 102.568950 0.261793 -0.965124 0.000000 1.5843200949324314e-38
15.851648 -54.208255 102.232816 0.285492 -0.958381 0.000000 1.5843200949324314e-38
17.355672 -53.451433 102.805316 0.309017 -0.951057 0.000000 1.5843200949324314e-38
18.973469 -53.604958 102.212003 0.332355 -0.943154 0.000000 1.5843200949324314e-38
20.295595 -52.886057 102.918665 0.355491 -0.934680 0.000000 1.5843200949324314e-38
21.354068 -52.645263 102.850839 0.378411 -0.925638 0.000000 1.5843200949324314e-38
22.382004 -51.733784 102.632335 0.401102 -0.916034 0.000000 1.5843200949324314e-38
24.120959 -50.708885 102.598838 0.423549 -0.905873 0.000000 1.5843200949324314e-38
25.333941 -50.784490 102.086756 0.445738 -0.895163 0.000000 1.5843200949324314e-38
-1.914923 -56.457603 104.375897 -0.030795 -0.999526 0.000000 1.5843200949324314e-38
-1.406633 -56.484307 103.220070 -0.006160 -0.999981 0.000000 1.5843200949324314e-38
1.031496 -57.251015 103.753259 0.018479 -0.999829 0.000000 1.5843200949324314e-38
2.481880 -56.632919 104.346348 0.043107 -0.999070 0.000000 1.5843200949324314e-38
3.445279 -56.367668 103.834200 0.067708 -0.997705 0.000000 1.5843200949324314e-38
5.168054 -56.092368 104.170259 0.092268 -0.995734 0.000000 1.5843200949324314e-38
6.133246 -56.479593 103.693213 0.116773 -0.993159 0.000000 1.5843200949324314e-38
7.896472 -56.314842 104.056496 0.141206 -0.989980 0.000000 1.5843200949324314e-38
9.034310 -56.127096 103.799114 0.165554 -0.986201 0.000000 1.5843200949324314e-38
10.904488 -55.827583 104.198854 0.189801 -0.981823 0.000000 1.5843200949324314e-38
12.238599 -55.347948 103.987395 0.213933 -0.976848 0.000000 1.5843200949324314e-38
13.180558 -55.324864 103.716901 0.237935 -0.971281 0.000000 1.5843200949324314e-38
15.109279 -54.607021 103.892963 0.261793 -0.965124 0.000000 1.5843200949324314e-38
16.272343 -54.953017 103.800596 0.285492 -0.958381 0.000000 1.5843200949324314e-38
16.815448 -53.820055 104.586207 0.309017 -0.951057 0.000000 1.5843200949324314e-38
18.732744 -53.544952 104.042697 0.332355 -0.943154 0.000000 1.5843200949324314e-38
19.866903 -53.171301 104.057845 0.355491 -0.934680 0.000000 1.5843200949324314e-38
21.561471 -52.599989 103.828613 0.378411 -0.925638 0.000000 1.5843200949324314e-38
22.555780 -51.869126 104.445637 0.401102 -0.916034 0.000000 1.5843200949324314e-38
23.474991 -52.140339 103.553169 0.423549 -0.905873 0.000000 1.5843200949324314e-38
25.205631 -50.964229 103.955674 0.445738 -0.895163 0.000000 1.5843200949324314e-38
-0.061395 -57.687576 105.606774 -0.006160 -0.999981 0.000000 1.5843200949324314e-38
0.738389 -56.632164 105.406950 0.018479 -0.999829 0.000000 1.5843200949324314e-38
2.364161 -56.751395 104.944196 0.043107 -0.999070 0.000000 1.5843200949324314e-38
3.337568 -56.468669 104.949689 0.067708 -0.997705 0.000000 1.5843200949324314e-38
5.794054 -56.432854 104.901257 0.092268 -0.995734 0.000000 1.5843200949324314e-38
6.825681 -56.392746 105.671400 0.116773 -0.993159 0.000000 1.5843200949324314e-38
7.893686 -56.439807 105.284625 0.141206 -0.989980 0.000000 1.5843200949324314e-38
9.432195 -56.572000 105.459091 0.165554 -0.986201 0.000000 1.5843200949324314e-38
11.286854 -55.859626 104.772843 0.189801 -0.981823 0.000000 1.5843200949324314e-38
12.147558 -55.895179 105.076900 0.213933 -0.976848 0.000000 1.5843200949324314e-38
13.603819 -55.108568 105.576188 0.237935 -0.971281 0.000000 1.5843200949324314e-38
15.094791 -55.272197 105.359198 0.261793 -0.965124 0.000000 1.5843200949324314e-38
16.170357 -54.622741 105.150430 0.285492 -0.958381 0.000000 1.5843200949324314e-38
17.636153 -53.850003 105.303686 0.309017 -0.951057 0.000000 1.5843200949324314e-38
18.568846 -54.154467 105.349699 0.332355 -0.943154 0.000000 1.5843200949324314e-38
20.403491 -52.842945 105.125099 0.355491 -0.934680 0.000000 1.5843200949324314e-38
21.630974 -52.563190 104.688323 0.378411 -0.925638 0.000000 1.5843200949324314e-38
22.355310 -51.938790 105.265407 0.401102 -0.916034 0.000000 1.5843200949324314e-38
24.521151 -51.027908 105.064519 0.423549 -0.905873 0.000000 1.5843200949324314e-38
25.274889 -51.378160 105.310063 0.445738 -0.895163 0.000000 1.5843200949324314e-38
9.528040 -55.923398 106.565877 0.165554 -0.986201 0.000000 1.5843200949324314e-38
10.755492 -55.908148 106.285826 0.189801 -0.981823 0.000000 1.5843200949324314e-38
12.451542 -55.947495 106.181005 0.213933 -0.976848 0.000000 1.5843200949324314e-38
13.520990 -55.206708 106.407732 0.237935 -0.971281 0.000000 1.5843200949324314e-38
14.831637 -54.723223 106.568316 0.261793 -0.965124 0.000000 1.5843200949324314e-38
16.143510 -54.968289 106.339058 0.285492 -0.958381 0.000000 1.5843200949324314e-38
17.435884 -54.469501 106.616627 0.309017 -0.951057 0.000000 1.5843200949324314e-38
19.292063 -53.805009 106.390039 0.332355 -0.943154 0.000000 1.5843200949324314e-38
20.051351 -53.622887 106.630478 0.355491 -0.934680 0.000000 1.5843200949324314e-38
21.199267 -52.974065 106.196311 0.378411 -0.925638 0.000000 1.5843200949324314e-38
23.001656 -52.299749 106.220871 0.401102 -0.916034 0.000000 1.5843200949324314e-38
24.562345 -51.172036 106.508632 0.423549 -0.905873 0.000000 1.5843200949324314e-38
25.463139 -51.201327 106.386232 0.445738 -0.895163 0.000000 1.5843200949324314e-38
17.643530 -54.796129 107.206657 0.309017 -0.951057 0.000000 1.5843200949324314e-38
19.346826 -53.636727 107.694897 0.332355 -0.943154 0.000000 1.5843200949324314e-38
20.572595 -53.777395 107.560770 0.355491 -0.934680 0.000000 1.5843200949324314e-38
21.514773 -53.094286 107.288761 0.378411 -0.925638 0.000000 1.5843200949324314e-38
23.301787 -52.503553 107.764058 0.401102 -0.916034 0.000000 1.5843200949324314e-38
24.288559 -51.420866 107.849118 0.423549 -0.905873 0.000000 1.5843200949324314e-38
25.363887 -51.502362 107.896569 0.445738 -0.895163 0.000000 1.5843200949324314e-38
