# .PCD v0.7 - Point Cloud Data file format
VERSION 0.7
FIELDS x y z normal_x normal_y normal_z rgb
SIZE 4 4 4 4 4 4 4
TYPE F F F F F F F
COUNT 1 1 1 1 1 1 1
WIDTH 174
HEIGHT 1
VIEWPOINT 0 0 0 1 0 0 0
POINTS 174
DATA ascii
23.993845 -14.235241 83.348751 0.840666 -0.506299 0.192202 1.5843200949324314e-38
24.559663 -13.981280 82.988800 0.852885 -0.485433 0.192202 1.5843200949324314e-38
23.592263 -14.770081 84.659917 0.836876 -0.532545 0.126626 1.5843200949324314e-38
23.904339 -13.946114 83.950219 0.849743 -0.511765 0.126626 1.5843200949324314e-38
24.099865 -14.252140 84.290063 0.862093 -0.490674 0.126626 1.5843200949324314e-38
24.721445 -12.661380 84.017233 0.873920 -0.469285 0.126626 1.5843200949324314e-38
24.126830 -12.636196 84.100360 0.885217 -0.447612 0.126626 1.5843200949324314e-38
22.874031 -14.358381 85.500794 0.842228 -0.535951 0.058377 1.5843200949324314e-38
23.552017 -14.345417 85.169560 0.855177 -0.515038 0.058377 1.5843200949324314e-38
23.689596 -13.265884 85.443165 0.867607 -0.493812 0.058377 1.5843200949324314e-38
23.939925 -12.635394 85.333707 0.879510 -0.472287 0.058377 1.5843200949324314e-38
24.292440 -11.830287 85.032326 0.890879 -0.450475 0.058377 1.5843200949324314e-38
24.619183 -11.813799 85.457493 0.901707 -0.428389 0.058377 1.5843200949324314e-38
24.924410 -11.860873 85.370569 0.911988 -0.406043 0.058377 1.5843200949324314e-38
22.992185 -15.658660 87.050026 0.829863 -0.557274 0.027806 1.5843200949324314e-38
22.908844 -14.788793 86.601427 0.843341 -0.536659 0.027806 1.5843200949324314e-38
23.644964 -14.051084 87.276563 0.856307 -0.515718 0.027806 1.5843200949324314e-38
23.716763 -13.507852 86.572873 0.868753 -0.494465 0.027806 1.5843200949324314e-38
24.520285 -12.874108 86.663867 0.880672 -0.472911 0.027806 1.5843200949324314e-38
24.090414 -12.543907 86.304965 0.892056 -0.451070 0.027806 1.5843200949324314e-38
24.702657 -12.047403 86.442483 0.902898 -0.428955 0.027806 1.5843200949324314e-38
24.996687 -11.302201 86.509664 0.913192 -0.406579 0.027806 1.5843200949324314e-38
25.109494 -10.550741 86.327373 0.922932 -0.383957 0.027806 1.5843200949324314e-38
25.460763 -9.948208 85.823463 0.932112 -0.361102 0.027806 1.5843200949324314e-38
22.562959 -15.217022 87.809572 0.814084 -0.546678 0.195984 1.5843200949324314e-38
22.964399 -14.618869 87.797607 0.827306 -0.526455 0.195984 1.5843200949324314e-38
23.244989 -14.442788 87.941839 0.840025 -0.505913 0.195984 1.5843200949324314e-38
23.412825 -12.993328 88.221197 0.852235 -0.485063 0.195984 1.5843200949324314e-38
23.623960 -12.753663 88.176547 0.863927 -0.463919 0.195984 1.5843200949324314e-38
24.236620 -12.238869 87.797498 0.875094 -0.442493 0.195984 1.5843200949324314e-38
24.913724 -11.872905 88.139240 0.885731 -0.420799 0.195984 1.5843200949324314e-38
24.947868 -11.221784 88.029593 0.895829 -0.398849 0.195984 1.5843200949324314e-38
25.527649 -11.208466 86.963833 0.905384 -0.376657 0.195984 1.5843200949324314e-38
25.611149 -10.080704 87.438746 0.914389 -0.354236 0.195984 1.5843200949324314e-38
25.632185 -8.377299 87.436029 0.922839 -0.331600 0.195984 1.5843200949324314e-38
26.230168 -8.841975 87.399396 0.930728 -0.308763 0.195984 1.5843200949324314e-38
22.026879 -15.349445 89.218831 0.767031 -0.542970 0.341830 1.5843200949324314e-38
22.700752 -14.887250 88.629525 0.780175 -0.523907 0.341830 1.5843200949324314e-38
22.940813 -14.349023 88.850263 0.792846 -0.504527 0.341830 1.5843200949324314e-38
23.221342 -14.483699 89.148756 0.805036 -0.484840 0.341830 1.5843200949324314e-38
23.676146 -13.070883 89.282391 0.816736 -0.464859 0.341830 1.5843200949324314e-38
23.526848 -13.216035 89.354524 0.827942 -0.444595 0.341830 1.5843200949324314e-38
24.221750 -12.038398 89.576546 0.838644 -0.424062 0.341830 1.5843200949324314e-38
23.911032 -11.047961 88.903515 0.848837 -0.403271 0.341830 1.5843200949324314e-38
24.918796 -10.988326 88.968465 0.858515 -0.382236 0.341830 1.5843200949324314e-38
24.481779 -10.574931 89.212271 0.867672 -0.360968 0.341830 1.5843200949324314e-38
25.288966 -9.470128 88.864679 0.876302 -0.339481 0.341830 1.5843200949324314e-38
25.639203 -9.112495 89.262007 0.884400 -0.317788 0.341830 1.5843200949324314e-38
25.786402 -8.644855 89.147825 0.891961 -0.295902 0.341830 1.5843200949324314e-38
25.972444 -7.633361 89.523709 0.898980 -0.273837 0.341830 1.5843200949324314e-38
25.829893 -7.580345 89.458162 0.905454 -0.251605 0.341830 1.5843200949324314e-38
21.364187 -15.599019 90.202073 0.726281 -0.514124 0.456281 1.5843200949324314e-38
22.162708 -14.709926 90.299474 0.738727 -0.496074 0.456281 1.5843200949324314e-38
21.777655 -14.215036 89.982906 0.750725 -0.477723 0.456281 1.5843200949324314e-38
22.153072 -13.388983 89.909987 0.762267 -0.459082 0.456281 1.5843200949324314e-38
23.026140 -13.235781 90.023219 0.773346 -0.440162 0.456281 1.5843200949324314e-38
23.679383 -12.699180 90.149519 0.783956 -0.420976 0.456281 1.5843200949324314e-38
23.394279 -11.888092 90.261424 0.794090 -0.401533 0.456281 1.5843200949324314e-38
23.691265 -11.632214 90.296877 0.803742 -0.381847 0.456281 1.5843200949324314e-38
23.979198 -10.245747 90.151664 0.812905 -0.361929 0.456281 1.5843200949324314e-38
24.532410 -10.191529 90.222550 0.821576 -0.341791 0.456281 1.5843200949324314e-38
24.944956 -9.385151 90.477567 0.829747 -0.321446 0.456281 1.5843200949324314e-38
25.068155 -9.432686 90.441482 0.837415 -0.300905 0.456281 1.5843200949324314e-38
25.041868 -8.485977 91.347376 0.844574 -0.280182 0.456281 1.5843200949324314e-38
24.871657 -7.737949 90.257895 0.851221 -0.259289 0.456281 1.5843200949324314e-38
25.471476 -7.388976 90.376785 0.857351 -0.238238 0.456281 1.5843200949324314e-38
20.602452 -14.984091 91.299925 0.687191 -0.486453 0.539567 1.5843200949324314e-38
20.656666 -14.007720 91.671400 0.698968 -0.469374 0.539567 1.5843200949324314e-38
21.320413 -13.561819 91.584459 0.710320 -0.452011 0.539567 1.5843200949324314e-38
22.402826 -13.062569 91.313795 0.721240 -0.434373 0.539567 1.5843200949324314e-38
22.576280 -12.522070 91.863054 0.731723 -0.416472 0.539567 1.5843200949324314e-38
22.981819 -11.556804 91.832172 0.741762 -0.398318 0.539567 1.5843200949324314e-38
22.740438 -11.564564 91.231676 0.751350 -0.379922 0.539567 1.5843200949324314e-38
23.617869 -11.305047 92.215737 0.760483 -0.361295 0.539567 1.5843200949324314e-38
23.432465 -10.485043 91.406986 0.769153 -0.342449 0.539567 1.5843200949324314e-38
23.555978 -10.048312 91.615894 0.777357 -0.323395 0.539567 1.5843200949324314e-38
24.012775 -9.428643 91.638339 0.785088 -0.304145 0.539567 1.5843200949324314e-38
24.066485 -8.707737 92.076135 0.792343 -0.284710 0.539567 1.5843200949324314e-38
24.264557 -8.197664 91.199943 0.799117 -0.265102 0.539567 1.5843200949324314e-38
24.527287 -7.389762 91.387811 0.805406 -0.245334 0.539567 1.5843200949324314e-38
19.827157 -15.221969 93.208647 0.643595 -0.479824 0.596283 1.5843200949324314e-38
20.158920 -14.331297 92.318814 0.655222 -0.463822 0.596283 1.5843200949324314e-38
20.291432 -13.949490 92.690105 0.666450 -0.447538 0.596283 1.5843200949324314e-38
21.069986 -12.757805 92.178324 0.677274 -0.430983 0.596283 1.5843200949324314e-38
21.612913 -12.690322 92.598070 0.687687 -0.414165 0.596283 1.5843200949324314e-38
21.499151 -11.974608 92.764818 0.697682 -0.397097 0.596283 1.5843200949324314e-38
21.829394 -12.088599 92.532682 0.707254 -0.379787 0.596283 1.5843200949324314e-38
21.844512 -10.964879 92.548249 0.716396 -0.362247 0.596283 1.5843200949324314e-38
22.121136 -10.627232 92.538637 0.725103 -0.344487 0.596283 1.5843200949324314e-38
23.199666 -10.110231 92.845023 0.733371 -0.326518 0.596283 1.5843200949324314e-38
23.040481 -9.388064 92.996627 0.741192 -0.308350 0.596283 1.5843200949324314e-38
23.215472 -9.295096 92.737409 0.748564 -0.289995 0.596283 1.5843200949324314e-38
23.438934 -8.905478 92.152079 0.755482 -0.271465 0.596283 1.5843200949324314e-38
23.257561 -8.421526 92.637566 0.761941 -0.252769 0.596283 1.5843200949324314e-38
19.385610 -14.272682 93.953965 0.621653 -0.463465 0.631464 1.5843200949324314e-38
19.763028 -13.704665 94.339759 0.632883 -0.448009 0.631464 1.5843200949324314e-38
20.332598 -13.236412 93.804696 0.643729 -0.432280 0.631464 1.5843200949324314e-38
20.398640 -13.057196 93.791942 0.654184 -0.416289 0.631464 1.5843200949324314e-38
20.403649 -11.993716 94.245675 0.664241 -0.400045 0.631464 1.5843200949324314e-38
21.055035 -11.795684 94.191440 0.673896 -0.383559 0.631464 1.5843200949324314e-38
21.254760 -11.523255 94.197104 0.683141 -0.366839 0.631464 1.5843200949324314e-38
21.345734 -10.915600 93.913522 0.691972 -0.349897 0.631464 1.5843200949324314e-38
21.440646 -10.349176 94.018185 0.700382 -0.332742 0.631464 1.5843200949324314e-38
22.052220 -9.276669 94.191168 0.708368 -0.315386 0.631464 1.5843200949324314e-38
22.120939 -9.788146 94.746297 0.715923 -0.297838 0.631464 1.5843200949324314e-38
22.093073 -8.843868 94.399872 0.723044 -0.280109 0.631464 1.5843200949324314e-38
22.181222 -7.977473 93.881749 0.729725 -0.262210 0.631464 1.5843200949324314e-38
17.425783 -13.822619 95.244835 0.598653 -0.469702 0.648841 1.5843200949324314e-38
18.668981 -13.729838 95.131107 0.610044 -0.454810 0.648841 1.5843200949324314e-38
18.480507 -13.017777 95.016471 0.621064 -0.439642 0.648841 1.5843200949324314e-38
19.114995 -12.747302 94.944946 0.631707 -0.424207 0.648841 1.5843200949324314e-38
19.173740 -12.283744 95.164585 0.641967 -0.408515 0.648841 1.5843200949324314e-38
20.173655 -11.736825 95.198903 0.651837 -0.392574 0.648841 1.5843200949324314e-38
19.781091 -11.389499 95.075390 0.661311 -0.376396 0.648841 1.5843200949324314e-38
19.915972 -10.647665 95.719731 0.670384 -0.359988 0.648841 1.5843200949324314e-38
20.288323 -10.198385 95.058450 0.679049 -0.343363 0.648841 1.5843200949324314e-38
20.702904 -10.213429 95.001683 0.687303 -0.326528 0.648841 1.5843200949324314e-38
20.640706 -9.352168 94.906774 0.695139 -0.309496 0.648841 1.5843200949324314e-38
20.458300 -9.201689 95.205367 0.702553 -0.292275 0.648841 1.5843200949324314e-38
21.102859 -8.441134 95.337075 0.709541 -0.274878 0.648841 1.5843200949324314e-38
17.382576 -12.806272 95.823918 0.597615 -0.468888 0.650385 1.5843200949324314e-38
17.712049 -13.341994 96.478635 0.608986 -0.454022 0.650385 1.5843200949324314e-38
17.421053 -12.354082 96.399318 0.619987 -0.438880 0.650385 1.5843200949324314e-38
18.467196 -12.476302 96.432870 0.630612 -0.423472 0.650385 1.5843200949324314e-38
17.719226 -10.938004 97.070742 0.640854 -0.407807 0.650385 1.5843200949324314e-38
19.350230 -10.800170 96.317574 0.650707 -0.391894 0.650385 1.5843200949324314e-38
18.954951 -10.708618 96.607182 0.660164 -0.375743 0.650385 1.5843200949324314e-38
18.899772 -10.669188 96.093722 0.669221 -0.359364 0.650385 1.5843200949324314e-38
19.349021 -9.944557 96.359043 0.677872 -0.342767 0.650385 1.5843200949324314e-38
19.789078 -9.780584 96.238533 0.686111 -0.325962 0.650385 1.5843200949324314e-38
19.710379 -8.631495 96.554092 0.693934 -0.308959 0.650385 1.5843200949324314e-38
20.252593 -8.663436 96.506994 0.701335 -0.291769 0.650385 1.5843200949324314e-38
20.119234 -8.106291 96.605718 0.708311 -0.274401 0.650385 1.5843200949324314e-38
16.387458 -12.638150 97.457638 0.606944 -0.476207 0.636275 1.5843200949324314e-38
16.732850 -12.346803 97.662503 0.618492 -0.461109 0.636275 1.5843200949324314e-38
16.160055 -11.955785 97.803907 0.629665 -0.445731 0.636275 1.5843200949324314e-38
16.969222 -11.414084 97.805358 0.640456 -0.430082 0.636275 1.5843200949324314e-38
17.655969 -11.270417 97.219333 0.650858 -0.414172 0.636275 1.5843200949324314e-38
17.296699 -10.515572 97.403795 0.660864 -0.398011 0.636275 1.5843200949324314e-38
17.822030 -10.028066 97.091031 0.670470 -0.381608 0.636275 1.5843200949324314e-38
17.827262 -9.595108 97.757246 0.679668 -0.364974 0.636275 1.5843200949324314e-38
17.947848 -9.509648 97.784755 0.688454 -0.348118 0.636275 1.5843200949324314e-38
18.440734 -9.351791 97.225374 0.696821 -0.331050 0.636275 1.5843200949324314e-38
19.239239 -8.139825 97.958368 0.704766 -0.313782 0.636275 1.5843200949324314e-38
19.557514 -7.598371 97.277149 0.712283 -0.296323 0.636275 1.5843200949324314e-38
14.928397 -11.505429 99.096837 0.638407 -0.475956 0.604899 1.5843200949324314e-38
15.530361 -11.236902 99.010016 0.649939 -0.460083 0.604899 1.5843200949324314e-38
16.057248 -10.410386 99.116124 0.661077 -0.443930 0.604899 1.5843200949324314e-38
16.573476 -10.848976 98.926754 0.671814 -0.427508 0.604899 1.5843200949324314e-38
16.927727 -10.026564 98.912222 0.682143 -0.410826 0.604899 1.5843200949324314e-38
17.097627 -9.731156 98.852935 0.692057 -0.393895 0.604899 1.5843200949324314e-38
17.422845 -8.937355 98.838662 0.701552 -0.376725 0.604899 1.5843200949324314e-38
17.630411 -9.163091 99.300627 0.710620 -0.359327 0.604899 1.5843200949324314e-38
17.376192 -8.745157 99.183210 0.719258 -0.341710 0.604899 1.5843200949324314e-38
18.041831 -7.787986 98.911130 0.727458 -0.323885 0.604899 1.5843200949324314e-38
15.125726 -10.819329 100.194148 0.680114 -0.481442 0.552864 1.5843200949324314e-38
15.704167 -11.283648 99.876958 0.691769 -0.464540 0.552864 1.5843200949324314e-38
15.908016 -10.745877 99.329249 0.703004 -0.447356 0.552864 1.5843200949324314e-38
15.833181 -9.657560 100.349353 0.713812 -0.429900 0.552864 1.5843200949324314e-38
16.072031 -9.416984 100.333294 0.724187 -0.412183 0.552864 1.5843200949324314e-38
17.062160 -8.562868 100.479571 0.734122 -0.394215 0.552864 1.5843200949324314e-38
16.718267 -8.550214 100.227567 0.743612 -0.376009 0.552864 1.5843200949324314e-38
17.020243 -8.529923 100.638513 0.752650 -0.357574 0.552864 1.5843200949324314e-38
15.230261 -10.013694 101.448367 0.730409 -0.490488 0.475315 1.5843200949324314e-38
15.144445 -9.793489 101.887826 0.742272 -0.472344 0.475315 1.5843200949324314e-38
16.329216 -9.245625 101.750850 0.753684 -0.453913 0.475315 1.5843200949324314e-38
15.571570 -8.581025 101.338539 0.764638 -0.435206 0.475315 1.5843200949324314e-38
15.626373 -8.249574 101.470192 0.775128 -0.416235 0.475315 1.5843200949324314e-38
16.631446 -7.950383 101.055204 0.785148 -0.397012 0.475315 1.5843200949324314e-38
14.905069 -9.789771 102.931156 0.784687 -0.499335 0.367330 1.5843200949324314e-38
14.957080 -9.207066 102.991841 0.796751 -0.479850 0.367330 1.5843200949324314e-38
14.910499 -9.225422 102.614677 0.808331 -0.460075 0.367330 1.5843200949324314e-38
15.585460 -8.060386 102.723866 0.819421 -0.440020 0.367330 1.5843200949324314e-38
14.657394 -8.905687 103.442645 0.834197 -0.502402 0.227393 1.5843200949324314e-38
