# .PCD v0.7 - Point Cloud Data file format
VERSION 0.7
FIELDS x y z normal_x normal_y normal_z rgb
SIZE 4 4 4 4 4 4 4
TYPE F F F F F F F
COUNT 1 1 1 1 1 1 1
WIDTH 399
HEIGHT 1
VIEWPOINT 0 0 0 1 0 0 0
POINTS 399
DATA ascii
-33.567273 5.447478 70.412032 -0.801965 0.129552 0.583154 1.5658809689597668e-38
-33.593732 4.902946 70.388992 -0.804913 0.109754 0.583154 1.5658809689597668e-38
-32.886744 4.573160 72.197538 -0.817428 0.111461 0.565144 1.5658809689597668e-38
-32.549874 3.769426 71.766305 -0.819926 0.091288 0.565144 1.5658809689597668e-38
-32.779979 2.979256 72.143536 -0.821926 0.071059 0.565144 1.5658809689597668e-38
-32.963784 2.111274 71.630028 -0.823428 0.050787 0.565144 1.5658809689597668e-38
-32.963577 1.143253 71.395706 -0.824429 0.030485 0.565144 1.5658809689597668e-38
-32.755659 0.853273 71.741349 -0.824930 0.010164 0.565144 1.5658809689597668e-38
-32.918026 -0.148304 71.709579 -0.824930 -0.010164 0.565144 1.5658809689597668e-38
-32.940719 -1.285239 71.587726 -0.824429 -0.030485 0.565144 1.5658809689597668e-38
-31.825860 4.291336 73.194808 -0.831909 0.113435 0.543195 1.5658809689597668e-38
-32.821201 3.454906 72.818493 -0.834451 0.092905 0.543195 1.5658809689597668e-38
-32.040246 2.582810 73.154361 -0.836486 0.072318 0.543195 1.5658809689597668e-38
-31.917044 1.566796 73.056740 -0.838014 0.051687 0.543195 1.5658809689597668e-38
-32.557990 1.333578 72.849729 -0.839033 0.031025 0.543195 1.5658809689597668e-38
-32.434530 -0.116494 72.962036 -0.839543 0.010344 0.543195 1.5658809689597668e-38
-32.540665 -0.841705 73.045480 -0.839543 -0.010344 0.543195 1.5658809689597668e-38
-31.882948 -1.071338 72.560395 -0.839033 -0.031025 0.543195 1.5658809689597668e-38
-32.175679 -1.777828 72.948774 -0.838014 -0.051687 0.543195 1.5658809689597668e-38
-31.978399 -2.904289 72.874282 -0.836486 -0.072318 0.543195 1.5658809689597668e-38
-32.195883 -3.378937 73.192216 -0.834451 -0.092905 0.543195 1.5658809689597668e-38
-32.067066 -4.123350 72.561598 -0.831909 -0.113435 0.543195 1.5658809689597668e-38
-31.835000 -5.540538 72.650133 -0.828861 -0.133897 0.543195 1.5658809689597668e-38
-32.057214 -6.112665 73.175616 -0.825311 -0.154277 0.543195 1.5658809689597668e-38
-31.515664 -6.869036 72.937639 -0.821259 -0.174564 0.543195 1.5658809689597668e-38
-31.480269 4.237026 74.326923 -0.848152 0.115650 0.516976 1.5658809689597668e-38
-31.391252 3.249826 74.079113 -0.850743 0.094719 0.516976 1.5658809689597668e-38
-31.060238 2.766910 73.744730 -0.852819 0.073730 0.516976 1.5658809689597668e-38
-31.144822 2.097310 74.282933 -0.854376 0.052696 0.516976 1.5658809689597668e-38
-30.906313 1.168220 74.356027 -0.855415 0.031630 0.516976 1.5658809689597668e-38
-31.278248 0.650326 74.159945 -0.855935 0.010546 0.516976 1.5658809689597668e-38
-31.612525 -0.095180 74.503206 -0.855935 -0.010546 0.516976 1.5658809689597668e-38
-31.017548 -1.036399 73.732177 -0.855415 -0.031630 0.516976 1.5658809689597668e-38
-31.312636 -1.924226 74.595639 -0.854376 -0.052696 0.516976 1.5658809689597668e-38
-30.987154 -2.522580 73.604906 -0.852819 -0.073730 0.516976 1.5658809689597668e-38
-31.475947 -3.586153 74.124394 -0.850743 -0.094719 0.516976 1.5658809689597668e-38
-31.083299 -3.801142 74.460581 -0.848152 -0.115650 0.516976 1.5658809689597668e-38
-31.295020 -5.259563 73.951106 -0.845045 -0.136511 0.516976 1.5658809689597668e-38
-30.921499 -5.532013 74.516010 -0.841425 -0.157290 0.516976 1.5658809689597668e-38
-30.847687 -6.541931 74.729058 -0.837294 -0.177972 0.516976 1.5658809689597668e-38
-31.009996 -7.096744 74.385789 -0.832655 -0.198547 0.516976 1.5658809689597668e-38
-30.464694 -8.044487 74.352870 -0.827511 -0.219001 0.516976 1.5658809689597668e-38
-30.256787 -8.976174 74.012929 -0.821864 -0.239323 0.516976 1.5658809689597668e-38
-29.384176 -9.657587 74.287210 -0.815718 -0.259499 0.516976 1.5658809689597668e-38
-29.463477 -10.323771 74.237541 -0.809077 -0.279517 0.516976 1.5658809689597668e-38
-29.286426 -11.243296 73.765868 -0.801945 -0.299366 0.516976 1.5658809689597668e-38
-30.864508 4.076944 76.079181 -0.865869 0.118066 0.486139 1.5658809689597668e-38
-29.966082 3.666570 75.818743 -0.868515 0.096697 0.486139 1.5658809689597668e-38
-30.441204 2.515113 75.956991 -0.870634 0.075270 0.486139 1.5658809689597668e-38
-30.929736 2.180663 75.311161 -0.872224 0.053797 0.486139 1.5658809689597668e-38
-30.817046 1.296132 76.074110 -0.873284 0.032291 0.486139 1.5658809689597668e-38
-30.272394 0.479883 75.482779 -0.873815 0.010766 0.486139 1.5658809689597668e-38
-30.466549 0.031295 74.935750 -0.873815 -0.010766 0.486139 1.5658809689597668e-38
-30.720457 -1.450264 75.398314 -0.873284 -0.032291 0.486139 1.5658809689597668e-38
-31.022460 -2.431945 75.068142 -0.872224 -0.053797 0.486139 1.5658809689597668e-38
-30.755271 -2.468604 75.219748 -0.870634 -0.075270 0.486139 1.5658809689597668e-38
-30.774489 -3.278690 75.549954 -0.868515 -0.096697 0.486139 1.5658809689597668e-38
-29.911156 -3.867774 75.156148 -0.865869 -0.118066 0.486139 1.5658809689597668e-38
-30.511546 -4.672493 75.197952 -0.862697 -0.139363 0.486139 1.5658809689597668e-38
-30.277842 -6.154856 75.071931 -0.859002 -0.160575 0.486139 1.5658809689597668e-38
-29.654567 -6.333422 75.275215 -0.854785 -0.181690 0.486139 1.5658809689597668e-38
-30.012540 -6.606973 75.266873 -0.850049 -0.202695 0.486139 1.5658809689597668e-38
-29.539457 -7.593785 75.897409 -0.844797 -0.223576 0.486139 1.5658809689597668e-38
-29.734243 -9.003947 75.132815 -0.839032 -0.244322 0.486139 1.5658809689597668e-38
-29.039176 -8.710223 75.693655 -0.832758 -0.264919 0.486139 1.5658809689597668e-38
-29.218133 -9.669476 75.323189 -0.825978 -0.285356 0.486139 1.5658809689597668e-38
-29.013976 -10.837195 75.289581 -0.818697 -0.305619 0.486139 1.5658809689597668e-38
-28.701750 -11.076662 75.309185 -0.810919 -0.325697 0.486139 1.5658809689597668e-38
-28.676789 -11.965905 75.177528 -0.802649 -0.345577 0.486139 1.5658809689597668e-38
-28.169621 -12.622399 75.246289 -0.793891 -0.365248 0.486139 1.5658809689597668e-38
-27.704123 -13.503433 75.378015 -0.784651 -0.384696 0.486139 1.5658809689597668e-38
-27.355664 -14.894077 75.412059 -0.774935 -0.403911 0.486139 1.5658809689597668e-38
-29.660483 3.827741 76.718955 -0.884666 0.120629 0.450350 1.5658809689597668e-38
-29.711563 3.237181 76.947080 -0.887369 0.098796 0.450350 1.5658809689597668e-38
-29.984217 2.670107 77.268323 -0.889534 0.076904 0.450350 1.5658809689597668e-38
-29.840568 1.624893 76.556888 -0.891159 0.054965 0.450350 1.5658809689597668e-38
-29.764354 1.423086 76.690094 -0.892242 0.032992 0.450350 1.5658809689597668e-38
-30.502648 0.085090 76.755254 -0.892784 0.011000 0.450350 1.5658809689597668e-38
-29.870410 -0.068735 76.091374 -0.892784 -0.011000 0.450350 1.5658809689597668e-38
-29.764842 -0.682172 75.982963 -0.892242 -0.032992 0.450350 1.5658809689597668e-38
-29.991408 -1.622375 76.277604 -0.891159 -0.054965 0.450350 1.5658809689597668e-38
-30.084962 -2.419957 76.544213 -0.889534 -0.076904 0.450350 1.5658809689597668e-38
-29.971379 -3.258517 76.350091 -0.887369 -0.098796 0.450350 1.5658809689597668e-38
-30.091380 -3.918962 76.985713 -0.884666 -0.120629 0.450350 1.5658809689597668e-38
-29.542704 -4.383367 76.826934 -0.881425 -0.142388 0.450350 1.5658809689597668e-38
-28.981090 -5.501349 76.776839 -0.877650 -0.164061 0.450350 1.5658809689597668e-38
-29.269248 -6.435492 76.468210 -0.873341 -0.185634 0.450350 1.5658809689597668e-38
-29.497401 -7.136004 77.322257 -0.868502 -0.207095 0.450350 1.5658809689597668e-38
-28.500354 -7.785636 76.574871 -0.863136 -0.228430 0.450350 1.5658809689597668e-38
-29.492643 -8.698841 76.458230 -0.857247 -0.249626 0.450350 1.5658809689597668e-38
-28.764766 -9.279673 76.765459 -0.850836 -0.270670 0.450350 1.5658809689597668e-38
-28.167268 -10.029783 77.132109 -0.843909 -0.291551 0.450350 1.5658809689597668e-38
-28.045703 -10.241680 76.569167 -0.836470 -0.312254 0.450350 1.5658809689597668e-38
-27.718026 -11.062450 77.141307 -0.828523 -0.332768 0.450350 1.5658809689597668e-38
-27.401790 -11.625932 76.542328 -0.820073 -0.353079 0.450350 1.5658809689597668e-38
-26.937701 -12.941219 76.529119 -0.811125 -0.373177 0.450350 1.5658809689597668e-38
-26.894395 -13.572888 76.424077 -0.801685 -0.393048 0.450350 1.5658809689597668e-38
-26.921519 -13.774150 76.653345 -0.791758 -0.412680 0.450350 1.5658809689597668e-38
-28.628978 3.345073 77.560530 -0.906786 0.100958 0.409324 1.5658809689597668e-38
-29.020345 2.215245 78.143284 -0.908998 0.078587 0.409324 1.5658809689597668e-38
-29.092065 2.421399 78.005297 -0.910659 0.056168 0.409324 1.5658809689597668e-38
-29.422157 0.480406 77.801143 -0.911766 0.033714 0.409324 1.5658809689597668e-38
-29.668971 0.308673 77.782118 -0.912320 0.011240 0.409324 1.5658809689597668e-38
-29.218830 -0.530768 78.080804 -0.912320 -0.011240 0.409324 1.5658809689597668e-38
-29.471469 -1.275300 77.724067 -0.911766 -0.033714 0.409324 1.5658809689597668e-38
-29.331161 -1.402176 77.718893 -0.910659 -0.056168 0.409324 1.5658809689597668e-38
-29.333194 -2.392060 77.932200 -0.908998 -0.078587 0.409324 1.5658809689597668e-38
-29.804097 -3.115780 77.486223 -0.906786 -0.100958 0.409324 1.5658809689597668e-38
-29.634619 -4.371196 77.889606 -0.904024 -0.123269 0.409324 1.5658809689597668e-38
-29.369016 -5.128299 78.052139 -0.900712 -0.145504 0.409324 1.5658809689597668e-38
-28.963454 -5.185399 77.719292 -0.896854 -0.167651 0.409324 1.5658809689597668e-38
-28.832295 -5.884342 77.544136 -0.892451 -0.189696 0.409324 1.5658809689597668e-38
-28.852063 -6.534628 77.944013 -0.887507 -0.211627 0.409324 1.5658809689597668e-38
-28.521723 -7.547919 78.305051 -0.882023 -0.233428 0.409324 1.5658809689597668e-38
-28.289455 -8.221975 77.933121 -0.876005 -0.255088 0.409324 1.5658809689597668e-38
-28.555523 -8.779162 77.691799 -0.869454 -0.276593 0.409324 1.5658809689597668e-38
-28.220874 -10.142764 77.476514 -0.862375 -0.297930 0.409324 1.5658809689597668e-38
-28.277578 -10.609390 77.807750 -0.854773 -0.319087 0.409324 1.5658809689597668e-38
-27.016211 -10.960439 78.014193 -0.846653 -0.340049 0.409324 1.5658809689597668e-38
-26.671989 -12.504145 78.055644 -0.838018 -0.360805 0.409324 1.5658809689597668e-38
-26.666125 -12.064733 77.399256 -0.828874 -0.381342 0.409324 1.5658809689597668e-38
-26.621345 -13.246699 77.551777 -0.819227 -0.401648 0.409324 1.5658809689597668e-38
-28.471388 2.887277 79.071379 -0.926113 0.103110 0.362882 1.5658809689597668e-38
-29.102369 2.656901 79.113182 -0.928372 0.080262 0.362882 1.5658809689597668e-38
-28.663988 1.827320 78.591467 -0.930068 0.057365 0.362882 1.5658809689597668e-38
-28.997670 0.608682 79.279209 -0.931199 0.034433 0.362882 1.5658809689597668e-38
-28.769461 0.554181 79.138400 -0.931765 0.011480 0.362882 1.5658809689597668e-38
-29.425646 -0.293634 79.297401 -0.931765 -0.011480 0.362882 1.5658809689597668e-38
-28.973212 -1.043664 78.608880 -0.931199 -0.034433 0.362882 1.5658809689597668e-38
-28.863456 -1.813978 78.811439 -0.930068 -0.057365 0.362882 1.5658809689597668e-38
-28.672186 -2.640813 79.243993 -0.928372 -0.080262 0.362882 1.5658809689597668e-38
-28.614094 -3.103450 78.773023 -0.926113 -0.103110 0.362882 1.5658809689597668e-38
-28.788116 -3.270866 79.593918 -0.923291 -0.125896 0.362882 1.5658809689597668e-38
-28.317500 -4.532647 78.878841 -0.919909 -0.148605 0.362882 1.5658809689597668e-38
-28.494169 -5.444114 79.149850 -0.915969 -0.171224 0.362882 1.5658809689597668e-38
-28.739787 -5.730243 78.369314 -0.911472 -0.193739 0.362882 1.5658809689597668e-38
-27.891884 -6.449281 79.873309 -0.906422 -0.216137 0.362882 1.5658809689597668e-38
-28.050039 -7.559629 79.211362 -0.900822 -0.238403 0.362882 1.5658809689597668e-38
-27.616258 -8.117689 78.820343 -0.894675 -0.260525 0.362882 1.5658809689597668e-38
-27.408877 -8.772893 78.872802 -0.887985 -0.282488 0.362882 1.5658809689597668e-38
-27.839381 -8.708771 79.424871 -0.880756 -0.304280 0.362882 1.5658809689597668e-38
-26.943002 -10.154953 79.382254 -0.872992 -0.325887 0.362882 1.5658809689597668e-38
-27.168930 -10.725510 79.248156 -0.864698 -0.347297 0.362882 1.5658809689597668e-38
-26.887632 -11.474984 79.051429 -0.855879 -0.368495 0.362882 1.5658809689597668e-38
-26.518546 -12.256680 78.663202 -0.846540 -0.389470 0.362882 1.5658809689597668e-38
-25.664548 -12.270360 78.897360 -0.836687 -0.410209 0.362882 1.5658809689597668e-38
-28.077059 3.182169 80.143242 -0.944569 0.105165 0.311014 1.5658809689597668e-38
-28.796620 2.171781 80.416034 -0.946873 0.081861 0.311014 1.5658809689597668e-38
-28.430597 1.558747 80.675711 -0.948603 0.058508 0.311014 1.5658809689597668e-38
-28.359820 0.257536 80.445123 -0.949756 0.035119 0.311014 1.5658809689597668e-38
-28.265822 0.411774 80.586823 -0.950333 0.011709 0.311014 1.5658809689597668e-38
-28.571507 -0.370621 80.399066 -0.950333 -0.011709 0.311014 1.5658809689597668e-38
-28.419943 -1.226651 80.740117 -0.949756 -0.035119 0.311014 1.5658809689597668e-38
-28.013748 -1.913461 80.061760 -0.948603 -0.058508 0.311014 1.5658809689597668e-38
-28.792307 -2.332836 80.588722 -0.946873 -0.081861 0.311014 1.5658809689597668e-38
-28.196894 -3.004460 80.241859 -0.944569 -0.105165 0.311014 1.5658809689597668e-38
-28.830412 -3.998960 80.908531 -0.941691 -0.128405 0.311014 1.5658809689597668e-38
-28.050509 -4.416842 80.683794 -0.938242 -0.151567 0.311014 1.5658809689597668e-38
-28.261478 -5.168831 80.566032 -0.934223 -0.174637 0.311014 1.5658809689597668e-38
-28.151707 -5.815208 80.800981 -0.929637 -0.197600 0.311014 1.5658809689597668e-38
-27.837740 -7.125971 80.464149 -0.924486 -0.220444 0.311014 1.5658809689597668e-38
-27.743245 -7.235819 80.159726 -0.918774 -0.243154 0.311014 1.5658809689597668e-38
-27.340017 -7.598434 80.404031 -0.912505 -0.265717 0.311014 1.5658809689597668e-38
-27.648472 -8.525504 80.418343 -0.905681 -0.288118 0.311014 1.5658809689597668e-38
-26.868693 -9.012640 80.254851 -0.898308 -0.310344 0.311014 1.5658809689597668e-38
-26.781656 -10.274154 80.470379 -0.890389 -0.332382 0.311014 1.5658809689597668e-38
-26.391479 -10.697922 80.636496 -0.881930 -0.354218 0.311014 1.5658809689597668e-38
-26.482952 -11.230149 80.592704 -0.872935 -0.375839 0.311014 1.5658809689597668e-38
-26.048996 -12.321684 79.903763 -0.863410 -0.397232 0.311014 1.5658809689597668e-38
-25.538504 -12.035575 80.229455 -0.853361 -0.418383 0.311014 1.5658809689597668e-38
-28.068208 2.543784 81.574673 -0.961279 0.107025 0.253947 1.5658809689597668e-38
-27.531291 2.593537 81.672626 -0.963624 0.083309 0.253947 1.5658809689597668e-38
-27.849345 1.688363 81.658327 -0.965384 0.059543 0.253947 1.5658809689597668e-38
-28.239727 1.182682 81.488644 -0.966558 0.035740 0.253947 1.5658809689597668e-38
-28.222021 0.610238 81.591192 -0.967145 0.011916 0.253947 1.5658809689597668e-38
-27.957860 -0.152164 81.626473 -0.967145 -0.011916 0.253947 1.5658809689597668e-38
-28.215215 -1.435357 81.320568 -0.966558 -0.035740 0.253947 1.5658809689597668e-38
-27.893487 -1.554497 81.352528 -0.965384 -0.059543 0.253947 1.5658809689597668e-38
-27.906109 -2.357979 81.930138 -0.963624 -0.083309 0.253947 1.5658809689597668e-38
-27.307184 -2.940165 81.442246 -0.961279 -0.107025 0.253947 1.5658809689597668e-38
-27.648642 -4.113034 82.315902 -0.958350 -0.130676 0.253947 1.5658809689597668e-38
-28.137482 -4.354430 81.650045 -0.954840 -0.154248 0.253947 1.5658809689597668e-38
-27.774716 -5.311776 82.058023 -0.950750 -0.177726 0.253947 1.5658809689597668e-38
-27.344937 -5.894173 82.169144 -0.946082 -0.201096 0.253947 1.5658809689597668e-38
-27.398034 -6.304125 81.247364 -0.940841 -0.224344 0.253947 1.5658809689597668e-38
-27.579468 -6.983822 81.741903 -0.935028 -0.247456 0.253947 1.5658809689597668e-38
-26.363790 -8.076135 81.852200 -0.928647 -0.270417 0.253947 1.5658809689597668e-38
-26.879571 -8.273086 81.880126 -0.921703 -0.293215 0.253947 1.5658809689597668e-38
-26.595874 -9.407555 81.547720 -0.914199 -0.315834 0.253947 1.5658809689597668e-38
-26.687075 -9.728221 80.806818 -0.906140 -0.338262 0.253947 1.5658809689597668e-38
-26.277202 -10.212716 81.913539 -0.897531 -0.360484 0.253947 1.5658809689597668e-38
-26.320274 -10.949003 81.307130 -0.888377 -0.382488 0.253947 1.5658809689597668e-38
-25.668233 -11.527257 81.356942 -0.878684 -0.404259 0.253947 1.5658809689597668e-38
-24.829238 -12.306007 81.788297 -0.868458 -0.425785 0.253947 1.5658809689597668e-38
-27.816418 2.741252 83.256205 -0.975329 0.108590 0.192202 1.5658809689597668e-38
-27.463440 2.500975 82.909702 -0.977708 0.084527 0.192202 1.5658809689597668e-38
-27.641569 1.240839 82.944103 -0.979494 0.060413 0.192202 1.5658809689597668e-38
-27.455544 1.340965 82.571421 -0.980685 0.036263 0.192202 1.5658809689597668e-38
-27.788058 0.006213 82.933714 -0.981281 0.012090 0.192202 1.5658809689597668e-38
-28.069384 -0.604054 82.994032 -0.981281 -0.012090 0.192202 1.5658809689597668e-38
-28.044548 -1.267351 82.992089 -0.980685 -0.036263 0.192202 1.5658809689597668e-38
-28.237474 -1.810819 82.425486 -0.979494 -0.060413 0.192202 1.5658809689597668e-38
-28.148861 -2.047232 82.761692 -0.977708 -0.084527 0.192202 1.5658809689597668e-38
-27.890014 -2.825934 83.371396 -0.975329 -0.108590 0.192202 1.5658809689597668e-38
-27.515039 -3.455903 82.721111 -0.972358 -0.132586 0.192202 1.5658809689597668e-38
-27.473149 -4.438539 82.983752 -0.968796 -0.156502 0.192202 1.5658809689597668e-38
-27.082320 -5.557518 82.619561 -0.964646 -0.180324 0.192202 1.5658809689597668e-38
-27.382924 -6.080523 82.955539 -0.959910 -0.204035 0.192202 1.5658809689597668e-38
-27.021229 -6.441194 82.765790 -0.954592 -0.227623 0.192202 1.5658809689597668e-38
-26.514755 -7.059171 82.841534 -0.948694 -0.251073 0.192202 1.5658809689597668e-38
-26.715430 -7.561912 82.950779 -0.942221 -0.274370 0.192202 1.5658809689597668e-38
-26.794728 -7.912688 83.025189 -0.935175 -0.297501 0.192202 1.5658809689597668e-38
-26.665041 -9.637507 83.093242 -0.927561 -0.320451 0.192202 1.5658809689597668e-38
-25.699655 -9.602829 83.070403 -0.919385 -0.343206 0.192202 1.5658809689597668e-38
-25.648216 -10.376773 82.382154 -0.910650 -0.365753 0.192202 1.5658809689597668e-38
-25.785705 -10.773300 83.062413 -0.901362 -0.388078 0.192202 1.5658809689597668e-38
-25.355667 -11.802901 82.938756 -0.891527 -0.410168 0.192202 1.5658809689597668e-38
-25.105496 -12.282035 82.926268 -0.881151 -0.432008 0.192202 1.5658809689597668e-38
-27.361645 2.423953 84.094308 -0.988264 0.085440 0.126626 1.5658809689597668e-38
-27.656480 1.963060 83.735611 -0.990069 0.061065 0.126626 1.5658809689597668e-38
-27.697740 1.451954 83.678901 -0.991273 0.036654 0.126626 1.5658809689597668e-38
-27.675453 0.009596 84.214009 -0.991875 0.012220 0.126626 1.5658809689597668e-38
-27.633595 -0.623781 84.130985 -0.991875 -0.012220 0.126626 1.5658809689597668e-38
-27.606998 -1.204327 83.998740 -0.991273 -0.036654 0.126626 1.5658809689597668e-38
-27.787578 -2.386033 84.401786 -0.990069 -0.061065 0.126626 1.5658809689597668e-38
-27.184412 -2.906262 84.486124 -0.988264 -0.085440 0.126626 1.5658809689597668e-38
-27.355391 -3.389708 84.060945 -0.985859 -0.109762 0.126626 1.5658809689597668e-38
-27.603803 -3.458069 83.848436 -0.982856 -0.134018 0.126626 1.5658809689597668e-38
-26.654914 -4.061240 83.756227 -0.979255 -0.158192 0.126626 1.5658809689597668e-38
-26.683356 -4.860914 84.078524 -0.975061 -0.182270 0.126626 1.5658809689597668e-38
-26.838759 -5.470448 83.896215 -0.970274 -0.206238 0.126626 1.5658809689597668e-38
-26.641171 -6.542150 84.367990 -0.964898 -0.230081 0.126626 1.5658809689597668e-38
-26.766438 -7.375130 84.312777 -0.958937 -0.253783 0.126626 1.5658809689597668e-38
-26.656754 -7.682867 84.246369 -0.952393 -0.277332 0.126626 1.5658809689597668e-38
-25.903877 -8.511574 83.869277 -0.945271 -0.300712 0.126626 1.5658809689597668e-38
-25.636437 -9.026405 83.960168 -0.937576 -0.323910 0.126626 1.5658809689597668e-38
-25.791143 -9.771487 84.043384 -0.929311 -0.346911 0.126626 1.5658809689597668e-38
-24.881666 -10.599975 83.692291 -0.920482 -0.369702 0.126626 1.5658809689597668e-38
-25.024467 -11.046248 84.219441 -0.911094 -0.392268 0.126626 1.5658809689597668e-38
-24.923600 -12.079712 84.465889 -0.901153 -0.414596 0.126626 1.5658809689597668e-38
-28.030793 2.346918 85.014491 -0.994585 0.085986 0.058377 1.5658809689597668e-38
-27.878184 2.473533 85.523450 -0.996401 0.061456 0.058377 1.5658809689597668e-38
-27.341610 1.001314 85.002581 -0.997613 0.036888 0.058377 1.5658809689597668e-38
-27.577958 0.232600 84.783543 -0.998219 0.012299 0.058377 1.5658809689597668e-38
-26.990920 -0.365991 85.110986 -0.998219 -0.012299 0.058377 1.5658809689597668e-38
-27.474649 -1.430877 85.079467 -0.997613 -0.036888 0.058377 1.5658809689597668e-38
-27.017242 -1.850714 85.355378 -0.996401 -0.061456 0.058377 1.5658809689597668e-38
-27.397034 -2.423500 85.199223 -0.994585 -0.085986 0.058377 1.5658809689597668e-38
-26.680608 -3.268618 85.092656 -0.992164 -0.110464 0.058377 1.5658809689597668e-38
-27.130787 -4.104972 85.667193 -0.989141 -0.134875 0.058377 1.5658809689597668e-38
-27.238384 -4.351724 85.449483 -0.985518 -0.159204 0.058377 1.5658809689597668e-38
-27.163505 -4.783990 85.555750 -0.981297 -0.183436 0.058377 1.5658809689597668e-38
-26.773859 -6.178183 85.256229 -0.976479 -0.207557 0.058377 1.5658809689597668e-38
-26.812985 -5.864306 84.936621 -0.971069 -0.231552 0.058377 1.5658809689597668e-38
-26.805597 -6.718978 85.079193 -0.965070 -0.255406 0.058377 1.5658809689597668e-38
-26.629834 -7.194827 85.470558 -0.958484 -0.279106 0.058377 1.5658809689597668e-38
-25.977484 -8.129152 85.395950 -0.951317 -0.302636 0.058377 1.5658809689597668e-38
-25.993849 -8.723744 85.106731 -0.943572 -0.325982 0.058377 1.5658809689597668e-38
-25.271698 -9.788329 85.667752 -0.935254 -0.349130 0.058377 1.5658809689597668e-38
-25.395091 -10.424842 85.505897 -0.926369 -0.372066 0.058377 1.5658809689597668e-38
-25.248069 -11.416602 85.334802 -0.916921 -0.394777 0.058377 1.5658809689597668e-38
-25.385027 -11.354368 85.318367 -0.906916 -0.417248 0.058377 1.5658809689597668e-38
-27.504718 2.282242 85.873386 -0.995898 0.086100 0.027806 1.5658809689597668e-38
-27.566772 1.927395 87.015912 -0.997717 0.061537 0.027806 1.5658809689597668e-38
-27.125539 1.043089 86.241274 -0.998931 0.036937 0.027806 1.5658809689597668e-38
-27.659466 0.110208 86.175225 -0.999537 0.012315 0.027806 1.5658809689597668e-38
-27.777783 -0.557420 86.179509 -0.999537 -0.012315 0.027806 1.5658809689597668e-38
-27.198634 -0.833341 86.583180 -0.998931 -0.036937 0.027806 1.5658809689597668e-38
-27.330585 -1.600984 86.377891 -0.997717 -0.061537 0.027806 1.5658809689597668e-38
-26.855382 -2.599009 86.097538 -0.995898 -0.086100 0.027806 1.5658809689597668e-38
-27.279998 -2.873366 86.507372 -0.993475 -0.110610 0.027806 1.5658809689597668e-38
-26.871725 -3.660834 86.351749 -0.990448 -0.135053 0.027806 1.5658809689597668e-38
-27.323459 -4.340556 86.622090 -0.986820 -0.159414 0.027806 1.5658809689597668e-38
-26.665024 -4.802168 86.127640 -0.982593 -0.183678 0.027806 1.5658809689597668e-38
-26.946983 -6.089867 87.035516 -0.977769 -0.207831 0.027806 1.5658809689597668e-38
-27.039396 -6.317295 86.388587 -0.972352 -0.231858 0.027806 1.5658809689597668e-38
-27.175662 -7.411568 86.523116 -0.966345 -0.255744 0.027806 1.5658809689597668e-38
-26.230131 -7.528454 86.198718 -0.959750 -0.279474 0.027806 1.5658809689597668e-38
-26.109291 -8.050927 86.751749 -0.952574 -0.303035 0.027806 1.5658809689597668e-38
-26.098467 -8.964491 86.643668 -0.944818 -0.326412 0.027806 1.5658809689597668e-38
-25.341736 -9.106116 86.791405 -0.936490 -0.349591 0.027806 1.5658809689597668e-38
-25.500074 -10.257600 86.619725 -0.927592 -0.372558 0.027806 1.5658809689597668e-38
-27.385127 1.871727 87.715265 -0.976963 0.084463 0.195984 1.5658809689597668e-38
-27.569520 1.660686 87.960993 -0.978747 0.060367 0.195984 1.5658809689597668e-38
-27.498220 1.164161 87.743221 -0.979937 0.036235 0.195984 1.5658809689597668e-38
-27.433213 0.244273 87.776873 -0.980533 0.012081 0.195984 1.5658809689597668e-38
-27.766807 -0.885732 88.170435 -0.980533 -0.012081 0.195984 1.5658809689597668e-38
-27.273782 -1.173631 88.154029 -0.979937 -0.036235 0.195984 1.5658809689597668e-38
-26.444727 -2.134073 87.823366 -0.978747 -0.060367 0.195984 1.5658809689597668e-38
-27.054127 -2.845298 87.377072 -0.976963 -0.084463 0.195984 1.5658809689597668e-38
-26.902106 -3.043272 87.626946 -0.974585 -0.108507 0.195984 1.5658809689597668e-38
-27.597321 -3.598043 87.414599 -0.971616 -0.132485 0.195984 1.5658809689597668e-38
-27.311511 -4.649329 87.733392 -0.968057 -0.156383 0.195984 1.5658809689597668e-38
-27.220477 -5.311607 88.118547 -0.963910 -0.180186 0.195984 1.5658809689597668e-38
-26.707775 -5.683005 87.965911 -0.959178 -0.203880 0.195984 1.5658809689597668e-38
-26.927591 -6.236103 87.963096 -0.953864 -0.227450 0.195984 1.5658809689597668e-38
-26.752585 -6.819809 87.905758 -0.947971 -0.250881 0.195984 1.5658809689597668e-38
-26.186326 -7.148372 87.871759 -0.941502 -0.274161 0.195984 1.5658809689597668e-38
-26.345641 -8.253933 87.839033 -0.934462 -0.297274 0.195984 1.5658809689597668e-38
-26.189006 -9.539963 87.815507 -0.926854 -0.320206 0.195984 1.5658809689597668e-38
-25.345522 -9.281335 87.919806 -0.918684 -0.342944 0.195984 1.5658809689597668e-38
-26.340269 1.827973 88.829576 -0.936269 0.080944 0.341830 1.5658809689597668e-38
-26.879642 1.663972 88.937298 -0.937979 0.057853 0.341830 1.5658809689597668e-38
-27.244532 0.698599 89.680011 -0.939120 0.034726 0.341830 1.5658809689597668e-38
-27.432165 -0.134547 88.715708 -0.939690 0.011578 0.341830 1.5658809689597668e-38
-26.946406 -0.414616 89.196254 -0.939690 -0.011578 0.341830 1.5658809689597668e-38
-27.199677 -0.971494 89.097593 -0.939120 -0.034726 0.341830 1.5658809689597668e-38
-26.482463 -1.128819 89.026881 -0.937979 -0.057853 0.341830 1.5658809689597668e-38
-26.649273 -2.277406 89.303392 -0.936269 -0.080944 0.341830 1.5658809689597668e-38
-26.724819 -2.767521 89.328087 -0.933991 -0.103987 0.341830 1.5658809689597668e-38
-26.631133 -3.607635 89.385011 -0.931145 -0.126967 0.341830 1.5658809689597668e-38
-26.700884 -4.479651 88.605905 -0.927734 -0.149869 0.341830 1.5658809689597668e-38
-26.418697 -4.754670 88.554992 -0.923760 -0.172681 0.341830 1.5658809689597668e-38
-26.600103 -5.389585 89.029062 -0.919226 -0.195387 0.341830 1.5658809689597668e-38
-26.253040 -5.990213 89.039727 -0.914133 -0.217976 0.341830 1.5658809689597668e-38
-25.992020 -7.233593 89.177630 -0.908485 -0.240431 0.341830 1.5658809689597668e-38
-26.330810 -7.939467 88.921135 -0.902286 -0.262741 0.341830 1.5658809689597668e-38
-25.570615 -8.171233 88.835385 -0.895538 -0.284891 0.341830 1.5658809689597668e-38
-25.262501 -8.722918 89.385682 -0.888248 -0.306869 0.341830 1.5658809689597668e-38
-26.873219 0.847736 90.685378 -0.888148 0.054779 0.456281 1.5658809689597668e-38
-26.614577 0.466802 90.261048 -0.889228 0.032881 0.456281 1.5658809689597668e-38
-26.615654 0.436726 90.456952 -0.889768 0.010962 0.456281 1.5658809689597668e-38
-26.585313 -0.047313 89.946001 -0.889768 -0.010962 0.456281 1.5658809689597668e-38
-27.149168 -0.933530 90.231892 -0.889228 -0.032881 0.456281 1.5658809689597668e-38
-26.980256 -1.446233 89.799771 -0.888148 -0.054779 0.456281 1.5658809689597668e-38
-26.397485 -2.049175 90.386319 -0.886529 -0.076644 0.456281 1.5658809689597668e-38
-26.239448 -3.070362 90.359827 -0.884371 -0.098463 0.456281 1.5658809689597668e-38
-26.066899 -3.768544 89.970024 -0.881677 -0.120221 0.456281 1.5658809689597668e-38
-25.886931 -3.664551 90.757694 -0.878448 -0.141907 0.456281 1.5658809689597668e-38
-26.799441 -4.486979 90.118985 -0.874685 -0.163507 0.456281 1.5658809689597668e-38
-25.343628 -5.813340 89.970796 -0.870391 -0.185007 0.456281 1.5658809689597668e-38
-25.755438 -6.258328 90.203665 -0.865568 -0.206395 0.456281 1.5658809689597668e-38
-25.298451 -6.399156 90.026117 -0.860221 -0.227658 0.456281 1.5658809689597668e-38
-24.914727 -7.767527 90.127956 -0.854351 -0.248783 0.456281 1.5658809689597668e-38
-24.456802 -7.911146 90.112165 -0.847962 -0.269756 0.456281 1.5658809689597668e-38
-25.873512 1.577908 91.966624 -0.840346 0.051831 0.539567 1.5658809689597668e-38
-26.245666 0.883110 91.154545 -0.841368 0.031111 0.539567 1.5658809689597668e-38
-25.011066 0.548871 91.397517 -0.841879 0.010372 0.539567 1.5658809689597668e-38
-25.754835 -0.563712 92.143800 -0.841879 -0.010372 0.539567 1.5658809689597668e-38
-26.416440 -0.853121 91.525039 -0.841368 -0.031111 0.539567 1.5658809689597668e-38
-26.005851 -1.660337 91.060174 -0.840346 -0.051831 0.539567 1.5658809689597668e-38
-25.179427 -2.209897 91.820908 -0.838814 -0.072519 0.539567 1.5658809689597668e-38
-25.733330 -2.445494 91.556823 -0.836773 -0.093163 0.539567 1.5658809689597668e-38
-25.188118 -3.308198 91.536303 -0.834223 -0.113751 0.539567 1.5658809689597668e-38
-25.116648 -2.850255 91.207039 -0.831168 -0.134270 0.539567 1.5658809689597668e-38
-25.343943 -5.118927 91.670806 -0.827607 -0.154707 0.539567 1.5658809689597668e-38
-25.115709 -4.770111 91.469405 -0.823544 -0.175050 0.539567 1.5658809689597668e-38
-24.758360 -6.595637 91.591925 -0.818982 -0.195287 0.539567 1.5658809689597668e-38
-25.150128 -6.409260 91.891789 -0.813922 -0.215405 0.539567 1.5658809689597668e-38
-24.441466 1.625093 92.244965 -0.801251 0.049419 0.596283 1.5658809689597668e-38
-24.700318 1.630977 92.665299 -0.802226 0.029664 0.596283 1.5658809689597668e-38
-25.085275 0.481085 93.085434 -0.802713 0.009890 0.596283 1.5658809689597668e-38
-24.638894 -0.401733 92.657350 -0.802713 -0.009890 0.596283 1.5658809689597668e-38
-25.387549 -1.288553 92.891718 -0.802226 -0.029664 0.596283 1.5658809689597668e-38
-25.000427 -1.458156 92.711919 -0.801251 -0.049419 0.596283 1.5658809689597668e-38
-24.776240 -2.137796 93.007339 -0.799791 -0.069145 0.596283 1.5658809689597668e-38
-24.479824 -2.758992 92.722224 -0.797844 -0.088829 0.596283 1.5658809689597668e-38
-24.669841 -3.597606 93.109384 -0.795414 -0.108459 0.596283 1.5658809689597668e-38
-24.737372 -4.016873 92.836369 -0.792500 -0.128023 0.596283 1.5658809689597668e-38
-24.370501 -4.492349 92.742506 -0.789105 -0.147509 0.596283 1.5658809689597668e-38
-23.849969 -5.151769 92.708122 -0.785231 -0.166906 0.596283 1.5658809689597668e-38
-23.669277 -6.005860 93.321961 -0.780881 -0.186202 0.596283 1.5658809689597668e-38
-23.888132 1.843366 93.984124 -0.773934 0.047735 0.631464 1.5658809689597668e-38
-23.286007 1.462897 94.041529 -0.774875 0.028652 0.631464 1.5658809689597668e-38
-24.043089 0.974504 94.244419 -0.775346 0.009553 0.631464 1.5658809689597668e-38
-23.787373 -0.511144 93.892366 -0.775346 -0.009553 0.631464 1.5658809689597668e-38
-24.204586 -0.437510 94.171081 -0.774875 -0.028652 0.631464 1.5658809689597668e-38
-23.968494 -1.614268 93.723234 -0.773934 -0.047735 0.631464 1.5658809689597668e-38
-23.852829 -2.009155 93.337968 -0.772523 -0.066788 0.631464 1.5658809689597668e-38
-24.063139 -2.849866 94.346264 -0.770643 -0.085801 0.631464 1.5658809689597668e-38
-23.867585 -3.770132 93.690334 -0.768295 -0.104761 0.631464 1.5658809689597668e-38
-23.097300 -3.926618 93.709080 -0.765481 -0.123658 0.631464 1.5658809689597668e-38
-24.015552 -4.388109 94.059540 -0.762202 -0.142480 0.631464 1.5658809689597668e-38
-23.265717 -4.155382 93.649742 -0.758461 -0.161216 0.631464 1.5658809689597668e-38
-22.739878 0.654722 94.642033 -0.760405 0.028117 0.648841 1.5658809689597668e-38
-22.561780 0.316792 94.874639 -0.760867 0.009374 0.648841 1.5658809689597668e-38
-22.650898 0.320822 95.615513 -0.760867 -0.009374 0.648841 1.5658809689597668e-38
-22.246151 -1.214007 95.332594 -0.760405 -0.028117 0.648841 1.5658809689597668e-38
-22.736204 -1.443916 95.159408 -0.759481 -0.046843 0.648841 1.5658809689597668e-38
-23.688871 -1.463496 94.772698 -0.758096 -0.065541 0.648841 1.5658809689597668e-38
-22.474411 -2.529114 95.248585 -0.756252 -0.084198 0.648841 1.5658809689597668e-38
-22.737871 -3.032322 95.449966 -0.753948 -0.102805 0.648841 1.5658809689597668e-38
-22.307655 -3.687543 94.896085 -0.751186 -0.121349 0.648841 1.5658809689597668e-38
-22.868328 -3.893624 95.176337 -0.747968 -0.139819 0.648841 1.5658809689597668e-38
-22.586475 0.710504 95.977605 -0.759547 0.009358 0.650385 1.5658809689597668e-38
-22.064675 -0.843996 97.035091 -0.759547 -0.009358 0.650385 1.5658809689597668e-38
-21.814157 -0.138505 97.091218 -0.759086 -0.028069 0.650385 1.5658809689597668e-38
-21.409199 -1.764104 96.544489 -0.758164 -0.046762 0.650385 1.5658809689597668e-38
-21.334404 -1.763235 96.383893 -0.756782 -0.065427 0.650385 1.5658809689597668e-38
-21.585890 -2.280726 96.051676 -0.754940 -0.084052 0.650385 1.5658809689597668e-38
-21.795323 -2.752781 96.757162 -0.752640 -0.102627 0.650385 1.5658809689597668e-38
-21.473037 -3.602984 96.437255 -0.749883 -0.121139 0.650385 1.5658809689597668e-38
-20.738091 0.136071 97.685597 -0.771404 -0.009504 0.636275 1.5658809689597668e-38
-21.033500 -0.604182 97.632432 -0.770936 -0.028507 0.636275 1.5658809689597668e-38
-20.576163 -1.893973 97.743005 -0.769999 -0.047492 0.636275 1.5658809689597668e-38
-20.779384 -2.077894 97.368073 -0.768595 -0.066448 0.636275 1.5658809689597668e-38
-20.738428 -2.620417 96.842208 -0.766725 -0.085364 0.636275 1.5658809689597668e-38
-19.786083 -0.875145 99.509587 -0.795758 -0.029425 0.604899 1.5658809689597668e-38
-19.590268 -0.792703 99.031614 -0.794792 -0.049021 0.604899 1.5658809689597668e-38
