# .PCD v0.7 - Point Cloud Data file format
VERSION 0.7
FIELDS x y z normal_x normal_y normal_z rgb
SIZE 4 4 4 4 4 4 4
TYPE F F F F F F F
COUNT 1 1 1 1 1 1 1
WIDTH 280
HEIGHT 1
VIEWPOINT 0 0 0 1 0 0 0
POINTS 280
DATA ascii
29.883059 -10.837601 19.567101 0.657552 -0.236276 -0.715402 1.5197831540281055e-38
30.861548 -9.988987 19.918179 0.663173 -0.220004 -0.715402 1.5197831540281055e-38
30.363672 -9.426896 19.440634 0.668392 -0.203598 -0.715402 1.5197831540281055e-38
31.056827 -9.327649 19.331565 0.673205 -0.187069 -0.715402 1.5197831540281055e-38
30.969037 -11.557735 21.077207 0.636577 -0.246611 -0.730721 1.5197831540281055e-38
31.889173 -11.333475 21.056508 0.642459 -0.230853 -0.730721 1.5197831540281055e-38
31.385621 -11.206528 21.406499 0.647952 -0.214954 -0.730721 1.5197831540281055e-38
32.109671 -9.711814 20.656212 0.653051 -0.198925 -0.730721 1.5197831540281055e-38
32.046394 -8.661562 21.552971 0.657754 -0.182775 -0.730721 1.5197831540281055e-38
32.342372 -7.979865 21.087935 0.662057 -0.166514 -0.730721 1.5197831540281055e-38
32.684288 -6.821813 20.894967 0.665959 -0.150152 -0.730721 1.5197831540281055e-38
33.264489 -6.454586 21.025861 0.669456 -0.133699 -0.730721 1.5197831540281055e-38
33.455739 -5.669597 21.002000 0.672547 -0.117165 -0.730721 1.5197831540281055e-38
33.589765 -4.565988 21.391517 0.675229 -0.100559 -0.730721 1.5197831540281055e-38
32.121249 -3.989844 21.094563 0.677502 -0.083893 -0.730721 1.5197831540281055e-38
32.120598 -14.469032 22.513322 0.613438 -0.273120 -0.741012 1.5197831540281055e-38
32.375330 -13.564173 22.737199 0.619981 -0.257924 -0.741012 1.5197831540281055e-38
32.093325 -12.105105 22.363707 0.626147 -0.242571 -0.741012 1.5197831540281055e-38
32.210593 -11.320070 22.559705 0.631933 -0.227070 -0.741012 1.5197831540281055e-38
32.984867 -11.274557 21.797321 0.637336 -0.211432 -0.741012 1.5197831540281055e-38
34.098558 -10.442993 21.888965 0.642352 -0.195666 -0.741012 1.5197831540281055e-38
33.694633 -9.832012 21.973577 0.646977 -0.179780 -0.741012 1.5197831540281055e-38
34.132675 -8.370376 22.152130 0.651210 -0.163786 -0.741012 1.5197831540281055e-38
34.039061 -7.806209 22.249442 0.655048 -0.147692 -0.741012 1.5197831540281055e-38
33.983750 -7.006710 22.084838 0.658488 -0.131509 -0.741012 1.5197831540281055e-38
34.152489 -5.674487 22.499076 0.661528 -0.115245 -0.741012 1.5197831540281055e-38
34.227626 -5.497366 22.220858 0.664166 -0.098912 -0.741012 1.5197831540281055e-38
35.270059 -4.595627 22.219674 0.666402 -0.082518 -0.741012 1.5197831540281055e-38
34.745208 -3.465572 22.130578 0.668233 -0.066075 -0.741012 1.5197831540281055e-38
32.926690 -15.295043 23.937481 0.600700 -0.285384 -0.746804 1.5197831540281055e-38
32.911903 -14.683080 23.579495 0.607548 -0.270498 -0.746804 1.5197831540281055e-38
33.510113 -13.895729 23.516295 0.614028 -0.255447 -0.746804 1.5197831540281055e-38
33.881064 -12.878780 23.871241 0.620136 -0.240242 -0.746804 1.5197831540281055e-38
33.903149 -12.315520 23.378372 0.625866 -0.224890 -0.746804 1.5197831540281055e-38
34.252136 -11.904039 23.512421 0.631217 -0.209402 -0.746804 1.5197831540281055e-38
34.836526 -10.614227 23.502467 0.636184 -0.193787 -0.746804 1.5197831540281055e-38
35.068091 -9.286413 23.379225 0.640766 -0.178054 -0.746804 1.5197831540281055e-38
34.819693 -8.873038 24.070223 0.644958 -0.162213 -0.746804 1.5197831540281055e-38
35.030171 -7.781652 23.852529 0.648759 -0.146274 -0.746804 1.5197831540281055e-38
34.854567 -6.979570 23.686178 0.652166 -0.130246 -0.746804 1.5197831540281055e-38
35.648222 -6.418201 23.327956 0.655177 -0.114139 -0.746804 1.5197831540281055e-38
35.772357 -5.432751 23.357922 0.657790 -0.097962 -0.746804 1.5197831540281055e-38
35.888313 -4.099495 23.140826 0.660004 -0.081726 -0.746804 1.5197831540281055e-38
35.565815 -3.206602 23.447549 0.661817 -0.065441 -0.746804 1.5197831540281055e-38
33.696396 -17.167509 24.270333 0.591893 -0.299292 -0.748390 1.5197831540281055e-38
33.888563 -15.968679 24.860486 0.599087 -0.284618 -0.748390 1.5197831540281055e-38
34.413892 -15.048481 24.681190 0.605917 -0.269772 -0.748390 1.5197831540281055e-38
34.788447 -14.609559 25.029253 0.612380 -0.254762 -0.748390 1.5197831540281055e-38
35.204864 -13.771643 24.295559 0.618471 -0.239597 -0.748390 1.5197831540281055e-38
35.773415 -12.958442 24.763887 0.624186 -0.224287 -0.748390 1.5197831540281055e-38
36.450712 -11.617705 25.225613 0.629522 -0.208840 -0.748390 1.5197831540281055e-38
35.864799 -10.652602 24.750269 0.634477 -0.193267 -0.748390 1.5197831540281055e-38
36.395475 -9.476716 24.658674 0.639046 -0.177576 -0.748390 1.5197831540281055e-38
36.528850 -9.456886 25.008809 0.643227 -0.161778 -0.748390 1.5197831540281055e-38
36.570117 -7.976485 24.247294 0.647017 -0.145881 -0.748390 1.5197831540281055e-38
37.095824 -7.568754 24.961423 0.650415 -0.129896 -0.748390 1.5197831540281055e-38
37.097671 -6.624117 24.626300 0.653418 -0.113832 -0.748390 1.5197831540281055e-38
36.994605 -5.296125 24.427677 0.656024 -0.097699 -0.748390 1.5197831540281055e-38
37.294966 -4.524467 25.226316 0.658232 -0.081507 -0.748390 1.5197831540281055e-38
37.474978 -3.778561 24.824359 0.660040 -0.065265 -0.748390 1.5197831540281055e-38
34.129525 -19.211416 25.395482 0.578911 -0.329496 -0.745851 1.5197831540281055e-38
34.595545 -18.946035 26.385584 0.586853 -0.315134 -0.745851 1.5197831540281055e-38
34.913074 -17.761252 26.276428 0.594439 -0.300579 -0.745851 1.5197831540281055e-38
35.380145 -16.360770 26.003524 0.601664 -0.285843 -0.745851 1.5197831540281055e-38
35.717914 -15.969673 26.058272 0.608524 -0.270932 -0.745851 1.5197831540281055e-38
36.566168 -15.151133 26.173768 0.615014 -0.255858 -0.745851 1.5197831540281055e-38
36.151273 -14.727423 26.041619 0.621131 -0.240628 -0.745851 1.5197831540281055e-38
36.863045 -13.238954 25.530586 0.626871 -0.225251 -0.745851 1.5197831540281055e-38
37.157418 -12.216562 25.712747 0.632231 -0.209739 -0.745851 1.5197831540281055e-38
36.951782 -11.455225 26.175260 0.637206 -0.194098 -0.745851 1.5197831540281055e-38
37.751848 -10.719904 26.020459 0.641795 -0.178340 -0.745851 1.5197831540281055e-38
38.139169 -9.877249 25.998328 0.645994 -0.162474 -0.745851 1.5197831540281055e-38
38.498110 -8.971943 26.326039 0.649801 -0.146509 -0.745851 1.5197831540281055e-38
38.782032 -7.714924 25.876479 0.653213 -0.130455 -0.745851 1.5197831540281055e-38
38.783013 -6.758257 25.273443 0.656229 -0.114322 -0.745851 1.5197831540281055e-38
38.596899 -5.611384 26.201407 0.658846 -0.098120 -0.745851 1.5197831540281055e-38
38.492350 -4.880040 26.272454 0.661064 -0.081857 -0.745851 1.5197831540281055e-38
38.845013 -4.301402 26.350673 0.662880 -0.065546 -0.745851 1.5197831540281055e-38
34.624191 -21.012775 27.288795 0.577066 -0.347543 -0.739059 1.5197831540281055e-38
35.405554 -19.640304 27.640173 0.585454 -0.333220 -0.739059 1.5197831540281055e-38
35.220648 -19.473798 27.129601 0.593486 -0.318695 -0.739059 1.5197831540281055e-38
36.099552 -18.313154 27.050703 0.601157 -0.303976 -0.739059 1.5197831540281055e-38
36.422617 -17.202289 26.817608 0.608464 -0.289073 -0.739059 1.5197831540281055e-38
37.633259 -16.436109 27.531749 0.615401 -0.273994 -0.739059 1.5197831540281055e-38
37.150139 -15.355244 27.246522 0.621965 -0.258749 -0.739059 1.5197831540281055e-38
37.952412 -14.662858 27.681964 0.628151 -0.243347 -0.739059 1.5197831540281055e-38
37.596098 -13.385301 27.252111 0.633956 -0.227797 -0.739059 1.5197831540281055e-38
38.063465 -12.143044 27.771104 0.639376 -0.212109 -0.739059 1.5197831540281055e-38
38.048757 -11.726451 27.428194 0.644408 -0.196292 -0.739059 1.5197831540281055e-38
39.081908 -10.368499 27.608785 0.649048 -0.180356 -0.739059 1.5197831540281055e-38
39.283785 -9.177128 27.497549 0.653295 -0.164310 -0.739059 1.5197831540281055e-38
39.329835 -9.057078 27.589497 0.657145 -0.148165 -0.739059 1.5197831540281055e-38
39.404464 -8.040012 27.144623 0.660595 -0.131929 -0.739059 1.5197831540281055e-38
39.932070 -6.996039 26.821404 0.663645 -0.115614 -0.739059 1.5197831540281055e-38
40.332843 -6.076019 27.822475 0.666292 -0.099228 -0.739059 1.5197831540281055e-38
40.209988 -4.587621 27.405753 0.668535 -0.082783 -0.739059 1.5197831540281055e-38
40.623523 -3.806749 27.287045 0.670371 -0.066286 -0.739059 1.5197831540281055e-38
34.722399 -22.778567 28.043903 0.578697 -0.368253 -0.727667 1.5197831540281055e-38
36.194915 -21.729772 28.355606 0.587594 -0.353884 -0.727667 1.5197831540281055e-38
35.809982 -20.736237 28.713565 0.596135 -0.339300 -0.727667 1.5197831540281055e-38
36.868191 -19.789409 27.984143 0.604313 -0.324509 -0.727667 1.5197831540281055e-38
37.169514 -18.800510 28.156061 0.612125 -0.309522 -0.727667 1.5197831540281055e-38
37.917337 -17.655158 28.295014 0.619565 -0.294347 -0.727667 1.5197831540281055e-38
38.368689 -17.018814 28.797750 0.626629 -0.278993 -0.727667 1.5197831540281055e-38
39.168093 -16.368894 28.684454 0.633312 -0.263470 -0.727667 1.5197831540281055e-38
39.332837 -15.377162 28.281072 0.639611 -0.247787 -0.727667 1.5197831540281055e-38
39.125293 -14.161798 28.346699 0.645522 -0.231953 -0.727667 1.5197831540281055e-38
39.577720 -12.897999 27.884865 0.651041 -0.215979 -0.727667 1.5197831540281055e-38
39.656973 -11.967866 28.619441 0.656164 -0.199873 -0.727667 1.5197831540281055e-38
39.919262 -11.012995 28.851668 0.660890 -0.183646 -0.727667 1.5197831540281055e-38
40.485372 -10.488567 28.716095 0.665213 -0.167308 -0.727667 1.5197831540281055e-38
41.255661 -9.451110 28.465384 0.669134 -0.150868 -0.727667 1.5197831540281055e-38
41.279729 -8.144174 27.929419 0.672647 -0.134336 -0.727667 1.5197831540281055e-38
41.274781 -7.460972 28.072391 0.675753 -0.117723 -0.727667 1.5197831540281055e-38
40.787528 -5.794403 28.203195 0.678448 -0.101039 -0.727667 1.5197831540281055e-38
41.544872 -4.958301 28.502154 0.680732 -0.084293 -0.727667 1.5197831540281055e-38
41.647701 -3.995019 28.495038 0.682602 -0.067496 -0.727667 1.5197831540281055e-38
41.419311 -3.338986 28.422114 0.684058 -0.050658 -0.727667 1.5197831540281055e-38
35.476324 -23.808869 29.754958 0.583703 -0.391971 -0.711090 1.5197831540281055e-38
36.495438 -22.754563 29.554122 0.593183 -0.377471 -0.711090 1.5197831540281055e-38
36.675247 -22.713950 29.085021 0.602303 -0.362742 -0.711090 1.5197831540281055e-38
37.356720 -21.324477 29.364897 0.611057 -0.347793 -0.711090 1.5197831540281055e-38
37.661412 -19.907046 29.953474 0.619441 -0.332633 -0.711090 1.5197831540281055e-38
38.034468 -19.556286 29.812522 0.627448 -0.317270 -0.711090 1.5197831540281055e-38
38.691902 -18.713897 29.589248 0.635074 -0.301715 -0.711090 1.5197831540281055e-38
39.650319 -17.153361 29.470088 0.642315 -0.285977 -0.711090 1.5197831540281055e-38
39.880697 -16.535569 29.388251 0.649165 -0.270065 -0.711090 1.5197831540281055e-38
40.048692 -15.928742 30.039638 0.655622 -0.253989 -0.711090 1.5197831540281055e-38
40.974472 -14.679031 29.495998 0.661681 -0.237759 -0.711090 1.5197831540281055e-38
41.171431 -13.188564 29.356398 0.667338 -0.221385 -0.711090 1.5197831540281055e-38
41.132159 -12.560412 29.459489 0.672590 -0.204876 -0.711090 1.5197831540281055e-38
41.588889 -11.734421 29.528643 0.677433 -0.188243 -0.711090 1.5197831540281055e-38
41.714035 -10.945866 29.073786 0.681865 -0.171496 -0.711090 1.5197831540281055e-38
42.265921 -9.689581 30.331181 0.685883 -0.154645 -0.711090 1.5197831540281055e-38
42.802499 -8.582017 30.392438 0.689485 -0.137699 -0.711090 1.5197831540281055e-38
42.687102 -7.581138 28.916170 0.692669 -0.120670 -0.711090 1.5197831540281055e-38
42.781415 -6.331141 29.820130 0.695431 -0.103568 -0.711090 1.5197831540281055e-38
42.649608 -5.632824 29.562614 0.697772 -0.086403 -0.711090 1.5197831540281055e-38
43.047607 -4.341905 29.582596 0.699689 -0.069185 -0.711090 1.5197831540281055e-38
42.471151 -3.151586 29.357142 0.701181 -0.051926 -0.711090 1.5197831540281055e-38
35.473318 -26.018806 31.202376 0.581452 -0.433494 -0.688474 1.5197831540281055e-38
35.935901 -25.197421 30.159612 0.591956 -0.419037 -0.688474 1.5197831540281055e-38
37.321804 -25.075204 31.076369 0.602100 -0.404325 -0.688474 1.5197831540281055e-38
37.467704 -23.423819 30.829226 0.611879 -0.389368 -0.688474 1.5197831540281055e-38
37.269899 -22.931958 30.862086 0.621286 -0.374175 -0.688474 1.5197831540281055e-38
37.849854 -21.879136 30.605080 0.630316 -0.358755 -0.688474 1.5197831540281055e-38
39.187043 -21.012256 31.516164 0.638964 -0.343116 -0.688474 1.5197831540281055e-38
39.419497 -19.842288 30.863914 0.647223 -0.327270 -0.688474 1.5197831540281055e-38
39.489425 -19.053667 31.153859 0.655090 -0.311224 -0.688474 1.5197831540281055e-38
40.612789 -18.089552 30.490808 0.662559 -0.294990 -0.688474 1.5197831540281055e-38
41.056769 -16.874115 31.180858 0.669626 -0.278577 -0.688474 1.5197831540281055e-38
41.187630 -16.493343 31.087963 0.676286 -0.261994 -0.688474 1.5197831540281055e-38
41.648497 -14.548888 30.936455 0.682535 -0.245253 -0.688474 1.5197831540281055e-38
41.993691 -13.810493 30.748756 0.688371 -0.228363 -0.688474 1.5197831540281055e-38
42.144378 -12.925855 30.651713 0.693788 -0.211334 -0.688474 1.5197831540281055e-38
42.574075 -11.267605 31.240625 0.698784 -0.194176 -0.688474 1.5197831540281055e-38
43.014212 -10.329763 30.680366 0.703356 -0.176901 -0.688474 1.5197831540281055e-38
43.921871 -9.872656 31.528977 0.707501 -0.159519 -0.688474 1.5197831540281055e-38
44.001288 -9.193804 31.367963 0.711216 -0.142039 -0.688474 1.5197831540281055e-38
43.516673 -7.766293 31.085226 0.714500 -0.124473 -0.688474 1.5197831540281055e-38
43.473380 -6.368760 30.645597 0.717350 -0.106832 -0.688474 1.5197831540281055e-38
43.976211 -5.038248 31.043790 0.719764 -0.089126 -0.688474 1.5197831540281055e-38
43.935816 -4.192630 30.505891 0.721741 -0.071366 -0.688474 1.5197831540281055e-38
43.886023 -3.397686 31.163890 0.723280 -0.053562 -0.688474 1.5197831540281055e-38
35.657143 -28.029145 32.284638 0.591979 -0.464465 -0.658660 1.5197831540281055e-38
36.290538 -27.329211 32.538292 0.603242 -0.449739 -0.658660 1.5197831540281055e-38
36.949833 -25.798470 32.067410 0.614140 -0.434740 -0.658660 1.5197831540281055e-38
37.675814 -25.345158 32.234314 0.624664 -0.419478 -0.658660 1.5197831540281055e-38
38.166717 -24.338656 32.624193 0.634809 -0.403960 -0.658660 1.5197831540281055e-38
39.196056 -23.099945 31.762369 0.644569 -0.388197 -0.658660 1.5197831540281055e-38
39.092489 -22.386294 32.396170 0.653938 -0.372199 -0.658660 1.5197831540281055e-38
39.831961 -21.682218 32.583101 0.662909 -0.355975 -0.658660 1.5197831540281055e-38
40.710365 -20.163833 32.032513 0.671478 -0.339534 -0.658660 1.5197831540281055e-38
40.840906 -19.192415 32.086131 0.679640 -0.322888 -0.658660 1.5197831540281055e-38
41.281077 -18.735070 32.011560 0.687389 -0.306045 -0.658660 1.5197831540281055e-38
42.169107 -17.886831 32.353664 0.694720 -0.289017 -0.658660 1.5197831540281055e-38
42.110923 -16.459258 32.121075 0.701630 -0.271813 -0.658660 1.5197831540281055e-38
42.648278 -15.434589 32.031642 0.708114 -0.254444 -0.658660 1.5197831540281055e-38
42.908255 -13.895483 32.172463 0.714168 -0.236921 -0.658660 1.5197831540281055e-38
43.380925 -13.419100 32.042565 0.719788 -0.219253 -0.658660 1.5197831540281055e-38
43.539026 -11.922360 31.938869 0.724971 -0.201453 -0.658660 1.5197831540281055e-38
43.343622 -11.053352 32.081131 0.729715 -0.183531 -0.658660 1.5197831540281055e-38
44.101156 -9.709538 31.344893 0.734015 -0.165497 -0.658660 1.5197831540281055e-38
44.982281 -8.572702 31.976532 0.737869 -0.147362 -0.658660 1.5197831540281055e-38
44.579667 -7.638493 32.324313 0.741276 -0.129138 -0.658660 1.5197831540281055e-38
44.703085 -7.170816 32.799056 0.744233 -0.110836 -0.658660 1.5197831540281055e-38
45.331180 -5.530643 32.217681 0.746737 -0.092466 -0.658660 1.5197831540281055e-38
45.354485 -4.243909 31.539038 0.748789 -0.074040 -0.658660 1.5197831540281055e-38
45.159155 -3.488494 32.116518 0.750386 -0.055570 -0.658660 1.5197831540281055e-38
36.138962 -29.031287 33.288714 0.605063 -0.499297 -0.620162 1.5197831540281055e-38
36.575746 -28.589471 33.596874 0.617181 -0.484238 -0.620162 1.5197831540281055e-38
37.376715 -27.318017 32.702673 0.628924 -0.468886 -0.620162 1.5197831540281055e-38
38.013183 -26.673978 33.331493 0.640285 -0.453248 -0.620162 1.5197831540281055e-38
37.857854 -25.896901 33.188894 0.651257 -0.437336 -0.620162 1.5197831540281055e-38
39.666329 -24.808705 33.163416 0.661835 -0.421158 -0.620162 1.5197831540281055e-38
39.149258 -23.771667 33.610907 0.672010 -0.404724 -0.620162 1.5197831540281055e-38
40.278286 -22.780771 33.297581 0.681777 -0.388044 -0.620162 1.5197831540281055e-38
41.216660 -21.663149 32.910384 0.691131 -0.371129 -0.620162 1.5197831540281055e-38
41.006585 -20.337318 33.681721 0.700065 -0.353989 -0.620162 1.5197831540281055e-38
41.549927 -20.390848 33.464393 0.708574 -0.336634 -0.620162 1.5197831540281055e-38
42.063991 -18.975685 33.387878 0.716652 -0.319074 -0.620162 1.5197831540281055e-38
42.831854 -17.492188 33.952489 0.724296 -0.301321 -0.620162 1.5197831540281055e-38
43.141589 -17.107999 33.518716 0.731500 -0.283385 -0.620162 1.5197831540281055e-38
44.174710 -15.818237 33.657170 0.738260 -0.265276 -0.620162 1.5197831540281055e-38
43.807605 -14.609832 33.053479 0.744571 -0.247007 -0.620162 1.5197831540281055e-38
44.408728 -13.561218 33.584499 0.750431 -0.228588 -0.620162 1.5197831540281055e-38
45.258671 -12.544807 32.802143 0.755835 -0.210029 -0.620162 1.5197831540281055e-38
44.957243 -11.232654 33.462632 0.760780 -0.191344 -0.620162 1.5197831540281055e-38
45.235938 -9.763573 33.442926 0.765263 -0.172542 -0.620162 1.5197831540281055e-38
45.489526 -9.324438 32.878049 0.769282 -0.153636 -0.620162 1.5197831540281055e-38
45.829899 -7.893221 33.084263 0.772834 -0.134636 -0.620162 1.5197831540281055e-38
45.900219 -6.880885 33.214712 0.775916 -0.115554 -0.620162 1.5197831540281055e-38
45.830064 -5.582937 33.334318 0.778528 -0.096403 -0.620162 1.5197831540281055e-38
37.766427 -29.504956 34.664340 0.645775 -0.506674 -0.571188 1.5197831540281055e-38
37.637660 -28.696745 34.577693 0.658062 -0.490610 -0.571188 1.5197831540281055e-38
38.460945 -27.702625 34.628545 0.669950 -0.474248 -0.571188 1.5197831540281055e-38
38.856581 -26.354070 34.600977 0.681431 -0.457598 -0.571188 1.5197831540281055e-38
39.195326 -25.572353 34.779698 0.692498 -0.440670 -0.571188 1.5197831540281055e-38
40.234431 -24.270162 34.768979 0.703145 -0.423475 -0.571188 1.5197831540281055e-38
40.837606 -23.420836 34.886673 0.713365 -0.406023 -0.571188 1.5197831540281055e-38
41.444446 -22.458129 34.984247 0.723151 -0.388324 -0.571188 1.5197831540281055e-38
41.989213 -21.224277 34.315418 0.732499 -0.370390 -0.571188 1.5197831540281055e-38
42.711696 -20.180676 33.917817 0.741402 -0.352230 -0.571188 1.5197831540281055e-38
43.087210 -19.126231 34.706928 0.749855 -0.333857 -0.571188 1.5197831540281055e-38
43.552061 -18.515052 34.827715 0.757853 -0.315281 -0.571188 1.5197831540281055e-38
44.046784 -16.937681 34.753242 0.765391 -0.296514 -0.571188 1.5197831540281055e-38
44.417213 -15.686742 34.460892 0.772464 -0.277567 -0.571188 1.5197831540281055e-38
45.289460 -14.509630 34.954210 0.779068 -0.258451 -0.571188 1.5197831540281055e-38
45.231762 -13.030351 34.684729 0.785199 -0.239178 -0.571188 1.5197831540281055e-38
45.684362 -12.681176 34.300245 0.790853 -0.219760 -0.571188 1.5197831540281055e-38
46.298990 -11.718667 34.915059 0.796028 -0.200209 -0.571188 1.5197831540281055e-38
46.528886 -10.231328 34.431584 0.800719 -0.180536 -0.571188 1.5197831540281055e-38
46.321211 -10.074504 34.604235 0.804924 -0.160754 -0.571188 1.5197831540281055e-38
37.809168 -29.997988 36.394935 0.676847 -0.531052 -0.509767 1.5197831540281055e-38
38.226200 -28.721647 36.020254 0.689725 -0.514215 -0.509767 1.5197831540281055e-38
39.286054 -28.189080 35.576659 0.702185 -0.497066 -0.509767 1.5197831540281055e-38
40.120217 -27.070433 35.254683 0.714218 -0.479615 -0.509767 1.5197831540281055e-38
40.728607 -26.105474 36.065654 0.725818 -0.461873 -0.509767 1.5197831540281055e-38
41.176423 -24.910235 35.891960 0.736977 -0.443851 -0.509767 1.5197831540281055e-38
41.494722 -24.059417 35.798311 0.747688 -0.425559 -0.509767 1.5197831540281055e-38
42.066929 -22.559668 35.784075 0.757946 -0.407008 -0.509767 1.5197831540281055e-38
42.523616 -21.889729 35.906649 0.767744 -0.388211 -0.509767 1.5197831540281055e-38
43.346755 -20.537096 36.048500 0.777075 -0.369178 -0.509767 1.5197831540281055e-38
44.696831 -19.234326 35.385378 0.785935 -0.349921 -0.509767 1.5197831540281055e-38
44.337292 -18.570104 36.048810 0.794317 -0.330451 -0.509767 1.5197831540281055e-38
44.607343 -17.548854 35.502965 0.802218 -0.310781 -0.509767 1.5197831540281055e-38
45.121546 -16.447778 35.782387 0.809631 -0.290922 -0.509767 1.5197831540281055e-38
45.333576 -14.862609 36.017953 0.816553 -0.270886 -0.509767 1.5197831540281055e-38
45.614447 -14.019150 35.406712 0.822979 -0.250686 -0.509767 1.5197831540281055e-38
46.783383 -12.403919 35.859567 0.828905 -0.230334 -0.509767 1.5197831540281055e-38
38.498101 -30.081182 36.390020 0.708766 -0.556096 -0.434059 1.5197831540281055e-38
39.151302 -29.215331 37.372635 0.722252 -0.538465 -0.434059 1.5197831540281055e-38
40.050006 -28.125025 37.207351 0.735299 -0.520508 -0.434059 1.5197831540281055e-38
40.921447 -26.862244 37.196002 0.747900 -0.502234 -0.434059 1.5197831540281055e-38
41.817379 -26.389328 36.757769 0.760047 -0.483655 -0.434059 1.5197831540281055e-38
41.803526 -25.290643 36.373800 0.771732 -0.464782 -0.434059 1.5197831540281055e-38
42.218707 -24.037769 37.095994 0.782949 -0.445628 -0.434059 1.5197831540281055e-38
42.763377 -23.075836 37.150324 0.793690 -0.426203 -0.434059 1.5197831540281055e-38
43.766629 -22.214656 37.375559 0.803950 -0.406519 -0.434059 1.5197831540281055e-38
43.754264 -21.093521 37.623100 0.813721 -0.386588 -0.434059 1.5197831540281055e-38
44.276883 -20.047726 36.737469 0.822999 -0.366423 -0.434059 1.5197831540281055e-38
44.811389 -18.704125 37.325365 0.831777 -0.346035 -0.434059 1.5197831540281055e-38
45.502144 -17.727198 36.740570 0.840050 -0.325437 -0.434059 1.5197831540281055e-38
39.046557 -29.721165 38.287138 0.753094 -0.561459 -0.342947 1.5197831540281055e-38
40.234963 -28.392942 38.108430 0.766698 -0.542735 -0.342947 1.5197831540281055e-38
41.553695 -27.530419 38.348209 0.779837 -0.523680 -0.342947 1.5197831540281055e-38
41.414949 -26.783416 38.312625 0.792503 -0.504308 -0.342947 1.5197831540281055e-38
42.264265 -25.475120 38.847062 0.804687 -0.484630 -0.342947 1.5197831540281055e-38
42.832280 -24.426022 38.595104 0.816383 -0.464657 -0.342947 1.5197831540281055e-38
43.407000 -23.174823 37.966802 0.827583 -0.444403 -0.342947 1.5197831540281055e-38
43.638740 -22.222221 38.281030 0.838281 -0.423878 -0.342947 1.5197831540281055e-38
44.312414 -21.130984 38.413245 0.848470 -0.403096 -0.342947 1.5197831540281055e-38
39.395116 -29.561239 39.738160 0.778898 -0.580697 -0.236874 1.5197831540281055e-38
40.554466 -28.843574 40.375569 0.792968 -0.561331 -0.236874 1.5197831540281055e-38
40.903078 -27.926303 39.800106 0.806557 -0.541623 -0.236874 1.5197831540281055e-38
41.629931 -27.011281 39.927084 0.819657 -0.521588 -0.236874 1.5197831540281055e-38
42.760538 -25.498324 39.642176 0.832258 -0.501235 -0.236874 1.5197831540281055e-38
42.990201 -24.662546 39.563906 0.844355 -0.480578 -0.236874 1.5197831540281055e-38
40.419073 -29.716935 40.682769 0.796050 -0.593485 -0.118656 1.5197831540281055e-38
40.589380 -28.794203 40.450776 0.810431 -0.573692 -0.118656 1.5197831540281055e-38
