# .PCD v0.7 - Point Cloud Data file format
VERSION 0.7
FIELDS x y z normal_x normal_y normal_z rgb
SIZE 4 4 4 4 4 4 4
TYPE F F F F F F F
COUNT 1 1 1 1 1 1 1
WIDTH 144
HEIGHT 1
VIEWPOINT 0 0 0 1 0 0 0
POINTS 144
DATA ascii
-25.265646 -45.799971 70.497667 -0.478512 -0.878081 0.000000 1.75027152803718e-38
-30.226906 -42.797481 72.107227 -0.582791 -0.812622 0.000000 1.75027152803718e-38
-29.482563 -42.971860 71.693742 -0.562593 -0.826734 0.000000 1.75027152803718e-38
-28.491028 -44.132186 72.272290 -0.542053 -0.840344 0.000000 1.75027152803718e-38
-27.331586 -43.686499 71.798128 -0.521185 -0.853444 0.000000 1.75027152803718e-38
-26.390925 -45.743919 72.122412 -0.500000 -0.866025 0.000000 1.75027152803718e-38
-25.070577 -45.651710 72.449260 -0.478512 -0.878081 0.000000 1.75027152803718e-38
-34.536496 -39.374594 73.028167 -0.659925 -0.751332 0.000000 1.75027152803718e-38
-33.436625 -40.320499 73.407365 -0.641213 -0.767363 0.000000 1.75027152803718e-38
-32.749889 -40.896631 73.208727 -0.622113 -0.782928 0.000000 1.75027152803718e-38
-32.131054 -41.764944 72.797649 -0.602635 -0.798017 0.000000 1.75027152803718e-38
-30.900119 -42.791338 73.038197 -0.582791 -0.812622 0.000000 1.75027152803718e-38
-30.006513 -43.396838 72.924418 -0.562593 -0.826734 0.000000 1.75027152803718e-38
-28.147239 -44.309507 73.346637 -0.542053 -0.840344 0.000000 1.75027152803718e-38
-27.247023 -44.817249 73.371789 -0.521185 -0.853444 0.000000 1.75027152803718e-38
-25.674062 -45.530921 72.767665 -0.500000 -0.866025 0.000000 1.75027152803718e-38
-24.993948 -46.527618 72.599382 -0.478512 -0.878081 0.000000 1.75027152803718e-38
-23.587152 -46.534114 72.732240 -0.456733 -0.889604 0.000000 1.75027152803718e-38
-39.401132 -35.233609 74.522461 -0.747253 -0.664540 0.000000 1.75027152803718e-38
-38.683414 -35.556889 74.146126 -0.730653 -0.682749 0.000000 1.75027152803718e-38
-37.914517 -37.216441 74.254128 -0.713610 -0.700543 0.000000 1.75027152803718e-38
-37.027792 -37.811664 74.106648 -0.696134 -0.717912 0.000000 1.75027152803718e-38
-35.889889 -38.760340 74.528209 -0.678235 -0.734845 0.000000 1.75027152803718e-38
-34.960248 -39.561956 74.360094 -0.659925 -0.751332 0.000000 1.75027152803718e-38
-34.173674 -40.305658 74.471418 -0.641213 -0.767363 0.000000 1.75027152803718e-38
-32.513722 -41.615840 73.915145 -0.622113 -0.782928 0.000000 1.75027152803718e-38
-31.792799 -42.112253 74.232598 -0.602635 -0.798017 0.000000 1.75027152803718e-38
-30.837116 -42.793249 73.460582 -0.582791 -0.812622 0.000000 1.75027152803718e-38
-29.467690 -43.151538 74.060889 -0.562593 -0.826734 0.000000 1.75027152803718e-38
-28.521380 -43.806543 74.236843 -0.542053 -0.840344 0.000000 1.75027152803718e-38
-27.390079 -44.448973 74.837733 -0.521185 -0.853444 0.000000 1.75027152803718e-38
-26.682873 -45.788350 74.494881 -0.500000 -0.866025 0.000000 1.75027152803718e-38
-25.082439 -46.088786 73.440335 -0.478512 -0.878081 0.000000 1.75027152803718e-38
-24.669350 -46.372921 74.458966 -0.456733 -0.889604 0.000000 1.75027152803718e-38
-22.814085 -47.859982 74.102308 -0.434676 -0.900587 0.000000 1.75027152803718e-38
-41.935211 -32.191164 75.718888 -0.794290 -0.607539 0.000000 1.75027152803718e-38
-41.326098 -32.894861 75.215492 -0.779081 -0.626924 0.000000 1.75027152803718e-38
-40.449478 -34.146683 75.966928 -0.763398 -0.645928 0.000000 1.75027152803718e-38
-39.320177 -35.128798 75.655859 -0.747253 -0.664540 0.000000 1.75027152803718e-38
-38.365209 -36.041968 75.156345 -0.730653 -0.682749 0.000000 1.75027152803718e-38
-37.600048 -37.105098 75.358021 -0.713610 -0.700543 0.000000 1.75027152803718e-38
-37.098696 -37.842557 75.617518 -0.696134 -0.717912 0.000000 1.75027152803718e-38
-36.201978 -39.244864 76.031405 -0.678235 -0.734845 0.000000 1.75027152803718e-38
-34.687500 -39.760063 75.645791 -0.659925 -0.751332 0.000000 1.75027152803718e-38
-34.095174 -40.686695 75.470358 -0.641213 -0.767363 0.000000 1.75027152803718e-38
-32.654114 -41.883200 75.157840 -0.622113 -0.782928 0.000000 1.75027152803718e-38
-32.279378 -42.002323 75.433643 -0.602635 -0.798017 0.000000 1.75027152803718e-38
-31.136046 -43.098117 75.274376 -0.582791 -0.812622 0.000000 1.75027152803718e-38
-30.221935 -43.400833 75.419115 -0.562593 -0.826734 0.000000 1.75027152803718e-38
-28.318896 -44.934271 75.615200 -0.542053 -0.840344 0.000000 1.75027152803718e-38
-28.031611 -44.459707 74.945080 -0.521185 -0.853444 0.000000 1.75027152803718e-38
-25.938231 -45.865516 75.409095 -0.500000 -0.866025 0.000000 1.75027152803718e-38
-25.162332 -46.779381 75.699450 -0.478512 -0.878081 0.000000 1.75027152803718e-38
-23.928349 -47.104578 75.538933 -0.456733 -0.889604 0.000000 1.75027152803718e-38
-22.438991 -47.494376 75.229256 -0.434676 -0.900587 0.000000 1.75027152803718e-38
-40.403732 -34.506181 76.622553 -0.763398 -0.645928 0.000000 1.75027152803718e-38
-39.645082 -35.230913 76.488731 -0.747253 -0.664540 0.000000 1.75027152803718e-38
-39.262247 -35.727215 76.711189 -0.730653 -0.682749 0.000000 1.75027152803718e-38
-37.819499 -37.509133 77.110890 -0.713610 -0.700543 0.000000 1.75027152803718e-38
-36.705421 -38.157363 76.764065 -0.696134 -0.717912 0.000000 1.75027152803718e-38
-35.980167 -39.046478 76.868403 -0.678235 -0.734845 0.000000 1.75027152803718e-38
-34.979007 -40.005408 76.350457 -0.659925 -0.751332 0.000000 1.75027152803718e-38
-34.104601 -40.580009 76.902678 -0.641213 -0.767363 0.000000 1.75027152803718e-38
-32.687592 -41.207293 76.911518 -0.622113 -0.782928 0.000000 1.75027152803718e-38
-31.989317 -42.332114 76.528719 -0.602635 -0.798017 0.000000 1.75027152803718e-38
-30.750545 -42.814702 77.013519 -0.582791 -0.812622 0.000000 1.75027152803718e-38
-29.749384 -44.034407 76.594239 -0.562593 -0.826734 0.000000 1.75027152803718e-38
-28.872030 -44.904977 76.783433 -0.542053 -0.840344 0.000000 1.75027152803718e-38
-28.553351 -45.544152 76.721475 -0.521185 -0.853444 0.000000 1.75027152803718e-38
-25.837378 -46.050223 76.713414 -0.500000 -0.866025 0.000000 1.75027152803718e-38
-25.695271 -46.176769 76.457014 -0.478512 -0.878081 0.000000 1.75027152803718e-38
-23.677261 -47.527344 76.983520 -0.456733 -0.889604 0.000000 1.75027152803718e-38
-23.131254 -48.058087 77.003908 -0.434676 -0.900587 0.000000 1.75027152803718e-38
-38.630172 -36.427537 78.129935 -0.730653 -0.682749 0.000000 1.75027152803718e-38
-37.712330 -37.074732 77.947844 -0.713610 -0.700543 0.000000 1.75027152803718e-38
-37.137699 -38.448159 78.087822 -0.696134 -0.717912 0.000000 1.75027152803718e-38
-36.337752 -39.131354 78.249632 -0.678235 -0.734845 0.000000 1.75027152803718e-38
-35.741913 -40.673935 77.924746 -0.659925 -0.751332 0.000000 1.75027152803718e-38
-34.036356 -40.886577 77.574871 -0.641213 -0.767363 0.000000 1.75027152803718e-38
-32.947243 -41.231230 77.677539 -0.622113 -0.782928 0.000000 1.75027152803718e-38
-32.394642 -42.601727 77.900417 -0.602635 -0.798017 0.000000 1.75027152803718e-38
-30.756658 -43.304165 77.850665 -0.582791 -0.812622 0.000000 1.75027152803718e-38
-30.216043 -44.601002 78.348996 -0.562593 -0.826734 0.000000 1.75027152803718e-38
-28.754159 -44.896563 77.970765 -0.542053 -0.840344 0.000000 1.75027152803718e-38
-27.860498 -46.098529 77.511777 -0.521185 -0.853444 0.000000 1.75027152803718e-38
-26.758325 -46.307007 77.934507 -0.500000 -0.866025 0.000000 1.75027152803718e-38
-25.040433 -46.970262 77.709317 -0.478512 -0.878081 0.000000 1.75027152803718e-38
-24.370927 -47.918664 77.984814 -0.456733 -0.889604 0.000000 1.75027152803718e-38
-23.426605 -48.018503 77.884069 -0.434676 -0.900587 0.000000 1.75027152803718e-38
-37.022969 -38.462777 79.168331 -0.696134 -0.717912 0.000000 1.75027152803718e-38
-36.731707 -39.169168 79.438384 -0.678235 -0.734845 0.000000 1.75027152803718e-38
-35.607668 -40.231907 79.351658 -0.659925 -0.751332 0.000000 1.75027152803718e-38
-33.709345 -41.020126 79.175135 -0.641213 -0.767363 0.000000 1.75027152803718e-38
-33.397477 -42.000742 79.405447 -0.622113 -0.782928 0.000000 1.75027152803718e-38
-32.571187 -42.501016 78.712883 -0.602635 -0.798017 0.000000 1.75027152803718e-38
-31.042859 -43.280345 79.417110 -0.582791 -0.812622 0.000000 1.75027152803718e-38
-30.078859 -44.201838 79.055197 -0.562593 -0.826734 0.000000 1.75027152803718e-38
-29.396367 -44.975002 79.195952 -0.542053 -0.840344 0.000000 1.75027152803718e-38
-27.663040 -45.794562 79.222943 -0.521185 -0.853444 0.000000 1.75027152803718e-38
-26.718220 -46.254947 79.459837 -0.500000 -0.866025 0.000000 1.75027152803718e-38
-25.938597 -46.862454 79.121087 -0.478512 -0.878081 0.000000 1.75027152803718e-38
-24.292147 -47.247146 78.542744 -0.456733 -0.889604 0.000000 1.75027152803718e-38
-22.938187 -48.314972 78.918620 -0.434676 -0.900587 0.000000 1.75027152803718e-38
-36.556569 -39.655125 80.606647 -0.678235 -0.734845 0.000000 1.75027152803718e-38
-35.348964 -40.604561 80.125275 -0.659925 -0.751332 0.000000 1.75027152803718e-38
-34.283590 -41.242596 80.225894 -0.641213 -0.767363 0.000000 1.75027152803718e-38
-33.824641 -42.339837 80.529957 -0.622113 -0.782928 0.000000 1.75027152803718e-38
-31.927695 -43.012781 80.162473 -0.602635 -0.798017 0.000000 1.75027152803718e-38
-30.718571 -43.846823 80.174138 -0.582791 -0.812622 0.000000 1.75027152803718e-38
-30.400879 -44.631886 80.793536 -0.562593 -0.826734 0.000000 1.75027152803718e-38
-29.675378 -45.048881 80.409084 -0.542053 -0.840344 0.000000 1.75027152803718e-38
-28.217127 -46.033036 80.337167 -0.521185 -0.853444 0.000000 1.75027152803718e-38
-26.883527 -46.744800 80.392719 -0.500000 -0.866025 0.000000 1.75027152803718e-38
-25.986649 -46.603669 80.715152 -0.478512 -0.878081 0.000000 1.75027152803718e-38
-24.434737 -48.011545 80.658810 -0.456733 -0.889604 0.000000 1.75027152803718e-38
-34.205420 -41.606659 81.324286 -0.641213 -0.767363 0.000000 1.75027152803718e-38
-33.327290 -42.294524 81.594472 -0.622113 -0.782928 0.000000 1.75027152803718e-38
-32.253156 -43.193162 81.768603 -0.602635 -0.798017 0.000000 1.75027152803718e-38
-31.438291 -42.930119 81.609197 -0.582791 -0.812622 0.000000 1.75027152803718e-38
-30.114098 -44.741083 81.784497 -0.562593 -0.826734 0.000000 1.75027152803718e-38
-29.344257 -45.162565 81.620781 -0.542053 -0.840344 0.000000 1.75027152803718e-38
-28.006954 -46.335723 81.410493 -0.521185 -0.853444 0.000000 1.75027152803718e-38
-27.578072 -46.678928 81.454787 -0.500000 -0.866025 0.000000 1.75027152803718e-38
-25.193848 -47.581705 82.023405 -0.478512 -0.878081 0.000000 1.75027152803718e-38
-24.332540 -48.136352 81.428464 -0.456733 -0.889604 0.000000 1.75027152803718e-38
-32.431460 -43.310560 82.860909 -0.602635 -0.798017 0.000000 1.75027152803718e-38
-32.036015 -44.201259 83.162801 -0.582791 -0.812622 0.000000 1.75027152803718e-38
-30.089959 -44.890619 83.146738 -0.562593 -0.826734 0.000000 1.75027152803718e-38
-28.971048 -45.852802 82.981833 -0.542053 -0.840344 0.000000 1.75027152803718e-38
-28.206589 -45.959476 82.636062 -0.521185 -0.853444 0.000000 1.75027152803718e-38
-27.020126 -47.041772 83.014089 -0.500000 -0.866025 0.000000 1.75027152803718e-38
-25.583111 -47.174874 83.255652 -0.478512 -0.878081 0.000000 1.75027152803718e-38
-25.065542 -48.384820 83.188505 -0.456733 -0.889604 0.000000 1.75027152803718e-38
-31.186514 -44.347253 83.977900 -0.582791 -0.812622 0.000000 1.75027152803718e-38
-30.965564 -44.680718 83.856072 -0.562593 -0.826734 0.000000 1.75027152803718e-38
-29.512146 -45.644295 83.654670 -0.542053 -0.840344 0.000000 1.75027152803718e-38
-28.133979 -46.148235 84.206747 -0.521185 -0.853444 0.000000 1.75027152803718e-38
-27.240049 -47.145729 84.543775 -0.500000 -0.866025 0.000000 1.75027152803718e-38
-26.028436 -47.798276 83.917720 -0.478512 -0.878081 0.000000 1.75027152803718e-38
-25.698787 -48.090492 84.122844 -0.456733 -0.889604 0.000000 1.75027152803718e-38
-29.684064 -46.048933 85.238787 -0.542053 -0.840344 0.000000 1.75027152803718e-38
-28.670560 -46.516654 85.910202 -0.521185 -0.853444 0.000000 1.75027152803718e-38
-27.203068 -47.125055 85.685502 -0.500000 -0.866025 0.000000 1.75027152803718e-38
-26.272431 -48.503604 85.361706 -0.478512 -0.878081 0.000000 1.75027152803718e-38
