# .PCD v0.7 - Point Cloud Data file format
VERSION 0.7
FIELDS x y z normal_x normal_y normal_z rgb
SIZE 4 4 4 4 4 4 4
TYPE F F F F F F F
COUNT 1 1 1 1 1 1 1
WIDTH 218
HEIGHT 1
VIEWPOINT 0 0 0 1 0 0 0
POINTS 218
DATA ascii
4.932886 -14.876325 0.072493 0.332354 -0.943151 -0.002570 1.6580765988230895e-38
5.503660 -14.519523 -0.132196 0.355490 -0.934677 -0.002570 1.6580765988230895e-38
6.064209 -14.729529 -0.185900 0.378410 -0.925635 -0.002570 1.6580765988230895e-38
6.558965 -14.816573 -0.123491 0.401100 -0.916031 -0.002570 1.6580765988230895e-38
7.185569 -14.806151 -0.723834 0.423547 -0.905870 -0.002570 1.6580765988230895e-38
7.615095 -13.557814 -0.121581 0.445737 -0.895160 -0.002570 1.6580765988230895e-38
6.901470 -14.235701 -0.085867 0.467656 -0.883907 -0.002570 1.6580765988230895e-38
7.771710 -14.287929 0.173868 0.489291 -0.872117 -0.002570 1.6580765988230895e-38
8.327451 -14.205119 0.209759 0.510630 -0.859797 -0.002570 1.6580765988230895e-38
9.122357 -13.499743 -0.101198 0.531658 -0.846955 -0.002570 1.6580765988230895e-38
8.795239 -13.153061 -0.519201 0.552363 -0.833600 -0.002570 1.6580765988230895e-38
9.213079 -13.232987 0.554348 0.572733 -0.819738 -0.002570 1.6580765988230895e-38
9.431870 -12.385728 -0.331122 0.592756 -0.805378 -0.002570 1.6580765988230895e-38
9.974901 -12.552699 -0.260714 0.612418 -0.790530 -0.002570 1.6580765988230895e-38
10.160595 -12.039508 -0.097138 0.631709 -0.775201 -0.002570 1.6580765988230895e-38
9.902304 -12.155748 -0.270727 0.650616 -0.759402 -0.002570 1.6580765988230895e-38
10.603387 -11.914794 -0.511696 0.669128 -0.743142 -0.002570 1.6580765988230895e-38
10.511089 -11.478317 -0.156816 0.687234 -0.726431 -0.002570 1.6580765988230895e-38
10.509385 -11.113048 0.081711 0.704923 -0.709279 -0.002570 1.6580765988230895e-38
11.340821 -11.462224 0.250742 0.722184 -0.691696 -0.002570 1.6580765988230895e-38
11.928948 -10.064350 0.126057 0.739006 -0.673693 -0.002570 1.6580765988230895e-38
12.202435 -10.534620 0.245033 0.755380 -0.655282 -0.002570 1.6580765988230895e-38
12.528293 -9.808070 -0.156397 0.771295 -0.636472 -0.002570 1.6580765988230895e-38
5.898138 -16.554047 1.141882 0.233938 -0.663867 -0.710320 1.6580765988230895e-38
5.865912 -16.078543 1.265368 0.250223 -0.657902 -0.710320 1.6580765988230895e-38
6.671323 -15.728425 1.338034 0.266356 -0.651537 -0.710320 1.6580765988230895e-38
6.399515 -15.444218 1.680331 0.282327 -0.644777 -0.710320 1.6580765988230895e-38
6.885008 -14.934917 0.675748 0.298127 -0.637626 -0.710320 1.6580765988230895e-38
7.975706 -14.714570 1.182363 0.313746 -0.630087 -0.710320 1.6580765988230895e-38
7.954407 -15.131054 1.591873 0.329175 -0.622166 -0.710320 1.6580765988230895e-38
8.044556 -14.573142 1.089617 0.344403 -0.613867 -0.710320 1.6580765988230895e-38
8.322621 -14.098523 1.313885 0.359423 -0.605195 -0.710320 1.6580765988230895e-38
9.042248 -14.095880 1.391073 0.374224 -0.596156 -0.710320 1.6580765988230895e-38
9.065605 -13.202083 0.766734 0.388798 -0.586755 -0.710320 1.6580765988230895e-38
9.908497 -13.229971 0.981466 0.403136 -0.576998 -0.710320 1.6580765988230895e-38
10.532168 -13.102755 1.528455 0.417230 -0.566891 -0.710320 1.6580765988230895e-38
10.198975 -13.219494 1.174291 0.431070 -0.556439 -0.710320 1.6580765988230895e-38
10.628724 -12.478907 1.291508 0.444648 -0.545650 -0.710320 1.6580765988230895e-38
10.552746 -12.389041 1.513459 0.457957 -0.534529 -0.710320 1.6580765988230895e-38
11.330618 -12.142155 1.155835 0.470987 -0.523084 -0.710320 1.6580765988230895e-38
11.156806 -12.348190 0.746474 0.483732 -0.511322 -0.710320 1.6580765988230895e-38
11.800927 -11.827356 1.105117 0.496183 -0.499248 -0.710320 1.6580765988230895e-38
11.130375 -11.883940 1.573366 0.508332 -0.486872 -0.710320 1.6580765988230895e-38
12.097596 -11.102004 0.819908 0.520173 -0.474200 -0.710320 1.6580765988230895e-38
13.001053 -10.947021 1.324126 0.531698 -0.461241 -0.710320 1.6580765988230895e-38
13.532002 -10.135892 1.145144 0.542901 -0.448001 -0.710320 1.6580765988230895e-38
5.899530 -17.615508 2.755198 0.166229 -0.471725 -0.865935 1.6580765988230895e-38
6.423675 -17.138753 2.455174 0.177801 -0.467486 -0.865935 1.6580765988230895e-38
7.173650 -17.264814 2.151555 0.189265 -0.462964 -0.865935 1.6580765988230895e-38
7.438483 -16.654006 2.573986 0.200614 -0.458160 -0.865935 1.6580765988230895e-38
7.540874 -16.444331 2.251069 0.211841 -0.453078 -0.865935 1.6580765988230895e-38
8.035040 -16.733938 2.864574 0.222939 -0.447722 -0.865935 1.6580765988230895e-38
8.784346 -16.062443 2.848390 0.233902 -0.442093 -0.865935 1.6580765988230895e-38
9.835715 -16.540036 2.252714 0.244723 -0.436196 -0.865935 1.6580765988230895e-38
9.199209 -16.056111 2.150952 0.255396 -0.430034 -0.865935 1.6580765988230895e-38
9.680610 -15.929851 2.574740 0.265913 -0.423612 -0.865935 1.6580765988230895e-38
10.166528 -15.175116 2.626545 0.276269 -0.416932 -0.865935 1.6580765988230895e-38
10.706271 -15.176702 3.110570 0.286457 -0.409999 -0.865935 1.6580765988230895e-38
10.963659 -15.359533 2.173514 0.296472 -0.402817 -0.865935 1.6580765988230895e-38
10.732525 -14.522711 2.437685 0.306306 -0.395390 -0.865935 1.6580765988230895e-38
11.468663 -13.642937 2.638922 0.315954 -0.387723 -0.865935 1.6580765988230895e-38
12.174487 -14.235192 2.174483 0.325411 -0.379821 -0.865935 1.6580765988230895e-38
12.307906 -13.605150 1.917333 0.334670 -0.371689 -0.865935 1.6580765988230895e-38
12.575515 -13.345721 2.409682 0.343726 -0.363330 -0.865935 1.6580765988230895e-38
12.710665 -13.196590 2.421169 0.352573 -0.354752 -0.865935 1.6580765988230895e-38
13.299132 -12.530165 2.798484 0.361206 -0.345957 -0.865935 1.6580765988230895e-38
13.492740 -12.517605 2.605524 0.369620 -0.336953 -0.865935 1.6580765988230895e-38
14.065206 -12.172658 2.711345 0.377810 -0.327744 -0.865935 1.6580765988230895e-38
6.740406 -18.974396 3.711004 0.150974 -0.428433 -0.890872 1.6580765988230895e-38
6.694737 -19.257981 4.294720 0.161484 -0.424583 -0.890872 1.6580765988230895e-38
8.312897 -18.628565 3.405412 0.171895 -0.420476 -0.890872 1.6580765988230895e-38
8.583880 -19.195468 3.778627 0.182202 -0.416113 -0.890872 1.6580765988230895e-38
8.393417 -18.961702 3.508466 0.192399 -0.411498 -0.890872 1.6580765988230895e-38
9.504610 -18.306252 3.794386 0.202479 -0.406633 -0.890872 1.6580765988230895e-38
9.284051 -18.406802 3.487505 0.212436 -0.401521 -0.890872 1.6580765988230895e-38
10.398333 -17.715579 4.028256 0.222264 -0.396165 -0.890872 1.6580765988230895e-38
10.352962 -18.635649 3.181252 0.231957 -0.390569 -0.890872 1.6580765988230895e-38
11.441691 -17.668106 3.486123 0.241509 -0.384735 -0.890872 1.6580765988230895e-38
11.936988 -16.891468 3.718675 0.250915 -0.378668 -0.890872 1.6580765988230895e-38
11.778209 -17.023448 3.779489 0.260168 -0.372371 -0.890872 1.6580765988230895e-38
12.761080 -16.559569 3.929149 0.269263 -0.365848 -0.890872 1.6580765988230895e-38
13.039227 -16.729572 3.937799 0.278195 -0.359103 -0.890872 1.6580765988230895e-38
12.999753 -16.815915 3.072889 0.286958 -0.352140 -0.890872 1.6580765988230895e-38
13.174419 -15.574387 3.745480 0.295547 -0.344964 -0.890872 1.6580765988230895e-38
13.918713 -14.811585 3.330613 0.303956 -0.337577 -0.890872 1.6580765988230895e-38
14.230304 -14.959305 3.490458 0.312181 -0.329986 -0.890872 1.6580765988230895e-38
14.613519 -15.175251 4.134312 0.320216 -0.322195 -0.890872 1.6580765988230895e-38
14.758157 -13.721555 3.701598 0.328057 -0.314208 -0.890872 1.6580765988230895e-38
15.619594 -13.973974 3.702117 0.335699 -0.306030 -0.890872 1.6580765988230895e-38
15.475211 -13.540781 3.806740 0.343137 -0.297666 -0.890872 1.6580765988230895e-38
7.969334 -21.471434 4.758477 0.185622 -0.488051 -0.852849 1.6580765988230895e-38
8.870986 -21.246358 4.813967 0.197590 -0.483329 -0.852849 1.6580765988230895e-38
8.909297 -20.986188 4.584638 0.209438 -0.478314 -0.852849 1.6580765988230895e-38
9.868819 -20.044916 5.353505 0.221159 -0.473009 -0.852849 1.6580765988230895e-38
10.466390 -20.612237 4.366828 0.232746 -0.467417 -0.852849 1.6580765988230895e-38
10.358289 -19.942912 4.711527 0.244191 -0.461541 -0.852849 1.6580765988230895e-38
11.042758 -20.106299 4.629840 0.255488 -0.455384 -0.852849 1.6580765988230895e-38
11.375231 -19.788424 4.680995 0.266630 -0.448951 -0.852849 1.6580765988230895e-38
12.004555 -19.712313 5.105162 0.277610 -0.442246 -0.852849 1.6580765988230895e-38
12.633398 -19.224377 5.127537 0.288422 -0.435272 -0.852849 1.6580765988230895e-38
13.128888 -18.935491 5.089589 0.299058 -0.428034 -0.852849 1.6580765988230895e-38
13.832427 -18.565903 4.972636 0.309513 -0.420536 -0.852849 1.6580765988230895e-38
13.849622 -18.438506 5.179198 0.319780 -0.412783 -0.852849 1.6580765988230895e-38
14.661282 -17.691196 5.032710 0.329853 -0.404779 -0.852849 1.6580765988230895e-38
14.976482 -17.255522 5.228986 0.339726 -0.396529 -0.852849 1.6580765988230895e-38
15.661727 -17.120737 5.364551 0.349392 -0.388039 -0.852849 1.6580765988230895e-38
15.873292 -16.516473 5.033080 0.358846 -0.379313 -0.852849 1.6580765988230895e-38
16.285656 -16.532451 5.158859 0.368083 -0.370357 -0.852849 1.6580765988230895e-38
17.462101 -16.019802 4.969752 0.377096 -0.361176 -0.852849 1.6580765988230895e-38
16.861526 -15.639749 5.411788 0.385880 -0.351776 -0.852849 1.6580765988230895e-38
9.423444 -22.733720 6.605677 0.289609 -0.708418 -0.643639 1.6580765988230895e-38
9.855612 -22.734174 6.111501 0.306975 -0.701068 -0.643639 1.6580765988230895e-38
10.001761 -22.132142 6.362522 0.324154 -0.693292 -0.643639 1.6580765988230895e-38
11.690913 -22.177425 6.105229 0.341137 -0.685095 -0.643639 1.6580765988230895e-38
11.315902 -21.650781 6.300074 0.357912 -0.676482 -0.643639 1.6580765988230895e-38
12.004118 -21.098876 6.000473 0.374470 -0.667459 -0.643639 1.6580765988230895e-38
12.840185 -20.960575 6.181958 0.390801 -0.658030 -0.643639 1.6580765988230895e-38
12.966440 -20.078653 5.940464 0.406895 -0.648202 -0.643639 1.6580765988230895e-38
13.658959 -20.703615 6.721253 0.422741 -0.637981 -0.643639 1.6580765988230895e-38
14.336047 -20.341518 6.339346 0.438331 -0.627372 -0.643639 1.6580765988230895e-38
14.639186 -19.940239 6.413016 0.453655 -0.616382 -0.643639 1.6580765988230895e-38
15.161707 -19.355769 6.172991 0.468703 -0.605018 -0.643639 1.6580765988230895e-38
15.648136 -18.975099 6.203295 0.483467 -0.593287 -0.643639 1.6580765988230895e-38
15.790998 -18.147660 5.870441 0.497937 -0.581195 -0.643639 1.6580765988230895e-38
16.566373 -18.352411 6.713431 0.512105 -0.568751 -0.643639 1.6580765988230895e-38
16.611837 -18.066384 5.894622 0.525963 -0.555961 -0.643639 1.6580765988230895e-38
17.414471 -17.836352 6.042008 0.539500 -0.542834 -0.643639 1.6580765988230895e-38
17.095759 -16.920364 6.035503 0.552711 -0.529377 -0.643639 1.6580765988230895e-38
10.189780 -23.117352 7.187860 0.400998 -0.915798 -0.022677 1.6580765988230895e-38
10.948732 -22.383867 7.603145 0.423440 -0.905640 -0.022677 1.6580765988230895e-38
11.422278 -22.974527 7.828831 0.445624 -0.894933 -0.022677 1.6580765988230895e-38
11.810240 -21.796741 7.538829 0.467537 -0.883682 -0.022677 1.6580765988230895e-38
12.248236 -21.887783 7.532824 0.489167 -0.871895 -0.022677 1.6580765988230895e-38
12.673545 -21.236805 6.946743 0.510500 -0.859579 -0.022677 1.6580765988230895e-38
13.130357 -20.562647 7.234856 0.531523 -0.846740 -0.022677 1.6580765988230895e-38
13.738914 -21.106939 7.523434 0.552223 -0.833388 -0.022677 1.6580765988230895e-38
14.098946 -20.551266 7.677340 0.572588 -0.819530 -0.022677 1.6580765988230895e-38
14.610808 -19.899974 7.669349 0.592605 -0.805174 -0.022677 1.6580765988230895e-38
15.628539 -19.723145 8.395058 0.612263 -0.790329 -0.022677 1.6580765988230895e-38
16.110731 -19.284594 7.159903 0.631549 -0.775005 -0.022677 1.6580765988230895e-38
16.237983 -18.559143 7.935541 0.650451 -0.759210 -0.022677 1.6580765988230895e-38
17.173454 -18.344940 7.045982 0.668959 -0.742954 -0.022677 1.6580765988230895e-38
17.328801 -18.535095 6.976439 0.687060 -0.726247 -0.022677 1.6580765988230895e-38
17.696667 -17.576864 7.693694 0.704744 -0.709099 -0.022677 1.6580765988230895e-38
18.205626 -17.134732 7.127285 0.722001 -0.691521 -0.022677 1.6580765988230895e-38
10.572640 -22.533697 7.916167 0.418968 -0.896076 -0.146677 1.6580765988230895e-38
11.362264 -22.524512 8.515362 0.440917 -0.885482 -0.146677 1.6580765988230895e-38
11.796416 -22.342294 8.022631 0.462600 -0.874350 -0.146677 1.6580765988230895e-38
12.562030 -21.824609 8.565611 0.484001 -0.862687 -0.146677 1.6580765988230895e-38
12.531270 -22.029144 8.726962 0.505108 -0.850501 -0.146677 1.6580765988230895e-38
13.833144 -21.204804 8.244965 0.525909 -0.837798 -0.146677 1.6580765988230895e-38
13.936528 -20.946414 8.919007 0.546391 -0.824587 -0.146677 1.6580765988230895e-38
14.562475 -21.478108 8.823366 0.566541 -0.810875 -0.146677 1.6580765988230895e-38
14.582143 -20.648334 8.603252 0.586347 -0.796670 -0.146677 1.6580765988230895e-38
15.500175 -20.341214 8.871167 0.605797 -0.781982 -0.146677 1.6580765988230895e-38
16.090246 -19.450028 8.399507 0.624879 -0.766820 -0.146677 1.6580765988230895e-38
16.042162 -18.759653 8.206427 0.643581 -0.751192 -0.146677 1.6580765988230895e-38
17.120131 -18.708727 8.631043 0.661894 -0.735107 -0.146677 1.6580765988230895e-38
16.742978 -18.283590 8.843869 0.679804 -0.718577 -0.146677 1.6580765988230895e-38
17.298620 -17.659319 8.686497 0.697301 -0.701610 -0.146677 1.6580765988230895e-38
11.516579 -22.752270 9.657407 0.430108 -0.863774 -0.262492 1.6580765988230895e-38
12.043787 -22.442786 10.043580 0.451259 -0.852915 -0.262492 1.6580765988230895e-38
12.276540 -22.487226 10.417429 0.472135 -0.841538 -0.262492 1.6580765988230895e-38
13.418004 -21.546821 9.780564 0.492726 -0.829650 -0.262492 1.6580765988230895e-38
13.397384 -21.071483 9.790758 0.513016 -0.817259 -0.262492 1.6580765988230895e-38
13.822983 -20.585692 9.882604 0.532996 -0.804371 -0.262492 1.6580765988230895e-38
15.060041 -21.215222 10.052363 0.552652 -0.790996 -0.262492 1.6580765988230895e-38
15.658781 -20.422496 9.817706 0.571972 -0.777140 -0.262492 1.6580765988230895e-38
15.185944 -19.730032 9.665869 0.590945 -0.762812 -0.262492 1.6580765988230895e-38
15.997209 -20.036224 10.363976 0.609560 -0.748021 -0.262492 1.6580765988230895e-38
16.851770 -19.274548 9.550663 0.627804 -0.732776 -0.262492 1.6580765988230895e-38
17.435708 -18.962356 9.565346 0.645667 -0.717086 -0.262492 1.6580765988230895e-38
16.905627 -18.622424 9.460516 0.663138 -0.700961 -0.262492 1.6580765988230895e-38
12.186556 -23.238123 10.342537 0.435342 -0.822831 -0.365277 1.6580765988230895e-38
12.727262 -22.353934 11.276671 0.455482 -0.811855 -0.365277 1.6580765988230895e-38
13.006620 -21.718770 10.996057 0.475346 -0.800387 -0.365277 1.6580765988230895e-38
13.832474 -21.656238 11.649643 0.494921 -0.788432 -0.365277 1.6580765988230895e-38
14.144890 -21.686273 10.684577 0.514196 -0.776000 -0.365277 1.6580765988230895e-38
15.230853 -21.006531 11.269939 0.533159 -0.763096 -0.365277 1.6580765988230895e-38
16.216335 -20.665251 10.743324 0.551797 -0.749728 -0.365277 1.6580765988230895e-38
15.729455 -20.672403 11.015260 0.570101 -0.735906 -0.365277 1.6580765988230895e-38
16.164767 -20.160908 10.716036 0.588059 -0.721637 -0.365277 1.6580765988230895e-38
17.250726 -19.487846 11.066379 0.605660 -0.706929 -0.365277 1.6580765988230895e-38
17.477515 -19.016994 11.216728 0.622893 -0.691793 -0.365277 1.6580765988230895e-38
17.922499 -18.687317 11.335087 0.639748 -0.676236 -0.365277 1.6580765988230895e-38
12.584876 -22.740738 12.175918 0.436256 -0.777586 -0.452813 1.6580765988230895e-38
13.589422 -22.702562 12.840871 0.455281 -0.766602 -0.452813 1.6580765988230895e-38
13.877155 -22.253172 12.553112 0.474030 -0.755152 -0.452813 1.6580765988230895e-38
14.285721 -21.976854 12.291159 0.492492 -0.743244 -0.452813 1.6580765988230895e-38
14.930264 -21.721826 12.704738 0.510654 -0.730885 -0.452813 1.6580765988230895e-38
15.432184 -21.041792 12.465513 0.528506 -0.718082 -0.452813 1.6580765988230895e-38
15.710519 -20.664891 11.947080 0.546037 -0.704843 -0.452813 1.6580765988230895e-38
16.826112 -20.569087 12.373644 0.563237 -0.691176 -0.452813 1.6580765988230895e-38
16.747371 -19.964107 12.649219 0.580095 -0.677089 -0.452813 1.6580765988230895e-38
17.381133 -19.754722 12.507520 0.596600 -0.662592 -0.452813 1.6580765988230895e-38
13.940017 -23.382791 14.203734 0.434568 -0.731725 -0.525098 1.6580765988230895e-38
14.152255 -22.932508 13.799996 0.452464 -0.720797 -0.525098 1.6580765988230895e-38
15.200258 -22.152345 13.736796 0.470086 -0.709430 -0.525098 1.6580765988230895e-38
15.798603 -22.360407 13.883672 0.487421 -0.697633 -0.525098 1.6580765988230895e-38
16.296035 -21.318812 13.107717 0.504461 -0.685413 -0.525098 1.6580765988230895e-38
16.284021 -21.124321 12.812838 0.521195 -0.672776 -0.525098 1.6580765988230895e-38
17.225285 -20.638933 13.435335 0.537612 -0.659731 -0.525098 1.6580765988230895e-38
17.459766 -20.852003 13.451783 0.553703 -0.646285 -0.525098 1.6580765988230895e-38
17.941515 -20.295039 13.386944 0.569458 -0.632447 -0.525098 1.6580765988230895e-38
14.558981 -23.570371 14.810019 0.431774 -0.687837 -0.583482 1.6580765988230895e-38
16.308824 -23.628682 14.807831 0.448590 -0.676990 -0.583482 1.6580765988230895e-38
15.529818 -22.955073 14.741233 0.465133 -0.665732 -0.583482 1.6580765988230895e-38
16.768246 -22.573566 14.787965 0.481394 -0.654071 -0.583482 1.6580765988230895e-38
16.933505 -22.445289 14.649730 0.497362 -0.642012 -0.583482 1.6580765988230895e-38
17.485479 -21.575761 15.013045 0.513029 -0.629563 -0.583482 1.6580765988230895e-38
18.056456 -21.233385 14.329117 0.528384 -0.616732 -0.583482 1.6580765988230895e-38
15.381960 -23.865976 16.468713 0.429020 -0.647456 -0.629875 1.6580765988230895e-38
16.672273 -23.817867 15.844153 0.444841 -0.636690 -0.629875 1.6580765988230895e-38
17.166093 -23.247372 16.215387 0.460393 -0.625537 -0.629875 1.6580765988230895e-38
17.823093 -22.446059 15.742837 0.475665 -0.614004 -0.629875 1.6580765988230895e-38
18.264791 -22.441087 16.052884 0.490648 -0.602098 -0.629875 1.6580765988230895e-38
17.845950 -23.678060 16.975474 0.456712 -0.589539 -0.666227 1.6580765988230895e-38
18.841571 -23.300460 16.962478 0.471098 -0.578108 -0.666227 1.6580765988230895e-38
