# .PCD v0.7 - Point Cloud Data file format
VERSION 0.7
FIELDS x y z normal_x normal_y normal_z rgb
SIZE 4 4 4 4 4 4 4
TYPE F F F F F F F
COUNT 1 1 1 1 1 1 1
WIDTH 337
HEIGHT 1
VIEWPOINT 0 0 0 1 0 0 0
POINTS 337
DATA ascii
-3.332913 43.864705 19.999471 -0.079994 0.996795 0.000000 1.6580765988230895e-38
-2.520055 43.502706 21.340710 -0.055411 0.998464 0.000000 1.6580765988230895e-38
-3.113643 44.070262 20.543456 -0.079994 0.996795 0.000000 1.6580765988230895e-38
-4.815081 43.579028 20.894718 -0.104528 0.994522 0.000000 1.6580765988230895e-38
-1.438808 43.406806 22.097073 -0.030795 0.999526 0.000000 1.6580765988230895e-38
-2.633582 42.903317 21.965452 -0.055411 0.998464 0.000000 1.6580765988230895e-38
-3.018189 43.709201 22.155084 -0.079994 0.996795 0.000000 1.6580765988230895e-38
-4.452405 42.913163 22.352671 -0.104528 0.994522 0.000000 1.6580765988230895e-38
-5.259022 43.337004 21.736444 -0.128999 0.991645 0.000000 1.6580765988230895e-38
-6.833347 43.604940 22.345630 -0.153392 0.988165 0.000000 1.6580765988230895e-38
0.148837 43.844069 23.948098 -0.006160 0.999981 0.000000 1.6580765988230895e-38
-1.239211 43.969170 24.226687 -0.030795 0.999526 0.000000 1.6580765988230895e-38
-1.935418 44.311945 23.265871 -0.055411 0.998464 0.000000 1.6580765988230895e-38
-2.852155 43.710500 23.436907 -0.079994 0.996795 0.000000 1.6580765988230895e-38
-5.234042 43.733304 23.180148 -0.104528 0.994522 0.000000 1.6580765988230895e-38
-5.537464 43.160708 24.044465 -0.128999 0.991645 0.000000 1.6580765988230895e-38
-6.564705 44.040485 23.198247 -0.153392 0.988165 0.000000 1.6580765988230895e-38
-7.331575 42.636735 23.567577 -0.177691 0.984086 0.000000 1.6580765988230895e-38
0.650050 43.851174 24.635790 0.018479 0.999829 0.000000 1.6580765988230895e-38
-0.175131 43.684967 24.656824 -0.006160 0.999981 0.000000 1.6580765988230895e-38
-1.197990 44.063873 24.856512 -0.030795 0.999526 0.000000 1.6580765988230895e-38
-2.536358 44.159661 25.059193 -0.055411 0.998464 0.000000 1.6580765988230895e-38
-3.222349 44.006395 25.023936 -0.079994 0.996795 0.000000 1.6580765988230895e-38
-4.339939 44.580990 25.107688 -0.104528 0.994522 0.000000 1.6580765988230895e-38
-5.705063 43.377881 24.663926 -0.128999 0.991645 0.000000 1.6580765988230895e-38
-6.851710 43.651659 24.532191 -0.153392 0.988165 0.000000 1.6580765988230895e-38
-7.464157 42.901804 24.252511 -0.177691 0.984086 0.000000 1.6580765988230895e-38
-8.927233 42.860046 24.364798 -0.201882 0.979410 0.000000 1.6580765988230895e-38
1.733795 44.231998 26.045431 0.043107 0.999070 0.000000 1.6580765988230895e-38
1.116266 44.826931 26.435673 0.018479 0.999829 0.000000 1.6580765988230895e-38
-0.343676 44.326651 26.167799 -0.006160 0.999981 0.000000 1.6580765988230895e-38
-1.366210 43.819129 25.739749 -0.030795 0.999526 0.000000 1.6580765988230895e-38
-2.103016 44.476390 25.917111 -0.055411 0.998464 0.000000 1.6580765988230895e-38
-3.454938 44.386491 25.468101 -0.079994 0.996795 0.000000 1.6580765988230895e-38
-4.750809 44.532258 26.069174 -0.104528 0.994522 0.000000 1.6580765988230895e-38
-6.036513 43.834999 26.285812 -0.128999 0.991645 0.000000 1.6580765988230895e-38
-7.539094 43.699027 25.867657 -0.153392 0.988165 0.000000 1.6580765988230895e-38
-8.341007 43.490548 25.938437 -0.177691 0.984086 0.000000 1.6580765988230895e-38
-8.924143 43.154933 25.672980 -0.201882 0.979410 0.000000 1.6580765988230895e-38
-10.416451 42.819383 26.237157 -0.225951 0.974139 0.000000 1.6580765988230895e-38
-10.967125 42.746895 25.667451 -0.249883 0.968276 0.000000 1.6580765988230895e-38
3.233404 44.438579 26.767080 0.067708 0.997705 0.000000 1.6580765988230895e-38
1.162929 44.666033 27.348152 0.043107 0.999070 0.000000 1.6580765988230895e-38
0.812598 44.525379 27.794688 0.018479 0.999829 0.000000 1.6580765988230895e-38
0.151022 44.612479 26.950477 -0.006160 0.999981 0.000000 1.6580765988230895e-38
-1.592018 43.587710 27.406549 -0.030795 0.999526 0.000000 1.6580765988230895e-38
-2.123506 44.613607 27.419124 -0.055411 0.998464 0.000000 1.6580765988230895e-38
-3.591938 44.013325 26.968885 -0.079994 0.996795 0.000000 1.6580765988230895e-38
-4.682215 43.788491 27.743281 -0.104528 0.994522 0.000000 1.6580765988230895e-38
-6.108557 43.895192 26.635629 -0.128999 0.991645 0.000000 1.6580765988230895e-38
-6.710066 43.799377 27.109458 -0.153392 0.988165 0.000000 1.6580765988230895e-38
-8.155926 43.620025 27.053157 -0.177691 0.984086 0.000000 1.6580765988230895e-38
-8.989428 43.999228 27.268148 -0.201882 0.979410 0.000000 1.6580765988230895e-38
-9.855352 43.039017 26.981164 -0.225951 0.974139 0.000000 1.6580765988230895e-38
-11.082864 43.669678 27.130267 -0.249883 0.968276 0.000000 1.6580765988230895e-38
-12.021586 42.384069 26.389913 -0.273663 0.961826 0.000000 1.6580765988230895e-38
2.376267 44.349301 28.211046 0.067708 0.997705 0.000000 1.6580765988230895e-38
1.781658 44.043621 28.578465 0.043107 0.999070 0.000000 1.6580765988230895e-38
1.350593 44.558313 27.805793 0.018479 0.999829 0.000000 1.6580765988230895e-38
-0.188355 44.427166 28.123304 -0.006160 0.999981 0.000000 1.6580765988230895e-38
-1.263874 44.729232 28.253060 -0.030795 0.999526 0.000000 1.6580765988230895e-38
-2.958177 43.814552 28.253903 -0.055411 0.998464 0.000000 1.6580765988230895e-38
-3.605307 44.189036 28.248624 -0.079994 0.996795 0.000000 1.6580765988230895e-38
-4.479725 44.381549 28.513486 -0.104528 0.994522 0.000000 1.6580765988230895e-38
-5.493765 43.917812 28.125240 -0.128999 0.991645 0.000000 1.6580765988230895e-38
-6.980543 43.782536 27.838221 -0.153392 0.988165 0.000000 1.6580765988230895e-38
-8.068503 44.109916 28.693864 -0.177691 0.984086 0.000000 1.6580765988230895e-38
-8.823467 43.609902 28.888278 -0.201882 0.979410 0.000000 1.6580765988230895e-38
-10.369810 43.046473 28.790897 -0.225951 0.974139 0.000000 1.6580765988230895e-38
-11.108114 42.873764 28.619186 -0.249883 0.968276 0.000000 1.6580765988230895e-38
-12.305822 42.536905 28.194003 -0.273663 0.961826 0.000000 1.6580765988230895e-38
-13.128313 42.536975 28.908632 -0.297277 0.954791 0.000000 1.6580765988230895e-38
4.171246 43.979190 30.095841 0.092268 0.995734 0.000000 1.6580765988230895e-38
2.960022 44.393198 29.597577 0.067708 0.997705 0.000000 1.6580765988230895e-38
1.810233 44.255373 29.740207 0.043107 0.999070 0.000000 1.6580765988230895e-38
0.645986 44.847575 29.846000 0.018479 0.999829 0.000000 1.6580765988230895e-38
0.212635 44.589596 29.449747 -0.006160 0.999981 0.000000 1.6580765988230895e-38
-1.816043 45.290758 29.889354 -0.030795 0.999526 0.000000 1.6580765988230895e-38
-2.682066 45.093274 30.097570 -0.055411 0.998464 0.000000 1.6580765988230895e-38
-3.977441 44.284789 29.651024 -0.079994 0.996795 0.000000 1.6580765988230895e-38
-4.988633 44.380340 29.904310 -0.104528 0.994522 0.000000 1.6580765988230895e-38
-6.172301 44.368736 30.041271 -0.128999 0.991645 0.000000 1.6580765988230895e-38
-6.729475 44.102790 29.490291 -0.153392 0.988165 0.000000 1.6580765988230895e-38
-7.685348 43.590250 29.763559 -0.177691 0.984086 0.000000 1.6580765988230895e-38
-9.007189 44.072182 29.515897 -0.201882 0.979410 0.000000 1.6580765988230895e-38
-10.238934 43.126561 29.821907 -0.225951 0.974139 0.000000 1.6580765988230895e-38
-11.285403 42.978711 29.460677 -0.249883 0.968276 0.000000 1.6580765988230895e-38
-12.058997 42.618410 29.386472 -0.273663 0.961826 0.000000 1.6580765988230895e-38
-13.005672 42.585352 29.977355 -0.297277 0.954791 0.000000 1.6580765988230895e-38
-14.428780 42.294857 29.737611 -0.320710 0.947177 0.000000 1.6580765988230895e-38
-14.942486 42.321285 30.036693 -0.343949 0.938988 0.000000 1.6580765988230895e-38
3.930379 44.901419 30.629327 0.092268 0.995734 0.000000 1.6580765988230895e-38
3.300184 44.754612 30.433352 0.067708 0.997705 0.000000 1.6580765988230895e-38
2.341683 44.878480 31.046073 0.043107 0.999070 0.000000 1.6580765988230895e-38
1.130528 45.269184 30.988143 0.018479 0.999829 0.000000 1.6580765988230895e-38
-0.090946 44.937577 30.824975 -0.006160 0.999981 0.000000 1.6580765988230895e-38
-1.855483 44.870288 31.341516 -0.030795 0.999526 0.000000 1.6580765988230895e-38
-2.308934 44.437973 31.257092 -0.055411 0.998464 0.000000 1.6580765988230895e-38
-3.678749 44.055808 31.233206 -0.079994 0.996795 0.000000 1.6580765988230895e-38
-4.969319 45.115723 31.272167 -0.104528 0.994522 0.000000 1.6580765988230895e-38
-5.850997 44.590336 31.655011 -0.128999 0.991645 0.000000 1.6580765988230895e-38
-6.576097 44.368024 31.794581 -0.153392 0.988165 0.000000 1.6580765988230895e-38
-7.930092 44.288253 30.646971 -0.177691 0.984086 0.000000 1.6580765988230895e-38
-9.552213 43.817731 30.939357 -0.201882 0.979410 0.000000 1.6580765988230895e-38
-10.029955 43.241850 31.126037 -0.225951 0.974139 0.000000 1.6580765988230895e-38
-11.450638 43.587600 31.208313 -0.249883 0.968276 0.000000 1.6580765988230895e-38
-12.386163 42.826681 31.390930 -0.273663 0.961826 0.000000 1.6580765988230895e-38
-13.064177 42.846092 31.368363 -0.297277 0.954791 0.000000 1.6580765988230895e-38
-14.351522 42.273035 30.627324 -0.320710 0.947177 0.000000 1.6580765988230895e-38
-15.450563 42.323615 31.344763 -0.343949 0.938988 0.000000 1.6580765988230895e-38
-16.443532 42.063393 30.863554 -0.366979 0.930229 0.000000 1.6580765988230895e-38
4.290615 45.370107 31.861968 0.092268 0.995734 0.000000 1.6580765988230895e-38
3.090255 44.531827 31.949362 0.067708 0.997705 0.000000 1.6580765988230895e-38
1.997971 44.816019 31.773291 0.043107 0.999070 0.000000 1.6580765988230895e-38
0.433280 44.432149 32.307924 0.018479 0.999829 0.000000 1.6580765988230895e-38
-0.097958 45.182548 31.892196 -0.006160 0.999981 0.000000 1.6580765988230895e-38
-1.084166 45.196324 32.167137 -0.030795 0.999526 0.000000 1.6580765988230895e-38
-2.540877 44.741755 32.222597 -0.055411 0.998464 0.000000 1.6580765988230895e-38
-3.115018 45.202764 32.088085 -0.079994 0.996795 0.000000 1.6580765988230895e-38
-4.542784 44.428661 32.383969 -0.104528 0.994522 0.000000 1.6580765988230895e-38
-6.054949 44.836677 33.055670 -0.128999 0.991645 0.000000 1.6580765988230895e-38
-7.074493 45.349856 32.312139 -0.153392 0.988165 0.000000 1.6580765988230895e-38
-8.221983 44.050794 32.874435 -0.177691 0.984086 0.000000 1.6580765988230895e-38
-8.937950 43.909113 32.103910 -0.201882 0.979410 0.000000 1.6580765988230895e-38
-10.039849 43.839111 32.268718 -0.225951 0.974139 0.000000 1.6580765988230895e-38
-10.714060 43.239488 32.358338 -0.249883 0.968276 0.000000 1.6580765988230895e-38
-12.338246 43.137861 32.486601 -0.273663 0.961826 0.000000 1.6580765988230895e-38
-13.817561 42.261061 32.232308 -0.297277 0.954791 0.000000 1.6580765988230895e-38
-14.475222 42.222465 31.651783 -0.320710 0.947177 0.000000 1.6580765988230895e-38
-14.900450 42.398673 32.170842 -0.343949 0.938988 0.000000 1.6580765988230895e-38
-15.857540 42.172180 32.695731 -0.366979 0.930229 0.000000 1.6580765988230895e-38
-17.896547 41.080721 32.350071 -0.389786 0.920906 0.000000 1.6580765988230895e-38
5.261490 45.126161 33.593149 0.116773 0.993159 0.000000 1.6580765988230895e-38
4.422434 44.853758 33.524732 0.092268 0.995734 0.000000 1.6580765988230895e-38
3.281053 44.620339 33.912570 0.067708 0.997705 0.000000 1.6580765988230895e-38
2.627746 45.431620 33.643826 0.043107 0.999070 0.000000 1.6580765988230895e-38
1.011679 45.084692 33.369011 0.018479 0.999829 0.000000 1.6580765988230895e-38
0.010957 44.896616 33.083847 -0.006160 0.999981 0.000000 1.6580765988230895e-38
-1.510810 45.364882 33.142281 -0.030795 0.999526 0.000000 1.6580765988230895e-38
-2.571638 45.088007 33.098501 -0.055411 0.998464 0.000000 1.6580765988230895e-38
-4.346826 44.736667 33.480328 -0.079994 0.996795 0.000000 1.6580765988230895e-38
-4.577740 45.090195 33.584934 -0.104528 0.994522 0.000000 1.6580765988230895e-38
-6.017321 44.559684 33.514579 -0.128999 0.991645 0.000000 1.6580765988230895e-38
-6.995208 44.926766 33.516474 -0.153392 0.988165 0.000000 1.6580765988230895e-38
-7.644609 44.330648 33.722322 -0.177691 0.984086 0.000000 1.6580765988230895e-38
-8.512550 44.275100 33.551854 -0.201882 0.979410 0.000000 1.6580765988230895e-38
-10.489770 44.288993 33.740779 -0.225951 0.974139 0.000000 1.6580765988230895e-38
-11.440408 43.931698 33.486204 -0.249883 0.968276 0.000000 1.6580765988230895e-38
-12.249441 43.707967 33.557732 -0.273663 0.961826 0.000000 1.6580765988230895e-38
-13.475470 43.396473 33.735619 -0.297277 0.954791 0.000000 1.6580765988230895e-38
-14.658974 42.801873 32.871454 -0.320710 0.947177 0.000000 1.6580765988230895e-38
-15.367779 42.799292 33.324873 -0.343949 0.938988 0.000000 1.6580765988230895e-38
-16.543535 41.970481 33.286893 -0.366979 0.930229 0.000000 1.6580765988230895e-38
-17.544553 41.379930 33.331479 -0.389786 0.920906 0.000000 1.6580765988230895e-38
5.652553 45.234322 34.154144 0.116773 0.993159 0.000000 1.6580765988230895e-38
4.413114 45.575784 34.691242 0.092268 0.995734 0.000000 1.6580765988230895e-38
3.666414 44.877860 34.844618 0.067708 0.997705 0.000000 1.6580765988230895e-38
1.650034 45.653669 34.823034 0.043107 0.999070 0.000000 1.6580765988230895e-38
1.378948 45.520451 34.517973 0.018479 0.999829 0.000000 1.6580765988230895e-38
-0.426849 45.302372 34.485958 -0.006160 0.999981 0.000000 1.6580765988230895e-38
-0.993294 45.739456 34.190205 -0.030795 0.999526 0.000000 1.6580765988230895e-38
-2.502970 45.327315 34.404787 -0.055411 0.998464 0.000000 1.6580765988230895e-38
-3.498527 45.671119 34.906718 -0.079994 0.996795 0.000000 1.6580765988230895e-38
-4.339202 44.914159 34.650128 -0.104528 0.994522 0.000000 1.6580765988230895e-38
-6.083458 45.070966 34.738011 -0.128999 0.991645 0.000000 1.6580765988230895e-38
-6.672699 45.235303 34.845868 -0.153392 0.988165 0.000000 1.6580765988230895e-38
-8.321363 44.250500 34.795181 -0.177691 0.984086 0.000000 1.6580765988230895e-38
-8.710921 44.436499 34.180957 -0.201882 0.979410 0.000000 1.6580765988230895e-38
-9.627855 44.351562 34.690518 -0.225951 0.974139 0.000000 1.6580765988230895e-38
-11.689653 43.943572 34.845241 -0.249883 0.968276 0.000000 1.6580765988230895e-38
-12.267451 43.442033 34.622056 -0.273663 0.961826 0.000000 1.6580765988230895e-38
-13.674716 43.826043 34.907637 -0.297277 0.954791 0.000000 1.6580765988230895e-38
-14.710581 42.630745 34.722520 -0.320710 0.947177 0.000000 1.6580765988230895e-38
-15.755658 42.484191 34.298611 -0.343949 0.938988 0.000000 1.6580765988230895e-38
-16.956291 42.261013 34.559112 -0.366979 0.930229 0.000000 1.6580765988230895e-38
-16.938861 41.967390 34.293667 -0.389786 0.920906 0.000000 1.6580765988230895e-38
-19.172714 41.460098 34.520115 -0.412356 0.911023 0.000000 1.6580765988230895e-38
5.809195 45.469386 36.002661 0.116773 0.993159 0.000000 1.6580765988230895e-38
3.890327 45.157140 36.279607 0.092268 0.995734 0.000000 1.6580765988230895e-38
3.227290 45.734477 35.898427 0.067708 0.997705 0.000000 1.6580765988230895e-38
1.879931 45.759621 35.954095 0.043107 0.999070 0.000000 1.6580765988230895e-38
0.791132 45.139999 36.162461 0.018479 0.999829 0.000000 1.6580765988230895e-38
-0.148713 45.389239 36.230064 -0.006160 0.999981 0.000000 1.6580765988230895e-38
-1.330248 45.629388 36.141457 -0.030795 0.999526 0.000000 1.6580765988230895e-38
-2.324599 45.590068 35.819713 -0.055411 0.998464 0.000000 1.6580765988230895e-38
-3.050397 45.205799 36.100080 -0.079994 0.996795 0.000000 1.6580765988230895e-38
-4.788727 45.458748 36.246316 -0.104528 0.994522 0.000000 1.6580765988230895e-38
-5.972224 45.371765 35.955956 -0.128999 0.991645 0.000000 1.6580765988230895e-38
-7.182752 45.410089 36.089645 -0.153392 0.988165 0.000000 1.6580765988230895e-38
-8.228095 45.177843 35.626863 -0.177691 0.984086 0.000000 1.6580765988230895e-38
-9.208862 44.504877 36.101682 -0.201882 0.979410 0.000000 1.6580765988230895e-38
-10.440953 44.620972 36.054627 -0.225951 0.974139 0.000000 1.6580765988230895e-38
-11.500238 44.675174 35.652718 -0.249883 0.968276 0.000000 1.6580765988230895e-38
-12.894069 44.089131 35.231466 -0.273663 0.961826 0.000000 1.6580765988230895e-38
-13.099950 43.542259 35.448193 -0.297277 0.954791 0.000000 1.6580765988230895e-38
-14.899940 42.674523 35.991154 -0.320710 0.947177 0.000000 1.6580765988230895e-38
-16.072508 42.942188 35.784841 -0.343949 0.938988 0.000000 1.6580765988230895e-38
-16.866560 42.545197 36.063342 -0.366979 0.930229 0.000000 1.6580765988230895e-38
-17.419574 41.777356 35.867346 -0.389786 0.920906 0.000000 1.6580765988230895e-38
-18.982493 41.566004 35.642802 -0.412356 0.911023 0.000000 1.6580765988230895e-38
6.685688 45.319762 37.106927 0.141206 0.989980 0.000000 1.6580765988230895e-38
5.456922 45.363597 36.624041 0.116773 0.993159 0.000000 1.6580765988230895e-38
4.448200 45.782297 36.423082 0.092268 0.995734 0.000000 1.6580765988230895e-38
3.252220 46.192233 36.775111 0.067708 0.997705 0.000000 1.6580765988230895e-38
1.951013 45.673183 37.611526 0.043107 0.999070 0.000000 1.6580765988230895e-38
1.182070 45.498982 37.216038 0.018479 0.999829 0.000000 1.6580765988230895e-38
0.408859 45.582042 37.110056 -0.006160 0.999981 0.000000 1.6580765988230895e-38
-1.255448 45.565598 37.642363 -0.030795 0.999526 0.000000 1.6580765988230895e-38
-2.678002 45.283290 36.955907 -0.055411 0.998464 0.000000 1.6580765988230895e-38
-3.465457 45.384191 37.204062 -0.079994 0.996795 0.000000 1.6580765988230895e-38
-4.615536 45.156907 36.944291 -0.104528 0.994522 0.000000 1.6580765988230895e-38
-5.799644 45.598621 36.951767 -0.128999 0.991645 0.000000 1.6580765988230895e-38
-6.975254 45.143471 37.331757 -0.153392 0.988165 0.000000 1.6580765988230895e-38
-7.977149 44.929904 37.256935 -0.177691 0.984086 0.000000 1.6580765988230895e-38
-9.364002 44.965109 37.254790 -0.201882 0.979410 0.000000 1.6580765988230895e-38
-9.630549 44.485759 37.071022 -0.225951 0.974139 0.000000 1.6580765988230895e-38
-11.631394 44.008459 36.976464 -0.249883 0.968276 0.000000 1.6580765988230895e-38
-12.326113 44.244308 37.202106 -0.273663 0.961826 0.000000 1.6580765988230895e-38
-13.695187 43.553094 36.838353 -0.297277 0.954791 0.000000 1.6580765988230895e-38
-14.846077 42.964074 37.520760 -0.320710 0.947177 0.000000 1.6580765988230895e-38
-15.191507 42.397041 37.200181 -0.343949 0.938988 0.000000 1.6580765988230895e-38
-16.714930 42.639538 36.935579 -0.366979 0.930229 0.000000 1.6580765988230895e-38
-17.533871 42.273286 37.423639 -0.389786 0.920906 0.000000 1.6580765988230895e-38
-19.094935 41.282845 37.243874 -0.412356 0.911023 0.000000 1.6580765988230895e-38
4.289085 45.567942 38.034165 0.092268 0.995734 0.000000 1.6580765988230895e-38
2.922830 45.399019 38.498949 0.067708 0.997705 0.000000 1.6580765988230895e-38
1.740887 46.050267 38.511779 0.043107 0.999070 0.000000 1.6580765988230895e-38
1.139332 46.040803 38.688086 0.018479 0.999829 0.000000 1.6580765988230895e-38
0.132641 46.049691 38.446073 -0.006160 0.999981 0.000000 1.6580765988230895e-38
-1.582986 45.655007 38.735138 -0.030795 0.999526 0.000000 1.6580765988230895e-38
-2.365714 46.108515 38.173303 -0.055411 0.998464 0.000000 1.6580765988230895e-38
-3.190407 45.757186 38.109963 -0.079994 0.996795 0.000000 1.6580765988230895e-38
-4.977600 46.192611 38.017201 -0.104528 0.994522 0.000000 1.6580765988230895e-38
-6.155830 46.458532 38.632827 -0.128999 0.991645 0.000000 1.6580765988230895e-38
-7.271806 45.104595 37.848706 -0.153392 0.988165 0.000000 1.6580765988230895e-38
-8.139870 45.459904 38.806155 -0.177691 0.984086 0.000000 1.6580765988230895e-38
-9.849355 44.628887 38.314650 -0.201882 0.979410 0.000000 1.6580765988230895e-38
-9.551380 45.049941 38.462355 -0.225951 0.974139 0.000000 1.6580765988230895e-38
-11.855372 43.878654 38.362170 -0.249883 0.968276 0.000000 1.6580765988230895e-38
-12.610946 44.137763 38.236385 -0.273663 0.961826 0.000000 1.6580765988230895e-38
-13.891244 43.601423 38.767368 -0.297277 0.954791 0.000000 1.6580765988230895e-38
-15.010002 43.461834 38.338792 -0.320710 0.947177 0.000000 1.6580765988230895e-38
-15.600513 42.912655 38.643936 -0.343949 0.938988 0.000000 1.6580765988230895e-38
-17.045052 42.716955 38.843445 -0.366979 0.930229 0.000000 1.6580765988230895e-38
-18.210433 42.553152 38.651899 -0.389786 0.920906 0.000000 1.6580765988230895e-38
-18.864328 41.847275 38.988227 -0.412356 0.911023 0.000000 1.6580765988230895e-38
-19.987576 41.463985 38.249557 -0.434676 0.900587 0.000000 1.6580765988230895e-38
2.309388 46.139168 39.760735 0.043107 0.999070 0.000000 1.6580765988230895e-38
0.993617 46.110182 39.884068 0.018479 0.999829 0.000000 1.6580765988230895e-38
-0.148823 46.083703 39.082456 -0.006160 0.999981 0.000000 1.6580765988230895e-38
-1.265921 45.779805 39.701714 -0.030795 0.999526 0.000000 1.6580765988230895e-38
-2.535241 45.701037 39.665148 -0.055411 0.998464 0.000000 1.6580765988230895e-38
-3.636747 46.090591 39.631728 -0.079994 0.996795 0.000000 1.6580765988230895e-38
-5.022851 46.104602 39.381332 -0.104528 0.994522 0.000000 1.6580765988230895e-38
-6.279574 45.996640 39.868558 -0.128999 0.991645 0.000000 1.6580765988230895e-38
-6.901782 45.571421 39.005789 -0.153392 0.988165 0.000000 1.6580765988230895e-38
-7.761279 44.858675 39.763447 -0.177691 0.984086 0.000000 1.6580765988230895e-38
-8.689879 45.274080 39.674999 -0.201882 0.979410 0.000000 1.6580765988230895e-38
-10.320656 45.045267 40.292813 -0.225951 0.974139 0.000000 1.6580765988230895e-38
-11.792571 44.424465 39.489379 -0.249883 0.968276 0.000000 1.6580765988230895e-38
-12.115534 44.244140 39.716718 -0.273663 0.961826 0.000000 1.6580765988230895e-38
-13.406972 44.326053 39.893051 -0.297277 0.954791 0.000000 1.6580765988230895e-38
-14.385034 43.833213 39.450514 -0.320710 0.947177 0.000000 1.6580765988230895e-38
-15.839429 43.260859 40.344094 -0.343949 0.938988 0.000000 1.6580765988230895e-38
-17.106914 43.103024 39.137369 -0.366979 0.930229 0.000000 1.6580765988230895e-38
-17.960505 42.441377 39.790334 -0.389786 0.920906 0.000000 1.6580765988230895e-38
-18.832130 42.496215 39.988900 -0.412356 0.911023 0.000000 1.6580765988230895e-38
-20.093292 41.305867 39.339497 -0.434676 0.900587 0.000000 1.6580765988230895e-38
-0.027036 46.301611 40.859446 -0.006160 0.999981 0.000000 1.6580765988230895e-38
-1.249954 46.185097 41.065074 -0.030795 0.999526 0.000000 1.6580765988230895e-38
-2.650362 46.373245 40.031191 -0.055411 0.998464 0.000000 1.6580765988230895e-38
-3.812222 46.621500 41.033145 -0.079994 0.996795 0.000000 1.6580765988230895e-38
-4.583227 46.152965 41.327625 -0.104528 0.994522 0.000000 1.6580765988230895e-38
-5.897885 45.805464 41.081285 -0.128999 0.991645 0.000000 1.6580765988230895e-38
-6.839229 46.030966 40.703862 -0.153392 0.988165 0.000000 1.6580765988230895e-38
-8.158839 46.070850 40.968007 -0.177691 0.984086 0.000000 1.6580765988230895e-38
-9.808877 45.247273 40.622163 -0.201882 0.979410 0.000000 1.6580765988230895e-38
-10.708427 44.557981 41.391916 -0.225951 0.974139 0.000000 1.6580765988230895e-38
-11.855234 44.678211 40.242230 -0.249883 0.968276 0.000000 1.6580765988230895e-38
-12.435600 44.592895 40.719468 -0.273663 0.961826 0.000000 1.6580765988230895e-38
-13.880402 44.470166 40.680736 -0.297277 0.954791 0.000000 1.6580765988230895e-38
-15.474773 43.553144 40.421701 -0.320710 0.947177 0.000000 1.6580765988230895e-38
-15.873575 43.839714 41.264484 -0.343949 0.938988 0.000000 1.6580765988230895e-38
-17.515020 43.340447 40.640221 -0.366979 0.930229 0.000000 1.6580765988230895e-38
-17.205560 43.136891 41.335311 -0.389786 0.920906 0.000000 1.6580765988230895e-38
-18.888933 42.377914 40.703967 -0.412356 0.911023 0.000000 1.6580765988230895e-38
-2.729733 46.664408 42.053285 -0.055411 0.998464 0.000000 1.6580765988230895e-38
-3.670622 46.662174 42.108277 -0.079994 0.996795 0.000000 1.6580765988230895e-38
-4.676740 46.097521 41.695024 -0.104528 0.994522 0.000000 1.6580765988230895e-38
-5.868916 46.421213 42.217548 -0.128999 0.991645 0.000000 1.6580765988230895e-38
-7.109480 45.957126 42.125151 -0.153392 0.988165 0.000000 1.6580765988230895e-38
-8.167657 45.996016 42.843998 -0.177691 0.984086 0.000000 1.6580765988230895e-38
-9.685152 46.614069 41.684809 -0.201882 0.979410 0.000000 1.6580765988230895e-38
-10.414962 45.042151 42.153729 -0.225951 0.974139 0.000000 1.6580765988230895e-38
-11.351384 45.137149 42.353780 -0.249883 0.968276 0.000000 1.6580765988230895e-38
-12.881414 44.211788 42.249868 -0.273663 0.961826 0.000000 1.6580765988230895e-38
-13.845663 44.355022 41.938687 -0.297277 0.954791 0.000000 1.6580765988230895e-38
-14.825014 43.899691 42.174429 -0.320710 0.947177 0.000000 1.6580765988230895e-38
-15.673457 44.380416 42.483214 -0.343949 0.938988 0.000000 1.6580765988230895e-38
-17.054852 43.431471 41.941781 -0.366979 0.930229 0.000000 1.6580765988230895e-38
-18.306013 43.181238 41.969603 -0.389786 0.920906 0.000000 1.6580765988230895e-38
-19.108406 42.170275 42.472949 -0.412356 0.911023 0.000000 1.6580765988230895e-38
-5.198698 45.827037 43.065476 -0.128999 0.991645 0.000000 1.6580765988230895e-38
-7.122449 46.434814 43.244478 -0.153392 0.988165 0.000000 1.6580765988230895e-38
-8.468976 46.739879 43.135912 -0.177691 0.984086 0.000000 1.6580765988230895e-38
-9.758804 46.367375 43.553715 -0.201882 0.979410 0.000000 1.6580765988230895e-38
-10.251584 45.672070 42.886173 -0.225951 0.974139 0.000000 1.6580765988230895e-38
-11.675197 44.884692 43.371661 -0.249883 0.968276 0.000000 1.6580765988230895e-38
-12.618043 45.359389 43.271253 -0.273663 0.961826 0.000000 1.6580765988230895e-38
-13.695338 44.436233 43.588959 -0.297277 0.954791 0.000000 1.6580765988230895e-38
-14.814643 44.110791 43.458078 -0.320710 0.947177 0.000000 1.6580765988230895e-38
-15.778233 43.991019 43.052215 -0.343949 0.938988 0.000000 1.6580765988230895e-38
-17.130180 43.723024 43.049963 -0.366979 0.930229 0.000000 1.6580765988230895e-38
-18.553724 43.277196 43.545964 -0.389786 0.920906 0.000000 1.6580765988230895e-38
-18.663348 42.857669 42.936245 -0.412356 0.911023 0.000000 1.6580765988230895e-38
-8.515274 45.723074 43.894758 -0.177691 0.984086 0.000000 1.6580765988230895e-38
-9.463598 45.719530 45.028438 -0.201882 0.979410 0.000000 1.6580765988230895e-38
-10.282714 45.747810 44.437589 -0.225951 0.974139 0.000000 1.6580765988230895e-38
-11.310366 46.067831 44.256303 -0.249883 0.968276 0.000000 1.6580765988230895e-38
-13.193085 45.159656 44.665440 -0.273663 0.961826 0.000000 1.6580765988230895e-38
-14.139768 45.054712 45.121172 -0.297277 0.954791 0.000000 1.6580765988230895e-38
-15.509921 44.427139 44.119985 -0.320710 0.947177 0.000000 1.6580765988230895e-38
-16.432373 44.087179 44.317919 -0.343949 0.938988 0.000000 1.6580765988230895e-38
-17.108866 43.808792 44.625788 -0.366979 0.930229 0.000000 1.6580765988230895e-38
-18.429849 43.260476 44.430875 -0.389786 0.920906 0.000000 1.6580765988230895e-38
-10.300628 45.911021 45.359632 -0.225951 0.974139 0.000000 1.6580765988230895e-38
-11.726699 45.575778 46.237676 -0.249883 0.968276 0.000000 1.6580765988230895e-38
-12.613865 45.084915 45.721027 -0.273663 0.961826 0.000000 1.6580765988230895e-38
-14.279070 44.785515 45.756416 -0.297277 0.954791 0.000000 1.6580765988230895e-38
-14.914732 44.749237 45.618351 -0.320710 0.947177 0.000000 1.6580765988230895e-38
-16.920582 44.186905 45.938737 -0.343949 0.938988 0.000000 1.6580765988230895e-38
-17.749931 44.357371 45.598105 -0.366979 0.930229 0.000000 1.6580765988230895e-38
-12.918145 45.625223 47.417636 -0.273663 0.961826 0.000000 1.6580765988230895e-38
-14.222115 45.269975 46.946968 -0.297277 0.954791 0.000000 1.6580765988230895e-38
-15.209052 45.219455 46.568543 -0.320710 0.947177 0.000000 1.6580765988230895e-38
-16.076595 44.620834 47.176520 -0.343949 0.938988 0.000000 1.6580765988230895e-38
-15.047497 45.588901 48.404301 -0.320710 0.947177 0.000000 1.6580765988230895e-38
